#include <stdint.h>
const uint8_t midifile[] = {
0x4d,0x54,0x68,0x64,0x00,0x00,0x00,0x06,0x00,0x01,0x00,0x0a,0x00,0x60,0x4d,0x54,
0x72,0x6b,0x00,0x00,0x00,0x41,0x00,0xff,0x03,0x10,0x43,0x68,0x61,0x72,0x69,0x6f,
0x74,0x73,0x20,0x6f,0x66,0x20,0x46,0x69,0x72,0x65,0x00,0xff,0x03,0x08,0x56,0x61,
0x6e,0x67,0x65,0x6c,0x69,0x73,0x00,0xff,0x58,0x04,0x04,0x02,0x18,0x08,0x00,0xff,
0x59,0x02,0x00,0x00,0x00,0xff,0x51,0x03,0x07,0xa1,0x20,0x83,0x00,0xff,0x51,0x03,
0x0d,0x14,0x37,0x00,0xff,0x2f,0x00,0x4d,0x54,0x72,0x6b,0x00,0x00,0x13,0xd3,0x00,
0xff,0x21,0x01,0x00,0x00,0xb0,0x00,0x00,0x00,0x20,0x00,0x00,0xc0,0x01,0x00,0xb0,
0x07,0x7f,0x00,0x5b,0x28,0x00,0x5d,0x00,0x6b,0x65,0x00,0x00,0x64,0x00,0x00,0x06,
0x0c,0x00,0x26,0x00,0x99,0x7c,0x90,0x25,0x7f,0x19,0x19,0x7f,0x85,0x77,0x19,0x00,
0x00,0x25,0x00,0x84,0x78,0x49,0x7f,0x29,0x3d,0x7f,0x03,0x42,0x7f,0x04,0x49,0x00,
0x01,0x46,0x7f,0x00,0x4e,0x7f,0x1f,0x4e,0x00,0x01,0x50,0x7f,0x1f,0x50,0x00,0x00,
0x52,0x7f,0x11,0x3d,0x00,0x02,0x42,0x00,0x05,0x46,0x00,0x01,0x3d,0x7f,0x03,0x52,
0x00,0x01,0x41,0x7f,0x04,0x44,0x7f,0x00,0x50,0x7f,0x0c,0xb0,0x40,0x7f,0x53,0x90,
0x50,0x00,0x01,0x4d,0x7f,0x74,0x4d,0x00,0x1c,0x49,0x7f,0x1a,0xb0,0x40,0x00,0x05,
0x90,0x3d,0x00,0x05,0x41,0x00,0x03,0x44,0x00,0x01,0x3d,0x7f,0x04,0x42,0x7f,0x03,
0x49,0x00,0x01,0x4e,0x7f,0x00,0x46,0x7f,0x02,0xb0,0x40,0x7f,0x1d,0x90,0x4e,0x00,
0x01,0x50,0x7f,0x1f,0x50,0x00,0x00,0x52,0x7f,0x0d,0xb0,0x40,0x00,0x04,0x90,0x3d,
0x00,0x04,0x42,0x00,0x04,0x46,0x00,0x00,0x3d,0x7f,0x02,0xb0,0x40,0x7f,0x01,0x90,
0x41,0x7f,0x04,0x52,0x00,0x00,0x44,0x7f,0x01,0x50,0x7f,0x81,0x62,0x50,0x00,0x0d,
0x49,0x7f,0x20,0x3d,0x00,0x04,0x41,0x00,0x04,0x44,0x00,0x00,0x3d,0x7f,0x04,0x42,
0x7f,0x03,0x49,0x00,0x00,0xb0,0x40,0x00,0x01,0x90,0x4e,0x7f,0x01,0x46,0x7f,0x0d,
0xb0,0x40,0x7f,0x11,0x90,0x4e,0x00,0x01,0x50,0x7f,0x1f,0x50,0x00,0x01,0x52,0x7f,
0x0f,0x3d,0x00,0x04,0x42,0x00,0x05,0x3d,0x7f,0x01,0x46,0x00,0x03,0xb0,0x40,0x00,
0x01,0x90,0x41,0x7f,0x03,0x52,0x00,0x00,0x50,0x7f,0x01,0x44,0x7f,0x0b,0xb0,0x40,
0x7f,0x54,0x90,0x50,0x00,0x01,0x4d,0x7f,0x81,0x01,0x4d,0x00,0x0e,0x4d,0x7f,0x20,
0x3d,0x00,0x04,0x41,0x00,0x04,0x44,0x00,0x00,0x3d,0x7f,0x04,0xb0,0x40,0x00,0x01,
0x90,0x42,0x7f,0x02,0x4d,0x00,0x01,0x46,0x7f,0x00,0x4e,0x7f,0x0e,0xb0,0x40,0x7f,
0x11,0x90,0x4e,0x00,0x01,0x4d,0x7f,0x1f,0x4d,0x00,0x01,0x49,0x7f,0x10,0x3d,0x00,
0x04,0x42,0x00,0x03,0x46,0x00,0x02,0x3d,0x7f,0x01,0x49,0x00,0x00,0xb0,0x40,0x00,
0x03,0x90,0x41,0x7f,0x04,0x44,0x7f,0x00,0x49,0x7f,0x08,0xb0,0x40,0x7f,0x81,0x68,
0x90,0x49,0x00,0x00,0x49,0x7f,0x20,0x3d,0x00,0x04,0x41,0x00,0x03,0x44,0x00,0x00,
0x3d,0x7f,0x05,0x42,0x7f,0x03,0xb0,0x40,0x00,0x00,0x90,0x46,0x7f,0x00,0x4e,0x7f,
0x04,0x49,0x00,0x0f,0xb0,0x40,0x7f,0x0d,0x90,0x4e,0x00,0x01,0x50,0x7f,0x1e,0x50,
0x00,0x01,0x52,0x7f,0x0f,0x3d,0x00,0x05,0x42,0x00,0x04,0x46,0x00,0x00,0x3d,0x7f,
0x04,0x41,0x7f,0x01,0xb0,0x40,0x00,0x02,0x90,0x52,0x00,0x02,0x44,0x7f,0x00,0x50,
0x7f,0x0d,0xb0,0x40,0x7f,0x52,0x90,0x50,0x00,0x00,0x4d,0x7f,0x7d,0x4d,0x00,0x14,
0x49,0x7f,0x1f,0x3d,0x00,0x04,0x41,0x00,0x04,0x44,0x00,0x00,0x3d,0x7f,0x04,0xb0,
0x40,0x00,0x01,0x90,0x42,0x7f,0x03,0x46,0x7f,0x01,0x49,0x00,0x00,0x4e,0x7f,0x10,
0xb0,0x40,0x7f,0x0f,0x90,0x4e,0x00,0x00,0x50,0x7f,0x20,0x50,0x00,0x01,0x52,0x7f,
0x0e,0x3d,0x00,0x06,0x42,0x00,0x03,0x46,0x00,0x01,0x3d,0x7f,0x03,0x41,0x7f,0x02,
0xb0,0x40,0x00,0x03,0x90,0x52,0x00,0x00,0x44,0x7f,0x00,0x50,0x7f,0x12,0xb0,0x40,
0x7f,0x81,0x4a,0x90,0x50,0x00,0x14,0x49,0x7f,0x20,0x3d,0x00,0x03,0x41,0x00,0x04,
0x44,0x00,0x01,0x3d,0x7f,0x03,0xb0,0x40,0x00,0x01,0x90,0x42,0x7f,0x02,0x49,0x00,
0x01,0x4e,0x7f,0x00,0x46,0x7f,0x11,0xb0,0x40,0x7f,0x0e,0x90,0x4e,0x00,0x02,0x50,
0x7f,0x20,0x50,0x00,0x00,0x52,0x7f,0x10,0x3d,0x00,0x03,0x42,0x00,0x04,0x46,0x00,
0x00,0x3d,0x7f,0x04,0xb0,0x40,0x00,0x01,0x90,0x41,0x7f,0x03,0x52,0x00,0x00,0x50,
0x7f,0x01,0x44,0x7f,0x0f,0xb0,0x40,0x7f,0x50,0x90,0x50,0x00,0x01,0x4d,0x7f,0x81,
0x0f,0x4d,0x00,0x01,0x4d,0x7f,0x1f,0x3d,0x00,0x05,0x41,0x00,0x03,0x44,0x00,0x01,
0x3d,0x7f,0x03,0x42,0x7f,0x03,0xb0,0x40,0x00,0x01,0x90,0x46,0x7f,0x01,0x4e,0x7f,
0x04,0x4d,0x00,0x10,0xb0,0x40,0x7f,0x0a,0x90,0x4e,0x00,0x01,0x4d,0x7f,0x1f,0x4d,
0x00,0x02,0x49,0x7f,0x0f,0x3d,0x00,0x03,0x42,0x00,0x04,0x46,0x00,0x02,0x3d,0x7f,
0x04,0x49,0x00,0x00,0x41,0x7f,0x01,0xb0,0x40,0x00,0x02,0x90,0x44,0x7f,0x01,0x49,
0x7f,0x0c,0xb0,0x40,0x7f,0x73,0x90,0x3d,0x00,0x04,0x41,0x00,0x04,0x44,0x00,0x09,
0x38,0x7f,0x18,0x35,0x7f,0x07,0x38,0x00,0x09,0x35,0x00,0x08,0x35,0x7f,0x17,0x38,
0x7f,0x07,0x35,0x00,0x0a,0x49,0x00,0x07,0x3d,0x7f,0x01,0x49,0x7f,0x00,0x4d,0x72,
0x00,0x55,0x7f,0x06,0x38,0x00,0x29,0x4d,0x00,0x00,0x55,0x00,0x00,0x49,0x00,0x00,
0x48,0x7f,0x00,0x4d,0x6e,0x00,0x54,0x7f,0x20,0x54,0x00,0x00,0x4d,0x00,0x00,0x48,
0x00,0x01,0x46,0x7f,0x00,0x4d,0x6c,0x00,0x52,0x7f,0x1f,0x52,0x00,0x00,0x4d,0x00,
0x00,0x46,0x00,0x00,0x44,0x7f,0x00,0x4d,0x6c,0x00,0x50,0x7f,0x1c,0x3d,0x00,0x00,
0xb0,0x40,0x00,0x04,0x90,0x44,0x00,0x00,0x4d,0x00,0x00,0x50,0x00,0x01,0x29,0x7f,
0x00,0x48,0x7f,0x00,0x4d,0x6e,0x00,0x54,0x7f,0x08,0xb0,0x40,0x7f,0x53,0x40,0x00,
0x03,0x90,0x54,0x00,0x00,0x48,0x00,0x01,0x4d,0x00,0x00,0x46,0x7f,0x01,0x4e,0x72,
0x00,0x52,0x7f,0x00,0x2a,0x7f,0x03,0x29,0x00,0x12,0xb0,0x40,0x7f,0x44,0x40,0x00,
0x06,0x90,0x52,0x00,0x00,0x46,0x00,0x00,0x4e,0x00,0x00,0x25,0x7f,0x00,0x44,0x7f,
0x01,0x4d,0x6c,0x00,0x50,0x7f,0x03,0x2a,0x00,0x0d,0xb0,0x40,0x7f,0x08,0x90,0x31,
0x7f,0x18,0x35,0x7f,0x0e,0x44,0x00,0x01,0x4d,0x00,0x00,0x49,0x7f,0x00,0x55,0x7f,
0x01,0x50,0x00,0x00,0x4d,0x6c,0x08,0x38,0x7f,0x06,0x4d,0x00,0x0e,0x49,0x00,0x00,
0x55,0x00,0x03,0x48,0x7f,0x01,0x4d,0x6c,0x00,0x54,0x7f,0x0b,0xb0,0x40,0x00,0x10,
0x40,0x7f,0x04,0x90,0x4d,0x00,0x00,0x48,0x00,0x00,0x46,0x7f,0x00,0x52,0x7f,0x01,
0x54,0x00,0x00,0x4d,0x6c,0x18,0x4d,0x00,0x07,0x52,0x00,0x00,0x46,0x00,0x00,0x50,
0x7f,0x01,0x44,0x7f,0x00,0x4d,0x66,0x13,0xb0,0x40,0x00,0x01,0x90,0x4d,0x00,0x06,
0x25,0x00,0x01,0x38,0x00,0x01,0x31,0x00,0x00,0x35,0x00,0x02,0x50,0x00,0x01,0x44,
0x00,0x00,0x48,0x7f,0x01,0x4d,0x69,0x00,0x29,0x7f,0x00,0x54,0x7f,0x02,0xb0,0x40,
0x7f,0x4f,0x40,0x00,0x0e,0x90,0x4d,0x00,0x00,0xb0,0x40,0x7f,0x01,0x90,0x4b,0x69,
0x00,0x4e,0x5f,0x00,0x2c,0x7f,0x04,0x29,0x00,0x53,0x4e,0x00,0x00,0x4b,0x00,0x01,
0xb0,0x40,0x00,0x08,0x90,0x25,0x7f,0x03,0x2c,0x00,0x05,0xb0,0x40,0x7f,0x10,0x90,
0x31,0x7f,0x03,0x48,0x00,0x02,0x54,0x00,0x12,0x35,0x7f,0x00,0x49,0x7f,0x00,0x55,
0x7f,0x01,0x4d,0x6c,0x17,0x38,0x7f,0x10,0x4d,0x00,0x08,0x49,0x00,0x00,0x55,0x00,
0x01,0x4d,0x6f,0x00,0x54,0x7f,0x00,0x48,0x7f,0x09,0xb0,0x40,0x00,0x0d,0x40,0x7f,
0x05,0x90,0x4d,0x00,0x04,0x54,0x00,0x00,0x52,0x7f,0x01,0x48,0x00,0x00,0x4d,0x6f,
0x00,0x46,0x7f,0x0f,0x4d,0x00,0x0f,0x52,0x00,0x01,0x44,0x7f,0x00,0x50,0x7f,0x01,
0x46,0x00,0x00,0x4d,0x72,0x07,0x4d,0x00,0x01,0x4d,0x65,0x0e,0x4d,0x00,0x03,0xb0,
0x40,0x00,0x01,0x90,0x38,0x00,0x01,0x35,0x00,0x00,0x25,0x00,0x01,0x31,0x00,0x00,
0x4d,0x6c,0x02,0x44,0x00,0x01,0x50,0x00,0x01,0x29,0x7f,0x00,0x48,0x7f,0x00,0x50,
0x61,0x00,0x54,0x7f,0x08,0xb0,0x40,0x7f,0x0b,0x90,0x4d,0x00,0x1d,0x50,0x00,0x17,
0x50,0x7f,0x10,0x50,0x00,0x01,0xb0,0x40,0x00,0x04,0x90,0x49,0x69,0x03,0x48,0x00,
0x00,0x2a,0x7f,0x00,0x52,0x7f,0x01,0x54,0x00,0x00,0x4e,0x65,0x00,0x46,0x7f,0x03,
0x29,0x00,0x06,0xb0,0x40,0x7f,0x38,0x90,0x4e,0x00,0x07,0x4e,0x7f,0x08,0xb0,0x40,
0x00,0x03,0x90,0x49,0x00,0x04,0x4e,0x00,0x05,0x49,0x69,0x03,0x52,0x00,0x00,0x50,
0x7f,0x00,0x44,0x7f,0x01,0x46,0x00,0x00,0x4d,0x6e,0x00,0x25,0x7f,0x01,0x2a,0x00,
0x01,0xb0,0x40,0x7f,0x15,0x90,0x31,0x7f,0x19,0x4d,0x00,0x00,0x35,0x7f,0x0e,0x50,
0x00,0x01,0x44,0x00,0x00,0x4d,0x7f,0x01,0x41,0x7f,0x07,0x38,0x7f,0x0a,0xb0,0x40,
0x00,0x02,0x90,0x49,0x00,0x04,0x4d,0x00,0x07,0xb0,0x40,0x7f,0x01,0x90,0x4e,0x7f,
0x01,0x41,0x00,0x00,0x42,0x7f,0x1e,0x4e,0x00,0x01,0x42,0x00,0x00,0x41,0x7f,0x01,
0x4d,0x7f,0x1f,0x4d,0x00,0x00,0x41,0x00,0x00,0x3d,0x7f,0x00,0x49,0x7f,0x10,0xb0,
0x40,0x00,0x08,0x90,0x49,0x00,0x00,0x3d,0x00,0x03,0x31,0x00,0x00,0x38,0x00,0x01,
0x35,0x00,0x01,0x25,0x00,0x03,0xb0,0x40,0x7f,0x00,0x90,0x49,0x7f,0x01,0x25,0x7f,
0x00,0x3d,0x7f,0x48,0x31,0x7f,0x17,0x35,0x7f,0x18,0x38,0x7f,0x22,0x49,0x00,0x02,
0x3d,0x00,0x0d,0x3d,0x7f,0x18,0x41,0x7f,0x10,0x3d,0x00,0x07,0x3d,0x7f,0x0e,0x41,
0x00,0x0a,0x49,0x7f,0x00,0x55,0x7f,0x23,0xb0,0x40,0x00,0x0a,0x90,0x55,0x00,0x00,
0x49,0x00,0x03,0x48,0x7f,0x00,0x54,0x7f,0x02,0xb0,0x40,0x7f,0x1d,0x90,0x54,0x00,
0x00,0x48,0x00,0x01,0x46,0x7f,0x00,0x52,0x7f,0x1f,0x52,0x00,0x00,0x46,0x00,0x02,
0x50,0x7f,0x00,0x44,0x7f,0x10,0xb0,0x40,0x00,0x02,0x90,0x3d,0x00,0x05,0x35,0x00,
0x00,0x38,0x00,0x01,0x31,0x00,0x03,0x25,0x00,0x04,0x50,0x00,0x00,0x54,0x7f,0x00,
0xb0,0x40,0x7f,0x01,0x90,0x44,0x00,0x00,0x48,0x7f,0x00,0x4d,0x6e,0x00,0x29,0x7f,
0x51,0xb0,0x40,0x00,0x0d,0x90,0x54,0x00,0x00,0xb0,0x40,0x7f,0x01,0x90,0x48,0x00,
0x00,0x4d,0x00,0x00,0x52,0x7f,0x01,0x2a,0x7f,0x00,0x46,0x7f,0x00,0x4e,0x72,0x04,
0x29,0x00,0x50,0xb0,0x40,0x00,0x0b,0x90,0x46,0x00,0x00,0x52,0x00,0x00,0x4e,0x00,
0x00,0x25,0x7f,0x00,0x50,0x7f,0x01,0x4d,0x6c,0x00,0x44,0x7f,0x02,0x2a,0x00,0x00,
0xb0,0x40,0x7f,0x15,0x90,0x31,0x7f,0x18,0x35,0x7f,0x10,0x4d,0x00,0x00,0x50,0x00,
0x00,0x55,0x7f,0x01,0x44,0x00,0x00,0x4d,0x6c,0x00,0x49,0x7f,0x07,0x38,0x7f,0x07,
0x4d,0x00,0x0e,0x55,0x00,0x01,0x49,0x00,0x02,0x48,0x7f,0x00,0x54,0x7f,0x01,0x4d,
0x6c,0x1e,0x48,0x00,0x01,0x54,0x00,0x00,0x4d,0x00,0x00,0x46,0x7f,0x01,0x4d,0x6c,
0x00,0x52,0x7f,0x18,0x4d,0x00,0x06,0x46,0x00,0x01,0x52,0x00,0x00,0x50,0x7f,0x01,
0x4d,0x66,0x00,0x44,0x7f,0x0c,0xb0,0x40,0x00,0x08,0x90,0x4d,0x00,0x06,0x38,0x00,
0x00,0x31,0x00,0x00,0xb0,0x40,0x7f,0x01,0x90,0x25,0x00,0x00,0x35,0x00,0x03,0x50,
0x00,0x01,0x29,0x7f,0x00,0x54,0x7f,0x01,0x44,0x00,0x00,0x4d,0x69,0x00,0x48,0x7f,
0x50,0xb0,0x40,0x00,0x0f,0x90,0x4d,0x00,0x00,0xb0,0x40,0x7f,0x01,0x90,0x4b,0x69,
0x00,0x4e,0x5f,0x00,0x2c,0x7f,0x02,0x29,0x00,0x55,0x4e,0x00,0x00,0x4b,0x00,0x00,
0xb0,0x40,0x00,0x09,0x90,0x25,0x7f,0x03,0x2c,0x00,0x03,0xb0,0x40,0x7f,0x08,0x90,
0x54,0x00,0x02,0x48,0x00,0x07,0x31,0x7f,0x19,0x4d,0x6c,0x00,0x55,0x7f,0x00,0x35,
0x7f,0x00,0x49,0x7f,0x18,0x38,0x7f,0x0f,0x4d,0x00,0x08,0x55,0x00,0x01,0x49,0x00,
0x00,0x4d,0x6f,0x00,0x48,0x7f,0x00,0x54,0x7f,0x1b,0x4d,0x00,0x05,0x48,0x00,0x00,
0x54,0x00,0x00,0x46,0x7f,0x00,0x4d,0x6f,0x00,0x52,0x7f,0x0f,0x4d,0x00,0x10,0x46,
0x00,0x01,0x52,0x00,0x00,0x4d,0x72,0x00,0x50,0x7f,0x00,0x44,0x7f,0x07,0x4d,0x00,
0x01,0x4d,0x65,0x09,0xb0,0x40,0x00,0x05,0x90,0x4d,0x00,0x04,0x31,0x00,0x01,0x38,
0x00,0x01,0x25,0x00,0x00,0x35,0x00,0x00,0x4d,0x6c,0x03,0x50,0x00,0x00,0x54,0x7f,
0x00,0xb0,0x40,0x7f,0x00,0x90,0x48,0x7f,0x01,0x44,0x00,0x00,0x29,0x7f,0x00,0x50,
0x61,0x13,0x4d,0x00,0x41,0xb0,0x40,0x00,0x03,0x90,0x50,0x00,0x05,0x49,0x69,0x02,
0x54,0x00,0x01,0x48,0x00,0x00,0x2a,0x7f,0x00,0x52,0x7f,0x01,0x4e,0x66,0x00,0x46,
0x7f,0x02,0xb0,0x40,0x7f,0x05,0x90,0x29,0x00,0x28,0x52,0x00,0x01,0x46,0x00,0x17,
0x55,0x7f,0x0c,0x49,0x00,0x00,0xb0,0x40,0x00,0x04,0x90,0x4e,0x00,0x05,0x31,0x7f,
0x00,0x49,0x69,0x03,0x44,0x7f,0x01,0x4d,0x6e,0x00,0x25,0x7f,0x00,0x35,0x7f,0x00,
0x50,0x7f,0x01,0x2a,0x00,0x01,0xb0,0x40,0x7f,0x05,0x90,0x55,0x00,0x29,0x4d,0x00,
0x0d,0x31,0x00,0x01,0x44,0x00,0x01,0x4d,0x7f,0x01,0x50,0x00,0x00,0x41,0x7f,0x07,
0x35,0x00,0x0c,0x49,0x00,0x04,0x4d,0x00,0x05,0x35,0x7f,0x03,0x38,0x7f,0x00,0x42,
0x7f,0x00,0x4e,0x7f,0x01,0x41,0x00,0x1e,0x42,0x00,0x00,0x4e,0x00,0x01,0x4d,0x7f,
0x01,0x41,0x7f,0x1e,0x4d,0x00,0x01,0x41,0x00,0x01,0x3d,0x7f,0x00,0x49,0x7f,0x10,
0xb0,0x40,0x00,0x07,0x90,0x3d,0x00,0x01,0x49,0x00,0x03,0x25,0x00,0x04,0xb0,0x40,
0x7f,0x00,0x90,0x49,0x7f,0x01,0x35,0x00,0x00,0x38,0x00,0x00,0x25,0x7f,0x00,0x3d,
0x7f,0x48,0x31,0x7f,0x17,0x35,0x7f,0x48,0x38,0x7f,0x10,0x3d,0x00,0x08,0x3d,0x7f,
0x60,0x49,0x00,0x04,0x25,0x00,0x02,0xb0,0x40,0x00,0x04,0x90,0x35,0x00,0x04,0x31,
0x00,0x01,0x38,0x00,0x50,0x3d,0x00,0x02,0x25,0x7f,0x82,0x1f,0x2a,0x7f,0x09,0x25,
0x00,0x57,0x25,0x7f,0x01,0x2a,0x00,0x82,0x1f,0x2a,0x7f,0x05,0x25,0x00,0x5c,0x25,
0x7f,0x06,0x2a,0x00,0x82,0x1a,0x2c,0x7f,0x04,0x25,0x00,0x5c,0x25,0x7f,0x02,0x2c,
0x00,0x82,0x1d,0x2a,0x7f,0x04,0x25,0x00,0x5c,0x25,0x7f,0x03,0x2a,0x00,0x82,0x1e,
0x2a,0x7f,0x04,0x25,0x00,0x5c,0x25,0x7f,0x06,0x2a,0x00,0x82,0x19,0x2a,0x7f,0x05,
0x25,0x00,0x5c,0x25,0x7f,0x04,0x2a,0x00,0x82,0x1c,0x2c,0x7f,0x02,0x25,0x00,0x59,
0x2c,0x00,0x04,0x25,0x7f,0x81,0x28,0x3d,0x7d,0x19,0x41,0x7f,0x17,0x44,0x7f,0x19,
0x48,0x7f,0x00,0x4d,0x72,0x00,0x55,0x7f,0x2f,0x55,0x00,0x00,0x48,0x00,0x00,0x4d,
0x00,0x00,0x48,0x7f,0x00,0x4d,0x6e,0x00,0x54,0x7f,0x20,0x54,0x00,0x00,0x48,0x00,
0x00,0x4d,0x00,0x01,0x46,0x7f,0x00,0x4d,0x6c,0x00,0x52,0x7f,0x1c,0x44,0x00,0x03,
0x4d,0x00,0x00,0x46,0x00,0x00,0x52,0x00,0x00,0x44,0x7f,0x00,0x4d,0x6c,0x00,0x50,
0x7f,0x1c,0x25,0x00,0x00,0x3d,0x00,0x00,0x41,0x00,0x04,0x50,0x00,0x00,0x4d,0x00,
0x01,0x29,0x7f,0x00,0x48,0x7f,0x00,0x4d,0x6e,0x00,0x54,0x7f,0x08,0xb0,0x40,0x7f,
0x3f,0x90,0x54,0x00,0x01,0x50,0x7f,0x13,0xb0,0x40,0x00,0x03,0x90,0x48,0x00,0x01,
0x4d,0x00,0x00,0x50,0x00,0x00,0x46,0x7f,0x01,0x4e,0x72,0x00,0x52,0x7f,0x00,0x2a,
0x7f,0x03,0x29,0x00,0x05,0x44,0x00,0x0d,0xb0,0x40,0x7f,0x2c,0x90,0x4e,0x00,0x06,
0x52,0x00,0x01,0x4e,0x7f,0x11,0xb0,0x40,0x00,0x06,0x90,0x4e,0x00,0x00,0x46,0x00,
0x00,0x25,0x7f,0x00,0x44,0x7f,0x01,0x4d,0x6c,0x00,0x50,0x7f,0x03,0x2a,0x00,0x0d,
0xb0,0x40,0x7f,0x08,0x90,0x31,0x7f,0x18,0x35,0x7f,0x0e,0x44,0x00,0x01,0x4d,0x00,
0x00,0x49,0x7f,0x00,0x55,0x7f,0x01,0x50,0x00,0x00,0x4d,0x6c,0x08,0x38,0x7f,0x06,
0x4d,0x00,0x0e,0x49,0x00,0x00,0x55,0x00,0x03,0x48,0x7f,0x01,0x4d,0x6c,0x00,0x54,
0x7f,0x0b,0xb0,0x40,0x00,0x10,0x40,0x7f,0x04,0x90,0x4d,0x00,0x00,0x48,0x00,0x00,
0x46,0x7f,0x00,0x52,0x7f,0x01,0x54,0x00,0x00,0x4d,0x6c,0x18,0x4d,0x00,0x07,0x52,
0x00,0x00,0x46,0x00,0x00,0x50,0x7f,0x01,0x44,0x7f,0x00,0x4d,0x66,0x13,0xb0,0x40,
0x00,0x01,0x90,0x4d,0x00,0x06,0x25,0x00,0x01,0x38,0x00,0x01,0x31,0x00,0x00,0x35,
0x00,0x02,0x50,0x00,0x01,0x44,0x00,0x00,0x48,0x7f,0x01,0x4d,0x69,0x00,0x29,0x7f,
0x00,0x54,0x7f,0x02,0xb0,0x40,0x7f,0x4f,0x40,0x00,0x0e,0x90,0x4d,0x00,0x00,0xb0,
0x40,0x7f,0x01,0x90,0x4b,0x69,0x00,0x4e,0x5f,0x00,0x2c,0x7f,0x04,0x29,0x00,0x53,
0x4e,0x00,0x00,0x4b,0x00,0x01,0xb0,0x40,0x00,0x08,0x90,0x25,0x7f,0x03,0x2c,0x00,
0x05,0xb0,0x40,0x7f,0x10,0x90,0x31,0x7f,0x03,0x48,0x00,0x02,0x54,0x00,0x12,0x35,
0x7f,0x00,0x49,0x7f,0x00,0x55,0x7f,0x01,0x4d,0x6c,0x17,0x38,0x7f,0x10,0x4d,0x00,
0x08,0x49,0x00,0x00,0x55,0x00,0x01,0x4d,0x6f,0x00,0x54,0x7f,0x00,0x48,0x7f,0x09,
0xb0,0x40,0x00,0x0d,0x40,0x7f,0x05,0x90,0x4d,0x00,0x04,0x54,0x00,0x00,0x52,0x7f,
0x01,0x48,0x00,0x00,0x4d,0x6f,0x00,0x46,0x7f,0x0f,0x4d,0x00,0x0f,0x52,0x00,0x01,
0x44,0x7f,0x00,0x50,0x7f,0x01,0x46,0x00,0x00,0x4d,0x72,0x07,0x4d,0x00,0x01,0x4d,
0x65,0x0e,0x4d,0x00,0x03,0xb0,0x40,0x00,0x01,0x90,0x38,0x00,0x01,0x35,0x00,0x00,
0x25,0x00,0x01,0x31,0x00,0x00,0x4d,0x6c,0x02,0x44,0x00,0x01,0x50,0x00,0x01,0x29,
0x7f,0x00,0x48,0x7f,0x00,0x50,0x61,0x00,0x54,0x7f,0x08,0xb0,0x40,0x7f,0x0b,0x90,
0x4d,0x00,0x1d,0x50,0x00,0x17,0x50,0x7f,0x10,0x50,0x00,0x01,0xb0,0x40,0x00,0x04,
0x90,0x49,0x69,0x03,0x48,0x00,0x00,0x2a,0x7f,0x00,0x52,0x7f,0x01,0x54,0x00,0x00,
0x4e,0x66,0x00,0x46,0x7f,0x03,0x29,0x00,0x06,0xb0,0x40,0x7f,0x38,0x90,0x4e,0x00,
0x07,0x4e,0x7f,0x08,0xb0,0x40,0x00,0x03,0x90,0x49,0x00,0x04,0x4e,0x00,0x05,0x49,
0x69,0x03,0x52,0x00,0x00,0x50,0x7f,0x00,0x44,0x7f,0x01,0x46,0x00,0x00,0x4d,0x6e,
0x00,0x25,0x7f,0x01,0x2a,0x00,0x01,0xb0,0x40,0x7f,0x15,0x90,0x31,0x7f,0x19,0x4d,
0x00,0x00,0x35,0x7f,0x0e,0x50,0x00,0x01,0x44,0x00,0x00,0x4d,0x7f,0x01,0x41,0x7f,
0x07,0x38,0x7f,0x0a,0xb0,0x40,0x00,0x02,0x90,0x49,0x00,0x04,0x4d,0x00,0x07,0xb0,
0x40,0x7f,0x01,0x90,0x4e,0x7f,0x01,0x41,0x00,0x00,0x42,0x7f,0x1e,0x4e,0x00,0x01,
0x42,0x00,0x00,0x41,0x7f,0x01,0x4d,0x7f,0x1f,0x4d,0x00,0x00,0x41,0x00,0x00,0x3d,
0x7f,0x00,0x49,0x7f,0x10,0xb0,0x40,0x00,0x08,0x90,0x49,0x00,0x00,0x3d,0x00,0x03,
0x31,0x00,0x00,0x38,0x00,0x01,0x35,0x00,0x01,0x25,0x00,0x03,0xb0,0x40,0x7f,0x00,
0x90,0x49,0x7f,0x01,0x25,0x7f,0x00,0x3d,0x7f,0x48,0x31,0x7f,0x17,0x35,0x7f,0x18,
0x38,0x7f,0x2b,0x3d,0x00,0x06,0x3d,0x7f,0x0a,0x49,0x00,0x0e,0x41,0x7f,0x12,0x3d,
0x00,0x05,0x3d,0x7f,0x0e,0x41,0x00,0x0a,0x49,0x7f,0x00,0x55,0x7f,0x23,0xb0,0x40,
0x00,0x0a,0x90,0x55,0x00,0x00,0x49,0x00,0x03,0x48,0x7f,0x00,0x54,0x7f,0x02,0xb0,
0x40,0x7f,0x1d,0x90,0x54,0x00,0x00,0x48,0x00,0x01,0x46,0x7f,0x00,0x52,0x7f,0x1f,
0x52,0x00,0x00,0x46,0x00,0x02,0x50,0x7f,0x00,0x44,0x7f,0x10,0xb0,0x40,0x00,0x02,
0x90,0x3d,0x00,0x05,0x35,0x00,0x00,0x38,0x00,0x01,0x31,0x00,0x03,0x25,0x00,0x04,
0x50,0x00,0x00,0x54,0x7f,0x00,0xb0,0x40,0x7f,0x01,0x90,0x44,0x00,0x00,0x48,0x7f,
0x00,0x4d,0x6e,0x00,0x29,0x7f,0x46,0x54,0x00,0x01,0x50,0x7f,0x0a,0xb0,0x40,0x00,
0x0d,0x90,0x50,0x00,0x00,0xb0,0x40,0x7f,0x01,0x90,0x48,0x00,0x00,0x4d,0x00,0x00,
0x52,0x7f,0x01,0x2a,0x7f,0x00,0x46,0x7f,0x00,0x4e,0x72,0x04,0x29,0x00,0x3d,0x4e,
0x00,0x06,0x52,0x00,0x00,0x4e,0x7f,0x0d,0xb0,0x40,0x00,0x0b,0x90,0x4e,0x00,0x00,
0x46,0x00,0x00,0x25,0x7f,0x00,0x50,0x7f,0x01,0x4d,0x6c,0x00,0x44,0x7f,0x02,0x2a,
0x00,0x00,0xb0,0x40,0x7f,0x15,0x90,0x31,0x7f,0x18,0x35,0x7f,0x10,0x4d,0x00,0x00,
0x50,0x00,0x00,0x55,0x7f,0x01,0x44,0x00,0x00,0x4d,0x6c,0x00,0x49,0x7f,0x07,0x38,
0x7f,0x07,0x4d,0x00,0x0e,0x55,0x00,0x01,0x49,0x00,0x02,0x48,0x7f,0x00,0x54,0x7f,
0x01,0x4d,0x6c,0x1e,0x48,0x00,0x01,0x54,0x00,0x00,0x4d,0x00,0x00,0x46,0x7f,0x01,
0x4d,0x6c,0x00,0x52,0x7f,0x18,0x4d,0x00,0x06,0x46,0x00,0x01,0x52,0x00,0x00,0x50,
0x7f,0x01,0x4d,0x66,0x00,0x44,0x7f,0x0c,0xb0,0x40,0x00,0x08,0x90,0x4d,0x00,0x06,
0x38,0x00,0x00,0x31,0x00,0x00,0xb0,0x40,0x7f,0x01,0x90,0x25,0x00,0x00,0x35,0x00,
0x03,0x50,0x00,0x01,0x29,0x7f,0x00,0x54,0x7f,0x01,0x44,0x00,0x00,0x4d,0x69,0x00,
0x48,0x7f,0x50,0xb0,0x40,0x00,0x0f,0x90,0x4d,0x00,0x00,0xb0,0x40,0x7f,0x01,0x90,
0x4b,0x69,0x00,0x4e,0x5f,0x00,0x2c,0x7f,0x02,0x29,0x00,0x55,0x4e,0x00,0x00,0x4b,
0x00,0x00,0xb0,0x40,0x00,0x09,0x90,0x25,0x7f,0x03,0x2c,0x00,0x03,0xb0,0x40,0x7f,
0x08,0x90,0x54,0x00,0x02,0x48,0x00,0x07,0x31,0x7f,0x19,0x4d,0x6c,0x00,0x55,0x7f,
0x00,0x35,0x7f,0x00,0x49,0x7f,0x18,0x38,0x7f,0x0f,0x4d,0x00,0x08,0x55,0x00,0x01,
0x49,0x00,0x00,0x4d,0x6f,0x00,0x48,0x7f,0x00,0x54,0x7f,0x1b,0x4d,0x00,0x05,0x48,
0x00,0x00,0x54,0x00,0x00,0x46,0x7f,0x00,0x4d,0x6f,0x00,0x52,0x7f,0x0f,0x4d,0x00,
0x10,0x46,0x00,0x01,0x52,0x00,0x00,0x4d,0x72,0x00,0x50,0x7f,0x00,0x44,0x7f,0x07,
0x4d,0x00,0x01,0x4d,0x65,0x09,0xb0,0x40,0x00,0x05,0x90,0x4d,0x00,0x04,0x31,0x00,
0x01,0x38,0x00,0x01,0x25,0x00,0x00,0x35,0x00,0x00,0x4d,0x6c,0x03,0x50,0x00,0x00,
0x54,0x7f,0x00,0xb0,0x40,0x7f,0x00,0x90,0x48,0x7f,0x01,0x44,0x00,0x00,0x29,0x7f,
0x00,0x50,0x61,0x13,0x4d,0x00,0x1d,0x50,0x00,0x16,0x54,0x00,0x01,0x50,0x7f,0x0d,
0xb0,0x40,0x00,0x08,0x90,0x50,0x00,0x00,0x49,0x69,0x03,0x48,0x00,0x00,0x2a,0x7f,
0x00,0x52,0x7f,0x01,0x4e,0x66,0x00,0x46,0x7f,0x02,0xb0,0x40,0x7f,0x05,0x90,0x29,
0x00,0x28,0x52,0x00,0x01,0x46,0x00,0x11,0x4e,0x00,0x06,0x4e,0x7f,0x0c,0x49,0x00,
0x00,0xb0,0x40,0x00,0x04,0x90,0x4e,0x00,0x05,0x31,0x7f,0x00,0x49,0x69,0x03,0x44,
0x7f,0x01,0x4d,0x6e,0x00,0x25,0x7f,0x00,0x35,0x7f,0x00,0x50,0x7f,0x01,0x2a,0x00,
0x01,0xb0,0x40,0x7f,0x2e,0x90,0x4d,0x00,0x0d,0x31,0x00,0x01,0x44,0x00,0x01,0x4d,
0x7f,0x01,0x50,0x00,0x00,0x41,0x7f,0x07,0x35,0x00,0x0c,0x49,0x00,0x04,0x4d,0x00,
0x05,0x35,0x7f,0x03,0x38,0x7f,0x00,0x42,0x7f,0x00,0x4e,0x7f,0x01,0x41,0x00,0x1e,
0x42,0x00,0x00,0x4e,0x00,0x01,0x4d,0x7f,0x01,0x41,0x7f,0x1e,0x4d,0x00,0x01,0x41,
0x00,0x01,0x3d,0x7f,0x00,0x49,0x7f,0x10,0xb0,0x40,0x00,0x07,0x90,0x3d,0x00,0x01,
0x49,0x00,0x03,0x25,0x00,0x04,0xb0,0x40,0x7f,0x00,0x90,0x49,0x7f,0x01,0x35,0x00,
0x00,0x38,0x00,0x00,0x25,0x7f,0x00,0x3d,0x7f,0x48,0x31,0x7f,0x17,0x35,0x7f,0x48,
0x38,0x7f,0x16,0x3d,0x00,0x02,0x3d,0x7f,0x22,0x49,0x00,0x0e,0x49,0x7f,0x00,0x55,
0x7f,0x27,0x35,0x00,0x01,0x38,0x00,0x00,0x55,0x00,0x01,0x31,0x00,0x00,0x25,0x00,
0x00,0x55,0x7f,0x03,0x5a,0x7f,0x04,0x49,0x00,0x01,0x4e,0x7f,0x00,0x5a,0x7f,0x05,
0x5a,0x00,0x00,0xb0,0x40,0x00,0x1a,0x90,0x4e,0x00,0x00,0x5a,0x00,0x01,0x50,0x7f,
0x00,0x5c,0x7f,0x01,0x55,0x00,0x1e,0x5c,0x00,0x00,0x50,0x00,0x00,0x52,0x7f,0x00,
0x5e,0x7f,0x19,0x55,0x7f,0x03,0x5e,0x00,0x00,0x52,0x00,0x01,0x59,0x7f,0x02,0x3d,
0x00,0x02,0x5c,0x7f,0x00,0x50,0x7f,0x0c,0xb0,0x40,0x7f,0x53,0x90,0x50,0x00,0x00,
0x5c,0x00,0x00,0x4d,0x7d,0x01,0x59,0x7d,0x63,0x59,0x00,0x18,0x4d,0x00,0x01,0x59,
0x00,0x0b,0x55,0x00,0x08,0x49,0x7c,0x00,0x55,0x7c,0x1b,0xb0,0x40,0x00,0x0d,0x90,
0x55,0x00,0x00,0x49,0x00,0x01,0x55,0x7f,0x04,0x5a,0x7f,0x04,0x5a,0x7c,0x00,0x5e,
0x7f,0x00,0x4e,0x7c,0x02,0xb0,0x40,0x7f,0x01,0x90,0x5a,0x00,0x1c,0x5a,0x00,0x01,
0x50,0x7c,0x00,0x5c,0x7c,0x04,0x4e,0x00,0x1b,0x50,0x00,0x00,0x52,0x7d,0x00,0x5e,
0x7d,0x0d,0xb0,0x40,0x00,0x07,0x90,0x55,0x00,0x05,0x5e,0x00,0x00,0x55,0x7f,0x02,
0xb0,0x40,0x7f,0x01,0x90,0x59,0x7f,0x03,0x52,0x00,0x01,0x5c,0x7d,0x00,0x5c,0x7f,
0x01,0x5c,0x00,0x00,0x50,0x7d,0x1e,0x5e,0x00,0x81,0x4a,0x5c,0x00,0x01,0x50,0x00,
0x01,0x55,0x00,0x05,0x49,0x7c,0x01,0x55,0x7c,0x23,0x59,0x00,0x02,0x55,0x00,0x02,
0x55,0x7f,0x04,0x5a,0x7f,0x03,0x49,0x00,0x00,0xb0,0x40,0x00,0x01,0x90,0x4e,0x7f,
0x01,0x5a,0x7f,0x00,0x5e,0x7f,0x05,0x5a,0x00,0x08,0xb0,0x40,0x7f,0x12,0x90,0x5a,
0x00,0x00,0x4e,0x00,0x01,0x50,0x7d,0x00,0x5c,0x7d,0x1f,0x50,0x00,0x00,0x52,0x7d,
0x01,0x5c,0x00,0x00,0x5e,0x7d,0x12,0x55,0x00,0x05,0x55,0x7f,0x01,0x5e,0x00,0x03,
0xb0,0x40,0x00,0x01,0x90,0x59,0x7f,0x02,0x52,0x00,0x01,0x5c,0x7d,0x01,0x5c,0x00,
0x00,0x50,0x7d,0x0b,0xb0,0x40,0x7f,0x14,0x90,0x5e,0x00,0x81,0x50,0x50,0x00,0x00,
0x4d,0x79,0x01,0x59,0x79,0x1f,0x55,0x00,0x04,0x59,0x00,0x04,0x55,0x7f,0x04,0xb0,
0x40,0x00,0x01,0x90,0x5a,0x7f,0x02,0x4d,0x00,0x01,0x5e,0x7f,0x00,0x4e,0x7d,0x01,
0x5a,0x7d,0x05,0x5a,0x00,0x08,0xb0,0x40,0x7f,0x12,0x90,0x4e,0x00,0x00,0x59,0x79,
0x01,0x5a,0x00,0x00,0x4d,0x79,0x1d,0x55,0x00,0x01,0x59,0x00,0x01,0x4d,0x00,0x00,
0x55,0x79,0x01,0x49,0x79,0x14,0x49,0x00,0x00,0x55,0x00,0x02,0x5e,0x00,0x03,0xb0,
0x40,0x00,0x03,0x90,0x59,0x7f,0x03,0x49,0x75,0x01,0x5c,0x7f,0x00,0x55,0x75,0x08,
0xb0,0x40,0x7f,0x5c,0x90,0x59,0x00,0x7a,0x49,0x00,0x01,0x55,0x00,0x10,0x49,0x7f,
0x01,0x55,0x7f,0x20,0x55,0x00,0x07,0x55,0x7f,0x05,0x5a,0x7f,0x03,0x49,0x00,0x00,
0x5a,0x7c,0x00,0xb0,0x40,0x00,0x00,0x90,0x5e,0x7f,0x00,0x4e,0x7c,0x01,0x55,0x00,
0x02,0x5a,0x00,0x10,0xb0,0x40,0x7f,0x0c,0x90,0x5a,0x00,0x01,0x50,0x79,0x01,0x5c,
0x79,0x03,0x4e,0x00,0x1b,0x50,0x00,0x01,0x5c,0x00,0x00,0x52,0x7c,0x01,0x5e,0x7c,
0x17,0x5e,0x00,0x00,0x55,0x7f,0x04,0x59,0x7f,0x01,0xb0,0x40,0x00,0x02,0x90,0x52,
0x00,0x01,0x50,0x7d,0x01,0x5c,0x7f,0x00,0x5c,0x7d,0x01,0x5c,0x00,0x0c,0xb0,0x40,
0x7f,0x14,0x90,0x5e,0x00,0x3d,0x50,0x00,0x02,0x5c,0x00,0x00,0x4d,0x76,0x00,0x59,
0x76,0x64,0x59,0x00,0x13,0x59,0x00,0x00,0x4d,0x00,0x12,0x55,0x00,0x07,0x55,0x79,
0x00,0x49,0x79,0x25,0x55,0x00,0x02,0x55,0x7f,0x04,0xb0,0x40,0x00,0x01,0x90,0x5a,
0x7f,0x03,0x4e,0x7c,0x00,0x5e,0x7f,0x01,0x49,0x00,0x00,0x5a,0x7c,0x03,0x5a,0x00,
0x0d,0xb0,0x40,0x7f,0x0f,0x90,0x5a,0x00,0x00,0x50,0x7c,0x01,0x5c,0x7c,0x03,0x4e,
0x00,0x1b,0x50,0x00,0x01,0x5c,0x00,0x00,0x52,0x79,0x01,0x5e,0x79,0x15,0x55,0x00,
0x02,0x5e,0x00,0x01,0x55,0x7f,0x03,0x59,0x7f,0x02,0xb0,0x40,0x00,0x01,0x90,0x52,
0x00,0x01,0x50,0x7d,0x00,0x5c,0x7d,0x01,0x5c,0x7f,0x01,0x5c,0x00,0x11,0xb0,0x40,
0x7f,0x0e,0x90,0x5e,0x00,0x81,0x41,0x5c,0x00,0x00,0x50,0x00,0x04,0x55,0x00,0x0a,
0x55,0x7c,0x00,0x49,0x7c,0x24,0x59,0x00,0x01,0x55,0x00,0x04,0x55,0x7f,0x03,0xb0,
0x40,0x00,0x01,0x90,0x5a,0x7f,0x03,0x49,0x00,0x00,0x4e,0x79,0x00,0x5e,0x7f,0x01,
0x5a,0x79,0x04,0x5a,0x00,0x0c,0xb0,0x40,0x7f,0x0f,0x90,0x5a,0x00,0x00,0x5c,0x79,
0x00,0x50,0x79,0x04,0x4e,0x00,0x1b,0x5c,0x00,0x01,0x50,0x00,0x00,0x52,0x79,0x01,
0x5e,0x79,0x15,0x55,0x00,0x02,0x5e,0x00,0x00,0x55,0x7f,0x04,0xb0,0x40,0x00,0x01,
0x90,0x59,0x7f,0x03,0x52,0x00,0x01,0x5c,0x7f,0x00,0x50,0x7d,0x00,0x5c,0x7d,0x01,
0x5c,0x00,0x0e,0xb0,0x40,0x7f,0x11,0x90,0x5e,0x00,0x81,0x4f,0x4d,0x79,0x01,0x50,
0x00,0x00,0x5c,0x00,0x00,0x59,0x79,0x1f,0x55,0x00,0x05,0x59,0x00,0x04,0x55,0x7f,
0x03,0x5a,0x7f,0x03,0x4d,0x00,0x00,0xb0,0x40,0x00,0x01,0x90,0x5e,0x7f,0x00,0x5a,
0x7d,0x01,0x4e,0x7d,0x03,0x5a,0x00,0x11,0xb0,0x40,0x7f,0x0a,0x90,0x5a,0x00,0x02,
0x4d,0x7c,0x00,0x59,0x7c,0x04,0x4e,0x00,0x17,0x55,0x00,0x04,0x49,0x73,0x00,0x55,
0x73,0x01,0x4d,0x00,0x00,0x59,0x00,0x14,0x49,0x00,0x00,0x55,0x00,0x02,0x5e,0x00,
0x06,0x59,0x7f,0x01,0xb0,0x40,0x00,0x02,0x90,0x55,0x7c,0x01,0x5c,0x7f,0x00,0x49,
0x7c,0x05,0x5c,0x00,0x0a,0xb0,0x40,0x7f,0x54,0x90,0x59,0x00,0x1c,0x55,0x00,0x5c,
0x49,0x00,0x14,0x4d,0x7c,0x00,0x59,0x7c,0x29,0x55,0x7f,0x03,0x5a,0x7f,0x03,0x4d,
0x00,0x00,0xb0,0x40,0x00,0x01,0x90,0x59,0x00,0x00,0x5e,0x7f,0x00,0x5a,0x79,0x01,
0x4e,0x79,0x04,0x5a,0x00,0x10,0xb0,0x40,0x7f,0x09,0x90,0x4e,0x00,0x02,0x5a,0x00,
0x00,0x59,0x75,0x01,0x4d,0x75,0x1e,0x59,0x00,0x00,0x55,0x00,0x01,0x4d,0x00,0x01,
0x55,0x76,0x14,0x55,0x00,0x02,0x5e,0x00,0x06,0x59,0x7f,0x01,0xb0,0x40,0x00,0x02,
0x90,0x55,0x76,0x00,0x49,0x76,0x01,0x5c,0x7f,0x05,0x5c,0x00,0x0a,0xb0,0x40,0x7f,
0x70,0x90,0x55,0x00,0x04,0x59,0x00,0x67,0x49,0x00,0x06,0x4d,0x76,0x00,0x59,0x76,
0x28,0x55,0x7f,0x03,0x5a,0x7f,0x03,0xb0,0x40,0x00,0x01,0x90,0x5e,0x7f,0x00,0x5a,
0x7c,0x01,0x4d,0x00,0x00,0x59,0x00,0x00,0x4e,0x7c,0x04,0x5a,0x00,0x10,0xb0,0x40,
0x7f,0x0b,0x90,0x5a,0x00,0x00,0x59,0x73,0x00,0x4d,0x73,0x01,0x4e,0x00,0x1a,0x55,
0x00,0x04,0x59,0x00,0x01,0x4d,0x00,0x00,0x55,0x79,0x14,0x55,0x00,0x03,0x5e,0x00,
0x06,0x59,0x7f,0x01,0xb0,0x40,0x00,0x02,0x90,0x55,0x72,0x01,0x5c,0x7f,0x00,0x49,
0x72,0x05,0x5c,0x00,0x0a,0xb0,0x40,0x7f,0x70,0x90,0x55,0x00,0x04,0x59,0x00,0x5d,
0x49,0x00,0x0f,0x4d,0x79,0x01,0x59,0x79,0x28,0x55,0x7f,0x03,0x5a,0x7f,0x03,0x4d,
0x00,0x00,0xb0,0x40,0x00,0x01,0x90,0x5e,0x7f,0x00,0x4e,0x79,0x01,0x59,0x00,0x00,
0x5a,0x79,0x05,0x5a,0x00,0x0f,0xb0,0x40,0x7f,0x09,0x90,0x4e,0x00,0x02,0x5a,0x00,
0x00,0x4d,0x75,0x00,0x59,0x75,0x1c,0x55,0x00,0x03,0x4d,0x00,0x01,0x59,0x00,0x00,
0x55,0x72,0x17,0x5e,0x00,0x05,0x55,0x00,0x01,0x59,0x7f,0x01,0xb0,0x40,0x00,0x03,
0x90,0x5c,0x7f,0x00,0x55,0x72,0x00,0x49,0x72,0x05,0x5c,0x00,0x0a,0xb0,0x40,0x7f,
0x70,0x90,0x55,0x00,0x04,0x59,0x00,0x53,0x49,0x00,0x19,0x4d,0x79,0x01,0x59,0x79,
0x28,0x55,0x7f,0x03,0x5a,0x7f,0x03,0x4d,0x00,0x00,0xb0,0x40,0x00,0x01,0x90,0x59,
0x00,0x00,0x5e,0x7f,0x00,0x4e,0x7d,0x00,0x5a,0x7d,0x05,0x5a,0x00,0x10,0xb0,0x40,
0x7f,0x0b,0x90,0x5a,0x00,0x01,0x4e,0x00,0x00,0x4d,0x75,0x00,0x59,0x75,0x1e,0x55,
0x00,0x01,0x59,0x00,0x00,0x4d,0x00,0x00,0x49,0x75,0x01,0x55,0x75,0x0c,0x5c,0x00,
0x08,0x49,0x00,0x02,0x5e,0x00,0x01,0x55,0x00,0x05,0x59,0x7f,0x01,0xb0,0x40,0x00,
0x02,0x90,0x55,0x73,0x00,0x49,0x73,0x01,0x19,0x7f,0x00,0x5c,0x7f,0x01,0x25,0x7f,
0x82,0x76,0x55,0x00,0x04,0x59,0x00,0x83,0x04,0x49,0x00,0x86,0x00,0x19,0x00,0x01,
0x25,0x00,0x04,0x59,0x00,0x00,0x5c,0x00,0x00,0x59,0x00,0x00,0x5c,0x00,0x00,0xff,
0x2f,0x00,0x4d,0x54,0x72,0x6b,0x00,0x00,0x27,0xfd,0x00,0xff,0x21,0x01,0x00,0x00,
0xb1,0x00,0x00,0x00,0x20,0x00,0x00,0xc1,0x26,0x00,0xb1,0x07,0x7f,0x00,0x5b,0x14,
0x00,0x5d,0x0a,0x68,0x65,0x00,0x00,0x64,0x00,0x00,0x06,0x0c,0x00,0x26,0x00,0x82,
0x18,0x91,0x31,0x27,0x0b,0x31,0x00,0x0d,0x31,0x27,0x0b,0x31,0x00,0x0d,0x31,0x27,
0x0b,0x31,0x00,0x0d,0x31,0x27,0x0b,0x31,0x00,0x0d,0x31,0x27,0x0b,0x31,0x00,0x0d,
0x31,0x27,0x0b,0x31,0x00,0x0d,0x31,0x27,0x0b,0x31,0x00,0x0d,0x31,0x27,0x0b,0x31,
0x00,0x0d,0x31,0x27,0x0b,0x31,0x00,0x0d,0x31,0x27,0x0b,0x31,0x00,0x0d,0x31,0x27,
0x0b,0x31,0x00,0x0d,0x31,0x27,0x0b,0x31,0x00,0x0d,0x31,0x27,0x0b,0x31,0x00,0x0d,
0x31,0x27,0x0b,0x31,0x00,0x0d,0x31,0x27,0x0b,0x31,0x00,0x0d,0x31,0x27,0x0b,0x31,
0x00,0x0d,0x31,0x27,0x0b,0x31,0x00,0x0d,0x31,0x27,0x0b,0x31,0x00,0x0d,0x31,0x27,
0x0b,0x31,0x00,0x0d,0x31,0x27,0x0b,0x31,0x00,0x0d,0x31,0x27,0x0b,0x31,0x00,0x0d,
0x31,0x27,0x0b,0x31,0x00,0x0d,0x31,0x27,0x0b,0x31,0x00,0x0d,0x31,0x27,0x0b,0x31,
0x00,0x0d,0x31,0x27,0x0b,0x31,0x00,0x0d,0x31,0x27,0x0b,0x31,0x00,0x0d,0x31,0x27,
0x0b,0x31,0x00,0x0d,0x31,0x27,0x0b,0x31,0x00,0x0d,0x31,0x27,0x0b,0x31,0x00,0x0d,
0x31,0x27,0x0b,0x31,0x00,0x0d,0x31,0x27,0x0b,0x31,0x00,0x0d,0x31,0x27,0x0b,0x31,
0x00,0x0d,0x31,0x27,0x0b,0x31,0x00,0x0d,0x31,0x27,0x0b,0x31,0x00,0x0d,0x31,0x27,
0x0b,0x31,0x00,0x0d,0x31,0x27,0x0b,0x31,0x00,0x0d,0x31,0x27,0x0b,0x31,0x00,0x0d,
0x31,0x27,0x0b,0x31,0x00,0x0d,0x31,0x27,0x0b,0x31,0x00,0x0d,0x31,0x27,0x0b,0x31,
0x00,0x0d,0x31,0x27,0x0b,0x31,0x00,0x0d,0x31,0x27,0x0b,0x31,0x00,0x0d,0x31,0x27,
0x0b,0x31,0x00,0x0d,0x31,0x27,0x0b,0x31,0x00,0x0d,0x31,0x27,0x0b,0x31,0x00,0x0d,
0x31,0x27,0x0b,0x31,0x00,0x0d,0x31,0x27,0x0b,0x31,0x00,0x0d,0x31,0x27,0x0b,0x31,
0x00,0x0d,0x31,0x27,0x0b,0x31,0x00,0x0d,0x31,0x27,0x0b,0x31,0x00,0x0d,0x31,0x27,
0x0b,0x31,0x00,0x0d,0x31,0x27,0x0b,0x31,0x00,0x0d,0x31,0x27,0x0b,0x31,0x00,0x0d,
0x31,0x27,0x0b,0x31,0x00,0x0d,0x31,0x27,0x0b,0x31,0x00,0x0d,0x31,0x27,0x0b,0x31,
0x00,0x0d,0x31,0x27,0x0b,0x31,0x00,0x0d,0x31,0x27,0x0b,0x31,0x00,0x0d,0x31,0x27,
0x0b,0x31,0x00,0x0d,0x31,0x27,0x0b,0x31,0x00,0x0d,0x31,0x27,0x0b,0x31,0x00,0x0d,
0x31,0x27,0x0b,0x31,0x00,0x0d,0x31,0x27,0x0b,0x31,0x00,0x0d,0x31,0x27,0x0b,0x31,
0x00,0x0d,0x31,0x27,0x0b,0x31,0x00,0x0d,0x31,0x27,0x0b,0x31,0x00,0x0d,0x31,0x27,
0x0b,0x31,0x00,0x0d,0x31,0x27,0x0b,0x31,0x00,0x0d,0x31,0x27,0x0b,0x31,0x00,0x0d,
0x31,0x27,0x0b,0x31,0x00,0x0d,0x31,0x27,0x0b,0x31,0x00,0x0d,0x31,0x27,0x0b,0x31,
0x00,0x0d,0x31,0x27,0x0b,0x31,0x00,0x0d,0x31,0x27,0x0b,0x31,0x00,0x0d,0x31,0x27,
0x0b,0x31,0x00,0x0d,0x31,0x27,0x0b,0x31,0x00,0x0d,0x31,0x27,0x0b,0x31,0x00,0x0d,
0x31,0x27,0x0b,0x31,0x00,0x0d,0x31,0x27,0x0b,0x31,0x00,0x0d,0x31,0x27,0x0b,0x31,
0x00,0x0d,0x31,0x27,0x0b,0x31,0x00,0x0d,0x31,0x27,0x0b,0x31,0x00,0x0d,0x31,0x27,
0x0b,0x31,0x00,0x0d,0x31,0x27,0x0b,0x31,0x00,0x0d,0x31,0x27,0x0b,0x31,0x00,0x0d,
0x31,0x27,0x0b,0x31,0x00,0x0d,0x31,0x27,0x0b,0x31,0x00,0x0d,0x31,0x27,0x0b,0x31,
0x00,0x0d,0x31,0x27,0x0b,0x31,0x00,0x0d,0x31,0x27,0x0b,0x31,0x00,0x0d,0x31,0x27,
0x0b,0x31,0x00,0x0d,0x31,0x27,0x0b,0x31,0x00,0x0d,0x31,0x27,0x0b,0x31,0x00,0x0d,
0x31,0x27,0x0b,0x31,0x00,0x0d,0x31,0x27,0x0b,0x31,0x00,0x0d,0x31,0x27,0x0b,0x31,
0x00,0x0d,0x31,0x27,0x0b,0x31,0x00,0x0d,0x31,0x27,0x0b,0x31,0x00,0x0d,0x31,0x27,
0x0b,0x31,0x00,0x0d,0x31,0x27,0x0b,0x31,0x00,0x0d,0x31,0x27,0x0b,0x31,0x00,0x0d,
0x31,0x27,0x0b,0x31,0x00,0x0d,0x31,0x27,0x0b,0x31,0x00,0x0d,0x31,0x27,0x0b,0x31,
0x00,0x0d,0x31,0x27,0x0b,0x31,0x00,0x0d,0x31,0x27,0x0b,0x31,0x00,0x0d,0x31,0x27,
0x0b,0x31,0x00,0x0d,0x31,0x27,0x0b,0x31,0x00,0x0d,0x31,0x27,0x0b,0x31,0x00,0x0d,
0x31,0x27,0x0b,0x31,0x00,0x0d,0x31,0x27,0x0b,0x31,0x00,0x0d,0x31,0x27,0x0b,0x31,
0x00,0x0d,0x31,0x27,0x0b,0x31,0x00,0x0d,0x31,0x27,0x0b,0x31,0x00,0x0d,0x31,0x27,
0x0b,0x31,0x00,0x0d,0x31,0x27,0x0b,0x31,0x00,0x0d,0x31,0x27,0x0b,0x31,0x00,0x0d,
0x31,0x27,0x0b,0x31,0x00,0x0d,0x31,0x27,0x0b,0x31,0x00,0x0d,0x31,0x27,0x0b,0x31,
0x00,0x0d,0x31,0x27,0x0b,0x31,0x00,0x0d,0x31,0x27,0x0b,0x31,0x00,0x0d,0x31,0x27,
0x0b,0x31,0x00,0x0d,0x31,0x27,0x0b,0x31,0x00,0x0d,0x31,0x27,0x0b,0x31,0x00,0x0d,
0x31,0x27,0x0b,0x31,0x00,0x0d,0x31,0x27,0x0b,0x31,0x00,0x0d,0x31,0x27,0x01,0x25,
0x52,0x0a,0x31,0x00,0x04,0x25,0x00,0x09,0x31,0x27,0x00,0x19,0x41,0x0b,0x19,0x00,
0x00,0x31,0x00,0x0d,0x31,0x27,0x00,0x19,0x41,0x0b,0x19,0x00,0x00,0x31,0x00,0x0d,
0x31,0x27,0x00,0x19,0x41,0x0b,0x19,0x00,0x00,0x31,0x00,0x0d,0x31,0x27,0x00,0x19,
0x41,0x0b,0x19,0x00,0x00,0x31,0x00,0x0d,0x31,0x27,0x00,0x19,0x41,0x0b,0x19,0x00,
0x00,0x31,0x00,0x0d,0x31,0x27,0x00,0x19,0x41,0x0b,0x19,0x00,0x00,0x31,0x00,0x0d,
0x31,0x27,0x00,0x19,0x41,0x0b,0x19,0x00,0x00,0x31,0x00,0x0d,0x31,0x27,0x00,0x19,
0x41,0x0b,0x19,0x00,0x00,0x31,0x00,0x0d,0x31,0x27,0x00,0x19,0x41,0x0b,0x19,0x00,
0x00,0x31,0x00,0x0d,0x31,0x27,0x00,0x19,0x41,0x0b,0x19,0x00,0x00,0x31,0x00,0x0d,
0x31,0x27,0x00,0x19,0x41,0x0b,0x19,0x00,0x00,0x31,0x00,0x0d,0x31,0x27,0x00,0x19,
0x41,0x0b,0x19,0x00,0x00,0x31,0x00,0x0d,0x31,0x27,0x00,0x19,0x41,0x0b,0x19,0x00,
0x00,0x31,0x00,0x0d,0x31,0x27,0x00,0x19,0x41,0x0b,0x19,0x00,0x00,0x31,0x00,0x0d,
0x31,0x27,0x00,0x19,0x41,0x0b,0x19,0x00,0x00,0x31,0x00,0x0d,0x31,0x27,0x00,0x19,
0x41,0x0b,0x19,0x00,0x00,0x31,0x00,0x0d,0x31,0x27,0x00,0x19,0x41,0x0b,0x19,0x00,
0x00,0x31,0x00,0x0d,0x31,0x27,0x00,0x19,0x41,0x0b,0x19,0x00,0x00,0x31,0x00,0x0d,
0x31,0x27,0x00,0x19,0x41,0x0b,0x19,0x00,0x00,0x31,0x00,0x0d,0x31,0x27,0x00,0x19,
0x41,0x0b,0x19,0x00,0x00,0x31,0x00,0x0d,0x31,0x27,0x00,0x19,0x41,0x0b,0x19,0x00,
0x00,0x31,0x00,0x0d,0x31,0x27,0x00,0x19,0x41,0x0b,0x19,0x00,0x00,0x31,0x00,0x0d,
0x31,0x27,0x00,0x19,0x41,0x0b,0x19,0x00,0x00,0x31,0x00,0x0d,0x31,0x27,0x00,0x19,
0x41,0x0b,0x19,0x00,0x00,0x31,0x00,0x0d,0x31,0x27,0x00,0x19,0x41,0x0b,0x19,0x00,
0x00,0x31,0x00,0x0d,0x31,0x27,0x00,0x19,0x41,0x0b,0x19,0x00,0x00,0x31,0x00,0x0d,
0x31,0x27,0x00,0x19,0x41,0x0b,0x19,0x00,0x00,0x31,0x00,0x0d,0x31,0x27,0x00,0x19,
0x41,0x0b,0x19,0x00,0x00,0x31,0x00,0x0d,0x31,0x27,0x00,0x19,0x41,0x0b,0x19,0x00,
0x00,0x31,0x00,0x0d,0x31,0x27,0x00,0x19,0x41,0x0b,0x19,0x00,0x00,0x31,0x00,0x0d,
0x31,0x27,0x00,0x19,0x41,0x0b,0x19,0x00,0x00,0x31,0x00,0x0d,0x31,0x27,0x00,0x19,
0x41,0x0b,0x19,0x00,0x00,0x31,0x00,0x0d,0x31,0x27,0x00,0x19,0x41,0x0b,0x19,0x00,
0x00,0x31,0x00,0x0d,0x31,0x27,0x00,0x19,0x41,0x0b,0x19,0x00,0x00,0x31,0x00,0x0d,
0x31,0x27,0x00,0x19,0x41,0x0b,0x19,0x00,0x00,0x31,0x00,0x0d,0x31,0x27,0x00,0x19,
0x41,0x0b,0x19,0x00,0x00,0x31,0x00,0x0d,0x31,0x27,0x00,0x19,0x41,0x0b,0x19,0x00,
0x00,0x31,0x00,0x0d,0x31,0x27,0x00,0x19,0x41,0x0b,0x19,0x00,0x00,0x31,0x00,0x0d,
0x31,0x27,0x00,0x19,0x41,0x0b,0x19,0x00,0x00,0x31,0x00,0x0d,0x31,0x27,0x00,0x19,
0x41,0x0b,0x19,0x00,0x00,0x31,0x00,0x0d,0x31,0x27,0x00,0x19,0x41,0x0b,0x19,0x00,
0x00,0x31,0x00,0x0d,0x31,0x27,0x00,0x19,0x41,0x0b,0x19,0x00,0x00,0x31,0x00,0x0d,
0x31,0x27,0x00,0x19,0x41,0x0b,0x19,0x00,0x00,0x31,0x00,0x0d,0x31,0x27,0x00,0x19,
0x41,0x0b,0x19,0x00,0x00,0x31,0x00,0x0d,0x31,0x27,0x00,0x19,0x41,0x0b,0x19,0x00,
0x00,0x31,0x00,0x0d,0x31,0x27,0x00,0x19,0x41,0x0b,0x19,0x00,0x00,0x31,0x00,0x0d,
0x31,0x27,0x00,0x19,0x41,0x0b,0x19,0x00,0x00,0x31,0x00,0x0d,0x31,0x27,0x00,0x19,
0x41,0x0b,0x19,0x00,0x00,0x31,0x00,0x0d,0x31,0x27,0x00,0x19,0x41,0x0b,0x19,0x00,
0x00,0x31,0x00,0x0d,0x31,0x27,0x00,0x19,0x41,0x0b,0x19,0x00,0x00,0x31,0x00,0x0d,
0x31,0x27,0x00,0x19,0x41,0x0b,0x19,0x00,0x00,0x31,0x00,0x0d,0x31,0x27,0x00,0x19,
0x41,0x0b,0x19,0x00,0x00,0x31,0x00,0x0d,0x31,0x27,0x00,0x19,0x41,0x0b,0x19,0x00,
0x00,0x31,0x00,0x0d,0x31,0x27,0x00,0x19,0x41,0x0b,0x19,0x00,0x00,0x31,0x00,0x0d,
0x31,0x27,0x00,0x19,0x41,0x0b,0x19,0x00,0x00,0x31,0x00,0x0d,0x31,0x27,0x00,0x19,
0x41,0x0b,0x19,0x00,0x00,0x31,0x00,0x0d,0x31,0x27,0x00,0x19,0x41,0x0b,0x19,0x00,
0x00,0x31,0x00,0x0d,0x31,0x27,0x00,0x19,0x41,0x0b,0x19,0x00,0x00,0x31,0x00,0x0d,
0x31,0x27,0x00,0x19,0x41,0x0b,0x19,0x00,0x00,0x31,0x00,0x0d,0x31,0x27,0x00,0x19,
0x41,0x0b,0x19,0x00,0x00,0x31,0x00,0x0d,0x31,0x27,0x00,0x19,0x41,0x0b,0x19,0x00,
0x00,0x31,0x00,0x0d,0x31,0x27,0x00,0x19,0x41,0x0b,0x19,0x00,0x00,0x31,0x00,0x0d,
0x31,0x27,0x00,0x19,0x41,0x0b,0x19,0x00,0x00,0x31,0x00,0x0d,0x31,0x27,0x00,0x19,
0x41,0x0b,0x19,0x00,0x00,0x31,0x00,0x0d,0x31,0x27,0x00,0x19,0x41,0x0b,0x19,0x00,
0x00,0x31,0x00,0x0d,0x31,0x27,0x00,0x19,0x41,0x0b,0x19,0x00,0x00,0x31,0x00,0x0d,
0x31,0x27,0x00,0x19,0x41,0x0b,0x19,0x00,0x00,0x31,0x00,0x0d,0x31,0x27,0x00,0x19,
0x41,0x0b,0x19,0x00,0x00,0x31,0x00,0x0d,0x31,0x27,0x00,0x19,0x41,0x0b,0x19,0x00,
0x00,0x31,0x00,0x0d,0x31,0x27,0x00,0x19,0x41,0x0b,0x19,0x00,0x00,0x31,0x00,0x0d,
0x31,0x27,0x00,0x19,0x41,0x0b,0x19,0x00,0x00,0x31,0x00,0x0d,0x31,0x27,0x00,0x19,
0x41,0x0b,0x19,0x00,0x00,0x31,0x00,0x0d,0x31,0x27,0x00,0x19,0x41,0x0b,0x19,0x00,
0x00,0x31,0x00,0x0d,0x31,0x27,0x00,0x19,0x41,0x0b,0x19,0x00,0x00,0x31,0x00,0x0d,
0x31,0x27,0x00,0x19,0x41,0x0b,0x19,0x00,0x00,0x31,0x00,0x0d,0x31,0x27,0x00,0x19,
0x41,0x0b,0x19,0x00,0x00,0x31,0x00,0x0d,0x31,0x27,0x00,0x19,0x41,0x0b,0x19,0x00,
0x00,0x31,0x00,0x0d,0x31,0x27,0x00,0x19,0x41,0x0b,0x19,0x00,0x00,0x31,0x00,0x0d,
0x31,0x27,0x00,0x19,0x41,0x0b,0x19,0x00,0x00,0x31,0x00,0x0d,0x31,0x27,0x00,0x19,
0x41,0x0b,0x19,0x00,0x00,0x31,0x00,0x0d,0x31,0x27,0x00,0x19,0x41,0x0b,0x19,0x00,
0x00,0x31,0x00,0x0d,0x31,0x27,0x00,0x19,0x41,0x0b,0x19,0x00,0x00,0x31,0x00,0x0d,
0x31,0x27,0x00,0x19,0x41,0x0b,0x19,0x00,0x00,0x31,0x00,0x0d,0x31,0x27,0x00,0x19,
0x41,0x0b,0x19,0x00,0x00,0x31,0x00,0x0d,0x31,0x27,0x00,0x19,0x41,0x0b,0x19,0x00,
0x00,0x31,0x00,0x0d,0x31,0x27,0x00,0x19,0x41,0x0b,0x19,0x00,0x00,0x31,0x00,0x0d,
0x31,0x27,0x00,0x19,0x41,0x0b,0x19,0x00,0x00,0x31,0x00,0x0d,0x31,0x27,0x00,0x19,
0x41,0x0b,0x19,0x00,0x00,0x31,0x00,0x0d,0x31,0x27,0x00,0x19,0x41,0x0b,0x19,0x00,
0x00,0x31,0x00,0x0d,0x31,0x27,0x00,0x19,0x41,0x0b,0x19,0x00,0x00,0x31,0x00,0x0d,
0x31,0x27,0x00,0x19,0x41,0x0b,0x19,0x00,0x00,0x31,0x00,0x0d,0x31,0x27,0x00,0x19,
0x41,0x0b,0x19,0x00,0x00,0x31,0x00,0x0d,0x31,0x27,0x00,0x19,0x41,0x0b,0x19,0x00,
0x00,0x31,0x00,0x0d,0x31,0x27,0x00,0x19,0x41,0x0b,0x19,0x00,0x00,0x31,0x00,0x0d,
0x31,0x27,0x00,0x19,0x41,0x0b,0x19,0x00,0x00,0x31,0x00,0x0d,0x31,0x27,0x00,0x19,
0x41,0x0b,0x19,0x00,0x00,0x31,0x00,0x0d,0x31,0x27,0x00,0x19,0x41,0x0b,0x19,0x00,
0x00,0x31,0x00,0x0d,0x31,0x27,0x00,0x19,0x41,0x0b,0x19,0x00,0x00,0x31,0x00,0x0d,
0x31,0x27,0x00,0x19,0x41,0x0b,0x19,0x00,0x00,0x31,0x00,0x0d,0x31,0x27,0x00,0x19,
0x41,0x0b,0x19,0x00,0x00,0x31,0x00,0x0d,0x31,0x27,0x00,0x19,0x41,0x0b,0x19,0x00,
0x00,0x31,0x00,0x0d,0x31,0x27,0x00,0x19,0x41,0x0b,0x19,0x00,0x00,0x31,0x00,0x0d,
0x31,0x27,0x00,0x19,0x41,0x0b,0x19,0x00,0x00,0x31,0x00,0x0d,0x31,0x27,0x00,0x19,
0x41,0x0b,0x19,0x00,0x00,0x31,0x00,0x0d,0x31,0x27,0x00,0x19,0x41,0x0b,0x19,0x00,
0x00,0x31,0x00,0x0d,0x31,0x27,0x00,0x19,0x41,0x0b,0x19,0x00,0x00,0x31,0x00,0x0d,
0x31,0x27,0x00,0x19,0x41,0x0b,0x19,0x00,0x00,0x31,0x00,0x0d,0x31,0x27,0x00,0x19,
0x41,0x0b,0x19,0x00,0x00,0x31,0x00,0x0d,0x31,0x27,0x00,0x19,0x41,0x0b,0x19,0x00,
0x00,0x31,0x00,0x0d,0x31,0x27,0x00,0x19,0x41,0x0b,0x19,0x00,0x00,0x31,0x00,0x0d,
0x31,0x27,0x00,0x19,0x41,0x0b,0x19,0x00,0x00,0x31,0x00,0x0d,0x31,0x27,0x00,0x19,
0x41,0x0b,0x19,0x00,0x00,0x31,0x00,0x0d,0x31,0x27,0x00,0x19,0x41,0x0b,0x19,0x00,
0x00,0x31,0x00,0x0d,0x31,0x27,0x00,0x19,0x41,0x0b,0x19,0x00,0x00,0x31,0x00,0x0d,
0x31,0x27,0x00,0x19,0x41,0x0b,0x19,0x00,0x00,0x31,0x00,0x0d,0x31,0x27,0x00,0x19,
0x41,0x0b,0x19,0x00,0x00,0x31,0x00,0x0d,0x31,0x27,0x00,0x19,0x41,0x0b,0x19,0x00,
0x00,0x31,0x00,0x0d,0x31,0x27,0x00,0x19,0x41,0x0b,0x19,0x00,0x00,0x31,0x00,0x0d,
0x31,0x27,0x00,0x19,0x41,0x0b,0x19,0x00,0x00,0x31,0x00,0x0d,0x31,0x27,0x00,0x19,
0x41,0x0b,0x19,0x00,0x00,0x31,0x00,0x0d,0x31,0x27,0x00,0x19,0x41,0x0b,0x19,0x00,
0x00,0x31,0x00,0x0d,0x31,0x27,0x00,0x19,0x41,0x0b,0x19,0x00,0x00,0x31,0x00,0x0d,
0x31,0x27,0x00,0x19,0x41,0x0b,0x19,0x00,0x00,0x31,0x00,0x0d,0x31,0x27,0x00,0x19,
0x41,0x0b,0x19,0x00,0x00,0x31,0x00,0x0d,0x31,0x27,0x00,0x19,0x41,0x0b,0x19,0x00,
0x00,0x31,0x00,0x0d,0x31,0x27,0x00,0x19,0x41,0x0b,0x19,0x00,0x00,0x31,0x00,0x0d,
0x31,0x27,0x00,0x19,0x41,0x0b,0x19,0x00,0x00,0x31,0x00,0x0d,0x31,0x27,0x00,0x19,
0x41,0x0b,0x19,0x00,0x00,0x31,0x00,0x0d,0x31,0x27,0x00,0x19,0x41,0x0b,0x19,0x00,
0x00,0x31,0x00,0x0d,0x31,0x27,0x00,0x19,0x41,0x0b,0x19,0x00,0x00,0x31,0x00,0x0d,
0x31,0x27,0x00,0x19,0x41,0x0b,0x19,0x00,0x00,0x31,0x00,0x0d,0x31,0x27,0x00,0x19,
0x41,0x0b,0x19,0x00,0x00,0x31,0x00,0x0d,0x31,0x27,0x00,0x19,0x41,0x0b,0x19,0x00,
0x00,0x31,0x00,0x0d,0x31,0x27,0x00,0x19,0x41,0x0b,0x19,0x00,0x00,0x31,0x00,0x0d,
0x31,0x27,0x00,0x19,0x41,0x0b,0x19,0x00,0x00,0x31,0x00,0x0d,0x31,0x27,0x00,0x19,
0x41,0x0b,0x19,0x00,0x00,0x31,0x00,0x0d,0x31,0x27,0x00,0x19,0x41,0x0b,0x19,0x00,
0x00,0x31,0x00,0x0d,0x31,0x27,0x00,0x19,0x41,0x0b,0x19,0x00,0x00,0x31,0x00,0x0d,
0x31,0x27,0x00,0x19,0x41,0x0b,0x19,0x00,0x00,0x31,0x00,0x0d,0x31,0x27,0x00,0x19,
0x41,0x0b,0x19,0x00,0x00,0x31,0x00,0x0d,0x31,0x27,0x00,0x19,0x41,0x0b,0x19,0x00,
0x00,0x31,0x00,0x0d,0x31,0x27,0x00,0x19,0x41,0x0b,0x19,0x00,0x00,0x31,0x00,0x0d,
0x31,0x27,0x00,0x19,0x41,0x0b,0x19,0x00,0x00,0x31,0x00,0x0d,0x31,0x27,0x00,0x19,
0x41,0x0b,0x19,0x00,0x00,0x31,0x00,0x0d,0x31,0x27,0x00,0x19,0x41,0x0b,0x19,0x00,
0x00,0x31,0x00,0x0d,0x31,0x27,0x00,0x19,0x41,0x0b,0x19,0x00,0x00,0x31,0x00,0x0d,
0x31,0x27,0x00,0x19,0x41,0x0b,0x19,0x00,0x00,0x31,0x00,0x0d,0x31,0x27,0x00,0x19,
0x41,0x0b,0x19,0x00,0x00,0x31,0x00,0x0d,0x31,0x27,0x00,0x19,0x41,0x0b,0x19,0x00,
0x00,0x31,0x00,0x0d,0x31,0x27,0x00,0x19,0x41,0x0b,0x19,0x00,0x00,0x31,0x00,0x0d,
0x31,0x27,0x00,0x19,0x41,0x0b,0x19,0x00,0x00,0x31,0x00,0x0d,0x31,0x27,0x00,0x19,
0x41,0x0b,0x19,0x00,0x00,0x31,0x00,0x0d,0x31,0x27,0x00,0x19,0x41,0x0b,0x19,0x00,
0x00,0x31,0x00,0x0d,0x31,0x27,0x00,0x19,0x41,0x0b,0x19,0x00,0x00,0x31,0x00,0x0d,
0x31,0x27,0x00,0x19,0x41,0x0b,0x19,0x00,0x00,0x31,0x00,0x0d,0x31,0x27,0x00,0x19,
0x41,0x0b,0x19,0x00,0x00,0x31,0x00,0x0d,0x31,0x27,0x00,0x19,0x41,0x0b,0x19,0x00,
0x00,0x31,0x00,0x0d,0x31,0x27,0x00,0x19,0x41,0x0b,0x19,0x00,0x00,0x31,0x00,0x0d,
0x31,0x27,0x00,0x19,0x41,0x0b,0x19,0x00,0x00,0x31,0x00,0x0d,0x31,0x27,0x00,0x19,
0x41,0x0b,0x19,0x00,0x00,0x31,0x00,0x0d,0x31,0x27,0x00,0x19,0x41,0x0b,0x19,0x00,
0x00,0x31,0x00,0x0d,0x31,0x27,0x00,0x19,0x41,0x0b,0x19,0x00,0x00,0x31,0x00,0x0d,
0x31,0x27,0x00,0x19,0x41,0x0b,0x19,0x00,0x00,0x31,0x00,0x0d,0x31,0x27,0x00,0x19,
0x41,0x0b,0x19,0x00,0x00,0x31,0x00,0x0d,0x31,0x27,0x00,0x19,0x41,0x0b,0x19,0x00,
0x00,0x31,0x00,0x0d,0x31,0x27,0x00,0x19,0x41,0x0b,0x19,0x00,0x00,0x31,0x00,0x0d,
0x31,0x27,0x00,0x19,0x41,0x0b,0x19,0x00,0x00,0x31,0x00,0x0d,0x31,0x27,0x00,0x19,
0x41,0x0b,0x19,0x00,0x00,0x31,0x00,0x0d,0x31,0x27,0x00,0x19,0x41,0x0b,0x19,0x00,
0x00,0x31,0x00,0x0d,0x31,0x27,0x00,0x19,0x41,0x0b,0x19,0x00,0x00,0x31,0x00,0x0d,
0x31,0x27,0x00,0x19,0x41,0x0b,0x19,0x00,0x00,0x31,0x00,0x0d,0x31,0x27,0x00,0x19,
0x41,0x0b,0x19,0x00,0x00,0x31,0x00,0x0d,0x2c,0x27,0x00,0x14,0x41,0x0b,0x14,0x00,
0x00,0x2c,0x00,0x0d,0x2c,0x27,0x00,0x14,0x41,0x0b,0x14,0x00,0x00,0x2c,0x00,0x0d,
0x2c,0x27,0x00,0x14,0x41,0x0b,0x14,0x00,0x00,0x2c,0x00,0x0d,0x2c,0x27,0x00,0x14,
0x41,0x0b,0x14,0x00,0x00,0x2c,0x00,0x0d,0x31,0x27,0x00,0x19,0x41,0x0b,0x19,0x00,
0x00,0x31,0x00,0x0d,0x31,0x27,0x00,0x19,0x41,0x0b,0x19,0x00,0x00,0x31,0x00,0x0d,
0x31,0x27,0x00,0x19,0x41,0x0b,0x19,0x00,0x00,0x31,0x00,0x0d,0x31,0x27,0x00,0x19,
0x41,0x0b,0x19,0x00,0x00,0x31,0x00,0x0d,0x31,0x27,0x00,0x19,0x41,0x0b,0x19,0x00,
0x00,0x31,0x00,0x0d,0x31,0x27,0x00,0x19,0x41,0x0b,0x19,0x00,0x00,0x31,0x00,0x0d,
0x31,0x27,0x00,0x19,0x41,0x0b,0x19,0x00,0x00,0x31,0x00,0x0d,0x2c,0x27,0x00,0x14,
0x41,0x0b,0x14,0x00,0x00,0x2c,0x00,0x0d,0x25,0x27,0x00,0x0d,0x41,0x0b,0x0d,0x00,
0x00,0x25,0x00,0x0d,0x2c,0x27,0x00,0x14,0x41,0x0b,0x14,0x00,0x00,0x2c,0x00,0x0d,
0x31,0x27,0x00,0x19,0x41,0x0b,0x19,0x00,0x00,0x31,0x00,0x0d,0x31,0x27,0x00,0x19,
0x41,0x0b,0x19,0x00,0x00,0x31,0x00,0x0d,0x31,0x27,0x00,0x19,0x41,0x0b,0x19,0x00,
0x00,0x31,0x00,0x0d,0x31,0x27,0x00,0x19,0x41,0x0b,0x19,0x00,0x00,0x31,0x00,0x0d,
0x31,0x27,0x00,0x19,0x41,0x0b,0x19,0x00,0x00,0x31,0x00,0x0d,0x31,0x27,0x00,0x19,
0x41,0x0b,0x19,0x00,0x00,0x31,0x00,0x0d,0x35,0x27,0x00,0x1d,0x41,0x0b,0x1d,0x00,
0x00,0x35,0x00,0x0d,0x35,0x27,0x00,0x1d,0x41,0x0b,0x1d,0x00,0x00,0x35,0x00,0x0d,
0x35,0x27,0x00,0x1d,0x41,0x0b,0x1d,0x00,0x00,0x35,0x00,0x0d,0x35,0x27,0x00,0x1d,
0x41,0x0b,0x1d,0x00,0x00,0x35,0x00,0x0d,0x36,0x27,0x00,0x1e,0x41,0x0b,0x1e,0x00,
0x00,0x36,0x00,0x0d,0x36,0x27,0x00,0x1e,0x41,0x0b,0x1e,0x00,0x00,0x36,0x00,0x0d,
0x36,0x27,0x00,0x1e,0x41,0x0b,0x1e,0x00,0x00,0x36,0x00,0x0d,0x36,0x27,0x00,0x1e,
0x41,0x0b,0x1e,0x00,0x00,0x36,0x00,0x0d,0x31,0x27,0x00,0x19,0x41,0x0b,0x19,0x00,
0x00,0x31,0x00,0x0d,0x31,0x27,0x00,0x19,0x41,0x0b,0x19,0x00,0x00,0x31,0x00,0x0d,
0x31,0x27,0x00,0x19,0x41,0x0b,0x19,0x00,0x00,0x31,0x00,0x0d,0x31,0x27,0x00,0x19,
0x41,0x0b,0x19,0x00,0x00,0x31,0x00,0x0d,0x31,0x27,0x00,0x19,0x41,0x0b,0x19,0x00,
0x00,0x31,0x00,0x0d,0x31,0x27,0x00,0x19,0x41,0x0b,0x19,0x00,0x00,0x31,0x00,0x0d,
0x31,0x27,0x00,0x19,0x41,0x0b,0x19,0x00,0x00,0x31,0x00,0x0d,0x31,0x27,0x00,0x19,
0x41,0x0b,0x19,0x00,0x00,0x31,0x00,0x0d,0x35,0x27,0x00,0x1d,0x41,0x0b,0x1d,0x00,
0x00,0x35,0x00,0x0d,0x35,0x27,0x00,0x1d,0x41,0x0b,0x1d,0x00,0x00,0x35,0x00,0x0d,
0x35,0x27,0x00,0x1d,0x41,0x0b,0x1d,0x00,0x00,0x35,0x00,0x0d,0x35,0x27,0x00,0x1d,
0x41,0x0b,0x1d,0x00,0x00,0x35,0x00,0x0d,0x38,0x27,0x00,0x20,0x41,0x0b,0x20,0x00,
0x00,0x38,0x00,0x0d,0x38,0x27,0x00,0x20,0x41,0x0b,0x20,0x00,0x00,0x38,0x00,0x0d,
0x38,0x27,0x00,0x20,0x41,0x0b,0x20,0x00,0x00,0x38,0x00,0x0d,0x38,0x27,0x00,0x20,
0x41,0x0b,0x20,0x00,0x00,0x38,0x00,0x0d,0x31,0x27,0x00,0x19,0x41,0x0b,0x19,0x00,
0x00,0x31,0x00,0x0d,0x31,0x27,0x00,0x19,0x41,0x0b,0x19,0x00,0x00,0x31,0x00,0x0d,
0x31,0x27,0x00,0x19,0x41,0x0b,0x19,0x00,0x00,0x31,0x00,0x0d,0x31,0x27,0x00,0x19,
0x41,0x0b,0x19,0x00,0x00,0x31,0x00,0x0d,0x31,0x27,0x00,0x19,0x41,0x0b,0x19,0x00,
0x00,0x31,0x00,0x0d,0x31,0x27,0x00,0x19,0x41,0x0b,0x19,0x00,0x00,0x31,0x00,0x0d,
0x31,0x27,0x00,0x19,0x41,0x0b,0x19,0x00,0x00,0x31,0x00,0x0d,0x31,0x27,0x00,0x19,
0x41,0x0b,0x19,0x00,0x00,0x31,0x00,0x0d,0x35,0x27,0x00,0x1d,0x41,0x0b,0x1d,0x00,
0x00,0x35,0x00,0x0d,0x35,0x27,0x00,0x1d,0x41,0x0b,0x1d,0x00,0x00,0x35,0x00,0x0d,
0x35,0x27,0x00,0x1d,0x41,0x0b,0x1d,0x00,0x00,0x35,0x00,0x0d,0x35,0x27,0x00,0x1d,
0x41,0x0b,0x1d,0x00,0x00,0x35,0x00,0x0d,0x36,0x27,0x00,0x1e,0x41,0x0b,0x1e,0x00,
0x00,0x36,0x00,0x0d,0x36,0x27,0x00,0x1e,0x41,0x0b,0x1e,0x00,0x00,0x36,0x00,0x0d,
0x36,0x27,0x00,0x1e,0x41,0x0b,0x1e,0x00,0x00,0x36,0x00,0x0d,0x36,0x27,0x00,0x1e,
0x41,0x0b,0x1e,0x00,0x00,0x36,0x00,0x0d,0x31,0x27,0x00,0x19,0x41,0x0b,0x19,0x00,
0x00,0x31,0x00,0x0d,0x31,0x27,0x00,0x19,0x41,0x0b,0x19,0x00,0x00,0x31,0x00,0x0d,
0x31,0x27,0x00,0x19,0x41,0x0b,0x19,0x00,0x00,0x31,0x00,0x0d,0x31,0x27,0x00,0x19,
0x41,0x0b,0x19,0x00,0x00,0x31,0x00,0x0d,0x31,0x27,0x00,0x19,0x41,0x0b,0x19,0x00,
0x00,0x31,0x00,0x0d,0x31,0x27,0x00,0x19,0x41,0x0b,0x19,0x00,0x00,0x31,0x00,0x0d,
0x31,0x27,0x00,0x19,0x41,0x0b,0x19,0x00,0x00,0x31,0x00,0x0d,0x31,0x27,0x00,0x19,
0x41,0x0b,0x19,0x00,0x00,0x31,0x00,0x0d,0x31,0x27,0x00,0x19,0x41,0x0b,0x19,0x00,
0x00,0x31,0x00,0x0d,0x31,0x27,0x00,0x19,0x41,0x0b,0x19,0x00,0x00,0x31,0x00,0x0d,
0x31,0x27,0x00,0x19,0x41,0x0b,0x19,0x00,0x00,0x31,0x00,0x0d,0x31,0x27,0x00,0x19,
0x41,0x0b,0x19,0x00,0x00,0x31,0x00,0x0d,0x31,0x27,0x00,0x19,0x41,0x0b,0x19,0x00,
0x00,0x31,0x00,0x0d,0x31,0x27,0x00,0x19,0x41,0x0b,0x19,0x00,0x00,0x31,0x00,0x0d,
0x31,0x27,0x00,0x19,0x41,0x0b,0x19,0x00,0x00,0x31,0x00,0x0d,0x31,0x27,0x00,0x19,
0x41,0x0b,0x19,0x00,0x00,0x31,0x00,0x0d,0x31,0x27,0x00,0x19,0x41,0x0b,0x19,0x00,
0x00,0x31,0x00,0x0d,0x31,0x27,0x00,0x19,0x41,0x0b,0x19,0x00,0x00,0x31,0x00,0x0d,
0x31,0x27,0x00,0x19,0x41,0x0b,0x19,0x00,0x00,0x31,0x00,0x0d,0x31,0x27,0x00,0x19,
0x41,0x0b,0x19,0x00,0x00,0x31,0x00,0x0d,0x31,0x27,0x00,0x19,0x41,0x0b,0x19,0x00,
0x00,0x31,0x00,0x0d,0x31,0x27,0x00,0x19,0x41,0x0b,0x19,0x00,0x00,0x31,0x00,0x0d,
0x31,0x27,0x00,0x19,0x41,0x0b,0x19,0x00,0x00,0x31,0x00,0x0d,0x31,0x27,0x00,0x19,
0x41,0x0b,0x19,0x00,0x00,0x31,0x00,0x0d,0x35,0x27,0x00,0x1d,0x41,0x0b,0x1d,0x00,
0x00,0x35,0x00,0x0d,0x35,0x27,0x00,0x1d,0x41,0x0b,0x1d,0x00,0x00,0x35,0x00,0x0d,
0x35,0x27,0x00,0x1d,0x41,0x0b,0x1d,0x00,0x00,0x35,0x00,0x0d,0x35,0x27,0x00,0x1d,
0x41,0x0b,0x1d,0x00,0x00,0x35,0x00,0x0d,0x36,0x27,0x00,0x1e,0x41,0x0b,0x1e,0x00,
0x00,0x36,0x00,0x0d,0x36,0x27,0x00,0x1e,0x41,0x0b,0x1e,0x00,0x00,0x36,0x00,0x0d,
0x36,0x27,0x00,0x1e,0x41,0x0b,0x1e,0x00,0x00,0x36,0x00,0x0d,0x36,0x27,0x00,0x1e,
0x41,0x0b,0x1e,0x00,0x00,0x36,0x00,0x0d,0x31,0x27,0x00,0x19,0x41,0x0b,0x19,0x00,
0x00,0x31,0x00,0x0d,0x31,0x27,0x00,0x19,0x41,0x0b,0x19,0x00,0x00,0x31,0x00,0x0d,
0x31,0x27,0x00,0x19,0x41,0x0b,0x19,0x00,0x00,0x31,0x00,0x0d,0x31,0x27,0x00,0x19,
0x41,0x0b,0x19,0x00,0x00,0x31,0x00,0x0d,0x31,0x27,0x00,0x19,0x41,0x0b,0x19,0x00,
0x00,0x31,0x00,0x0d,0x31,0x27,0x00,0x19,0x41,0x0b,0x19,0x00,0x00,0x31,0x00,0x0d,
0x31,0x27,0x00,0x19,0x41,0x0b,0x19,0x00,0x00,0x31,0x00,0x0d,0x31,0x27,0x00,0x19,
0x41,0x0b,0x19,0x00,0x00,0x31,0x00,0x0d,0x35,0x27,0x00,0x1d,0x41,0x0b,0x1d,0x00,
0x00,0x35,0x00,0x0d,0x35,0x27,0x00,0x1d,0x41,0x0b,0x1d,0x00,0x00,0x35,0x00,0x0d,
0x35,0x27,0x00,0x1d,0x41,0x0b,0x1d,0x00,0x00,0x35,0x00,0x0d,0x35,0x27,0x00,0x1d,
0x41,0x0b,0x1d,0x00,0x00,0x35,0x00,0x0d,0x38,0x27,0x00,0x20,0x41,0x0b,0x20,0x00,
0x00,0x38,0x00,0x0d,0x38,0x27,0x00,0x20,0x41,0x0b,0x20,0x00,0x00,0x38,0x00,0x0d,
0x38,0x27,0x00,0x20,0x41,0x0b,0x20,0x00,0x00,0x38,0x00,0x0d,0x38,0x27,0x00,0x20,
0x41,0x0b,0x20,0x00,0x00,0x38,0x00,0x0d,0x31,0x27,0x00,0x19,0x41,0x0b,0x19,0x00,
0x00,0x31,0x00,0x0d,0x31,0x27,0x00,0x19,0x41,0x0b,0x19,0x00,0x00,0x31,0x00,0x0d,
0x31,0x27,0x00,0x19,0x41,0x0b,0x19,0x00,0x00,0x31,0x00,0x0d,0x31,0x27,0x00,0x19,
0x41,0x0b,0x19,0x00,0x00,0x31,0x00,0x0d,0x31,0x27,0x00,0x19,0x41,0x0b,0x19,0x00,
0x00,0x31,0x00,0x0d,0x31,0x27,0x00,0x19,0x41,0x0b,0x19,0x00,0x00,0x31,0x00,0x0d,
0x31,0x27,0x00,0x19,0x41,0x0b,0x19,0x00,0x00,0x31,0x00,0x0d,0x31,0x27,0x00,0x19,
0x41,0x0b,0x19,0x00,0x00,0x31,0x00,0x0d,0x35,0x27,0x00,0x1d,0x41,0x0b,0x1d,0x00,
0x00,0x35,0x00,0x0d,0x35,0x27,0x00,0x1d,0x41,0x0b,0x1d,0x00,0x00,0x35,0x00,0x0d,
0x35,0x27,0x00,0x1d,0x41,0x0b,0x1d,0x00,0x00,0x35,0x00,0x0d,0x35,0x27,0x00,0x1d,
0x41,0x0b,0x1d,0x00,0x00,0x35,0x00,0x0d,0x36,0x27,0x00,0x1e,0x41,0x0b,0x1e,0x00,
0x00,0x36,0x00,0x0d,0x36,0x27,0x00,0x1e,0x41,0x0b,0x1e,0x00,0x00,0x36,0x00,0x0d,
0x36,0x27,0x00,0x1e,0x41,0x0b,0x1e,0x00,0x00,0x36,0x00,0x0d,0x36,0x27,0x00,0x1e,
0x41,0x0b,0x1e,0x00,0x00,0x36,0x00,0x0d,0x31,0x27,0x00,0x19,0x41,0x0b,0x19,0x00,
0x00,0x31,0x00,0x0d,0x31,0x27,0x00,0x19,0x41,0x0b,0x19,0x00,0x00,0x31,0x00,0x0d,
0x31,0x27,0x00,0x19,0x41,0x0b,0x19,0x00,0x00,0x31,0x00,0x0d,0x31,0x27,0x00,0x19,
0x41,0x0b,0x19,0x00,0x00,0x31,0x00,0x0d,0x31,0x27,0x00,0x19,0x41,0x0b,0x19,0x00,
0x00,0x31,0x00,0x0d,0x31,0x27,0x00,0x19,0x41,0x0b,0x19,0x00,0x00,0x31,0x00,0x0d,
0x31,0x27,0x00,0x19,0x41,0x0b,0x19,0x00,0x00,0x31,0x00,0x0d,0x31,0x27,0x00,0x19,
0x41,0x0b,0x19,0x00,0x00,0x31,0x00,0x0d,0x31,0x27,0x00,0x19,0x41,0x0b,0x19,0x00,
0x00,0x31,0x00,0x0d,0x31,0x27,0x00,0x19,0x41,0x0b,0x19,0x00,0x00,0x31,0x00,0x0d,
0x31,0x27,0x00,0x19,0x41,0x0b,0x19,0x00,0x00,0x31,0x00,0x0d,0x31,0x27,0x00,0x19,
0x41,0x0b,0x19,0x00,0x00,0x31,0x00,0x0d,0x31,0x27,0x00,0x19,0x41,0x0b,0x19,0x00,
0x00,0x31,0x00,0x0d,0x31,0x27,0x00,0x19,0x41,0x0b,0x19,0x00,0x00,0x31,0x00,0x0d,
0x31,0x27,0x00,0x19,0x41,0x0b,0x19,0x00,0x00,0x31,0x00,0x0d,0x31,0x27,0x00,0x19,
0x41,0x0b,0x19,0x00,0x00,0x31,0x00,0x0d,0x31,0x27,0x00,0x19,0x41,0x0b,0x19,0x00,
0x00,0x31,0x00,0x0d,0x31,0x27,0x00,0x19,0x41,0x0b,0x19,0x00,0x00,0x31,0x00,0x0d,
0x31,0x27,0x00,0x19,0x41,0x0b,0x19,0x00,0x00,0x31,0x00,0x0d,0x31,0x27,0x00,0x19,
0x41,0x0b,0x19,0x00,0x00,0x31,0x00,0x0d,0x38,0x27,0x00,0x20,0x41,0x0b,0x20,0x00,
0x00,0x38,0x00,0x0d,0x38,0x27,0x00,0x20,0x41,0x0b,0x20,0x00,0x00,0x38,0x00,0x0d,
0x38,0x27,0x00,0x20,0x41,0x0b,0x20,0x00,0x00,0x38,0x00,0x0d,0x38,0x27,0x00,0x20,
0x41,0x0b,0x20,0x00,0x00,0x38,0x00,0x0d,0x31,0x27,0x00,0x19,0x41,0x0b,0x19,0x00,
0x00,0x31,0x00,0x0d,0x31,0x27,0x00,0x19,0x41,0x0b,0x19,0x00,0x00,0x31,0x00,0x0d,
0x31,0x27,0x00,0x19,0x41,0x0b,0x19,0x00,0x00,0x31,0x00,0x0d,0x31,0x27,0x00,0x19,
0x41,0x0b,0x19,0x00,0x00,0x31,0x00,0x0d,0x31,0x27,0x00,0x19,0x41,0x0b,0x19,0x00,
0x00,0x31,0x00,0x0d,0x31,0x27,0x00,0x19,0x41,0x0b,0x19,0x00,0x00,0x31,0x00,0x0d,
0x31,0x27,0x00,0x19,0x41,0x0b,0x19,0x00,0x00,0x31,0x00,0x0d,0x31,0x27,0x00,0x19,
0x41,0x0b,0x19,0x00,0x00,0x31,0x00,0x0d,0x31,0x27,0x00,0x19,0x41,0x0b,0x19,0x00,
0x00,0x31,0x00,0x0d,0x31,0x27,0x00,0x19,0x41,0x0b,0x19,0x00,0x00,0x31,0x00,0x0d,
0x31,0x27,0x00,0x19,0x41,0x0b,0x19,0x00,0x00,0x31,0x00,0x0d,0x31,0x27,0x00,0x19,
0x41,0x0b,0x19,0x00,0x00,0x31,0x00,0x0d,0x31,0x27,0x00,0x19,0x41,0x0b,0x19,0x00,
0x00,0x31,0x00,0x0d,0x31,0x27,0x00,0x19,0x41,0x0b,0x19,0x00,0x00,0x31,0x00,0x0d,
0x31,0x27,0x00,0x19,0x41,0x0b,0x19,0x00,0x00,0x31,0x00,0x0d,0x31,0x27,0x00,0x19,
0x41,0x0b,0x19,0x00,0x00,0x31,0x00,0x0d,0x31,0x27,0x00,0x19,0x41,0x0b,0x19,0x00,
0x00,0x31,0x00,0x0d,0x31,0x27,0x00,0x19,0x41,0x0b,0x19,0x00,0x00,0x31,0x00,0x0d,
0x31,0x27,0x00,0x19,0x41,0x0b,0x19,0x00,0x00,0x31,0x00,0x0d,0x31,0x27,0x00,0x19,
0x41,0x0b,0x19,0x00,0x00,0x31,0x00,0x0d,0x31,0x27,0x00,0x19,0x41,0x0b,0x19,0x00,
0x00,0x31,0x00,0x0d,0x31,0x27,0x00,0x19,0x41,0x0b,0x19,0x00,0x00,0x31,0x00,0x0d,
0x31,0x27,0x00,0x19,0x41,0x0b,0x19,0x00,0x00,0x31,0x00,0x0d,0x31,0x27,0x00,0x19,
0x41,0x0b,0x19,0x00,0x00,0x31,0x00,0x0d,0x31,0x27,0x00,0x19,0x41,0x0b,0x19,0x00,
0x00,0x31,0x00,0x0d,0x31,0x27,0x00,0x19,0x41,0x0b,0x19,0x00,0x00,0x31,0x00,0x0d,
0x31,0x27,0x00,0x19,0x41,0x0b,0x19,0x00,0x00,0x31,0x00,0x0d,0x31,0x27,0x00,0x19,
0x41,0x0b,0x19,0x00,0x00,0x31,0x00,0x0d,0x31,0x27,0x00,0x19,0x41,0x0b,0x19,0x00,
0x00,0x31,0x00,0x0d,0x31,0x27,0x00,0x19,0x41,0x0b,0x19,0x00,0x00,0x31,0x00,0x0d,
0x31,0x27,0x00,0x19,0x41,0x0b,0x19,0x00,0x00,0x31,0x00,0x0d,0x31,0x27,0x00,0x19,
0x41,0x0b,0x19,0x00,0x00,0x31,0x00,0x0d,0x31,0x27,0x00,0x19,0x41,0x0b,0x19,0x00,
0x00,0x31,0x00,0x0d,0x31,0x27,0x00,0x19,0x41,0x0b,0x19,0x00,0x00,0x31,0x00,0x0d,
0x31,0x27,0x00,0x19,0x41,0x0b,0x19,0x00,0x00,0x31,0x00,0x0d,0x31,0x27,0x00,0x19,
0x41,0x0b,0x19,0x00,0x00,0x31,0x00,0x0d,0x31,0x27,0x00,0x19,0x41,0x0b,0x19,0x00,
0x00,0x31,0x00,0x0d,0x31,0x27,0x00,0x19,0x41,0x0b,0x19,0x00,0x00,0x31,0x00,0x0d,
0x31,0x27,0x00,0x19,0x41,0x0b,0x19,0x00,0x00,0x31,0x00,0x0d,0x31,0x27,0x00,0x19,
0x41,0x0b,0x19,0x00,0x00,0x31,0x00,0x0d,0x31,0x27,0x00,0x19,0x41,0x0b,0x19,0x00,
0x00,0x31,0x00,0x0d,0x31,0x27,0x00,0x19,0x41,0x0b,0x19,0x00,0x00,0x31,0x00,0x0d,
0x31,0x27,0x00,0x19,0x41,0x0b,0x19,0x00,0x00,0x31,0x00,0x0d,0x31,0x27,0x00,0x19,
0x41,0x0b,0x19,0x00,0x00,0x31,0x00,0x0d,0x31,0x27,0x00,0x19,0x41,0x0b,0x19,0x00,
0x00,0x31,0x00,0x0d,0x31,0x27,0x00,0x19,0x41,0x0b,0x19,0x00,0x00,0x31,0x00,0x0d,
0x31,0x27,0x00,0x19,0x41,0x0b,0x19,0x00,0x00,0x31,0x00,0x0d,0x31,0x27,0x00,0x19,
0x41,0x0b,0x19,0x00,0x00,0x31,0x00,0x0d,0x31,0x27,0x00,0x19,0x41,0x0b,0x19,0x00,
0x00,0x31,0x00,0x0d,0x31,0x27,0x00,0x19,0x41,0x0b,0x19,0x00,0x00,0x31,0x00,0x0d,
0x31,0x27,0x00,0x19,0x41,0x0b,0x19,0x00,0x00,0x31,0x00,0x0d,0x31,0x27,0x00,0x19,
0x41,0x0b,0x19,0x00,0x00,0x31,0x00,0x0d,0x31,0x27,0x00,0x19,0x41,0x0b,0x19,0x00,
0x00,0x31,0x00,0x0d,0x31,0x27,0x00,0x19,0x41,0x0b,0x19,0x00,0x00,0x31,0x00,0x0d,
0x31,0x27,0x00,0x19,0x41,0x0b,0x19,0x00,0x00,0x31,0x00,0x0d,0x31,0x27,0x00,0x19,
0x41,0x0b,0x19,0x00,0x00,0x31,0x00,0x0d,0x31,0x27,0x00,0x19,0x41,0x0b,0x19,0x00,
0x00,0x31,0x00,0x0d,0x31,0x27,0x00,0x19,0x41,0x0b,0x19,0x00,0x00,0x31,0x00,0x0d,
0x31,0x27,0x00,0x19,0x41,0x0b,0x19,0x00,0x00,0x31,0x00,0x0d,0x31,0x27,0x00,0x19,
0x41,0x0b,0x19,0x00,0x00,0x31,0x00,0x0d,0x31,0x27,0x00,0x19,0x41,0x0b,0x19,0x00,
0x00,0x31,0x00,0x0d,0x31,0x27,0x00,0x19,0x41,0x0b,0x19,0x00,0x00,0x31,0x00,0x0d,
0x31,0x27,0x00,0x19,0x41,0x0b,0x19,0x00,0x00,0x31,0x00,0x0d,0x31,0x27,0x00,0x19,
0x41,0x0b,0x19,0x00,0x00,0x31,0x00,0x0d,0x31,0x27,0x00,0x19,0x41,0x0b,0x19,0x00,
0x00,0x31,0x00,0x0d,0x31,0x27,0x00,0x19,0x41,0x0b,0x19,0x00,0x00,0x31,0x00,0x0d,
0x31,0x27,0x00,0x19,0x41,0x0b,0x19,0x00,0x00,0x31,0x00,0x0d,0x31,0x27,0x00,0x19,
0x41,0x0b,0x19,0x00,0x00,0x31,0x00,0x0d,0x31,0x27,0x00,0x19,0x41,0x0b,0x19,0x00,
0x00,0x31,0x00,0x0d,0x31,0x27,0x00,0x19,0x41,0x0b,0x19,0x00,0x00,0x31,0x00,0x0d,
0x31,0x27,0x00,0x19,0x41,0x0b,0x19,0x00,0x00,0x31,0x00,0x0d,0x31,0x27,0x00,0x19,
0x41,0x0b,0x19,0x00,0x00,0x31,0x00,0x0d,0x31,0x27,0x00,0x19,0x41,0x0b,0x19,0x00,
0x00,0x31,0x00,0x0d,0x31,0x27,0x00,0x19,0x41,0x0b,0x19,0x00,0x00,0x31,0x00,0x0d,
0x31,0x27,0x00,0x19,0x41,0x0b,0x19,0x00,0x00,0x31,0x00,0x0d,0x31,0x27,0x00,0x19,
0x41,0x0b,0x19,0x00,0x00,0x31,0x00,0x0d,0x31,0x27,0x00,0x19,0x41,0x0b,0x19,0x00,
0x00,0x31,0x00,0x0d,0x31,0x27,0x00,0x19,0x41,0x0b,0x19,0x00,0x00,0x31,0x00,0x0d,
0x31,0x27,0x00,0x19,0x41,0x0b,0x19,0x00,0x00,0x31,0x00,0x0d,0x31,0x27,0x00,0x19,
0x41,0x0b,0x19,0x00,0x00,0x31,0x00,0x0d,0x31,0x27,0x00,0x19,0x41,0x0b,0x19,0x00,
0x00,0x31,0x00,0x0d,0x31,0x27,0x00,0x19,0x41,0x0b,0x19,0x00,0x00,0x31,0x00,0x0d,
0x31,0x27,0x00,0x19,0x41,0x0b,0x19,0x00,0x00,0x31,0x00,0x0d,0x31,0x27,0x00,0x19,
0x41,0x0b,0x19,0x00,0x00,0x31,0x00,0x0d,0x31,0x27,0x00,0x19,0x41,0x0b,0x19,0x00,
0x00,0x31,0x00,0x0d,0x31,0x27,0x00,0x19,0x41,0x0b,0x19,0x00,0x00,0x31,0x00,0x0d,
0x31,0x27,0x00,0x19,0x41,0x0b,0x19,0x00,0x00,0x31,0x00,0x0d,0x31,0x27,0x00,0x19,
0x41,0x0b,0x19,0x00,0x00,0x31,0x00,0x0d,0x31,0x27,0x00,0x19,0x41,0x0b,0x19,0x00,
0x00,0x31,0x00,0x0d,0x31,0x27,0x00,0x19,0x41,0x0b,0x19,0x00,0x00,0x31,0x00,0x0d,
0x31,0x27,0x00,0x19,0x41,0x0b,0x19,0x00,0x00,0x31,0x00,0x0d,0x31,0x27,0x00,0x19,
0x41,0x0b,0x19,0x00,0x00,0x31,0x00,0x0d,0x31,0x27,0x00,0x19,0x41,0x0b,0x19,0x00,
0x00,0x31,0x00,0x0d,0x31,0x27,0x00,0x19,0x41,0x0b,0x19,0x00,0x00,0x31,0x00,0x0d,
0x31,0x27,0x00,0x19,0x41,0x0b,0x19,0x00,0x00,0x31,0x00,0x0d,0x31,0x27,0x00,0x19,
0x41,0x0b,0x19,0x00,0x00,0x31,0x00,0x0d,0x31,0x27,0x00,0x19,0x41,0x0b,0x19,0x00,
0x00,0x31,0x00,0x0d,0x31,0x27,0x00,0x19,0x41,0x0b,0x19,0x00,0x00,0x31,0x00,0x0d,
0x31,0x27,0x00,0x19,0x41,0x0b,0x19,0x00,0x00,0x31,0x00,0x0d,0x31,0x27,0x00,0x19,
0x41,0x0b,0x19,0x00,0x00,0x31,0x00,0x0d,0x31,0x27,0x00,0x19,0x41,0x0b,0x19,0x00,
0x00,0x31,0x00,0x0d,0x31,0x27,0x00,0x19,0x41,0x0b,0x19,0x00,0x00,0x31,0x00,0x0d,
0x31,0x27,0x00,0x19,0x41,0x0b,0x19,0x00,0x00,0x31,0x00,0x0d,0x31,0x27,0x00,0x19,
0x41,0x0b,0x19,0x00,0x00,0x31,0x00,0x0d,0x31,0x27,0x00,0x19,0x41,0x0b,0x19,0x00,
0x00,0x31,0x00,0x0d,0x31,0x27,0x00,0x19,0x41,0x0b,0x19,0x00,0x00,0x31,0x00,0x0d,
0x31,0x27,0x00,0x19,0x41,0x0b,0x19,0x00,0x00,0x31,0x00,0x0d,0x31,0x27,0x00,0x19,
0x41,0x0b,0x19,0x00,0x00,0x31,0x00,0x0d,0x2c,0x27,0x00,0x14,0x41,0x0b,0x14,0x00,
0x00,0x2c,0x00,0x0d,0x2c,0x27,0x00,0x14,0x41,0x0b,0x14,0x00,0x00,0x2c,0x00,0x0d,
0x2c,0x27,0x00,0x14,0x41,0x0b,0x14,0x00,0x00,0x2c,0x00,0x0d,0x2c,0x27,0x00,0x14,
0x41,0x0b,0x14,0x00,0x00,0x2c,0x00,0x0d,0x31,0x27,0x00,0x19,0x41,0x0b,0x19,0x00,
0x00,0x31,0x00,0x0d,0x31,0x27,0x00,0x19,0x41,0x0b,0x19,0x00,0x00,0x31,0x00,0x0d,
0x31,0x27,0x00,0x19,0x41,0x0b,0x19,0x00,0x00,0x31,0x00,0x0d,0x31,0x27,0x00,0x19,
0x41,0x0b,0x19,0x00,0x00,0x31,0x00,0x0d,0x31,0x27,0x00,0x19,0x41,0x0b,0x19,0x00,
0x00,0x31,0x00,0x0d,0x31,0x27,0x00,0x19,0x41,0x0b,0x19,0x00,0x00,0x31,0x00,0x0d,
0x31,0x27,0x00,0x19,0x41,0x0b,0x19,0x00,0x00,0x31,0x00,0x0d,0x2c,0x27,0x00,0x14,
0x41,0x0b,0x14,0x00,0x00,0x2c,0x00,0x0d,0x25,0x27,0x00,0x0d,0x41,0x0b,0x0d,0x00,
0x00,0x25,0x00,0x0d,0x2c,0x27,0x00,0x14,0x41,0x0b,0x14,0x00,0x00,0x2c,0x00,0x0d,
0x31,0x27,0x00,0x19,0x41,0x0b,0x19,0x00,0x00,0x31,0x00,0x0d,0x31,0x27,0x00,0x19,
0x41,0x0b,0x19,0x00,0x00,0x31,0x00,0x0d,0x31,0x27,0x00,0x19,0x41,0x0b,0x19,0x00,
0x00,0x31,0x00,0x0d,0x31,0x27,0x00,0x19,0x41,0x0b,0x19,0x00,0x00,0x31,0x00,0x0d,
0x31,0x27,0x00,0x19,0x41,0x0b,0x19,0x00,0x00,0x31,0x00,0x0d,0x31,0x27,0x00,0x19,
0x41,0x0b,0x19,0x00,0x00,0x31,0x00,0x0d,0x35,0x27,0x00,0x1d,0x41,0x0b,0x1d,0x00,
0x00,0x35,0x00,0x0d,0x35,0x27,0x00,0x1d,0x41,0x0b,0x1d,0x00,0x00,0x35,0x00,0x0d,
0x35,0x27,0x00,0x1d,0x41,0x0b,0x1d,0x00,0x00,0x35,0x00,0x0d,0x35,0x27,0x00,0x1d,
0x41,0x0b,0x1d,0x00,0x00,0x35,0x00,0x0d,0x36,0x27,0x00,0x1e,0x41,0x0b,0x1e,0x00,
0x00,0x36,0x00,0x0d,0x36,0x27,0x00,0x1e,0x41,0x0b,0x1e,0x00,0x00,0x36,0x00,0x0d,
0x36,0x27,0x00,0x1e,0x41,0x0b,0x1e,0x00,0x00,0x36,0x00,0x0d,0x36,0x27,0x00,0x1e,
0x41,0x0b,0x1e,0x00,0x00,0x36,0x00,0x0d,0x31,0x27,0x00,0x19,0x41,0x0b,0x19,0x00,
0x00,0x31,0x00,0x0d,0x31,0x27,0x00,0x19,0x41,0x0b,0x19,0x00,0x00,0x31,0x00,0x0d,
0x31,0x27,0x00,0x19,0x41,0x0b,0x19,0x00,0x00,0x31,0x00,0x0d,0x31,0x27,0x00,0x19,
0x41,0x0b,0x19,0x00,0x00,0x31,0x00,0x0d,0x31,0x27,0x00,0x19,0x41,0x0b,0x19,0x00,
0x00,0x31,0x00,0x0d,0x31,0x27,0x00,0x19,0x41,0x0b,0x19,0x00,0x00,0x31,0x00,0x0d,
0x31,0x27,0x00,0x19,0x41,0x0b,0x19,0x00,0x00,0x31,0x00,0x0d,0x31,0x27,0x00,0x19,
0x41,0x0b,0x19,0x00,0x00,0x31,0x00,0x0d,0x35,0x27,0x00,0x1d,0x41,0x0b,0x1d,0x00,
0x00,0x35,0x00,0x0d,0x35,0x27,0x00,0x1d,0x41,0x0b,0x1d,0x00,0x00,0x35,0x00,0x0d,
0x35,0x27,0x00,0x1d,0x41,0x0b,0x1d,0x00,0x00,0x35,0x00,0x0d,0x35,0x27,0x00,0x1d,
0x41,0x0b,0x1d,0x00,0x00,0x35,0x00,0x0d,0x38,0x27,0x00,0x20,0x41,0x0b,0x20,0x00,
0x00,0x38,0x00,0x0d,0x38,0x27,0x00,0x20,0x41,0x0b,0x20,0x00,0x00,0x38,0x00,0x0d,
0x38,0x27,0x00,0x20,0x41,0x0b,0x20,0x00,0x00,0x38,0x00,0x0d,0x38,0x27,0x00,0x20,
0x41,0x0b,0x20,0x00,0x00,0x38,0x00,0x0d,0x31,0x27,0x00,0x19,0x41,0x0b,0x19,0x00,
0x00,0x31,0x00,0x0d,0x31,0x27,0x00,0x19,0x41,0x0b,0x19,0x00,0x00,0x31,0x00,0x0d,
0x31,0x27,0x00,0x19,0x41,0x0b,0x19,0x00,0x00,0x31,0x00,0x0d,0x31,0x27,0x00,0x19,
0x41,0x0b,0x19,0x00,0x00,0x31,0x00,0x0d,0x31,0x27,0x00,0x19,0x41,0x0b,0x19,0x00,
0x00,0x31,0x00,0x0d,0x31,0x27,0x00,0x19,0x41,0x0b,0x19,0x00,0x00,0x31,0x00,0x0d,
0x31,0x27,0x00,0x19,0x41,0x0b,0x19,0x00,0x00,0x31,0x00,0x0d,0x31,0x27,0x00,0x19,
0x41,0x0b,0x19,0x00,0x00,0x31,0x00,0x0d,0x35,0x27,0x00,0x1d,0x41,0x0b,0x1d,0x00,
0x00,0x35,0x00,0x0d,0x35,0x27,0x00,0x1d,0x41,0x0b,0x1d,0x00,0x00,0x35,0x00,0x0d,
0x35,0x27,0x00,0x1d,0x41,0x0b,0x1d,0x00,0x00,0x35,0x00,0x0d,0x35,0x27,0x00,0x1d,
0x41,0x0b,0x1d,0x00,0x00,0x35,0x00,0x0d,0x36,0x27,0x00,0x1e,0x41,0x0b,0x1e,0x00,
0x00,0x36,0x00,0x0d,0x36,0x27,0x00,0x1e,0x41,0x0b,0x1e,0x00,0x00,0x36,0x00,0x0d,
0x36,0x27,0x00,0x1e,0x41,0x0b,0x1e,0x00,0x00,0x36,0x00,0x0d,0x36,0x27,0x00,0x1e,
0x41,0x0b,0x1e,0x00,0x00,0x36,0x00,0x0d,0x31,0x27,0x00,0x19,0x41,0x0b,0x19,0x00,
0x00,0x31,0x00,0x0d,0x31,0x27,0x00,0x19,0x41,0x0b,0x19,0x00,0x00,0x31,0x00,0x0d,
0x31,0x27,0x00,0x19,0x41,0x0b,0x19,0x00,0x00,0x31,0x00,0x0d,0x31,0x27,0x00,0x19,
0x41,0x0b,0x19,0x00,0x00,0x31,0x00,0x0d,0x31,0x27,0x00,0x19,0x41,0x0b,0x19,0x00,
0x00,0x31,0x00,0x0d,0x31,0x27,0x00,0x19,0x41,0x0b,0x19,0x00,0x00,0x31,0x00,0x0d,
0x31,0x27,0x00,0x19,0x41,0x0b,0x19,0x00,0x00,0x31,0x00,0x0d,0x31,0x27,0x00,0x19,
0x41,0x0b,0x19,0x00,0x00,0x31,0x00,0x0d,0x31,0x27,0x00,0x19,0x41,0x0b,0x19,0x00,
0x00,0x31,0x00,0x0d,0x31,0x27,0x00,0x19,0x41,0x0b,0x19,0x00,0x00,0x31,0x00,0x0d,
0x31,0x27,0x00,0x19,0x41,0x0b,0x19,0x00,0x00,0x31,0x00,0x0d,0x31,0x27,0x00,0x19,
0x41,0x0b,0x19,0x00,0x00,0x31,0x00,0x0d,0x31,0x27,0x00,0x19,0x41,0x0b,0x19,0x00,
0x00,0x31,0x00,0x0d,0x31,0x27,0x00,0x19,0x41,0x0b,0x19,0x00,0x00,0x31,0x00,0x0d,
0x31,0x27,0x00,0x19,0x41,0x0b,0x19,0x00,0x00,0x31,0x00,0x0d,0x31,0x27,0x00,0x19,
0x41,0x0b,0x19,0x00,0x00,0x31,0x00,0x0d,0x31,0x27,0x00,0x19,0x41,0x0b,0x19,0x00,
0x00,0x31,0x00,0x0d,0x31,0x27,0x00,0x19,0x41,0x0b,0x19,0x00,0x00,0x31,0x00,0x0d,
0x31,0x27,0x00,0x19,0x41,0x0b,0x19,0x00,0x00,0x31,0x00,0x0d,0x31,0x27,0x00,0x19,
0x41,0x0b,0x19,0x00,0x00,0x31,0x00,0x0d,0x31,0x27,0x00,0x19,0x41,0x0b,0x19,0x00,
0x00,0x31,0x00,0x0d,0x31,0x27,0x00,0x19,0x41,0x0b,0x19,0x00,0x00,0x31,0x00,0x0d,
0x31,0x27,0x00,0x19,0x41,0x0b,0x19,0x00,0x00,0x31,0x00,0x0d,0x31,0x27,0x00,0x19,
0x41,0x0b,0x19,0x00,0x00,0x31,0x00,0x0d,0x35,0x27,0x00,0x1d,0x41,0x0b,0x1d,0x00,
0x00,0x35,0x00,0x0d,0x35,0x27,0x00,0x1d,0x41,0x0b,0x1d,0x00,0x00,0x35,0x00,0x0d,
0x35,0x27,0x00,0x1d,0x41,0x0b,0x1d,0x00,0x00,0x35,0x00,0x0d,0x35,0x27,0x00,0x1d,
0x41,0x0b,0x1d,0x00,0x00,0x35,0x00,0x0d,0x36,0x27,0x00,0x1e,0x41,0x0b,0x1e,0x00,
0x00,0x36,0x00,0x0d,0x36,0x27,0x00,0x1e,0x41,0x0b,0x1e,0x00,0x00,0x36,0x00,0x0d,
0x36,0x27,0x00,0x1e,0x41,0x0b,0x1e,0x00,0x00,0x36,0x00,0x0d,0x36,0x27,0x00,0x1e,
0x41,0x0b,0x1e,0x00,0x00,0x36,0x00,0x0d,0x31,0x27,0x00,0x19,0x41,0x0b,0x19,0x00,
0x00,0x31,0x00,0x0d,0x31,0x27,0x00,0x19,0x41,0x0b,0x19,0x00,0x00,0x31,0x00,0x0d,
0x31,0x27,0x00,0x19,0x41,0x0b,0x19,0x00,0x00,0x31,0x00,0x0d,0x31,0x27,0x00,0x19,
0x41,0x0b,0x19,0x00,0x00,0x31,0x00,0x0d,0x31,0x27,0x00,0x19,0x41,0x0b,0x19,0x00,
0x00,0x31,0x00,0x0d,0x31,0x27,0x00,0x19,0x41,0x0b,0x19,0x00,0x00,0x31,0x00,0x0d,
0x31,0x27,0x00,0x19,0x41,0x0b,0x19,0x00,0x00,0x31,0x00,0x0d,0x31,0x27,0x00,0x19,
0x41,0x0b,0x19,0x00,0x00,0x31,0x00,0x0d,0x35,0x27,0x00,0x1d,0x41,0x0b,0x1d,0x00,
0x00,0x35,0x00,0x0d,0x35,0x27,0x00,0x1d,0x41,0x0b,0x1d,0x00,0x00,0x35,0x00,0x0d,
0x35,0x27,0x00,0x1d,0x41,0x0b,0x1d,0x00,0x00,0x35,0x00,0x0d,0x35,0x27,0x00,0x1d,
0x41,0x0b,0x1d,0x00,0x00,0x35,0x00,0x0d,0x38,0x27,0x00,0x20,0x41,0x0b,0x20,0x00,
0x00,0x38,0x00,0x0d,0x38,0x27,0x00,0x20,0x41,0x0b,0x20,0x00,0x00,0x38,0x00,0x0d,
0x38,0x27,0x00,0x20,0x41,0x0b,0x20,0x00,0x00,0x38,0x00,0x0d,0x38,0x27,0x00,0x20,
0x41,0x0b,0x20,0x00,0x00,0x38,0x00,0x0d,0x31,0x27,0x00,0x19,0x41,0x0b,0x19,0x00,
0x00,0x31,0x00,0x0d,0x31,0x27,0x00,0x19,0x41,0x0b,0x19,0x00,0x00,0x31,0x00,0x0d,
0x31,0x27,0x00,0x19,0x41,0x0b,0x19,0x00,0x00,0x31,0x00,0x0d,0x31,0x27,0x00,0x19,
0x41,0x0b,0x19,0x00,0x00,0x31,0x00,0x0d,0x31,0x27,0x00,0x19,0x41,0x0b,0x19,0x00,
0x00,0x31,0x00,0x0d,0x31,0x27,0x00,0x19,0x41,0x0b,0x19,0x00,0x00,0x31,0x00,0x0d,
0x31,0x27,0x00,0x19,0x41,0x0b,0x19,0x00,0x00,0x31,0x00,0x0d,0x31,0x27,0x00,0x19,
0x41,0x0b,0x19,0x00,0x00,0x31,0x00,0x0d,0x35,0x27,0x00,0x1d,0x41,0x0b,0x1d,0x00,
0x00,0x35,0x00,0x0d,0x35,0x27,0x00,0x1d,0x41,0x0b,0x1d,0x00,0x00,0x35,0x00,0x0d,
0x35,0x27,0x00,0x1d,0x41,0x0b,0x1d,0x00,0x00,0x35,0x00,0x0d,0x35,0x27,0x00,0x1d,
0x41,0x0b,0x1d,0x00,0x00,0x35,0x00,0x0d,0x36,0x27,0x00,0x1e,0x41,0x0b,0x1e,0x00,
0x00,0x36,0x00,0x0d,0x36,0x27,0x00,0x1e,0x41,0x0b,0x1e,0x00,0x00,0x36,0x00,0x0d,
0x36,0x27,0x00,0x1e,0x41,0x0b,0x1e,0x00,0x00,0x36,0x00,0x0d,0x36,0x27,0x00,0x1e,
0x41,0x0b,0x1e,0x00,0x00,0x36,0x00,0x0d,0x31,0x27,0x00,0x19,0x41,0x0b,0x19,0x00,
0x00,0x31,0x00,0x0d,0x31,0x27,0x00,0x19,0x41,0x0b,0x19,0x00,0x00,0x31,0x00,0x0d,
0x31,0x27,0x00,0x19,0x41,0x0b,0x19,0x00,0x00,0x31,0x00,0x0d,0x31,0x27,0x00,0x19,
0x41,0x0b,0x19,0x00,0x00,0x31,0x00,0x0d,0x31,0x27,0x00,0x19,0x41,0x0b,0x19,0x00,
0x00,0x31,0x00,0x0d,0x31,0x27,0x00,0x19,0x41,0x0b,0x19,0x00,0x00,0x31,0x00,0x0d,
0x31,0x27,0x00,0x19,0x41,0x0b,0x19,0x00,0x00,0x31,0x00,0x0d,0x31,0x27,0x00,0x19,
0x41,0x0b,0x19,0x00,0x00,0x31,0x00,0x0d,0x31,0x27,0x00,0x19,0x41,0x0b,0x19,0x00,
0x00,0x31,0x00,0x0d,0x31,0x27,0x00,0x19,0x41,0x0b,0x19,0x00,0x00,0x31,0x00,0x0d,
0x31,0x27,0x00,0x19,0x41,0x0b,0x19,0x00,0x00,0x31,0x00,0x0d,0x31,0x27,0x00,0x19,
0x41,0x0b,0x19,0x00,0x00,0x31,0x00,0x0d,0x31,0x27,0x00,0x19,0x41,0x0b,0x19,0x00,
0x00,0x31,0x00,0x0d,0x31,0x27,0x00,0x19,0x41,0x0b,0x19,0x00,0x00,0x31,0x00,0x0d,
0x31,0x27,0x00,0x19,0x41,0x0b,0x19,0x00,0x00,0x31,0x00,0x0d,0x31,0x27,0x00,0x19,
0x41,0x0b,0x19,0x00,0x00,0x31,0x00,0x0d,0x31,0x27,0x00,0x19,0x41,0x0b,0x19,0x00,
0x00,0x31,0x00,0x0d,0x31,0x27,0x00,0x19,0x41,0x0b,0x19,0x00,0x00,0x31,0x00,0x0d,
0x31,0x27,0x00,0x19,0x41,0x0b,0x19,0x00,0x00,0x31,0x00,0x0d,0x31,0x27,0x00,0x19,
0x41,0x0b,0x19,0x00,0x00,0x31,0x00,0x0d,0x38,0x27,0x00,0x20,0x41,0x0b,0x20,0x00,
0x00,0x38,0x00,0x0d,0x38,0x27,0x00,0x20,0x41,0x0b,0x20,0x00,0x00,0x38,0x00,0x0d,
0x38,0x27,0x00,0x20,0x41,0x0b,0x20,0x00,0x00,0x38,0x00,0x0d,0x38,0x27,0x00,0x20,
0x41,0x0b,0x20,0x00,0x00,0x38,0x00,0x0d,0x31,0x27,0x00,0x19,0x41,0x0b,0x19,0x00,
0x00,0x31,0x00,0x0d,0x31,0x27,0x00,0x19,0x41,0x0b,0x19,0x00,0x00,0x31,0x00,0x0d,
0x31,0x27,0x00,0x19,0x41,0x0b,0x19,0x00,0x00,0x31,0x00,0x0d,0x31,0x27,0x00,0x19,
0x41,0x0b,0x19,0x00,0x00,0x31,0x00,0x0d,0x31,0x27,0x00,0x19,0x41,0x0b,0x19,0x00,
0x00,0x31,0x00,0x0d,0x31,0x27,0x00,0x19,0x41,0x0b,0x19,0x00,0x00,0x31,0x00,0x0d,
0x31,0x27,0x00,0x19,0x41,0x0b,0x19,0x00,0x00,0x31,0x00,0x0d,0x31,0x27,0x00,0x19,
0x41,0x0b,0x19,0x00,0x00,0x31,0x00,0x0d,0x31,0x27,0x00,0x19,0x41,0x0b,0x19,0x00,
0x00,0x31,0x00,0x0d,0x31,0x27,0x00,0x19,0x41,0x0b,0x19,0x00,0x00,0x31,0x00,0x0d,
0x31,0x27,0x00,0x19,0x41,0x0b,0x19,0x00,0x00,0x31,0x00,0x0d,0x31,0x27,0x00,0x19,
0x41,0x0b,0x19,0x00,0x00,0x31,0x00,0x0d,0x31,0x27,0x00,0x19,0x41,0x0b,0x19,0x00,
0x00,0x31,0x00,0x0d,0x31,0x27,0x00,0x19,0x41,0x0b,0x19,0x00,0x00,0x31,0x00,0x0d,
0x31,0x27,0x00,0x19,0x41,0x0b,0x19,0x00,0x00,0x31,0x00,0x0d,0x31,0x27,0x00,0x19,
0x41,0x0b,0x19,0x00,0x00,0x31,0x00,0x0d,0x31,0x27,0x00,0x19,0x41,0x0b,0x19,0x00,
0x00,0x31,0x00,0x0d,0x31,0x27,0x00,0x19,0x41,0x0b,0x19,0x00,0x00,0x31,0x00,0x0d,
0x31,0x27,0x00,0x19,0x41,0x0b,0x19,0x00,0x00,0x31,0x00,0x0d,0x31,0x27,0x00,0x19,
0x41,0x0b,0x19,0x00,0x00,0x31,0x00,0x0d,0x31,0x27,0x00,0x19,0x41,0x0b,0x19,0x00,
0x00,0x31,0x00,0x0d,0x31,0x27,0x00,0x19,0x41,0x0b,0x19,0x00,0x00,0x31,0x00,0x0d,
0x31,0x27,0x00,0x19,0x41,0x0b,0x19,0x00,0x00,0x31,0x00,0x0d,0x31,0x27,0x00,0x19,
0x41,0x0b,0x19,0x00,0x00,0x31,0x00,0x0d,0x31,0x27,0x00,0x19,0x41,0x0b,0x19,0x00,
0x00,0x31,0x00,0x0d,0x31,0x27,0x00,0x19,0x41,0x0b,0x19,0x00,0x00,0x31,0x00,0x0d,
0x31,0x27,0x00,0x19,0x41,0x0b,0x19,0x00,0x00,0x31,0x00,0x0d,0x31,0x27,0x00,0x19,
0x41,0x0b,0x19,0x00,0x00,0x31,0x00,0x0d,0x31,0x27,0x00,0x19,0x41,0x0b,0x19,0x00,
0x00,0x31,0x00,0x0d,0x31,0x27,0x00,0x19,0x41,0x0b,0x19,0x00,0x00,0x31,0x00,0x0d,
0x31,0x27,0x00,0x19,0x41,0x0b,0x19,0x00,0x00,0x31,0x00,0x0d,0x31,0x27,0x00,0x19,
0x41,0x0b,0x19,0x00,0x00,0x31,0x00,0x0d,0x31,0x27,0x00,0x19,0x41,0x0b,0x19,0x00,
0x00,0x31,0x00,0x0d,0x31,0x27,0x00,0x19,0x41,0x0b,0x19,0x00,0x00,0x31,0x00,0x0d,
0x31,0x27,0x00,0x19,0x41,0x0b,0x19,0x00,0x00,0x31,0x00,0x0d,0x31,0x27,0x00,0x19,
0x41,0x0b,0x19,0x00,0x00,0x31,0x00,0x0d,0x31,0x27,0x00,0x19,0x41,0x0b,0x19,0x00,
0x00,0x31,0x00,0x0d,0x31,0x27,0x00,0x19,0x41,0x0b,0x19,0x00,0x00,0x31,0x00,0x0d,
0x31,0x27,0x00,0x19,0x41,0x0b,0x19,0x00,0x00,0x31,0x00,0x0d,0x31,0x27,0x00,0x19,
0x41,0x0b,0x19,0x00,0x00,0x31,0x00,0x0d,0x31,0x27,0x00,0x19,0x41,0x0b,0x19,0x00,
0x00,0x31,0x00,0x0d,0x31,0x27,0x00,0x19,0x41,0x0b,0x19,0x00,0x00,0x31,0x00,0x0d,
0x31,0x27,0x00,0x19,0x41,0x0b,0x19,0x00,0x00,0x31,0x00,0x0d,0x31,0x27,0x00,0x19,
0x41,0x0b,0x19,0x00,0x00,0x31,0x00,0x0d,0x31,0x27,0x00,0x19,0x41,0x0b,0x19,0x00,
0x00,0x31,0x00,0x0d,0x31,0x27,0x00,0x19,0x41,0x0b,0x19,0x00,0x00,0x31,0x00,0x0d,
0x31,0x27,0x00,0x19,0x41,0x0b,0x19,0x00,0x00,0x31,0x00,0x0d,0x31,0x27,0x00,0x19,
0x41,0x0b,0x19,0x00,0x00,0x31,0x00,0x0d,0x31,0x27,0x00,0x19,0x41,0x0b,0x19,0x00,
0x00,0x31,0x00,0x0d,0x31,0x27,0x00,0x19,0x41,0x0b,0x19,0x00,0x00,0x31,0x00,0x0d,
0x31,0x27,0x00,0x19,0x41,0x0b,0x19,0x00,0x00,0x31,0x00,0x0d,0x31,0x27,0x00,0x19,
0x41,0x0b,0x19,0x00,0x00,0x31,0x00,0x0d,0x31,0x27,0x00,0x19,0x41,0x0b,0x19,0x00,
0x00,0x31,0x00,0x0d,0x31,0x27,0x00,0x19,0x41,0x0b,0x19,0x00,0x00,0x31,0x00,0x0d,
0x31,0x27,0x00,0x19,0x41,0x0b,0x19,0x00,0x00,0x31,0x00,0x0d,0x31,0x27,0x00,0x19,
0x41,0x0b,0x19,0x00,0x00,0x31,0x00,0x0d,0x31,0x27,0x00,0x19,0x41,0x0b,0x19,0x00,
0x00,0x31,0x00,0x0d,0x31,0x27,0x00,0x19,0x41,0x0b,0x19,0x00,0x00,0x31,0x00,0x0d,
0x31,0x27,0x00,0x19,0x41,0x0b,0x19,0x00,0x00,0x31,0x00,0x0d,0x31,0x27,0x00,0x19,
0x41,0x0b,0x19,0x00,0x00,0x31,0x00,0x0d,0x31,0x27,0x00,0x19,0x41,0x0b,0x19,0x00,
0x00,0x31,0x00,0x0d,0x31,0x27,0x00,0x19,0x41,0x0b,0x19,0x00,0x00,0x31,0x00,0x0d,
0x31,0x27,0x00,0x19,0x41,0x0b,0x19,0x00,0x00,0x31,0x00,0x0d,0x31,0x27,0x00,0x19,
0x41,0x0b,0x19,0x00,0x00,0x31,0x00,0x0d,0x31,0x27,0x00,0x19,0x41,0x0b,0x19,0x00,
0x00,0x31,0x00,0x0d,0x31,0x27,0x00,0x19,0x41,0x0b,0x19,0x00,0x00,0x31,0x00,0x0d,
0x31,0x27,0x00,0x19,0x41,0x0b,0x19,0x00,0x00,0x31,0x00,0x0d,0x31,0x27,0x00,0x19,
0x41,0x0b,0x19,0x00,0x00,0x31,0x00,0x0d,0x31,0x27,0x00,0x19,0x41,0x0b,0x19,0x00,
0x00,0x31,0x00,0x0d,0x31,0x27,0x00,0x19,0x41,0x0b,0x19,0x00,0x00,0x31,0x00,0x0d,
0x31,0x27,0x00,0x19,0x41,0x0b,0x19,0x00,0x00,0x31,0x00,0x0d,0x31,0x27,0x00,0x19,
0x41,0x0b,0x19,0x00,0x00,0x31,0x00,0x0d,0x31,0x27,0x00,0x19,0x41,0x0b,0x19,0x00,
0x00,0x31,0x00,0x0d,0x31,0x27,0x00,0x19,0x41,0x0b,0x19,0x00,0x00,0x31,0x00,0x0d,
0x31,0x27,0x00,0x19,0x41,0x0b,0x19,0x00,0x00,0x31,0x00,0x0d,0x31,0x27,0x00,0x19,
0x41,0x0b,0x19,0x00,0x00,0x31,0x00,0x0d,0x31,0x27,0x00,0x19,0x41,0x0b,0x19,0x00,
0x00,0x31,0x00,0x0d,0x31,0x27,0x00,0x19,0x41,0x0b,0x19,0x00,0x00,0x31,0x00,0x0d,
0x31,0x27,0x00,0x19,0x41,0x0b,0x19,0x00,0x00,0x31,0x00,0x0d,0x31,0x27,0x00,0x19,
0x41,0x0b,0x19,0x00,0x00,0x31,0x00,0x0d,0x31,0x27,0x00,0x19,0x41,0x0b,0x19,0x00,
0x00,0x31,0x00,0x0d,0x31,0x27,0x00,0x19,0x41,0x0b,0x19,0x00,0x00,0x31,0x00,0x0d,
0x31,0x27,0x00,0x19,0x41,0x0b,0x19,0x00,0x00,0x31,0x00,0x0d,0x31,0x27,0x00,0x19,
0x41,0x0b,0x19,0x00,0x00,0x31,0x00,0x0d,0x31,0x27,0x00,0x19,0x41,0x0b,0x19,0x00,
0x00,0x31,0x00,0x0d,0x31,0x27,0x00,0x19,0x41,0x0b,0x19,0x00,0x00,0x31,0x00,0x0d,
0x31,0x27,0x00,0x19,0x41,0x0b,0x19,0x00,0x00,0x31,0x00,0x0d,0x31,0x27,0x00,0x19,
0x41,0x0b,0x19,0x00,0x00,0x31,0x00,0x0d,0x31,0x27,0x00,0x19,0x41,0x0b,0x19,0x00,
0x00,0x31,0x00,0x0d,0x31,0x27,0x00,0x19,0x41,0x0b,0x19,0x00,0x00,0x31,0x00,0x0d,
0x31,0x27,0x00,0x19,0x41,0x0b,0x19,0x00,0x00,0x31,0x00,0x0d,0x31,0x27,0x00,0x19,
0x41,0x0b,0x19,0x00,0x00,0x31,0x00,0x0d,0x31,0x27,0x00,0x19,0x41,0x0b,0x19,0x00,
0x00,0x31,0x00,0x0d,0x31,0x27,0x00,0x19,0x41,0x0b,0x19,0x00,0x00,0x31,0x00,0x0d,
0x31,0x27,0x00,0x19,0x41,0x0b,0x19,0x00,0x00,0x31,0x00,0x0d,0x31,0x27,0x00,0x19,
0x41,0x0b,0x19,0x00,0x00,0x31,0x00,0x0d,0x31,0x27,0x00,0x19,0x41,0x0b,0x19,0x00,
0x00,0x31,0x00,0x0d,0x31,0x27,0x00,0x19,0x41,0x0b,0x19,0x00,0x00,0x31,0x00,0x0d,
0x31,0x27,0x00,0x19,0x41,0x0b,0x19,0x00,0x00,0x31,0x00,0x0d,0x31,0x27,0x00,0x19,
0x41,0x0b,0x19,0x00,0x00,0x31,0x00,0x0d,0x31,0x27,0x00,0x19,0x41,0x0b,0x19,0x00,
0x00,0x31,0x00,0x0d,0x31,0x27,0x00,0x19,0x41,0x0b,0x19,0x00,0x00,0x31,0x00,0x0d,
0x31,0x27,0x00,0x19,0x41,0x0b,0x19,0x00,0x00,0x31,0x00,0x0d,0x31,0x27,0x00,0x19,
0x41,0x0b,0x19,0x00,0x00,0x31,0x00,0x0d,0x31,0x27,0x00,0x19,0x41,0x0b,0x19,0x00,
0x00,0x31,0x00,0x0d,0x31,0x27,0x00,0x19,0x41,0x0b,0x19,0x00,0x00,0x31,0x00,0x0d,
0x31,0x27,0x00,0x19,0x41,0x0b,0x19,0x00,0x00,0x31,0x00,0x0d,0x31,0x27,0x00,0x19,
0x41,0x0b,0x19,0x00,0x00,0x31,0x00,0x0d,0x2c,0x27,0x00,0x14,0x41,0x0b,0x14,0x00,
0x00,0x2c,0x00,0x0d,0x2c,0x27,0x00,0x14,0x41,0x0b,0x14,0x00,0x00,0x2c,0x00,0x0d,
0x2c,0x27,0x00,0x14,0x41,0x0b,0x14,0x00,0x00,0x2c,0x00,0x0d,0x2c,0x27,0x00,0x14,
0x41,0x0b,0x14,0x00,0x00,0x2c,0x00,0x0d,0x31,0x27,0x00,0x19,0x41,0x0b,0x19,0x00,
0x00,0x31,0x00,0x0d,0x31,0x27,0x00,0x19,0x41,0x0b,0x19,0x00,0x00,0x31,0x00,0x0d,
0x31,0x27,0x00,0x19,0x41,0x0b,0x19,0x00,0x00,0x31,0x00,0x0d,0x31,0x27,0x00,0x19,
0x41,0x0b,0x19,0x00,0x00,0x31,0x00,0x0d,0x31,0x27,0x00,0x19,0x41,0x0b,0x19,0x00,
0x00,0x31,0x00,0x0d,0x31,0x27,0x00,0x19,0x41,0x0b,0x19,0x00,0x00,0x31,0x00,0x0d,
0x31,0x27,0x00,0x19,0x41,0x0b,0x19,0x00,0x00,0x31,0x00,0x0d,0x2c,0x27,0x00,0x14,
0x41,0x0b,0x14,0x00,0x00,0x2c,0x00,0x0d,0x25,0x27,0x00,0x0d,0x41,0x0b,0x0d,0x00,
0x00,0x25,0x00,0x0d,0x2c,0x27,0x00,0x14,0x41,0x0b,0x14,0x00,0x00,0x2c,0x00,0x0d,
0x31,0x27,0x00,0x19,0x41,0x0b,0x19,0x00,0x00,0x31,0x00,0x0d,0x31,0x27,0x00,0x19,
0x41,0x0b,0x19,0x00,0x00,0x31,0x00,0x0d,0x31,0x27,0x00,0x19,0x41,0x0b,0x19,0x00,
0x00,0x31,0x00,0x0d,0x31,0x27,0x00,0x19,0x41,0x0b,0x19,0x00,0x00,0x31,0x00,0x0d,
0x31,0x27,0x00,0x19,0x41,0x0b,0x19,0x00,0x00,0x31,0x00,0x0d,0x31,0x27,0x00,0x19,
0x41,0x0b,0x19,0x00,0x00,0x31,0x00,0x0d,0x31,0x27,0x00,0x19,0x41,0x0b,0x19,0x00,
0x00,0x31,0x00,0x0d,0x31,0x27,0x00,0x19,0x41,0x0b,0x19,0x00,0x00,0x31,0x00,0x0d,
0x31,0x27,0x00,0x19,0x41,0x0b,0x19,0x00,0x00,0x31,0x00,0x0d,0x31,0x27,0x00,0x19,
0x41,0x0b,0x19,0x00,0x00,0x31,0x00,0x0d,0x31,0x27,0x00,0x19,0x41,0x0b,0x19,0x00,
0x00,0x31,0x00,0x0d,0x31,0x27,0x00,0x19,0x41,0x0b,0x19,0x00,0x00,0x31,0x00,0x0d,
0x31,0x27,0x00,0x19,0x41,0x0b,0x19,0x00,0x00,0x31,0x00,0x0d,0x31,0x27,0x00,0x19,
0x41,0x0b,0x19,0x00,0x00,0x31,0x00,0x0d,0x31,0x27,0x00,0x19,0x41,0x0b,0x19,0x00,
0x00,0x31,0x00,0x0d,0x31,0x27,0x00,0x19,0x41,0x0b,0x19,0x00,0x00,0x31,0x00,0x0d,
0x31,0x27,0x00,0x19,0x41,0x0b,0x19,0x00,0x00,0x31,0x00,0x0d,0x31,0x27,0x00,0x19,
0x41,0x0b,0x19,0x00,0x00,0x31,0x00,0x0d,0x31,0x27,0x00,0x19,0x41,0x0b,0x19,0x00,
0x00,0x31,0x00,0x0d,0x31,0x27,0x00,0x19,0x41,0x0b,0x19,0x00,0x00,0x31,0x00,0x0d,
0x31,0x27,0x00,0x19,0x41,0x0b,0x19,0x00,0x00,0x31,0x00,0x0d,0x31,0x27,0x00,0x19,
0x41,0x0b,0x19,0x00,0x00,0x31,0x00,0x0d,0x31,0x27,0x00,0x19,0x41,0x0b,0x19,0x00,
0x00,0x31,0x00,0x0d,0x31,0x27,0x00,0x19,0x41,0x0b,0x19,0x00,0x00,0x31,0x00,0x0d,
0x31,0x27,0x00,0x19,0x41,0x0b,0x19,0x00,0x00,0x31,0x00,0x0d,0x31,0x27,0x00,0x19,
0x41,0x0b,0x19,0x00,0x00,0x31,0x00,0x0d,0x31,0x27,0x00,0x19,0x41,0x0b,0x19,0x00,
0x00,0x31,0x00,0x0d,0x31,0x27,0x00,0x19,0x41,0x0b,0x19,0x00,0x00,0x31,0x00,0x0d,
0x31,0x27,0x00,0x19,0x41,0x0b,0x19,0x00,0x00,0x31,0x00,0x0d,0x31,0x27,0x00,0x19,
0x41,0x0b,0x19,0x00,0x00,0x31,0x00,0x0d,0x31,0x27,0x00,0x19,0x41,0x0b,0x19,0x00,
0x00,0x31,0x00,0x0d,0x31,0x27,0x00,0x19,0x41,0x0b,0x19,0x00,0x00,0x31,0x00,0x0d,
0x31,0x27,0x00,0x19,0x41,0x0b,0x19,0x00,0x00,0x31,0x00,0x0d,0x31,0x27,0x00,0x19,
0x41,0x0b,0x19,0x00,0x00,0x31,0x00,0x0d,0x31,0x27,0x00,0x19,0x41,0x0b,0x19,0x00,
0x00,0x31,0x00,0x0d,0x31,0x27,0x00,0x19,0x41,0x0b,0x19,0x00,0x00,0x31,0x00,0x0d,
0x31,0x27,0x00,0x19,0x41,0x0b,0x19,0x00,0x00,0x31,0x00,0x0d,0x31,0x27,0x00,0x19,
0x41,0x0b,0x19,0x00,0x00,0x31,0x00,0x0d,0x31,0x27,0x00,0x19,0x41,0x0b,0x19,0x00,
0x00,0x31,0x00,0x0d,0x31,0x27,0x00,0x19,0x41,0x0b,0x19,0x00,0x00,0x31,0x00,0x0d,
0x31,0x27,0x00,0x19,0x41,0x0b,0x19,0x00,0x00,0x31,0x00,0x0d,0x31,0x27,0x00,0x19,
0x41,0x0b,0x19,0x00,0x00,0x31,0x00,0x0d,0x31,0x27,0x00,0x19,0x41,0x0b,0x19,0x00,
0x00,0x31,0x00,0x0d,0x31,0x27,0x00,0x19,0x41,0x0b,0x19,0x00,0x00,0x31,0x00,0x0d,
0x31,0x27,0x00,0x19,0x41,0x0b,0x19,0x00,0x00,0x31,0x00,0x0d,0x31,0x27,0x00,0x19,
0x41,0x0b,0x19,0x00,0x00,0x31,0x00,0x0d,0x31,0x27,0x00,0x19,0x41,0x0b,0x19,0x00,
0x00,0x31,0x00,0x0d,0x31,0x27,0x00,0x19,0x41,0x0b,0x19,0x00,0x00,0x31,0x00,0x0d,
0x31,0x27,0x00,0x19,0x41,0x0b,0x19,0x00,0x00,0x31,0x00,0x0d,0x31,0x27,0x00,0x19,
0x41,0x0b,0x19,0x00,0x00,0x31,0x00,0x0d,0x31,0x27,0x00,0x19,0x41,0x0b,0x19,0x00,
0x00,0x31,0x00,0x0d,0x31,0x27,0x00,0x19,0x41,0x0b,0x19,0x00,0x00,0x31,0x00,0x0d,
0x31,0x27,0x00,0x19,0x41,0x0b,0x19,0x00,0x00,0x31,0x00,0x0d,0x31,0x27,0x00,0x19,
0x41,0x0b,0x19,0x00,0x00,0x31,0x00,0x0d,0x31,0x27,0x00,0x19,0x41,0x0b,0x19,0x00,
0x00,0x31,0x00,0x0d,0x31,0x27,0x00,0x19,0x41,0x0b,0x19,0x00,0x00,0x31,0x00,0x0d,
0x31,0x27,0x00,0x19,0x41,0x0b,0x19,0x00,0x00,0x31,0x00,0x0d,0x31,0x27,0x00,0x19,
0x41,0x0b,0x19,0x00,0x00,0x31,0x00,0x0d,0x31,0x27,0x00,0x19,0x41,0x0b,0x19,0x00,
0x00,0x31,0x00,0x0d,0x31,0x27,0x00,0x19,0x41,0x0b,0x19,0x00,0x00,0x31,0x00,0x0d,
0x31,0x27,0x00,0x19,0x41,0x0b,0x19,0x00,0x00,0x31,0x00,0x0d,0x31,0x27,0x00,0x19,
0x41,0x0b,0x19,0x00,0x00,0x31,0x00,0x0d,0x31,0x27,0x00,0x19,0x41,0x0b,0x19,0x00,
0x00,0x31,0x00,0x0d,0x31,0x27,0x00,0x19,0x41,0x0b,0x19,0x00,0x00,0x31,0x00,0x0d,
0x31,0x27,0x00,0x19,0x41,0x0b,0x19,0x00,0x00,0x31,0x00,0x0d,0x31,0x27,0x00,0x19,
0x41,0x0b,0x19,0x00,0x00,0x31,0x00,0x0d,0x31,0x27,0x00,0x19,0x41,0x0b,0x19,0x00,
0x00,0x31,0x00,0x0d,0x31,0x27,0x00,0x19,0x41,0x0b,0x19,0x00,0x00,0x31,0x00,0x0d,
0x31,0x27,0x00,0x19,0x41,0x0b,0x19,0x00,0x00,0x31,0x00,0x0d,0x31,0x27,0x00,0x19,
0x41,0x0b,0x19,0x00,0x00,0x31,0x00,0x0d,0x31,0x27,0x00,0x19,0x41,0x0b,0x19,0x00,
0x00,0x31,0x00,0x0d,0x31,0x27,0x00,0x19,0x41,0x0b,0x19,0x00,0x00,0x31,0x00,0x0d,
0x31,0x27,0x00,0x19,0x41,0x0b,0x19,0x00,0x00,0x31,0x00,0x0d,0x31,0x27,0x00,0x19,
0x41,0x0b,0x19,0x00,0x00,0x31,0x00,0x0d,0x31,0x27,0x00,0x19,0x41,0x0b,0x19,0x00,
0x00,0x31,0x00,0x0d,0x31,0x27,0x00,0x19,0x41,0x0b,0x19,0x00,0x00,0x31,0x00,0x0d,
0x31,0x27,0x00,0x19,0x41,0x0b,0x19,0x00,0x00,0x31,0x00,0x0d,0x31,0x27,0x00,0x19,
0x41,0x0b,0x19,0x00,0x00,0x31,0x00,0x0d,0x31,0x27,0x00,0x19,0x41,0x0b,0x19,0x00,
0x00,0x31,0x00,0x0d,0x31,0x27,0x00,0x19,0x41,0x0b,0x19,0x00,0x00,0x31,0x00,0x0d,
0x31,0x27,0x00,0x19,0x41,0x0b,0x19,0x00,0x00,0x31,0x00,0x0d,0x31,0x27,0x00,0x19,
0x41,0x0b,0x19,0x00,0x00,0x31,0x00,0x0d,0x31,0x27,0x00,0x19,0x41,0x0b,0x19,0x00,
0x00,0x31,0x00,0x0d,0x31,0x27,0x00,0x19,0x41,0x0b,0x19,0x00,0x00,0x31,0x00,0x0d,
0x31,0x27,0x00,0x19,0x41,0x0b,0x19,0x00,0x00,0x31,0x00,0x0d,0x31,0x27,0x00,0x19,
0x41,0x0b,0x19,0x00,0x00,0x31,0x00,0x0d,0x31,0x27,0x00,0x19,0x41,0x0b,0x19,0x00,
0x00,0x31,0x00,0x00,0xff,0x2f,0x00,0x4d,0x54,0x72,0x6b,0x00,0x00,0x14,0xd3,0x00,
0xff,0x21,0x01,0x00,0x00,0xb2,0x00,0x00,0x00,0x20,0x00,0x00,0xc2,0x1b,0x00,0xb2,
0x07,0x60,0x00,0x5b,0x78,0x00,0x5d,0x00,0x65,0x65,0x00,0x00,0x64,0x00,0x00,0x06,
0x0c,0x00,0x26,0x00,0xbe,0x1b,0x92,0x5c,0x6e,0x0b,0x5c,0x00,0x01,0x59,0x6e,0x0b,
0x59,0x00,0x01,0x55,0x6e,0x0b,0x55,0x00,0x01,0x59,0x6e,0x09,0xb2,0x0b,0x00,0x02,
0x92,0x59,0x00,0x01,0x5c,0x6e,0x06,0xb2,0x0b,0x16,0x05,0x92,0x5c,0x00,0x01,0x59,
0x6e,0x02,0xb2,0x0b,0x20,0x08,0x0b,0x24,0x01,0x92,0x59,0x00,0x01,0x55,0x6e,0x07,
0xb2,0x0b,0x30,0x04,0x92,0x55,0x00,0x01,0x59,0x6e,0x03,0xb2,0x0b,0x3c,0x08,0x92,
0x59,0x00,0x00,0xb2,0x0b,0x40,0x01,0x92,0x5c,0x6e,0x09,0xb2,0x0b,0x48,0x02,0x92,
0x5c,0x00,0x01,0x59,0x6e,0x07,0xb2,0x0b,0x4e,0x04,0x92,0x59,0x00,0x01,0x55,0x6e,
0x02,0xb2,0x0b,0x52,0x08,0x0b,0x56,0x01,0x92,0x55,0x00,0x01,0x59,0x6e,0x0a,0xb2,
0x0b,0x5a,0x01,0x92,0x59,0x00,0x01,0x5c,0x6e,0x08,0xb2,0x0b,0x5e,0x03,0x92,0x5c,
0x00,0x01,0x59,0x6e,0x06,0xb2,0x0b,0x62,0x05,0x92,0x59,0x00,0x01,0x55,0x6e,0x03,
0xb2,0x0b,0x64,0x07,0x0b,0x6c,0x01,0x92,0x55,0x00,0x01,0x59,0x6e,0x0a,0xb2,0x0b,
0x6e,0x01,0x92,0x59,0x00,0x01,0x5c,0x6e,0x06,0xb2,0x0b,0x74,0x05,0x92,0x5c,0x00,
0x01,0x59,0x6e,0x02,0xb2,0x0b,0x7c,0x09,0x92,0x59,0x00,0x01,0x55,0x6e,0x0b,0x55,
0x00,0x01,0x59,0x6e,0x09,0xb2,0x0b,0x74,0x02,0x92,0x59,0x00,0x01,0x5c,0x6e,0x09,
0xb2,0x0b,0x70,0x02,0x92,0x5c,0x00,0x01,0x59,0x6e,0x04,0xb2,0x0b,0x6c,0x07,0x92,
0x59,0x00,0x01,0x55,0x6e,0x01,0xb2,0x0b,0x62,0x08,0x0b,0x5a,0x02,0x92,0x55,0x00,
0x01,0x59,0x6e,0x05,0xb2,0x0b,0x52,0x06,0x92,0x59,0x00,0x01,0x5c,0x6e,0x01,0xb2,
0x0b,0x4c,0x08,0x0b,0x48,0x02,0x92,0x5c,0x00,0x01,0x59,0x6e,0x06,0xb2,0x0b,0x40,
0x05,0x92,0x59,0x00,0x01,0x55,0x6e,0x04,0xb2,0x0b,0x3c,0x07,0x92,0x55,0x00,0x00,
0xb2,0x0b,0x36,0x01,0x92,0x59,0x6e,0x08,0xb2,0x0b,0x2c,0x03,0x92,0x59,0x00,0x01,
0x5c,0x6e,0x04,0xb2,0x0b,0x24,0x07,0x92,0x5c,0x00,0x01,0x59,0x6e,0x01,0xb2,0x0b,
0x18,0x09,0x0b,0x0a,0x01,0x92,0x59,0x00,0x01,0x55,0x6e,0x06,0xb2,0x0b,0x00,0x05,
0x92,0x55,0x00,0x01,0x59,0x6e,0x0b,0x59,0x00,0x01,0x5c,0x6e,0x0b,0x5c,0x00,0x01,
0x59,0x6e,0x0b,0x59,0x00,0x01,0x55,0x6e,0x0b,0x55,0x00,0x01,0x59,0x6e,0x0b,0x59,
0x00,0x01,0x5c,0x6e,0x02,0xb2,0x0b,0x00,0x08,0x0b,0x08,0x01,0x92,0x5c,0x00,0x01,
0x59,0x6e,0x06,0xb2,0x0b,0x12,0x05,0x92,0x59,0x00,0x01,0x55,0x6e,0x01,0xb2,0x0b,
0x1a,0x08,0x0b,0x1c,0x02,0x92,0x55,0x00,0x01,0x59,0x6e,0x07,0xb2,0x0b,0x22,0x04,
0x92,0x59,0x00,0x01,0x5c,0x6e,0x04,0xb2,0x0b,0x28,0x07,0x92,0x5c,0x00,0x01,0x59,
0x6e,0x01,0xb2,0x0b,0x2c,0x08,0x0b,0x2e,0x02,0x92,0x59,0x00,0x01,0x55,0x6e,0x05,
0xb2,0x0b,0x34,0x06,0x92,0x55,0x00,0x01,0x59,0x6e,0x01,0xb2,0x0b,0x3a,0x0a,0x92,
0x59,0x00,0x01,0x5c,0x6e,0x01,0xb2,0x0b,0x40,0x0a,0x92,0x5c,0x00,0x00,0xb2,0x0b,
0x46,0x01,0x92,0x59,0x6e,0x07,0xb2,0x0b,0x4a,0x04,0x92,0x59,0x00,0x01,0x55,0x6e,
0x04,0xb2,0x0b,0x56,0x07,0x92,0x55,0x00,0x01,0x59,0x6e,0x00,0xb2,0x0b,0x5a,0x08,
0x0b,0x5e,0x03,0x92,0x59,0x00,0x01,0x5c,0x6e,0x07,0xb2,0x0b,0x62,0x04,0x92,0x5c,
0x00,0x01,0x59,0x6e,0x03,0xb2,0x0b,0x6c,0x08,0x92,0x59,0x00,0x00,0xb2,0x0b,0x76,
0x01,0x92,0x55,0x6e,0x06,0xb2,0x0b,0x7a,0x05,0x92,0x55,0x00,0x01,0x59,0x6e,0x02,
0xb2,0x0b,0x7f,0x09,0x92,0x59,0x00,0x01,0x5c,0x6e,0x0b,0x5c,0x00,0x01,0x59,0x6e,
0x0b,0x59,0x00,0x01,0x55,0x6e,0x0b,0x55,0x00,0x01,0x59,0x6e,0x0b,0x59,0x00,0x01,
0x5c,0x6e,0x0b,0x5c,0x00,0x01,0x59,0x6e,0x0b,0x59,0x00,0x00,0xb2,0x0b,0x7e,0x01,
0x92,0x55,0x6e,0x09,0xb2,0x0b,0x76,0x02,0x92,0x55,0x00,0x01,0x59,0x6e,0x05,0xb2,
0x0b,0x6c,0x06,0x92,0x59,0x00,0x01,0x5c,0x6e,0x02,0xb2,0x0b,0x62,0x08,0x0b,0x5a,
0x01,0x92,0x5c,0x00,0x01,0x59,0x6e,0x07,0xb2,0x0b,0x52,0x04,0x92,0x59,0x00,0x01,
0x55,0x6e,0x05,0xb2,0x0b,0x4a,0x06,0x92,0x55,0x00,0x01,0x59,0x6e,0x02,0xb2,0x0b,
0x44,0x08,0x0b,0x3e,0x01,0x92,0x59,0x00,0x01,0x5c,0x6e,0x06,0xb2,0x0b,0x2e,0x05,
0x92,0x5c,0x00,0x01,0x59,0x6e,0x02,0xb2,0x0b,0x20,0x08,0x0b,0x0c,0x01,0x92,0x59,
0x00,0x01,0x55,0x6e,0x07,0xb2,0x0b,0x00,0x04,0x92,0x55,0x00,0x01,0x59,0x6e,0x0b,
0x59,0x00,0x01,0x5c,0x6e,0x0b,0x5c,0x00,0x01,0x59,0x6e,0x0b,0x59,0x00,0x01,0x55,
0x6e,0x0b,0x55,0x00,0x01,0x59,0x6e,0x0b,0x59,0x00,0x01,0xb2,0x0b,0x00,0x00,0x92,
0x5c,0x6e,0x09,0xb2,0x0b,0x0a,0x02,0x92,0x5c,0x00,0x01,0x59,0x6e,0x09,0xb2,0x0b,
0x0c,0x02,0x92,0x59,0x00,0x01,0x55,0x6e,0x05,0xb2,0x0b,0x12,0x06,0x92,0x55,0x00,
0x01,0x59,0x6e,0x02,0xb2,0x0b,0x16,0x07,0x0b,0x1c,0x02,0x92,0x59,0x00,0x01,0x5c,
0x6e,0x05,0xb2,0x0b,0x20,0x06,0x92,0x5c,0x00,0x01,0x59,0x6e,0x01,0xb2,0x0b,0x24,
0x08,0x0b,0x26,0x02,0x92,0x59,0x00,0x01,0x55,0x6e,0x04,0xb2,0x0b,0x2a,0x07,0x92,
0x55,0x00,0x01,0x59,0x6e,0x02,0xb2,0x0b,0x30,0x08,0x0b,0x34,0x01,0x92,0x59,0x00,
0x01,0x5c,0x6e,0x08,0xb2,0x0b,0x3a,0x03,0x92,0x5c,0x00,0x01,0x59,0x6e,0x05,0xb2,
0x0b,0x40,0x06,0x92,0x59,0x00,0x01,0x55,0x6e,0x02,0xb2,0x0b,0x44,0x07,0x0b,0x48,
0x02,0x92,0x55,0x00,0x01,0x59,0x6e,0x07,0xb2,0x0b,0x50,0x04,0x92,0x59,0x00,0x01,
0x5c,0x6e,0x04,0xb2,0x0b,0x56,0x07,0x92,0x5c,0x00,0x01,0x59,0x6e,0x02,0xb2,0x0b,
0x5c,0x08,0x0b,0x62,0x01,0x92,0x59,0x00,0x01,0x55,0x6e,0x06,0xb2,0x0b,0x68,0x05,
0x92,0x55,0x00,0x01,0x59,0x6e,0x02,0xb2,0x0b,0x6c,0x08,0x0b,0x70,0x01,0x92,0x59,
0x00,0x01,0x5c,0x6e,0x08,0xb2,0x0b,0x76,0x03,0x92,0x5c,0x00,0x01,0x59,0x6e,0x04,
0xb2,0x0b,0x7f,0x07,0x92,0x59,0x00,0x01,0x55,0x6e,0x0b,0x55,0x00,0x01,0x59,0x6e,
0x0b,0x59,0x00,0x01,0x5c,0x6e,0x0b,0x5c,0x00,0x01,0x59,0x6e,0x0b,0x59,0x00,0x01,
0x55,0x6e,0x0b,0x55,0x00,0x01,0x59,0x6e,0x09,0xb2,0x0b,0x78,0x02,0x92,0x59,0x00,
0x01,0x5c,0x6e,0x05,0xb2,0x0b,0x6e,0x06,0x92,0x5c,0x00,0x01,0x59,0x6e,0x01,0xb2,
0x0b,0x66,0x08,0x0b,0x56,0x02,0x92,0x59,0x00,0x01,0x55,0x6e,0x06,0xb2,0x0b,0x48,
0x05,0x92,0x55,0x00,0x01,0x59,0x6e,0x02,0xb2,0x0b,0x3c,0x08,0x0b,0x2e,0x01,0x92,
0x59,0x00,0x01,0x5c,0x6e,0x06,0xb2,0x0b,0x20,0x05,0x92,0x5c,0x00,0x01,0x59,0x6e,
0x03,0xb2,0x0b,0x14,0x08,0x92,0x59,0x00,0x00,0xb2,0x0b,0x0a,0x01,0x92,0x55,0x6e,
0x07,0xb2,0x0b,0x00,0x04,0x92,0x55,0x00,0x01,0x59,0x6e,0x0b,0x59,0x00,0x01,0x5c,
0x6e,0x0b,0x5c,0x00,0x01,0x59,0x6e,0x0b,0x59,0x00,0x01,0x55,0x6e,0x0b,0x55,0x00,
0x01,0x59,0x6e,0x0b,0x59,0x00,0x01,0x5c,0x6e,0x0a,0xb2,0x0b,0x06,0x01,0x92,0x5c,
0x00,0x01,0x59,0x6e,0x07,0xb2,0x0b,0x0c,0x04,0x92,0x59,0x00,0x01,0x55,0x6e,0x03,
0xb2,0x0b,0x14,0x08,0x92,0x55,0x00,0x01,0x59,0x6e,0x02,0xb2,0x0b,0x18,0x07,0x0b,
0x22,0x02,0x92,0x59,0x00,0x01,0x5c,0x6e,0x05,0xb2,0x0b,0x2e,0x06,0x92,0x5c,0x00,
0x01,0x59,0x6e,0x01,0xb2,0x0b,0x32,0x0a,0x92,0x59,0x00,0x01,0x55,0x6e,0x01,0xb2,
0x0b,0x3a,0x09,0x0b,0x3e,0x01,0x92,0x55,0x00,0x01,0x59,0x6e,0x06,0xb2,0x0b,0x48,
0x05,0x92,0x59,0x00,0x01,0x5c,0x6e,0x02,0xb2,0x0b,0x4c,0x08,0x0b,0x54,0x01,0x92,
0x5c,0x00,0x01,0x59,0x6e,0x06,0xb2,0x0b,0x5c,0x05,0x92,0x59,0x00,0x01,0x55,0x6e,
0x04,0xb2,0x0b,0x62,0x07,0x92,0x55,0x00,0x01,0x59,0x6e,0x01,0xb2,0x0b,0x6c,0x08,
0x0b,0x74,0x02,0x92,0x59,0x00,0x01,0x5c,0x6e,0x05,0xb2,0x0b,0x7a,0x06,0x92,0x5c,
0x00,0x01,0x59,0x6e,0x03,0xb2,0x0b,0x7f,0x08,0x92,0x59,0x00,0x01,0x55,0x6e,0x0b,
0x55,0x00,0x01,0x59,0x6e,0x0b,0x59,0x00,0x01,0x5c,0x6e,0x0b,0x5c,0x00,0x01,0x59,
0x6e,0x0b,0x59,0x00,0x01,0x55,0x6e,0x0b,0x55,0x00,0x01,0x59,0x6e,0x0b,0x59,0x00,
0x01,0x5c,0x6e,0x0b,0x5c,0x00,0x01,0x59,0x6e,0x0b,0x59,0x00,0x01,0x55,0x6e,0x0b,
0x55,0x00,0x01,0x59,0x6e,0x08,0xb2,0x0b,0x76,0x03,0x92,0x59,0x00,0x01,0x5c,0x6e,
0x04,0xb2,0x0b,0x68,0x07,0x92,0x5c,0x00,0x01,0x59,0x6e,0x01,0xb2,0x0b,0x5a,0x08,
0x0b,0x4c,0x02,0x92,0x59,0x00,0x01,0x55,0x6e,0x05,0xb2,0x0b,0x42,0x06,0x92,0x55,
0x00,0x01,0x59,0x6e,0x02,0xb2,0x0b,0x3a,0x08,0x0b,0x2e,0x01,0x92,0x59,0x00,0x01,
0x5c,0x6e,0x08,0xb2,0x0b,0x24,0x03,0x92,0x5c,0x00,0x01,0x59,0x6e,0x04,0xb2,0x0b,
0x1a,0x07,0x92,0x59,0x00,0x01,0x55,0x6e,0x01,0xb2,0x0b,0x0e,0x09,0x0b,0x06,0x01,
0x92,0x55,0x00,0x01,0x59,0x6e,0x06,0xb2,0x0b,0x00,0x05,0x92,0x59,0x00,0x01,0x5c,
0x6e,0x0b,0x5c,0x00,0x01,0x59,0x6e,0x0b,0x59,0x00,0x01,0x55,0x6e,0x0b,0x55,0x00,
0x01,0x59,0x6e,0x0b,0x59,0x00,0x01,0x5c,0x6e,0x0b,0x5c,0x00,0x01,0x59,0x6e,0x04,
0xb2,0x0b,0x02,0x07,0x92,0x59,0x00,0x01,0xb2,0x0b,0x10,0x00,0x92,0x55,0x6e,0x08,
0xb2,0x0b,0x1a,0x03,0x92,0x55,0x00,0x01,0x59,0x6e,0x04,0xb2,0x0b,0x24,0x07,0x92,
0x59,0x00,0x01,0x5c,0x6e,0x01,0xb2,0x0b,0x28,0x0a,0x92,0x5c,0x00,0x01,0xb2,0x0b,
0x2e,0x00,0x92,0x59,0x6e,0x07,0xb2,0x0b,0x34,0x04,0x92,0x59,0x00,0x01,0x55,0x6e,
0x04,0xb2,0x0b,0x3c,0x07,0x92,0x55,0x00,0x01,0xb2,0x0b,0x42,0x00,0x92,0x59,0x6e,
0x08,0xb2,0x0b,0x48,0x03,0x92,0x59,0x00,0x01,0x5c,0x6e,0x08,0xb2,0x0b,0x4e,0x03,
0x92,0x5c,0x00,0x01,0x59,0x6e,0x04,0xb2,0x0b,0x54,0x07,0x92,0x59,0x00,0x01,0x55,
0x6e,0x02,0xb2,0x0b,0x56,0x09,0x92,0x55,0x00,0x00,0xb2,0x0b,0x5c,0x01,0x92,0x59,
0x6e,0x09,0xb2,0x0b,0x62,0x02,0x92,0x59,0x00,0x01,0x5c,0x6e,0x05,0xb2,0x0b,0x66,
0x06,0x92,0x5c,0x00,0x01,0x59,0x6e,0x02,0xb2,0x0b,0x6e,0x09,0x92,0x59,0x00,0x00,
0xb2,0x0b,0x78,0x01,0x92,0x55,0x6e,0x06,0xb2,0x0b,0x7f,0x05,0x92,0x55,0x00,0x01,
0x59,0x6e,0x0b,0x59,0x00,0x01,0x5c,0x6e,0x0b,0x5c,0x00,0x01,0x59,0x6e,0x0b,0x59,
0x00,0x01,0x55,0x6e,0x0b,0x55,0x00,0x01,0x59,0x6e,0x0b,0x59,0x00,0x01,0x5c,0x6e,
0x0b,0x5c,0x00,0x01,0x59,0x6e,0x0b,0x59,0x00,0x01,0x55,0x6e,0x05,0xb2,0x0b,0x76,
0x06,0x92,0x55,0x00,0x01,0x59,0x6e,0x02,0xb2,0x0b,0x6c,0x07,0x0b,0x62,0x02,0x92,
0x59,0x00,0x01,0x5c,0x6e,0x05,0xb2,0x0b,0x5a,0x06,0x92,0x5c,0x00,0x01,0x59,0x6e,
0x02,0xb2,0x0b,0x54,0x08,0x0b,0x4a,0x01,0x92,0x59,0x00,0x01,0x55,0x6e,0x06,0xb2,
0x0b,0x42,0x05,0x92,0x55,0x00,0x01,0x59,0x6e,0x03,0xb2,0x0b,0x3c,0x08,0x92,0x59,
0x00,0x01,0x5c,0x6e,0x01,0xb2,0x0b,0x34,0x09,0x0b,0x2e,0x01,0x92,0x5c,0x00,0x01,
0x59,0x6e,0x07,0xb2,0x0b,0x26,0x04,0x92,0x59,0x00,0x01,0x55,0x6e,0x03,0xb2,0x0b,
0x1c,0x08,0x92,0x55,0x00,0x00,0xb2,0x0b,0x14,0x01,0x92,0x59,0x6e,0x08,0xb2,0x0b,
0x0c,0x03,0x92,0x59,0x00,0x01,0x5c,0x6e,0x05,0xb2,0x0b,0x00,0x06,0x92,0x5c,0x00,
0x01,0x59,0x6e,0x0b,0x59,0x00,0x01,0x55,0x6e,0x0b,0x55,0x00,0x01,0x59,0x6e,0x0b,
0x59,0x00,0x01,0x5c,0x6e,0x0b,0x5c,0x00,0x01,0x59,0x6e,0x0b,0x59,0x00,0x01,0x55,
0x6e,0x0b,0x55,0x00,0x00,0xb2,0x0b,0x0c,0x01,0x92,0x59,0x6e,0x07,0xb2,0x0b,0x14,
0x04,0x92,0x59,0x00,0x01,0x5c,0x6e,0x05,0xb2,0x0b,0x18,0x06,0x92,0x5c,0x00,0x01,
0x59,0x6e,0x03,0xb2,0x0b,0x20,0x08,0x92,0x59,0x00,0x00,0xb2,0x0b,0x24,0x01,0x92,
0x55,0x6e,0x06,0xb2,0x0b,0x2a,0x05,0x92,0x55,0x00,0x01,0x59,0x6e,0x02,0xb2,0x0b,
0x2e,0x08,0x0b,0x34,0x01,0x92,0x59,0x00,0x01,0x5c,0x6e,0x06,0xb2,0x0b,0x3a,0x05,
0x92,0x5c,0x00,0x01,0x59,0x6e,0x03,0xb2,0x0b,0x42,0x07,0x0b,0x48,0x01,0x92,0x59,
0x00,0x01,0x55,0x6e,0x09,0xb2,0x0b,0x50,0x02,0x92,0x55,0x00,0x01,0x59,0x6e,0x05,
0xb2,0x0b,0x56,0x06,0x92,0x59,0x00,0x01,0x5c,0x6e,0x03,0xb2,0x0b,0x5a,0x08,0x92,
0x5c,0x00,0x01,0x59,0x6e,0x01,0xb2,0x0b,0x62,0x09,0x0b,0x68,0x01,0x92,0x59,0x00,
0x01,0x55,0x6e,0x07,0xb2,0x0b,0x6e,0x04,0x92,0x55,0x00,0x01,0x59,0x6e,0x03,0xb2,
0x0b,0x74,0x08,0x92,0x59,0x00,0x00,0xb2,0x0b,0x7f,0x01,0x92,0x5c,0x6e,0x0b,0x5c,
0x00,0x01,0x59,0x6e,0x0b,0x59,0x00,0x01,0x55,0x6e,0x0b,0x55,0x00,0x01,0x59,0x6e,
0x0b,0x59,0x00,0x01,0x5c,0x6e,0x0b,0x5c,0x00,0x01,0x59,0x6e,0x03,0xb2,0x0b,0x74,
0x07,0x0b,0x6c,0x01,0x92,0x59,0x00,0x01,0x55,0x6e,0x06,0xb2,0x0b,0x62,0x05,0x92,
0x55,0x00,0x01,0x59,0x6e,0x02,0xb2,0x0b,0x56,0x08,0x0b,0x4c,0x01,0x92,0x59,0x00,
0x01,0x5c,0x6e,0x07,0xb2,0x0b,0x44,0x04,0x92,0x5c,0x00,0x01,0x59,0x6e,0x03,0xb2,
0x0b,0x3e,0x08,0x92,0x59,0x00,0x00,0xb2,0x0b,0x32,0x01,0x92,0x55,0x6e,0x06,0xb2,
0x0b,0x2a,0x05,0x92,0x55,0x00,0x01,0x59,0x6e,0x03,0xb2,0x0b,0x24,0x08,0x92,0x59,
0x00,0x00,0xb2,0x0b,0x1a,0x01,0x92,0x5c,0x6e,0x07,0xb2,0x0b,0x12,0x04,0x92,0x5c,
0x00,0x01,0x59,0x6e,0x03,0xb2,0x0b,0x08,0x08,0x92,0x59,0x00,0x00,0xb2,0x0b,0x00,
0x01,0x92,0x55,0x6e,0x0b,0x55,0x00,0x01,0x59,0x6e,0x0b,0x59,0x00,0x01,0x5c,0x6e,
0x0b,0x5c,0x00,0x01,0x59,0x6e,0x0b,0x59,0x00,0x01,0x55,0x6e,0x0b,0x55,0x00,0x01,
0x59,0x6e,0x0b,0x59,0x00,0x01,0x5c,0x6e,0x0b,0x5c,0x00,0x01,0x59,0x6e,0x05,0xb2,
0x0b,0x06,0x06,0x92,0x59,0x00,0x01,0x55,0x6e,0x01,0xb2,0x0b,0x0e,0x09,0x0b,0x16,
0x01,0x92,0x55,0x00,0x01,0x59,0x6e,0x06,0xb2,0x0b,0x1c,0x05,0x92,0x59,0x00,0x01,
0x5c,0x6e,0x03,0xb2,0x0b,0x22,0x07,0x0b,0x28,0x01,0x92,0x5c,0x00,0x01,0x59,0x6e,
0x07,0xb2,0x0b,0x2c,0x04,0x92,0x59,0x00,0x01,0x55,0x6e,0x04,0xb2,0x0b,0x32,0x07,
0x92,0x55,0x00,0x01,0x59,0x6e,0x00,0xb2,0x0b,0x3a,0x08,0x0b,0x3e,0x03,0x92,0x59,
0x00,0x01,0x5c,0x6e,0x04,0xb2,0x0b,0x44,0x07,0x92,0x5c,0x00,0x01,0xb2,0x0b,0x46,
0x00,0x92,0x59,0x6e,0x08,0xb2,0x0b,0x4c,0x03,0x92,0x59,0x00,0x01,0x55,0x6e,0x06,
0xb2,0x0b,0x54,0x05,0x92,0x55,0x00,0x01,0x59,0x6e,0x02,0xb2,0x0b,0x5a,0x08,0x0b,
0x60,0x01,0x92,0x59,0x00,0x01,0x5c,0x6e,0x07,0xb2,0x0b,0x66,0x04,0x92,0x5c,0x00,
0x01,0x59,0x6e,0x03,0xb2,0x0b,0x70,0x08,0x92,0x59,0x00,0x00,0xb2,0x0b,0x74,0x01,
0x92,0x55,0x6e,0x08,0xb2,0x0b,0x7f,0x03,0x92,0x55,0x00,0x01,0x59,0x6e,0x0b,0x59,
0x00,0x01,0x5c,0x6e,0x0a,0xb2,0x0b,0x7a,0x01,0x92,0x5c,0x00,0x01,0x59,0x6e,0x07,
0xb2,0x0b,0x6c,0x04,0x92,0x59,0x00,0x01,0x55,0x6e,0x03,0xb2,0x0b,0x62,0x08,0x92,
0x55,0x00,0x00,0xb2,0x0b,0x58,0x01,0x92,0x59,0x6e,0x07,0xb2,0x0b,0x4e,0x04,0x92,
0x59,0x00,0x01,0x5c,0x6e,0x03,0xb2,0x0b,0x44,0x08,0x92,0x5c,0x00,0x00,0xb2,0x0b,
0x3e,0x01,0x92,0x59,0x6e,0x08,0xb2,0x0b,0x36,0x03,0x92,0x59,0x00,0x01,0x55,0x6e,
0x04,0xb2,0x0b,0x2e,0x07,0x92,0x55,0x00,0x01,0xb2,0x0b,0x2a,0x00,0x92,0x59,0x6e,
0x08,0xb2,0x0b,0x24,0x03,0x92,0x59,0x00,0x01,0x5c,0x6e,0x03,0xb2,0x0b,0x16,0x08,
0x92,0x5c,0x00,0x00,0xb2,0x0b,0x0a,0x01,0x92,0x59,0x6e,0x07,0xb2,0x0b,0x00,0x04,
0x92,0x59,0x00,0x01,0x55,0x6e,0x0b,0x55,0x00,0x01,0x59,0x6e,0x0b,0x59,0x00,0x01,
0x5c,0x6e,0x0b,0x5c,0x00,0x01,0x59,0x6e,0x0b,0x59,0x00,0x01,0x55,0x6e,0x0b,0x55,
0x00,0x01,0x59,0x6e,0x0b,0x59,0x00,0x01,0x5c,0x6e,0x0b,0x5c,0x00,0x01,0x59,0x6e,
0x0b,0x59,0x00,0x01,0x55,0x6e,0x0b,0x55,0x00,0x01,0x59,0x6e,0x0b,0x59,0x00,0x01,
0x5c,0x6e,0x0b,0x5c,0x00,0x01,0x59,0x6e,0x0b,0x59,0x00,0x01,0x55,0x6e,0x0b,0x55,
0x00,0x01,0x59,0x6e,0x0b,0x59,0x00,0x98,0x01,0xb2,0x0b,0x00,0x00,0x92,0x5c,0x6e,
0x0b,0x5c,0x00,0x01,0x59,0x6e,0x0b,0x59,0x00,0x01,0x55,0x6e,0x0b,0x55,0x00,0x01,
0x59,0x6e,0x09,0xb2,0x0b,0x0e,0x02,0x92,0x59,0x00,0x01,0x5c,0x6e,0x06,0xb2,0x0b,
0x16,0x05,0x92,0x5c,0x00,0x01,0x59,0x6e,0x02,0xb2,0x0b,0x20,0x08,0x0b,0x24,0x01,
0x92,0x59,0x00,0x01,0x55,0x6e,0x07,0xb2,0x0b,0x30,0x04,0x92,0x55,0x00,0x01,0x59,
0x6e,0x03,0xb2,0x0b,0x3c,0x08,0x92,0x59,0x00,0x00,0xb2,0x0b,0x40,0x01,0x92,0x5c,
0x6e,0x09,0xb2,0x0b,0x48,0x02,0x92,0x5c,0x00,0x01,0x59,0x6e,0x07,0xb2,0x0b,0x4e,
0x04,0x92,0x59,0x00,0x01,0x55,0x6e,0x02,0xb2,0x0b,0x52,0x08,0x0b,0x56,0x01,0x92,
0x55,0x00,0x01,0x59,0x6e,0x0a,0xb2,0x0b,0x5a,0x01,0x92,0x59,0x00,0x01,0x5c,0x6e,
0x08,0xb2,0x0b,0x5e,0x03,0x92,0x5c,0x00,0x01,0x59,0x6e,0x06,0xb2,0x0b,0x62,0x05,
0x92,0x59,0x00,0x01,0x55,0x6e,0x03,0xb2,0x0b,0x64,0x07,0x0b,0x6c,0x01,0x92,0x55,
0x00,0x01,0x59,0x6e,0x0a,0xb2,0x0b,0x6e,0x01,0x92,0x59,0x00,0x01,0x5c,0x6e,0x06,
0xb2,0x0b,0x74,0x05,0x92,0x5c,0x00,0x01,0x59,0x6e,0x02,0xb2,0x0b,0x7c,0x09,0x92,
0x59,0x00,0x01,0x55,0x6e,0x0b,0x55,0x00,0x01,0x59,0x6e,0x09,0xb2,0x0b,0x74,0x02,
0x92,0x59,0x00,0x01,0x5c,0x6e,0x09,0xb2,0x0b,0x70,0x02,0x92,0x5c,0x00,0x01,0x59,
0x6e,0x04,0xb2,0x0b,0x6c,0x07,0x92,0x59,0x00,0x01,0x55,0x6e,0x01,0xb2,0x0b,0x62,
0x08,0x0b,0x5a,0x02,0x92,0x55,0x00,0x01,0x59,0x6e,0x05,0xb2,0x0b,0x52,0x06,0x92,
0x59,0x00,0x01,0x5c,0x6e,0x01,0xb2,0x0b,0x4c,0x08,0x0b,0x48,0x02,0x92,0x5c,0x00,
0x01,0x59,0x6e,0x06,0xb2,0x0b,0x40,0x05,0x92,0x59,0x00,0x01,0x55,0x6e,0x04,0xb2,
0x0b,0x3c,0x07,0x92,0x55,0x00,0x00,0xb2,0x0b,0x36,0x01,0x92,0x59,0x6e,0x08,0xb2,
0x0b,0x2c,0x03,0x92,0x59,0x00,0x01,0x5c,0x6e,0x04,0xb2,0x0b,0x24,0x07,0x92,0x5c,
0x00,0x01,0x59,0x6e,0x01,0xb2,0x0b,0x18,0x09,0x0b,0x0a,0x01,0x92,0x59,0x00,0x01,
0x55,0x6e,0x06,0xb2,0x0b,0x00,0x05,0x92,0x55,0x00,0x01,0x59,0x6e,0x0b,0x59,0x00,
0x01,0x5c,0x6e,0x0b,0x5c,0x00,0x01,0x59,0x6e,0x0b,0x59,0x00,0x01,0x55,0x6e,0x0b,
0x55,0x00,0x01,0x59,0x6e,0x0b,0x59,0x00,0x01,0x5c,0x6e,0x02,0xb2,0x0b,0x00,0x08,
0x0b,0x08,0x01,0x92,0x5c,0x00,0x01,0x59,0x6e,0x06,0xb2,0x0b,0x12,0x05,0x92,0x59,
0x00,0x01,0x55,0x6e,0x01,0xb2,0x0b,0x1a,0x08,0x0b,0x1c,0x02,0x92,0x55,0x00,0x01,
0x59,0x6e,0x07,0xb2,0x0b,0x22,0x04,0x92,0x59,0x00,0x01,0x5c,0x6e,0x04,0xb2,0x0b,
0x28,0x07,0x92,0x5c,0x00,0x01,0x59,0x6e,0x01,0xb2,0x0b,0x2c,0x08,0x0b,0x2e,0x02,
0x92,0x59,0x00,0x01,0x55,0x6e,0x05,0xb2,0x0b,0x34,0x06,0x92,0x55,0x00,0x01,0x59,
0x6e,0x01,0xb2,0x0b,0x3a,0x0a,0x92,0x59,0x00,0x01,0x5c,0x6e,0x01,0xb2,0x0b,0x40,
0x0a,0x92,0x5c,0x00,0x00,0xb2,0x0b,0x46,0x01,0x92,0x59,0x6e,0x07,0xb2,0x0b,0x4a,
0x04,0x92,0x59,0x00,0x01,0x55,0x6e,0x04,0xb2,0x0b,0x56,0x07,0x92,0x55,0x00,0x01,
0x59,0x6e,0x00,0xb2,0x0b,0x5a,0x08,0x0b,0x5e,0x03,0x92,0x59,0x00,0x01,0x5c,0x6e,
0x07,0xb2,0x0b,0x62,0x04,0x92,0x5c,0x00,0x01,0x59,0x6e,0x03,0xb2,0x0b,0x6c,0x08,
0x92,0x59,0x00,0x00,0xb2,0x0b,0x76,0x01,0x92,0x55,0x6e,0x06,0xb2,0x0b,0x7a,0x05,
0x92,0x55,0x00,0x01,0x59,0x6e,0x02,0xb2,0x0b,0x7f,0x09,0x92,0x59,0x00,0x01,0x5c,
0x6e,0x0b,0x5c,0x00,0x01,0x59,0x6e,0x0b,0x59,0x00,0x01,0x55,0x6e,0x0b,0x55,0x00,
0x01,0x59,0x6e,0x0b,0x59,0x00,0x01,0x5c,0x6e,0x0b,0x5c,0x00,0x01,0x59,0x6e,0x0b,
0x59,0x00,0x00,0xb2,0x0b,0x7e,0x01,0x92,0x55,0x6e,0x09,0xb2,0x0b,0x76,0x02,0x92,
0x55,0x00,0x01,0x59,0x6e,0x05,0xb2,0x0b,0x6c,0x06,0x92,0x59,0x00,0x01,0x5c,0x6e,
0x02,0xb2,0x0b,0x62,0x08,0x0b,0x5a,0x01,0x92,0x5c,0x00,0x01,0x59,0x6e,0x07,0xb2,
0x0b,0x52,0x04,0x92,0x59,0x00,0x01,0x55,0x6e,0x05,0xb2,0x0b,0x4a,0x06,0x92,0x55,
0x00,0x01,0x59,0x6e,0x02,0xb2,0x0b,0x44,0x08,0x0b,0x3e,0x01,0x92,0x59,0x00,0x01,
0x5c,0x6e,0x06,0xb2,0x0b,0x2e,0x05,0x92,0x5c,0x00,0x01,0x59,0x6e,0x02,0xb2,0x0b,
0x20,0x08,0x0b,0x0c,0x01,0x92,0x59,0x00,0x01,0x55,0x6e,0x07,0xb2,0x0b,0x00,0x04,
0x92,0x55,0x00,0x01,0x59,0x6e,0x0b,0x59,0x00,0x01,0x5c,0x6e,0x0b,0x5c,0x00,0x01,
0x59,0x6e,0x0b,0x59,0x00,0x01,0x55,0x6e,0x0b,0x55,0x00,0x01,0x59,0x6e,0x0b,0x59,
0x00,0x01,0xb2,0x0b,0x00,0x00,0x92,0x5c,0x6e,0x09,0xb2,0x0b,0x0a,0x02,0x92,0x5c,
0x00,0x01,0x59,0x6e,0x09,0xb2,0x0b,0x0c,0x02,0x92,0x59,0x00,0x01,0x55,0x6e,0x05,
0xb2,0x0b,0x12,0x06,0x92,0x55,0x00,0x01,0x59,0x6e,0x02,0xb2,0x0b,0x16,0x07,0x0b,
0x1c,0x02,0x92,0x59,0x00,0x01,0x5c,0x6e,0x05,0xb2,0x0b,0x20,0x06,0x92,0x5c,0x00,
0x01,0x59,0x6e,0x01,0xb2,0x0b,0x24,0x08,0x0b,0x26,0x02,0x92,0x59,0x00,0x01,0x55,
0x6e,0x04,0xb2,0x0b,0x2a,0x07,0x92,0x55,0x00,0x01,0x59,0x6e,0x02,0xb2,0x0b,0x30,
0x08,0x0b,0x34,0x01,0x92,0x59,0x00,0x01,0x5c,0x6e,0x08,0xb2,0x0b,0x3a,0x03,0x92,
0x5c,0x00,0x01,0x59,0x6e,0x05,0xb2,0x0b,0x40,0x06,0x92,0x59,0x00,0x01,0x55,0x6e,
0x02,0xb2,0x0b,0x44,0x07,0x0b,0x48,0x02,0x92,0x55,0x00,0x01,0x59,0x6e,0x07,0xb2,
0x0b,0x50,0x04,0x92,0x59,0x00,0x01,0x5c,0x6e,0x04,0xb2,0x0b,0x56,0x07,0x92,0x5c,
0x00,0x01,0x59,0x6e,0x02,0xb2,0x0b,0x5c,0x08,0x0b,0x62,0x01,0x92,0x59,0x00,0x01,
0x55,0x6e,0x06,0xb2,0x0b,0x68,0x05,0x92,0x55,0x00,0x01,0x59,0x6e,0x02,0xb2,0x0b,
0x6c,0x08,0x0b,0x70,0x01,0x92,0x59,0x00,0x01,0x5c,0x6e,0x08,0xb2,0x0b,0x76,0x03,
0x92,0x5c,0x00,0x01,0x59,0x6e,0x04,0xb2,0x0b,0x7f,0x07,0x92,0x59,0x00,0x01,0x55,
0x6e,0x0b,0x55,0x00,0x01,0x59,0x6e,0x0b,0x59,0x00,0x01,0x5c,0x6e,0x0b,0x5c,0x00,
0x01,0x59,0x6e,0x0b,0x59,0x00,0x01,0x55,0x6e,0x0b,0x55,0x00,0x01,0x59,0x6e,0x09,
0xb2,0x0b,0x78,0x02,0x92,0x59,0x00,0x01,0x5c,0x6e,0x05,0xb2,0x0b,0x6e,0x06,0x92,
0x5c,0x00,0x01,0x59,0x6e,0x01,0xb2,0x0b,0x66,0x08,0x0b,0x56,0x02,0x92,0x59,0x00,
0x01,0x55,0x6e,0x06,0xb2,0x0b,0x48,0x05,0x92,0x55,0x00,0x01,0x59,0x6e,0x02,0xb2,
0x0b,0x3c,0x08,0x0b,0x2e,0x01,0x92,0x59,0x00,0x01,0x5c,0x6e,0x06,0xb2,0x0b,0x20,
0x05,0x92,0x5c,0x00,0x01,0x59,0x6e,0x03,0xb2,0x0b,0x14,0x08,0x92,0x59,0x00,0x00,
0xb2,0x0b,0x0a,0x01,0x92,0x55,0x6e,0x07,0xb2,0x0b,0x00,0x04,0x92,0x55,0x00,0x01,
0x59,0x6e,0x0b,0x59,0x00,0x01,0x5c,0x6e,0x0b,0x5c,0x00,0x01,0x59,0x6e,0x0b,0x59,
0x00,0x01,0x55,0x6e,0x0b,0x55,0x00,0x01,0x59,0x6e,0x0b,0x59,0x00,0x01,0x5c,0x6e,
0x0a,0xb2,0x0b,0x06,0x01,0x92,0x5c,0x00,0x01,0x59,0x6e,0x07,0xb2,0x0b,0x0c,0x04,
0x92,0x59,0x00,0x01,0x55,0x6e,0x03,0xb2,0x0b,0x14,0x08,0x92,0x55,0x00,0x01,0x59,
0x6e,0x02,0xb2,0x0b,0x18,0x07,0x0b,0x22,0x02,0x92,0x59,0x00,0x01,0x5c,0x6e,0x05,
0xb2,0x0b,0x2e,0x06,0x92,0x5c,0x00,0x01,0x59,0x6e,0x01,0xb2,0x0b,0x32,0x0a,0x92,
0x59,0x00,0x01,0x55,0x6e,0x01,0xb2,0x0b,0x3a,0x09,0x0b,0x3e,0x01,0x92,0x55,0x00,
0x01,0x59,0x6e,0x06,0xb2,0x0b,0x48,0x05,0x92,0x59,0x00,0x01,0x5c,0x6e,0x02,0xb2,
0x0b,0x4c,0x08,0x0b,0x54,0x01,0x92,0x5c,0x00,0x01,0x59,0x6e,0x06,0xb2,0x0b,0x5c,
0x05,0x92,0x59,0x00,0x01,0x55,0x6e,0x04,0xb2,0x0b,0x62,0x07,0x92,0x55,0x00,0x01,
0x59,0x6e,0x01,0xb2,0x0b,0x6c,0x08,0x0b,0x74,0x02,0x92,0x59,0x00,0x01,0x5c,0x6e,
0x05,0xb2,0x0b,0x7a,0x06,0x92,0x5c,0x00,0x01,0x59,0x6e,0x03,0xb2,0x0b,0x7f,0x08,
0x92,0x59,0x00,0x01,0x55,0x6e,0x0b,0x55,0x00,0x01,0x59,0x6e,0x0b,0x59,0x00,0x01,
0x5c,0x6e,0x0b,0x5c,0x00,0x01,0x59,0x6e,0x0b,0x59,0x00,0x01,0x55,0x6e,0x0b,0x55,
0x00,0x01,0x59,0x6e,0x0b,0x59,0x00,0x01,0x5c,0x6e,0x0b,0x5c,0x00,0x01,0x59,0x6e,
0x0b,0x59,0x00,0x01,0x55,0x6e,0x0b,0x55,0x00,0x01,0x59,0x6e,0x08,0xb2,0x0b,0x76,
0x03,0x92,0x59,0x00,0x01,0x5c,0x6e,0x04,0xb2,0x0b,0x68,0x07,0x92,0x5c,0x00,0x01,
0x59,0x6e,0x01,0xb2,0x0b,0x5a,0x08,0x0b,0x4c,0x02,0x92,0x59,0x00,0x01,0x55,0x6e,
0x05,0xb2,0x0b,0x42,0x06,0x92,0x55,0x00,0x01,0x59,0x6e,0x02,0xb2,0x0b,0x3a,0x08,
0x0b,0x2e,0x01,0x92,0x59,0x00,0x01,0x5c,0x6e,0x08,0xb2,0x0b,0x24,0x03,0x92,0x5c,
0x00,0x01,0x59,0x6e,0x04,0xb2,0x0b,0x1a,0x07,0x92,0x59,0x00,0x01,0x55,0x6e,0x01,
0xb2,0x0b,0x0e,0x09,0x0b,0x06,0x01,0x92,0x55,0x00,0x01,0x59,0x6e,0x06,0xb2,0x0b,
0x00,0x05,0x92,0x59,0x00,0x01,0x5c,0x6e,0x0b,0x5c,0x00,0x01,0x59,0x6e,0x0b,0x59,
0x00,0x01,0x55,0x6e,0x0b,0x55,0x00,0x01,0x59,0x6e,0x0b,0x59,0x00,0x01,0x5c,0x6e,
0x0b,0x5c,0x00,0x01,0x59,0x6e,0x04,0xb2,0x0b,0x02,0x07,0x92,0x59,0x00,0x01,0xb2,
0x0b,0x10,0x00,0x92,0x55,0x6e,0x08,0xb2,0x0b,0x1a,0x03,0x92,0x55,0x00,0x01,0x59,
0x6e,0x04,0xb2,0x0b,0x24,0x07,0x92,0x59,0x00,0x01,0x5c,0x6e,0x01,0xb2,0x0b,0x28,
0x0a,0x92,0x5c,0x00,0x01,0xb2,0x0b,0x2e,0x00,0x92,0x59,0x6e,0x07,0xb2,0x0b,0x34,
0x04,0x92,0x59,0x00,0x01,0x55,0x6e,0x04,0xb2,0x0b,0x3c,0x07,0x92,0x55,0x00,0x01,
0xb2,0x0b,0x42,0x00,0x92,0x59,0x6e,0x08,0xb2,0x0b,0x48,0x03,0x92,0x59,0x00,0x01,
0x5c,0x6e,0x08,0xb2,0x0b,0x4e,0x03,0x92,0x5c,0x00,0x01,0x59,0x6e,0x04,0xb2,0x0b,
0x54,0x07,0x92,0x59,0x00,0x01,0x55,0x6e,0x02,0xb2,0x0b,0x56,0x09,0x92,0x55,0x00,
0x00,0xb2,0x0b,0x5c,0x01,0x92,0x59,0x6e,0x09,0xb2,0x0b,0x62,0x02,0x92,0x59,0x00,
0x01,0x5c,0x6e,0x05,0xb2,0x0b,0x66,0x06,0x92,0x5c,0x00,0x01,0x59,0x6e,0x02,0xb2,
0x0b,0x6e,0x09,0x92,0x59,0x00,0x00,0xb2,0x0b,0x78,0x01,0x92,0x55,0x6e,0x06,0xb2,
0x0b,0x7f,0x05,0x92,0x55,0x00,0x01,0x59,0x6e,0x0b,0x59,0x00,0x01,0x5c,0x6e,0x0b,
0x5c,0x00,0x01,0x59,0x6e,0x0b,0x59,0x00,0x01,0x55,0x6e,0x0b,0x55,0x00,0x01,0x59,
0x6e,0x0b,0x59,0x00,0x01,0x5c,0x6e,0x0b,0x5c,0x00,0x01,0x59,0x6e,0x0b,0x59,0x00,
0x01,0x55,0x6e,0x05,0xb2,0x0b,0x76,0x06,0x92,0x55,0x00,0x01,0x59,0x6e,0x02,0xb2,
0x0b,0x6c,0x07,0x0b,0x62,0x02,0x92,0x59,0x00,0x01,0x5c,0x6e,0x05,0xb2,0x0b,0x5a,
0x06,0x92,0x5c,0x00,0x01,0x59,0x6e,0x02,0xb2,0x0b,0x54,0x08,0x0b,0x4a,0x01,0x92,
0x59,0x00,0x01,0x55,0x6e,0x06,0xb2,0x0b,0x42,0x05,0x92,0x55,0x00,0x01,0x59,0x6e,
0x03,0xb2,0x0b,0x3c,0x08,0x92,0x59,0x00,0x01,0x5c,0x6e,0x01,0xb2,0x0b,0x34,0x09,
0x0b,0x2e,0x01,0x92,0x5c,0x00,0x01,0x59,0x6e,0x07,0xb2,0x0b,0x26,0x04,0x92,0x59,
0x00,0x01,0x55,0x6e,0x03,0xb2,0x0b,0x1c,0x08,0x92,0x55,0x00,0x00,0xb2,0x0b,0x14,
0x01,0x92,0x59,0x6e,0x08,0xb2,0x0b,0x0c,0x03,0x92,0x59,0x00,0x01,0x5c,0x6e,0x05,
0xb2,0x0b,0x00,0x06,0x92,0x5c,0x00,0x01,0x59,0x6e,0x0b,0x59,0x00,0x01,0x55,0x6e,
0x0b,0x55,0x00,0x01,0x59,0x6e,0x0b,0x59,0x00,0x01,0x5c,0x6e,0x0b,0x5c,0x00,0x01,
0x59,0x6e,0x0b,0x59,0x00,0x01,0x55,0x6e,0x0b,0x55,0x00,0x00,0xb2,0x0b,0x0c,0x01,
0x92,0x59,0x6e,0x07,0xb2,0x0b,0x14,0x04,0x92,0x59,0x00,0x01,0x5c,0x6e,0x05,0xb2,
0x0b,0x18,0x06,0x92,0x5c,0x00,0x01,0x59,0x6e,0x03,0xb2,0x0b,0x20,0x08,0x92,0x59,
0x00,0x00,0xb2,0x0b,0x24,0x01,0x92,0x55,0x6e,0x06,0xb2,0x0b,0x2a,0x05,0x92,0x55,
0x00,0x01,0x59,0x6e,0x02,0xb2,0x0b,0x2e,0x08,0x0b,0x34,0x01,0x92,0x59,0x00,0x01,
0x5c,0x6e,0x06,0xb2,0x0b,0x3a,0x05,0x92,0x5c,0x00,0x01,0x59,0x6e,0x03,0xb2,0x0b,
0x42,0x07,0x0b,0x48,0x01,0x92,0x59,0x00,0x01,0x55,0x6e,0x09,0xb2,0x0b,0x50,0x02,
0x92,0x55,0x00,0x01,0x59,0x6e,0x05,0xb2,0x0b,0x56,0x06,0x92,0x59,0x00,0x01,0x5c,
0x6e,0x03,0xb2,0x0b,0x5a,0x08,0x92,0x5c,0x00,0x01,0x59,0x6e,0x01,0xb2,0x0b,0x62,
0x09,0x0b,0x68,0x01,0x92,0x59,0x00,0x01,0x55,0x6e,0x07,0xb2,0x0b,0x6e,0x04,0x92,
0x55,0x00,0x01,0x59,0x6e,0x03,0xb2,0x0b,0x74,0x08,0x92,0x59,0x00,0x00,0xb2,0x0b,
0x7f,0x01,0x92,0x5c,0x6e,0x0b,0x5c,0x00,0x01,0x59,0x6e,0x0b,0x59,0x00,0x01,0x55,
0x6e,0x0b,0x55,0x00,0x01,0x59,0x6e,0x0b,0x59,0x00,0x01,0x5c,0x6e,0x0b,0x5c,0x00,
0x01,0x59,0x6e,0x03,0xb2,0x0b,0x74,0x07,0x0b,0x6c,0x01,0x92,0x59,0x00,0x01,0x55,
0x6e,0x06,0xb2,0x0b,0x62,0x05,0x92,0x55,0x00,0x01,0x59,0x6e,0x02,0xb2,0x0b,0x56,
0x08,0x0b,0x4c,0x01,0x92,0x59,0x00,0x01,0x5c,0x6e,0x07,0xb2,0x0b,0x44,0x04,0x92,
0x5c,0x00,0x01,0x59,0x6e,0x03,0xb2,0x0b,0x3e,0x08,0x92,0x59,0x00,0x00,0xb2,0x0b,
0x32,0x01,0x92,0x55,0x6e,0x06,0xb2,0x0b,0x2a,0x05,0x92,0x55,0x00,0x01,0x59,0x6e,
0x03,0xb2,0x0b,0x24,0x08,0x92,0x59,0x00,0x00,0xb2,0x0b,0x1a,0x01,0x92,0x5c,0x6e,
0x07,0xb2,0x0b,0x12,0x04,0x92,0x5c,0x00,0x01,0x59,0x6e,0x03,0xb2,0x0b,0x08,0x08,
0x92,0x59,0x00,0x00,0xb2,0x0b,0x00,0x01,0x92,0x55,0x6e,0x0b,0x55,0x00,0x01,0x59,
0x6e,0x0b,0x59,0x00,0x01,0x5c,0x6e,0x0b,0x5c,0x00,0x01,0x59,0x6e,0x0b,0x59,0x00,
0x01,0x55,0x6e,0x0b,0x55,0x00,0x01,0x59,0x6e,0x0b,0x59,0x00,0x01,0x5c,0x6e,0x0b,
0x5c,0x00,0x01,0x59,0x6e,0x05,0xb2,0x0b,0x06,0x06,0x92,0x59,0x00,0x01,0x55,0x6e,
0x01,0xb2,0x0b,0x0e,0x09,0x0b,0x16,0x01,0x92,0x55,0x00,0x01,0x59,0x6e,0x06,0xb2,
0x0b,0x1c,0x05,0x92,0x59,0x00,0x01,0x5c,0x6e,0x03,0xb2,0x0b,0x22,0x07,0x0b,0x28,
0x01,0x92,0x5c,0x00,0x01,0x59,0x6e,0x07,0xb2,0x0b,0x2c,0x04,0x92,0x59,0x00,0x01,
0x55,0x6e,0x04,0xb2,0x0b,0x32,0x07,0x92,0x55,0x00,0x01,0x59,0x6e,0x00,0xb2,0x0b,
0x3a,0x08,0x0b,0x3e,0x03,0x92,0x59,0x00,0x01,0x5c,0x6e,0x04,0xb2,0x0b,0x44,0x07,
0x92,0x5c,0x00,0x01,0xb2,0x0b,0x46,0x00,0x92,0x59,0x6e,0x08,0xb2,0x0b,0x4c,0x03,
0x92,0x59,0x00,0x01,0x55,0x6e,0x06,0xb2,0x0b,0x54,0x05,0x92,0x55,0x00,0x01,0x59,
0x6e,0x02,0xb2,0x0b,0x5a,0x08,0x0b,0x60,0x01,0x92,0x59,0x00,0x01,0x5c,0x6e,0x07,
0xb2,0x0b,0x66,0x04,0x92,0x5c,0x00,0x01,0x59,0x6e,0x03,0xb2,0x0b,0x70,0x08,0x92,
0x59,0x00,0x00,0xb2,0x0b,0x74,0x01,0x92,0x55,0x6e,0x08,0xb2,0x0b,0x7f,0x03,0x92,
0x55,0x00,0x01,0x59,0x6e,0x0b,0x59,0x00,0x01,0x5c,0x6e,0x0a,0xb2,0x0b,0x7a,0x01,
0x92,0x5c,0x00,0x01,0x59,0x6e,0x07,0xb2,0x0b,0x6c,0x04,0x92,0x59,0x00,0x01,0x55,
0x6e,0x03,0xb2,0x0b,0x62,0x08,0x92,0x55,0x00,0x00,0xb2,0x0b,0x58,0x01,0x92,0x59,
0x6e,0x07,0xb2,0x0b,0x4e,0x04,0x92,0x59,0x00,0x01,0x5c,0x6e,0x03,0xb2,0x0b,0x44,
0x08,0x92,0x5c,0x00,0x00,0xb2,0x0b,0x3e,0x01,0x92,0x59,0x6e,0x08,0xb2,0x0b,0x36,
0x03,0x92,0x59,0x00,0x01,0x55,0x6e,0x04,0xb2,0x0b,0x2e,0x07,0x92,0x55,0x00,0x01,
0xb2,0x0b,0x2a,0x00,0x92,0x59,0x6e,0x08,0xb2,0x0b,0x24,0x03,0x92,0x59,0x00,0x01,
0x5c,0x6e,0x03,0xb2,0x0b,0x16,0x08,0x92,0x5c,0x00,0x00,0xb2,0x0b,0x0a,0x01,0x92,
0x59,0x6e,0x07,0xb2,0x0b,0x00,0x04,0x92,0x59,0x00,0x01,0x55,0x6e,0x0b,0x55,0x00,
0x01,0x59,0x6e,0x0b,0x59,0x00,0x01,0x5c,0x6e,0x0b,0x5c,0x00,0x01,0x59,0x6e,0x0b,
0x59,0x00,0x01,0x55,0x6e,0x0b,0x55,0x00,0x01,0x59,0x6e,0x0b,0x59,0x00,0x01,0x5c,
0x6e,0x0b,0x5c,0x00,0x01,0x59,0x6e,0x0b,0x59,0x00,0x01,0x55,0x6e,0x0b,0x55,0x00,
0x01,0x59,0x6e,0x0b,0x59,0x00,0x01,0x5c,0x6e,0x0b,0x5c,0x00,0x01,0x59,0x6e,0x0b,
0x59,0x00,0x01,0x55,0x6e,0x0b,0x55,0x00,0x01,0x59,0x6e,0x0b,0x59,0x00,0x00,0xff,
0x2f,0x00,0x4d,0x54,0x72,0x6b,0x00,0x00,0x0f,0x0c,0x00,0xff,0x21,0x01,0x00,0x00,
0xb4,0x00,0x00,0x00,0x20,0x00,0x00,0xc4,0x30,0x00,0xb4,0x07,0x7f,0x00,0x5b,0x28,
0x00,0x5d,0x00,0x6e,0x65,0x00,0x00,0x64,0x00,0x00,0x06,0x0c,0x00,0x26,0x00,0x9a,
0x12,0x94,0x31,0x1e,0x00,0x38,0x1e,0x00,0x41,0x1e,0x00,0x3d,0x1e,0x84,0x2c,0x38,
0x00,0x11,0x41,0x00,0x02,0x42,0x1e,0x01,0x3a,0x1e,0x81,0x32,0x3a,0x00,0x0d,0x38,
0x1e,0x00,0x41,0x1e,0x07,0x42,0x00,0x85,0x09,0x38,0x00,0x11,0x42,0x1e,0x00,0x3a,
0x1e,0x05,0x41,0x00,0x56,0x42,0x00,0x00,0x31,0x00,0x01,0x3d,0x00,0x00,0x3a,0x00,
0x04,0x31,0x1e,0x00,0x38,0x1e,0x00,0x3d,0x1e,0x00,0x41,0x1e,0x82,0x06,0x38,0x00,
0x17,0x41,0x00,0x02,0x3a,0x1e,0x01,0x42,0x1e,0x5d,0x3a,0x00,0x02,0x38,0x1e,0x00,
0x41,0x1e,0x10,0x42,0x00,0x81,0x77,0x38,0x00,0x19,0x3a,0x1e,0x00,0x42,0x1e,0x04,
0x41,0x00,0x51,0x3a,0x00,0x0b,0x38,0x1e,0x01,0x41,0x1e,0x03,0x42,0x00,0x82,0x05,
0x38,0x00,0x16,0x41,0x00,0x01,0x42,0x1e,0x01,0x3a,0x1e,0x54,0x3a,0x00,0x0b,0x41,
0x1e,0x00,0x38,0x1e,0x08,0x42,0x00,0x81,0x7d,0x38,0x00,0x1c,0x42,0x1e,0x00,0x3a,
0x1e,0x01,0x41,0x00,0x55,0x3a,0x00,0x09,0x38,0x1e,0x01,0x41,0x1e,0x0a,0x42,0x00,
0x82,0x01,0x38,0x00,0x14,0x3a,0x1e,0x01,0x41,0x00,0x00,0x42,0x1e,0x55,0x3a,0x00,
0x0a,0x38,0x1e,0x01,0x41,0x1e,0x0a,0x42,0x00,0x81,0x71,0x38,0x00,0x19,0x41,0x00,
0x0c,0x42,0x1e,0x00,0x3a,0x1e,0x5a,0x3a,0x00,0x05,0x41,0x1e,0x01,0x38,0x1e,0x05,
0x42,0x00,0x82,0x08,0x38,0x00,0x12,0x3a,0x1e,0x01,0x2c,0x1e,0x00,0x42,0x1e,0x06,
0x41,0x00,0x02,0x31,0x00,0x46,0x3a,0x00,0x11,0x31,0x1e,0x00,0x38,0x1e,0x00,0x41,
0x1e,0x03,0x42,0x00,0x01,0x2c,0x00,0x82,0x77,0x38,0x00,0x00,0x31,0x00,0x00,0x41,
0x00,0x02,0x3d,0x00,0x04,0x44,0x31,0x00,0x3c,0x1e,0x00,0x41,0x1e,0x4b,0x3c,0x00,
0x12,0x41,0x00,0x02,0x3d,0x1e,0x00,0x42,0x1e,0x01,0x3a,0x1e,0x45,0x3a,0x00,0x1b,
0x42,0x00,0x00,0x38,0x1e,0x00,0x41,0x1e,0x81,0x22,0x38,0x00,0x19,0x44,0x00,0x01,
0x3d,0x00,0x02,0x41,0x00,0x02,0x3c,0x1e,0x00,0x44,0x31,0x5f,0x3f,0x1e,0x01,0x42,
0x1e,0x45,0x3c,0x00,0x1b,0x41,0x1e,0x00,0x3d,0x1e,0x03,0x42,0x00,0x06,0x3f,0x00,
0x81,0x34,0x3d,0x00,0x03,0x3c,0x1e,0x47,0x3c,0x00,0x17,0x41,0x00,0x01,0x3d,0x1e,
0x00,0x42,0x31,0x00,0x3a,0x1e,0x50,0x3a,0x00,0x10,0x38,0x1e,0x01,0x41,0x31,0x5d,
0x44,0x00,0x02,0x44,0x31,0x02,0x41,0x00,0x5f,0x41,0x31,0x82,0x62,0x38,0x00,0x19,
0x41,0x00,0x01,0x44,0x00,0x03,0x50,0x31,0x01,0x3c,0x1e,0x00,0x44,0x1e,0x01,0x3d,
0x00,0x4f,0x3c,0x00,0x0c,0x42,0x00,0x03,0x3a,0x1e,0x00,0x4e,0x31,0x01,0x3d,0x1e,
0x00,0x42,0x1e,0x0c,0x50,0x00,0x3e,0x3a,0x00,0x16,0x38,0x1e,0x00,0x41,0x31,0x00,
0x4d,0x31,0x01,0x4e,0x00,0x81,0x20,0x38,0x00,0x1b,0x44,0x00,0x03,0x44,0x1e,0x00,
0x50,0x31,0x01,0x41,0x00,0x00,0x3c,0x1e,0x01,0x3d,0x00,0x02,0x4d,0x00,0x59,0x42,
0x00,0x03,0x42,0x1e,0x01,0x3f,0x1e,0x50,0x3c,0x00,0x10,0x3d,0x1e,0x00,0x41,0x1e,
0x07,0x3f,0x00,0x81,0x2c,0x3d,0x00,0x05,0x50,0x00,0x05,0x44,0x00,0x02,0x44,0x31,
0x01,0x3c,0x1e,0x00,0x50,0x31,0x46,0x3c,0x00,0x17,0x42,0x00,0x01,0x41,0x00,0x01,
0x4e,0x31,0x01,0x42,0x31,0x00,0x3d,0x1e,0x00,0x3a,0x1e,0x02,0x50,0x00,0x4c,0x3a,
0x00,0x12,0x38,0x1e,0x00,0x41,0x31,0x00,0x4d,0x31,0x04,0x4e,0x00,0x53,0x41,0x00,
0x05,0x44,0x00,0x04,0x44,0x1e,0x00,0x50,0x31,0x03,0x4d,0x00,0x5c,0x41,0x1e,0x01,
0x49,0x31,0x08,0x50,0x00,0x7a,0xb4,0x07,0x7f,0x20,0x07,0x78,0x09,0x07,0x6c,0x08,
0x07,0x62,0x08,0x07,0x5a,0x07,0x07,0x50,0x08,0x07,0x48,0x08,0x07,0x3e,0x08,0x07,
0x32,0x2d,0x94,0x38,0x00,0x15,0x41,0x00,0x02,0x49,0x00,0x01,0x42,0x00,0x00,0x3d,
0x00,0x01,0x3a,0x1e,0x00,0x42,0x1e,0x5b,0x3a,0x00,0x05,0x31,0x1e,0x00,0x38,0x1e,
0x00,0x3d,0x1e,0x00,0x41,0x1e,0x82,0x06,0x38,0x00,0x15,0x42,0x00,0x02,0x41,0x00,
0x02,0x3a,0x1e,0x01,0x42,0x1e,0x5d,0x3a,0x00,0x02,0x38,0x1e,0x00,0x41,0x1e,0x82,
0x07,0x38,0x00,0x11,0x42,0x00,0x08,0x3a,0x1e,0x00,0x42,0x1e,0x04,0x41,0x00,0x51,
0x3a,0x00,0x0b,0x38,0x1e,0x01,0x41,0x1e,0x82,0x08,0x38,0x00,0x11,0x42,0x00,0x05,
0x41,0x00,0x01,0x42,0x1e,0x01,0x3a,0x1e,0x54,0x3a,0x00,0x0b,0x41,0x1e,0x00,0x38,
0x1e,0x82,0x05,0x38,0x00,0x10,0x42,0x00,0x0c,0x42,0x1e,0x00,0x3a,0x1e,0x01,0x41,
0x00,0x55,0x3a,0x00,0x09,0x38,0x1e,0x00,0x59,0x31,0x01,0x41,0x1e,0x39,0xb4,0x07,
0x40,0x08,0x07,0x4c,0x0a,0x07,0x54,0x0a,0x07,0x58,0x08,0x07,0x60,0x08,0x07,0x68,
0x0a,0x07,0x6c,0x08,0x07,0x72,0x08,0x07,0x76,0x08,0x07,0x7e,0x08,0x07,0x7f,0x09,
0x07,0x7f,0x08,0x07,0x7f,0x0d,0x07,0x7f,0x08,0x07,0x7f,0x08,0x07,0x7f,0x07,0x07,
0x7f,0x09,0x07,0x7f,0x08,0x07,0x7f,0x36,0x94,0x38,0x00,0x0b,0x42,0x00,0x09,0x59,
0x00,0x00,0x3a,0x1e,0x00,0x55,0x31,0x01,0x41,0x00,0x00,0x42,0x1e,0x55,0x3a,0x00,
0x0a,0x38,0x1e,0x01,0x55,0x00,0x00,0x41,0x1e,0x00,0x50,0x31,0x81,0x7b,0x38,0x00,
0x19,0x41,0x00,0x06,0x42,0x00,0x05,0x50,0x00,0x00,0x52,0x31,0x01,0x42,0x1e,0x00,
0x3a,0x1e,0x5a,0x3a,0x00,0x04,0x52,0x00,0x01,0x41,0x1e,0x00,0x50,0x31,0x01,0x38,
0x1e,0x82,0x0d,0x38,0x00,0x0f,0x42,0x00,0x03,0x3a,0x1e,0x01,0x2c,0x1e,0x00,0x42,
0x1e,0x06,0x41,0x00,0x02,0x31,0x00,0x46,0x3a,0x00,0x11,0x31,0x1e,0x00,0x38,0x1e,
0x00,0x41,0x1e,0x01,0x50,0x00,0x00,0x49,0x31,0x03,0x2c,0x00,0x81,0x2e,0xb4,0x07,
0x7f,0x09,0x07,0x7f,0x08,0x07,0x7f,0x08,0x07,0x7f,0x0a,0x07,0x7f,0x1c,0x94,0x49,
0x00,0x00,0xb4,0x07,0x7f,0x00,0x94,0x55,0x31,0x2f,0x55,0x00,0x00,0x54,0x31,0x20,
0x54,0x00,0x00,0x52,0x31,0x20,0x52,0x00,0x01,0x50,0x31,0x17,0x44,0x00,0x03,0x31,
0x00,0x00,0x38,0x00,0x00,0x41,0x00,0x00,0x50,0x00,0x02,0x3d,0x00,0x04,0x44,0x1e,
0x00,0x50,0x31,0x00,0x3c,0x1e,0x00,0x41,0x1e,0x4b,0x3c,0x00,0x06,0x42,0x00,0x0e,
0x3d,0x1e,0x00,0x42,0x1e,0x01,0x50,0x00,0x00,0x3a,0x1e,0x00,0x4e,0x31,0x07,0x41,
0x00,0x3e,0x3a,0x00,0x19,0x4e,0x00,0x01,0x4d,0x31,0x01,0x38,0x1e,0x00,0x41,0x1e,
0x81,0x22,0x38,0x00,0x1e,0x4d,0x00,0x00,0x3c,0x1e,0x00,0x50,0x31,0x06,0x3d,0x00,
0x3b,0x41,0x00,0x18,0x42,0x00,0x06,0x3f,0x1e,0x01,0x42,0x1e,0x45,0x3c,0x00,0x1b,
0x41,0x1e,0x00,0x3d,0x1e,0x09,0x3f,0x00,0x36,0x50,0x00,0x01,0x55,0x31,0x1b,0x55,
0x00,0x05,0x55,0x31,0x1f,0x55,0x00,0x01,0x57,0x31,0x1f,0x57,0x00,0x01,0x59,0x31,
0x1d,0x3d,0x00,0x02,0x59,0x00,0x01,0x3c,0x1e,0x00,0x5c,0x31,0x47,0x3c,0x00,0x15,
0x42,0x00,0x02,0x5c,0x00,0x00,0x41,0x00,0x01,0x3d,0x1e,0x00,0x42,0x1e,0x00,0x5a,
0x31,0x00,0x3a,0x1e,0x01,0x44,0x00,0x4f,0x3a,0x00,0x10,0x5a,0x00,0x00,0x38,0x1e,
0x01,0x59,0x31,0x5f,0x44,0x1e,0x01,0x59,0x00,0x00,0x5c,0x31,0x5f,0x41,0x1e,0x01,
0x5c,0x00,0x00,0x55,0x31,0x81,0x69,0x55,0x00,0x06,0x55,0x31,0x30,0x55,0x00,0x01,
0x54,0x31,0x1f,0x54,0x00,0x00,0x52,0x31,0x20,0x52,0x00,0x00,0x50,0x31,0x03,0x38,
0x00,0x17,0x44,0x00,0x06,0x50,0x00,0x01,0x3c,0x1e,0x00,0x54,0x31,0x00,0x44,0x1e,
0x06,0x3d,0x00,0x44,0x41,0x00,0x06,0x3c,0x00,0x0c,0x42,0x00,0x03,0x3a,0x1e,0x01,
0x54,0x00,0x00,0x3d,0x1e,0x00,0x42,0x1e,0x00,0x52,0x31,0x4a,0x3a,0x00,0x15,0x52,
0x00,0x00,0x41,0x1e,0x01,0x38,0x1e,0x00,0x50,0x31,0x47,0x50,0x00,0x01,0x55,0x31,
0x17,0x55,0x00,0x01,0x55,0x31,0x20,0x55,0x00,0x00,0x57,0x31,0x20,0x57,0x00,0x00,
0x59,0x31,0x01,0x38,0x00,0x1c,0x44,0x00,0x02,0x59,0x00,0x00,0x44,0x1e,0x00,0x5c,
0x31,0x01,0x3c,0x1e,0x01,0x3d,0x00,0x45,0x41,0x00,0x13,0x42,0x00,0x06,0x42,0x1e,
0x01,0x3f,0x1e,0x50,0x3c,0x00,0x10,0x3d,0x1e,0x00,0x41,0x1e,0x07,0x3f,0x00,0x3f,
0x5c,0x00,0x01,0x55,0x31,0x18,0x55,0x00,0x01,0x54,0x31,0x1e,0x54,0x00,0x01,0x52,
0x31,0x1f,0x52,0x00,0x01,0x50,0x31,0x14,0x3d,0x00,0x0c,0x50,0x00,0x00,0x54,0x31,
0x01,0x3c,0x1e,0x3f,0x54,0x00,0x00,0x50,0x31,0x07,0x3c,0x00,0x0d,0x42,0x00,0x0b,
0x50,0x00,0x00,0x41,0x00,0x01,0x52,0x31,0x00,0x42,0x1e,0x01,0x3d,0x1e,0x00,0x3a,
0x1e,0x40,0x52,0x00,0x00,0x4e,0x31,0x0e,0x3a,0x00,0x11,0x41,0x1e,0x01,0x4e,0x00,
0x00,0x38,0x1e,0x00,0x50,0x31,0x3e,0x50,0x00,0x01,0x4d,0x31,0x18,0x41,0x00,0x06,
0x44,0x00,0x02,0x4d,0x00,0x00,0x4e,0x31,0x01,0x44,0x1e,0x1f,0x4e,0x00,0x01,0x4d,
0x31,0x20,0x4d,0x00,0x00,0x49,0x31,0x1b,0x49,0x00,0x04,0x49,0x31,0x00,0x41,0x1e,
0x82,0x08,0x38,0x00,0x12,0x42,0x00,0x03,0x41,0x00,0x04,0x3a,0x1e,0x00,0x42,0x1e,
0x20,0x44,0x00,0x3a,0x49,0x00,0x01,0x3d,0x00,0x00,0x3a,0x00,0x05,0x31,0x1e,0x00,
0x38,0x1e,0x00,0x3d,0x1e,0x00,0x41,0x1e,0x00,0x55,0x31,0x0c,0x55,0x00,0x00,0x57,
0x31,0x0c,0x57,0x00,0x00,0x55,0x31,0x0a,0x55,0x00,0x01,0x57,0x31,0x0c,0x57,0x00,
0x00,0x55,0x31,0x0b,0x55,0x00,0x01,0x57,0x31,0x0c,0x57,0x00,0x00,0x55,0x31,0x0c,
0x55,0x00,0x01,0x57,0x31,0x0a,0x57,0x00,0x01,0x55,0x31,0x0c,0x55,0x00,0x01,0x57,
0x31,0x0b,0x57,0x00,0x01,0x55,0x31,0x0a,0x55,0x00,0x01,0x57,0x31,0x0c,0x57,0x00,
0x00,0x55,0x31,0x0d,0x55,0x00,0x00,0x57,0x31,0x0c,0x57,0x00,0x00,0x55,0x31,0x0b,
0x55,0x00,0x00,0x57,0x31,0x0c,0x57,0x00,0x01,0x55,0x31,0x0b,0x55,0x00,0x00,0x57,
0x31,0x0d,0x57,0x00,0x00,0x55,0x31,0x0b,0x55,0x00,0x00,0x57,0x31,0x0b,0x57,0x00,
0x01,0x55,0x31,0x0c,0x55,0x00,0x00,0x57,0x31,0x0b,0x38,0x00,0x01,0x57,0x00,0x01,
0x55,0x31,0x0c,0x55,0x00,0x00,0x57,0x31,0x03,0x42,0x00,0x06,0x41,0x00,0x02,0x3a,
0x1e,0x01,0x57,0x00,0x00,0x42,0x1e,0x00,0x55,0x31,0x0b,0x55,0x00,0x00,0x57,0x31,
0x0d,0x57,0x00,0x00,0x55,0x31,0x0b,0x55,0x00,0x00,0x57,0x31,0x0d,0x57,0x00,0x00,
0x55,0x31,0x0b,0x55,0x00,0x00,0x57,0x31,0x0d,0x57,0x00,0x00,0x55,0x31,0x0b,0x55,
0x00,0x00,0x57,0x31,0x0a,0x3a,0x00,0x02,0x57,0x00,0x00,0x38,0x1e,0x00,0x41,0x1e,
0x00,0x55,0x31,0x0d,0x55,0x00,0x00,0x57,0x31,0x0b,0x57,0x00,0x01,0x55,0x31,0x0b,
0x55,0x00,0x01,0x57,0x31,0x0c,0x57,0x00,0x00,0x55,0x31,0x0a,0x55,0x00,0x01,0x57,
0x31,0x0c,0x57,0x00,0x01,0x55,0x31,0x0a,0x55,0x00,0x01,0x57,0x31,0x0c,0x57,0x00,
0x01,0x55,0x31,0x0b,0x55,0x00,0x01,0x57,0x31,0x0b,0x57,0x00,0x00,0x55,0x31,0x0b,
0x55,0x00,0x01,0x57,0x31,0x0b,0x57,0x00,0x01,0x55,0x31,0x0b,0x55,0x00,0x01,0x57,
0x31,0x0c,0x57,0x00,0x00,0x55,0x31,0x0d,0x55,0x00,0x00,0x57,0x31,0x0b,0x57,0x00,
0x00,0x55,0x31,0x0b,0x55,0x00,0x01,0x57,0x31,0x0d,0x57,0x00,0x00,0x55,0x31,0x0a,
0x55,0x00,0x01,0x57,0x31,0x0b,0x57,0x00,0x01,0x55,0x31,0x0c,0x55,0x00,0x00,0x57,
0x31,0x0b,0x57,0x00,0x00,0x38,0x00,0x01,0x55,0x31,0x0c,0x55,0x00,0x01,0x57,0x31,
0x07,0x42,0x00,0x04,0x57,0x00,0x00,0x3a,0x1e,0x00,0x42,0x1e,0x01,0x55,0x31,0x03,
0x41,0x00,0x09,0x55,0x00,0x00,0x57,0x31,0x0b,0x57,0x00,0x01,0x55,0x31,0x0a,0x55,
0x00,0x01,0x57,0x31,0x0c,0x57,0x00,0x00,0x55,0x31,0x0c,0x55,0x00,0x00,0x57,0x31,
0x0d,0x57,0x00,0x00,0x55,0x31,0x0a,0x55,0x00,0x01,0x57,0x31,0x01,0x3a,0x00,0x0b,
0x57,0x00,0x00,0x38,0x1e,0x01,0x55,0x31,0x00,0x41,0x1e,0x0a,0x55,0x00,0x01,0x57,
0x31,0x0c,0x57,0x00,0x01,0x55,0x31,0x0a,0x55,0x00,0x01,0x57,0x31,0x0c,0x57,0x00,
0x01,0x55,0x31,0x0a,0x55,0x00,0x01,0x57,0x31,0x0b,0x57,0x00,0x01,0x55,0x31,0x0c,
0x55,0x00,0x01,0x57,0x31,0x0a,0x57,0x00,0x01,0x55,0x31,0x0b,0x55,0x00,0x01,0x57,
0x31,0x0c,0x57,0x00,0x01,0x55,0x31,0x0b,0x55,0x00,0x00,0x57,0x31,0x0b,0x57,0x00,
0x01,0x55,0x31,0x0c,0x55,0x00,0x00,0x57,0x31,0x0b,0x57,0x00,0x01,0x55,0x31,0x0c,
0x55,0x00,0x01,0x57,0x31,0x0c,0x57,0x00,0x00,0x55,0x31,0x0a,0x55,0x00,0x01,0x57,
0x31,0x0d,0x57,0x00,0x00,0x55,0x31,0x0b,0x55,0x00,0x00,0x57,0x31,0x0d,0x57,0x00,
0x00,0x55,0x31,0x0b,0x55,0x00,0x01,0x57,0x31,0x0b,0x57,0x00,0x01,0x38,0x00,0x00,
0x55,0x31,0x09,0x42,0x00,0x03,0x55,0x00,0x00,0x57,0x31,0x0a,0x57,0x00,0x00,0x41,
0x00,0x01,0x55,0x31,0x00,0x42,0x1e,0x01,0x3a,0x1e,0x0b,0x55,0x00,0x00,0x57,0x31,
0x0c,0x57,0x00,0x00,0x55,0x31,0x0c,0x55,0x00,0x00,0x57,0x31,0x0d,0x57,0x00,0x00,
0x55,0x31,0x0b,0x55,0x00,0x01,0x57,0x31,0x0a,0x57,0x00,0x01,0x55,0x31,0x0b,0x55,
0x00,0x01,0x57,0x31,0x01,0x3a,0x00,0x0a,0x57,0x00,0x01,0x41,0x1e,0x00,0x55,0x31,
0x00,0x38,0x1e,0x0b,0x55,0x00,0x01,0x57,0x31,0x0d,0x57,0x00,0x00,0x55,0x31,0x0b,
0x55,0x00,0x01,0x57,0x31,0x0c,0x57,0x00,0x00,0x55,0x31,0x0c,0x55,0x00,0x00,0x57,
0x31,0x0b,0x57,0x00,0x00,0x55,0x31,0x0c,0x55,0x00,0x01,0x57,0x31,0x0b,0x57,0x00,
0x00,0x55,0x31,0x0d,0x55,0x00,0x00,0x57,0x31,0x0c,0x57,0x00,0x00,0x55,0x31,0x0b,
0x55,0x00,0x01,0x57,0x31,0x0c,0x57,0x00,0x00,0x55,0x31,0x0b,0x55,0x00,0x01,0x57,
0x31,0x0b,0x57,0x00,0x01,0x55,0x31,0x0b,0x55,0x00,0x00,0x57,0x31,0x0b,0x57,0x00,
0x01,0x55,0x31,0x0d,0x55,0x00,0x00,0x57,0x31,0x0c,0x57,0x00,0x00,0x55,0x31,0x0b,
0x55,0x00,0x01,0x57,0x31,0x0c,0x57,0x00,0x00,0x55,0x31,0x0a,0x55,0x00,0x01,0x57,
0x31,0x09,0x38,0x00,0x02,0x57,0x00,0x01,0x55,0x31,0x0d,0x55,0x00,0x00,0x57,0x31,
0x02,0x42,0x00,0x09,0x57,0x00,0x00,0x55,0x31,0x01,0x42,0x1e,0x00,0x3a,0x1e,0x01,
0x41,0x00,0x0b,0x55,0x00,0x00,0x57,0x31,0x0b,0x57,0x00,0x01,0x55,0x31,0x0b,0x55,
0x00,0x01,0x57,0x31,0x0b,0x57,0x00,0x01,0x55,0x31,0x0a,0x55,0x00,0x01,0x57,0x31,
0x0b,0x57,0x00,0x01,0x55,0x31,0x0c,0x55,0x00,0x01,0x57,0x31,0x02,0x3a,0x00,0x09,
0x57,0x00,0x00,0x38,0x1e,0x01,0x41,0x1e,0x00,0x55,0x31,0x0b,0x55,0x00,0x01,0x57,
0x31,0x0c,0x57,0x00,0x00,0x55,0x31,0x0b,0x55,0x00,0x01,0x57,0x31,0x0c,0x57,0x00,
0x00,0x55,0x31,0x0a,0x55,0x00,0x01,0x57,0x31,0x0d,0x57,0x00,0x00,0x55,0x31,0x0b,
0x55,0x00,0x00,0x57,0x31,0x0c,0x57,0x00,0x01,0x55,0x31,0x0a,0x55,0x00,0x01,0x57,
0x31,0x0d,0x57,0x00,0x00,0x55,0x31,0x0b,0x55,0x00,0x00,0x57,0x31,0x0d,0x57,0x00,
0x00,0x55,0x31,0x0c,0x55,0x00,0x00,0x57,0x31,0x0a,0x57,0x00,0x01,0x55,0x31,0x0d,
0x55,0x00,0x00,0x57,0x31,0x0a,0x57,0x00,0x01,0x55,0x31,0x0d,0x55,0x00,0x00,0x57,
0x31,0x0c,0x57,0x00,0x00,0x55,0x31,0x0b,0x55,0x00,0x01,0x57,0x31,0x0b,0x57,0x00,
0x00,0x55,0x31,0x0c,0x55,0x00,0x00,0x57,0x31,0x0c,0x57,0x00,0x01,0x55,0x31,0x03,
0x38,0x00,0x08,0x55,0x00,0x01,0x57,0x31,0x02,0x42,0x00,0x09,0x3a,0x1e,0x01,0x41,
0x00,0x00,0x57,0x00,0x00,0x42,0x1e,0x00,0x55,0x31,0x0a,0x55,0x00,0x01,0x57,0x31,
0x0c,0x57,0x00,0x01,0x55,0x31,0x0c,0x55,0x00,0x00,0x57,0x31,0x0b,0x57,0x00,0x00,
0x55,0x31,0x0c,0x55,0x00,0x00,0x57,0x31,0x0c,0x57,0x00,0x00,0x55,0x31,0x0c,0x55,
0x00,0x01,0x57,0x31,0x01,0x3a,0x00,0x09,0x57,0x00,0x01,0x55,0x31,0x00,0x38,0x1e,
0x01,0x41,0x1e,0x0b,0x55,0x00,0x01,0x57,0x31,0x0c,0x57,0x00,0x00,0x55,0x31,0x0c,
0x55,0x00,0x00,0x57,0x31,0x0b,0x57,0x00,0x00,0x55,0x31,0x0c,0x55,0x00,0x01,0x57,
0x31,0x0c,0x57,0x00,0x00,0x55,0x31,0x0a,0x55,0x00,0x01,0x57,0x31,0x0c,0x57,0x00,
0x01,0x55,0x31,0x0c,0x55,0x00,0x00,0x57,0x31,0x0b,0x57,0x00,0x01,0x55,0x31,0x0c,
0x55,0x00,0x00,0x57,0x31,0x0a,0x57,0x00,0x01,0x55,0x31,0x0c,0x55,0x00,0x01,0x57,
0x31,0x0b,0x57,0x00,0x00,0x55,0x31,0x0d,0x55,0x00,0x00,0x57,0x31,0x0b,0x57,0x00,
0x01,0x55,0x31,0x0c,0x55,0x00,0x00,0x57,0x31,0x0c,0x57,0x00,0x00,0x55,0x31,0x0b,
0x55,0x00,0x01,0x57,0x31,0x0b,0x57,0x00,0x00,0x55,0x31,0x0b,0x55,0x00,0x01,0x38,
0x00,0x00,0x57,0x31,0x0d,0x57,0x00,0x00,0x55,0x31,0x0a,0x55,0x00,0x01,0x57,0x31,
0x01,0x42,0x00,0x00,0x41,0x00,0x0a,0x57,0x00,0x01,0x55,0x31,0x01,0x42,0x1e,0x00,
0x3a,0x1e,0x0b,0x55,0x00,0x00,0x57,0x31,0x0c,0x57,0x00,0x00,0x55,0x31,0x0b,0x55,
0x00,0x01,0x57,0x31,0x0b,0x57,0x00,0x01,0x55,0x31,0x0d,0x55,0x00,0x00,0x57,0x31,
0x0c,0x57,0x00,0x00,0x55,0x31,0x0b,0x55,0x00,0x00,0x57,0x31,0x07,0x3a,0x00,0x04,
0x57,0x00,0x01,0x41,0x1e,0x00,0x55,0x31,0x01,0x38,0x1e,0x0b,0x55,0x00,0x00,0x57,
0x31,0x0c,0x57,0x00,0x01,0x55,0x31,0x0a,0x55,0x00,0x01,0x57,0x31,0x0d,0x57,0x00,
0x00,0x55,0x31,0x0c,0x55,0x00,0x00,0x57,0x31,0x0a,0x57,0x00,0x01,0x55,0x31,0x0d,
0x55,0x00,0x00,0x57,0x31,0x0b,0x57,0x00,0x00,0x55,0x31,0x0d,0x55,0x00,0x00,0x57,
0x31,0x0c,0x57,0x00,0x00,0x55,0x31,0x0c,0x55,0x00,0x00,0x57,0x31,0x0b,0x57,0x00,
0x00,0x55,0x31,0x0d,0x55,0x00,0x00,0x57,0x31,0x0b,0x57,0x00,0x00,0x55,0x31,0x0d,
0x55,0x00,0x00,0x57,0x31,0x0a,0x57,0x00,0x01,0x55,0x31,0x0d,0x55,0x00,0x00,0x57,
0x31,0x0b,0x57,0x00,0x00,0x55,0x31,0x0b,0x55,0x00,0x01,0x57,0x31,0x0c,0x57,0x00,
0x01,0x55,0x31,0x0a,0x55,0x00,0x01,0x57,0x31,0x0c,0x57,0x00,0x01,0x55,0x31,0x05,
0x38,0x00,0x05,0x55,0x00,0x01,0x57,0x31,0x06,0x42,0x00,0x06,0x57,0x00,0x00,0x3a,
0x1e,0x01,0x2c,0x1e,0x00,0x55,0x31,0x00,0x42,0x1e,0x06,0x41,0x00,0x02,0x31,0x00,
0x04,0x55,0x00,0x00,0x57,0x31,0x0b,0x57,0x00,0x01,0x55,0x31,0x0c,0x55,0x00,0x00,
0x57,0x31,0x0b,0x57,0x00,0x01,0x55,0x31,0x0b,0x55,0x00,0x01,0x57,0x31,0x0b,0x57,
0x00,0x01,0x55,0x31,0x06,0x3a,0x00,0x06,0x55,0x00,0x00,0x57,0x31,0x0b,0x57,0x00,
0x00,0x31,0x1e,0x00,0x38,0x1e,0x00,0x41,0x1e,0x00,0x55,0x31,0x04,0x2c,0x00,0x09,
0x55,0x00,0x00,0x57,0x31,0x0a,0x57,0x00,0x01,0x55,0x31,0x0c,0x55,0x00,0x00,0x57,
0x31,0x0c,0x57,0x00,0x00,0x55,0x31,0x0d,0x55,0x00,0x00,0x57,0x31,0x0b,0x57,0x00,
0x00,0x55,0x31,0x0d,0x55,0x00,0x00,0x57,0x31,0x0b,0x57,0x00,0x01,0x55,0x31,0x0b,
0x55,0x00,0x01,0x57,0x31,0x0b,0x57,0x00,0x00,0x55,0x31,0x0d,0x55,0x00,0x00,0x57,
0x31,0x0c,0x57,0x00,0x00,0x55,0x31,0x0b,0x55,0x00,0x01,0x57,0x31,0x0a,0x57,0x00,
0x01,0x55,0x31,0x0d,0x55,0x00,0x00,0x57,0x31,0x0b,0x57,0x00,0x01,0x55,0x31,0x0b,
0x55,0x00,0x00,0x57,0x31,0x0d,0x57,0x00,0x00,0x55,0x31,0x0a,0x55,0x00,0x01,0x57,
0x31,0x0d,0x57,0x00,0x00,0x55,0x31,0x0a,0x55,0x00,0x01,0x57,0x31,0x0c,0x57,0x00,
0x00,0x55,0x31,0x0b,0x55,0x00,0x01,0x57,0x31,0x0c,0x57,0x00,0x01,0x55,0x31,0x0c,
0x55,0x00,0x00,0x57,0x31,0x0b,0x57,0x00,0x00,0x55,0x31,0x0b,0x55,0x00,0x01,0x57,
0x31,0x0c,0x57,0x00,0x00,0x55,0x31,0x0b,0x55,0x00,0x01,0x57,0x31,0x0c,0x57,0x00,
0x01,0x55,0x31,0x0c,0x55,0x00,0x00,0x57,0x31,0x0c,0x57,0x00,0x00,0x55,0x31,0x0b,
0x55,0x00,0x01,0x57,0x31,0x0b,0x57,0x00,0x01,0x55,0x31,0x0b,0x55,0x00,0x00,0x57,
0x31,0x0d,0x57,0x00,0x00,0x55,0x31,0x0c,0x55,0x00,0x00,0x57,0x31,0x0a,0x57,0x00,
0x01,0x55,0x31,0x0b,0x55,0x00,0x01,0x57,0x31,0x0c,0x57,0x00,0x01,0x55,0x31,0x0b,
0x55,0x00,0x01,0x57,0x31,0x0b,0x57,0x00,0x01,0x55,0x31,0x0a,0x55,0x00,0x01,0x57,
0x31,0x0c,0x57,0x00,0x00,0x55,0x31,0x0c,0x55,0x00,0x00,0x57,0x31,0x0c,0x57,0x00,
0x01,0x55,0x31,0x0a,0x55,0x00,0x01,0x57,0x31,0x0d,0x57,0x00,0x00,0x55,0x31,0x0c,
0x55,0x00,0x00,0x57,0x31,0x0a,0x57,0x00,0x01,0x55,0x31,0x0d,0x55,0x00,0x00,0x57,
0x31,0x0b,0x57,0x00,0x01,0x55,0x31,0x0b,0x55,0x00,0x00,0x57,0x31,0x0c,0x57,0x00,
0x01,0x55,0x31,0x0c,0x55,0x00,0x00,0x57,0x31,0x0c,0x57,0x00,0x00,0x55,0x31,0x0a,
0x55,0x00,0x01,0x57,0x31,0x0c,0x57,0x00,0x00,0x55,0x31,0x0b,0x55,0x00,0x01,0x57,
0x31,0x0c,0x57,0x00,0x00,0x55,0x31,0x0d,0x55,0x00,0x00,0x57,0x31,0x0b,0x57,0x00,
0x01,0x55,0x31,0x0c,0x55,0x00,0x00,0x57,0x31,0x0b,0x57,0x00,0x00,0x55,0x31,0x0c,
0x55,0x00,0x00,0x57,0x31,0x0c,0x57,0x00,0x01,0x55,0x31,0x0c,0x55,0x00,0x00,0x57,
0x31,0x0b,0x57,0x00,0x00,0x55,0x31,0x0d,0x55,0x00,0x00,0x57,0x31,0x0b,0x57,0x00,
0x01,0x55,0x31,0x0a,0x55,0x00,0x01,0x57,0x31,0x0d,0x57,0x00,0x00,0x55,0x31,0x0a,
0x55,0x00,0x01,0x57,0x31,0x0c,0x57,0x00,0x00,0x55,0x31,0x0c,0x55,0x00,0x01,0x57,
0x31,0x0a,0x57,0x00,0x01,0x55,0x31,0x0b,0x55,0x00,0x01,0x57,0x31,0x0c,0x57,0x00,
0x01,0x55,0x31,0x0b,0x55,0x00,0x01,0x57,0x31,0x0a,0x57,0x00,0x01,0x55,0x31,0x0c,
0x55,0x00,0x00,0x57,0x31,0x0d,0x57,0x00,0x00,0x55,0x31,0x0b,0x55,0x00,0x00,0x57,
0x31,0x0c,0x57,0x00,0x00,0x55,0x31,0x0b,0x55,0x00,0x01,0x57,0x31,0x0c,0x57,0x00,
0x00,0x55,0x31,0x0c,0x55,0x00,0x00,0x57,0x31,0x0c,0x57,0x00,0x00,0x55,0x31,0x0c,
0x55,0x00,0x00,0x57,0x31,0x0b,0x57,0x00,0x01,0x55,0x31,0x0d,0x55,0x00,0x00,0x57,
0x31,0x0b,0x57,0x00,0x01,0x55,0x31,0x0a,0x55,0x00,0x01,0x57,0x31,0x0d,0x57,0x00,
0x00,0x55,0x31,0x0b,0x55,0x00,0x01,0x57,0x31,0x0a,0x57,0x00,0x01,0x55,0x31,0x0d,
0x55,0x00,0x00,0x57,0x31,0x0a,0x57,0x00,0x01,0x55,0x31,0x0d,0x55,0x00,0x00,0x57,
0x31,0x0b,0x57,0x00,0x00,0x55,0x31,0x0c,0x55,0x00,0x00,0x57,0x31,0x0c,0x57,0x00,
0x00,0x55,0x31,0x0d,0x55,0x00,0x00,0x57,0x31,0x0c,0x57,0x00,0x00,0x55,0x31,0x0b,
0x55,0x00,0x00,0x57,0x31,0x0b,0x57,0x00,0x01,0x55,0x31,0x0d,0x55,0x00,0x00,0x57,
0x31,0x0b,0x57,0x00,0x00,0x55,0x31,0x0c,0x55,0x00,0x00,0x57,0x31,0x0d,0x57,0x00,
0x00,0x55,0x31,0x0c,0x55,0x00,0x00,0x57,0x31,0x0a,0x57,0x00,0x01,0x55,0x31,0x0c,
0x55,0x00,0x00,0x57,0x31,0x0c,0x57,0x00,0x00,0x55,0x31,0x0b,0x55,0x00,0x01,0x57,
0x31,0x0b,0x57,0x00,0x01,0x55,0x31,0x0c,0x55,0x00,0x01,0x57,0x31,0x0c,0x57,0x00,
0x00,0x55,0x31,0x0b,0x55,0x00,0x01,0x57,0x31,0x0c,0x57,0x00,0x00,0x55,0x31,0x0b,
0x55,0x00,0x00,0x57,0x31,0x0d,0x57,0x00,0x00,0x55,0x31,0x0c,0x55,0x00,0x00,0x57,
0x31,0x0a,0x57,0x00,0x01,0x55,0x31,0x0b,0x55,0x00,0x01,0x57,0x31,0x0d,0x57,0x00,
0x00,0x55,0x31,0x0c,0x55,0x00,0x00,0x57,0x31,0x0c,0x57,0x00,0x00,0x55,0x31,0x8b,
0x7a,0x41,0x00,0x00,0x31,0x00,0x00,0x38,0x00,0x02,0x3d,0x00,0x04,0x42,0x00,0x00,
0x55,0x00,0x00,0xff,0x2f,0x00,0x4d,0x54,0x72,0x6b,0x00,0x00,0x08,0x63,0x00,0xff,
0x21,0x01,0x00,0x00,0xb5,0x00,0x00,0x00,0x20,0x00,0x00,0xc5,0x05,0x00,0xb5,0x07,
0x7f,0x00,0x5b,0x28,0x00,0x5d,0x00,0x71,0x65,0x00,0x00,0x64,0x00,0x00,0x06,0x0c,
0x00,0x26,0x00,0xa0,0x0f,0x95,0x55,0x58,0x83,0x08,0x55,0x00,0xb1,0x49,0xb5,0x40,
0x7f,0x29,0x95,0x62,0x56,0x0a,0x60,0x55,0x02,0x62,0x00,0x05,0x5f,0x58,0x03,0x60,
0x00,0x04,0x5d,0x59,0x02,0x5f,0x00,0x03,0x5b,0x5b,0x02,0x5d,0x00,0x03,0x59,0x5a,
0x03,0x5b,0x00,0x03,0x58,0x59,0x02,0x59,0x00,0x04,0x56,0x58,0x01,0x58,0x00,0x05,
0x56,0x00,0x00,0x54,0x56,0x05,0x54,0x00,0x1d,0xb5,0x40,0x00,0x82,0x4e,0x95,0x55,
0x55,0x05,0x5a,0x59,0x0b,0xb5,0x40,0x7f,0x02,0x95,0x5e,0x59,0x21,0x5e,0x00,0x01,
0x5a,0x00,0x01,0x55,0x00,0x26,0x55,0x56,0x05,0x59,0x5e,0x03,0xb5,0x40,0x00,0x08,
0x95,0x5c,0x5e,0x09,0xb5,0x40,0x7f,0x10,0x95,0x5c,0x00,0x00,0x59,0x00,0x06,0x55,
0x00,0x37,0x50,0x56,0x03,0x55,0x59,0x03,0xb5,0x40,0x00,0x06,0x95,0x59,0x58,0x0b,
0xb5,0x40,0x7f,0x13,0x95,0x59,0x00,0x01,0x55,0x00,0x01,0x50,0x00,0x32,0x4d,0x57,
0x04,0x50,0x59,0x06,0x55,0x56,0x00,0xb5,0x40,0x00,0x13,0x40,0x7f,0x13,0x95,0x50,
0x00,0x00,0x4d,0x00,0x06,0x55,0x00,0x28,0x52,0x56,0x04,0x55,0x59,0x03,0xb5,0x40,
0x00,0x08,0x95,0x5a,0x59,0x08,0xb5,0x40,0x7f,0x1d,0x95,0x55,0x00,0x01,0x5a,0x00,
0x01,0x52,0x00,0x2a,0x55,0x56,0x06,0x59,0x59,0x00,0xb5,0x40,0x00,0x09,0x95,0x5c,
0x5a,0x09,0xb5,0x40,0x7f,0x11,0x95,0x59,0x00,0x06,0x5c,0x00,0x00,0x55,0x00,0x34,
0x50,0x56,0x03,0x55,0x56,0x03,0xb5,0x40,0x00,0x04,0x95,0x59,0x57,0x0e,0xb5,0x40,
0x7f,0x0f,0x95,0x59,0x00,0x00,0x55,0x00,0x06,0x50,0x00,0x31,0x4d,0x51,0x05,0x50,
0x56,0x07,0x55,0x57,0x02,0xb5,0x40,0x00,0x81,0x27,0x95,0x55,0x00,0x15,0x55,0x58,
0x39,0x50,0x00,0x0f,0x50,0x57,0x08,0x55,0x00,0x0c,0x55,0x5b,0x13,0x4d,0x00,0x01,
0x55,0x00,0x00,0x50,0x00,0x11,0xb5,0x40,0x7f,0x31,0x95,0x50,0x54,0x04,0x55,0x57,
0x02,0x55,0x00,0x05,0x59,0x59,0x06,0xb5,0x40,0x00,0x4f,0x40,0x7f,0x03,0x95,0x59,
0x00,0x03,0x50,0x00,0x19,0x60,0x56,0x0a,0x5f,0x51,0x03,0x60,0x00,0x04,0x5d,0x56,
0x03,0x5f,0x00,0x03,0x5b,0x57,0x02,0x5d,0x00,0x03,0x59,0x5a,0x02,0x5b,0x00,0x02,
0x58,0x5c,0x03,0x59,0x00,0x02,0x56,0x5e,0x02,0x58,0x00,0x03,0x54,0x5e,0x01,0x56,
0x00,0x03,0x53,0x5c,0x02,0x54,0x00,0x03,0x51,0x5b,0x01,0x53,0x00,0x04,0x4f,0x56,
0x01,0x51,0x00,0x03,0x4f,0x00,0x0d,0x55,0x58,0x00,0x5c,0x57,0x02,0xb5,0x40,0x00,
0x23,0x40,0x7f,0x08,0x95,0x5c,0x00,0x04,0x55,0x00,0x30,0x59,0x59,0x01,0x50,0x55,
0x0d,0x50,0x00,0x00,0x59,0x00,0x4e,0x4d,0x55,0x01,0x55,0x57,0x0a,0x55,0x00,0x00,
0x4d,0x00,0x53,0xb5,0x40,0x00,0x07,0x95,0x52,0x57,0x00,0x5a,0x56,0x0a,0xb5,0x40,
0x7f,0x07,0x95,0x52,0x00,0x04,0x5a,0x00,0x4b,0xb5,0x40,0x00,0x02,0x95,0x55,0x59,
0x00,0x5c,0x58,0x0f,0xb5,0x40,0x7f,0x06,0x95,0x5c,0x00,0x01,0x55,0x00,0x46,0xb5,
0x40,0x00,0x01,0x95,0x59,0x5b,0x01,0x50,0x56,0x0c,0xb5,0x40,0x7f,0x06,0x95,0x50,
0x00,0x01,0x59,0x00,0x43,0x4d,0x55,0x05,0x50,0x58,0x06,0xb5,0x40,0x00,0x02,0x95,
0x55,0x57,0x0f,0xb5,0x40,0x7f,0x14,0x95,0x4d,0x00,0x01,0x50,0x00,0x02,0x55,0x00,
0x32,0x52,0x58,0x03,0x55,0x5a,0x00,0xb5,0x40,0x00,0x09,0x95,0x5a,0x59,0x08,0xb5,
0x40,0x7f,0x1c,0x95,0x55,0x00,0x00,0x52,0x00,0x05,0x5a,0x00,0x2f,0x55,0x57,0x01,
0x59,0x5e,0x03,0xb5,0x40,0x00,0x06,0x95,0x5c,0x57,0x10,0xb5,0x40,0x7f,0x12,0x95,
0x59,0x00,0x05,0x5c,0x00,0x02,0x55,0x00,0x2e,0xb5,0x40,0x00,0x02,0x95,0x50,0x55,
0x01,0x59,0x59,0x00,0x55,0x55,0x0c,0xb5,0x40,0x7f,0x16,0x95,0x55,0x00,0x03,0x50,
0x00,0x01,0x59,0x00,0x3c,0x5c,0x5a,0x0d,0x5c,0x00,0x81,0x32,0x55,0x56,0x01,0x61,
0x5b,0x07,0xb5,0x40,0x00,0x82,0x19,0x95,0x61,0x00,0x00,0x55,0x00,0x59,0x48,0x57,
0x00,0x4d,0x5a,0x06,0x50,0x5b,0x0c,0xb5,0x40,0x7f,0x1a,0x95,0x50,0x00,0x00,0x4d,
0x00,0x03,0x48,0x00,0x2b,0x46,0x52,0x05,0x49,0x59,0x04,0xb5,0x40,0x00,0x04,0x95,
0x50,0x59,0x0b,0xb5,0x40,0x7f,0x14,0x95,0x49,0x00,0x00,0x46,0x00,0x06,0x50,0x00,
0x2d,0x49,0x55,0x04,0x4d,0x5a,0x07,0x50,0x56,0x03,0xb5,0x40,0x00,0x18,0x40,0x7f,
0x2a,0x95,0x50,0x00,0x00,0x4d,0x00,0x01,0x49,0x00,0x69,0x48,0x57,0x06,0x4d,0x58,
0x02,0xb5,0x40,0x00,0x03,0x95,0x50,0x57,0x12,0xb5,0x40,0x7f,0x14,0x95,0x50,0x00,
0x01,0x4d,0x00,0x02,0x48,0x00,0x31,0x48,0x57,0x03,0x4b,0x59,0x03,0xb5,0x40,0x00,
0x09,0x95,0x50,0x5c,0x0d,0xb5,0x40,0x7f,0x15,0x95,0x48,0x00,0x02,0x4b,0x00,0x06,
0x50,0x00,0x25,0x49,0x55,0x04,0x4d,0x5b,0x05,0x50,0x58,0x03,0xb5,0x40,0x00,0x1b,
0x40,0x7f,0x45,0x95,0x4d,0x00,0x01,0x49,0x00,0x03,0x50,0x00,0x54,0x48,0x58,0x03,
0x4d,0x5b,0x01,0xb5,0x40,0x00,0x05,0x95,0x50,0x55,0x10,0xb5,0x40,0x7f,0x1b,0x95,
0x4d,0x00,0x01,0x50,0x00,0x03,0x48,0x00,0x26,0x46,0x55,0x06,0x49,0x58,0x05,0xb5,
0x40,0x00,0x02,0x95,0x50,0x58,0x0f,0xb5,0x40,0x7f,0x16,0x95,0x46,0x00,0x01,0x49,
0x00,0x06,0x50,0x00,0x2a,0x49,0x56,0x03,0x4d,0x5a,0x09,0x50,0x58,0x02,0xb5,0x40,
0x00,0x15,0x40,0x7f,0x65,0x95,0x49,0x00,0x06,0x50,0x00,0x01,0x4d,0x00,0x1a,0x50,
0x59,0x0b,0x50,0x00,0x14,0x55,0x5c,0x0c,0x55,0x00,0x81,0x34,0x49,0x5b,0x07,0x49,
0x00,0x81,0x2d,0x48,0x57,0x03,0x4d,0x5a,0x02,0xb5,0x40,0x00,0x06,0x95,0x50,0x58,
0x0e,0xb5,0x40,0x7f,0x14,0x95,0x50,0x00,0x00,0x4d,0x00,0x04,0x48,0x00,0x2e,0x46,
0x57,0x03,0x49,0x5a,0x0a,0xb5,0x40,0x00,0x01,0x95,0x50,0x58,0x0f,0xb5,0x40,0x7f,
0x11,0x95,0x49,0x00,0x00,0x46,0x00,0x07,0x50,0x00,0x2d,0x49,0x54,0x03,0x4d,0x59,
0x09,0xb5,0x40,0x00,0x01,0x95,0x50,0x59,0x13,0xb5,0x40,0x7f,0x5c,0x95,0x50,0x00,
0x02,0x4d,0x00,0x01,0x49,0x00,0x45,0x48,0x58,0x02,0xb5,0x40,0x00,0x01,0x95,0x4d,
0x5b,0x09,0x50,0x57,0x0c,0xb5,0x40,0x7f,0x15,0x95,0x4d,0x00,0x01,0x50,0x00,0x04,
0x48,0x00,0x34,0x48,0x58,0x03,0x4b,0x56,0x00,0x50,0x58,0x01,0xb5,0x40,0x00,0x13,
0x40,0x7f,0x15,0x95,0x48,0x00,0x03,0x4b,0x00,0x04,0x50,0x00,0x26,0x49,0x56,0x06,
0x4d,0x59,0x05,0x50,0x58,0x00,0xb5,0x40,0x00,0x16,0x40,0x7f,0x5d,0x95,0x50,0x00,
0x01,0x4d,0x00,0x02,0x49,0x00,0x3f,0x48,0x57,0x02,0xb5,0x40,0x00,0x01,0x95,0x4d,
0x5a,0x08,0x50,0x57,0x0c,0xb5,0x40,0x7f,0x0e,0x95,0x4d,0x00,0x02,0x50,0x00,0x02,
0x48,0x00,0x31,0x46,0x56,0x03,0x49,0x59,0x05,0xb5,0x40,0x00,0x05,0x95,0x50,0x57,
0x0e,0xb5,0x40,0x7f,0x11,0x95,0x46,0x00,0x01,0x49,0x00,0x07,0x50,0x00,0x30,0x49,
0x55,0x02,0x4d,0x5c,0x04,0x50,0x58,0x04,0xb5,0x40,0x00,0x33,0x40,0x7f,0x35,0x95,
0x4d,0x00,0x03,0x49,0x00,0x04,0x50,0x00,0x4d,0x55,0x62,0x07,0x55,0x00,0x82,0x1c,
0xb5,0x40,0x00,0x5e,0x95,0x49,0x56,0x00,0x4d,0x5e,0x05,0x50,0x57,0x1f,0xb5,0x40,
0x7f,0x2a,0x95,0x49,0x00,0x14,0x49,0x55,0x64,0x55,0x58,0x23,0x55,0x00,0x07,0x50,
0x00,0x01,0x4d,0x00,0x05,0x49,0x00,0x27,0x46,0x57,0x01,0x49,0x59,0x04,0xb5,0x40,
0x00,0x04,0x95,0x4e,0x59,0x0c,0xb5,0x40,0x7f,0x1c,0x95,0x49,0x00,0x01,0x46,0x00,
0x07,0x4e,0x00,0x23,0x49,0x54,0x03,0x4d,0x5c,0x03,0xb5,0x40,0x00,0x03,0x95,0x50,
0x57,0x1e,0xb5,0x40,0x7f,0x27,0x95,0x50,0x00,0x00,0x4d,0x00,0x1b,0x55,0x5b,0x0b,
0x49,0x00,0x06,0x55,0x00,0x4f,0x49,0x5c,0x0a,0x49,0x00,0x50,0x46,0x56,0x06,0x49,
0x5a,0x00,0xb5,0x40,0x00,0x06,0x95,0x4e,0x5b,0x09,0xb5,0x40,0x7f,0x19,0x95,0x49,
0x00,0x01,0x46,0x00,0x06,0x4e,0x00,0x29,0x49,0x54,0x04,0x4d,0x5a,0x04,0x50,0x59,
0x01,0xb5,0x40,0x00,0x13,0x40,0x7f,0x28,0x95,0x49,0x00,0x23,0x55,0x5a,0x64,0x49,
0x56,0x01,0x4d,0x00,0x01,0x55,0x00,0x02,0x50,0x00,0x07,0x49,0x00,0x4e,0x46,0x56,
0x04,0x49,0x5a,0x02,0xb5,0x40,0x00,0x03,0x95,0x4e,0x58,0x0d,0xb5,0x40,0x7f,0x26,
0x95,0x4e,0x00,0x00,0x49,0x00,0x00,0x46,0x00,0x28,0x44,0x54,0x01,0x49,0x56,0x03,
0x4d,0x5c,0x03,0xb5,0x40,0x00,0x14,0x40,0x7f,0x18,0x95,0x44,0x00,0x09,0x4d,0x00,
0x01,0x49,0x00,0x24,0x50,0x57,0x0b,0x50,0x00,0x55,0x55,0x5c,0x0a,0x55,0x00,0x50,
0x49,0x56,0x05,0x4e,0x59,0x00,0xb5,0x40,0x00,0x03,0x95,0x52,0x57,0x0e,0xb5,0x40,
0x7f,0x20,0x95,0x4e,0x00,0x02,0x49,0x00,0x01,0x52,0x00,0x28,0x49,0x55,0x04,0x4d,
0x5c,0x03,0x50,0x57,0x03,0xb5,0x40,0x00,0x16,0x40,0x7f,0x1b,0x95,0x49,0x00,0x2b,
0x49,0x56,0x4d,0x4d,0x00,0x08,0x50,0x00,0x09,0x4d,0x58,0x28,0x4d,0x00,0x0c,0x49,
0x00,0x23,0x49,0x54,0x03,0x4e,0x5a,0x07,0x55,0x5c,0x19,0x55,0x00,0x01,0x49,0x00,
0x03,0x54,0x5c,0x08,0x4e,0x00,0x12,0x54,0x00,0x04,0x52,0x5c,0x0d,0x52,0x00,0x17,
0x49,0x56,0x00,0x4d,0x59,0x01,0x50,0x58,0x00,0xb5,0x40,0x00,0x14,0x40,0x7f,0x20,
0x95,0x49,0x00,0x2b,0x49,0x57,0x2f,0x49,0x00,0x30,0x49,0x55,0x1c,0x4d,0x00,0x13,
0x4d,0x55,0x07,0x50,0x00,0x05,0x4d,0x00,0x06,0x49,0x00,0x15,0x49,0x55,0x03,0x4e,
0x57,0x02,0xb5,0x40,0x00,0x06,0x95,0x55,0x5c,0x0b,0xb5,0x40,0x7f,0x0a,0x95,0x55,
0x00,0x0b,0x54,0x5a,0x1b,0x54,0x00,0x05,0x52,0x56,0x0a,0x4e,0x00,0x09,0x52,0x00,
0x03,0x49,0x00,0x0a,0x49,0x56,0x01,0x4d,0x5a,0x01,0xb5,0x40,0x00,0x01,0x95,0x50,
0x58,0x15,0xb5,0x40,0x7f,0x21,0x95,0x49,0x00,0x2a,0x49,0x55,0x61,0x55,0x58,0x42,
0x55,0x00,0x03,0x50,0x00,0x01,0x4d,0x00,0x04,0x49,0x00,0x12,0x49,0x55,0x00,0x4e,
0x58,0x04,0xb5,0x40,0x00,0x01,0x95,0x52,0x56,0x13,0xb5,0x40,0x7f,0x23,0x95,0x4e,
0x00,0x02,0x49,0x00,0x10,0x52,0x00,0x0f,0x49,0x56,0x04,0x4d,0x5c,0x00,0x50,0x5a,
0x02,0xb5,0x40,0x00,0x1e,0x40,0x7f,0x2f,0x95,0x49,0x00,0x12,0x55,0x5e,0x04,0x50,
0x00,0x02,0x4d,0x00,0x0c,0x55,0x00,0x4e,0x50,0x57,0x34,0x50,0x00,0x2a,0x49,0x55,
0x02,0x55,0x5c,0x01,0xb5,0x40,0x00,0x10,0x40,0x7f,0x0d,0x95,0x55,0x00,0x02,0x54,
0x5a,0x17,0x54,0x00,0x0a,0x52,0x56,0x0e,0x52,0x00,0x06,0x49,0x00,0x0c,0xb5,0x40,
0x00,0x00,0x95,0x49,0x57,0x01,0x4d,0x56,0x00,0x50,0x58,0x02,0x4e,0x56,0x0d,0x4e,
0x00,0x03,0xb5,0x40,0x7f,0x33,0x95,0x49,0x00,0x19,0x49,0x55,0x61,0x55,0x57,0x36,
0x4d,0x00,0x03,0x49,0x00,0x09,0x50,0x00,0x05,0x55,0x00,0x11,0x49,0x52,0x02,0x4e,
0x57,0x04,0xb5,0x40,0x00,0x01,0x95,0x52,0x57,0x10,0xb5,0x40,0x7f,0x2f,0x95,0x4e,
0x00,0x1b,0x4d,0x5b,0x04,0x50,0x58,0x01,0x52,0x00,0x00,0xb5,0x40,0x00,0x13,0x40,
0x7f,0x1f,0x95,0x49,0x00,0x0d,0x50,0x00,0x01,0x4d,0x00,0x1f,0x44,0x58,0x0a,0x44,
0x00,0x59,0x49,0x5f,0x0a,0x49,0x00,0x4f,0x49,0x56,0x04,0x4e,0x5a,0x00,0xb5,0x40,
0x00,0x06,0x95,0x52,0x57,0x0d,0xb5,0x40,0x7f,0x1e,0x95,0x4e,0x00,0x04,0x52,0x00,
0x02,0x49,0x00,0x26,0x49,0x55,0x04,0x4d,0x5c,0x01,0xb5,0x40,0x00,0x01,0x95,0x50,
0x58,0x11,0xb5,0x40,0x7f,0x41,0x95,0x50,0x00,0x07,0x4d,0x00,0x05,0x55,0x5a,0x1d,
0x55,0x00,0x01,0x49,0x00,0x41,0x50,0x56,0x10,0x50,0x00,0x4a,0x46,0x57,0x02,0x49,
0x58,0x01,0xb5,0x40,0x00,0x06,0x95,0x4e,0x57,0x0f,0xb5,0x40,0x7f,0x1f,0x95,0x4e,
0x00,0x01,0x46,0x00,0x01,0x49,0x00,0x2a,0x44,0x54,0x04,0x49,0x57,0x01,0xb5,0x40,
0x00,0x00,0x95,0x4d,0x5c,0x1f,0xb5,0x40,0x7f,0x31,0x40,0x00,0x20,0x95,0x44,0x00,
0x01,0x4d,0x00,0x01,0x49,0x00,0x59,0xb5,0x40,0x7f,0x4e,0x95,0x5c,0x5a,0x19,0x59,
0x5a,0x04,0x5c,0x00,0x14,0x59,0x00,0x03,0x55,0x56,0x0f,0x55,0x00,0x0b,0x59,0x56,
0x0a,0x59,0x00,0x0d,0x55,0x57,0x02,0x59,0x5b,0x06,0x5c,0x56,0x0e,0x55,0x00,0x02,
0x59,0x00,0x04,0x5c,0x00,0x82,0x01,0x5c,0x5a,0x18,0x59,0x58,0x05,0x5c,0x00,0x15,
0x55,0x54,0x03,0x59,0x00,0x12,0x59,0x58,0x05,0x55,0x00,0x0f,0x59,0x00,0x04,0x55,
0x56,0x01,0x59,0x52,0x09,0x5c,0x58,0x05,0x55,0x00,0x01,0x59,0x00,0x05,0x5c,0x00,
0x82,0x0d,0x5c,0x57,0x19,0x55,0x57,0x08,0x5c,0x00,0x0f,0x50,0x55,0x03,0x55,0x00,
0x15,0x55,0x56,0x07,0x50,0x00,0x13,0x50,0x52,0x03,0x59,0x59,0x08,0x50,0x00,0x00,
0x55,0x00,0x02,0x59,0x00,0x81,0x2e,0x5c,0x55,0x0d,0x5c,0x00,0x81,0x34,0xb5,0x40,
0x00,0x33,0x01,0x00,0x30,0x01,0x00,0x30,0x01,0x00,0x30,0x01,0x00,0x00,0xff,0x2f,
0x00,0x4d,0x54,0x72,0x6b,0x00,0x00,0x08,0x43,0x00,0xff,0x21,0x01,0x00,0x00,0xb6,
0x00,0x00,0x00,0x20,0x00,0x00,0xc6,0x3d,0x00,0xb6,0x07,0x7f,0x00,0x5b,0x78,0x00,
0x5d,0x5a,0x74,0x65,0x00,0x00,0x64,0x00,0x00,0x06,0x0c,0x00,0x26,0x00,0x82,0x0c,
0x07,0x32,0x82,0x20,0x96,0x3d,0x46,0x05,0xb6,0x07,0x50,0x08,0x07,0x6e,0x08,0x07,
0x7f,0x2e,0x07,0x78,0x08,0x07,0x32,0x14,0x96,0x44,0x46,0x07,0x3d,0x00,0x04,0xb6,
0x07,0x3a,0x08,0x07,0x60,0x08,0x07,0x7e,0x08,0x07,0x7f,0x81,0x61,0x07,0x76,0x08,
0x07,0x6a,0x08,0x07,0x60,0x08,0x07,0x58,0x08,0x07,0x4e,0x08,0x07,0x42,0x08,0x07,
0x38,0x0a,0x07,0x32,0x48,0x96,0x44,0x00,0x82,0x1a,0x3d,0x46,0x0d,0xb6,0x07,0x34,
0x08,0x07,0x5a,0x08,0x07,0x7a,0x10,0x07,0x7f,0x2c,0x07,0x32,0x08,0x96,0x44,0x46,
0x02,0x3d,0x00,0x19,0xb6,0x07,0x3a,0x08,0x07,0x5c,0x08,0x07,0x7a,0x08,0x07,0x7f,
0x82,0x03,0x07,0x76,0x08,0x07,0x6c,0x08,0x07,0x60,0x08,0x07,0x56,0x08,0x07,0x4c,
0x08,0x07,0x44,0x08,0x07,0x3c,0x08,0x07,0x32,0x1a,0x96,0x44,0x00,0x82,0x17,0x3d,
0x46,0x22,0xb6,0x07,0x36,0x08,0x07,0x5a,0x08,0x07,0x74,0x08,0x07,0x7f,0x16,0x07,
0x7a,0x08,0x07,0x32,0x07,0x96,0x3d,0x00,0x01,0x44,0x46,0x19,0xb6,0x07,0x34,0x08,
0x07,0x42,0x08,0x07,0x5a,0x08,0x07,0x6e,0x08,0x07,0x7c,0x08,0x07,0x7f,0x82,0x43,
0x07,0x78,0x01,0x96,0x44,0x00,0x07,0xb6,0x07,0x64,0x08,0x07,0x56,0x08,0x07,0x4e,
0x08,0x07,0x40,0x08,0x07,0x32,0x81,0x75,0x96,0x3d,0x46,0x0f,0xb6,0x07,0x4e,0x08,
0x07,0x68,0x08,0x07,0x7a,0x08,0x07,0x7f,0x2b,0x07,0x7a,0x08,0x07,0x32,0x05,0x96,
0x44,0x46,0x04,0x3d,0x00,0x18,0xb6,0x07,0x40,0x08,0x07,0x5a,0x08,0x07,0x6c,0x08,
0x07,0x7f,0x82,0x26,0x07,0x7a,0x08,0x07,0x64,0x08,0x07,0x4c,0x08,0x07,0x32,0x04,
0x96,0x44,0x00,0x0b,0xb6,0x07,0x32,0x85,0x1f,0x96,0x3d,0x5c,0x09,0xb6,0x07,0x46,
0x08,0x07,0x7f,0x3c,0x07,0x32,0x12,0x96,0x3d,0x00,0x01,0x44,0x5a,0x0a,0xb6,0x07,
0x3c,0x08,0x07,0x5c,0x08,0x07,0x7c,0x08,0x07,0x7f,0x81,0x3f,0x07,0x74,0x08,0x07,
0x68,0x08,0x07,0x60,0x08,0x07,0x56,0x08,0x07,0x4e,0x09,0x07,0x46,0x07,0x07,0x44,
0x09,0x07,0x3c,0x08,0x07,0x32,0x64,0x96,0x44,0x00,0x82,0x7b,0xb6,0x07,0x32,0x84,
0x40,0x96,0x44,0x5d,0x16,0xb6,0x07,0x40,0x09,0x07,0x7f,0x2d,0x07,0x32,0x13,0x96,
0x44,0x00,0x00,0x49,0x5d,0x0e,0xb6,0x07,0x7f,0x47,0x07,0x32,0x0c,0x96,0x49,0x00,
0x00,0x44,0x59,0x11,0xb6,0x07,0x52,0x08,0x07,0x72,0x08,0x07,0x7f,0x81,0x2b,0x07,
0x7e,0x08,0x07,0x70,0x08,0x07,0x62,0x08,0x07,0x54,0x07,0x07,0x44,0x09,0x07,0x32,
0x81,0x0e,0x96,0x44,0x00,0x83,0x5e,0x3d,0x56,0x1a,0xb6,0x07,0x66,0x08,0x07,0x7f,
0x2f,0x07,0x32,0x0f,0x96,0x3d,0x00,0x00,0x44,0x5a,0x13,0xb6,0x07,0x70,0x08,0x07,
0x7f,0x3a,0x07,0x32,0x0b,0x96,0x44,0x00,0x00,0x49,0x5a,0x10,0xb6,0x07,0x64,0x09,
0x07,0x7f,0x45,0x96,0x49,0x00,0x00,0xb6,0x07,0x32,0x01,0x96,0x44,0x56,0x14,0xb6,
0x07,0x56,0x08,0x07,0x7f,0x81,0x20,0x07,0x7a,0x07,0x07,0x6c,0x08,0x07,0x5a,0x08,
0x07,0x46,0x08,0x07,0x32,0x81,0x1f,0x96,0x44,0x00,0x64,0xb6,0x07,0x4e,0x03,0x96,
0x3d,0x5c,0x04,0xb6,0x07,0x70,0x08,0x07,0x7f,0x08,0x07,0x7f,0x36,0x07,0x7e,0x08,
0x07,0x32,0x0c,0x96,0x3d,0x00,0x01,0x44,0x5b,0x15,0xb6,0x07,0x38,0x09,0x07,0x52,
0x08,0x07,0x66,0x08,0x07,0x7a,0x08,0x07,0x7f,0x08,0x07,0x7f,0x08,0x07,0x7f,0x08,
0x07,0x7f,0x08,0x07,0x7f,0x81,0x44,0x07,0x7f,0x09,0x07,0x7f,0x08,0x07,0x7f,0x08,
0x07,0x7f,0x08,0x07,0x78,0x08,0x07,0x6e,0x08,0x07,0x66,0x08,0x07,0x5e,0x08,0x07,
0x52,0x08,0x07,0x44,0x08,0x07,0x3c,0x07,0x07,0x32,0x71,0x96,0x44,0x00,0x86,0x5a,
0xb6,0x07,0x7f,0x90,0x74,0x96,0x3d,0x53,0x00,0x31,0x38,0x2c,0x31,0x00,0x00,0x3d,
0x00,0x04,0x42,0x52,0x00,0x36,0x37,0x1f,0x36,0x00,0x00,0x42,0x00,0x01,0x44,0x4f,
0x00,0x38,0x34,0x1f,0x38,0x00,0x00,0x44,0x00,0x01,0x46,0x4f,0x00,0x3a,0x34,0x1b,
0x3a,0x00,0x00,0x46,0x00,0x05,0x44,0x5a,0x00,0x38,0x3f,0x5f,0x38,0x00,0x00,0x44,
0x00,0x01,0x41,0x5a,0x00,0x35,0x3f,0x74,0x35,0x00,0x00,0x41,0x00,0x1c,0x3d,0x5a,
0x00,0x31,0x3f,0x2f,0x31,0x00,0x00,0x3d,0x00,0x01,0x42,0x5a,0x00,0x36,0x43,0x1f,
0x36,0x00,0x00,0x42,0x00,0x01,0x44,0x5a,0x00,0x38,0x40,0x1f,0x38,0x00,0x00,0x44,
0x00,0x00,0x46,0x5a,0x00,0x3a,0x3f,0x20,0x3a,0x00,0x00,0x46,0x00,0x01,0x44,0x5a,
0x00,0x38,0x3e,0x81,0x62,0x38,0x00,0x00,0x44,0x00,0x0d,0x3d,0x5a,0x00,0x31,0x40,
0x2f,0x31,0x00,0x00,0x3d,0x00,0x01,0x42,0x5a,0x00,0x36,0x42,0x1f,0x36,0x00,0x00,
0x42,0x00,0x01,0x44,0x5a,0x00,0x38,0x40,0x1f,0x38,0x00,0x00,0x44,0x00,0x01,0x46,
0x5a,0x00,0x3a,0x3e,0x20,0x3a,0x00,0x00,0x46,0x00,0x00,0x44,0x5a,0x00,0x38,0x3f,
0x60,0x38,0x00,0x00,0x44,0x00,0x01,0x41,0x5a,0x00,0x35,0x39,0x81,0x01,0x35,0x00,
0x00,0x41,0x00,0x0e,0x41,0x5a,0x00,0x35,0x40,0x2f,0x35,0x00,0x00,0x41,0x00,0x01,
0x42,0x5a,0x00,0x36,0x40,0x1f,0x36,0x00,0x00,0x42,0x00,0x01,0x41,0x5a,0x00,0x35,
0x3f,0x1f,0x35,0x00,0x00,0x41,0x00,0x01,0x3d,0x5a,0x00,0x31,0x3e,0x1a,0x31,0x00,
0x00,0x3d,0x00,0x07,0x3d,0x5a,0x00,0x31,0x3e,0x81,0x70,0x31,0x00,0x00,0x3d,0x00,
0x00,0x3d,0x5a,0x00,0x31,0x41,0x2f,0x31,0x00,0x00,0x3d,0x00,0x00,0x42,0x5a,0x00,
0x36,0x40,0x20,0x36,0x00,0x00,0x42,0x00,0x01,0x44,0x5a,0x00,0x38,0x41,0x1e,0x38,
0x00,0x00,0x44,0x00,0x01,0x46,0x5a,0x00,0x3a,0x40,0x1f,0x3a,0x00,0x00,0x46,0x00,
0x02,0x44,0x5a,0x00,0x38,0x3f,0x5f,0x38,0x00,0x00,0x44,0x00,0x00,0x41,0x5a,0x00,
0x35,0x3b,0x7d,0x35,0x00,0x00,0x41,0x00,0x14,0x3d,0x5a,0x00,0x31,0x3f,0x30,0x31,
0x00,0x00,0x3d,0x00,0x00,0x42,0x5a,0x00,0x36,0x42,0x1f,0x36,0x00,0x00,0x42,0x00,
0x00,0x44,0x5a,0x00,0x38,0x40,0x20,0x38,0x00,0x00,0x44,0x00,0x01,0x46,0x5a,0x00,
0x3a,0x40,0x20,0x3a,0x00,0x00,0x46,0x00,0x00,0x44,0x5a,0x00,0x38,0x40,0x81,0x5c,
0x38,0x00,0x00,0x44,0x00,0x14,0x3d,0x5a,0x00,0x31,0x40,0x2e,0x31,0x00,0x00,0x3d,
0x00,0x01,0x42,0x5a,0x00,0x36,0x40,0x1f,0x36,0x00,0x00,0x42,0x00,0x02,0x44,0x5a,
0x00,0x38,0x40,0x20,0x38,0x00,0x00,0x44,0x00,0x00,0x46,0x5a,0x00,0x3a,0x3f,0x1f,
0x3a,0x00,0x00,0x46,0x00,0x00,0x44,0x5a,0x00,0x38,0x40,0x60,0x38,0x00,0x00,0x44,
0x00,0x01,0x41,0x5a,0x00,0x35,0x3a,0x81,0x0f,0x35,0x00,0x00,0x41,0x00,0x01,0x41,
0x5a,0x00,0x35,0x3f,0x2f,0x35,0x00,0x00,0x41,0x00,0x01,0x42,0x5a,0x00,0x36,0x3d,
0x1e,0x36,0x00,0x00,0x42,0x00,0x01,0x41,0x5a,0x00,0x35,0x3f,0x1f,0x35,0x00,0x00,
0x41,0x00,0x02,0x3d,0x5a,0x00,0x31,0x40,0x1c,0x31,0x00,0x00,0x3d,0x00,0x04,0x3d,
0x5a,0x00,0x31,0x3d,0x81,0x68,0x31,0x00,0x00,0x3d,0x00,0x81,0x18,0xb6,0x07,0x7f,
0x8c,0x00,0x96,0x41,0x5a,0x0d,0xb6,0x07,0x40,0x08,0x07,0x64,0x08,0x07,0x7f,0x09,
0x07,0x7f,0x25,0x07,0x7f,0x08,0x07,0x32,0x0b,0x96,0x41,0x00,0x01,0x42,0x5a,0x0e,
0xb6,0x07,0x6e,0x08,0x07,0x7f,0x08,0x07,0x7f,0x2f,0x07,0x7a,0x08,0x07,0x32,0x0b,
0x96,0x42,0x00,0x01,0x44,0x5a,0x0c,0xb6,0x07,0x50,0x07,0x07,0x7c,0x09,0x07,0x7f,
0x08,0x07,0x7f,0x81,0x00,0x07,0x7f,0x08,0x07,0x32,0x13,0x96,0x44,0x00,0x01,0x44,
0x5a,0x07,0xb6,0x07,0x56,0x08,0x07,0x7f,0x08,0x07,0x7f,0x37,0x07,0x5e,0x08,0x07,
0x38,0x08,0x07,0x3c,0x01,0x96,0x44,0x00,0x01,0x44,0x5a,0x08,0xb6,0x07,0x7f,0x09,
0x07,0x7f,0x35,0x07,0x6e,0x09,0x07,0x32,0x10,0x96,0x44,0x00,0x01,0x49,0x5a,0x03,
0xb6,0x07,0x34,0x09,0x07,0x6c,0x08,0x07,0x7c,0x08,0x07,0x7f,0x08,0x07,0x7f,0x08,
0x07,0x7f,0x08,0x07,0x7f,0x0d,0x07,0x7f,0x6b,0x07,0x7f,0x08,0x07,0x32,0x0b,0x96,
0x49,0x00,0x01,0x41,0x5a,0x14,0xb6,0x07,0x62,0x08,0x07,0x7f,0x09,0x07,0x7f,0x2f,
0x07,0x7f,0x09,0x07,0x32,0x02,0x96,0x41,0x00,0x00,0x42,0x5a,0x0c,0xb6,0x07,0x3c,
0x08,0x07,0x7f,0x08,0x07,0x7f,0x33,0x07,0x76,0x09,0x07,0x32,0x07,0x96,0x42,0x00,
0x01,0x44,0x5a,0x0b,0xb6,0x07,0x3a,0x08,0x07,0x76,0x09,0x07,0x7f,0x07,0x07,0x7f,
0x81,0x1d,0x96,0x44,0x00,0x01,0x3d,0x5a,0x6b,0xb6,0x07,0x7f,0x08,0x07,0x7f,0x08,
0x07,0x7f,0x08,0x07,0x7f,0x08,0x07,0x7f,0x09,0x07,0x7f,0x08,0x07,0x76,0x08,0x07,
0x6c,0x08,0x07,0x60,0x0a,0x07,0x58,0x08,0x07,0x4a,0x09,0x07,0x3e,0x08,0x07,0x32,
0x53,0x96,0x3d,0x00,0x5e,0xb6,0x07,0x32,0x00,0x96,0x44,0x5a,0x10,0xb6,0x07,0x7f,
0x82,0x52,0x07,0x32,0x05,0x96,0x44,0x00,0x01,0x3d,0x5a,0x18,0x3d,0x00,0x00,0x49,
0x5a,0x04,0xb6,0x07,0x4a,0x08,0x07,0x7f,0x08,0x07,0x7f,0x08,0x07,0x7f,0x08,0x07,
0x7f,0x82,0x35,0x07,0x7f,0x09,0x07,0x32,0x05,0x96,0x49,0x00,0x01,0x3d,0x5a,0x17,
0x3d,0x00,0x00,0x44,0x5a,0x0a,0xb6,0x07,0x46,0x08,0x07,0x5c,0x09,0x07,0x6e,0x07,
0x07,0x76,0x09,0x07,0x7f,0x09,0x07,0x7f,0x0a,0x07,0x7f,0x09,0x07,0x7f,0x09,0x07,
0x7f,0x08,0x07,0x7f,0x08,0x07,0x7f,0x0a,0x07,0x7f,0x08,0x07,0x7f,0x81,0x0a,0x07,
0x7f,0x08,0x07,0x32,0x1b,0x96,0x44,0x00,0x01,0x41,0x5a,0x07,0xb6,0x07,0x42,0x08,
0x07,0x62,0x08,0x07,0x7f,0x08,0x07,0x7f,0x30,0x07,0x7f,0x08,0x07,0x32,0x0a,0x96,
0x41,0x00,0x00,0x3d,0x5a,0x15,0xb6,0x07,0x46,0x08,0x07,0x6a,0x08,0x07,0x7c,0x08,
0x07,0x7f,0x08,0x07,0x7f,0x08,0x07,0x7f,0x0f,0x07,0x7f,0x08,0x07,0x7f,0x82,0x14,
0x96,0x3d,0x00,0x00,0x3d,0x5a,0x06,0xb6,0x07,0x32,0x10,0x96,0x3d,0x00,0x01,0x44,
0x5a,0x08,0xb6,0x07,0x52,0x08,0x07,0x7c,0x08,0x07,0x7f,0x81,0x11,0x96,0x44,0x00,
0x00,0x3d,0x5a,0x17,0x3d,0x00,0x00,0x44,0x5a,0x81,0x24,0xb6,0x07,0x32,0x05,0x96,
0x44,0x00,0x00,0x3d,0x5a,0x17,0x3d,0x00,0x01,0x44,0x5a,0x04,0xb6,0x07,0x34,0x09,
0x07,0x5e,0x07,0x07,0x72,0x09,0x07,0x7f,0x08,0x07,0x7f,0x07,0x07,0x7f,0x09,0x07,
0x7f,0x73,0x96,0x44,0x00,0x00,0xb6,0x07,0x7f,0x00,0x96,0x3d,0x5a,0x08,0xb6,0x07,
0x32,0x10,0x96,0x3d,0x00,0x00,0x44,0x5a,0x10,0xb6,0x07,0x42,0x07,0x07,0x60,0x09,
0x07,0x7a,0x08,0x07,0x7f,0x08,0x07,0x7f,0x08,0x07,0x7f,0x08,0x07,0x7f,0x0c,0x07,
0x7f,0x5c,0x96,0x44,0x00,0x00,0x3d,0x5a,0x03,0xb6,0x07,0x32,0x14,0x96,0x3d,0x00,
0x01,0x44,0x5a,0x0b,0xb6,0x07,0x40,0x08,0x07,0x6c,0x08,0x07,0x7f,0x08,0x07,0x7f,
0x08,0x07,0x7f,0x7b,0x07,0x7f,0x01,0x96,0x44,0x00,0x00,0x3d,0x5a,0x07,0xb6,0x07,
0x76,0x08,0x07,0x6c,0x08,0x96,0x3d,0x00,0x01,0x44,0x5a,0x06,0xb6,0x07,0x7f,0x08,
0x07,0x7f,0x08,0x07,0x7f,0x81,0x10,0x07,0x32,0x19,0x96,0x44,0x00,0x01,0x49,0x5a,
0x0d,0xb6,0x07,0x38,0x08,0x07,0x4e,0x08,0x07,0x62,0x08,0x07,0x78,0x08,0x07,0x7f,
0x08,0x07,0x7f,0x08,0x07,0x7f,0x08,0x07,0x7f,0x82,0x24,0x96,0x49,0x00,0x00,0x3d,
0x5a,0x17,0x3d,0x00,0x01,0x44,0x5a,0x82,0x5a,0xb6,0x07,0x7f,0x09,0x07,0x32,0x05,
0x96,0x44,0x00,0x00,0x3d,0x5a,0x16,0x3d,0x00,0x01,0x44,0x5a,0x04,0xb6,0x07,0x3a,
0x08,0x07,0x60,0x08,0x07,0x76,0x08,0x07,0x7f,0x08,0x07,0x7f,0x08,0x07,0x7f,0x08,
0x07,0x7f,0x82,0x04,0x07,0x7f,0x08,0x07,0x60,0x08,0x07,0x32,0x20,0x96,0x44,0x00,
0x01,0x3d,0x5a,0x17,0xb6,0x07,0x34,0x01,0x96,0x3d,0x00,0x00,0x44,0x5a,0x08,0xb6,
0x07,0x42,0x08,0x07,0x56,0x08,0x07,0x64,0x08,0x07,0x72,0x08,0x07,0x7f,0x08,0x07,
0x7f,0x08,0x07,0x7f,0x08,0x07,0x7f,0x09,0x07,0x7f,0x82,0x0f,0x07,0x7f,0x09,0x07,
0x32,0x06,0x96,0x44,0x00,0x00,0x3d,0x5a,0x18,0x3d,0x00,0x01,0x49,0x5a,0x0c,0xb6,
0x07,0x36,0x08,0x07,0x4e,0x08,0x07,0x66,0x08,0x07,0x76,0x08,0x07,0x7e,0x08,0x07,
0x7f,0x08,0x07,0x7f,0x08,0x07,0x7f,0x08,0x07,0x7f,0x08,0x07,0x7f,0x81,0x18,0x07,
0x7f,0x0a,0x07,0x7f,0x09,0x07,0x7f,0x0f,0x07,0x7f,0x08,0x07,0x7f,0x08,0x07,0x7f,
0x09,0x07,0x7f,0x09,0x07,0x7f,0x09,0x07,0x7f,0x08,0x07,0x7f,0x0b,0x07,0x7f,0x08,
0x07,0x7f,0x0a,0x07,0x7e,0x08,0x07,0x78,0x08,0x07,0x72,0x08,0x07,0x6e,0x0a,0x07,
0x68,0x0a,0x07,0x60,0x08,0x07,0x56,0x08,0x07,0x4e,0x08,0x07,0x44,0x08,0x07,0x3a,
0x08,0x07,0x32,0x88,0x4d,0x96,0x49,0x00,0x00,0xff,0x2f,0x00,0x4d,0x54,0x72,0x6b,
0x00,0x00,0x01,0xa3,0x00,0xff,0x21,0x01,0x00,0x00,0xb7,0x00,0x00,0x00,0x20,0x00,
0x00,0xc7,0x34,0x00,0xb7,0x07,0x7f,0x00,0x5b,0x28,0x00,0x5d,0x00,0x77,0x65,0x00,
0x00,0x64,0x00,0x00,0x06,0x0c,0x00,0x26,0x00,0x82,0x09,0x97,0x31,0x25,0x97,0x7b,
0x31,0x00,0x05,0x31,0x25,0x8b,0x7b,0x31,0x00,0x05,0x31,0x25,0x94,0x1f,0x31,0x00,
0x01,0x2c,0x25,0x5f,0x2c,0x00,0x01,0x31,0x25,0x81,0x27,0x31,0x00,0x01,0x2c,0x25,
0x17,0x2c,0x00,0x01,0x25,0x25,0x17,0x25,0x00,0x01,0x2c,0x25,0x17,0x2c,0x00,0x01,
0x31,0x25,0x81,0x0b,0x31,0x00,0x05,0x35,0x25,0x81,0x3f,0x35,0x00,0x01,0x31,0x25,
0x81,0x3f,0x31,0x00,0x01,0x35,0x25,0x81,0x3f,0x35,0x00,0x01,0x31,0x25,0x81,0x3f,
0x31,0x00,0x01,0x35,0x25,0x81,0x3f,0x35,0x00,0x01,0x31,0x25,0x84,0x3f,0x31,0x00,
0x01,0x35,0x25,0x5f,0x35,0x00,0x01,0x36,0x25,0x5f,0x36,0x00,0x01,0x31,0x25,0x81,
0x3f,0x31,0x00,0x01,0x35,0x25,0x5f,0x35,0x00,0x01,0x38,0x25,0x5f,0x38,0x00,0x01,
0x31,0x25,0x5f,0x31,0x00,0x01,0x31,0x25,0x5f,0x31,0x00,0x01,0x35,0x25,0x5f,0x35,
0x00,0x01,0x36,0x25,0x5f,0x36,0x00,0x01,0x31,0x25,0x83,0x5f,0x31,0x00,0x01,0x38,
0x25,0x5b,0x38,0x00,0x05,0x31,0x25,0x94,0x1f,0x31,0x00,0x01,0x2c,0x25,0x5f,0x2c,
0x00,0x01,0x31,0x25,0x81,0x27,0x31,0x00,0x01,0x2c,0x25,0x17,0x2c,0x00,0x01,0x25,
0x25,0x17,0x25,0x00,0x01,0x2c,0x25,0x17,0x2c,0x00,0x01,0x31,0x25,0x81,0x0b,0x31,
0x00,0x05,0x35,0x25,0x81,0x3f,0x35,0x00,0x01,0x31,0x25,0x81,0x3f,0x31,0x00,0x01,
0x35,0x25,0x81,0x3f,0x35,0x00,0x01,0x31,0x25,0x81,0x3f,0x31,0x00,0x01,0x35,0x25,
0x81,0x3f,0x35,0x00,0x01,0x31,0x25,0x84,0x3f,0x31,0x00,0x01,0x35,0x25,0x5f,0x35,
0x00,0x01,0x36,0x25,0x5f,0x36,0x00,0x01,0x31,0x25,0x81,0x3f,0x31,0x00,0x01,0x35,
0x25,0x5f,0x35,0x00,0x01,0x38,0x25,0x5f,0x38,0x00,0x01,0x31,0x25,0x5f,0x31,0x00,
0x01,0x31,0x25,0x5f,0x31,0x00,0x01,0x35,0x25,0x5f,0x35,0x00,0x01,0x36,0x25,0x5f,
0x36,0x00,0x01,0x31,0x25,0x83,0x5f,0x31,0x00,0x01,0x38,0x25,0x5b,0x38,0x00,0x05,
0x31,0x25,0x94,0x1f,0x31,0x00,0x01,0x2c,0x25,0x5f,0x2c,0x00,0x01,0x31,0x25,0x81,
0x27,0x31,0x00,0x01,0x2c,0x25,0x17,0x2c,0x00,0x01,0x25,0x25,0x17,0x25,0x00,0x01,
0x2c,0x25,0x81,0x27,0x2c,0x00,0x01,0x25,0x25,0x00,0x31,0x25,0x94,0x7f,0x31,0x00,
0x00,0x25,0x00,0x00,0xff,0x2f,0x00,0x4d,0x54,0x72,0x6b,0x00,0x00,0x00,0xce,0x00,
0xff,0x21,0x01,0x00,0x00,0xb8,0x00,0x00,0x00,0x20,0x00,0x00,0xc8,0x2f,0x00,0xb8,
0x07,0x7f,0x00,0x5b,0x28,0x00,0x5d,0x00,0x7a,0x65,0x00,0x00,0x64,0x00,0x00,0x06,
0x0c,0x00,0x26,0x00,0xbe,0x06,0x98,0x29,0x7f,0x64,0x29,0x00,0x5b,0x25,0x7f,0x81,
0x17,0x25,0x00,0x29,0x29,0x7f,0x64,0x29,0x00,0x5d,0x25,0x7f,0x81,0x0a,0x25,0x00,
0x36,0x29,0x7f,0x5c,0x29,0x00,0x82,0x23,0x25,0x7f,0x81,0x21,0x25,0x00,0x81,0x60,
0x29,0x7f,0x64,0x29,0x00,0x5b,0x25,0x7f,0x81,0x17,0x25,0x00,0x29,0x29,0x7f,0x64,
0x29,0x00,0x5d,0x25,0x7f,0x81,0x0a,0x25,0x00,0x36,0x29,0x7f,0x5c,0x29,0x00,0x82,
0x23,0x25,0x7f,0x81,0x21,0x25,0x00,0x99,0x60,0x29,0x7f,0x64,0x29,0x00,0x5b,0x25,
0x7f,0x81,0x17,0x25,0x00,0x29,0x29,0x7f,0x64,0x29,0x00,0x5d,0x25,0x7f,0x81,0x0a,
0x25,0x00,0x36,0x29,0x7f,0x5c,0x29,0x00,0x82,0x23,0x25,0x7f,0x81,0x21,0x25,0x00,
0x81,0x60,0x29,0x7f,0x64,0x29,0x00,0x5b,0x25,0x7f,0x81,0x17,0x25,0x00,0x29,0x29,
0x7f,0x64,0x29,0x00,0x5d,0x25,0x7f,0x81,0x0a,0x25,0x00,0x36,0x29,0x7f,0x5c,0x29,
0x00,0x82,0x23,0x25,0x7f,0x81,0x21,0x25,0x00,0x00,0xff,0x2f,0x00,0x4d,0x54,0x72,
0x6b,0x00,0x00,0x18,0xbb,0x00,0xff,0x21,0x01,0x00,0x00,0xb9,0x00,0x00,0x00,0x20,
0x00,0x00,0xc9,0x00,0x00,0xb9,0x07,0x72,0x00,0x5b,0x28,0x00,0x5d,0x00,0x9b,0x48,
0x99,0x27,0x50,0x00,0x26,0x41,0x0b,0x26,0x00,0x00,0x27,0x00,0x0d,0x27,0x5f,0x00,
0x26,0x50,0x0b,0x26,0x00,0x00,0x27,0x00,0x0d,0x27,0x50,0x00,0x26,0x41,0x0b,0x26,
0x00,0x00,0x27,0x00,0x0d,0x27,0x41,0x00,0x26,0x32,0x0b,0x26,0x00,0x00,0x27,0x00,
0x0d,0x27,0x32,0x00,0x26,0x23,0x0b,0x26,0x00,0x00,0x27,0x00,0x55,0x27,0x50,0x00,
0x26,0x41,0x0b,0x26,0x00,0x00,0x27,0x00,0x0d,0x27,0x5f,0x00,0x26,0x50,0x0b,0x26,
0x00,0x00,0x27,0x00,0x0d,0x27,0x50,0x00,0x26,0x41,0x0b,0x26,0x00,0x00,0x27,0x00,
0x0d,0x27,0x41,0x00,0x26,0x32,0x0b,0x26,0x00,0x00,0x27,0x00,0x0d,0x27,0x32,0x00,
0x26,0x23,0x0b,0x26,0x00,0x00,0x27,0x00,0x55,0x27,0x50,0x00,0x26,0x41,0x0b,0x26,
0x00,0x00,0x27,0x00,0x0d,0x27,0x5f,0x00,0x26,0x50,0x0b,0x26,0x00,0x00,0x27,0x00,
0x0d,0x27,0x50,0x00,0x26,0x41,0x0b,0x26,0x00,0x00,0x27,0x00,0x0d,0x27,0x41,0x00,
0x26,0x32,0x0b,0x26,0x00,0x00,0x27,0x00,0x0d,0x27,0x32,0x00,0x26,0x23,0x0b,0x26,
0x00,0x00,0x27,0x00,0x55,0x27,0x50,0x00,0x26,0x41,0x0b,0x26,0x00,0x00,0x27,0x00,
0x0d,0x27,0x5f,0x00,0x26,0x50,0x0b,0x26,0x00,0x00,0x27,0x00,0x0d,0x27,0x50,0x00,
0x26,0x41,0x0b,0x26,0x00,0x00,0x27,0x00,0x0d,0x27,0x41,0x00,0x26,0x32,0x0b,0x26,
0x00,0x00,0x27,0x00,0x0d,0x27,0x32,0x00,0x26,0x23,0x0b,0x26,0x00,0x00,0x27,0x00,
0x55,0x27,0x50,0x00,0x26,0x41,0x0b,0x26,0x00,0x00,0x27,0x00,0x0d,0x27,0x5f,0x00,
0x26,0x50,0x0b,0x26,0x00,0x00,0x27,0x00,0x0d,0x27,0x50,0x00,0x26,0x41,0x0b,0x26,
0x00,0x00,0x27,0x00,0x0d,0x27,0x41,0x00,0x26,0x32,0x0b,0x26,0x00,0x00,0x27,0x00,
0x0d,0x27,0x32,0x00,0x26,0x23,0x0b,0x26,0x00,0x00,0x27,0x00,0x55,0x27,0x50,0x00,
0x26,0x41,0x0b,0x26,0x00,0x00,0x27,0x00,0x0d,0x27,0x5f,0x00,0x26,0x50,0x0b,0x26,
0x00,0x00,0x27,0x00,0x0d,0x27,0x50,0x00,0x26,0x41,0x0b,0x26,0x00,0x00,0x27,0x00,
0x0d,0x27,0x41,0x00,0x26,0x32,0x0b,0x26,0x00,0x00,0x27,0x00,0x0d,0x27,0x32,0x00,
0x26,0x23,0x0b,0x26,0x00,0x00,0x27,0x00,0x55,0x27,0x50,0x00,0x26,0x41,0x0b,0x26,
0x00,0x00,0x27,0x00,0x0d,0x27,0x5f,0x00,0x26,0x50,0x0b,0x26,0x00,0x00,0x27,0x00,
0x0d,0x27,0x50,0x00,0x26,0x41,0x0b,0x26,0x00,0x00,0x27,0x00,0x0d,0x27,0x41,0x00,
0x26,0x32,0x0b,0x26,0x00,0x00,0x27,0x00,0x0d,0x27,0x32,0x00,0x26,0x23,0x0b,0x26,
0x00,0x00,0x27,0x00,0x55,0x27,0x50,0x00,0x26,0x41,0x0b,0x26,0x00,0x00,0x27,0x00,
0x0d,0x27,0x5f,0x00,0x26,0x50,0x0b,0x26,0x00,0x00,0x27,0x00,0x0d,0x27,0x50,0x00,
0x26,0x41,0x0b,0x26,0x00,0x00,0x27,0x00,0x0d,0x27,0x41,0x00,0x26,0x32,0x0b,0x26,
0x00,0x00,0x27,0x00,0x0d,0x27,0x32,0x00,0x26,0x23,0x0b,0x26,0x00,0x00,0x27,0x00,
0x55,0x27,0x50,0x00,0x26,0x41,0x0b,0x26,0x00,0x00,0x27,0x00,0x0d,0x27,0x5f,0x00,
0x26,0x50,0x0b,0x26,0x00,0x00,0x27,0x00,0x0d,0x27,0x50,0x00,0x26,0x41,0x0b,0x26,
0x00,0x00,0x27,0x00,0x0d,0x27,0x41,0x00,0x26,0x32,0x0b,0x26,0x00,0x00,0x27,0x00,
0x0d,0x27,0x32,0x00,0x26,0x23,0x0b,0x26,0x00,0x00,0x27,0x00,0x55,0x27,0x50,0x00,
0x26,0x41,0x0b,0x26,0x00,0x00,0x27,0x00,0x0d,0x27,0x5f,0x00,0x26,0x50,0x0b,0x26,
0x00,0x00,0x27,0x00,0x0d,0x27,0x50,0x00,0x26,0x41,0x0b,0x26,0x00,0x00,0x27,0x00,
0x0d,0x27,0x41,0x00,0x26,0x32,0x0b,0x26,0x00,0x00,0x27,0x00,0x0d,0x27,0x32,0x00,
0x26,0x23,0x0b,0x26,0x00,0x00,0x27,0x00,0x55,0x27,0x50,0x00,0x26,0x41,0x0b,0x26,
0x00,0x00,0x27,0x00,0x0d,0x27,0x5f,0x00,0x26,0x50,0x0b,0x26,0x00,0x00,0x27,0x00,
0x0d,0x27,0x50,0x00,0x26,0x41,0x0b,0x26,0x00,0x00,0x27,0x00,0x0d,0x27,0x41,0x00,
0x26,0x32,0x0b,0x26,0x00,0x00,0x27,0x00,0x0d,0x27,0x32,0x00,0x26,0x23,0x0b,0x26,
0x00,0x00,0x27,0x00,0x55,0x27,0x50,0x00,0x26,0x41,0x0b,0x26,0x00,0x00,0x27,0x00,
0x0d,0x27,0x5f,0x00,0x26,0x50,0x0b,0x26,0x00,0x00,0x27,0x00,0x0d,0x27,0x50,0x00,
0x26,0x41,0x0b,0x26,0x00,0x00,0x27,0x00,0x0d,0x27,0x41,0x00,0x26,0x32,0x0b,0x26,
0x00,0x00,0x27,0x00,0x0d,0x27,0x32,0x00,0x26,0x23,0x0b,0x26,0x00,0x00,0x27,0x00,
0x55,0x27,0x50,0x00,0x26,0x41,0x0b,0x26,0x00,0x00,0x27,0x00,0x0d,0x27,0x5f,0x00,
0x26,0x50,0x0b,0x26,0x00,0x00,0x27,0x00,0x0d,0x27,0x50,0x00,0x26,0x41,0x0b,0x26,
0x00,0x00,0x27,0x00,0x0d,0x27,0x41,0x00,0x26,0x32,0x0b,0x26,0x00,0x00,0x27,0x00,
0x0d,0x27,0x32,0x00,0x26,0x23,0x0b,0x26,0x00,0x00,0x27,0x00,0x55,0x27,0x50,0x00,
0x26,0x41,0x0b,0x26,0x00,0x00,0x27,0x00,0x0d,0x27,0x5f,0x00,0x26,0x50,0x0b,0x26,
0x00,0x00,0x27,0x00,0x0d,0x27,0x50,0x00,0x26,0x41,0x0b,0x26,0x00,0x00,0x27,0x00,
0x0d,0x27,0x41,0x00,0x26,0x32,0x0b,0x26,0x00,0x00,0x27,0x00,0x0d,0x27,0x32,0x00,
0x26,0x23,0x0b,0x26,0x00,0x00,0x27,0x00,0x55,0x27,0x50,0x00,0x26,0x41,0x0b,0x26,
0x00,0x00,0x27,0x00,0x0d,0x27,0x5f,0x00,0x26,0x50,0x0b,0x26,0x00,0x00,0x27,0x00,
0x0d,0x27,0x50,0x00,0x26,0x41,0x0b,0x26,0x00,0x00,0x27,0x00,0x0d,0x27,0x41,0x00,
0x26,0x32,0x0b,0x26,0x00,0x00,0x27,0x00,0x0d,0x27,0x32,0x00,0x26,0x23,0x0b,0x26,
0x00,0x00,0x27,0x00,0x55,0x27,0x50,0x00,0x26,0x41,0x0b,0x26,0x00,0x00,0x27,0x00,
0x0d,0x27,0x5f,0x00,0x26,0x50,0x0b,0x26,0x00,0x00,0x27,0x00,0x0d,0x27,0x50,0x00,
0x26,0x41,0x0b,0x26,0x00,0x00,0x27,0x00,0x0d,0x27,0x41,0x00,0x26,0x32,0x0b,0x26,
0x00,0x00,0x27,0x00,0x0d,0x27,0x32,0x00,0x26,0x23,0x0b,0x26,0x00,0x00,0x27,0x00,
0x55,0x27,0x50,0x00,0x26,0x41,0x0b,0x26,0x00,0x00,0x27,0x00,0x0d,0x27,0x5f,0x00,
0x26,0x50,0x0b,0x26,0x00,0x00,0x27,0x00,0x0d,0x27,0x50,0x00,0x26,0x41,0x0b,0x26,
0x00,0x00,0x27,0x00,0x0d,0x27,0x41,0x00,0x26,0x32,0x0b,0x26,0x00,0x00,0x27,0x00,
0x0d,0x27,0x32,0x00,0x26,0x23,0x0b,0x26,0x00,0x00,0x27,0x00,0x55,0x27,0x50,0x00,
0x26,0x41,0x0b,0x26,0x00,0x00,0x27,0x00,0x0d,0x27,0x5f,0x00,0x26,0x50,0x0b,0x26,
0x00,0x00,0x27,0x00,0x0d,0x27,0x50,0x00,0x26,0x41,0x0b,0x26,0x00,0x00,0x27,0x00,
0x0d,0x27,0x41,0x00,0x26,0x32,0x0b,0x26,0x00,0x00,0x27,0x00,0x0d,0x27,0x32,0x00,
0x26,0x23,0x0b,0x26,0x00,0x00,0x27,0x00,0x55,0x27,0x50,0x00,0x26,0x41,0x0b,0x26,
0x00,0x00,0x27,0x00,0x0d,0x27,0x5f,0x00,0x26,0x50,0x0b,0x26,0x00,0x00,0x27,0x00,
0x0d,0x27,0x50,0x00,0x26,0x41,0x0b,0x26,0x00,0x00,0x27,0x00,0x0d,0x27,0x41,0x00,
0x26,0x32,0x0b,0x26,0x00,0x00,0x27,0x00,0x0d,0x27,0x32,0x00,0x26,0x23,0x0b,0x26,
0x00,0x00,0x27,0x00,0x55,0x27,0x50,0x00,0x26,0x41,0x0b,0x26,0x00,0x00,0x27,0x00,
0x0d,0x27,0x5f,0x00,0x26,0x50,0x0b,0x26,0x00,0x00,0x27,0x00,0x0d,0x27,0x50,0x00,
0x26,0x41,0x0b,0x26,0x00,0x00,0x27,0x00,0x0d,0x27,0x41,0x00,0x26,0x32,0x0b,0x26,
0x00,0x00,0x27,0x00,0x0d,0x27,0x32,0x00,0x26,0x23,0x0b,0x26,0x00,0x00,0x27,0x00,
0x55,0x27,0x50,0x00,0x26,0x41,0x0b,0x26,0x00,0x00,0x27,0x00,0x0d,0x27,0x5f,0x00,
0x26,0x50,0x0b,0x26,0x00,0x00,0x27,0x00,0x0d,0x27,0x50,0x00,0x26,0x41,0x0b,0x26,
0x00,0x00,0x27,0x00,0x0d,0x27,0x41,0x00,0x26,0x32,0x0b,0x26,0x00,0x00,0x27,0x00,
0x0d,0x27,0x32,0x00,0x26,0x23,0x0b,0x26,0x00,0x00,0x27,0x00,0x55,0x27,0x50,0x00,
0x26,0x41,0x0b,0x26,0x00,0x00,0x27,0x00,0x0d,0x27,0x5f,0x00,0x26,0x50,0x0b,0x26,
0x00,0x00,0x27,0x00,0x0d,0x27,0x50,0x00,0x26,0x41,0x0b,0x26,0x00,0x00,0x27,0x00,
0x0d,0x27,0x41,0x00,0x26,0x32,0x0b,0x26,0x00,0x00,0x27,0x00,0x0d,0x27,0x32,0x00,
0x26,0x23,0x0b,0x26,0x00,0x00,0x27,0x00,0x55,0x27,0x50,0x00,0x26,0x41,0x0b,0x26,
0x00,0x00,0x27,0x00,0x0d,0x27,0x5f,0x00,0x26,0x50,0x0b,0x26,0x00,0x00,0x27,0x00,
0x0d,0x27,0x50,0x00,0x26,0x41,0x0b,0x26,0x00,0x00,0x27,0x00,0x0d,0x27,0x41,0x00,
0x26,0x32,0x0b,0x26,0x00,0x00,0x27,0x00,0x0d,0x27,0x32,0x00,0x26,0x23,0x06,0x31,
0x15,0x05,0x26,0x00,0x00,0x27,0x00,0x02,0x31,0x00,0x00,0x31,0x18,0x07,0x31,0x00,
0x00,0x31,0x1b,0x06,0x31,0x00,0x00,0x31,0x1e,0x07,0x31,0x00,0x00,0x31,0x21,0x04,
0x31,0x00,0x01,0x31,0x23,0x07,0x31,0x00,0x01,0x31,0x26,0x06,0x31,0x00,0x00,0x31,
0x29,0x06,0x31,0x00,0x00,0x31,0x2c,0x05,0x31,0x00,0x00,0x31,0x2e,0x06,0x31,0x00,
0x00,0x31,0x31,0x06,0x31,0x00,0x01,0x31,0x34,0x07,0x31,0x00,0x00,0x31,0x37,0x05,
0x31,0x00,0x00,0x31,0x39,0x05,0x31,0x00,0x00,0x31,0x3b,0x03,0x27,0x50,0x00,0x26,
0x41,0x02,0x31,0x00,0x01,0x31,0x3e,0x08,0x26,0x00,0x00,0x27,0x00,0x01,0x31,0x00,
0x00,0x31,0x42,0x05,0x31,0x00,0x00,0x31,0x44,0x04,0x31,0x00,0x01,0x31,0x46,0x02,
0x27,0x5f,0x00,0x26,0x50,0x05,0x31,0x00,0x00,0x31,0x4a,0x06,0x31,0x00,0x00,0x26,
0x00,0x00,0x27,0x00,0x00,0x31,0x4c,0x05,0x31,0x00,0x00,0x31,0x4e,0x06,0x31,0x00,
0x00,0x31,0x51,0x02,0x27,0x50,0x00,0x26,0x41,0x04,0x31,0x00,0x00,0x31,0x53,0x07,
0x31,0x00,0x00,0x26,0x00,0x00,0x27,0x00,0x00,0x31,0x57,0x05,0x31,0x00,0x00,0x31,
0x59,0x06,0x31,0x00,0x00,0x31,0x5b,0x02,0x27,0x41,0x00,0x26,0x32,0x08,0x31,0x00,
0x02,0x31,0x61,0x01,0x26,0x00,0x00,0x27,0x00,0x04,0x31,0x00,0x01,0x31,0x63,0x06,
0x31,0x00,0x00,0x31,0x66,0x02,0x27,0x32,0x00,0x26,0x23,0x08,0x31,0x00,0x00,0x31,
0x6a,0x03,0x26,0x00,0x00,0x27,0x00,0x01,0x31,0x00,0x01,0x31,0x6d,0x06,0x31,0x00,
0x00,0x31,0x6f,0x05,0x31,0x00,0x00,0x31,0x71,0x05,0x31,0x00,0x00,0x31,0x74,0x09,
0x31,0x00,0x3a,0x27,0x50,0x00,0x26,0x41,0x0b,0x26,0x00,0x00,0x27,0x00,0x0d,0x27,
0x5f,0x00,0x26,0x50,0x0b,0x26,0x00,0x00,0x27,0x00,0x0d,0x27,0x50,0x00,0x26,0x41,
0x0b,0x26,0x00,0x00,0x27,0x00,0x0d,0x27,0x41,0x00,0x26,0x32,0x0b,0x26,0x00,0x00,
0x27,0x00,0x0d,0x27,0x32,0x00,0x26,0x23,0x0b,0x26,0x00,0x00,0x27,0x00,0x55,0x27,
0x50,0x00,0x26,0x41,0x0b,0x26,0x00,0x00,0x27,0x00,0x0d,0x27,0x5f,0x00,0x26,0x50,
0x0b,0x26,0x00,0x00,0x27,0x00,0x0d,0x27,0x50,0x00,0x26,0x41,0x0b,0x26,0x00,0x00,
0x27,0x00,0x0d,0x27,0x41,0x00,0x26,0x32,0x0b,0x26,0x00,0x00,0x27,0x00,0x0d,0x27,
0x32,0x00,0x26,0x23,0x0b,0x26,0x00,0x00,0x27,0x00,0x55,0x27,0x50,0x00,0x26,0x41,
0x0b,0x26,0x00,0x00,0x27,0x00,0x0d,0x27,0x5f,0x00,0x26,0x50,0x0b,0x26,0x00,0x00,
0x27,0x00,0x0d,0x27,0x50,0x00,0x26,0x41,0x0b,0x26,0x00,0x00,0x27,0x00,0x0d,0x27,
0x41,0x00,0x26,0x32,0x0b,0x26,0x00,0x00,0x27,0x00,0x0d,0x27,0x32,0x00,0x26,0x23,
0x0b,0x26,0x00,0x00,0x27,0x00,0x55,0x27,0x50,0x00,0x26,0x41,0x0b,0x26,0x00,0x00,
0x27,0x00,0x0d,0x27,0x5f,0x00,0x26,0x50,0x0b,0x26,0x00,0x00,0x27,0x00,0x0d,0x27,
0x50,0x00,0x26,0x41,0x0b,0x26,0x00,0x00,0x27,0x00,0x0d,0x27,0x41,0x00,0x26,0x32,
0x0b,0x26,0x00,0x00,0x27,0x00,0x0d,0x27,0x32,0x00,0x26,0x23,0x0b,0x26,0x00,0x00,
0x27,0x00,0x55,0x27,0x50,0x00,0x26,0x41,0x0b,0x26,0x00,0x00,0x27,0x00,0x0d,0x27,
0x5f,0x00,0x26,0x50,0x0b,0x26,0x00,0x00,0x27,0x00,0x0d,0x27,0x50,0x00,0x26,0x41,
0x0b,0x26,0x00,0x00,0x27,0x00,0x0d,0x27,0x41,0x00,0x26,0x32,0x0b,0x26,0x00,0x00,
0x27,0x00,0x0d,0x27,0x32,0x00,0x26,0x23,0x0b,0x26,0x00,0x00,0x27,0x00,0x55,0x27,
0x50,0x00,0x26,0x41,0x0b,0x26,0x00,0x00,0x27,0x00,0x0d,0x27,0x5f,0x00,0x26,0x50,
0x0b,0x26,0x00,0x00,0x27,0x00,0x0d,0x27,0x50,0x00,0x26,0x41,0x0b,0x26,0x00,0x00,
0x27,0x00,0x0d,0x27,0x41,0x00,0x26,0x32,0x0b,0x26,0x00,0x00,0x27,0x00,0x0d,0x27,
0x32,0x00,0x26,0x23,0x0b,0x26,0x00,0x00,0x27,0x00,0x55,0x27,0x50,0x00,0x26,0x41,
0x0b,0x26,0x00,0x00,0x27,0x00,0x0d,0x27,0x5f,0x00,0x26,0x50,0x0b,0x26,0x00,0x00,
0x27,0x00,0x0d,0x27,0x50,0x00,0x26,0x41,0x0b,0x26,0x00,0x00,0x27,0x00,0x0d,0x27,
0x41,0x00,0x26,0x32,0x0b,0x26,0x00,0x00,0x27,0x00,0x0d,0x27,0x32,0x00,0x26,0x23,
0x0b,0x26,0x00,0x00,0x27,0x00,0x55,0x27,0x50,0x00,0x26,0x41,0x0b,0x26,0x00,0x00,
0x27,0x00,0x0d,0x27,0x5f,0x00,0x26,0x50,0x0b,0x26,0x00,0x00,0x27,0x00,0x0d,0x27,
0x50,0x00,0x26,0x41,0x0b,0x26,0x00,0x00,0x27,0x00,0x0d,0x27,0x41,0x00,0x26,0x32,
0x0b,0x26,0x00,0x00,0x27,0x00,0x0d,0x27,0x32,0x00,0x26,0x23,0x0b,0x26,0x00,0x00,
0x27,0x00,0x55,0x27,0x50,0x00,0x26,0x41,0x0b,0x26,0x00,0x00,0x27,0x00,0x0d,0x27,
0x5f,0x00,0x26,0x50,0x0b,0x26,0x00,0x00,0x27,0x00,0x0d,0x27,0x50,0x00,0x26,0x41,
0x0b,0x26,0x00,0x00,0x27,0x00,0x0d,0x27,0x41,0x00,0x26,0x32,0x0b,0x26,0x00,0x00,
0x27,0x00,0x0d,0x27,0x32,0x00,0x26,0x23,0x0b,0x26,0x00,0x00,0x27,0x00,0x55,0x27,
0x50,0x00,0x26,0x41,0x0b,0x26,0x00,0x00,0x27,0x00,0x0d,0x27,0x5f,0x00,0x26,0x50,
0x0b,0x26,0x00,0x00,0x27,0x00,0x0d,0x27,0x50,0x00,0x26,0x41,0x0b,0x26,0x00,0x00,
0x27,0x00,0x0d,0x27,0x41,0x00,0x26,0x32,0x0b,0x26,0x00,0x00,0x27,0x00,0x0d,0x27,
0x32,0x00,0x26,0x23,0x0b,0x26,0x00,0x00,0x27,0x00,0x55,0x27,0x50,0x00,0x26,0x41,
0x0b,0x26,0x00,0x00,0x27,0x00,0x0d,0x27,0x5f,0x00,0x26,0x50,0x0b,0x26,0x00,0x00,
0x27,0x00,0x0d,0x27,0x50,0x00,0x26,0x41,0x0b,0x26,0x00,0x00,0x27,0x00,0x0d,0x27,
0x41,0x00,0x26,0x32,0x0b,0x26,0x00,0x00,0x27,0x00,0x0d,0x27,0x32,0x00,0x26,0x23,
0x0b,0x26,0x00,0x00,0x27,0x00,0x55,0x27,0x50,0x00,0x26,0x41,0x0b,0x26,0x00,0x00,
0x27,0x00,0x0d,0x27,0x5f,0x00,0x26,0x50,0x0b,0x26,0x00,0x00,0x27,0x00,0x0d,0x27,
0x50,0x00,0x26,0x41,0x0b,0x26,0x00,0x00,0x27,0x00,0x0d,0x27,0x41,0x00,0x26,0x32,
0x0b,0x26,0x00,0x00,0x27,0x00,0x0d,0x27,0x32,0x00,0x26,0x23,0x0b,0x26,0x00,0x00,
0x27,0x00,0x55,0x27,0x50,0x00,0x26,0x41,0x0b,0x26,0x00,0x00,0x27,0x00,0x0d,0x27,
0x5f,0x00,0x26,0x50,0x0b,0x26,0x00,0x00,0x27,0x00,0x0d,0x27,0x50,0x00,0x26,0x41,
0x0b,0x26,0x00,0x00,0x27,0x00,0x0d,0x27,0x41,0x00,0x26,0x32,0x0b,0x26,0x00,0x00,
0x27,0x00,0x0d,0x27,0x32,0x00,0x26,0x23,0x0b,0x26,0x00,0x00,0x27,0x00,0x55,0x27,
0x50,0x00,0x26,0x41,0x0b,0x26,0x00,0x00,0x27,0x00,0x0d,0x27,0x5f,0x00,0x26,0x50,
0x0b,0x26,0x00,0x00,0x27,0x00,0x0d,0x27,0x50,0x00,0x26,0x41,0x0b,0x26,0x00,0x00,
0x27,0x00,0x0d,0x27,0x41,0x00,0x26,0x32,0x0b,0x26,0x00,0x00,0x27,0x00,0x0d,0x27,
0x32,0x00,0x26,0x23,0x0b,0x26,0x00,0x00,0x27,0x00,0x55,0x27,0x50,0x00,0x26,0x41,
0x0b,0x26,0x00,0x00,0x27,0x00,0x0d,0x27,0x5f,0x00,0x26,0x50,0x0b,0x26,0x00,0x00,
0x27,0x00,0x0d,0x27,0x50,0x00,0x26,0x41,0x0b,0x26,0x00,0x00,0x27,0x00,0x0d,0x27,
0x41,0x00,0x26,0x32,0x0b,0x26,0x00,0x00,0x27,0x00,0x0d,0x27,0x32,0x00,0x26,0x23,
0x0b,0x26,0x00,0x00,0x27,0x00,0x55,0x27,0x50,0x00,0x26,0x41,0x0b,0x26,0x00,0x00,
0x27,0x00,0x0d,0x27,0x5f,0x00,0x26,0x50,0x0b,0x26,0x00,0x00,0x27,0x00,0x0d,0x27,
0x50,0x00,0x26,0x41,0x0b,0x26,0x00,0x00,0x27,0x00,0x0d,0x27,0x41,0x00,0x26,0x32,
0x0b,0x26,0x00,0x00,0x27,0x00,0x0d,0x27,0x32,0x00,0x26,0x23,0x0b,0x26,0x00,0x00,
0x27,0x00,0x55,0x27,0x50,0x00,0x26,0x41,0x0b,0x26,0x00,0x00,0x27,0x00,0x0d,0x27,
0x5f,0x00,0x26,0x50,0x0b,0x26,0x00,0x00,0x27,0x00,0x0d,0x27,0x50,0x00,0x26,0x41,
0x0b,0x26,0x00,0x00,0x27,0x00,0x0d,0x27,0x41,0x00,0x26,0x32,0x0b,0x26,0x00,0x00,
0x27,0x00,0x0d,0x27,0x32,0x00,0x26,0x23,0x0b,0x26,0x00,0x00,0x27,0x00,0x55,0x27,
0x50,0x00,0x26,0x41,0x0b,0x26,0x00,0x00,0x27,0x00,0x0d,0x27,0x5f,0x00,0x26,0x50,
0x0b,0x26,0x00,0x00,0x27,0x00,0x0d,0x27,0x50,0x00,0x26,0x41,0x0b,0x26,0x00,0x00,
0x27,0x00,0x0d,0x27,0x41,0x00,0x26,0x32,0x0b,0x26,0x00,0x00,0x27,0x00,0x0d,0x27,
0x32,0x00,0x26,0x23,0x0b,0x26,0x00,0x00,0x27,0x00,0x55,0x27,0x50,0x00,0x26,0x41,
0x0b,0x26,0x00,0x00,0x27,0x00,0x0d,0x27,0x5f,0x00,0x26,0x50,0x0b,0x26,0x00,0x00,
0x27,0x00,0x0d,0x27,0x50,0x00,0x26,0x41,0x0b,0x26,0x00,0x00,0x27,0x00,0x0d,0x27,
0x41,0x00,0x26,0x32,0x0b,0x26,0x00,0x00,0x27,0x00,0x0d,0x27,0x32,0x00,0x26,0x23,
0x0b,0x26,0x00,0x00,0x27,0x00,0x55,0x27,0x50,0x00,0x26,0x41,0x0b,0x26,0x00,0x00,
0x27,0x00,0x0d,0x27,0x5f,0x00,0x26,0x50,0x0b,0x26,0x00,0x00,0x27,0x00,0x0d,0x27,
0x50,0x00,0x26,0x41,0x0b,0x26,0x00,0x00,0x27,0x00,0x0d,0x27,0x41,0x00,0x26,0x32,
0x0b,0x26,0x00,0x00,0x27,0x00,0x0d,0x27,0x32,0x00,0x26,0x23,0x0b,0x26,0x00,0x00,
0x27,0x00,0x55,0x27,0x50,0x00,0x26,0x41,0x0b,0x26,0x00,0x00,0x27,0x00,0x0d,0x27,
0x5f,0x00,0x26,0x50,0x0b,0x26,0x00,0x00,0x27,0x00,0x0d,0x27,0x50,0x00,0x26,0x41,
0x0b,0x26,0x00,0x00,0x27,0x00,0x0d,0x27,0x41,0x00,0x26,0x32,0x0b,0x26,0x00,0x00,
0x27,0x00,0x0d,0x27,0x32,0x00,0x26,0x23,0x0b,0x26,0x00,0x00,0x27,0x00,0x55,0x27,
0x50,0x00,0x26,0x41,0x0b,0x26,0x00,0x00,0x27,0x00,0x0d,0x27,0x5f,0x00,0x26,0x50,
0x0b,0x26,0x00,0x00,0x27,0x00,0x0d,0x27,0x50,0x00,0x26,0x41,0x0b,0x26,0x00,0x00,
0x27,0x00,0x0d,0x27,0x41,0x00,0x26,0x32,0x0b,0x26,0x00,0x00,0x27,0x00,0x0d,0x27,
0x32,0x00,0x26,0x23,0x0b,0x26,0x00,0x00,0x27,0x00,0x55,0x27,0x50,0x00,0x26,0x41,
0x0b,0x26,0x00,0x00,0x27,0x00,0x0d,0x27,0x5f,0x00,0x26,0x50,0x0b,0x26,0x00,0x00,
0x27,0x00,0x0d,0x27,0x50,0x00,0x26,0x41,0x0b,0x26,0x00,0x00,0x27,0x00,0x0d,0x27,
0x41,0x00,0x26,0x32,0x0b,0x26,0x00,0x00,0x27,0x00,0x0d,0x27,0x32,0x00,0x26,0x23,
0x0b,0x26,0x00,0x00,0x27,0x00,0x55,0x27,0x50,0x00,0x26,0x41,0x0b,0x26,0x00,0x00,
0x27,0x00,0x0d,0x27,0x5f,0x00,0x26,0x50,0x0b,0x26,0x00,0x00,0x27,0x00,0x0d,0x27,
0x50,0x00,0x26,0x41,0x0b,0x26,0x00,0x00,0x27,0x00,0x0d,0x27,0x41,0x00,0x26,0x32,
0x0b,0x26,0x00,0x00,0x27,0x00,0x0d,0x27,0x32,0x00,0x26,0x23,0x0b,0x26,0x00,0x00,
0x27,0x00,0x55,0x27,0x50,0x00,0x26,0x41,0x0b,0x26,0x00,0x00,0x27,0x00,0x0d,0x27,
0x5f,0x00,0x26,0x50,0x0b,0x26,0x00,0x00,0x27,0x00,0x0d,0x27,0x50,0x00,0x26,0x41,
0x0b,0x26,0x00,0x00,0x27,0x00,0x0d,0x27,0x41,0x00,0x26,0x32,0x0b,0x26,0x00,0x00,
0x27,0x00,0x0d,0x27,0x32,0x00,0x26,0x23,0x0b,0x26,0x00,0x00,0x27,0x00,0x55,0x27,
0x50,0x00,0x26,0x41,0x0b,0x26,0x00,0x00,0x27,0x00,0x0d,0x27,0x5f,0x00,0x26,0x50,
0x0b,0x26,0x00,0x00,0x27,0x00,0x0d,0x27,0x50,0x00,0x26,0x41,0x0b,0x26,0x00,0x00,
0x27,0x00,0x0d,0x27,0x41,0x00,0x26,0x32,0x0b,0x26,0x00,0x00,0x27,0x00,0x0d,0x27,
0x32,0x00,0x26,0x23,0x0b,0x26,0x00,0x00,0x27,0x00,0x55,0x27,0x50,0x00,0x26,0x41,
0x0b,0x26,0x00,0x00,0x27,0x00,0x0d,0x27,0x5f,0x00,0x26,0x50,0x0b,0x26,0x00,0x00,
0x27,0x00,0x0d,0x27,0x50,0x00,0x26,0x41,0x0b,0x26,0x00,0x00,0x27,0x00,0x0d,0x27,
0x41,0x00,0x26,0x32,0x0b,0x26,0x00,0x00,0x27,0x00,0x0d,0x27,0x32,0x00,0x26,0x23,
0x0b,0x26,0x00,0x00,0x27,0x00,0x55,0x27,0x50,0x00,0x26,0x41,0x0b,0x26,0x00,0x00,
0x27,0x00,0x0d,0x27,0x5f,0x00,0x26,0x50,0x0b,0x26,0x00,0x00,0x27,0x00,0x0d,0x27,
0x50,0x00,0x26,0x41,0x0b,0x26,0x00,0x00,0x27,0x00,0x0d,0x27,0x41,0x00,0x26,0x32,
0x0b,0x26,0x00,0x00,0x27,0x00,0x0d,0x27,0x32,0x00,0x26,0x23,0x0b,0x26,0x00,0x00,
0x27,0x00,0x55,0x27,0x50,0x00,0x26,0x41,0x0b,0x26,0x00,0x00,0x27,0x00,0x0d,0x27,
0x5f,0x00,0x26,0x50,0x0b,0x26,0x00,0x00,0x27,0x00,0x0d,0x27,0x50,0x00,0x26,0x41,
0x0b,0x26,0x00,0x00,0x27,0x00,0x0d,0x27,0x41,0x00,0x26,0x32,0x0b,0x26,0x00,0x00,
0x27,0x00,0x0d,0x27,0x32,0x00,0x26,0x23,0x0b,0x26,0x00,0x00,0x27,0x00,0x55,0x27,
0x50,0x00,0x26,0x41,0x0b,0x26,0x00,0x00,0x27,0x00,0x0d,0x27,0x5f,0x00,0x26,0x50,
0x0b,0x26,0x00,0x00,0x27,0x00,0x0d,0x27,0x50,0x00,0x26,0x41,0x0b,0x26,0x00,0x00,
0x27,0x00,0x0d,0x27,0x41,0x00,0x26,0x32,0x0b,0x26,0x00,0x00,0x27,0x00,0x0d,0x27,
0x32,0x00,0x26,0x23,0x0b,0x26,0x00,0x00,0x27,0x00,0x55,0x27,0x50,0x00,0x26,0x41,
0x0b,0x26,0x00,0x00,0x27,0x00,0x0d,0x27,0x5f,0x00,0x26,0x50,0x0b,0x26,0x00,0x00,
0x27,0x00,0x0d,0x27,0x50,0x00,0x26,0x41,0x0b,0x26,0x00,0x00,0x27,0x00,0x0d,0x27,
0x41,0x00,0x26,0x32,0x0b,0x26,0x00,0x00,0x27,0x00,0x0d,0x27,0x32,0x00,0x26,0x23,
0x06,0x31,0x15,0x05,0x26,0x00,0x00,0x27,0x00,0x02,0x31,0x00,0x00,0x31,0x18,0x07,
0x31,0x00,0x00,0x31,0x1b,0x06,0x31,0x00,0x00,0x31,0x1e,0x07,0x31,0x00,0x00,0x31,
0x21,0x04,0x31,0x00,0x01,0x31,0x23,0x07,0x31,0x00,0x01,0x31,0x26,0x06,0x31,0x00,
0x00,0x31,0x29,0x06,0x31,0x00,0x00,0x31,0x2c,0x05,0x31,0x00,0x00,0x31,0x2e,0x06,
0x31,0x00,0x00,0x31,0x31,0x06,0x31,0x00,0x01,0x31,0x34,0x07,0x31,0x00,0x00,0x31,
0x37,0x05,0x31,0x00,0x00,0x31,0x39,0x05,0x31,0x00,0x00,0x31,0x3b,0x03,0x27,0x50,
0x00,0x26,0x41,0x02,0x31,0x00,0x01,0x31,0x3e,0x08,0x26,0x00,0x00,0x27,0x00,0x01,
0x31,0x00,0x00,0x31,0x42,0x05,0x31,0x00,0x00,0x31,0x44,0x04,0x31,0x00,0x01,0x31,
0x46,0x02,0x27,0x5f,0x00,0x26,0x50,0x05,0x31,0x00,0x00,0x31,0x4a,0x06,0x31,0x00,
0x00,0x26,0x00,0x00,0x27,0x00,0x00,0x31,0x4c,0x05,0x31,0x00,0x00,0x31,0x4e,0x06,
0x31,0x00,0x00,0x31,0x51,0x02,0x27,0x50,0x00,0x26,0x41,0x04,0x31,0x00,0x00,0x31,
0x53,0x07,0x31,0x00,0x00,0x26,0x00,0x00,0x27,0x00,0x00,0x31,0x57,0x05,0x31,0x00,
0x00,0x31,0x59,0x06,0x31,0x00,0x00,0x31,0x5b,0x02,0x27,0x41,0x00,0x26,0x32,0x08,
0x31,0x00,0x02,0x31,0x61,0x01,0x26,0x00,0x00,0x27,0x00,0x04,0x31,0x00,0x01,0x31,
0x63,0x06,0x31,0x00,0x00,0x31,0x66,0x02,0x27,0x32,0x00,0x26,0x23,0x08,0x31,0x00,
0x00,0x31,0x6a,0x03,0x26,0x00,0x00,0x27,0x00,0x01,0x31,0x00,0x01,0x31,0x6d,0x06,
0x31,0x00,0x00,0x31,0x6f,0x05,0x31,0x00,0x00,0x31,0x71,0x05,0x31,0x00,0x00,0x31,
0x74,0x09,0x31,0x00,0x3a,0x27,0x50,0x00,0x26,0x41,0x0b,0x26,0x00,0x00,0x27,0x00,
0x0d,0x27,0x5f,0x00,0x26,0x50,0x0b,0x26,0x00,0x00,0x27,0x00,0x0d,0x27,0x50,0x00,
0x26,0x41,0x0b,0x26,0x00,0x00,0x27,0x00,0x0d,0x27,0x41,0x00,0x26,0x32,0x0b,0x26,
0x00,0x00,0x27,0x00,0x0d,0x27,0x32,0x00,0x26,0x23,0x0b,0x26,0x00,0x00,0x27,0x00,
0x55,0x27,0x50,0x00,0x26,0x41,0x0b,0x26,0x00,0x00,0x27,0x00,0x0d,0x27,0x5f,0x00,
0x26,0x50,0x0b,0x26,0x00,0x00,0x27,0x00,0x0d,0x27,0x50,0x00,0x26,0x41,0x0b,0x26,
0x00,0x00,0x27,0x00,0x0d,0x27,0x41,0x00,0x26,0x32,0x0b,0x26,0x00,0x00,0x27,0x00,
0x0d,0x27,0x32,0x00,0x26,0x23,0x0b,0x26,0x00,0x00,0x27,0x00,0x55,0x27,0x50,0x00,
0x26,0x41,0x0b,0x26,0x00,0x00,0x27,0x00,0x0d,0x27,0x5f,0x00,0x26,0x50,0x0b,0x26,
0x00,0x00,0x27,0x00,0x0d,0x27,0x50,0x00,0x26,0x41,0x0b,0x26,0x00,0x00,0x27,0x00,
0x0d,0x27,0x41,0x00,0x26,0x32,0x0b,0x26,0x00,0x00,0x27,0x00,0x0d,0x27,0x32,0x00,
0x26,0x23,0x0b,0x26,0x00,0x00,0x27,0x00,0x55,0x27,0x50,0x00,0x26,0x41,0x0b,0x26,
0x00,0x00,0x27,0x00,0x0d,0x27,0x5f,0x00,0x26,0x50,0x0b,0x26,0x00,0x00,0x27,0x00,
0x0d,0x27,0x50,0x00,0x26,0x41,0x0b,0x26,0x00,0x00,0x27,0x00,0x0d,0x27,0x41,0x00,
0x26,0x32,0x0b,0x26,0x00,0x00,0x27,0x00,0x0d,0x27,0x32,0x00,0x26,0x23,0x0b,0x26,
0x00,0x00,0x27,0x00,0x55,0x27,0x50,0x00,0x26,0x41,0x0b,0x26,0x00,0x00,0x27,0x00,
0x0d,0x27,0x5f,0x00,0x26,0x50,0x0b,0x26,0x00,0x00,0x27,0x00,0x0d,0x27,0x50,0x00,
0x26,0x41,0x0b,0x26,0x00,0x00,0x27,0x00,0x0d,0x27,0x41,0x00,0x26,0x32,0x0b,0x26,
0x00,0x00,0x27,0x00,0x0d,0x27,0x32,0x00,0x26,0x23,0x0b,0x26,0x00,0x00,0x27,0x00,
0x55,0x27,0x50,0x00,0x26,0x41,0x0b,0x26,0x00,0x00,0x27,0x00,0x0d,0x27,0x5f,0x00,
0x26,0x50,0x0b,0x26,0x00,0x00,0x27,0x00,0x0d,0x27,0x50,0x00,0x26,0x41,0x0b,0x26,
0x00,0x00,0x27,0x00,0x0d,0x27,0x41,0x00,0x26,0x32,0x0b,0x26,0x00,0x00,0x27,0x00,
0x0d,0x27,0x32,0x00,0x26,0x23,0x0b,0x26,0x00,0x00,0x27,0x00,0x55,0x27,0x50,0x00,
0x26,0x41,0x0b,0x26,0x00,0x00,0x27,0x00,0x0d,0x27,0x5f,0x00,0x26,0x50,0x0b,0x26,
0x00,0x00,0x27,0x00,0x0d,0x27,0x50,0x00,0x26,0x41,0x0b,0x26,0x00,0x00,0x27,0x00,
0x0d,0x27,0x41,0x00,0x26,0x32,0x0b,0x26,0x00,0x00,0x27,0x00,0x0d,0x27,0x32,0x00,
0x26,0x23,0x0b,0x26,0x00,0x00,0x27,0x00,0x55,0x27,0x50,0x00,0x26,0x41,0x0b,0x26,
0x00,0x00,0x27,0x00,0x0d,0x27,0x5f,0x00,0x26,0x50,0x0b,0x26,0x00,0x00,0x27,0x00,
0x0d,0x27,0x50,0x00,0x26,0x41,0x0b,0x26,0x00,0x00,0x27,0x00,0x0d,0x27,0x41,0x00,
0x26,0x32,0x0b,0x26,0x00,0x00,0x27,0x00,0x0d,0x27,0x32,0x00,0x26,0x23,0x0b,0x26,
0x00,0x00,0x27,0x00,0x55,0x27,0x50,0x00,0x26,0x41,0x0b,0x26,0x00,0x00,0x27,0x00,
0x0d,0x27,0x5f,0x00,0x26,0x50,0x0b,0x26,0x00,0x00,0x27,0x00,0x0d,0x27,0x50,0x00,
0x26,0x41,0x0b,0x26,0x00,0x00,0x27,0x00,0x0d,0x27,0x41,0x00,0x26,0x32,0x0b,0x26,
0x00,0x00,0x27,0x00,0x0d,0x27,0x32,0x00,0x26,0x23,0x0b,0x26,0x00,0x00,0x27,0x00,
0x55,0x27,0x50,0x00,0x26,0x41,0x0b,0x26,0x00,0x00,0x27,0x00,0x0d,0x27,0x5f,0x00,
0x26,0x50,0x0b,0x26,0x00,0x00,0x27,0x00,0x0d,0x27,0x50,0x00,0x26,0x41,0x0b,0x26,
0x00,0x00,0x27,0x00,0x0d,0x27,0x41,0x00,0x26,0x32,0x0b,0x26,0x00,0x00,0x27,0x00,
0x0d,0x27,0x32,0x00,0x26,0x23,0x0b,0x26,0x00,0x00,0x27,0x00,0x55,0x27,0x50,0x00,
0x26,0x41,0x0b,0x26,0x00,0x00,0x27,0x00,0x0d,0x27,0x5f,0x00,0x26,0x50,0x0b,0x26,
0x00,0x00,0x27,0x00,0x0d,0x27,0x50,0x00,0x26,0x41,0x0b,0x26,0x00,0x00,0x27,0x00,
0x0d,0x27,0x41,0x00,0x26,0x32,0x0b,0x26,0x00,0x00,0x27,0x00,0x0d,0x27,0x32,0x00,
0x26,0x23,0x0b,0x26,0x00,0x00,0x27,0x00,0x55,0x27,0x50,0x00,0x26,0x41,0x0b,0x26,
0x00,0x00,0x27,0x00,0x0d,0x27,0x5f,0x00,0x26,0x50,0x0b,0x26,0x00,0x00,0x27,0x00,
0x0d,0x27,0x50,0x00,0x26,0x41,0x0b,0x26,0x00,0x00,0x27,0x00,0x0d,0x27,0x41,0x00,
0x26,0x32,0x0b,0x26,0x00,0x00,0x27,0x00,0x0d,0x27,0x32,0x00,0x26,0x23,0x0b,0x26,
0x00,0x00,0x27,0x00,0x55,0x27,0x50,0x00,0x26,0x41,0x0b,0x26,0x00,0x00,0x27,0x00,
0x0d,0x27,0x5f,0x00,0x26,0x50,0x0b,0x26,0x00,0x00,0x27,0x00,0x0d,0x27,0x50,0x00,
0x26,0x41,0x0b,0x26,0x00,0x00,0x27,0x00,0x0d,0x27,0x41,0x00,0x26,0x32,0x0b,0x26,
0x00,0x00,0x27,0x00,0x0d,0x27,0x32,0x00,0x26,0x23,0x0b,0x26,0x00,0x00,0x27,0x00,
0x55,0x27,0x50,0x00,0x26,0x41,0x0b,0x26,0x00,0x00,0x27,0x00,0x0d,0x27,0x5f,0x00,
0x26,0x50,0x0b,0x26,0x00,0x00,0x27,0x00,0x0d,0x27,0x50,0x00,0x26,0x41,0x0b,0x26,
0x00,0x00,0x27,0x00,0x0d,0x27,0x41,0x00,0x26,0x32,0x0b,0x26,0x00,0x00,0x27,0x00,
0x0d,0x27,0x32,0x00,0x26,0x23,0x0b,0x26,0x00,0x00,0x27,0x00,0x55,0x27,0x50,0x00,
0x26,0x41,0x0b,0x26,0x00,0x00,0x27,0x00,0x0d,0x27,0x5f,0x00,0x26,0x50,0x0b,0x26,
0x00,0x00,0x27,0x00,0x0d,0x27,0x50,0x00,0x26,0x41,0x0b,0x26,0x00,0x00,0x27,0x00,
0x0d,0x27,0x41,0x00,0x26,0x32,0x0b,0x26,0x00,0x00,0x27,0x00,0x0d,0x27,0x32,0x00,
0x26,0x23,0x0b,0x26,0x00,0x00,0x27,0x00,0x55,0x27,0x50,0x00,0x26,0x41,0x0b,0x26,
0x00,0x00,0x27,0x00,0x0d,0x27,0x5f,0x00,0x26,0x50,0x0b,0x26,0x00,0x00,0x27,0x00,
0x0d,0x27,0x50,0x00,0x26,0x41,0x0b,0x26,0x00,0x00,0x27,0x00,0x0d,0x27,0x41,0x00,
0x26,0x32,0x0b,0x26,0x00,0x00,0x27,0x00,0x0d,0x27,0x32,0x00,0x26,0x23,0x0b,0x26,
0x00,0x00,0x27,0x00,0x55,0x27,0x50,0x00,0x26,0x41,0x0b,0x26,0x00,0x00,0x27,0x00,
0x0d,0x27,0x5f,0x00,0x26,0x50,0x0b,0x26,0x00,0x00,0x27,0x00,0x0d,0x27,0x50,0x00,
0x26,0x41,0x0b,0x26,0x00,0x00,0x27,0x00,0x0d,0x27,0x41,0x00,0x26,0x32,0x0b,0x26,
0x00,0x00,0x27,0x00,0x0d,0x27,0x32,0x00,0x26,0x23,0x0b,0x26,0x00,0x00,0x27,0x00,
0x55,0x27,0x50,0x00,0x26,0x41,0x0b,0x26,0x00,0x00,0x27,0x00,0x0d,0x27,0x5f,0x00,
0x26,0x50,0x0b,0x26,0x00,0x00,0x27,0x00,0x0d,0x27,0x50,0x00,0x26,0x41,0x0b,0x26,
0x00,0x00,0x27,0x00,0x0d,0x27,0x41,0x00,0x26,0x32,0x0b,0x26,0x00,0x00,0x27,0x00,
0x0d,0x27,0x32,0x00,0x26,0x23,0x0b,0x26,0x00,0x00,0x27,0x00,0x55,0x27,0x50,0x00,
0x26,0x41,0x0b,0x26,0x00,0x00,0x27,0x00,0x0d,0x27,0x5f,0x00,0x26,0x50,0x0b,0x26,
0x00,0x00,0x27,0x00,0x0d,0x27,0x50,0x00,0x26,0x41,0x0b,0x26,0x00,0x00,0x27,0x00,
0x0d,0x27,0x41,0x00,0x26,0x32,0x0b,0x26,0x00,0x00,0x27,0x00,0x0d,0x27,0x32,0x00,
0x26,0x23,0x0b,0x26,0x00,0x00,0x27,0x00,0x55,0x27,0x50,0x00,0x26,0x41,0x0b,0x26,
0x00,0x00,0x27,0x00,0x0d,0x27,0x5f,0x00,0x26,0x50,0x0b,0x26,0x00,0x00,0x27,0x00,
0x0d,0x27,0x50,0x00,0x26,0x41,0x0b,0x26,0x00,0x00,0x27,0x00,0x0d,0x27,0x41,0x00,
0x26,0x32,0x0b,0x26,0x00,0x00,0x27,0x00,0x0d,0x27,0x32,0x00,0x26,0x23,0x0b,0x26,
0x00,0x00,0x27,0x00,0x55,0x27,0x50,0x00,0x26,0x41,0x0b,0x26,0x00,0x00,0x27,0x00,
0x0d,0x27,0x5f,0x00,0x26,0x50,0x0b,0x26,0x00,0x00,0x27,0x00,0x0d,0x27,0x50,0x00,
0x26,0x41,0x0b,0x26,0x00,0x00,0x27,0x00,0x0d,0x27,0x41,0x00,0x26,0x32,0x0b,0x26,
0x00,0x00,0x27,0x00,0x0d,0x27,0x32,0x00,0x26,0x23,0x0b,0x26,0x00,0x00,0x27,0x00,
0x55,0x27,0x50,0x00,0x26,0x41,0x0b,0x26,0x00,0x00,0x27,0x00,0x0d,0x27,0x5f,0x00,
0x26,0x50,0x0b,0x26,0x00,0x00,0x27,0x00,0x0d,0x27,0x50,0x00,0x26,0x41,0x0b,0x26,
0x00,0x00,0x27,0x00,0x0d,0x27,0x41,0x00,0x26,0x32,0x0b,0x26,0x00,0x00,0x27,0x00,
0x0d,0x27,0x32,0x00,0x26,0x23,0x0b,0x26,0x00,0x00,0x27,0x00,0x55,0x27,0x50,0x00,
0x26,0x41,0x0b,0x26,0x00,0x00,0x27,0x00,0x0d,0x27,0x5f,0x00,0x26,0x50,0x0b,0x26,
0x00,0x00,0x27,0x00,0x0d,0x27,0x50,0x00,0x26,0x41,0x0b,0x26,0x00,0x00,0x27,0x00,
0x0d,0x27,0x41,0x00,0x26,0x32,0x0b,0x26,0x00,0x00,0x27,0x00,0x0d,0x27,0x32,0x00,
0x26,0x23,0x0b,0x26,0x00,0x00,0x27,0x00,0x55,0x27,0x50,0x00,0x26,0x41,0x0b,0x26,
0x00,0x00,0x27,0x00,0x0d,0x27,0x5f,0x00,0x26,0x50,0x0b,0x26,0x00,0x00,0x27,0x00,
0x0d,0x27,0x50,0x00,0x26,0x41,0x0b,0x26,0x00,0x00,0x27,0x00,0x0d,0x27,0x41,0x00,
0x26,0x32,0x0b,0x26,0x00,0x00,0x27,0x00,0x0d,0x27,0x32,0x00,0x26,0x23,0x0b,0x26,
0x00,0x00,0x27,0x00,0x55,0x27,0x50,0x00,0x26,0x41,0x0b,0x26,0x00,0x00,0x27,0x00,
0x0d,0x27,0x5f,0x00,0x26,0x50,0x0b,0x26,0x00,0x00,0x27,0x00,0x0d,0x27,0x50,0x00,
0x26,0x41,0x0b,0x26,0x00,0x00,0x27,0x00,0x0d,0x27,0x41,0x00,0x26,0x32,0x0b,0x26,
0x00,0x00,0x27,0x00,0x0d,0x27,0x32,0x00,0x26,0x23,0x0b,0x26,0x00,0x00,0x27,0x00,
0x55,0x27,0x50,0x00,0x26,0x41,0x0b,0x26,0x00,0x00,0x27,0x00,0x0d,0x27,0x5f,0x00,
0x26,0x50,0x0b,0x26,0x00,0x00,0x27,0x00,0x0d,0x27,0x50,0x00,0x26,0x41,0x0b,0x26,
0x00,0x00,0x27,0x00,0x0d,0x27,0x41,0x00,0x26,0x32,0x0b,0x26,0x00,0x00,0x27,0x00,
0x0d,0x27,0x32,0x00,0x26,0x23,0x0b,0x26,0x00,0x00,0x27,0x00,0x55,0x27,0x50,0x00,
0x26,0x41,0x0b,0x26,0x00,0x00,0x27,0x00,0x0d,0x27,0x5f,0x00,0x26,0x50,0x0b,0x26,
0x00,0x00,0x27,0x00,0x0d,0x27,0x50,0x00,0x26,0x41,0x0b,0x26,0x00,0x00,0x27,0x00,
0x0d,0x27,0x41,0x00,0x26,0x32,0x0b,0x26,0x00,0x00,0x27,0x00,0x0d,0x27,0x32,0x00,
0x26,0x23,0x0b,0x26,0x00,0x00,0x27,0x00,0x55,0x27,0x50,0x00,0x26,0x41,0x0b,0x26,
0x00,0x00,0x27,0x00,0x0d,0x27,0x5f,0x00,0x26,0x50,0x0b,0x26,0x00,0x00,0x27,0x00,
0x0d,0x27,0x50,0x00,0x26,0x41,0x0b,0x26,0x00,0x00,0x27,0x00,0x0d,0x27,0x41,0x00,
0x26,0x32,0x0b,0x26,0x00,0x00,0x27,0x00,0x0d,0x27,0x32,0x00,0x26,0x23,0x0b,0x26,
0x00,0x00,0x27,0x00,0x55,0x27,0x50,0x00,0x26,0x41,0x0b,0x26,0x00,0x00,0x27,0x00,
0x0d,0x27,0x5f,0x00,0x26,0x50,0x0b,0x26,0x00,0x00,0x27,0x00,0x0d,0x27,0x50,0x00,
0x26,0x41,0x0b,0x26,0x00,0x00,0x27,0x00,0x0d,0x27,0x41,0x00,0x26,0x32,0x0b,0x26,
0x00,0x00,0x27,0x00,0x0d,0x27,0x32,0x00,0x26,0x23,0x0b,0x26,0x00,0x00,0x27,0x00,
0x55,0x27,0x50,0x00,0x26,0x41,0x0b,0x26,0x00,0x00,0x27,0x00,0x0d,0x27,0x5f,0x00,
0x26,0x50,0x0b,0x26,0x00,0x00,0x27,0x00,0x0d,0x27,0x50,0x00,0x26,0x41,0x0b,0x26,
0x00,0x00,0x27,0x00,0x0d,0x27,0x41,0x00,0x26,0x32,0x0b,0x26,0x00,0x00,0x27,0x00,
0x0d,0x27,0x32,0x00,0x26,0x23,0x0b,0x26,0x00,0x00,0x27,0x00,0x55,0x27,0x50,0x00,
0x26,0x41,0x0b,0x26,0x00,0x00,0x27,0x00,0x0d,0x27,0x5f,0x00,0x26,0x50,0x0b,0x26,
0x00,0x00,0x27,0x00,0x0d,0x27,0x50,0x00,0x26,0x41,0x0b,0x26,0x00,0x00,0x27,0x00,
0x0d,0x27,0x41,0x00,0x26,0x32,0x0b,0x26,0x00,0x00,0x27,0x00,0x0d,0x27,0x32,0x00,
0x26,0x23,0x0b,0x26,0x00,0x00,0x27,0x00,0x55,0x27,0x50,0x00,0x26,0x41,0x0b,0x26,
0x00,0x00,0x27,0x00,0x0d,0x27,0x5f,0x00,0x26,0x50,0x0b,0x26,0x00,0x00,0x27,0x00,
0x0d,0x27,0x50,0x00,0x26,0x41,0x0b,0x26,0x00,0x00,0x27,0x00,0x0d,0x27,0x41,0x00,
0x26,0x32,0x0b,0x26,0x00,0x00,0x27,0x00,0x0d,0x27,0x32,0x00,0x26,0x23,0x0b,0x26,
0x00,0x00,0x27,0x00,0x55,0x27,0x50,0x00,0x26,0x41,0x0b,0x26,0x00,0x00,0x27,0x00,
0x0d,0x27,0x5f,0x00,0x26,0x50,0x0b,0x26,0x00,0x00,0x27,0x00,0x0d,0x27,0x50,0x00,
0x26,0x41,0x0b,0x26,0x00,0x00,0x27,0x00,0x0d,0x27,0x41,0x00,0x26,0x32,0x0b,0x26,
0x00,0x00,0x27,0x00,0x0d,0x27,0x32,0x00,0x26,0x23,0x0b,0x26,0x00,0x00,0x27,0x00,
0x55,0x27,0x50,0x00,0x26,0x41,0x0b,0x26,0x00,0x00,0x27,0x00,0x0d,0x27,0x5f,0x00,
0x26,0x50,0x0b,0x26,0x00,0x00,0x27,0x00,0x0d,0x27,0x50,0x00,0x26,0x41,0x0b,0x26,
0x00,0x00,0x27,0x00,0x0d,0x27,0x41,0x00,0x26,0x32,0x0b,0x26,0x00,0x00,0x27,0x00,
0x0d,0x27,0x32,0x00,0x26,0x23,0x0b,0x26,0x00,0x00,0x27,0x00,0x55,0x27,0x50,0x00,
0x26,0x41,0x0b,0x26,0x00,0x00,0x27,0x00,0x0d,0x27,0x5f,0x00,0x26,0x50,0x0b,0x26,
0x00,0x00,0x27,0x00,0x0d,0x27,0x50,0x00,0x26,0x41,0x0b,0x26,0x00,0x00,0x27,0x00,
0x0d,0x27,0x41,0x00,0x26,0x32,0x0b,0x26,0x00,0x00,0x27,0x00,0x0d,0x27,0x32,0x00,
0x26,0x23,0x0b,0x26,0x00,0x00,0x27,0x00,0x55,0x27,0x50,0x00,0x26,0x41,0x0b,0x26,
0x00,0x00,0x27,0x00,0x0d,0x27,0x5f,0x00,0x26,0x50,0x0b,0x26,0x00,0x00,0x27,0x00,
0x0d,0x27,0x50,0x00,0x26,0x41,0x0b,0x26,0x00,0x00,0x27,0x00,0x0d,0x27,0x41,0x00,
0x26,0x32,0x0b,0x26,0x00,0x00,0x27,0x00,0x0d,0x27,0x32,0x00,0x26,0x23,0x0b,0x26,
0x00,0x00,0x27,0x00,0x55,0x27,0x50,0x00,0x26,0x41,0x0b,0x26,0x00,0x00,0x27,0x00,
0x0d,0x27,0x5f,0x00,0x26,0x50,0x0b,0x26,0x00,0x00,0x27,0x00,0x0d,0x27,0x50,0x00,
0x26,0x41,0x0b,0x26,0x00,0x00,0x27,0x00,0x0d,0x27,0x41,0x00,0x26,0x32,0x0b,0x26,
0x00,0x00,0x27,0x00,0x0d,0x27,0x32,0x00,0x26,0x23,0x0b,0x26,0x00,0x00,0x27,0x00,
0x55,0x27,0x50,0x00,0x26,0x41,0x0b,0x26,0x00,0x00,0x27,0x00,0x0d,0x27,0x5f,0x00,
0x26,0x50,0x0b,0x26,0x00,0x00,0x27,0x00,0x0d,0x27,0x50,0x00,0x26,0x41,0x0b,0x26,
0x00,0x00,0x27,0x00,0x0d,0x27,0x41,0x00,0x26,0x32,0x0b,0x26,0x00,0x00,0x27,0x00,
0x0d,0x27,0x32,0x00,0x26,0x23,0x0b,0x26,0x00,0x00,0x27,0x00,0x55,0x27,0x50,0x00,
0x26,0x41,0x0b,0x26,0x00,0x00,0x27,0x00,0x0d,0x27,0x5f,0x00,0x26,0x50,0x0b,0x26,
0x00,0x00,0x27,0x00,0x0d,0x27,0x50,0x00,0x26,0x41,0x0b,0x26,0x00,0x00,0x27,0x00,
0x0d,0x27,0x41,0x00,0x26,0x32,0x0b,0x26,0x00,0x00,0x27,0x00,0x0d,0x27,0x32,0x00,
0x26,0x23,0x0b,0x26,0x00,0x00,0x27,0x00,0x55,0x27,0x50,0x00,0x26,0x41,0x0b,0x26,
0x00,0x00,0x27,0x00,0x0d,0x27,0x5f,0x00,0x26,0x50,0x0b,0x26,0x00,0x00,0x27,0x00,
0x0d,0x27,0x50,0x00,0x26,0x41,0x0b,0x26,0x00,0x00,0x27,0x00,0x0d,0x27,0x41,0x00,
0x26,0x32,0x0b,0x26,0x00,0x00,0x27,0x00,0x0d,0x27,0x32,0x00,0x26,0x23,0x0b,0x26,
0x00,0x00,0x27,0x00,0x55,0x27,0x50,0x00,0x26,0x41,0x0b,0x26,0x00,0x00,0x27,0x00,
0x0d,0x27,0x5f,0x00,0x26,0x50,0x0b,0x26,0x00,0x00,0x27,0x00,0x0d,0x27,0x50,0x00,
0x26,0x41,0x0b,0x26,0x00,0x00,0x27,0x00,0x0d,0x27,0x41,0x00,0x26,0x32,0x0b,0x26,
0x00,0x00,0x27,0x00,0x0d,0x27,0x32,0x00,0x26,0x23,0x0b,0x26,0x00,0x00,0x27,0x00,
0x55,0x27,0x50,0x00,0x26,0x41,0x0b,0x26,0x00,0x00,0x27,0x00,0x0d,0x27,0x5f,0x00,
0x26,0x50,0x0b,0x26,0x00,0x00,0x27,0x00,0x0d,0x27,0x50,0x00,0x26,0x41,0x0b,0x26,
0x00,0x00,0x27,0x00,0x0d,0x27,0x41,0x00,0x26,0x32,0x0b,0x26,0x00,0x00,0x27,0x00,
0x0d,0x27,0x32,0x00,0x26,0x23,0x0b,0x26,0x00,0x00,0x27,0x00,0x00,0xff,0x2f,0x00,
};
