#include <stdint.h>
const uint8_t midifile[] = {
0x4d,0x54,0x68,0x64,0x00,0x00,0x00,0x06,0x00,0x01,0x00,0x11,0x00,0xf0,0x4d,0x54,
0x72,0x6b,0x00,0x00,0x00,0xce,0x00,0xff,0x58,0x04,0x04,0x02,0x18,0x08,0x00,0xff,
0x59,0x02,0x00,0x00,0x00,0xff,0x51,0x03,0x07,0xc2,0x3b,0x87,0x40,0xff,0x06,0x05,
0x70,0x69,0x61,0x6e,0x6f,0x81,0xf0,0x00,0xff,0x06,0x01,0x34,0xbc,0x00,0xff,0x06,
0x09,0x73,0x74,0x72,0x61,0x6e,0x67,0x65,0x72,0x73,0xf8,0x00,0xff,0x06,0x0c,0x69,
0x6e,0x73,0x74,0x72,0x75,0x6d,0x65,0x6e,0x74,0x61,0x6c,0x9e,0x00,0xff,0x06,0x01,
0x35,0xbc,0x00,0xff,0x06,0x01,0x36,0xbc,0x00,0xff,0x06,0x09,0x73,0x74,0x72,0x61,
0x6e,0x67,0x65,0x72,0x73,0xf8,0x00,0xff,0x06,0x0b,0x67,0x75,0x69,0x74,0x61,0x72,
0x20,0x73,0x6f,0x6c,0x6f,0xbc,0x00,0xff,0x06,0x06,0x61,0x64,0x20,0x6c,0x69,0x62,
0x81,0xa6,0x70,0xff,0x51,0x03,0x08,0x66,0x3b,0x81,0x70,0xff,0x51,0x03,0x08,0xb8,
0x25,0x81,0x70,0xff,0x51,0x03,0x08,0xf9,0xcb,0x81,0x70,0xff,0x51,0x03,0x09,0x57,
0x95,0x81,0x70,0xff,0x51,0x03,0x09,0xbd,0x5a,0x81,0x70,0xff,0x51,0x03,0x0a,0x0f,
0x8d,0x81,0x70,0xff,0x51,0x03,0x0a,0x85,0xf7,0x81,0x70,0xff,0x51,0x03,0x0b,0x07,
0xcc,0x00,0xff,0x06,0x03,0x65,0x6e,0x64,0x87,0x40,0xff,0x51,0x03,0x08,0x2c,0xa2,
0x00,0xff,0x2f,0x00,0x4d,0x54,0x72,0x6b,0x00,0x00,0x34,0x55,0x00,0xff,0x21,0x01,
0x00,0x00,0xff,0x03,0x05,0x70,0x69,0x61,0x6e,0x6f,0x00,0xca,0x01,0x00,0xba,0x07,
0x7f,0x00,0xba,0x40,0x7f,0x00,0x40,0x7f,0x87,0x07,0x40,0x00,0x01,0x40,0x00,0x38,
0x9a,0x25,0x7f,0x00,0x3d,0x7f,0x00,0x41,0x7f,0x29,0xba,0x40,0x7f,0x01,0x40,0x7f,
0x36,0x9a,0x41,0x00,0x18,0x38,0x7f,0x07,0x3d,0x00,0x69,0x38,0x00,0x08,0x41,0x7f,
0x00,0x3d,0x7f,0x54,0x41,0x00,0x24,0x38,0x7f,0x09,0x3d,0x00,0x5d,0x38,0x00,0x12,
0x41,0x7f,0x00,0x3d,0x7f,0x61,0x41,0x00,0x17,0x27,0x7f,0x00,0x38,0x7f,0x08,0x3d,
0x00,0x15,0x25,0x00,0x59,0xba,0x40,0x00,0x01,0x40,0x00,0x01,0x9a,0x3d,0x7f,0x00,
0x41,0x7f,0x00,0x29,0x7f,0x08,0x27,0x00,0x02,0x38,0x00,0x64,0x41,0x00,0x02,0x29,
0x00,0x01,0x3d,0x00,0x07,0x38,0x7f,0x00,0x2c,0x7f,0x78,0x3f,0x7f,0x00,0x3c,0x7f,
0x12,0x38,0x00,0x5a,0x3f,0x00,0x0c,0x38,0x7f,0x0c,0x3c,0x00,0x6c,0x3f,0x7f,0x00,
0x3c,0x7f,0x00,0xba,0x40,0x7f,0x01,0x40,0x7f,0x07,0x9a,0x38,0x00,0x68,0x3f,0x00,
0x08,0x3c,0x00,0x00,0x38,0x7f,0x6a,0x38,0x00,0x0e,0x3f,0x7f,0x00,0x3c,0x7f,0x63,
0x3f,0x00,0x15,0x38,0x7f,0x00,0x2e,0x7f,0x02,0x3c,0x00,0x0b,0x2c,0x00,0x01,0xba,
0x40,0x00,0x01,0x40,0x00,0x5b,0x9a,0x38,0x00,0x0e,0x30,0x7f,0x00,0x3f,0x7f,0x00,
0x3c,0x7f,0x04,0x2e,0x00,0x0f,0xba,0x40,0x7f,0x01,0x40,0x7f,0x48,0x9a,0x3f,0x00,
0x10,0x30,0x00,0x05,0x3c,0x00,0x07,0x2e,0x7f,0x00,0x38,0x7f,0x0d,0xba,0x40,0x00,
0x00,0x40,0x00,0x3a,0x9a,0x38,0x00,0x31,0x3d,0x7f,0x00,0x3a,0x7f,0x2c,0xba,0x40,
0x7f,0x01,0x40,0x7f,0x29,0x9a,0x3d,0x00,0x22,0x3a,0x00,0x00,0x35,0x7f,0x55,0x35,
0x00,0x23,0x3d,0x7f,0x00,0x3a,0x7f,0x58,0x3d,0x00,0x1c,0x3a,0x00,0x04,0x35,0x7f,
0x59,0x35,0x00,0x1f,0x3d,0x7f,0x00,0x3a,0x7f,0x52,0x3d,0x00,0x21,0x3a,0x00,0x05,
0x30,0x7f,0x00,0x35,0x7f,0x4d,0x35,0x00,0x11,0x2e,0x00,0x0c,0x30,0x00,0x0e,0x3a,
0x7f,0x00,0x3d,0x7f,0x00,0x31,0x7f,0x02,0xba,0x40,0x00,0x00,0x40,0x00,0x4f,0x9a,
0x3d,0x00,0x15,0x3a,0x00,0x12,0x36,0x7f,0x00,0x2a,0x7f,0x0b,0x31,0x00,0x63,0x36,
0x00,0x0a,0x3a,0x7f,0x00,0x3d,0x7f,0x0b,0xba,0x40,0x7f,0x01,0x40,0x7f,0x56,0x9a,
0x3d,0x00,0x16,0x36,0x7f,0x02,0x3a,0x00,0x63,0x36,0x00,0x13,0x3d,0x7f,0x00,0x3a,
0x7f,0x5e,0x3d,0x00,0x1a,0x3a,0x00,0x00,0x36,0x7f,0x78,0x3d,0x7f,0x00,0x3a,0x7f,
0x03,0x36,0x00,0x6a,0x3d,0x00,0x0b,0x30,0x7f,0x00,0x36,0x7f,0x1a,0x3a,0x00,0x47,
0x36,0x00,0x17,0x31,0x7f,0x00,0x3a,0x7f,0x00,0x3d,0x7f,0x01,0x30,0x00,0x13,0x2a,
0x00,0x32,0x3a,0x00,0x1c,0x3d,0x00,0x16,0x36,0x7f,0x57,0xba,0x40,0x00,0x00,0x40,
0x00,0x17,0x9a,0x36,0x00,0x0a,0x25,0x7f,0x00,0x41,0x7f,0x00,0x3d,0x7f,0x03,0x31,
0x00,0x6e,0xba,0x40,0x7f,0x00,0x40,0x7f,0x07,0x9a,0x38,0x7f,0x07,0x41,0x00,0x0f,
0x3d,0x00,0x62,0x41,0x7f,0x00,0x3d,0x7f,0x02,0x38,0x00,0x4e,0x41,0x00,0x28,0x38,
0x7f,0x08,0x3d,0x00,0x58,0x25,0x00,0x10,0x38,0x00,0x08,0x41,0x7f,0x00,0x3d,0x7f,
0x00,0x25,0x7f,0x45,0x41,0x00,0x31,0x3d,0x00,0x02,0x27,0x7f,0x00,0x38,0x7f,0x09,
0x25,0x00,0x4f,0xba,0x40,0x00,0x00,0x40,0x00,0x0f,0x9a,0x27,0x00,0x0d,0x38,0x00,
0x04,0x3d,0x7f,0x00,0x41,0x7f,0x00,0x29,0x7f,0x70,0x41,0x00,0x08,0x38,0x7f,0x00,
0x2c,0x7f,0x05,0x3d,0x00,0x02,0x29,0x00,0x71,0x3f,0x7f,0x00,0x3c,0x7f,0x0c,0x38,
0x00,0x5d,0x3f,0x00,0x02,0xba,0x40,0x7f,0x00,0x40,0x7f,0x0d,0x9a,0x38,0x7f,0x07,
0x3c,0x00,0x69,0x38,0x00,0x08,0x3f,0x7f,0x00,0x3c,0x7f,0x68,0x3f,0x00,0x09,0x3c,
0x00,0x07,0x38,0x7f,0x78,0x3f,0x7f,0x00,0x3c,0x7f,0x09,0x38,0x00,0x62,0x3f,0x00,
0x0d,0x3c,0x00,0x00,0x38,0x7f,0x00,0x2e,0x7f,0x14,0x2c,0x00,0x07,0xba,0x40,0x00,
0x00,0x40,0x00,0x59,0x9a,0x2e,0x00,0x02,0x38,0x00,0x02,0x3f,0x7f,0x00,0x3c,0x7f,
0x00,0x30,0x7f,0x04,0xba,0x40,0x7f,0x01,0x40,0x7f,0x6c,0x9a,0x3f,0x00,0x01,0x3c,
0x00,0x06,0x30,0x00,0x00,0x29,0x7f,0x00,0x38,0x7f,0x09,0xba,0x40,0x00,0x00,0x40,
0x00,0x43,0x9a,0x38,0x00,0x24,0xba,0x40,0x7f,0x01,0x40,0x7f,0x07,0x9a,0x3c,0x7f,
0x00,0x38,0x7f,0x60,0x3c,0x00,0x0b,0x38,0x00,0x0d,0x35,0x7f,0x5a,0x35,0x00,0x1e,
0x3c,0x7f,0x00,0x38,0x7f,0x6c,0x3c,0x00,0x0c,0x35,0x7f,0x0c,0x38,0x00,0x3f,0x29,
0x00,0x15,0x35,0x00,0x18,0x3c,0x7f,0x00,0x29,0x7f,0x00,0x38,0x7f,0x55,0x3c,0x00,
0x17,0x29,0x00,0x0c,0x31,0x7f,0x00,0x35,0x7f,0x1c,0x38,0x00,0x3b,0x35,0x00,0x1a,
0x31,0x00,0x07,0x38,0x7f,0x00,0x3c,0x7f,0x00,0x29,0x7f,0x19,0xba,0x40,0x00,0x00,
0x40,0x00,0x55,0x9a,0x3c,0x00,0x00,0x38,0x00,0x0a,0x2a,0x7f,0x00,0x35,0x7f,0x17,
0x29,0x00,0x54,0x35,0x00,0x0d,0x3a,0x7f,0x00,0x3d,0x7f,0x12,0xba,0x40,0x7f,0x01,
0x40,0x7f,0x56,0x9a,0x3d,0x00,0x0f,0x36,0x7f,0x07,0x3a,0x00,0x5e,0x36,0x00,0x13,
0x3a,0x7f,0x00,0x3d,0x7f,0x65,0x3d,0x00,0x13,0x3a,0x00,0x00,0x36,0x7f,0x6d,0x36,
0x00,0x0b,0x3d,0x7f,0x00,0x3a,0x7f,0x58,0x3d,0x00,0x20,0x36,0x7f,0x00,0x30,0x7f,
0x01,0x3a,0x00,0x1d,0x2a,0x00,0x1c,0xba,0x40,0x00,0x00,0x40,0x00,0x3e,0x9a,0x3a,
0x7f,0x00,0x3d,0x7f,0x00,0x31,0x7f,0x07,0x30,0x00,0x08,0x36,0x00,0x09,0xba,0x40,
0x7f,0x01,0x40,0x7f,0x5e,0x9a,0x3d,0x00,0x01,0x36,0x7f,0x02,0xba,0x40,0x00,0x00,
0x40,0x00,0x0a,0x9a,0x3a,0x00,0x42,0x31,0x00,0x0f,0x36,0x00,0x1b,0x25,0x7f,0x00,
0x3d,0x7f,0x00,0x41,0x7f,0x29,0xba,0x40,0x7f,0x01,0x40,0x7f,0x36,0x9a,0x41,0x00,
0x18,0x38,0x7f,0x07,0x3d,0x00,0x69,0x38,0x00,0x08,0x41,0x7f,0x00,0x3d,0x7f,0x54,
0x41,0x00,0x24,0x38,0x7f,0x09,0x3d,0x00,0x5d,0x38,0x00,0x12,0x41,0x7f,0x00,0x3d,
0x7f,0x61,0x41,0x00,0x17,0x27,0x7f,0x00,0x38,0x7f,0x08,0x3d,0x00,0x15,0x25,0x00,
0x59,0xba,0x40,0x00,0x01,0x40,0x00,0x01,0x9a,0x3d,0x7f,0x00,0x41,0x7f,0x00,0x29,
0x7f,0x08,0x27,0x00,0x02,0x38,0x00,0x64,0x41,0x00,0x02,0x29,0x00,0x01,0x3d,0x00,
0x07,0x38,0x7f,0x00,0x2c,0x7f,0x78,0x3f,0x7f,0x00,0x3c,0x7f,0x12,0x38,0x00,0x5a,
0x3f,0x00,0x0c,0x38,0x7f,0x0c,0x3c,0x00,0x6c,0x3f,0x7f,0x00,0x3c,0x7f,0x00,0xba,
0x40,0x7f,0x01,0x40,0x7f,0x07,0x9a,0x38,0x00,0x68,0x3f,0x00,0x08,0x3c,0x00,0x00,
0x38,0x7f,0x6a,0x38,0x00,0x0e,0x3f,0x7f,0x00,0x3c,0x7f,0x63,0x3f,0x00,0x15,0x38,
0x7f,0x00,0x2e,0x7f,0x02,0x3c,0x00,0x0b,0x2c,0x00,0x01,0xba,0x40,0x00,0x01,0x40,
0x00,0x5b,0x9a,0x38,0x00,0x0e,0x30,0x7f,0x00,0x3f,0x7f,0x00,0x3c,0x7f,0x04,0x2e,
0x00,0x0f,0xba,0x40,0x7f,0x01,0x40,0x7f,0x48,0x9a,0x3f,0x00,0x10,0x30,0x00,0x05,
0x3c,0x00,0x07,0x2e,0x7f,0x00,0x38,0x7f,0x0d,0xba,0x40,0x00,0x00,0x40,0x00,0x3a,
0x9a,0x38,0x00,0x31,0x3d,0x7f,0x00,0x3a,0x7f,0x2c,0xba,0x40,0x7f,0x01,0x40,0x7f,
0x29,0x9a,0x3d,0x00,0x22,0x3a,0x00,0x00,0x35,0x7f,0x55,0x35,0x00,0x23,0x3d,0x7f,
0x00,0x3a,0x7f,0x58,0x3d,0x00,0x1c,0x3a,0x00,0x04,0x35,0x7f,0x59,0x35,0x00,0x1f,
0x3d,0x7f,0x00,0x3a,0x7f,0x52,0x3d,0x00,0x21,0x3a,0x00,0x05,0x30,0x7f,0x00,0x35,
0x7f,0x4d,0x35,0x00,0x11,0x2e,0x00,0x0c,0x30,0x00,0x0e,0x3a,0x7f,0x00,0x3d,0x7f,
0x00,0x31,0x7f,0x02,0xba,0x40,0x00,0x00,0x40,0x00,0x4f,0x9a,0x3d,0x00,0x15,0x3a,
0x00,0x12,0x36,0x7f,0x00,0x2a,0x7f,0x0b,0x31,0x00,0x63,0x36,0x00,0x0a,0x3a,0x7f,
0x00,0x3d,0x7f,0x0b,0xba,0x40,0x7f,0x01,0x40,0x7f,0x56,0x9a,0x3d,0x00,0x16,0x36,
0x7f,0x02,0x3a,0x00,0x63,0x36,0x00,0x13,0x3d,0x7f,0x00,0x3a,0x7f,0x5e,0x3d,0x00,
0x1a,0x3a,0x00,0x00,0x36,0x7f,0x78,0x3d,0x7f,0x00,0x3a,0x7f,0x03,0x36,0x00,0x6a,
0x3d,0x00,0x0b,0x30,0x7f,0x00,0x36,0x7f,0x1a,0x3a,0x00,0x47,0x36,0x00,0x17,0x31,
0x7f,0x00,0x3a,0x7f,0x00,0x3d,0x7f,0x01,0x30,0x00,0x13,0x2a,0x00,0x32,0x3a,0x00,
0x1c,0x3d,0x00,0x16,0x36,0x7f,0x57,0xba,0x40,0x00,0x00,0x40,0x00,0x17,0x9a,0x36,
0x00,0x0a,0x25,0x7f,0x00,0x41,0x7f,0x00,0x3d,0x7f,0x03,0x31,0x00,0x6e,0xba,0x40,
0x7f,0x00,0x40,0x7f,0x07,0x9a,0x38,0x7f,0x07,0x41,0x00,0x0f,0x3d,0x00,0x62,0x41,
0x7f,0x00,0x3d,0x7f,0x02,0x38,0x00,0x4e,0x41,0x00,0x28,0x38,0x7f,0x08,0x3d,0x00,
0x58,0x25,0x00,0x10,0x38,0x00,0x08,0x41,0x7f,0x00,0x3d,0x7f,0x00,0x25,0x7f,0x45,
0x41,0x00,0x31,0x3d,0x00,0x02,0x27,0x7f,0x00,0x38,0x7f,0x09,0x25,0x00,0x4f,0xba,
0x40,0x00,0x00,0x40,0x00,0x0f,0x9a,0x27,0x00,0x0d,0x38,0x00,0x04,0x3d,0x7f,0x00,
0x41,0x7f,0x00,0x29,0x7f,0x70,0x41,0x00,0x08,0x38,0x7f,0x00,0x2c,0x7f,0x05,0x3d,
0x00,0x02,0x29,0x00,0x71,0x3f,0x7f,0x00,0x3c,0x7f,0x0c,0x38,0x00,0x5d,0x3f,0x00,
0x02,0xba,0x40,0x7f,0x00,0x40,0x7f,0x0d,0x9a,0x38,0x7f,0x07,0x3c,0x00,0x69,0x38,
0x00,0x08,0x3f,0x7f,0x00,0x3c,0x7f,0x68,0x3f,0x00,0x09,0x3c,0x00,0x07,0x38,0x7f,
0x78,0x3f,0x7f,0x00,0x3c,0x7f,0x09,0x38,0x00,0x62,0x3f,0x00,0x0d,0x3c,0x00,0x00,
0x38,0x7f,0x00,0x2e,0x7f,0x14,0x2c,0x00,0x07,0xba,0x40,0x00,0x00,0x40,0x00,0x59,
0x9a,0x2e,0x00,0x02,0x38,0x00,0x02,0x3f,0x7f,0x00,0x3c,0x7f,0x00,0x30,0x7f,0x04,
0xba,0x40,0x7f,0x01,0x40,0x7f,0x6c,0x9a,0x3f,0x00,0x01,0x3c,0x00,0x06,0x30,0x00,
0x00,0x29,0x7f,0x00,0x38,0x7f,0x09,0xba,0x40,0x00,0x00,0x40,0x00,0x43,0x9a,0x38,
0x00,0x24,0xba,0x40,0x7f,0x01,0x40,0x7f,0x07,0x9a,0x3c,0x7f,0x00,0x38,0x7f,0x60,
0x3c,0x00,0x0b,0x38,0x00,0x0d,0x35,0x7f,0x5a,0x35,0x00,0x1e,0x3c,0x7f,0x00,0x38,
0x7f,0x6c,0x3c,0x00,0x0c,0x35,0x7f,0x0c,0x38,0x00,0x3f,0x29,0x00,0x15,0x35,0x00,
0x18,0x3c,0x7f,0x00,0x29,0x7f,0x00,0x38,0x7f,0x55,0x3c,0x00,0x17,0x29,0x00,0x0c,
0x31,0x7f,0x00,0x35,0x7f,0x1c,0x38,0x00,0x3b,0x35,0x00,0x1a,0x31,0x00,0x07,0x38,
0x7f,0x00,0x3c,0x7f,0x00,0x29,0x7f,0x19,0xba,0x40,0x00,0x00,0x40,0x00,0x55,0x9a,
0x3c,0x00,0x00,0x38,0x00,0x0a,0x2a,0x7f,0x00,0x35,0x7f,0x17,0x29,0x00,0x54,0x35,
0x00,0x0d,0x3a,0x7f,0x00,0x3d,0x7f,0x12,0xba,0x40,0x7f,0x01,0x40,0x7f,0x56,0x9a,
0x3d,0x00,0x0f,0x36,0x7f,0x07,0x3a,0x00,0x5e,0x36,0x00,0x13,0x3a,0x7f,0x00,0x3d,
0x7f,0x65,0x3d,0x00,0x13,0x3a,0x00,0x00,0x36,0x7f,0x6d,0x36,0x00,0x0b,0x3d,0x7f,
0x00,0x3a,0x7f,0x58,0x3d,0x00,0x20,0x36,0x7f,0x00,0x30,0x7f,0x01,0x3a,0x00,0x1d,
0x2a,0x00,0x1c,0xba,0x40,0x00,0x00,0x40,0x00,0x3e,0x9a,0x3a,0x7f,0x00,0x3d,0x7f,
0x00,0x31,0x7f,0x07,0x30,0x00,0x08,0x36,0x00,0x09,0xba,0x40,0x7f,0x01,0x40,0x7f,
0x5e,0x9a,0x3d,0x00,0x01,0x36,0x7f,0x02,0xba,0x40,0x00,0x00,0x40,0x00,0x0a,0x9a,
0x3a,0x00,0x42,0x31,0x00,0x0f,0x36,0x00,0x1b,0x25,0x7f,0x00,0x3d,0x7f,0x00,0x41,
0x7f,0x29,0xba,0x40,0x7f,0x01,0x40,0x7f,0x36,0x9a,0x41,0x00,0x18,0x38,0x7f,0x07,
0x3d,0x00,0x69,0x38,0x00,0x08,0x41,0x7f,0x00,0x3d,0x7f,0x54,0x41,0x00,0x24,0x38,
0x7f,0x09,0x3d,0x00,0x5d,0x38,0x00,0x12,0x41,0x7f,0x00,0x3d,0x7f,0x61,0x41,0x00,
0x17,0x27,0x7f,0x00,0x38,0x7f,0x08,0x3d,0x00,0x15,0x25,0x00,0x59,0xba,0x40,0x00,
0x01,0x40,0x00,0x01,0x9a,0x3d,0x7f,0x00,0x41,0x7f,0x00,0x29,0x7f,0x08,0x27,0x00,
0x02,0x38,0x00,0x64,0x41,0x00,0x02,0x29,0x00,0x01,0x3d,0x00,0x07,0x38,0x7f,0x00,
0x2c,0x7f,0x78,0x3f,0x7f,0x00,0x3c,0x7f,0x12,0x38,0x00,0x5a,0x3f,0x00,0x0c,0x38,
0x7f,0x0c,0x3c,0x00,0x6c,0x3f,0x7f,0x00,0x3c,0x7f,0x00,0xba,0x40,0x7f,0x01,0x40,
0x7f,0x07,0x9a,0x38,0x00,0x68,0x3f,0x00,0x08,0x3c,0x00,0x00,0x38,0x7f,0x6a,0x38,
0x00,0x0e,0x3f,0x7f,0x00,0x3c,0x7f,0x63,0x3f,0x00,0x15,0x38,0x7f,0x00,0x2e,0x7f,
0x02,0x3c,0x00,0x0b,0x2c,0x00,0x01,0xba,0x40,0x00,0x01,0x40,0x00,0x5b,0x9a,0x38,
0x00,0x0e,0x30,0x7f,0x00,0x3f,0x7f,0x00,0x3c,0x7f,0x04,0x2e,0x00,0x0f,0xba,0x40,
0x7f,0x01,0x40,0x7f,0x48,0x9a,0x3f,0x00,0x10,0x30,0x00,0x05,0x3c,0x00,0x07,0x2e,
0x7f,0x00,0x38,0x7f,0x0d,0xba,0x40,0x00,0x00,0x40,0x00,0x3a,0x9a,0x38,0x00,0x31,
0x3d,0x7f,0x00,0x3a,0x7f,0x2c,0xba,0x40,0x7f,0x01,0x40,0x7f,0x29,0x9a,0x3d,0x00,
0x22,0x3a,0x00,0x00,0x35,0x7f,0x55,0x35,0x00,0x23,0x3d,0x7f,0x00,0x3a,0x7f,0x58,
0x3d,0x00,0x1c,0x3a,0x00,0x04,0x35,0x7f,0x59,0x35,0x00,0x1f,0x3d,0x7f,0x00,0x3a,
0x7f,0x52,0x3d,0x00,0x21,0x3a,0x00,0x05,0x30,0x7f,0x00,0x35,0x7f,0x4d,0x35,0x00,
0x11,0x2e,0x00,0x0c,0x30,0x00,0x0e,0x3a,0x7f,0x00,0x3d,0x7f,0x00,0x31,0x7f,0x02,
0xba,0x40,0x00,0x00,0x40,0x00,0x4f,0x9a,0x3d,0x00,0x15,0x3a,0x00,0x12,0x36,0x7f,
0x00,0x2a,0x7f,0x0b,0x31,0x00,0x63,0x36,0x00,0x0a,0x3a,0x7f,0x00,0x3d,0x7f,0x0b,
0xba,0x40,0x7f,0x01,0x40,0x7f,0x56,0x9a,0x3d,0x00,0x16,0x36,0x7f,0x02,0x3a,0x00,
0x63,0x36,0x00,0x13,0x3d,0x7f,0x00,0x3a,0x7f,0x5e,0x3d,0x00,0x1a,0x3a,0x00,0x00,
0x36,0x7f,0x78,0x3d,0x7f,0x00,0x3a,0x7f,0x03,0x36,0x00,0x6a,0x3d,0x00,0x0b,0x30,
0x7f,0x00,0x36,0x7f,0x1a,0x3a,0x00,0x47,0x36,0x00,0x17,0x31,0x7f,0x00,0x3a,0x7f,
0x00,0x3d,0x7f,0x01,0x30,0x00,0x13,0x2a,0x00,0x32,0x3a,0x00,0x1c,0x3d,0x00,0x16,
0x36,0x7f,0x57,0xba,0x40,0x00,0x00,0x40,0x00,0x17,0x9a,0x36,0x00,0x0a,0x25,0x7f,
0x00,0x41,0x7f,0x00,0x3d,0x7f,0x03,0x31,0x00,0x6e,0xba,0x40,0x7f,0x00,0x40,0x7f,
0x07,0x9a,0x38,0x7f,0x07,0x41,0x00,0x0f,0x3d,0x00,0x62,0x41,0x7f,0x00,0x3d,0x7f,
0x02,0x38,0x00,0x4e,0x41,0x00,0x28,0x38,0x7f,0x08,0x3d,0x00,0x58,0x25,0x00,0x10,
0x38,0x00,0x08,0x41,0x7f,0x00,0x3d,0x7f,0x00,0x25,0x7f,0x45,0x41,0x00,0x31,0x3d,
0x00,0x02,0x27,0x7f,0x00,0x38,0x7f,0x09,0x25,0x00,0x4f,0xba,0x40,0x00,0x00,0x40,
0x00,0x0f,0x9a,0x27,0x00,0x0d,0x38,0x00,0x04,0x3d,0x7f,0x00,0x41,0x7f,0x00,0x29,
0x7f,0x70,0x41,0x00,0x08,0x38,0x7f,0x00,0x2c,0x7f,0x05,0x3d,0x00,0x02,0x29,0x00,
0x71,0x3f,0x7f,0x00,0x3c,0x7f,0x0c,0x38,0x00,0x5d,0x3f,0x00,0x02,0xba,0x40,0x7f,
0x00,0x40,0x7f,0x0d,0x9a,0x38,0x7f,0x07,0x3c,0x00,0x69,0x38,0x00,0x08,0x3f,0x7f,
0x00,0x3c,0x7f,0x68,0x3f,0x00,0x09,0x3c,0x00,0x07,0x38,0x7f,0x78,0x3f,0x7f,0x00,
0x3c,0x7f,0x09,0x38,0x00,0x62,0x3f,0x00,0x0d,0x3c,0x00,0x00,0x38,0x7f,0x00,0x2e,
0x7f,0x14,0x2c,0x00,0x07,0xba,0x40,0x00,0x00,0x40,0x00,0x59,0x9a,0x2e,0x00,0x02,
0x38,0x00,0x02,0x3f,0x7f,0x00,0x3c,0x7f,0x00,0x30,0x7f,0x04,0xba,0x40,0x7f,0x01,
0x40,0x7f,0x6c,0x9a,0x3f,0x00,0x01,0x3c,0x00,0x06,0x30,0x00,0x00,0x29,0x7f,0x00,
0x38,0x7f,0x09,0xba,0x40,0x00,0x00,0x40,0x00,0x43,0x9a,0x38,0x00,0x24,0xba,0x40,
0x7f,0x01,0x40,0x7f,0x07,0x9a,0x3c,0x7f,0x00,0x38,0x7f,0x60,0x3c,0x00,0x0b,0x38,
0x00,0x0d,0x35,0x7f,0x5a,0x35,0x00,0x1e,0x3c,0x7f,0x00,0x38,0x7f,0x6c,0x3c,0x00,
0x0c,0x35,0x7f,0x0c,0x38,0x00,0x3f,0x29,0x00,0x15,0x35,0x00,0x18,0x3c,0x7f,0x00,
0x29,0x7f,0x00,0x38,0x7f,0x55,0x3c,0x00,0x17,0x29,0x00,0x0c,0x31,0x7f,0x00,0x35,
0x7f,0x1c,0x38,0x00,0x3b,0x35,0x00,0x1a,0x31,0x00,0x07,0x38,0x7f,0x00,0x3c,0x7f,
0x00,0x29,0x7f,0x19,0xba,0x40,0x00,0x00,0x40,0x00,0x55,0x9a,0x3c,0x00,0x00,0x38,
0x00,0x0a,0x2a,0x7f,0x00,0x35,0x7f,0x17,0x29,0x00,0x54,0x35,0x00,0x0d,0x3a,0x7f,
0x00,0x3d,0x7f,0x12,0xba,0x40,0x7f,0x01,0x40,0x7f,0x56,0x9a,0x3d,0x00,0x0f,0x36,
0x7f,0x07,0x3a,0x00,0x5e,0x36,0x00,0x13,0x3a,0x7f,0x00,0x3d,0x7f,0x65,0x3d,0x00,
0x13,0x3a,0x00,0x00,0x36,0x7f,0x6d,0x36,0x00,0x0b,0x3d,0x7f,0x00,0x3a,0x7f,0x58,
0x3d,0x00,0x20,0x36,0x7f,0x00,0x30,0x7f,0x01,0x3a,0x00,0x1d,0x2a,0x00,0x1c,0xba,
0x40,0x00,0x00,0x40,0x00,0x3e,0x9a,0x3a,0x7f,0x00,0x3d,0x7f,0x00,0x31,0x7f,0x07,
0x30,0x00,0x08,0x36,0x00,0x09,0xba,0x40,0x7f,0x01,0x40,0x7f,0x5e,0x9a,0x3d,0x00,
0x01,0x36,0x7f,0x02,0xba,0x40,0x00,0x00,0x40,0x00,0x0a,0x9a,0x3a,0x00,0x42,0x31,
0x00,0x0f,0x36,0x00,0x1b,0x25,0x7f,0x00,0x3d,0x7f,0x00,0x41,0x7f,0x29,0xba,0x40,
0x7f,0x01,0x40,0x7f,0x36,0x9a,0x41,0x00,0x18,0x38,0x7f,0x07,0x3d,0x00,0x69,0x38,
0x00,0x08,0x41,0x7f,0x00,0x3d,0x7f,0x54,0x41,0x00,0x24,0x38,0x7f,0x09,0x3d,0x00,
0x5d,0x38,0x00,0x12,0x41,0x7f,0x00,0x3d,0x7f,0x61,0x41,0x00,0x17,0x27,0x7f,0x00,
0x38,0x7f,0x08,0x3d,0x00,0x15,0x25,0x00,0x59,0xba,0x40,0x00,0x01,0x40,0x00,0x01,
0x9a,0x3d,0x7f,0x00,0x41,0x7f,0x00,0x29,0x7f,0x08,0x27,0x00,0x02,0x38,0x00,0x64,
0x41,0x00,0x02,0x29,0x00,0x01,0x3d,0x00,0x07,0x38,0x7f,0x00,0x2c,0x7f,0x78,0x3f,
0x7f,0x00,0x3c,0x7f,0x12,0x38,0x00,0x5a,0x3f,0x00,0x0c,0x38,0x7f,0x0c,0x3c,0x00,
0x6c,0x3f,0x7f,0x00,0x3c,0x7f,0x00,0xba,0x40,0x7f,0x01,0x40,0x7f,0x07,0x9a,0x38,
0x00,0x68,0x3f,0x00,0x08,0x3c,0x00,0x00,0x38,0x7f,0x6a,0x38,0x00,0x0e,0x3f,0x7f,
0x00,0x3c,0x7f,0x63,0x3f,0x00,0x15,0x38,0x7f,0x00,0x2e,0x7f,0x02,0x3c,0x00,0x0b,
0x2c,0x00,0x01,0xba,0x40,0x00,0x01,0x40,0x00,0x5b,0x9a,0x38,0x00,0x0e,0x30,0x7f,
0x00,0x3f,0x7f,0x00,0x3c,0x7f,0x04,0x2e,0x00,0x0f,0xba,0x40,0x7f,0x01,0x40,0x7f,
0x48,0x9a,0x3f,0x00,0x10,0x30,0x00,0x05,0x3c,0x00,0x07,0x2e,0x7f,0x00,0x38,0x7f,
0x0d,0xba,0x40,0x00,0x00,0x40,0x00,0x3a,0x9a,0x38,0x00,0x31,0x3d,0x7f,0x00,0x3a,
0x7f,0x2c,0xba,0x40,0x7f,0x01,0x40,0x7f,0x29,0x9a,0x3d,0x00,0x22,0x3a,0x00,0x00,
0x35,0x7f,0x55,0x35,0x00,0x23,0x3d,0x7f,0x00,0x3a,0x7f,0x58,0x3d,0x00,0x1c,0x3a,
0x00,0x04,0x35,0x7f,0x59,0x35,0x00,0x1f,0x3d,0x7f,0x00,0x3a,0x7f,0x52,0x3d,0x00,
0x21,0x3a,0x00,0x05,0x30,0x7f,0x00,0x35,0x7f,0x4d,0x35,0x00,0x11,0x2e,0x00,0x0c,
0x30,0x00,0x0e,0x3a,0x7f,0x00,0x3d,0x7f,0x00,0x31,0x7f,0x02,0xba,0x40,0x00,0x00,
0x40,0x00,0x4f,0x9a,0x3d,0x00,0x15,0x3a,0x00,0x12,0x36,0x7f,0x00,0x2a,0x7f,0x0b,
0x31,0x00,0x63,0x36,0x00,0x0a,0x3a,0x7f,0x00,0x3d,0x7f,0x0b,0xba,0x40,0x7f,0x01,
0x40,0x7f,0x56,0x9a,0x3d,0x00,0x16,0x36,0x7f,0x02,0x3a,0x00,0x63,0x36,0x00,0x13,
0x3d,0x7f,0x00,0x3a,0x7f,0x5e,0x3d,0x00,0x1a,0x3a,0x00,0x00,0x36,0x7f,0x78,0x3d,
0x7f,0x00,0x3a,0x7f,0x03,0x36,0x00,0x6a,0x3d,0x00,0x0b,0x30,0x7f,0x00,0x36,0x7f,
0x1a,0x3a,0x00,0x47,0x36,0x00,0x17,0x31,0x7f,0x00,0x3a,0x7f,0x00,0x3d,0x7f,0x01,
0x30,0x00,0x13,0x2a,0x00,0x32,0x3a,0x00,0x1c,0x3d,0x00,0x16,0x36,0x7f,0x57,0xba,
0x40,0x00,0x00,0x40,0x00,0x17,0x9a,0x36,0x00,0x0a,0x25,0x7f,0x00,0x41,0x7f,0x00,
0x3d,0x7f,0x03,0x31,0x00,0x6e,0xba,0x40,0x7f,0x00,0x40,0x7f,0x07,0x9a,0x38,0x7f,
0x07,0x41,0x00,0x0f,0x3d,0x00,0x62,0x41,0x7f,0x00,0x3d,0x7f,0x02,0x38,0x00,0x4e,
0x41,0x00,0x28,0x38,0x7f,0x08,0x3d,0x00,0x58,0x25,0x00,0x10,0x38,0x00,0x08,0x41,
0x7f,0x00,0x3d,0x7f,0x00,0x25,0x7f,0x45,0x41,0x00,0x31,0x3d,0x00,0x02,0x27,0x7f,
0x00,0x38,0x7f,0x09,0x25,0x00,0x4f,0xba,0x40,0x00,0x00,0x40,0x00,0x0f,0x9a,0x27,
0x00,0x0d,0x38,0x00,0x04,0x3d,0x7f,0x00,0x41,0x7f,0x00,0x29,0x7f,0x70,0x41,0x00,
0x08,0x38,0x7f,0x00,0x2c,0x7f,0x05,0x3d,0x00,0x02,0x29,0x00,0x71,0x3f,0x7f,0x00,
0x3c,0x7f,0x0c,0x38,0x00,0x5d,0x3f,0x00,0x02,0xba,0x40,0x7f,0x00,0x40,0x7f,0x0d,
0x9a,0x38,0x7f,0x07,0x3c,0x00,0x69,0x38,0x00,0x08,0x3f,0x7f,0x00,0x3c,0x7f,0x68,
0x3f,0x00,0x09,0x3c,0x00,0x07,0x38,0x7f,0x78,0x3f,0x7f,0x00,0x3c,0x7f,0x09,0x38,
0x00,0x62,0x3f,0x00,0x0d,0x3c,0x00,0x00,0x38,0x7f,0x00,0x2e,0x7f,0x14,0x2c,0x00,
0x07,0xba,0x40,0x00,0x00,0x40,0x00,0x59,0x9a,0x2e,0x00,0x02,0x38,0x00,0x02,0x3f,
0x7f,0x00,0x3c,0x7f,0x00,0x30,0x7f,0x04,0xba,0x40,0x7f,0x01,0x40,0x7f,0x6c,0x9a,
0x3f,0x00,0x01,0x3c,0x00,0x06,0x30,0x00,0x00,0x29,0x7f,0x00,0x38,0x7f,0x09,0xba,
0x40,0x00,0x00,0x40,0x00,0x43,0x9a,0x38,0x00,0x24,0xba,0x40,0x7f,0x01,0x40,0x7f,
0x07,0x9a,0x3c,0x7f,0x00,0x38,0x7f,0x60,0x3c,0x00,0x0b,0x38,0x00,0x0d,0x35,0x7f,
0x5a,0x35,0x00,0x1e,0x3c,0x7f,0x00,0x38,0x7f,0x6c,0x3c,0x00,0x0c,0x35,0x7f,0x0c,
0x38,0x00,0x3f,0x29,0x00,0x15,0x35,0x00,0x18,0x3c,0x7f,0x00,0x29,0x7f,0x00,0x38,
0x7f,0x55,0x3c,0x00,0x17,0x29,0x00,0x0c,0x31,0x7f,0x00,0x35,0x7f,0x1c,0x38,0x00,
0x3b,0x35,0x00,0x1a,0x31,0x00,0x07,0x38,0x7f,0x00,0x3c,0x7f,0x00,0x29,0x7f,0x19,
0xba,0x40,0x00,0x00,0x40,0x00,0x55,0x9a,0x3c,0x00,0x00,0x38,0x00,0x0a,0x2a,0x7f,
0x00,0x35,0x7f,0x17,0x29,0x00,0x54,0x35,0x00,0x0d,0x3a,0x7f,0x00,0x3d,0x7f,0x12,
0xba,0x40,0x7f,0x01,0x40,0x7f,0x56,0x9a,0x3d,0x00,0x0f,0x36,0x7f,0x07,0x3a,0x00,
0x5e,0x36,0x00,0x13,0x3a,0x7f,0x00,0x3d,0x7f,0x65,0x3d,0x00,0x13,0x3a,0x00,0x00,
0x36,0x7f,0x6d,0x36,0x00,0x0b,0x3d,0x7f,0x00,0x3a,0x7f,0x58,0x3d,0x00,0x20,0x36,
0x7f,0x00,0x30,0x7f,0x01,0x3a,0x00,0x1d,0x2a,0x00,0x1c,0xba,0x40,0x00,0x00,0x40,
0x00,0x3e,0x9a,0x3a,0x7f,0x00,0x3d,0x7f,0x00,0x31,0x7f,0x07,0x30,0x00,0x08,0x36,
0x00,0x09,0xba,0x40,0x7f,0x01,0x40,0x7f,0x5e,0x9a,0x3d,0x00,0x01,0x36,0x7f,0x02,
0xba,0x40,0x00,0x00,0x40,0x00,0x0a,0x9a,0x3a,0x00,0x42,0x31,0x00,0x0f,0x36,0x00,
0x1b,0x25,0x7f,0x00,0x3d,0x7f,0x00,0x41,0x7f,0x29,0xba,0x40,0x7f,0x01,0x40,0x7f,
0x36,0x9a,0x41,0x00,0x18,0x38,0x7f,0x07,0x3d,0x00,0x69,0x38,0x00,0x08,0x41,0x7f,
0x00,0x3d,0x7f,0x54,0x41,0x00,0x24,0x38,0x7f,0x09,0x3d,0x00,0x5d,0x38,0x00,0x12,
0x41,0x7f,0x00,0x3d,0x7f,0x61,0x41,0x00,0x17,0x27,0x7f,0x00,0x38,0x7f,0x08,0x3d,
0x00,0x15,0x25,0x00,0x59,0xba,0x40,0x00,0x01,0x40,0x00,0x01,0x9a,0x3d,0x7f,0x00,
0x41,0x7f,0x00,0x29,0x7f,0x08,0x27,0x00,0x02,0x38,0x00,0x64,0x41,0x00,0x02,0x29,
0x00,0x01,0x3d,0x00,0x07,0x38,0x7f,0x00,0x2c,0x7f,0x78,0x3f,0x7f,0x00,0x3c,0x7f,
0x12,0x38,0x00,0x5a,0x3f,0x00,0x0c,0x38,0x7f,0x0c,0x3c,0x00,0x6c,0x3f,0x7f,0x00,
0x3c,0x7f,0x00,0xba,0x40,0x7f,0x01,0x40,0x7f,0x07,0x9a,0x38,0x00,0x68,0x3f,0x00,
0x08,0x3c,0x00,0x00,0x38,0x7f,0x6a,0x38,0x00,0x0e,0x3f,0x7f,0x00,0x3c,0x7f,0x63,
0x3f,0x00,0x15,0x38,0x7f,0x00,0x2e,0x7f,0x02,0x3c,0x00,0x0b,0x2c,0x00,0x01,0xba,
0x40,0x00,0x01,0x40,0x00,0x5b,0x9a,0x38,0x00,0x0e,0x30,0x7f,0x00,0x3f,0x7f,0x00,
0x3c,0x7f,0x04,0x2e,0x00,0x0f,0xba,0x40,0x7f,0x01,0x40,0x7f,0x48,0x9a,0x3f,0x00,
0x10,0x30,0x00,0x05,0x3c,0x00,0x07,0x2e,0x7f,0x00,0x38,0x7f,0x0d,0xba,0x40,0x00,
0x00,0x40,0x00,0x3a,0x9a,0x38,0x00,0x31,0x3d,0x7f,0x00,0x3a,0x7f,0x2c,0xba,0x40,
0x7f,0x01,0x40,0x7f,0x29,0x9a,0x3d,0x00,0x22,0x3a,0x00,0x00,0x35,0x7f,0x55,0x35,
0x00,0x23,0x3d,0x7f,0x00,0x3a,0x7f,0x58,0x3d,0x00,0x1c,0x3a,0x00,0x04,0x35,0x7f,
0x59,0x35,0x00,0x1f,0x3d,0x7f,0x00,0x3a,0x7f,0x52,0x3d,0x00,0x21,0x3a,0x00,0x05,
0x30,0x7f,0x00,0x35,0x7f,0x4d,0x35,0x00,0x11,0x2e,0x00,0x0c,0x30,0x00,0x0e,0x3a,
0x7f,0x00,0x3d,0x7f,0x00,0x31,0x7f,0x02,0xba,0x40,0x00,0x00,0x40,0x00,0x4f,0x9a,
0x3d,0x00,0x15,0x3a,0x00,0x12,0x36,0x7f,0x00,0x2a,0x7f,0x0b,0x31,0x00,0x63,0x36,
0x00,0x0a,0x3a,0x7f,0x00,0x3d,0x7f,0x0b,0xba,0x40,0x7f,0x01,0x40,0x7f,0x56,0x9a,
0x3d,0x00,0x16,0x36,0x7f,0x02,0x3a,0x00,0x63,0x36,0x00,0x13,0x3d,0x7f,0x00,0x3a,
0x7f,0x5e,0x3d,0x00,0x1a,0x3a,0x00,0x00,0x36,0x7f,0x78,0x3d,0x7f,0x00,0x3a,0x7f,
0x03,0x36,0x00,0x6a,0x3d,0x00,0x0b,0x30,0x7f,0x00,0x36,0x7f,0x1a,0x3a,0x00,0x47,
0x36,0x00,0x17,0x31,0x7f,0x00,0x3a,0x7f,0x00,0x3d,0x7f,0x01,0x30,0x00,0x13,0x2a,
0x00,0x32,0x3a,0x00,0x1c,0x3d,0x00,0x16,0x36,0x7f,0x57,0xba,0x40,0x00,0x00,0x40,
0x00,0x17,0x9a,0x36,0x00,0x0a,0x25,0x7f,0x00,0x41,0x7f,0x00,0x3d,0x7f,0x03,0x31,
0x00,0x6e,0xba,0x40,0x7f,0x00,0x40,0x7f,0x07,0x9a,0x38,0x7f,0x07,0x41,0x00,0x0f,
0x3d,0x00,0x62,0x41,0x7f,0x00,0x3d,0x7f,0x02,0x38,0x00,0x4e,0x41,0x00,0x28,0x38,
0x7f,0x08,0x3d,0x00,0x58,0x25,0x00,0x10,0x38,0x00,0x08,0x41,0x7f,0x00,0x3d,0x7f,
0x00,0x25,0x7f,0x45,0x41,0x00,0x31,0x3d,0x00,0x02,0x27,0x7f,0x00,0x38,0x7f,0x09,
0x25,0x00,0x4f,0xba,0x40,0x00,0x00,0x40,0x00,0x0f,0x9a,0x27,0x00,0x0d,0x38,0x00,
0x04,0x3d,0x7f,0x00,0x41,0x7f,0x00,0x29,0x7f,0x70,0x41,0x00,0x08,0x38,0x7f,0x00,
0x2c,0x7f,0x05,0x3d,0x00,0x02,0x29,0x00,0x71,0x3f,0x7f,0x00,0x3c,0x7f,0x0c,0x38,
0x00,0x5d,0x3f,0x00,0x02,0xba,0x40,0x7f,0x00,0x40,0x7f,0x0d,0x9a,0x38,0x7f,0x07,
0x3c,0x00,0x69,0x38,0x00,0x08,0x3f,0x7f,0x00,0x3c,0x7f,0x68,0x3f,0x00,0x09,0x3c,
0x00,0x07,0x38,0x7f,0x78,0x3f,0x7f,0x00,0x3c,0x7f,0x09,0x38,0x00,0x62,0x3f,0x00,
0x0d,0x3c,0x00,0x00,0x38,0x7f,0x00,0x2e,0x7f,0x14,0x2c,0x00,0x07,0xba,0x40,0x00,
0x00,0x40,0x00,0x59,0x9a,0x2e,0x00,0x02,0x38,0x00,0x02,0x3f,0x7f,0x00,0x3c,0x7f,
0x00,0x30,0x7f,0x04,0xba,0x40,0x7f,0x01,0x40,0x7f,0x6c,0x9a,0x3f,0x00,0x01,0x3c,
0x00,0x06,0x30,0x00,0x00,0x29,0x7f,0x00,0x38,0x7f,0x09,0xba,0x40,0x00,0x00,0x40,
0x00,0x43,0x9a,0x38,0x00,0x24,0xba,0x40,0x7f,0x01,0x40,0x7f,0x07,0x9a,0x3c,0x7f,
0x00,0x38,0x7f,0x60,0x3c,0x00,0x0b,0x38,0x00,0x0d,0x35,0x7f,0x5a,0x35,0x00,0x1e,
0x3c,0x7f,0x00,0x38,0x7f,0x6c,0x3c,0x00,0x0c,0x35,0x7f,0x0c,0x38,0x00,0x3f,0x29,
0x00,0x15,0x35,0x00,0x18,0x3c,0x7f,0x00,0x29,0x7f,0x00,0x38,0x7f,0x55,0x3c,0x00,
0x17,0x29,0x00,0x0c,0x31,0x7f,0x00,0x35,0x7f,0x1c,0x38,0x00,0x3b,0x35,0x00,0x1a,
0x31,0x00,0x07,0x38,0x7f,0x00,0x3c,0x7f,0x00,0x29,0x7f,0x19,0xba,0x40,0x00,0x00,
0x40,0x00,0x55,0x9a,0x3c,0x00,0x00,0x38,0x00,0x0a,0x2a,0x7f,0x00,0x35,0x7f,0x17,
0x29,0x00,0x54,0x35,0x00,0x0d,0x3a,0x7f,0x00,0x3d,0x7f,0x12,0xba,0x40,0x7f,0x01,
0x40,0x7f,0x56,0x9a,0x3d,0x00,0x0f,0x36,0x7f,0x07,0x3a,0x00,0x5e,0x36,0x00,0x13,
0x3a,0x7f,0x00,0x3d,0x7f,0x65,0x3d,0x00,0x13,0x3a,0x00,0x00,0x36,0x7f,0x6d,0x36,
0x00,0x0b,0x3d,0x7f,0x00,0x3a,0x7f,0x58,0x3d,0x00,0x20,0x36,0x7f,0x00,0x30,0x7f,
0x01,0x3a,0x00,0x1d,0x2a,0x00,0x1c,0xba,0x40,0x00,0x00,0x40,0x00,0x3e,0x9a,0x3a,
0x7f,0x00,0x3d,0x7f,0x00,0x31,0x7f,0x07,0x30,0x00,0x08,0x36,0x00,0x09,0xba,0x40,
0x7f,0x01,0x40,0x7f,0x5e,0x9a,0x3d,0x00,0x01,0x36,0x7f,0x02,0xba,0x40,0x00,0x00,
0x40,0x00,0x0a,0x9a,0x3a,0x00,0x42,0x31,0x00,0x0f,0x36,0x00,0x1b,0x36,0x7f,0x00,
0x2a,0x7f,0x00,0x3f,0x7f,0x00,0x3a,0x7f,0x00,0xba,0x40,0x7f,0x00,0x40,0x7f,0x81,
0x54,0x9a,0x2a,0x00,0x07,0x3f,0x00,0x10,0x3a,0x00,0x0a,0x36,0x00,0x73,0x36,0x7f,
0x00,0x2a,0x7f,0x00,0x3d,0x7f,0x00,0x3a,0x7f,0x25,0xba,0x40,0x00,0x01,0x40,0x00,
0x61,0x40,0x7f,0x00,0x40,0x7f,0x82,0x1a,0x9a,0x3a,0x00,0x02,0x3d,0x00,0x0a,0x36,
0x00,0x41,0x2a,0x00,0x60,0xba,0x40,0x00,0x01,0x40,0x00,0x09,0x9a,0x36,0x7f,0x00,
0x2a,0x7f,0x00,0x3f,0x7f,0x00,0x3a,0x7f,0x27,0xba,0x40,0x7f,0x00,0x40,0x7f,0x49,
0x9a,0x36,0x00,0x12,0x3a,0x00,0x0e,0x3f,0x00,0x20,0x2a,0x00,0x81,0x38,0x2a,0x7f,
0x00,0x3a,0x7f,0x00,0x3d,0x7f,0x00,0x41,0x7f,0x04,0xba,0x40,0x00,0x00,0x40,0x00,
0x36,0x40,0x7f,0x01,0x40,0x7f,0x3e,0x9a,0x3d,0x00,0x06,0x41,0x00,0x19,0x3a,0x00,
0x28,0x2a,0x00,0x82,0x6d,0xba,0x40,0x00,0x00,0x40,0x00,0x2b,0x9a,0x33,0x7f,0x00,
0x3c,0x7f,0x00,0x25,0x7f,0x00,0x38,0x7f,0x0b,0xba,0x40,0x7f,0x00,0x40,0x7f,0x42,
0x9a,0x38,0x00,0x01,0x25,0x00,0x00,0x33,0x00,0x03,0x3c,0x00,0x27,0x3c,0x7f,0x00,
0x33,0x7f,0x00,0x38,0x7f,0x00,0x25,0x7f,0x4f,0x33,0x00,0x11,0x3c,0x00,0x01,0x38,
0x00,0x05,0x25,0x00,0x81,0x0a,0x35,0x7f,0x00,0x3d,0x7f,0x00,0x38,0x7f,0x00,0x25,
0x7f,0x23,0xba,0x40,0x00,0x01,0x40,0x00,0x56,0x40,0x7f,0x01,0x40,0x7f,0x81,0x43,
0x9a,0x38,0x00,0x11,0x35,0x00,0x03,0x25,0x00,0x04,0x3d,0x00,0x81,0x56,0xba,0x40,
0x00,0x00,0x40,0x00,0x2c,0x9a,0x3c,0x7f,0x00,0x25,0x7f,0x00,0x33,0x7f,0x00,0x38,
0x7f,0x0a,0xba,0x40,0x7f,0x00,0x40,0x7f,0x40,0x9a,0x33,0x00,0x03,0x25,0x00,0x02,
0x3c,0x00,0x04,0x38,0x00,0x25,0x33,0x7f,0x00,0x3c,0x7f,0x00,0x25,0x7f,0x00,0x38,
0x7f,0x3b,0x33,0x00,0x0b,0x25,0x00,0x05,0x3c,0x00,0x04,0x38,0x00,0x81,0x13,0xba,
0x40,0x00,0x00,0x40,0x00,0x0e,0x9a,0x25,0x7f,0x00,0x3d,0x7f,0x00,0x35,0x7f,0x00,
0x38,0x7f,0x69,0xba,0x40,0x7f,0x00,0x40,0x7f,0x81,0x11,0x9a,0x35,0x00,0x04,0x38,
0x00,0x08,0x3d,0x00,0x82,0x3a,0xba,0x40,0x00,0x01,0x40,0x00,0x17,0x9a,0x2a,0x7f,
0x00,0x36,0x7f,0x00,0x3f,0x7f,0x00,0x3a,0x7f,0x07,0x25,0x00,0x18,0xba,0x40,0x7f,
0x00,0x40,0x7f,0x81,0x40,0x9a,0x3f,0x00,0x21,0x3a,0x00,0x05,0x2a,0x00,0x02,0x36,
0x00,0x61,0x2a,0x7f,0x00,0x3d,0x7f,0x00,0x36,0x7f,0x00,0x3a,0x7f,0x1c,0xba,0x40,
0x00,0x01,0x40,0x00,0x46,0x40,0x7f,0x00,0x40,0x7f,0x82,0x1b,0x9a,0x3d,0x00,0x05,
0x3a,0x00,0x0d,0x36,0x00,0x31,0x2a,0x00,0x33,0xba,0x40,0x00,0x00,0x40,0x00,0x20,
0x40,0x7f,0x00,0x40,0x7f,0x44,0x9a,0x2a,0x7f,0x00,0x3f,0x7f,0x00,0x36,0x7f,0x00,
0x3a,0x7f,0x13,0xba,0x40,0x00,0x00,0x40,0x00,0x41,0x40,0x7f,0x00,0x40,0x7f,0x23,
0x9a,0x36,0x00,0x13,0x3a,0x00,0x13,0x3f,0x00,0x07,0x2a,0x00,0x81,0x44,0x2a,0x7f,
0x00,0x3a,0x7f,0x00,0x3d,0x7f,0x00,0x41,0x7f,0x16,0xba,0x40,0x00,0x00,0x40,0x00,
0x36,0x40,0x7f,0x00,0x40,0x7f,0x25,0x9a,0x3d,0x00,0x09,0x41,0x00,0x17,0x3a,0x00,
0x81,0x35,0x2a,0x00,0x81,0x68,0xba,0x40,0x00,0x01,0x40,0x00,0x29,0x9a,0x38,0x7f,
0x00,0x3c,0x7f,0x00,0x25,0x7f,0x00,0x33,0x7f,0x07,0xba,0x40,0x7f,0x01,0x40,0x7f,
0x4a,0x9a,0x25,0x00,0x04,0x33,0x00,0x00,0x3c,0x00,0x03,0x38,0x00,0x1f,0x3c,0x7f,
0x00,0x33,0x7f,0x00,0x38,0x7f,0x00,0x25,0x7f,0x53,0x33,0x00,0x02,0x25,0x00,0x0b,
0x3c,0x00,0x05,0x38,0x00,0x81,0x0b,0x3d,0x7f,0x00,0x25,0x7f,0x00,0x35,0x7f,0x00,
0x38,0x7f,0x15,0xba,0x40,0x00,0x00,0x40,0x00,0x51,0x40,0x7f,0x01,0x40,0x7f,0x82,
0x05,0x9a,0x38,0x00,0x0c,0x25,0x00,0x07,0x35,0x00,0x01,0x3d,0x00,0x81,0x2d,0xba,
0x40,0x00,0x00,0x40,0x00,0x2b,0x9a,0x3c,0x7f,0x00,0x33,0x7f,0x00,0x25,0x7f,0x00,
0x38,0x7f,0x06,0xba,0x40,0x7f,0x01,0x40,0x7f,0x81,0x13,0x9a,0x33,0x00,0x13,0x38,
0x00,0x01,0x3c,0x00,0x15,0x25,0x00,0x81,0x25,0x3d,0x7f,0x00,0x35,0x7f,0x00,0x25,
0x7f,0x00,0x38,0x7f,0x0f,0xba,0x40,0x00,0x00,0x40,0x00,0x51,0x40,0x7f,0x00,0x40,
0x7f,0x2d,0x9a,0x35,0x00,0x11,0x38,0x00,0x0e,0x3d,0x00,0x83,0x01,0xba,0x40,0x00,
0x00,0x40,0x00,0x1b,0x9a,0x25,0x00,0x10,0x36,0x7f,0x00,0x2a,0x7f,0x00,0x3a,0x7f,
0x00,0x3f,0x7f,0x05,0xba,0x40,0x7f,0x00,0x40,0x7f,0x81,0x2a,0x9a,0x3f,0x00,0x01,
0x2a,0x00,0x11,0x36,0x00,0x02,0xba,0x40,0x00,0x00,0x40,0x00,0x09,0x9a,0x3a,0x00,
0x17,0xba,0x40,0x7f,0x01,0x40,0x7f,0x81,0x04,0x9a,0x36,0x7f,0x00,0x3d,0x7f,0x00,
0x2a,0x7f,0x00,0x3a,0x7f,0x23,0xba,0x40,0x00,0x01,0x40,0x00,0x35,0x40,0x7f,0x01,
0x40,0x7f,0x81,0x56,0x9a,0x3d,0x00,0x12,0x3a,0x00,0x07,0x36,0x00,0x31,0x2a,0x00,
0x81,0x37,0xba,0x40,0x00,0x00,0x40,0x00,0x27,0x9a,0x2a,0x7f,0x00,0x36,0x7f,0x00,
0x3a,0x7f,0x00,0x3f,0x7f,0x0f,0xba,0x40,0x7f,0x00,0x40,0x7f,0x5f,0x9a,0x36,0x00,
0x01,0x3a,0x00,0x1d,0x3f,0x00,0x05,0x2a,0x00,0x20,0xba,0x40,0x00,0x01,0x40,0x00,
0x2b,0x40,0x7f,0x00,0x40,0x7f,0x81,0x0b,0x9a,0x3a,0x7f,0x00,0x2a,0x7f,0x00,0x3d,
0x7f,0x00,0x41,0x7f,0x12,0xba,0x40,0x00,0x00,0x40,0x00,0x2b,0x40,0x7f,0x01,0x40,
0x7f,0x81,0x36,0x9a,0x3d,0x00,0x02,0x41,0x00,0x20,0x3a,0x00,0x52,0x2a,0x00,0x81,
0x37,0xba,0x40,0x00,0x01,0x40,0x00,0x38,0x9a,0x3c,0x7f,0x00,0x33,0x7f,0x00,0x38,
0x7f,0x00,0x25,0x7f,0x03,0xba,0x40,0x7f,0x01,0x40,0x7f,0x3f,0x9a,0x3c,0x00,0x07,
0x33,0x00,0x02,0x25,0x00,0x0f,0x38,0x00,0x1d,0x3c,0x7f,0x00,0x25,0x7f,0x00,0x38,
0x7f,0x00,0x33,0x7f,0x4e,0x33,0x00,0x0d,0x25,0x00,0x04,0x38,0x00,0x03,0x3c,0x00,
0x81,0x0e,0x25,0x7f,0x00,0x38,0x7f,0x00,0x3d,0x7f,0x00,0x35,0x7f,0x0c,0xba,0x40,
0x00,0x00,0x40,0x00,0x56,0x40,0x7f,0x01,0x40,0x7f,0x82,0x37,0x9a,0x25,0x00,0x03,
0x38,0x00,0x06,0x3d,0x00,0x01,0x35,0x00,0x81,0x16,0xba,0x40,0x00,0x00,0x40,0x00,
0x1e,0x9a,0x3c,0x7f,0x00,0x33,0x7f,0x00,0x38,0x7f,0x00,0x25,0x7f,0x0d,0xba,0x40,
0x7f,0x00,0x40,0x7f,0x3a,0x9a,0x3c,0x00,0x06,0x33,0x00,0x04,0x38,0x00,0x02,0x25,
0x00,0x25,0x3c,0x7f,0x00,0x25,0x7f,0x00,0x33,0x7f,0x00,0x38,0x7f,0x3e,0x33,0x00,
0x07,0x3c,0x00,0x06,0x38,0x00,0x06,0x25,0x00,0x81,0x1f,0x3d,0x7f,0x00,0x35,0x7f,
0x00,0x25,0x7f,0x00,0x38,0x7f,0x0b,0xba,0x40,0x00,0x00,0x40,0x00,0x51,0x40,0x7f,
0x00,0x40,0x7f,0x79,0x9a,0x3d,0x00,0x1b,0x3d,0x7f,0x81,0x08,0x38,0x00,0x1a,0x35,
0x00,0x0d,0x3d,0x00,0x81,0x2a,0xba,0x40,0x00,0x00,0x40,0x00,0x0f,0x9a,0x36,0x7f,
0x00,0x3f,0x7f,0x00,0x2a,0x7f,0x00,0x3a,0x7f,0x18,0x25,0x00,0x20,0xba,0x40,0x7f,
0x00,0x40,0x7f,0x81,0x1b,0x9a,0x3f,0x00,0x28,0x36,0x00,0x13,0x3a,0x00,0x08,0x2a,
0x00,0x52,0x2a,0x7f,0x00,0x36,0x7f,0x00,0x3d,0x7f,0x00,0x3a,0x7f,0x0f,0xba,0x40,
0x00,0x01,0x40,0x00,0x4b,0x40,0x7f,0x00,0x40,0x7f,0x81,0x39,0x9a,0x3a,0x00,0x1b,
0x3d,0x00,0x1a,0x36,0x00,0x1a,0x2a,0x00,0x81,0x65,0xba,0x40,0x00,0x01,0x40,0x00,
0x0f,0x9a,0x36,0x7f,0x00,0x2a,0x7f,0x00,0x3f,0x7f,0x00,0x3a,0x7f,0x16,0xba,0x40,
0x7f,0x01,0x40,0x7f,0x3e,0x9a,0x36,0x00,0x0c,0x3a,0x00,0x10,0x3f,0x00,0x0b,0x2a,
0x00,0x81,0x6a,0xba,0x40,0x00,0x00,0x40,0x00,0x02,0x9a,0x2a,0x7f,0x00,0x3d,0x7f,
0x00,0x3a,0x7f,0x00,0x41,0x7f,0x3a,0xba,0x40,0x7f,0x00,0x40,0x7f,0x73,0x9a,0x3d,
0x00,0x10,0x3a,0x00,0x09,0x41,0x00,0x81,0x23,0x2a,0x00,0x81,0x33,0xba,0x40,0x00,
0x00,0x40,0x00,0x36,0x40,0x7f,0x00,0x40,0x7f,0x06,0x9a,0x2c,0x7f,0x00,0x44,0x7f,
0x00,0x3f,0x7f,0x00,0x3c,0x7f,0x70,0x3c,0x00,0x46,0x44,0x00,0x1e,0x2c,0x00,0x1c,
0x2c,0x7f,0x02,0x3f,0x00,0x68,0x2c,0x00,0x0b,0xba,0x40,0x00,0x00,0x40,0x00,0x03,
0x9a,0x3d,0x7f,0x00,0x41,0x7f,0x00,0x44,0x7f,0x00,0x25,0x7f,0x81,0x1a,0xba,0x40,
0x7f,0x01,0x40,0x7f,0x76,0x9a,0x44,0x00,0x1e,0x3d,0x00,0x2d,0x41,0x00,0x61,0x25,
0x00,0x81,0x1b,0x2c,0x7f,0x00,0x44,0x7f,0x00,0x3f,0x7f,0x00,0x3c,0x7f,0x4d,0x3c,
0x00,0x17,0x44,0x00,0x0b,0x3f,0x00,0x25,0x2c,0x00,0x5c,0x3d,0x7f,0x00,0x25,0x7f,
0x10,0x3d,0x00,0x40,0x25,0x00,0x28,0x3a,0x7f,0x00,0x42,0x7f,0x00,0x2a,0x7f,0x00,
0x3d,0x7f,0x07,0xba,0x40,0x00,0x00,0x40,0x00,0x82,0x2a,0x40,0x7f,0x00,0x40,0x7f,
0x81,0x53,0x40,0x00,0x01,0x40,0x00,0x29,0x9a,0x3a,0x00,0x03,0x3d,0x00,0x07,0x42,
0x00,0x0d,0x2a,0x00,0x13,0x25,0x7f,0x00,0x3d,0x7f,0x00,0x41,0x7f,0x29,0xba,0x40,
0x7f,0x01,0x40,0x7f,0x36,0x9a,0x41,0x00,0x18,0x38,0x7f,0x07,0x3d,0x00,0x69,0x38,
0x00,0x08,0x41,0x7f,0x00,0x3d,0x7f,0x54,0x41,0x00,0x24,0x38,0x7f,0x09,0x3d,0x00,
0x5d,0x38,0x00,0x12,0x41,0x7f,0x00,0x3d,0x7f,0x61,0x41,0x00,0x17,0x27,0x7f,0x00,
0x38,0x7f,0x08,0x3d,0x00,0x15,0x25,0x00,0x59,0xba,0x40,0x00,0x01,0x40,0x00,0x01,
0x9a,0x3d,0x7f,0x00,0x41,0x7f,0x00,0x29,0x7f,0x08,0x27,0x00,0x02,0x38,0x00,0x64,
0x41,0x00,0x02,0x29,0x00,0x01,0x3d,0x00,0x07,0x38,0x7f,0x00,0x2c,0x7f,0x78,0x3f,
0x7f,0x00,0x3c,0x7f,0x12,0x38,0x00,0x5a,0x3f,0x00,0x0c,0x38,0x7f,0x0c,0x3c,0x00,
0x6c,0x3f,0x7f,0x00,0x3c,0x7f,0x00,0xba,0x40,0x7f,0x01,0x40,0x7f,0x07,0x9a,0x38,
0x00,0x68,0x3f,0x00,0x08,0x3c,0x00,0x00,0x38,0x7f,0x6a,0x38,0x00,0x0e,0x3f,0x7f,
0x00,0x3c,0x7f,0x63,0x3f,0x00,0x15,0x38,0x7f,0x00,0x2e,0x7f,0x02,0x3c,0x00,0x0b,
0x2c,0x00,0x01,0xba,0x40,0x00,0x01,0x40,0x00,0x5b,0x9a,0x38,0x00,0x0e,0x30,0x7f,
0x00,0x3f,0x7f,0x00,0x3c,0x7f,0x04,0x2e,0x00,0x0f,0xba,0x40,0x7f,0x01,0x40,0x7f,
0x48,0x9a,0x3f,0x00,0x10,0x30,0x00,0x05,0x3c,0x00,0x07,0x2e,0x7f,0x00,0x38,0x7f,
0x0d,0xba,0x40,0x00,0x00,0x40,0x00,0x3a,0x9a,0x38,0x00,0x31,0x3d,0x7f,0x00,0x3a,
0x7f,0x2c,0xba,0x40,0x7f,0x01,0x40,0x7f,0x29,0x9a,0x3d,0x00,0x22,0x3a,0x00,0x00,
0x35,0x7f,0x55,0x35,0x00,0x23,0x3d,0x7f,0x00,0x3a,0x7f,0x58,0x3d,0x00,0x1c,0x3a,
0x00,0x04,0x35,0x7f,0x59,0x35,0x00,0x1f,0x3d,0x7f,0x00,0x3a,0x7f,0x52,0x3d,0x00,
0x21,0x3a,0x00,0x05,0x30,0x7f,0x00,0x35,0x7f,0x4d,0x35,0x00,0x11,0x2e,0x00,0x0c,
0x30,0x00,0x0e,0x3a,0x7f,0x00,0x3d,0x7f,0x00,0x31,0x7f,0x02,0xba,0x40,0x00,0x00,
0x40,0x00,0x4f,0x9a,0x3d,0x00,0x15,0x3a,0x00,0x12,0x36,0x7f,0x00,0x2a,0x7f,0x0b,
0x31,0x00,0x63,0x36,0x00,0x0a,0x3a,0x7f,0x00,0x3d,0x7f,0x0b,0xba,0x40,0x7f,0x01,
0x40,0x7f,0x56,0x9a,0x3d,0x00,0x16,0x36,0x7f,0x02,0x3a,0x00,0x63,0x36,0x00,0x13,
0x3d,0x7f,0x00,0x3a,0x7f,0x5e,0x3d,0x00,0x1a,0x3a,0x00,0x00,0x36,0x7f,0x78,0x3d,
0x7f,0x00,0x3a,0x7f,0x03,0x36,0x00,0x6a,0x3d,0x00,0x0b,0x30,0x7f,0x00,0x36,0x7f,
0x1a,0x3a,0x00,0x47,0x36,0x00,0x17,0x31,0x7f,0x00,0x3a,0x7f,0x00,0x3d,0x7f,0x01,
0x30,0x00,0x13,0x2a,0x00,0x32,0x3a,0x00,0x1c,0x3d,0x00,0x16,0x36,0x7f,0x57,0xba,
0x40,0x00,0x00,0x40,0x00,0x17,0x9a,0x36,0x00,0x0a,0x25,0x7f,0x00,0x3d,0x7f,0x00,
0x41,0x7f,0x29,0xba,0x40,0x7f,0x01,0x40,0x7f,0x36,0x9a,0x41,0x00,0x18,0x38,0x7f,
0x07,0x3d,0x00,0x69,0x38,0x00,0x08,0x41,0x7f,0x00,0x3d,0x7f,0x54,0x41,0x00,0x24,
0x38,0x7f,0x09,0x3d,0x00,0x5d,0x38,0x00,0x12,0x41,0x7f,0x00,0x3d,0x7f,0x61,0x41,
0x00,0x17,0x27,0x7f,0x00,0x38,0x7f,0x08,0x3d,0x00,0x15,0x25,0x00,0x59,0xba,0x40,
0x00,0x01,0x40,0x00,0x01,0x9a,0x3d,0x7f,0x00,0x41,0x7f,0x00,0x29,0x7f,0x08,0x27,
0x00,0x02,0x38,0x00,0x64,0x41,0x00,0x02,0x29,0x00,0x01,0x3d,0x00,0x07,0x38,0x7f,
0x00,0x2c,0x7f,0x78,0x3f,0x7f,0x00,0x3c,0x7f,0x12,0x38,0x00,0x5a,0x3f,0x00,0x0c,
0x38,0x7f,0x0c,0x3c,0x00,0x6c,0x3f,0x7f,0x00,0x3c,0x7f,0x00,0xba,0x40,0x7f,0x01,
0x40,0x7f,0x07,0x9a,0x38,0x00,0x68,0x3f,0x00,0x08,0x3c,0x00,0x00,0x38,0x7f,0x6a,
0x38,0x00,0x0e,0x3f,0x7f,0x00,0x3c,0x7f,0x63,0x3f,0x00,0x15,0x38,0x7f,0x00,0x2e,
0x7f,0x02,0x3c,0x00,0x0b,0x2c,0x00,0x01,0xba,0x40,0x00,0x01,0x40,0x00,0x5b,0x9a,
0x38,0x00,0x0e,0x30,0x7f,0x00,0x3f,0x7f,0x00,0x3c,0x7f,0x04,0x2e,0x00,0x0f,0xba,
0x40,0x7f,0x01,0x40,0x7f,0x48,0x9a,0x3f,0x00,0x10,0x30,0x00,0x05,0x3c,0x00,0x07,
0x2e,0x7f,0x00,0x38,0x7f,0x0d,0xba,0x40,0x00,0x00,0x40,0x00,0x3a,0x9a,0x38,0x00,
0x31,0x3d,0x7f,0x00,0x3a,0x7f,0x2c,0xba,0x40,0x7f,0x01,0x40,0x7f,0x29,0x9a,0x3d,
0x00,0x22,0x3a,0x00,0x00,0x35,0x7f,0x55,0x35,0x00,0x23,0x3d,0x7f,0x00,0x3a,0x7f,
0x58,0x3d,0x00,0x1c,0x3a,0x00,0x04,0x35,0x7f,0x59,0x35,0x00,0x1f,0x3d,0x7f,0x00,
0x3a,0x7f,0x52,0x3d,0x00,0x21,0x3a,0x00,0x05,0x30,0x7f,0x00,0x35,0x7f,0x4d,0x35,
0x00,0x11,0x2e,0x00,0x0c,0x30,0x00,0x0e,0x3a,0x7f,0x00,0x3d,0x7f,0x00,0x31,0x7f,
0x02,0xba,0x40,0x00,0x00,0x40,0x00,0x4f,0x9a,0x3d,0x00,0x15,0x3a,0x00,0x12,0x36,
0x7f,0x00,0x2a,0x7f,0x0b,0x31,0x00,0x63,0x36,0x00,0x0a,0x3a,0x7f,0x00,0x3d,0x7f,
0x0b,0xba,0x40,0x7f,0x01,0x40,0x7f,0x56,0x9a,0x3d,0x00,0x16,0x36,0x7f,0x02,0x3a,
0x00,0x63,0x36,0x00,0x13,0x3d,0x7f,0x00,0x3a,0x7f,0x5e,0x3d,0x00,0x1a,0x3a,0x00,
0x00,0x36,0x7f,0x78,0x3d,0x7f,0x00,0x3a,0x7f,0x03,0x36,0x00,0x6a,0x3d,0x00,0x0b,
0x30,0x7f,0x00,0x36,0x7f,0x1a,0x3a,0x00,0x47,0x36,0x00,0x17,0x31,0x7f,0x00,0x3a,
0x7f,0x00,0x3d,0x7f,0x01,0x30,0x00,0x13,0x2a,0x00,0x32,0x3a,0x00,0x1c,0x3d,0x00,
0x16,0x36,0x7f,0x57,0xba,0x40,0x00,0x00,0x40,0x00,0x17,0x9a,0x36,0x00,0x0a,0x25,
0x7f,0x00,0x41,0x7f,0x00,0x3d,0x7f,0x03,0x31,0x00,0x6e,0xba,0x40,0x7f,0x00,0x40,
0x7f,0x07,0x9a,0x38,0x7f,0x07,0x41,0x00,0x0f,0x3d,0x00,0x62,0x41,0x7f,0x00,0x3d,
0x7f,0x02,0x38,0x00,0x4e,0x41,0x00,0x28,0x38,0x7f,0x08,0x3d,0x00,0x58,0x25,0x00,
0x10,0x38,0x00,0x08,0x41,0x7f,0x00,0x3d,0x7f,0x00,0x25,0x7f,0x45,0x41,0x00,0x31,
0x3d,0x00,0x02,0x27,0x7f,0x00,0x38,0x7f,0x09,0x25,0x00,0x4f,0xba,0x40,0x00,0x00,
0x40,0x00,0x0f,0x9a,0x27,0x00,0x0d,0x38,0x00,0x04,0x3d,0x7f,0x00,0x41,0x7f,0x00,
0x29,0x7f,0x70,0x41,0x00,0x08,0x38,0x7f,0x00,0x2c,0x7f,0x05,0x3d,0x00,0x02,0x29,
0x00,0x71,0x3f,0x7f,0x00,0x3c,0x7f,0x0c,0x38,0x00,0x5d,0x3f,0x00,0x02,0xba,0x40,
0x7f,0x00,0x40,0x7f,0x0d,0x9a,0x38,0x7f,0x07,0x3c,0x00,0x69,0x38,0x00,0x08,0x3f,
0x7f,0x00,0x3c,0x7f,0x68,0x3f,0x00,0x09,0x3c,0x00,0x07,0x38,0x7f,0x78,0x3f,0x7f,
0x00,0x3c,0x7f,0x09,0x38,0x00,0x62,0x3f,0x00,0x0d,0x3c,0x00,0x00,0x38,0x7f,0x00,
0x2e,0x7f,0x14,0x2c,0x00,0x07,0xba,0x40,0x00,0x00,0x40,0x00,0x59,0x9a,0x2e,0x00,
0x02,0x38,0x00,0x02,0x3f,0x7f,0x00,0x3c,0x7f,0x00,0x30,0x7f,0x04,0xba,0x40,0x7f,
0x01,0x40,0x7f,0x6c,0x9a,0x3f,0x00,0x01,0x3c,0x00,0x06,0x30,0x00,0x00,0x29,0x7f,
0x00,0x38,0x7f,0x09,0xba,0x40,0x00,0x00,0x40,0x00,0x43,0x9a,0x38,0x00,0x24,0xba,
0x40,0x7f,0x01,0x40,0x7f,0x07,0x9a,0x3c,0x7f,0x00,0x38,0x7f,0x60,0x3c,0x00,0x0b,
0x38,0x00,0x0d,0x35,0x7f,0x5a,0x35,0x00,0x1e,0x3c,0x7f,0x00,0x38,0x7f,0x6c,0x3c,
0x00,0x0c,0x35,0x7f,0x0c,0x38,0x00,0x3f,0x29,0x00,0x15,0x35,0x00,0x18,0x3c,0x7f,
0x00,0x29,0x7f,0x00,0x38,0x7f,0x55,0x3c,0x00,0x17,0x29,0x00,0x0c,0x31,0x7f,0x00,
0x35,0x7f,0x1c,0x38,0x00,0x3b,0x35,0x00,0x1a,0x31,0x00,0x07,0x38,0x7f,0x00,0x3c,
0x7f,0x00,0x29,0x7f,0x19,0xba,0x40,0x00,0x00,0x40,0x00,0x55,0x9a,0x3c,0x00,0x00,
0x38,0x00,0x0a,0x2a,0x7f,0x00,0x35,0x7f,0x17,0x29,0x00,0x54,0x35,0x00,0x0d,0x3a,
0x7f,0x00,0x3d,0x7f,0x12,0xba,0x40,0x7f,0x01,0x40,0x7f,0x56,0x9a,0x3d,0x00,0x0f,
0x36,0x7f,0x07,0x3a,0x00,0x5e,0x36,0x00,0x13,0x3a,0x7f,0x00,0x3d,0x7f,0x65,0x3d,
0x00,0x13,0x3a,0x00,0x00,0x36,0x7f,0x6d,0x36,0x00,0x0b,0x3d,0x7f,0x00,0x3a,0x7f,
0x58,0x3d,0x00,0x20,0x36,0x7f,0x00,0x30,0x7f,0x01,0x3a,0x00,0x1d,0x2a,0x00,0x1c,
0xba,0x40,0x00,0x00,0x40,0x00,0x3e,0x9a,0x3a,0x7f,0x00,0x3d,0x7f,0x00,0x31,0x7f,
0x07,0x30,0x00,0x08,0x36,0x00,0x09,0xba,0x40,0x7f,0x01,0x40,0x7f,0x5e,0x9a,0x3d,
0x00,0x01,0x36,0x7f,0x02,0xba,0x40,0x00,0x00,0x40,0x00,0x0a,0x9a,0x3a,0x00,0x42,
0x31,0x00,0x0f,0x36,0x00,0x1b,0x25,0x7f,0x00,0x3d,0x7f,0x00,0x41,0x7f,0x29,0xba,
0x40,0x7f,0x01,0x40,0x7f,0x36,0x9a,0x41,0x00,0x18,0x38,0x7f,0x07,0x3d,0x00,0x69,
0x38,0x00,0x08,0x41,0x7f,0x00,0x3d,0x7f,0x54,0x41,0x00,0x24,0x38,0x7f,0x09,0x3d,
0x00,0x5d,0x38,0x00,0x12,0x41,0x7f,0x00,0x3d,0x7f,0x61,0x41,0x00,0x17,0x27,0x7f,
0x00,0x38,0x7f,0x08,0x3d,0x00,0x15,0x25,0x00,0x59,0xba,0x40,0x00,0x01,0x40,0x00,
0x01,0x9a,0x3d,0x7f,0x00,0x41,0x7f,0x00,0x29,0x7f,0x08,0x27,0x00,0x02,0x38,0x00,
0x64,0x41,0x00,0x02,0x29,0x00,0x01,0x3d,0x00,0x07,0x38,0x7f,0x00,0x2c,0x7f,0x78,
0x3f,0x7f,0x00,0x3c,0x7f,0x12,0x38,0x00,0x5a,0x3f,0x00,0x0c,0x38,0x7f,0x0c,0x3c,
0x00,0x6c,0x3f,0x7f,0x00,0x3c,0x7f,0x00,0xba,0x40,0x7f,0x01,0x40,0x7f,0x07,0x9a,
0x38,0x00,0x68,0x3f,0x00,0x08,0x3c,0x00,0x00,0x38,0x7f,0x6a,0x38,0x00,0x0e,0x3f,
0x7f,0x00,0x3c,0x7f,0x63,0x3f,0x00,0x15,0x38,0x7f,0x00,0x2e,0x7f,0x02,0x3c,0x00,
0x0b,0x2c,0x00,0x01,0xba,0x40,0x00,0x01,0x40,0x00,0x5b,0x9a,0x38,0x00,0x0e,0x30,
0x7f,0x00,0x3f,0x7f,0x00,0x3c,0x7f,0x04,0x2e,0x00,0x0f,0xba,0x40,0x7f,0x01,0x40,
0x7f,0x48,0x9a,0x3f,0x00,0x10,0x30,0x00,0x05,0x3c,0x00,0x07,0x2e,0x7f,0x00,0x38,
0x7f,0x0d,0xba,0x40,0x00,0x00,0x40,0x00,0x3a,0x9a,0x38,0x00,0x31,0x3d,0x7f,0x00,
0x3a,0x7f,0x2c,0xba,0x40,0x7f,0x01,0x40,0x7f,0x29,0x9a,0x3d,0x00,0x22,0x3a,0x00,
0x00,0x35,0x7f,0x55,0x35,0x00,0x23,0x3d,0x7f,0x00,0x3a,0x7f,0x58,0x3d,0x00,0x1c,
0x3a,0x00,0x04,0x35,0x7f,0x59,0x35,0x00,0x1f,0x3d,0x7f,0x00,0x3a,0x7f,0x52,0x3d,
0x00,0x21,0x3a,0x00,0x05,0x30,0x7f,0x00,0x35,0x7f,0x4d,0x35,0x00,0x11,0x2e,0x00,
0x0c,0x30,0x00,0x0e,0x3a,0x7f,0x00,0x3d,0x7f,0x00,0x31,0x7f,0x02,0xba,0x40,0x00,
0x00,0x40,0x00,0x4f,0x9a,0x3d,0x00,0x15,0x3a,0x00,0x12,0x36,0x7f,0x00,0x2a,0x7f,
0x0b,0x31,0x00,0x63,0x36,0x00,0x0a,0x3a,0x7f,0x00,0x3d,0x7f,0x0b,0xba,0x40,0x7f,
0x01,0x40,0x7f,0x56,0x9a,0x3d,0x00,0x16,0x36,0x7f,0x02,0x3a,0x00,0x63,0x36,0x00,
0x13,0x3d,0x7f,0x00,0x3a,0x7f,0x5e,0x3d,0x00,0x1a,0x3a,0x00,0x00,0x36,0x7f,0x78,
0x3d,0x7f,0x00,0x3a,0x7f,0x03,0x36,0x00,0x6a,0x3d,0x00,0x0b,0x30,0x7f,0x00,0x36,
0x7f,0x1a,0x3a,0x00,0x47,0x36,0x00,0x17,0x31,0x7f,0x00,0x3a,0x7f,0x00,0x3d,0x7f,
0x01,0x30,0x00,0x13,0x2a,0x00,0x32,0x3a,0x00,0x1c,0x3d,0x00,0x16,0x36,0x7f,0x57,
0xba,0x40,0x00,0x00,0x40,0x00,0x17,0x9a,0x36,0x00,0x0a,0x25,0x7f,0x00,0x41,0x7f,
0x00,0x3d,0x7f,0x03,0x31,0x00,0x6e,0xba,0x40,0x7f,0x00,0x40,0x7f,0x07,0x9a,0x38,
0x7f,0x07,0x41,0x00,0x0f,0x3d,0x00,0x62,0x41,0x7f,0x00,0x3d,0x7f,0x02,0x38,0x00,
0x4e,0x41,0x00,0x28,0x38,0x7f,0x08,0x3d,0x00,0x58,0x25,0x00,0x10,0x38,0x00,0x08,
0x41,0x7f,0x00,0x3d,0x7f,0x00,0x25,0x7f,0x45,0x41,0x00,0x31,0x3d,0x00,0x02,0x27,
0x7f,0x00,0x38,0x7f,0x09,0x25,0x00,0x4f,0xba,0x40,0x00,0x00,0x40,0x00,0x0f,0x9a,
0x27,0x00,0x0d,0x38,0x00,0x04,0x3d,0x7f,0x00,0x41,0x7f,0x00,0x29,0x7f,0x70,0x41,
0x00,0x08,0x38,0x7f,0x00,0x2c,0x7f,0x05,0x3d,0x00,0x02,0x29,0x00,0x71,0x3f,0x7f,
0x00,0x3c,0x7f,0x0c,0x38,0x00,0x5d,0x3f,0x00,0x02,0xba,0x40,0x7f,0x00,0x40,0x7f,
0x0d,0x9a,0x38,0x7f,0x07,0x3c,0x00,0x69,0x38,0x00,0x08,0x3f,0x7f,0x00,0x3c,0x7f,
0x68,0x3f,0x00,0x09,0x3c,0x00,0x07,0x38,0x7f,0x78,0x3f,0x7f,0x00,0x3c,0x7f,0x09,
0x38,0x00,0x62,0x3f,0x00,0x0d,0x3c,0x00,0x00,0x38,0x7f,0x00,0x2e,0x7f,0x14,0x2c,
0x00,0x07,0xba,0x40,0x00,0x00,0x40,0x00,0x59,0x9a,0x2e,0x00,0x02,0x38,0x00,0x02,
0x3f,0x7f,0x00,0x3c,0x7f,0x00,0x30,0x7f,0x04,0xba,0x40,0x7f,0x01,0x40,0x7f,0x6c,
0x9a,0x3f,0x00,0x01,0x3c,0x00,0x06,0x30,0x00,0x00,0x29,0x7f,0x00,0x38,0x7f,0x09,
0xba,0x40,0x00,0x00,0x40,0x00,0x43,0x9a,0x38,0x00,0x24,0xba,0x40,0x7f,0x01,0x40,
0x7f,0x07,0x9a,0x3c,0x7f,0x00,0x38,0x7f,0x60,0x3c,0x00,0x0b,0x38,0x00,0x0d,0x35,
0x7f,0x5a,0x35,0x00,0x1e,0x3c,0x7f,0x00,0x38,0x7f,0x6c,0x3c,0x00,0x0c,0x35,0x7f,
0x0c,0x38,0x00,0x3f,0x29,0x00,0x15,0x35,0x00,0x18,0x3c,0x7f,0x00,0x29,0x7f,0x00,
0x38,0x7f,0x55,0x3c,0x00,0x17,0x29,0x00,0x0c,0x31,0x7f,0x00,0x35,0x7f,0x1c,0x38,
0x00,0x3b,0x35,0x00,0x1a,0x31,0x00,0x07,0x38,0x7f,0x00,0x3c,0x7f,0x00,0x29,0x7f,
0x19,0xba,0x40,0x00,0x00,0x40,0x00,0x55,0x9a,0x3c,0x00,0x00,0x38,0x00,0x0a,0x2a,
0x7f,0x00,0x35,0x7f,0x17,0x29,0x00,0x54,0x35,0x00,0x0d,0x3a,0x7f,0x00,0x3d,0x7f,
0x12,0xba,0x40,0x7f,0x01,0x40,0x7f,0x56,0x9a,0x3d,0x00,0x0f,0x36,0x7f,0x07,0x3a,
0x00,0x5e,0x36,0x00,0x13,0x3a,0x7f,0x00,0x3d,0x7f,0x65,0x3d,0x00,0x13,0x3a,0x00,
0x00,0x36,0x7f,0x6d,0x36,0x00,0x0b,0x3d,0x7f,0x00,0x3a,0x7f,0x58,0x3d,0x00,0x20,
0x36,0x7f,0x00,0x30,0x7f,0x01,0x3a,0x00,0x1d,0x2a,0x00,0x1c,0xba,0x40,0x00,0x00,
0x40,0x00,0x3e,0x9a,0x3a,0x7f,0x00,0x3d,0x7f,0x00,0x31,0x7f,0x07,0x30,0x00,0x08,
0x36,0x00,0x09,0xba,0x40,0x7f,0x01,0x40,0x7f,0x5e,0x9a,0x3d,0x00,0x01,0x36,0x7f,
0x02,0xba,0x40,0x00,0x00,0x40,0x00,0x0a,0x9a,0x3a,0x00,0x42,0x31,0x00,0x0f,0x36,
0x00,0x1b,0x36,0x7f,0x00,0x2a,0x7f,0x00,0x3f,0x7f,0x00,0x3a,0x7f,0x00,0xba,0x40,
0x7f,0x00,0x40,0x7f,0x81,0x54,0x9a,0x2a,0x00,0x07,0x3f,0x00,0x10,0x3a,0x00,0x0a,
0x36,0x00,0x73,0x36,0x7f,0x00,0x2a,0x7f,0x00,0x3d,0x7f,0x00,0x3a,0x7f,0x25,0xba,
0x40,0x00,0x01,0x40,0x00,0x61,0x40,0x7f,0x00,0x40,0x7f,0x82,0x1a,0x9a,0x3a,0x00,
0x02,0x3d,0x00,0x0a,0x36,0x00,0x41,0x2a,0x00,0x60,0xba,0x40,0x00,0x01,0x40,0x00,
0x09,0x9a,0x36,0x7f,0x00,0x2a,0x7f,0x00,0x3f,0x7f,0x00,0x3a,0x7f,0x27,0xba,0x40,
0x7f,0x00,0x40,0x7f,0x49,0x9a,0x36,0x00,0x12,0x3a,0x00,0x0e,0x3f,0x00,0x20,0x2a,
0x00,0x81,0x38,0x2a,0x7f,0x00,0x3a,0x7f,0x00,0x3d,0x7f,0x00,0x41,0x7f,0x04,0xba,
0x40,0x00,0x00,0x40,0x00,0x36,0x40,0x7f,0x01,0x40,0x7f,0x3e,0x9a,0x3d,0x00,0x06,
0x41,0x00,0x19,0x3a,0x00,0x28,0x2a,0x00,0x82,0x6d,0xba,0x40,0x00,0x00,0x40,0x00,
0x2b,0x9a,0x33,0x7f,0x00,0x3c,0x7f,0x00,0x25,0x7f,0x00,0x38,0x7f,0x0b,0xba,0x40,
0x7f,0x00,0x40,0x7f,0x42,0x9a,0x38,0x00,0x01,0x33,0x00,0x00,0x25,0x00,0x03,0x3c,
0x00,0x27,0x3c,0x7f,0x00,0x33,0x7f,0x00,0x38,0x7f,0x00,0x25,0x7f,0x4f,0x33,0x00,
0x11,0x3c,0x00,0x01,0x38,0x00,0x05,0x25,0x00,0x81,0x0a,0x35,0x7f,0x00,0x3d,0x7f,
0x00,0x38,0x7f,0x00,0x25,0x7f,0x23,0xba,0x40,0x00,0x01,0x40,0x00,0x56,0x40,0x7f,
0x01,0x40,0x7f,0x81,0x43,0x9a,0x38,0x00,0x11,0x35,0x00,0x03,0x25,0x00,0x04,0x3d,
0x00,0x81,0x56,0xba,0x40,0x00,0x00,0x40,0x00,0x2c,0x9a,0x3c,0x7f,0x00,0x25,0x7f,
0x00,0x33,0x7f,0x00,0x38,0x7f,0x0a,0xba,0x40,0x7f,0x00,0x40,0x7f,0x40,0x9a,0x33,
0x00,0x03,0x25,0x00,0x02,0x3c,0x00,0x04,0x38,0x00,0x25,0x33,0x7f,0x00,0x3c,0x7f,
0x00,0x25,0x7f,0x00,0x38,0x7f,0x3b,0x33,0x00,0x0b,0x25,0x00,0x05,0x3c,0x00,0x04,
0x38,0x00,0x81,0x13,0xba,0x40,0x00,0x00,0x40,0x00,0x0e,0x9a,0x25,0x7f,0x00,0x3d,
0x7f,0x00,0x35,0x7f,0x00,0x38,0x7f,0x69,0xba,0x40,0x7f,0x00,0x40,0x7f,0x81,0x11,
0x9a,0x35,0x00,0x04,0x38,0x00,0x08,0x3d,0x00,0x82,0x3a,0xba,0x40,0x00,0x01,0x40,
0x00,0x17,0x9a,0x2a,0x7f,0x00,0x36,0x7f,0x00,0x3f,0x7f,0x00,0x3a,0x7f,0x07,0x25,
0x00,0x18,0xba,0x40,0x7f,0x00,0x40,0x7f,0x81,0x40,0x9a,0x3f,0x00,0x21,0x3a,0x00,
0x05,0x2a,0x00,0x02,0x36,0x00,0x61,0x2a,0x7f,0x00,0x3d,0x7f,0x00,0x36,0x7f,0x00,
0x3a,0x7f,0x1c,0xba,0x40,0x00,0x01,0x40,0x00,0x46,0x40,0x7f,0x00,0x40,0x7f,0x82,
0x1b,0x9a,0x3d,0x00,0x05,0x3a,0x00,0x0d,0x36,0x00,0x31,0x2a,0x00,0x33,0xba,0x40,
0x00,0x00,0x40,0x00,0x20,0x40,0x7f,0x00,0x40,0x7f,0x44,0x9a,0x2a,0x7f,0x00,0x3f,
0x7f,0x00,0x36,0x7f,0x00,0x3a,0x7f,0x13,0xba,0x40,0x00,0x00,0x40,0x00,0x41,0x40,
0x7f,0x00,0x40,0x7f,0x23,0x9a,0x36,0x00,0x13,0x3a,0x00,0x13,0x3f,0x00,0x07,0x2a,
0x00,0x81,0x44,0x2a,0x7f,0x00,0x3a,0x7f,0x00,0x3d,0x7f,0x00,0x41,0x7f,0x16,0xba,
0x40,0x00,0x00,0x40,0x00,0x36,0x40,0x7f,0x00,0x40,0x7f,0x25,0x9a,0x3d,0x00,0x09,
0x41,0x00,0x17,0x3a,0x00,0x81,0x35,0x2a,0x00,0x81,0x68,0xba,0x40,0x00,0x01,0x40,
0x00,0x29,0x9a,0x38,0x7f,0x00,0x3c,0x7f,0x00,0x25,0x7f,0x00,0x33,0x7f,0x07,0xba,
0x40,0x7f,0x01,0x40,0x7f,0x4a,0x9a,0x25,0x00,0x04,0x3c,0x00,0x00,0x33,0x00,0x03,
0x38,0x00,0x1f,0x3c,0x7f,0x00,0x33,0x7f,0x00,0x38,0x7f,0x00,0x25,0x7f,0x53,0x33,
0x00,0x02,0x25,0x00,0x0b,0x3c,0x00,0x05,0x38,0x00,0x81,0x0b,0x3d,0x7f,0x00,0x25,
0x7f,0x00,0x35,0x7f,0x00,0x38,0x7f,0x15,0xba,0x40,0x00,0x00,0x40,0x00,0x51,0x40,
0x7f,0x01,0x40,0x7f,0x82,0x05,0x9a,0x38,0x00,0x0c,0x25,0x00,0x07,0x35,0x00,0x01,
0x3d,0x00,0x81,0x2d,0xba,0x40,0x00,0x00,0x40,0x00,0x2b,0x9a,0x3c,0x7f,0x00,0x33,
0x7f,0x00,0x25,0x7f,0x00,0x38,0x7f,0x06,0xba,0x40,0x7f,0x01,0x40,0x7f,0x81,0x13,
0x9a,0x33,0x00,0x13,0x38,0x00,0x01,0x3c,0x00,0x15,0x25,0x00,0x81,0x25,0x3d,0x7f,
0x00,0x35,0x7f,0x00,0x25,0x7f,0x00,0x38,0x7f,0x0f,0xba,0x40,0x00,0x00,0x40,0x00,
0x51,0x40,0x7f,0x00,0x40,0x7f,0x2d,0x9a,0x35,0x00,0x11,0x38,0x00,0x0e,0x3d,0x00,
0x83,0x01,0xba,0x40,0x00,0x00,0x40,0x00,0x1b,0x9a,0x25,0x00,0x10,0x36,0x7f,0x00,
0x2a,0x7f,0x00,0x3a,0x7f,0x00,0x3f,0x7f,0x05,0xba,0x40,0x7f,0x00,0x40,0x7f,0x81,
0x2a,0x9a,0x3f,0x00,0x01,0x2a,0x00,0x11,0x36,0x00,0x02,0xba,0x40,0x00,0x00,0x40,
0x00,0x09,0x9a,0x3a,0x00,0x17,0xba,0x40,0x7f,0x01,0x40,0x7f,0x81,0x04,0x9a,0x36,
0x7f,0x00,0x3d,0x7f,0x00,0x2a,0x7f,0x00,0x3a,0x7f,0x23,0xba,0x40,0x00,0x01,0x40,
0x00,0x35,0x40,0x7f,0x01,0x40,0x7f,0x81,0x56,0x9a,0x3d,0x00,0x12,0x3a,0x00,0x07,
0x36,0x00,0x31,0x2a,0x00,0x81,0x37,0xba,0x40,0x00,0x00,0x40,0x00,0x27,0x9a,0x2a,
0x7f,0x00,0x36,0x7f,0x00,0x3a,0x7f,0x00,0x3f,0x7f,0x0f,0xba,0x40,0x7f,0x00,0x40,
0x7f,0x5f,0x9a,0x36,0x00,0x01,0x3a,0x00,0x1d,0x3f,0x00,0x05,0x2a,0x00,0x20,0xba,
0x40,0x00,0x01,0x40,0x00,0x2b,0x40,0x7f,0x00,0x40,0x7f,0x81,0x0b,0x9a,0x3a,0x7f,
0x00,0x2a,0x7f,0x00,0x3d,0x7f,0x00,0x41,0x7f,0x12,0xba,0x40,0x00,0x00,0x40,0x00,
0x2b,0x40,0x7f,0x01,0x40,0x7f,0x81,0x36,0x9a,0x3d,0x00,0x02,0x41,0x00,0x20,0x3a,
0x00,0x52,0x2a,0x00,0x81,0x37,0xba,0x40,0x00,0x01,0x40,0x00,0x38,0x9a,0x3c,0x7f,
0x00,0x33,0x7f,0x00,0x38,0x7f,0x00,0x25,0x7f,0x03,0xba,0x40,0x7f,0x01,0x40,0x7f,
0x3f,0x9a,0x3c,0x00,0x07,0x33,0x00,0x02,0x25,0x00,0x0f,0x38,0x00,0x1d,0x3c,0x7f,
0x00,0x25,0x7f,0x00,0x38,0x7f,0x00,0x33,0x7f,0x4e,0x33,0x00,0x0d,0x25,0x00,0x04,
0x38,0x00,0x03,0x3c,0x00,0x81,0x0e,0x25,0x7f,0x00,0x38,0x7f,0x00,0x3d,0x7f,0x00,
0x35,0x7f,0x0c,0xba,0x40,0x00,0x00,0x40,0x00,0x56,0x40,0x7f,0x01,0x40,0x7f,0x82,
0x37,0x9a,0x25,0x00,0x03,0x38,0x00,0x06,0x3d,0x00,0x01,0x35,0x00,0x81,0x16,0xba,
0x40,0x00,0x00,0x40,0x00,0x1e,0x9a,0x3c,0x7f,0x00,0x33,0x7f,0x00,0x38,0x7f,0x00,
0x25,0x7f,0x0d,0xba,0x40,0x7f,0x00,0x40,0x7f,0x3a,0x9a,0x3c,0x00,0x06,0x33,0x00,
0x04,0x38,0x00,0x02,0x25,0x00,0x25,0x3c,0x7f,0x00,0x25,0x7f,0x00,0x33,0x7f,0x00,
0x38,0x7f,0x3e,0x33,0x00,0x07,0x3c,0x00,0x06,0x38,0x00,0x06,0x25,0x00,0x81,0x1f,
0x3d,0x7f,0x00,0x35,0x7f,0x00,0x25,0x7f,0x00,0x38,0x7f,0x0b,0xba,0x40,0x00,0x00,
0x40,0x00,0x51,0x40,0x7f,0x00,0x40,0x7f,0x79,0x9a,0x3d,0x00,0x1b,0x3d,0x7f,0x81,
0x08,0x38,0x00,0x1a,0x35,0x00,0x0d,0x3d,0x00,0x81,0x2a,0xba,0x40,0x00,0x00,0x40,
0x00,0x0f,0x9a,0x36,0x7f,0x00,0x3f,0x7f,0x00,0x2a,0x7f,0x00,0x3a,0x7f,0x18,0x25,
0x00,0x20,0xba,0x40,0x7f,0x00,0x40,0x7f,0x81,0x1b,0x9a,0x3f,0x00,0x28,0x36,0x00,
0x13,0x3a,0x00,0x08,0x2a,0x00,0x52,0x2a,0x7f,0x00,0x36,0x7f,0x00,0x3d,0x7f,0x00,
0x3a,0x7f,0x0f,0xba,0x40,0x00,0x01,0x40,0x00,0x4b,0x40,0x7f,0x00,0x40,0x7f,0x81,
0x39,0x9a,0x3a,0x00,0x1b,0x3d,0x00,0x1a,0x36,0x00,0x1a,0x2a,0x00,0x81,0x65,0xba,
0x40,0x00,0x01,0x40,0x00,0x0f,0x9a,0x36,0x7f,0x00,0x2a,0x7f,0x00,0x3f,0x7f,0x00,
0x3a,0x7f,0x16,0xba,0x40,0x7f,0x01,0x40,0x7f,0x3e,0x9a,0x36,0x00,0x0c,0x3a,0x00,
0x10,0x3f,0x00,0x0b,0x2a,0x00,0x81,0x6a,0xba,0x40,0x00,0x00,0x40,0x00,0x02,0x9a,
0x2a,0x7f,0x00,0x3d,0x7f,0x00,0x3a,0x7f,0x00,0x41,0x7f,0x3a,0xba,0x40,0x7f,0x00,
0x40,0x7f,0x73,0x9a,0x3d,0x00,0x10,0x3a,0x00,0x09,0x41,0x00,0x81,0x23,0x2a,0x00,
0x81,0x33,0xba,0x40,0x00,0x00,0x40,0x00,0x36,0x40,0x7f,0x00,0x40,0x7f,0x06,0x9a,
0x2c,0x7f,0x00,0x3c,0x7f,0x00,0x3f,0x7f,0x00,0x44,0x7f,0x70,0x3c,0x00,0x46,0x44,
0x00,0x1e,0x2c,0x00,0x1c,0x2c,0x7f,0x02,0x3f,0x00,0x68,0x2c,0x00,0x0b,0xba,0x40,
0x00,0x00,0x40,0x00,0x03,0x9a,0x3d,0x7f,0x00,0x41,0x7f,0x00,0x44,0x7f,0x00,0x25,
0x7f,0x81,0x1a,0xba,0x40,0x7f,0x01,0x40,0x7f,0x76,0x9a,0x44,0x00,0x1e,0x3d,0x00,
0x2d,0x41,0x00,0x61,0x25,0x00,0x81,0x1b,0x2c,0x7f,0x00,0x44,0x7f,0x00,0x3f,0x7f,
0x00,0x3c,0x7f,0x4d,0x3c,0x00,0x17,0x44,0x00,0x0b,0x3f,0x00,0x25,0x2c,0x00,0x5c,
0x3d,0x7f,0x00,0x25,0x7f,0x10,0x3d,0x00,0x40,0x25,0x00,0x28,0x3a,0x7f,0x00,0x42,
0x7f,0x00,0x2a,0x7f,0x00,0x3d,0x7f,0x07,0xba,0x40,0x00,0x00,0x40,0x00,0x82,0x2a,
0x40,0x7f,0x00,0x40,0x7f,0x81,0x53,0x40,0x00,0x01,0x40,0x00,0x29,0x9a,0x3a,0x00,
0x03,0x3d,0x00,0x07,0x42,0x00,0x0d,0x2a,0x00,0x13,0x25,0x7f,0x00,0x3d,0x7f,0x00,
0x41,0x7f,0x29,0xba,0x40,0x7f,0x01,0x40,0x7f,0x36,0x9a,0x41,0x00,0x18,0x38,0x7f,
0x07,0x3d,0x00,0x69,0x38,0x00,0x08,0x41,0x7f,0x00,0x3d,0x7f,0x54,0x41,0x00,0x24,
0x38,0x7f,0x09,0x3d,0x00,0x5d,0x38,0x00,0x12,0x41,0x7f,0x00,0x3d,0x7f,0x61,0x41,
0x00,0x17,0x27,0x7f,0x00,0x38,0x7f,0x08,0x3d,0x00,0x15,0x25,0x00,0x59,0xba,0x40,
0x00,0x01,0x40,0x00,0x01,0x9a,0x3d,0x7f,0x00,0x41,0x7f,0x00,0x29,0x7f,0x08,0x27,
0x00,0x02,0x38,0x00,0x64,0x41,0x00,0x02,0x29,0x00,0x01,0x3d,0x00,0x07,0x38,0x7f,
0x00,0x2c,0x7f,0x78,0x3f,0x7f,0x00,0x3c,0x7f,0x12,0x38,0x00,0x5a,0x3f,0x00,0x0c,
0x38,0x7f,0x0c,0x3c,0x00,0x6c,0x3f,0x7f,0x00,0x3c,0x7f,0x00,0xba,0x40,0x7f,0x01,
0x40,0x7f,0x07,0x9a,0x38,0x00,0x68,0x3f,0x00,0x08,0x3c,0x00,0x00,0x38,0x7f,0x6a,
0x38,0x00,0x0e,0x3f,0x7f,0x00,0x3c,0x7f,0x63,0x3f,0x00,0x15,0x38,0x7f,0x00,0x2e,
0x7f,0x02,0x3c,0x00,0x0b,0x2c,0x00,0x01,0xba,0x40,0x00,0x01,0x40,0x00,0x5b,0x9a,
0x38,0x00,0x0e,0x30,0x7f,0x00,0x3f,0x7f,0x00,0x3c,0x7f,0x04,0x2e,0x00,0x0f,0xba,
0x40,0x7f,0x01,0x40,0x7f,0x48,0x9a,0x3f,0x00,0x10,0x30,0x00,0x05,0x3c,0x00,0x07,
0x2e,0x7f,0x00,0x38,0x7f,0x0d,0xba,0x40,0x00,0x00,0x40,0x00,0x3a,0x9a,0x38,0x00,
0x31,0x3d,0x7f,0x00,0x3a,0x7f,0x2c,0xba,0x40,0x7f,0x01,0x40,0x7f,0x29,0x9a,0x3d,
0x00,0x22,0x3a,0x00,0x00,0x35,0x7f,0x55,0x35,0x00,0x23,0x3d,0x7f,0x00,0x3a,0x7f,
0x58,0x3d,0x00,0x1c,0x3a,0x00,0x04,0x35,0x7f,0x59,0x35,0x00,0x1f,0x3d,0x7f,0x00,
0x3a,0x7f,0x52,0x3d,0x00,0x21,0x3a,0x00,0x05,0x30,0x7f,0x00,0x35,0x7f,0x4d,0x35,
0x00,0x11,0x2e,0x00,0x0c,0x30,0x00,0x0e,0x3a,0x7f,0x00,0x3d,0x7f,0x00,0x31,0x7f,
0x02,0xba,0x40,0x00,0x00,0x40,0x00,0x4f,0x9a,0x3d,0x00,0x15,0x3a,0x00,0x12,0x36,
0x7f,0x00,0x2a,0x7f,0x0b,0x31,0x00,0x63,0x36,0x00,0x0a,0x3a,0x7f,0x00,0x3d,0x7f,
0x0b,0xba,0x40,0x7f,0x01,0x40,0x7f,0x56,0x9a,0x3d,0x00,0x16,0x36,0x7f,0x02,0x3a,
0x00,0x63,0x36,0x00,0x13,0x3d,0x7f,0x00,0x3a,0x7f,0x5e,0x3d,0x00,0x1a,0x3a,0x00,
0x00,0x36,0x7f,0x78,0x3d,0x7f,0x00,0x3a,0x7f,0x03,0x36,0x00,0x6a,0x3d,0x00,0x0b,
0x30,0x7f,0x00,0x36,0x7f,0x1a,0x3a,0x00,0x47,0x36,0x00,0x17,0x31,0x7f,0x00,0x3a,
0x7f,0x00,0x3d,0x7f,0x01,0x30,0x00,0x13,0x2a,0x00,0x32,0x3a,0x00,0x1c,0x3d,0x00,
0x16,0x36,0x7f,0x57,0xba,0x40,0x00,0x00,0x40,0x00,0x17,0x9a,0x36,0x00,0x0a,0x25,
0x7f,0x00,0x41,0x7f,0x00,0x3d,0x7f,0x03,0x31,0x00,0x6e,0xba,0x40,0x7f,0x00,0x40,
0x7f,0x07,0x9a,0x38,0x7f,0x07,0x41,0x00,0x0f,0x3d,0x00,0x62,0x41,0x7f,0x00,0x3d,
0x7f,0x02,0x38,0x00,0x4e,0x41,0x00,0x28,0x38,0x7f,0x08,0x3d,0x00,0x58,0x25,0x00,
0x10,0x38,0x00,0x08,0x41,0x7f,0x00,0x3d,0x7f,0x00,0x25,0x7f,0x45,0x41,0x00,0x31,
0x3d,0x00,0x02,0x27,0x7f,0x00,0x38,0x7f,0x09,0x25,0x00,0x4f,0xba,0x40,0x00,0x00,
0x40,0x00,0x0f,0x9a,0x27,0x00,0x0d,0x38,0x00,0x04,0x3d,0x7f,0x00,0x41,0x7f,0x00,
0x29,0x7f,0x70,0x41,0x00,0x08,0x38,0x7f,0x00,0x2c,0x7f,0x05,0x3d,0x00,0x02,0x29,
0x00,0x71,0x3f,0x7f,0x00,0x3c,0x7f,0x0c,0x38,0x00,0x5d,0x3f,0x00,0x02,0xba,0x40,
0x7f,0x00,0x40,0x7f,0x0d,0x9a,0x38,0x7f,0x07,0x3c,0x00,0x69,0x38,0x00,0x08,0x3f,
0x7f,0x00,0x3c,0x7f,0x68,0x3f,0x00,0x09,0x3c,0x00,0x07,0x38,0x7f,0x78,0x3f,0x7f,
0x00,0x3c,0x7f,0x09,0x38,0x00,0x62,0x3f,0x00,0x0d,0x3c,0x00,0x00,0x38,0x7f,0x00,
0x2e,0x7f,0x14,0x2c,0x00,0x07,0xba,0x40,0x00,0x00,0x40,0x00,0x59,0x9a,0x2e,0x00,
0x02,0x38,0x00,0x02,0x3f,0x7f,0x00,0x3c,0x7f,0x00,0x30,0x7f,0x04,0xba,0x40,0x7f,
0x01,0x40,0x7f,0x6c,0x9a,0x3f,0x00,0x01,0x3c,0x00,0x06,0x30,0x00,0x00,0x29,0x7f,
0x00,0x38,0x7f,0x09,0xba,0x40,0x00,0x00,0x40,0x00,0x43,0x9a,0x38,0x00,0x24,0xba,
0x40,0x7f,0x01,0x40,0x7f,0x07,0x9a,0x3c,0x7f,0x00,0x38,0x7f,0x60,0x3c,0x00,0x0b,
0x38,0x00,0x0d,0x35,0x7f,0x5a,0x35,0x00,0x1e,0x3c,0x7f,0x00,0x38,0x7f,0x6c,0x3c,
0x00,0x0c,0x35,0x7f,0x0c,0x38,0x00,0x3f,0x29,0x00,0x15,0x35,0x00,0x18,0x3c,0x7f,
0x00,0x29,0x7f,0x00,0x38,0x7f,0x55,0x3c,0x00,0x17,0x29,0x00,0x0c,0x31,0x7f,0x00,
0x35,0x7f,0x1c,0x38,0x00,0x3b,0x35,0x00,0x1a,0x31,0x00,0x07,0x38,0x7f,0x00,0x3c,
0x7f,0x00,0x29,0x7f,0x19,0xba,0x40,0x00,0x00,0x40,0x00,0x55,0x9a,0x3c,0x00,0x00,
0x38,0x00,0x0a,0x2a,0x7f,0x00,0x35,0x7f,0x17,0x29,0x00,0x54,0x35,0x00,0x0d,0x3a,
0x7f,0x00,0x3d,0x7f,0x12,0xba,0x40,0x7f,0x01,0x40,0x7f,0x56,0x9a,0x3d,0x00,0x0f,
0x36,0x7f,0x07,0x3a,0x00,0x5e,0x36,0x00,0x13,0x3a,0x7f,0x00,0x3d,0x7f,0x65,0x3d,
0x00,0x13,0x3a,0x00,0x00,0x36,0x7f,0x6d,0x36,0x00,0x0b,0x3d,0x7f,0x00,0x3a,0x7f,
0x58,0x3d,0x00,0x20,0x36,0x7f,0x00,0x30,0x7f,0x01,0x3a,0x00,0x1d,0x2a,0x00,0x1c,
0xba,0x40,0x00,0x00,0x40,0x00,0x3e,0x9a,0x3a,0x7f,0x00,0x3d,0x7f,0x00,0x31,0x7f,
0x07,0x30,0x00,0x08,0x36,0x00,0x09,0xba,0x40,0x7f,0x01,0x40,0x7f,0x5e,0x9a,0x3d,
0x00,0x01,0x36,0x7f,0x02,0xba,0x40,0x00,0x00,0x40,0x00,0x0a,0x9a,0x3a,0x00,0x42,
0x31,0x00,0x0f,0x36,0x00,0x1b,0x25,0x7f,0x00,0x3d,0x7f,0x00,0x41,0x7f,0x29,0xba,
0x40,0x7f,0x01,0x40,0x7f,0x36,0x9a,0x41,0x00,0x18,0x38,0x7f,0x07,0x3d,0x00,0x69,
0x38,0x00,0x08,0x41,0x7f,0x00,0x3d,0x7f,0x54,0x41,0x00,0x24,0x38,0x7f,0x09,0x3d,
0x00,0x5d,0x38,0x00,0x12,0x41,0x7f,0x00,0x3d,0x7f,0x61,0x41,0x00,0x17,0x27,0x7f,
0x00,0x38,0x7f,0x08,0x3d,0x00,0x15,0x25,0x00,0x59,0xba,0x40,0x00,0x01,0x40,0x00,
0x01,0x9a,0x3d,0x7f,0x00,0x41,0x7f,0x00,0x29,0x7f,0x08,0x27,0x00,0x02,0x38,0x00,
0x64,0x41,0x00,0x02,0x29,0x00,0x01,0x3d,0x00,0x07,0x38,0x7f,0x00,0x2c,0x7f,0x78,
0x3f,0x7f,0x00,0x3c,0x7f,0x12,0x38,0x00,0x5a,0x3f,0x00,0x0c,0x38,0x7f,0x0c,0x3c,
0x00,0x6c,0x3f,0x7f,0x00,0x3c,0x7f,0x00,0xba,0x40,0x7f,0x01,0x40,0x7f,0x07,0x9a,
0x38,0x00,0x68,0x3f,0x00,0x08,0x3c,0x00,0x00,0x38,0x7f,0x6a,0x38,0x00,0x0e,0x3f,
0x7f,0x00,0x3c,0x7f,0x63,0x3f,0x00,0x15,0x38,0x7f,0x00,0x2e,0x7f,0x02,0x3c,0x00,
0x0b,0x2c,0x00,0x01,0xba,0x40,0x00,0x01,0x40,0x00,0x5b,0x9a,0x38,0x00,0x0e,0x30,
0x7f,0x00,0x3f,0x7f,0x00,0x3c,0x7f,0x04,0x2e,0x00,0x0f,0xba,0x40,0x7f,0x01,0x40,
0x7f,0x48,0x9a,0x3f,0x00,0x10,0x30,0x00,0x05,0x3c,0x00,0x07,0x2e,0x7f,0x00,0x38,
0x7f,0x0d,0xba,0x40,0x00,0x00,0x40,0x00,0x3a,0x9a,0x38,0x00,0x31,0x3d,0x7f,0x00,
0x3a,0x7f,0x2c,0xba,0x40,0x7f,0x01,0x40,0x7f,0x29,0x9a,0x3d,0x00,0x22,0x3a,0x00,
0x00,0x35,0x7f,0x55,0x35,0x00,0x23,0x3d,0x7f,0x00,0x3a,0x7f,0x58,0x3d,0x00,0x1c,
0x3a,0x00,0x04,0x35,0x7f,0x59,0x35,0x00,0x1f,0x3d,0x7f,0x00,0x3a,0x7f,0x52,0x3d,
0x00,0x21,0x3a,0x00,0x05,0x30,0x7f,0x00,0x35,0x7f,0x4d,0x35,0x00,0x11,0x2e,0x00,
0x0c,0x30,0x00,0x0e,0x3a,0x7f,0x00,0x3d,0x7f,0x00,0x31,0x7f,0x02,0xba,0x40,0x00,
0x00,0x40,0x00,0x4f,0x9a,0x3d,0x00,0x15,0x3a,0x00,0x12,0x36,0x7f,0x00,0x2a,0x7f,
0x0b,0x31,0x00,0x63,0x36,0x00,0x0a,0x3a,0x7f,0x00,0x3d,0x7f,0x0b,0xba,0x40,0x7f,
0x01,0x40,0x7f,0x56,0x9a,0x3d,0x00,0x16,0x36,0x7f,0x02,0x3a,0x00,0x63,0x36,0x00,
0x13,0x3d,0x7f,0x00,0x3a,0x7f,0x5e,0x3d,0x00,0x1a,0x3a,0x00,0x00,0x36,0x7f,0x78,
0x3d,0x7f,0x00,0x3a,0x7f,0x03,0x36,0x00,0x6a,0x3d,0x00,0x0b,0x30,0x7f,0x00,0x36,
0x7f,0x1a,0x3a,0x00,0x47,0x36,0x00,0x17,0x31,0x7f,0x00,0x3a,0x7f,0x00,0x3d,0x7f,
0x01,0x30,0x00,0x13,0x2a,0x00,0x32,0x3a,0x00,0x1c,0x3d,0x00,0x16,0x36,0x7f,0x57,
0xba,0x40,0x00,0x00,0x40,0x00,0x17,0x9a,0x36,0x00,0x0a,0x25,0x7f,0x00,0x41,0x7f,
0x00,0x3d,0x7f,0x03,0x31,0x00,0x6e,0xba,0x40,0x7f,0x00,0x40,0x7f,0x07,0x9a,0x38,
0x7f,0x07,0x41,0x00,0x0f,0x3d,0x00,0x62,0x41,0x7f,0x00,0x3d,0x7f,0x02,0x38,0x00,
0x4e,0x41,0x00,0x28,0x38,0x7f,0x08,0x3d,0x00,0x58,0x25,0x00,0x10,0x38,0x00,0x08,
0x41,0x7f,0x00,0x3d,0x7f,0x00,0x25,0x7f,0x45,0x41,0x00,0x31,0x3d,0x00,0x02,0x27,
0x7f,0x00,0x38,0x7f,0x09,0x25,0x00,0x4f,0xba,0x40,0x00,0x00,0x40,0x00,0x0f,0x9a,
0x27,0x00,0x0d,0x38,0x00,0x04,0x3d,0x7f,0x00,0x41,0x7f,0x00,0x29,0x7f,0x70,0x41,
0x00,0x08,0x38,0x7f,0x00,0x2c,0x7f,0x05,0x3d,0x00,0x02,0x29,0x00,0x71,0x3f,0x7f,
0x00,0x3c,0x7f,0x0c,0x38,0x00,0x5d,0x3f,0x00,0x02,0xba,0x40,0x7f,0x00,0x40,0x7f,
0x0d,0x9a,0x38,0x7f,0x07,0x3c,0x00,0x69,0x38,0x00,0x08,0x3f,0x7f,0x00,0x3c,0x7f,
0x68,0x3f,0x00,0x09,0x3c,0x00,0x07,0x38,0x7f,0x78,0x3f,0x7f,0x00,0x3c,0x7f,0x09,
0x38,0x00,0x62,0x3f,0x00,0x0d,0x3c,0x00,0x00,0x38,0x7f,0x00,0x2e,0x7f,0x14,0x2c,
0x00,0x07,0xba,0x40,0x00,0x00,0x40,0x00,0x59,0x9a,0x2e,0x00,0x02,0x38,0x00,0x02,
0x3f,0x7f,0x00,0x3c,0x7f,0x00,0x30,0x7f,0x04,0xba,0x40,0x7f,0x01,0x40,0x7f,0x6c,
0x9a,0x3f,0x00,0x01,0x3c,0x00,0x06,0x30,0x00,0x00,0x29,0x7f,0x00,0x38,0x7f,0x09,
0xba,0x40,0x00,0x00,0x40,0x00,0x43,0x9a,0x38,0x00,0x24,0xba,0x40,0x7f,0x01,0x40,
0x7f,0x07,0x9a,0x3c,0x7f,0x00,0x38,0x7f,0x60,0x3c,0x00,0x0b,0x38,0x00,0x0d,0x35,
0x7f,0x5a,0x35,0x00,0x1e,0x3c,0x7f,0x00,0x38,0x7f,0x6c,0x3c,0x00,0x0c,0x35,0x7f,
0x0c,0x38,0x00,0x3f,0x29,0x00,0x15,0x35,0x00,0x18,0x3c,0x7f,0x00,0x29,0x7f,0x00,
0x38,0x7f,0x55,0x3c,0x00,0x17,0x29,0x00,0x0c,0x31,0x7f,0x00,0x35,0x7f,0x1c,0x38,
0x00,0x3b,0x35,0x00,0x1a,0x31,0x00,0x07,0x38,0x7f,0x00,0x3c,0x7f,0x00,0x29,0x7f,
0x19,0xba,0x40,0x00,0x00,0x40,0x00,0x55,0x9a,0x3c,0x00,0x00,0x38,0x00,0x0a,0x2a,
0x7f,0x00,0x35,0x7f,0x17,0x29,0x00,0x54,0x35,0x00,0x0d,0x3a,0x7f,0x00,0x3d,0x7f,
0x12,0xba,0x40,0x7f,0x01,0x40,0x7f,0x56,0x9a,0x3d,0x00,0x0f,0x36,0x7f,0x07,0x3a,
0x00,0x5e,0x36,0x00,0x13,0x3a,0x7f,0x00,0x3d,0x7f,0x65,0x3d,0x00,0x13,0x3a,0x00,
0x00,0x36,0x7f,0x6d,0x36,0x00,0x0b,0x3d,0x7f,0x00,0x3a,0x7f,0x58,0x3d,0x00,0x20,
0x36,0x7f,0x00,0x30,0x7f,0x01,0x3a,0x00,0x1d,0x2a,0x00,0x1c,0xba,0x40,0x00,0x00,
0x40,0x00,0x3e,0x9a,0x3a,0x7f,0x00,0x3d,0x7f,0x00,0x31,0x7f,0x07,0x30,0x00,0x08,
0x36,0x00,0x09,0xba,0x40,0x7f,0x01,0x40,0x7f,0x5e,0x9a,0x3d,0x00,0x01,0x36,0x7f,
0x02,0xba,0x40,0x00,0x00,0x40,0x00,0x0a,0x9a,0x3a,0x00,0x42,0x31,0x00,0x0f,0x36,
0x00,0x1b,0x25,0x7f,0x00,0x3d,0x7f,0x00,0x41,0x7f,0x29,0xba,0x40,0x7f,0x01,0x40,
0x7f,0x36,0x9a,0x41,0x00,0x18,0x38,0x7f,0x07,0x3d,0x00,0x69,0x38,0x00,0x08,0x41,
0x7f,0x00,0x3d,0x7f,0x54,0x41,0x00,0x24,0x38,0x7f,0x09,0x3d,0x00,0x5d,0x38,0x00,
0x12,0x41,0x7f,0x00,0x3d,0x7f,0x61,0x41,0x00,0x17,0x27,0x7f,0x00,0x38,0x7f,0x08,
0x3d,0x00,0x15,0x25,0x00,0x59,0xba,0x40,0x00,0x01,0x40,0x00,0x01,0x9a,0x3d,0x7f,
0x00,0x41,0x7f,0x00,0x29,0x7f,0x08,0x27,0x00,0x02,0x38,0x00,0x64,0x41,0x00,0x02,
0x29,0x00,0x01,0x3d,0x00,0x07,0x38,0x7f,0x00,0x2c,0x7f,0x78,0x3f,0x7f,0x00,0x3c,
0x7f,0x12,0x38,0x00,0x5a,0x3f,0x00,0x0c,0x38,0x7f,0x0c,0x3c,0x00,0x6c,0x3f,0x7f,
0x00,0x3c,0x7f,0x00,0xba,0x40,0x7f,0x01,0x40,0x7f,0x07,0x9a,0x38,0x00,0x68,0x3f,
0x00,0x08,0x3c,0x00,0x00,0x38,0x7f,0x6a,0x38,0x00,0x0e,0x3f,0x7f,0x00,0x3c,0x7f,
0x63,0x3f,0x00,0x15,0x38,0x7f,0x00,0x2e,0x7f,0x02,0x3c,0x00,0x0b,0x2c,0x00,0x01,
0xba,0x40,0x00,0x01,0x40,0x00,0x5b,0x9a,0x38,0x00,0x0e,0x30,0x7f,0x00,0x3f,0x7f,
0x00,0x3c,0x7f,0x04,0x2e,0x00,0x0f,0xba,0x40,0x7f,0x01,0x40,0x7f,0x48,0x9a,0x3f,
0x00,0x10,0x30,0x00,0x05,0x3c,0x00,0x07,0x2e,0x7f,0x00,0x38,0x7f,0x0d,0xba,0x40,
0x00,0x00,0x40,0x00,0x3a,0x9a,0x38,0x00,0x31,0x3d,0x7f,0x00,0x3a,0x7f,0x2c,0xba,
0x40,0x7f,0x01,0x40,0x7f,0x29,0x9a,0x3d,0x00,0x22,0x3a,0x00,0x00,0x35,0x7f,0x55,
0x35,0x00,0x23,0x3d,0x7f,0x00,0x3a,0x7f,0x58,0x3d,0x00,0x1c,0x3a,0x00,0x04,0x35,
0x7f,0x59,0x35,0x00,0x1f,0x3d,0x7f,0x00,0x3a,0x7f,0x52,0x3d,0x00,0x21,0x3a,0x00,
0x05,0x30,0x7f,0x00,0x35,0x7f,0x4d,0x35,0x00,0x11,0x2e,0x00,0x0c,0x30,0x00,0x0e,
0x3a,0x7f,0x00,0x3d,0x7f,0x00,0x31,0x7f,0x02,0xba,0x40,0x00,0x00,0x40,0x00,0x4f,
0x9a,0x3d,0x00,0x15,0x3a,0x00,0x12,0x36,0x7f,0x00,0x2a,0x7f,0x0b,0x31,0x00,0x63,
0x36,0x00,0x0a,0x3a,0x7f,0x00,0x3d,0x7f,0x0b,0xba,0x40,0x7f,0x01,0x40,0x7f,0x56,
0x9a,0x3d,0x00,0x16,0x36,0x7f,0x02,0x3a,0x00,0x63,0x36,0x00,0x13,0x3d,0x7f,0x00,
0x3a,0x7f,0x5e,0x3d,0x00,0x1a,0x3a,0x00,0x00,0x36,0x7f,0x78,0x3d,0x7f,0x00,0x3a,
0x7f,0x03,0x36,0x00,0x6a,0x3d,0x00,0x0b,0x30,0x7f,0x00,0x36,0x7f,0x1a,0x3a,0x00,
0x47,0x36,0x00,0x17,0x31,0x7f,0x00,0x3a,0x7f,0x00,0x3d,0x7f,0x01,0x30,0x00,0x13,
0x2a,0x00,0x32,0x3a,0x00,0x1c,0x3d,0x00,0x16,0x36,0x7f,0x57,0xba,0x40,0x00,0x00,
0x40,0x00,0x17,0x9a,0x36,0x00,0x0a,0x25,0x7f,0x00,0x41,0x7f,0x00,0x3d,0x7f,0x03,
0x31,0x00,0x6e,0xba,0x40,0x7f,0x00,0x40,0x7f,0x07,0x9a,0x38,0x7f,0x07,0x41,0x00,
0x0f,0x3d,0x00,0x62,0x41,0x7f,0x00,0x3d,0x7f,0x02,0x38,0x00,0x4e,0x41,0x00,0x28,
0x38,0x7f,0x08,0x3d,0x00,0x58,0x25,0x00,0x10,0x38,0x00,0x08,0x41,0x7f,0x00,0x3d,
0x7f,0x00,0x25,0x7f,0x45,0x41,0x00,0x31,0x3d,0x00,0x02,0x27,0x7f,0x00,0x38,0x7f,
0x09,0x25,0x00,0x4f,0xba,0x40,0x00,0x00,0x40,0x00,0x0f,0x9a,0x27,0x00,0x0d,0x38,
0x00,0x04,0x3d,0x7f,0x00,0x41,0x7f,0x00,0x29,0x7f,0x70,0x41,0x00,0x08,0x38,0x7f,
0x00,0x2c,0x7f,0x05,0x3d,0x00,0x02,0x29,0x00,0x71,0x3f,0x7f,0x00,0x3c,0x7f,0x0c,
0x38,0x00,0x5d,0x3f,0x00,0x02,0xba,0x40,0x7f,0x00,0x40,0x7f,0x0d,0x9a,0x38,0x7f,
0x07,0x3c,0x00,0x69,0x38,0x00,0x08,0x3f,0x7f,0x00,0x3c,0x7f,0x68,0x3f,0x00,0x09,
0x3c,0x00,0x07,0x38,0x7f,0x78,0x3f,0x7f,0x00,0x3c,0x7f,0x09,0x38,0x00,0x62,0x3f,
0x00,0x0d,0x3c,0x00,0x00,0x38,0x7f,0x00,0x2e,0x7f,0x14,0x2c,0x00,0x07,0xba,0x40,
0x00,0x00,0x40,0x00,0x59,0x9a,0x2e,0x00,0x02,0x38,0x00,0x02,0x3f,0x7f,0x00,0x3c,
0x7f,0x00,0x30,0x7f,0x04,0xba,0x40,0x7f,0x01,0x40,0x7f,0x6c,0x9a,0x3f,0x00,0x01,
0x3c,0x00,0x06,0x30,0x00,0x00,0x29,0x7f,0x00,0x38,0x7f,0x09,0xba,0x40,0x00,0x00,
0x40,0x00,0x43,0x9a,0x38,0x00,0x24,0xba,0x40,0x7f,0x01,0x40,0x7f,0x07,0x9a,0x3c,
0x7f,0x00,0x38,0x7f,0x60,0x3c,0x00,0x0b,0x38,0x00,0x0d,0x35,0x7f,0x5a,0x35,0x00,
0x1e,0x3c,0x7f,0x00,0x38,0x7f,0x6c,0x3c,0x00,0x0c,0x35,0x7f,0x0c,0x38,0x00,0x3f,
0x29,0x00,0x15,0x35,0x00,0x18,0x3c,0x7f,0x00,0x29,0x7f,0x00,0x38,0x7f,0x55,0x3c,
0x00,0x17,0x29,0x00,0x0c,0x31,0x7f,0x00,0x35,0x7f,0x1c,0x38,0x00,0x3b,0x35,0x00,
0x1a,0x31,0x00,0x07,0x38,0x7f,0x00,0x3c,0x7f,0x00,0x29,0x7f,0x19,0xba,0x40,0x00,
0x00,0x40,0x00,0x55,0x9a,0x3c,0x00,0x00,0x38,0x00,0x0a,0x2a,0x7f,0x00,0x35,0x7f,
0x17,0x29,0x00,0x54,0x35,0x00,0x0d,0x3a,0x7f,0x00,0x3d,0x7f,0x12,0xba,0x40,0x7f,
0x01,0x40,0x7f,0x56,0x9a,0x3d,0x00,0x0f,0x36,0x7f,0x07,0x3a,0x00,0x5e,0x36,0x00,
0x13,0x3a,0x7f,0x00,0x3d,0x7f,0x65,0x3d,0x00,0x13,0x3a,0x00,0x00,0x36,0x7f,0x6d,
0x36,0x00,0x0b,0x3d,0x7f,0x00,0x3a,0x7f,0x58,0x3d,0x00,0x20,0x36,0x7f,0x00,0x30,
0x7f,0x01,0x3a,0x00,0x1d,0x2a,0x00,0x1c,0xba,0x40,0x00,0x00,0x40,0x00,0x3e,0x9a,
0x3a,0x7f,0x00,0x3d,0x7f,0x00,0x31,0x7f,0x07,0x30,0x00,0x08,0x36,0x00,0x09,0xba,
0x40,0x7f,0x01,0x40,0x7f,0x5e,0x9a,0x3d,0x00,0x01,0x36,0x7f,0x02,0xba,0x40,0x00,
0x00,0x40,0x00,0x0a,0x9a,0x3a,0x00,0x42,0x31,0x00,0x0f,0x36,0x00,0x1b,0x25,0x7f,
0x00,0x3d,0x7f,0x00,0x41,0x7f,0x29,0xba,0x40,0x7f,0x01,0x40,0x7f,0x36,0x9a,0x41,
0x00,0x18,0x38,0x7f,0x07,0x3d,0x00,0x69,0x38,0x00,0x08,0x41,0x7f,0x00,0x3d,0x7f,
0x54,0x41,0x00,0x24,0x38,0x7f,0x09,0x3d,0x00,0x5d,0x38,0x00,0x12,0x41,0x7f,0x00,
0x3d,0x7f,0x61,0x41,0x00,0x17,0x27,0x7f,0x00,0x38,0x7f,0x08,0x3d,0x00,0x15,0x25,
0x00,0x59,0xba,0x40,0x00,0x01,0x40,0x00,0x01,0x9a,0x3d,0x7f,0x00,0x41,0x7f,0x00,
0x29,0x7f,0x08,0x27,0x00,0x02,0x38,0x00,0x64,0x41,0x00,0x02,0x29,0x00,0x01,0x3d,
0x00,0x07,0x38,0x7f,0x00,0x2c,0x7f,0x78,0x3f,0x7f,0x00,0x3c,0x7f,0x12,0x38,0x00,
0x5a,0x3f,0x00,0x0c,0x38,0x7f,0x0c,0x3c,0x00,0x6c,0x3f,0x7f,0x00,0x3c,0x7f,0x00,
0xba,0x40,0x7f,0x01,0x40,0x7f,0x07,0x9a,0x38,0x00,0x68,0x3f,0x00,0x08,0x3c,0x00,
0x00,0x38,0x7f,0x6a,0x38,0x00,0x0e,0x3f,0x7f,0x00,0x3c,0x7f,0x63,0x3f,0x00,0x15,
0x38,0x7f,0x00,0x2e,0x7f,0x02,0x3c,0x00,0x0b,0x2c,0x00,0x01,0xba,0x40,0x00,0x01,
0x40,0x00,0x5b,0x9a,0x38,0x00,0x0e,0x30,0x7f,0x00,0x3f,0x7f,0x00,0x3c,0x7f,0x04,
0x2e,0x00,0x0f,0xba,0x40,0x7f,0x01,0x40,0x7f,0x48,0x9a,0x3f,0x00,0x10,0x30,0x00,
0x05,0x3c,0x00,0x07,0x2e,0x7f,0x00,0x38,0x7f,0x0d,0xba,0x40,0x00,0x00,0x40,0x00,
0x3a,0x9a,0x38,0x00,0x31,0x3d,0x7f,0x00,0x3a,0x7f,0x2c,0xba,0x40,0x7f,0x01,0x40,
0x7f,0x29,0x9a,0x3d,0x00,0x22,0x3a,0x00,0x00,0x35,0x7f,0x55,0x35,0x00,0x23,0x3d,
0x7f,0x00,0x3a,0x7f,0x58,0x3d,0x00,0x1c,0x3a,0x00,0x04,0x35,0x7f,0x59,0x35,0x00,
0x1f,0x3d,0x7f,0x00,0x3a,0x7f,0x52,0x3d,0x00,0x21,0x3a,0x00,0x05,0x30,0x7f,0x00,
0x35,0x7f,0x4d,0x35,0x00,0x11,0x2e,0x00,0x0c,0x30,0x00,0x0e,0x3a,0x7f,0x00,0x3d,
0x7f,0x00,0x31,0x7f,0x02,0xba,0x40,0x00,0x00,0x40,0x00,0x4f,0x9a,0x3d,0x00,0x15,
0x3a,0x00,0x12,0x36,0x7f,0x00,0x2a,0x7f,0x0b,0x31,0x00,0x63,0x36,0x00,0x0a,0x3a,
0x7f,0x00,0x3d,0x7f,0x0b,0xba,0x40,0x7f,0x01,0x40,0x7f,0x56,0x9a,0x3d,0x00,0x16,
0x36,0x7f,0x02,0x3a,0x00,0x63,0x36,0x00,0x13,0x3d,0x7f,0x00,0x3a,0x7f,0x5e,0x3d,
0x00,0x1a,0x3a,0x00,0x00,0x36,0x7f,0x78,0x3d,0x7f,0x00,0x3a,0x7f,0x03,0x36,0x00,
0x6a,0x3d,0x00,0x0b,0x30,0x7f,0x00,0x36,0x7f,0x1a,0x3a,0x00,0x47,0x36,0x00,0x17,
0x31,0x7f,0x00,0x3a,0x7f,0x00,0x3d,0x7f,0x01,0x30,0x00,0x13,0x2a,0x00,0x32,0x3a,
0x00,0x1c,0x3d,0x00,0x16,0x36,0x7f,0x57,0xba,0x40,0x00,0x00,0x40,0x00,0x17,0x9a,
0x36,0x00,0x0a,0x25,0x7f,0x00,0x41,0x7f,0x00,0x3d,0x7f,0x03,0x31,0x00,0x6e,0xba,
0x40,0x7f,0x00,0x40,0x7f,0x07,0x9a,0x38,0x7f,0x07,0x41,0x00,0x0f,0x3d,0x00,0x62,
0x41,0x7f,0x00,0x3d,0x7f,0x02,0x38,0x00,0x4e,0x41,0x00,0x28,0x38,0x7f,0x08,0x3d,
0x00,0x58,0x25,0x00,0x10,0x38,0x00,0x08,0x41,0x7f,0x00,0x3d,0x7f,0x00,0x25,0x7f,
0x45,0x41,0x00,0x31,0x3d,0x00,0x02,0x27,0x7f,0x00,0x38,0x7f,0x09,0x25,0x00,0x4f,
0xba,0x40,0x00,0x00,0x40,0x00,0x0f,0x9a,0x27,0x00,0x0d,0x38,0x00,0x04,0x3d,0x7f,
0x00,0x41,0x7f,0x00,0x29,0x7f,0x70,0x41,0x00,0x08,0x38,0x7f,0x00,0x2c,0x7f,0x05,
0x3d,0x00,0x02,0x29,0x00,0x71,0x3f,0x7f,0x00,0x3c,0x7f,0x0c,0x38,0x00,0x5d,0x3f,
0x00,0x02,0xba,0x40,0x7f,0x00,0x40,0x7f,0x0d,0x9a,0x38,0x7f,0x07,0x3c,0x00,0x69,
0x38,0x00,0x08,0x3f,0x7f,0x00,0x3c,0x7f,0x68,0x3f,0x00,0x09,0x3c,0x00,0x07,0x38,
0x7f,0x78,0x3f,0x7f,0x00,0x3c,0x7f,0x09,0x38,0x00,0x62,0x3f,0x00,0x0d,0x3c,0x00,
0x00,0x38,0x7f,0x00,0x2e,0x7f,0x14,0x2c,0x00,0x07,0xba,0x40,0x00,0x00,0x40,0x00,
0x59,0x9a,0x2e,0x00,0x02,0x38,0x00,0x02,0x3f,0x7f,0x00,0x3c,0x7f,0x00,0x30,0x7f,
0x04,0xba,0x40,0x7f,0x01,0x40,0x7f,0x6c,0x9a,0x3f,0x00,0x01,0x3c,0x00,0x06,0x30,
0x00,0x00,0x29,0x7f,0x00,0x38,0x7f,0x09,0xba,0x40,0x00,0x00,0x40,0x00,0x43,0x9a,
0x38,0x00,0x24,0xba,0x40,0x7f,0x01,0x40,0x7f,0x07,0x9a,0x3c,0x7f,0x00,0x38,0x7f,
0x60,0x3c,0x00,0x0b,0x38,0x00,0x0d,0x35,0x7f,0x5a,0x35,0x00,0x1e,0x3c,0x7f,0x00,
0x38,0x7f,0x6c,0x3c,0x00,0x0c,0x35,0x7f,0x0c,0x38,0x00,0x3f,0x29,0x00,0x15,0x35,
0x00,0x18,0x3c,0x7f,0x00,0x29,0x7f,0x00,0x38,0x7f,0x55,0x3c,0x00,0x17,0x29,0x00,
0x0c,0x31,0x7f,0x00,0x35,0x7f,0x1c,0x38,0x00,0x3b,0x35,0x00,0x1a,0x31,0x00,0x07,
0x38,0x7f,0x00,0x3c,0x7f,0x00,0x29,0x7f,0x19,0xba,0x40,0x00,0x00,0x40,0x00,0x55,
0x9a,0x3c,0x00,0x00,0x38,0x00,0x0a,0x2a,0x7f,0x00,0x35,0x7f,0x17,0x29,0x00,0x54,
0x35,0x00,0x0d,0x3a,0x7f,0x00,0x3d,0x7f,0x12,0xba,0x40,0x7f,0x01,0x40,0x7f,0x56,
0x9a,0x3d,0x00,0x0f,0x36,0x7f,0x07,0x3a,0x00,0x5e,0x36,0x00,0x13,0x3a,0x7f,0x00,
0x3d,0x7f,0x65,0x3d,0x00,0x13,0x3a,0x00,0x00,0x36,0x7f,0x6d,0x36,0x00,0x0b,0x3d,
0x7f,0x00,0x3a,0x7f,0x58,0x3d,0x00,0x20,0x36,0x7f,0x00,0x30,0x7f,0x01,0x3a,0x00,
0x1d,0x2a,0x00,0x1c,0xba,0x40,0x00,0x00,0x40,0x00,0x3e,0x9a,0x3a,0x7f,0x00,0x3d,
0x7f,0x00,0x31,0x7f,0x07,0x30,0x00,0x08,0x36,0x00,0x09,0xba,0x40,0x7f,0x01,0x40,
0x7f,0x5e,0x9a,0x3d,0x00,0x01,0x36,0x7f,0x02,0xba,0x40,0x00,0x00,0x40,0x00,0x0a,
0x9a,0x3a,0x00,0x42,0x31,0x00,0x0f,0x36,0x00,0x9e,0x2a,0x31,0x00,0x00,0xff,0x2f,
0x00,0x4d,0x54,0x72,0x6b,0x00,0x00,0x0c,0x12,0x00,0xff,0x21,0x01,0x00,0x00,0xff,
0x03,0x0b,0x6c,0x65,0x61,0x64,0x20,0x67,0x75,0x69,0x74,0x61,0x72,0x00,0xcb,0x1e,
0x00,0xbb,0x07,0x7f,0x81,0xbb,0x29,0x9b,0x4e,0x21,0x81,0x0c,0x4e,0x00,0x01,0x4d,
0x22,0x81,0x21,0x4d,0x00,0x01,0x4b,0x23,0x81,0x09,0x49,0x24,0x0d,0x4b,0x00,0x81,
0x02,0x4e,0x24,0x06,0x49,0x00,0x81,0x04,0x4e,0x00,0x00,0x4d,0x24,0x81,0x0c,0x4d,
0x00,0x02,0x4b,0x25,0x77,0x4b,0x00,0x07,0x49,0x26,0x7b,0x4e,0x26,0x0a,0x49,0x00,
0x6c,0x4d,0x27,0x04,0x4e,0x00,0x76,0x4b,0x27,0x0e,0x4d,0x00,0x53,0x4b,0x00,0x08,
0x49,0x28,0x72,0x4e,0x28,0x0c,0x49,0x00,0x6c,0x4d,0x28,0x04,0x4e,0x00,0x73,0x4b,
0x29,0x10,0x4d,0x00,0x56,0x4b,0x00,0x02,0x49,0x29,0x65,0x4e,0x2a,0x05,0x49,0x00,
0x65,0x4d,0x2a,0x0b,0x4e,0x00,0x54,0x4b,0x2b,0x14,0x4d,0x00,0x3e,0x49,0x2b,0x0a,
0x4b,0x00,0x4b,0x4e,0x2c,0x1e,0x49,0x00,0x40,0x4d,0x2c,0x12,0x4e,0x00,0x41,0x4b,
0x30,0x14,0x4d,0x00,0x3f,0x49,0x30,0x10,0x4b,0x00,0x43,0x4e,0x30,0x27,0x49,0x00,
0x23,0x4d,0x30,0x1b,0x4e,0x00,0x36,0x4b,0x30,0x22,0x4d,0x00,0x21,0x49,0x31,0x13,
0x4b,0x00,0x38,0x4e,0x32,0x25,0x49,0x00,0x22,0x4d,0x32,0x1b,0x4e,0x00,0x2b,0x4b,
0x33,0x29,0x4d,0x00,0x1a,0x49,0x34,0x14,0x4b,0x00,0x3a,0x4e,0x36,0x23,0x49,0x00,
0x12,0x4d,0x36,0x1b,0x4e,0x00,0x30,0x4b,0x38,0x24,0x4d,0x00,0x09,0x49,0x38,0x1e,
0x4b,0x00,0x3d,0x4e,0x39,0x25,0x49,0x00,0x13,0x4d,0x3a,0x1a,0x4e,0x00,0x2a,0x4b,
0x3b,0x1c,0x4d,0x00,0x0a,0x49,0x3b,0x19,0x4b,0x00,0x34,0x4e,0x3c,0x20,0x49,0x00,
0x13,0x4d,0x3d,0x2b,0x4e,0x00,0x13,0x4b,0x3d,0x2b,0x4d,0x00,0x10,0x49,0x3e,0x1b,
0x4b,0x00,0x33,0x4e,0x3f,0x22,0x49,0x00,0x16,0x4d,0x3f,0x1e,0x4e,0x00,0x0f,0x4b,
0x40,0x24,0x4d,0x00,0x11,0x49,0x40,0x1e,0x4b,0x00,0x21,0x4e,0x41,0x25,0x49,0x00,
0x1b,0x4d,0x42,0x1f,0x4e,0x00,0x19,0x4b,0x42,0x27,0x4d,0x00,0x04,0x49,0x43,0x20,
0x4b,0x00,0x23,0x4e,0x44,0x1a,0x49,0x00,0x18,0x4d,0x44,0x1d,0x4e,0x00,0x09,0x4b,
0x44,0x25,0x4d,0x00,0x08,0x49,0x44,0x17,0x4b,0x00,0x2d,0x4e,0x45,0x1e,0x49,0x00,
0x07,0x4d,0x45,0x19,0x4e,0x00,0x07,0x4b,0x45,0x26,0x4d,0x00,0x04,0x49,0x46,0x22,
0x4b,0x00,0x18,0x4e,0x46,0x22,0x49,0x00,0x0e,0x4d,0x46,0x21,0x4e,0x00,0x06,0x4b,
0x47,0x1c,0x49,0x47,0x03,0x4d,0x00,0x13,0x4b,0x00,0x21,0x4e,0x47,0x21,0x49,0x00,
0x0c,0x4d,0x48,0x1c,0x4b,0x48,0x05,0x4e,0x00,0x19,0x4d,0x00,0x09,0x49,0x48,0x22,
0x4b,0x00,0x18,0x4e,0x49,0x22,0x4d,0x49,0x01,0x49,0x00,0x1f,0x4b,0x49,0x02,0x4e,
0x00,0x17,0x4d,0x00,0x0c,0x49,0x49,0x1c,0x4b,0x00,0x12,0x4e,0x49,0x1f,0x49,0x00,
0x0f,0x4d,0x49,0x1a,0x4b,0x49,0x01,0x4e,0x00,0x19,0x4d,0x00,0x0c,0x49,0x4a,0x14,
0x4b,0x00,0x1f,0x4e,0x4a,0x23,0x49,0x00,0x03,0x4d,0x4a,0x1f,0x4e,0x00,0x19,0x4b,
0x4a,0x03,0x4d,0x00,0x0f,0x49,0x4a,0x1e,0x4b,0x00,0x10,0x4e,0x4a,0x19,0x49,0x00,
0x0c,0x4d,0x4a,0x1a,0x4e,0x00,0x01,0x4b,0x4a,0x16,0x4d,0x00,0x0e,0x49,0x4b,0x10,
0x4b,0x00,0x14,0x4e,0x4b,0x1a,0x49,0x00,0x0b,0x4d,0x4b,0x19,0x4e,0x00,0x04,0x4b,
0x4b,0x1a,0x4d,0x00,0x0d,0x49,0x4b,0x3c,0x4b,0x00,0x0a,0x4e,0x4b,0x19,0x49,0x00,
0x15,0x4d,0x4c,0x05,0x4e,0x00,0x08,0x4b,0x4c,0x11,0x4d,0x00,0x14,0x49,0x4c,0x2b,
0x4b,0x00,0x10,0x4e,0x4d,0x1d,0x49,0x00,0x0b,0x4d,0x4e,0x1b,0x4e,0x00,0x02,0x4b,
0x4e,0x20,0x4d,0x00,0x06,0x49,0x4e,0x35,0x4b,0x00,0x02,0x4e,0x4f,0x12,0x49,0x00,
0x28,0x4d,0x50,0x0d,0x4e,0x00,0x04,0x4b,0x50,0x0a,0x4d,0x00,0x03,0x49,0x50,0x46,
0x4b,0x00,0x06,0x4e,0x51,0x12,0x49,0x00,0x33,0x4d,0x52,0x10,0x4b,0x52,0x04,0x49,
0x52,0x04,0x4e,0x00,0x05,0x4d,0x00,0x18,0x4b,0x00,0x36,0x49,0x00,0x02,0x50,0x52,
0x81,0x38,0xeb,0x20,0x41,0x01,0x20,0x41,0x03,0x01,0x42,0x00,0x01,0x42,0x03,0x41,
0x42,0x01,0x41,0x42,0x03,0x61,0x42,0x01,0x61,0x42,0x03,0x01,0x43,0x00,0x01,0x43,
0x0c,0x21,0x43,0x00,0x21,0x43,0x12,0x41,0x43,0x01,0x41,0x43,0x03,0x02,0x44,0x00,
0x02,0x44,0x04,0x22,0x44,0x00,0x22,0x44,0x0b,0x42,0x44,0x01,0x42,0x44,0x03,0x62,
0x44,0x00,0x62,0x44,0x04,0x22,0x45,0x00,0x22,0x45,0x04,0x03,0x46,0x00,0x03,0x46,
0x04,0x43,0x46,0x00,0x43,0x46,0x03,0x03,0x47,0x01,0x03,0x47,0x03,0x63,0x47,0x01,
0x63,0x47,0x03,0x04,0x49,0x00,0x04,0x49,0x04,0x44,0x49,0x00,0x44,0x49,0x03,0x05,
0x4a,0x01,0x05,0x4a,0x07,0x45,0x4a,0x00,0x45,0x4a,0x04,0x65,0x4a,0x00,0x65,0x4a,
0x03,0x05,0x4b,0x01,0x05,0x4b,0x0b,0x25,0x4b,0x01,0x25,0x4b,0x03,0x65,0x4b,0x00,
0x65,0x4b,0x03,0x06,0x4c,0x01,0x06,0x4c,0x07,0x46,0x4c,0x01,0x46,0x4c,0x03,0x26,
0x4d,0x00,0x26,0x4d,0x07,0x46,0x4d,0x01,0x46,0x4d,0x07,0x66,0x4d,0x01,0x66,0x4d,
0x03,0x07,0x4e,0x00,0x07,0x4e,0x07,0x27,0x4e,0x01,0x27,0x4e,0x0b,0x67,0x4e,0x00,
0x67,0x4e,0x13,0x07,0x4f,0x00,0x07,0x4f,0x07,0x27,0x4f,0x01,0x27,0x4f,0x03,0x67,
0x4f,0x00,0x67,0x4f,0x04,0x08,0x51,0x00,0x08,0x51,0x04,0x68,0x51,0x00,0x68,0x51,
0x03,0x29,0x52,0x01,0x29,0x52,0x03,0x49,0x52,0x01,0x49,0x52,0x03,0x69,0x52,0x00,
0x69,0x52,0x04,0x29,0x53,0x00,0x29,0x53,0x04,0x69,0x53,0x00,0x69,0x53,0x03,0x0a,
0x55,0x01,0x0a,0x55,0x03,0x2a,0x55,0x01,0x2a,0x55,0x03,0x6a,0x55,0x01,0x6a,0x55,
0x03,0x0b,0x56,0x00,0x0b,0x56,0x08,0x4b,0x56,0x00,0x4b,0x56,0x03,0x6b,0x56,0x01,
0x6b,0x56,0x03,0x2b,0x57,0x00,0x2b,0x57,0x04,0x6b,0x57,0x00,0x6b,0x57,0x04,0x4c,
0x58,0x00,0x4c,0x58,0x03,0x6c,0x58,0x01,0x6c,0x58,0x03,0x2c,0x59,0x01,0x2c,0x59,
0x03,0x6c,0x59,0x00,0x6c,0x59,0x08,0x2d,0x5a,0x00,0x2d,0x5a,0x03,0x4d,0x5a,0x01,
0x4d,0x5a,0x07,0x6d,0x5a,0x00,0x6d,0x5a,0x04,0x0d,0x5b,0x00,0x0d,0x5b,0x04,0x2d,
0x5b,0x00,0x2d,0x5b,0x03,0x4d,0x5b,0x00,0x4d,0x5b,0x04,0x6d,0x5b,0x00,0x6d,0x5b,
0x04,0x0e,0x5c,0x00,0x0e,0x5c,0x07,0x2e,0x5c,0x01,0x2e,0x5c,0x07,0x4e,0x5c,0x00,
0x4e,0x5c,0x0b,0x6e,0x5c,0x01,0x6e,0x5c,0x03,0x0e,0x5d,0x01,0x0e,0x5d,0x03,0x2e,
0x5d,0x00,0x2e,0x5d,0x04,0x4e,0x5d,0x00,0x4e,0x5d,0x04,0x6e,0x5d,0x00,0x6e,0x5d,
0x07,0x2f,0x5e,0x00,0x2f,0x5e,0x07,0x4f,0x5e,0x00,0x4f,0x5e,0x04,0x0f,0x5f,0x01,
0x0f,0x5f,0x03,0x2f,0x5f,0x01,0x2f,0x5f,0x03,0x6f,0x5f,0x00,0x6f,0x5f,0x04,0x10,
0x60,0x00,0x10,0x60,0x04,0x30,0x60,0x00,0x30,0x60,0x03,0x50,0x60,0x01,0x50,0x60,
0x07,0x70,0x60,0x00,0x70,0x60,0x08,0x10,0x61,0x00,0x10,0x61,0x03,0x30,0x61,0x01,
0x30,0x61,0x03,0x11,0x62,0x00,0x11,0x62,0x04,0x51,0x62,0x00,0x51,0x62,0x04,0x51,
0x63,0x00,0x51,0x63,0x03,0x72,0x64,0x01,0x72,0x64,0x03,0x72,0x65,0x01,0x72,0x65,
0x03,0x33,0x67,0x00,0x33,0x67,0x04,0x54,0x68,0x00,0x54,0x68,0x04,0x34,0x69,0x00,
0x34,0x69,0x03,0x74,0x69,0x01,0x74,0x69,0x03,0x55,0x6a,0x01,0x55,0x6a,0x03,0x16,
0x6c,0x01,0x16,0x6c,0x03,0x56,0x6d,0x00,0x56,0x6d,0x03,0x57,0x6e,0x01,0x57,0x6e,
0x03,0x17,0x6f,0x01,0x17,0x6f,0x03,0x57,0x6f,0x00,0x57,0x6f,0x04,0x18,0x70,0x00,
0x18,0x70,0x04,0x18,0x71,0x00,0x18,0x71,0x03,0x58,0x71,0x01,0x58,0x71,0x03,0x19,
0x72,0x01,0x19,0x72,0x03,0x59,0x72,0x01,0x59,0x72,0x02,0x19,0x72,0x01,0x19,0x72,
0x0b,0x59,0x72,0x01,0x59,0x72,0x03,0x19,0x72,0x00,0x19,0x72,0x07,0x58,0x71,0x01,
0x58,0x71,0x03,0x17,0x6f,0x01,0x17,0x6f,0x03,0x17,0x6e,0x01,0x17,0x6e,0x03,0x55,
0x6a,0x00,0x55,0x6a,0x04,0x14,0x69,0x00,0x14,0x69,0x04,0x13,0x67,0x00,0x13,0x67,
0x03,0x32,0x64,0x01,0x32,0x64,0x03,0x70,0x60,0x01,0x70,0x60,0x03,0x0e,0x5d,0x00,
0x0e,0x5d,0x03,0x4c,0x59,0x00,0x4c,0x59,0x05,0x2b,0x56,0x00,0x2b,0x56,0x03,0x09,
0x53,0x01,0x09,0x53,0x03,0x47,0x4f,0x01,0x47,0x4f,0x03,0x26,0x4c,0x00,0x26,0x4c,
0x04,0x05,0x4a,0x00,0x05,0x4a,0x03,0x23,0x47,0x01,0x23,0x47,0x03,0x42,0x45,0x01,
0x42,0x45,0x0b,0x63,0x46,0x00,0x63,0x46,0x04,0x65,0x4b,0x00,0x65,0x4b,0x03,0x49,
0x52,0x01,0x49,0x52,0x03,0x6c,0x59,0x00,0x6c,0x59,0x04,0x11,0x62,0x00,0x11,0x62,
0x04,0x74,0x68,0x00,0x74,0x68,0x03,0x58,0x70,0x01,0x58,0x70,0x02,0x1c,0x78,0x01,
0x1c,0x78,0x04,0x5e,0x7c,0x00,0x5e,0x7c,0x04,0x1e,0x7d,0x00,0x1e,0x7d,0x13,0x5d,
0x7b,0x00,0x5d,0x7b,0x03,0x1a,0x75,0x01,0x1a,0x75,0x03,0x57,0x6e,0x01,0x57,0x6e,
0x03,0x9b,0x50,0x00,0x01,0xeb,0x14,0x68,0x00,0x14,0x68,0x03,0x11,0x63,0x00,0x11,
0x63,0x04,0x0f,0x5e,0x00,0x0f,0x5e,0x04,0x2d,0x5a,0x00,0x2d,0x5a,0x03,0x4b,0x57,
0x00,0x4b,0x57,0x04,0x6b,0x56,0x00,0x6b,0x56,0x04,0x4a,0x55,0x00,0x4a,0x55,0x03,
0x68,0x51,0x01,0x68,0x51,0x04,0x00,0x40,0x00,0x00,0x40,0xbd,0x28,0x9b,0x2a,0x7f,
0x82,0x3f,0x2a,0x00,0x29,0x2a,0x7f,0x5c,0x2a,0x00,0x83,0x7c,0x2a,0x7f,0x81,0x7e,
0x2a,0x00,0x6a,0x2a,0x7f,0x83,0x66,0x2a,0x00,0x72,0x25,0x7d,0x82,0x0b,0x25,0x00,
0x5d,0x25,0x7f,0x84,0x12,0x25,0x00,0x46,0x25,0x7f,0x81,0x7b,0x25,0x00,0x6d,0x25,
0x7f,0x84,0x36,0x25,0x00,0x22,0x2a,0x7f,0x82,0x30,0x2a,0x00,0x38,0x2a,0x7f,0x81,
0x14,0x2a,0x00,0x83,0x44,0x2a,0x7f,0x82,0x0a,0x2a,0x00,0x22,0x2a,0x7f,0x83,0x59,
0x2a,0x00,0x81,0x3b,0x25,0x7f,0x81,0x31,0x25,0x00,0x81,0x37,0x25,0x7f,0x81,0x58,
0x25,0x00,0x18,0x25,0x7f,0x3c,0x25,0x00,0x3c,0x25,0x7f,0x3a,0x25,0x00,0x3e,0x25,
0x7f,0x2d,0x25,0x00,0x4b,0x25,0x7f,0x81,0x59,0x25,0x00,0x81,0x0f,0x25,0x7f,0x84,
0x31,0x25,0x00,0x27,0x2a,0x7f,0x82,0x2e,0x2a,0x00,0x3a,0x2a,0x7f,0x81,0x1a,0x2a,
0x00,0x83,0x3e,0x2a,0x7f,0x82,0x01,0x2a,0x00,0x67,0x2a,0x7f,0x83,0x67,0x2a,0x00,
0x71,0x25,0x7f,0x82,0x25,0x25,0x00,0x43,0x25,0x7f,0x83,0x7c,0x25,0x00,0x5c,0x25,
0x7f,0x5e,0x25,0x00,0x1a,0x25,0x7f,0x63,0x25,0x00,0x81,0x0d,0x25,0x7f,0x84,0x4f,
0x25,0x00,0x09,0x2a,0x7f,0x82,0x2a,0x2a,0x00,0x3e,0x2a,0x7f,0x70,0x2a,0x00,0x83,
0x68,0x2a,0x7f,0x81,0x71,0x2a,0x00,0x77,0x2a,0x7f,0x83,0x4f,0x2a,0x00,0x81,0x09,
0x2c,0x7f,0x82,0x68,0x25,0x7f,0x16,0x2c,0x00,0x84,0x14,0x25,0x00,0x2e,0x2c,0x7f,
0x81,0x70,0x25,0x7f,0x0d,0x2c,0x00,0x6b,0x2a,0x7f,0x05,0x25,0x00,0x84,0x4e,0x2a,
0x00,0x05,0x25,0x7f,0x84,0x58,0x27,0x7f,0x0d,0x25,0x00,0x67,0x27,0x00,0x04,0x29,
0x7f,0x73,0x29,0x00,0x05,0x2c,0x7f,0x85,0x50,0x2e,0x7f,0x1b,0x2c,0x00,0x53,0x2e,
0x00,0x0a,0x30,0x7f,0x78,0x2e,0x7f,0x0b,0x30,0x00,0x85,0x45,0x30,0x7f,0x0a,0x2e,
0x00,0x6e,0x30,0x00,0x00,0x31,0x7f,0x78,0x2a,0x7f,0x09,0x31,0x00,0x85,0x47,0x30,
0x7f,0x1e,0x2a,0x00,0x5a,0x31,0x7f,0x03,0x30,0x00,0x75,0x25,0x7f,0x0f,0x31,0x00,
0x85,0x41,0x25,0x00,0x00,0x27,0x7f,0x69,0x27,0x00,0x0f,0x29,0x7f,0x72,0x29,0x00,
0x06,0x2c,0x7f,0x85,0x38,0x2c,0x00,0x18,0x2e,0x7f,0x6a,0x2e,0x00,0x0e,0x30,0x7f,
0x69,0x30,0x00,0x0f,0x2e,0x7f,0x85,0x50,0x2e,0x00,0x00,0x30,0x7f,0x78,0x30,0x00,
0x00,0x31,0x7f,0x78,0x31,0x00,0x00,0x2a,0x7f,0x85,0x50,0x2a,0x00,0x00,0x30,0x7f,
0x78,0x31,0x7f,0x05,0x30,0x00,0x81,0x6b,0x25,0x7f,0x02,0x31,0x00,0x83,0x26,0x25,
0x00,0x38,0x25,0x7f,0x78,0x27,0x7f,0x16,0x25,0x00,0x60,0x27,0x00,0x02,0x29,0x7f,
0x6a,0x29,0x00,0x0e,0x2c,0x7f,0x85,0x0f,0x2c,0x00,0x41,0x2e,0x7f,0x63,0x2e,0x00,
0x15,0x30,0x7f,0x6c,0x30,0x00,0x0c,0x29,0x7f,0x84,0x4d,0x29,0x00,0x0b,0x29,0x7f,
0x82,0x35,0x29,0x00,0x33,0x2a,0x7f,0x85,0x50,0x30,0x7f,0x1e,0x2a,0x00,0x5a,0x31,
0x7f,0x0d,0x30,0x00,0x81,0x63,0x31,0x00,0x00,0x25,0x7f,0x00,0x31,0x7f,0x03,0x31,
0x00,0x83,0x38,0x25,0x00,0x25,0x25,0x7f,0x74,0x25,0x00,0x04,0x27,0x7f,0x66,0x27,
0x00,0x12,0x29,0x7f,0x66,0x29,0x00,0x12,0x2c,0x7f,0x85,0x50,0x2e,0x7f,0x2a,0x2c,
0x00,0x4e,0x30,0x7f,0x03,0x2e,0x00,0x68,0x30,0x00,0x0d,0x2e,0x7f,0x85,0x50,0x30,
0x7f,0x09,0x2e,0x00,0x6f,0x30,0x00,0x00,0x31,0x7f,0x78,0x2a,0x7f,0x06,0x31,0x00,
0x85,0x4a,0x30,0x7f,0x0f,0x2a,0x00,0x69,0x31,0x7f,0x09,0x30,0x00,0x81,0x67,0x31,
0x00,0x00,0x25,0x7f,0x83,0x27,0x25,0x00,0x39,0x25,0x7f,0x78,0x27,0x7f,0x1d,0x25,
0x00,0x47,0x27,0x00,0x14,0x29,0x7f,0x70,0x29,0x00,0x08,0x2c,0x7f,0x85,0x50,0x2e,
0x7f,0x0f,0x2c,0x00,0x5a,0x2e,0x00,0x0f,0x30,0x7f,0x6d,0x30,0x00,0x0b,0x29,0x7f,
0x85,0x26,0x29,0x00,0x2a,0x29,0x7f,0x81,0x59,0x29,0x00,0x17,0x2a,0x7f,0x87,0x38,
0x2a,0x00,0x81,0x00,0x2a,0x7f,0x82,0x3f,0x2a,0x00,0x29,0x2a,0x7f,0x5c,0x2a,0x00,
0x83,0x7c,0x2a,0x7f,0x81,0x7e,0x2a,0x00,0x6a,0x2a,0x7f,0x83,0x66,0x2a,0x00,0x72,
0x25,0x7f,0x82,0x0b,0x25,0x00,0x5d,0x25,0x7f,0x84,0x12,0x25,0x00,0x46,0x25,0x7f,
0x81,0x7b,0x25,0x00,0x6d,0x25,0x7f,0x84,0x36,0x25,0x00,0x22,0x2a,0x7f,0x82,0x30,
0x2a,0x00,0x38,0x2a,0x7f,0x81,0x14,0x2a,0x00,0x83,0x44,0x2a,0x7f,0x82,0x0a,0x2a,
0x00,0x22,0x2a,0x7f,0x83,0x59,0x2a,0x00,0x81,0x3b,0x25,0x7f,0x81,0x31,0x25,0x00,
0x81,0x37,0x25,0x7f,0x81,0x58,0x25,0x00,0x18,0x25,0x7f,0x3c,0x25,0x00,0x3c,0x25,
0x7f,0x3a,0x25,0x00,0x3e,0x25,0x7f,0x2d,0x25,0x00,0x4b,0x25,0x7f,0x81,0x59,0x25,
0x00,0x81,0x0f,0x25,0x7f,0x84,0x31,0x25,0x00,0x27,0x2a,0x7f,0x82,0x2e,0x2a,0x00,
0x3a,0x2a,0x7f,0x81,0x1a,0x2a,0x00,0x83,0x3e,0x2a,0x7f,0x82,0x01,0x2a,0x00,0x67,
0x2a,0x7f,0x83,0x67,0x2a,0x00,0x71,0x25,0x7f,0x82,0x25,0x25,0x00,0x43,0x25,0x7f,
0x83,0x7c,0x25,0x00,0x5c,0x25,0x7f,0x5e,0x25,0x00,0x1a,0x25,0x7f,0x63,0x25,0x00,
0x81,0x0d,0x25,0x7f,0x84,0x4f,0x25,0x00,0x09,0x2a,0x7f,0x82,0x2a,0x2a,0x00,0x3e,
0x2a,0x7f,0x70,0x2a,0x00,0x83,0x68,0x2a,0x7f,0x81,0x71,0x2a,0x00,0x77,0x2a,0x7f,
0x83,0x4f,0x2a,0x00,0x81,0x09,0x2c,0x7f,0x82,0x58,0x2c,0x00,0x10,0x25,0x7f,0x84,
0x58,0x2c,0x7f,0x07,0x25,0x00,0x81,0x69,0x25,0x7f,0x0f,0x2c,0x00,0x68,0x25,0x00,
0x01,0x2a,0x7f,0x82,0x68,0x38,0x7f,0x37,0x2a,0x00,0x05,0x38,0x00,0x00,0x3d,0x7f,
0x3c,0x3d,0x00,0x00,0x3f,0x7f,0x3c,0x3f,0x00,0x00,0x41,0x7f,0x3c,0x41,0x00,0x00,
0x42,0x7f,0x82,0x68,0x41,0x7f,0x1e,0x42,0x00,0x83,0x3d,0x41,0x00,0x05,0x3f,0x7f,
0x70,0x3f,0x00,0x08,0x42,0x7f,0x82,0x68,0x41,0x7f,0x1e,0x42,0x00,0x86,0x49,0x41,
0x00,0x59,0x41,0x7f,0x78,0x42,0x7f,0x01,0x41,0x00,0x77,0x41,0x7f,0x23,0x42,0x00,
0x55,0x3f,0x7f,0x04,0x41,0x00,0x74,0x3d,0x7f,0x0e,0x3f,0x00,0x6a,0x3c,0x7f,0x06,
0x3d,0x00,0x81,0x50,0x3c,0x00,0x1a,0x3d,0x7f,0x78,0x3a,0x7f,0x06,0x3d,0x00,0x82,
0x59,0x3a,0x00,0x09,0x38,0x7f,0x78,0x38,0x00,0x00,0x36,0x7f,0x78,0x36,0x00,0x00,
0x42,0x7f,0x82,0x68,0x41,0x7f,0x06,0x42,0x00,0x83,0x5a,0x3f,0x7f,0x05,0x41,0x00,
0x6b,0x3f,0x00,0x08,0x42,0x7f,0x82,0x68,0x42,0x00,0x00,0x41,0x7f,0x81,0x70,0x3f,
0x7f,0x14,0x41,0x00,0x60,0x3f,0x00,0x04,0x3d,0x7f,0x78,0x44,0x7f,0x03,0x3d,0x00,
0x84,0x50,0x44,0x00,0x05,0x48,0x7f,0x82,0x68,0x49,0x79,0x0a,0x48,0x00,0x88,0x2e,
0x49,0x00,0x00,0x25,0x7f,0x84,0x58,0x27,0x7f,0x24,0x25,0x00,0x45,0x27,0x00,0x0f,
0x29,0x7f,0x72,0x29,0x00,0x06,0x2c,0x7f,0x85,0x38,0x2c,0x00,0x18,0x2e,0x7f,0x6a,
0x2e,0x00,0x0e,0x2e,0x7f,0x00,0x30,0x7f,0x69,0x30,0x00,0x84,0x67,0x30,0x7f,0x39,
0x2e,0x00,0x81,0x0b,0x30,0x00,0x2c,0x31,0x7f,0x78,0x2a,0x7f,0x02,0x31,0x00,0x85,
0x4e,0x30,0x7f,0x65,0x2a,0x00,0x13,0x31,0x7f,0x05,0x30,0x00,0x81,0x6b,0x25,0x7f,
0x02,0x31,0x00,0x83,0x26,0x25,0x00,0x38,0x25,0x7f,0x78,0x27,0x7f,0x16,0x25,0x00,
0x60,0x27,0x00,0x02,0x29,0x7f,0x6a,0x29,0x00,0x0e,0x2c,0x7f,0x85,0x0f,0x2c,0x00,
0x41,0x2e,0x7f,0x63,0x2e,0x00,0x15,0x30,0x7f,0x6c,0x30,0x00,0x0c,0x29,0x7f,0x84,
0x4d,0x29,0x00,0x0b,0x29,0x7f,0x82,0x35,0x29,0x00,0x33,0x2a,0x7f,0x85,0x50,0x30,
0x7f,0x1e,0x2a,0x00,0x5a,0x31,0x7f,0x0d,0x30,0x00,0x81,0x63,0x25,0x7f,0x07,0x31,
0x00,0x83,0x2d,0x25,0x00,0x2c,0x25,0x7f,0x74,0x25,0x00,0x04,0x27,0x7f,0x6e,0x27,
0x00,0x0a,0x29,0x7f,0x6e,0x29,0x00,0x0a,0x2c,0x7f,0x85,0x4c,0x2c,0x00,0x04,0x2e,
0x7f,0x75,0x2e,0x00,0x03,0x30,0x7f,0x6e,0x30,0x00,0x0a,0x2e,0x7f,0x85,0x4d,0x2e,
0x00,0x03,0x30,0x7f,0x78,0x31,0x7f,0x06,0x30,0x00,0x72,0x2a,0x7f,0x01,0x31,0x00,
0x85,0x4f,0x30,0x7f,0x23,0x2a,0x00,0x55,0x30,0x00,0x00,0x31,0x7f,0x78,0x25,0x7f,
0x09,0x31,0x00,0x84,0x14,0x25,0x00,0x3b,0x25,0x7f,0x78,0x27,0x7f,0x10,0x25,0x00,
0x63,0x27,0x00,0x05,0x29,0x7f,0x71,0x29,0x00,0x07,0x2c,0x7f,0x85,0x50,0x2e,0x7f,
0x03,0x2c,0x00,0x66,0x2e,0x00,0x0f,0x30,0x7f,0x62,0x30,0x00,0x16,0x29,0x7f,0x84,
0x71,0x29,0x00,0x5f,0x31,0x7f,0x71,0x31,0x00,0x07,0x29,0x7f,0x78,0x2a,0x7f,0x03,
0x29,0x00,0x84,0x55,0x30,0x7f,0x81,0x03,0x2a,0x00,0x3a,0x30,0x00,0x33,0x31,0x7f,
0x81,0x70,0x25,0x7f,0x09,0x31,0x00,0x83,0x31,0x25,0x00,0x26,0x25,0x7f,0x78,0x27,
0x7f,0x17,0x25,0x00,0x5e,0x27,0x00,0x03,0x29,0x7f,0x6c,0x29,0x00,0x0c,0x2c,0x7f,
0x85,0x50,0x2e,0x7f,0x01,0x2c,0x00,0x77,0x30,0x7f,0x0a,0x2e,0x00,0x66,0x30,0x00,
0x08,0x2e,0x7f,0x85,0x50,0x30,0x7f,0x02,0x2e,0x00,0x76,0x31,0x7f,0x01,0x30,0x00,
0x77,0x2a,0x7f,0x05,0x31,0x00,0x85,0x4b,0x30,0x7f,0x17,0x2a,0x00,0x5a,0x30,0x00,
0x07,0x31,0x7f,0x71,0x31,0x00,0x07,0x25,0x7f,0x84,0x0a,0x25,0x00,0x4e,0x25,0x7f,
0x78,0x27,0x7f,0x1a,0x25,0x00,0x5e,0x27,0x00,0x00,0x29,0x7f,0x6b,0x29,0x00,0x0d,
0x2c,0x7f,0x84,0x53,0x2c,0x00,0x7d,0x2e,0x7f,0x72,0x2e,0x00,0x06,0x30,0x7f,0x6b,
0x30,0x00,0x0d,0x29,0x7f,0x85,0x11,0x29,0x00,0x3f,0x29,0x7f,0x81,0x6c,0x29,0x00,
0x04,0x2a,0x7f,0x88,0x18,0x2a,0x00,0x00,0xff,0x2f,0x00,0x4d,0x54,0x72,0x6b,0x00,
0x00,0x05,0xd0,0x00,0xff,0x21,0x01,0x00,0x00,0xff,0x03,0x0d,0x73,0x79,0x6e,0x74,
0x68,0x20,0x73,0x74,0x72,0x69,0x6e,0x67,0x73,0x00,0xcc,0x30,0x00,0xbc,0x07,0x46,
0x82,0xb3,0x40,0x9c,0x42,0x7f,0x00,0x46,0x7f,0x00,0x4b,0x7f,0x82,0x06,0x4b,0x00,
0x2d,0x42,0x00,0x03,0x46,0x00,0x32,0x42,0x7f,0x00,0x46,0x7f,0x00,0x49,0x7f,0x18,
0x46,0x00,0x0c,0x49,0x00,0x06,0x42,0x00,0x84,0x2e,0x42,0x7f,0x00,0x4b,0x7f,0x00,
0x46,0x7f,0x81,0x4c,0x4b,0x00,0x06,0x42,0x00,0x16,0x46,0x00,0x81,0x00,0x49,0x7f,
0x00,0x46,0x7f,0x00,0x4d,0x7f,0x82,0x64,0x49,0x00,0x07,0x4d,0x00,0x0e,0x46,0x00,
0x81,0x5f,0x48,0x7f,0x00,0x3f,0x7f,0x00,0x44,0x7f,0x42,0x48,0x00,0x09,0x44,0x00,
0x0c,0x3f,0x00,0x21,0x48,0x7f,0x00,0x44,0x7f,0x00,0x3f,0x7f,0x3d,0x3f,0x00,0x01,
0x44,0x00,0x12,0x48,0x00,0x81,0x20,0x49,0x7f,0x00,0x41,0x7f,0x00,0x44,0x7f,0x83,
0x70,0x41,0x00,0x08,0x49,0x00,0x1d,0x44,0x00,0x43,0x48,0x7f,0x00,0x44,0x7f,0x00,
0x3f,0x7f,0x45,0x3f,0x00,0x00,0x48,0x00,0x05,0x44,0x00,0x2e,0x48,0x7f,0x00,0x3f,
0x7f,0x00,0x44,0x7f,0x34,0x3f,0x00,0x0d,0x44,0x00,0x02,0x48,0x00,0x81,0x2d,0x49,
0x7f,0x00,0x41,0x7f,0x00,0x44,0x7f,0x83,0x1e,0x44,0x00,0x03,0x41,0x00,0x0e,0x49,
0x00,0x81,0x29,0x42,0x7f,0x00,0x4b,0x7f,0x00,0x46,0x7f,0x82,0x37,0x4b,0x00,0x31,
0x49,0x7f,0x5b,0x49,0x00,0x04,0x46,0x00,0x08,0x42,0x00,0x83,0x71,0x42,0x7f,0x00,
0x46,0x7f,0x00,0x4b,0x7f,0x81,0x62,0x42,0x00,0x2d,0x4b,0x00,0x05,0x46,0x00,0x54,
0x46,0x7f,0x00,0x4d,0x7f,0x00,0x49,0x7f,0x82,0x7f,0x4d,0x00,0x13,0x49,0x00,0x14,
0x46,0x00,0x81,0x32,0x48,0x7f,0x00,0x3f,0x7f,0x00,0x44,0x7f,0x4c,0x48,0x00,0x0b,
0x3f,0x00,0x05,0x44,0x00,0x1c,0x48,0x7f,0x00,0x44,0x7f,0x00,0x3f,0x7f,0x45,0x3f,
0x00,0x0e,0x44,0x00,0x07,0x48,0x00,0x81,0x16,0x41,0x7f,0x00,0x49,0x7f,0x00,0x44,
0x7f,0x83,0x49,0x49,0x00,0x1c,0x41,0x00,0x18,0x44,0x00,0x5b,0x48,0x7f,0x00,0x44,
0x7f,0x00,0x3f,0x7f,0x33,0x48,0x00,0x04,0x3f,0x00,0x05,0x44,0x00,0x3c,0x48,0x7f,
0x00,0x3f,0x7f,0x00,0x44,0x7f,0x2b,0x3f,0x00,0x0a,0x44,0x00,0x07,0x48,0x00,0x81,
0x34,0x41,0x7f,0x00,0x49,0x7f,0x00,0x44,0x7f,0x83,0x31,0x44,0x00,0x00,0x41,0x00,
0x0b,0x49,0x00,0x81,0x1c,0x42,0x7f,0x00,0x4b,0x7f,0x00,0x46,0x7f,0x82,0x1a,0x4b,
0x00,0x33,0x42,0x00,0x1b,0x49,0x7f,0x00,0x42,0x7f,0x35,0x49,0x00,0x0a,0x46,0x00,
0x1d,0x42,0x00,0x83,0x7c,0x42,0x7f,0x00,0x4b,0x7f,0x00,0x46,0x7f,0x81,0x74,0x42,
0x00,0x23,0x4b,0x00,0x14,0x46,0x00,0x3d,0x46,0x7f,0x00,0x4d,0x7f,0x00,0x49,0x7f,
0x83,0x06,0x4d,0x00,0x05,0x49,0x00,0x10,0x46,0x00,0x81,0x3d,0x48,0x7f,0x00,0x44,
0x7f,0x00,0x3f,0x7f,0x47,0x3f,0x00,0x01,0x44,0x00,0x02,0x48,0x00,0x2e,0x48,0x7f,
0x00,0x44,0x7f,0x00,0x3f,0x7f,0x32,0x3f,0x00,0x09,0x44,0x00,0x05,0x48,0x00,0x81,
0x30,0x41,0x7f,0x00,0x49,0x7f,0x00,0x44,0x7f,0x83,0x59,0x41,0x00,0x0a,0x49,0x00,
0x08,0x44,0x00,0x6d,0x48,0x7f,0x00,0x44,0x7f,0x00,0x3f,0x7f,0x27,0x48,0x00,0x04,
0x44,0x00,0x04,0x3f,0x00,0x49,0x48,0x7f,0x00,0x3f,0x7f,0x00,0x44,0x7f,0x27,0x3f,
0x00,0x06,0x44,0x00,0x0e,0x48,0x00,0x81,0x35,0x49,0x7f,0x00,0x41,0x7f,0x00,0x44,
0x7f,0x83,0x33,0x44,0x00,0x09,0x41,0x00,0x01,0x49,0x00,0x81,0x1b,0x42,0x7f,0x00,
0x46,0x7f,0x00,0x4b,0x7f,0x82,0x17,0x4b,0x00,0x3d,0x42,0x00,0x14,0x42,0x7f,0x00,
0x49,0x7f,0x00,0x46,0x7f,0x05,0x46,0x00,0x26,0x46,0x00,0x11,0x42,0x00,0x09,0x49,
0x00,0x84,0x13,0x42,0x7f,0x00,0x4b,0x7f,0x00,0x46,0x7f,0x81,0x1e,0x42,0x00,0x0d,
0x46,0x00,0x0f,0x4b,0x00,0x81,0x2e,0x46,0x7f,0x00,0x49,0x7f,0x00,0x4d,0x7f,0x83,
0x32,0x49,0x00,0x08,0x4d,0x00,0x08,0x46,0x00,0x81,0x16,0x50,0x7f,0x00,0x48,0x7f,
0x00,0x4b,0x7f,0x81,0x6c,0x48,0x00,0x29,0x50,0x00,0x04,0x4b,0x00,0x4f,0x49,0x7f,
0x00,0x50,0x7f,0x00,0x4d,0x7f,0x83,0x30,0x49,0x00,0x02,0x50,0x00,0x0c,0x4d,0x00,
0x81,0x1a,0x50,0x7f,0x00,0x48,0x7f,0x00,0x4b,0x7f,0x76,0x48,0x00,0x29,0x50,0x00,
0x18,0x4b,0x00,0x39,0x49,0x7f,0x00,0x50,0x7f,0x00,0x4d,0x7f,0x1b,0x49,0x00,0x02,
0x50,0x00,0x08,0x4d,0x00,0x53,0x46,0x7f,0x00,0x49,0x7f,0x00,0x4e,0x7f,0x84,0x42,
0x49,0x00,0x00,0x46,0x00,0x0f,0x4e,0x00,0x81,0x96,0x07,0x42,0x7f,0x00,0x46,0x7f,
0x00,0x4b,0x7f,0x82,0x06,0x4b,0x00,0x2d,0x42,0x00,0x03,0x46,0x00,0x32,0x42,0x7f,
0x00,0x46,0x7f,0x00,0x49,0x7f,0x18,0x46,0x00,0x0c,0x49,0x00,0x06,0x42,0x00,0x84,
0x2e,0x42,0x7f,0x00,0x4b,0x7f,0x00,0x46,0x7f,0x81,0x4c,0x4b,0x00,0x06,0x42,0x00,
0x16,0x46,0x00,0x81,0x00,0x49,0x7f,0x00,0x46,0x7f,0x00,0x4d,0x7f,0x82,0x64,0x49,
0x00,0x07,0x4d,0x00,0x0e,0x46,0x00,0x81,0x5f,0x48,0x7f,0x00,0x3f,0x7f,0x00,0x44,
0x7f,0x42,0x48,0x00,0x09,0x44,0x00,0x0c,0x3f,0x00,0x21,0x48,0x7f,0x00,0x44,0x7f,
0x00,0x3f,0x7f,0x3d,0x3f,0x00,0x01,0x44,0x00,0x12,0x48,0x00,0x81,0x20,0x49,0x7f,
0x00,0x41,0x7f,0x00,0x44,0x7f,0x83,0x70,0x41,0x00,0x08,0x49,0x00,0x1d,0x44,0x00,
0x43,0x48,0x7f,0x00,0x44,0x7f,0x00,0x3f,0x7f,0x45,0x3f,0x00,0x00,0x48,0x00,0x05,
0x44,0x00,0x2e,0x48,0x7f,0x00,0x3f,0x7f,0x00,0x44,0x7f,0x34,0x3f,0x00,0x0d,0x44,
0x00,0x02,0x48,0x00,0x81,0x2d,0x49,0x7f,0x00,0x41,0x7f,0x00,0x44,0x7f,0x83,0x1e,
0x44,0x00,0x03,0x41,0x00,0x0e,0x49,0x00,0x81,0x29,0x42,0x7f,0x00,0x4b,0x7f,0x00,
0x46,0x7f,0x82,0x37,0x4b,0x00,0x31,0x49,0x7f,0x5b,0x49,0x00,0x04,0x46,0x00,0x08,
0x42,0x00,0x83,0x71,0x42,0x7f,0x00,0x46,0x7f,0x00,0x4b,0x7f,0x81,0x62,0x42,0x00,
0x2d,0x4b,0x00,0x05,0x46,0x00,0x54,0x46,0x7f,0x00,0x4d,0x7f,0x00,0x49,0x7f,0x82,
0x7f,0x4d,0x00,0x13,0x49,0x00,0x14,0x46,0x00,0x81,0x32,0x48,0x7f,0x00,0x3f,0x7f,
0x00,0x44,0x7f,0x4c,0x48,0x00,0x0b,0x3f,0x00,0x05,0x44,0x00,0x1c,0x48,0x7f,0x00,
0x44,0x7f,0x00,0x3f,0x7f,0x45,0x3f,0x00,0x0e,0x44,0x00,0x07,0x48,0x00,0x81,0x16,
0x41,0x7f,0x00,0x49,0x7f,0x00,0x44,0x7f,0x83,0x49,0x49,0x00,0x1c,0x41,0x00,0x18,
0x44,0x00,0x5b,0x48,0x7f,0x00,0x44,0x7f,0x00,0x3f,0x7f,0x33,0x48,0x00,0x04,0x3f,
0x00,0x05,0x44,0x00,0x3c,0x48,0x7f,0x00,0x3f,0x7f,0x00,0x44,0x7f,0x2b,0x3f,0x00,
0x0a,0x44,0x00,0x07,0x48,0x00,0x81,0x34,0x41,0x7f,0x00,0x49,0x7f,0x00,0x44,0x7f,
0x83,0x31,0x44,0x00,0x00,0x41,0x00,0x0b,0x49,0x00,0x81,0x1c,0x42,0x7f,0x00,0x4b,
0x7f,0x00,0x46,0x7f,0x82,0x1a,0x4b,0x00,0x33,0x42,0x00,0x1b,0x49,0x7f,0x00,0x42,
0x7f,0x35,0x49,0x00,0x0a,0x46,0x00,0x1d,0x42,0x00,0x83,0x7c,0x42,0x7f,0x00,0x4b,
0x7f,0x00,0x46,0x7f,0x81,0x74,0x42,0x00,0x23,0x4b,0x00,0x14,0x46,0x00,0x3d,0x46,
0x7f,0x00,0x4d,0x7f,0x00,0x49,0x7f,0x83,0x06,0x4d,0x00,0x05,0x49,0x00,0x10,0x46,
0x00,0x81,0x3d,0x48,0x7f,0x00,0x44,0x7f,0x00,0x3f,0x7f,0x47,0x3f,0x00,0x01,0x44,
0x00,0x02,0x48,0x00,0x2e,0x48,0x7f,0x00,0x44,0x7f,0x00,0x3f,0x7f,0x32,0x3f,0x00,
0x09,0x44,0x00,0x05,0x48,0x00,0x81,0x30,0x41,0x7f,0x00,0x49,0x7f,0x00,0x44,0x7f,
0x83,0x59,0x41,0x00,0x0a,0x49,0x00,0x08,0x44,0x00,0x6d,0x48,0x7f,0x00,0x44,0x7f,
0x00,0x3f,0x7f,0x27,0x48,0x00,0x04,0x44,0x00,0x04,0x3f,0x00,0x49,0x48,0x7f,0x00,
0x3f,0x7f,0x00,0x44,0x7f,0x27,0x3f,0x00,0x06,0x44,0x00,0x0e,0x48,0x00,0x81,0x35,
0x49,0x7f,0x00,0x41,0x7f,0x00,0x44,0x7f,0x83,0x33,0x44,0x00,0x09,0x41,0x00,0x01,
0x49,0x00,0x81,0x1b,0x42,0x7f,0x00,0x46,0x7f,0x00,0x4b,0x7f,0x82,0x17,0x4b,0x00,
0x3d,0x42,0x00,0x14,0x42,0x7f,0x00,0x49,0x7f,0x00,0x46,0x7f,0x05,0x46,0x00,0x26,
0x46,0x00,0x11,0x42,0x00,0x09,0x49,0x00,0x84,0x13,0x42,0x7f,0x00,0x4b,0x7f,0x00,
0x46,0x7f,0x81,0x1e,0x42,0x00,0x0d,0x46,0x00,0x0f,0x4b,0x00,0x81,0x2e,0x46,0x7f,
0x00,0x49,0x7f,0x00,0x4d,0x7f,0x83,0x32,0x49,0x00,0x08,0x4d,0x00,0x08,0x46,0x00,
0x81,0x16,0x50,0x7f,0x00,0x48,0x7f,0x00,0x4b,0x7f,0x81,0x6c,0x48,0x00,0x29,0x50,
0x00,0x04,0x4b,0x00,0x4f,0x49,0x7f,0x00,0x50,0x7f,0x00,0x4d,0x7f,0x83,0x30,0x49,
0x00,0x02,0x50,0x00,0x0c,0x4d,0x00,0x81,0x1a,0x50,0x7f,0x00,0x48,0x7f,0x00,0x4b,
0x7f,0x76,0x48,0x00,0x29,0x50,0x00,0x18,0x4b,0x00,0x39,0x49,0x7f,0x00,0x50,0x7f,
0x00,0x4d,0x7f,0x1b,0x49,0x00,0x02,0x50,0x00,0x08,0x4d,0x00,0x53,0x46,0x7f,0x00,
0x49,0x7f,0x00,0x4e,0x7f,0x84,0x42,0x49,0x00,0x00,0x46,0x00,0x0f,0x4e,0x00,0x00,
0xff,0x2f,0x00,0x4d,0x54,0x72,0x6b,0x00,0x00,0x00,0x50,0x00,0xff,0x21,0x01,0x00,
0x00,0xff,0x03,0x0d,0x6f,0x72,0x63,0x68,0x65,0x73,0x74,0x72,0x61,0x20,0x68,0x69,
0x74,0x00,0xc1,0x37,0x81,0xf5,0x50,0x91,0x49,0x62,0x00,0x25,0x66,0x00,0x3d,0x69,
0x00,0x31,0x62,0x21,0x49,0x00,0x0a,0x25,0x00,0x00,0x31,0x00,0x01,0x3d,0x00,0x4c,
0x49,0x70,0x00,0x3d,0x79,0x00,0x31,0x73,0x00,0x25,0x6b,0x46,0x25,0x00,0x05,0x31,
0x00,0x01,0x49,0x00,0x03,0x3d,0x00,0x00,0xff,0x2f,0x00,0x4d,0x54,0x72,0x6b,0x00,
0x00,0x0d,0x07,0x00,0xff,0x21,0x01,0x00,0x00,0xff,0x03,0x04,0x62,0x61,0x73,0x73,
0x00,0xce,0x21,0x00,0xbe,0x07,0x7f,0x00,0xbe,0x0a,0x5a,0x87,0x40,0x9e,0x19,0x7f,
0x84,0x58,0x1b,0x7f,0x03,0x19,0x00,0x68,0x1b,0x00,0x0d,0x1d,0x7f,0x78,0x20,0x7f,
0x0b,0x1d,0x00,0x85,0x0b,0x20,0x00,0x3a,0x22,0x7f,0x78,0x24,0x7f,0x05,0x22,0x00,
0x73,0x22,0x7f,0x0e,0x24,0x00,0x85,0x42,0x24,0x7f,0x0a,0x22,0x00,0x6b,0x24,0x00,
0x03,0x25,0x7f,0x78,0x1e,0x7f,0x02,0x25,0x00,0x85,0x4e,0x24,0x7f,0x78,0x25,0x7f,
0x06,0x24,0x00,0x00,0x1e,0x00,0x81,0x6a,0x19,0x7f,0x09,0x25,0x00,0x83,0x28,0x19,
0x00,0x2f,0x19,0x7f,0x77,0x19,0x00,0x01,0x1b,0x7f,0x74,0x1b,0x00,0x04,0x1d,0x7f,
0x77,0x1d,0x00,0x01,0x20,0x7f,0x84,0x65,0x20,0x00,0x6b,0x22,0x7f,0x6f,0x22,0x00,
0x09,0x24,0x7f,0x73,0x24,0x00,0x05,0x1d,0x7f,0x84,0x1a,0x1d,0x00,0x3e,0x1d,0x7f,
0x6c,0x1d,0x00,0x0c,0x25,0x7f,0x78,0x1d,0x7f,0x0e,0x25,0x00,0x5a,0x1d,0x00,0x10,
0x1e,0x7f,0x85,0x50,0x24,0x7f,0x29,0x1e,0x00,0x4f,0x25,0x7f,0x04,0x24,0x00,0x81,
0x53,0x25,0x00,0x19,0x19,0x7f,0x84,0x58,0x1b,0x7f,0x03,0x19,0x00,0x68,0x1b,0x00,
0x0d,0x1d,0x7f,0x78,0x20,0x7f,0x0b,0x1d,0x00,0x85,0x0b,0x20,0x00,0x3a,0x22,0x7f,
0x78,0x24,0x7f,0x05,0x22,0x00,0x73,0x22,0x7f,0x0e,0x24,0x00,0x85,0x42,0x24,0x7f,
0x0a,0x22,0x00,0x6b,0x24,0x00,0x03,0x25,0x7f,0x78,0x1e,0x7f,0x02,0x25,0x00,0x85,
0x4e,0x24,0x7f,0x78,0x25,0x7f,0x06,0x24,0x00,0x00,0x1e,0x00,0x81,0x6a,0x19,0x7f,
0x09,0x25,0x00,0x83,0x28,0x19,0x00,0x2f,0x19,0x7f,0x77,0x19,0x00,0x01,0x1b,0x7f,
0x74,0x1b,0x00,0x04,0x1d,0x7f,0x77,0x1d,0x00,0x01,0x20,0x7f,0x84,0x65,0x20,0x00,
0x6b,0x22,0x7f,0x6f,0x22,0x00,0x09,0x24,0x7f,0x73,0x24,0x00,0x05,0x1d,0x7f,0x84,
0x1a,0x1d,0x00,0x3e,0x1d,0x7f,0x6c,0x1d,0x00,0x0c,0x25,0x7f,0x78,0x1d,0x7f,0x0e,
0x25,0x00,0x5a,0x1d,0x00,0x10,0x1e,0x7f,0x85,0x50,0x24,0x7f,0x29,0x1e,0x00,0x4f,
0x25,0x7f,0x04,0x24,0x00,0x81,0x53,0x25,0x00,0x19,0x19,0x7f,0x84,0x58,0x1b,0x7f,
0x03,0x19,0x00,0x68,0x1b,0x00,0x0d,0x1d,0x7f,0x78,0x20,0x7f,0x0b,0x1d,0x00,0x85,
0x0b,0x20,0x00,0x3a,0x22,0x7f,0x78,0x24,0x7f,0x05,0x22,0x00,0x73,0x22,0x7f,0x0e,
0x24,0x00,0x85,0x42,0x24,0x7f,0x0a,0x22,0x00,0x6b,0x24,0x00,0x03,0x25,0x7f,0x78,
0x1e,0x7f,0x02,0x25,0x00,0x85,0x4e,0x24,0x7f,0x78,0x25,0x7f,0x06,0x24,0x00,0x00,
0x1e,0x00,0x81,0x6a,0x19,0x7f,0x09,0x25,0x00,0x83,0x28,0x19,0x00,0x2f,0x19,0x7f,
0x77,0x19,0x00,0x01,0x1b,0x7f,0x74,0x1b,0x00,0x04,0x1d,0x7f,0x77,0x1d,0x00,0x01,
0x20,0x7f,0x84,0x65,0x20,0x00,0x6b,0x22,0x7f,0x6f,0x22,0x00,0x09,0x24,0x7f,0x73,
0x24,0x00,0x05,0x1d,0x7f,0x84,0x1a,0x1d,0x00,0x3e,0x1d,0x7f,0x6c,0x1d,0x00,0x0c,
0x25,0x7f,0x78,0x1d,0x7f,0x0e,0x25,0x00,0x5a,0x1d,0x00,0x10,0x1e,0x7f,0x85,0x50,
0x24,0x7f,0x29,0x1e,0x00,0x4f,0x25,0x7f,0x04,0x24,0x00,0x81,0x53,0x25,0x00,0x19,
0x19,0x7f,0x84,0x58,0x1b,0x7f,0x03,0x19,0x00,0x68,0x1b,0x00,0x0d,0x1d,0x7f,0x78,
0x20,0x7f,0x0b,0x1d,0x00,0x85,0x0b,0x20,0x00,0x3a,0x22,0x7f,0x78,0x24,0x7f,0x05,
0x22,0x00,0x73,0x22,0x7f,0x0e,0x24,0x00,0x85,0x42,0x24,0x7f,0x0a,0x22,0x00,0x6b,
0x24,0x00,0x03,0x25,0x7f,0x78,0x1e,0x7f,0x02,0x25,0x00,0x85,0x4e,0x24,0x7f,0x78,
0x25,0x7f,0x06,0x24,0x00,0x00,0x1e,0x00,0x81,0x6a,0x19,0x7f,0x09,0x25,0x00,0x83,
0x28,0x19,0x00,0x2f,0x19,0x7f,0x77,0x19,0x00,0x01,0x1b,0x7f,0x74,0x1b,0x00,0x04,
0x1d,0x7f,0x77,0x1d,0x00,0x01,0x20,0x7f,0x84,0x65,0x20,0x00,0x6b,0x22,0x7f,0x6f,
0x22,0x00,0x09,0x24,0x7f,0x73,0x24,0x00,0x05,0x1d,0x7f,0x84,0x1a,0x1d,0x00,0x3e,
0x1d,0x7f,0x6c,0x1d,0x00,0x0c,0x25,0x7f,0x78,0x1d,0x7f,0x0e,0x25,0x00,0x5a,0x1d,
0x00,0x10,0x1e,0x7f,0x85,0x50,0x24,0x7f,0x29,0x1e,0x00,0x4f,0x25,0x7f,0x04,0x24,
0x00,0x81,0x53,0x25,0x00,0x19,0x19,0x7f,0x84,0x58,0x1b,0x7f,0x03,0x19,0x00,0x68,
0x1b,0x00,0x0d,0x1d,0x7f,0x78,0x20,0x7f,0x0b,0x1d,0x00,0x85,0x0b,0x20,0x00,0x3a,
0x22,0x7f,0x78,0x24,0x7f,0x05,0x22,0x00,0x73,0x22,0x7f,0x0e,0x24,0x00,0x85,0x42,
0x24,0x7f,0x0a,0x22,0x00,0x6b,0x24,0x00,0x03,0x25,0x7f,0x78,0x1e,0x7f,0x02,0x25,
0x00,0x85,0x4e,0x24,0x7f,0x78,0x25,0x7f,0x06,0x24,0x00,0x00,0x1e,0x00,0x81,0x6a,
0x19,0x7f,0x09,0x25,0x00,0x83,0x28,0x19,0x00,0x2f,0x19,0x7f,0x77,0x19,0x00,0x01,
0x1b,0x7f,0x74,0x1b,0x00,0x04,0x1d,0x7f,0x77,0x1d,0x00,0x01,0x20,0x7f,0x84,0x65,
0x20,0x00,0x6b,0x22,0x7f,0x6f,0x22,0x00,0x09,0x24,0x7f,0x73,0x24,0x00,0x05,0x1d,
0x7f,0x84,0x1a,0x1d,0x00,0x3e,0x1d,0x7f,0x6c,0x1d,0x00,0x0c,0x25,0x7f,0x78,0x1d,
0x7f,0x0e,0x25,0x00,0x5a,0x1d,0x00,0x10,0x1e,0x7f,0x85,0x50,0x24,0x7f,0x29,0x1e,
0x00,0x4f,0x25,0x7f,0x04,0x24,0x00,0x81,0x53,0x25,0x00,0x19,0x1e,0x7f,0x4d,0x1e,
0x00,0x2b,0x1e,0x7f,0x3c,0x1e,0x00,0x3c,0x1e,0x7f,0x54,0x1e,0x00,0x24,0x1e,0x7f,
0x3a,0x1e,0x00,0x3e,0x1e,0x7f,0x3c,0x1e,0x00,0x3c,0x1e,0x7f,0x2f,0x1e,0x00,0x49,
0x1e,0x7f,0x40,0x1e,0x00,0x38,0x1e,0x7f,0x38,0x1e,0x00,0x40,0x1e,0x7f,0x54,0x1e,
0x00,0x24,0x2a,0x7f,0x78,0x1e,0x7f,0x0c,0x2a,0x00,0x6c,0x25,0x7f,0x39,0x1e,0x00,
0x39,0x25,0x00,0x06,0x2a,0x7f,0x6b,0x2a,0x00,0x0d,0x25,0x7f,0x74,0x25,0x00,0x04,
0x29,0x7f,0x78,0x25,0x7f,0x04,0x29,0x00,0x3c,0x25,0x00,0x38,0x19,0x7f,0x52,0x19,
0x00,0x26,0x19,0x7f,0x3e,0x19,0x00,0x3a,0x19,0x7f,0x48,0x19,0x00,0x30,0x19,0x7f,
0x40,0x19,0x00,0x38,0x19,0x7f,0x4d,0x19,0x00,0x2b,0x19,0x7f,0x35,0x19,0x00,0x43,
0x19,0x7f,0x3f,0x19,0x00,0x39,0x19,0x7f,0x30,0x19,0x00,0x48,0x19,0x7f,0x4e,0x19,
0x00,0x2a,0x25,0x7f,0x78,0x24,0x7f,0x13,0x25,0x00,0x65,0x20,0x7f,0x01,0x24,0x00,
0x67,0x20,0x00,0x10,0x25,0x7f,0x78,0x20,0x7f,0x09,0x25,0x00,0x6f,0x24,0x7f,0x04,
0x20,0x00,0x73,0x24,0x00,0x01,0x25,0x7f,0x78,0x1e,0x7f,0x0b,0x25,0x00,0x46,0x1e,
0x00,0x27,0x1e,0x7f,0x30,0x1e,0x00,0x48,0x1e,0x7f,0x4d,0x1e,0x00,0x2b,0x1e,0x7f,
0x33,0x1e,0x00,0x45,0x1e,0x7f,0x43,0x1e,0x00,0x35,0x1e,0x7f,0x30,0x1e,0x00,0x48,
0x1e,0x7f,0x36,0x1e,0x00,0x42,0x1e,0x7f,0x35,0x1e,0x00,0x43,0x1e,0x7f,0x5b,0x1e,
0x00,0x1d,0x2a,0x7f,0x78,0x25,0x7f,0x1f,0x2a,0x00,0x59,0x2a,0x7f,0x01,0x25,0x00,
0x75,0x2a,0x00,0x02,0x25,0x7f,0x78,0x29,0x7f,0x02,0x25,0x00,0x76,0x25,0x7f,0x14,
0x29,0x00,0x64,0x1e,0x7f,0x1e,0x25,0x00,0x24,0x1e,0x00,0x36,0x19,0x7f,0x81,0x2b,
0x19,0x00,0x45,0x19,0x7f,0x48,0x19,0x00,0x30,0x19,0x7f,0x2d,0x19,0x00,0x4b,0x19,
0x7f,0x40,0x19,0x00,0x38,0x19,0x7f,0x2d,0x19,0x00,0x4b,0x19,0x7f,0x3a,0x19,0x00,
0x3e,0x19,0x7f,0x2a,0x19,0x00,0x4e,0x19,0x7f,0x51,0x19,0x00,0x27,0x25,0x7f,0x78,
0x24,0x7f,0x06,0x25,0x00,0x68,0x24,0x00,0x0a,0x20,0x7f,0x6c,0x20,0x00,0x0c,0x25,
0x7f,0x78,0x25,0x00,0x00,0x20,0x7f,0x78,0x20,0x00,0x00,0x24,0x7f,0x78,0x24,0x00,
0x00,0x25,0x7f,0x78,0x1e,0x7f,0x07,0x25,0x00,0x44,0x1e,0x00,0x2d,0x1e,0x7f,0x2f,
0x1e,0x00,0x49,0x1e,0x7f,0x3d,0x1e,0x00,0x3b,0x1e,0x7f,0x36,0x1e,0x00,0x42,0x1e,
0x7f,0x33,0x1e,0x00,0x45,0x1e,0x7f,0x2b,0x1e,0x00,0x4d,0x1e,0x7f,0x3b,0x1e,0x00,
0x3d,0x1e,0x7f,0x2e,0x1e,0x00,0x4a,0x1e,0x7f,0x64,0x1e,0x00,0x14,0x2a,0x7f,0x78,
0x25,0x7f,0x23,0x2a,0x00,0x55,0x1e,0x7f,0x0e,0x25,0x00,0x68,0x1e,0x00,0x02,0x2a,
0x7f,0x77,0x2a,0x00,0x01,0x1e,0x7f,0x78,0x25,0x7f,0x0c,0x1e,0x00,0x6c,0x2a,0x7f,
0x0d,0x25,0x00,0x2e,0x2a,0x00,0x3d,0x19,0x7f,0x49,0x19,0x00,0x2f,0x19,0x7f,0x48,
0x19,0x00,0x30,0x19,0x7f,0x4b,0x19,0x00,0x2d,0x19,0x7f,0x25,0x19,0x00,0x53,0x19,
0x7f,0x46,0x19,0x00,0x32,0x19,0x7f,0x3a,0x19,0x00,0x3e,0x19,0x7f,0x36,0x19,0x00,
0x42,0x19,0x7f,0x2e,0x19,0x00,0x4a,0x19,0x7f,0x5a,0x19,0x00,0x1e,0x25,0x7f,0x78,
0x24,0x7f,0x07,0x25,0x00,0x71,0x25,0x7f,0x0b,0x24,0x00,0x66,0x25,0x00,0x07,0x20,
0x7f,0x78,0x24,0x7f,0x1c,0x20,0x00,0x53,0x24,0x00,0x09,0x25,0x7f,0x78,0x20,0x7f,
0x1d,0x25,0x00,0x5b,0x1e,0x7f,0x21,0x20,0x00,0x28,0x1e,0x00,0x2f,0x1e,0x7f,0x47,
0x1e,0x00,0x31,0x1e,0x7f,0x4d,0x1e,0x00,0x2b,0x1e,0x7f,0x29,0x1e,0x00,0x4f,0x1e,
0x7f,0x36,0x1e,0x00,0x42,0x1e,0x7f,0x2d,0x1e,0x00,0x4b,0x1e,0x7f,0x3a,0x1e,0x00,
0x3e,0x1e,0x7f,0x24,0x1e,0x00,0x54,0x1e,0x7f,0x6e,0x1e,0x00,0x0a,0x2a,0x7f,0x78,
0x25,0x7f,0x22,0x2a,0x00,0x56,0x22,0x7f,0x08,0x25,0x00,0x6c,0x22,0x00,0x04,0x2a,
0x7f,0x78,0x1e,0x7f,0x07,0x2a,0x00,0x71,0x25,0x7f,0x0b,0x1e,0x00,0x6d,0x2a,0x7f,
0x15,0x25,0x00,0x5e,0x2a,0x00,0x05,0x20,0x7f,0x82,0x68,0x19,0x7f,0x06,0x20,0x00,
0x84,0x51,0x19,0x00,0x01,0x20,0x7f,0x81,0x53,0x20,0x00,0x1d,0x19,0x7f,0x78,0x1e,
0x7f,0x1d,0x19,0x00,0x84,0x3b,0x1e,0x00,0x00,0x19,0x7f,0x84,0x58,0x1b,0x7f,0x03,
0x19,0x00,0x68,0x1b,0x00,0x0d,0x1d,0x7f,0x78,0x20,0x7f,0x0b,0x1d,0x00,0x85,0x0b,
0x20,0x00,0x3a,0x22,0x7f,0x78,0x24,0x7f,0x05,0x22,0x00,0x73,0x22,0x7f,0x0e,0x24,
0x00,0x85,0x42,0x24,0x7f,0x0a,0x22,0x00,0x6b,0x24,0x00,0x03,0x25,0x7f,0x78,0x1e,
0x7f,0x02,0x25,0x00,0x85,0x4e,0x24,0x7f,0x78,0x25,0x7f,0x06,0x24,0x00,0x00,0x1e,
0x00,0x81,0x6a,0x25,0x00,0x00,0x19,0x7f,0x84,0x58,0x1b,0x7f,0x03,0x19,0x00,0x68,
0x1b,0x00,0x0d,0x1d,0x7f,0x78,0x20,0x7f,0x0b,0x1d,0x00,0x85,0x0b,0x20,0x00,0x3a,
0x22,0x7f,0x78,0x24,0x7f,0x05,0x22,0x00,0x73,0x22,0x7f,0x0e,0x24,0x00,0x85,0x42,
0x24,0x7f,0x0a,0x22,0x00,0x6b,0x24,0x00,0x03,0x25,0x7f,0x78,0x1e,0x7f,0x02,0x25,
0x00,0x85,0x4e,0x24,0x7f,0x78,0x25,0x7f,0x06,0x24,0x00,0x00,0x1e,0x00,0x81,0x6a,
0x19,0x7f,0x09,0x25,0x00,0x83,0x28,0x19,0x00,0x2f,0x19,0x7f,0x77,0x19,0x00,0x01,
0x1b,0x7f,0x74,0x1b,0x00,0x04,0x1d,0x7f,0x77,0x1d,0x00,0x01,0x20,0x7f,0x84,0x65,
0x20,0x00,0x6b,0x22,0x7f,0x6f,0x22,0x00,0x09,0x24,0x7f,0x73,0x24,0x00,0x05,0x1d,
0x7f,0x84,0x1a,0x1d,0x00,0x3e,0x1d,0x7f,0x6c,0x1d,0x00,0x0c,0x25,0x7f,0x78,0x1d,
0x7f,0x0e,0x25,0x00,0x5a,0x1d,0x00,0x10,0x1e,0x7f,0x85,0x50,0x24,0x7f,0x29,0x1e,
0x00,0x4f,0x25,0x7f,0x04,0x24,0x00,0x81,0x53,0x25,0x00,0x19,0x19,0x7f,0x84,0x58,
0x1b,0x7f,0x03,0x19,0x00,0x68,0x1b,0x00,0x0d,0x1d,0x7f,0x78,0x20,0x7f,0x0b,0x1d,
0x00,0x85,0x0b,0x20,0x00,0x3a,0x22,0x7f,0x78,0x24,0x7f,0x05,0x22,0x00,0x73,0x22,
0x7f,0x0e,0x24,0x00,0x85,0x42,0x24,0x7f,0x0a,0x22,0x00,0x6b,0x24,0x00,0x03,0x25,
0x7f,0x78,0x1e,0x7f,0x02,0x25,0x00,0x85,0x4e,0x24,0x7f,0x78,0x25,0x7f,0x06,0x24,
0x00,0x00,0x1e,0x00,0x81,0x6a,0x19,0x7f,0x09,0x25,0x00,0x83,0x28,0x19,0x00,0x2f,
0x19,0x7f,0x77,0x19,0x00,0x01,0x1b,0x7f,0x74,0x1b,0x00,0x04,0x1d,0x7f,0x77,0x1d,
0x00,0x01,0x20,0x7f,0x84,0x65,0x20,0x00,0x6b,0x22,0x7f,0x6f,0x22,0x00,0x09,0x24,
0x7f,0x73,0x24,0x00,0x05,0x1d,0x7f,0x84,0x1a,0x1d,0x00,0x3e,0x1d,0x7f,0x6c,0x1d,
0x00,0x0c,0x25,0x7f,0x78,0x1d,0x7f,0x0e,0x25,0x00,0x5a,0x1d,0x00,0x10,0x1e,0x7f,
0x85,0x50,0x24,0x7f,0x29,0x1e,0x00,0x4f,0x25,0x7f,0x04,0x24,0x00,0x81,0x53,0x25,
0x00,0x19,0x1e,0x7f,0x4d,0x1e,0x00,0x2b,0x1e,0x7f,0x3c,0x1e,0x00,0x3c,0x1e,0x7f,
0x54,0x1e,0x00,0x24,0x1e,0x7f,0x3a,0x1e,0x00,0x3e,0x1e,0x7f,0x3c,0x1e,0x00,0x3c,
0x1e,0x7f,0x2f,0x1e,0x00,0x49,0x1e,0x7f,0x40,0x1e,0x00,0x38,0x1e,0x7f,0x38,0x1e,
0x00,0x40,0x1e,0x7f,0x54,0x1e,0x00,0x24,0x2a,0x7f,0x78,0x1e,0x7f,0x0c,0x2a,0x00,
0x6c,0x25,0x7f,0x39,0x1e,0x00,0x39,0x25,0x00,0x06,0x2a,0x7f,0x6b,0x2a,0x00,0x0d,
0x25,0x7f,0x74,0x25,0x00,0x04,0x29,0x7f,0x78,0x25,0x7f,0x04,0x29,0x00,0x3c,0x25,
0x00,0x38,0x19,0x7f,0x52,0x19,0x00,0x26,0x19,0x7f,0x3e,0x19,0x00,0x3a,0x19,0x7f,
0x48,0x19,0x00,0x30,0x19,0x7f,0x40,0x19,0x00,0x38,0x19,0x7f,0x4d,0x19,0x00,0x2b,
0x19,0x7f,0x35,0x19,0x00,0x43,0x19,0x7f,0x3f,0x19,0x00,0x39,0x19,0x7f,0x30,0x19,
0x00,0x48,0x19,0x7f,0x4e,0x19,0x00,0x2a,0x25,0x7f,0x78,0x24,0x7f,0x13,0x25,0x00,
0x65,0x20,0x7f,0x01,0x24,0x00,0x67,0x20,0x00,0x10,0x25,0x7f,0x78,0x20,0x7f,0x09,
0x25,0x00,0x6f,0x24,0x7f,0x04,0x20,0x00,0x73,0x24,0x00,0x01,0x25,0x7f,0x78,0x1e,
0x7f,0x0b,0x25,0x00,0x46,0x1e,0x00,0x27,0x1e,0x7f,0x30,0x1e,0x00,0x48,0x1e,0x7f,
0x4d,0x1e,0x00,0x2b,0x1e,0x7f,0x33,0x1e,0x00,0x45,0x1e,0x7f,0x43,0x1e,0x00,0x35,
0x1e,0x7f,0x30,0x1e,0x00,0x48,0x1e,0x7f,0x36,0x1e,0x00,0x42,0x1e,0x7f,0x35,0x1e,
0x00,0x43,0x1e,0x7f,0x5b,0x1e,0x00,0x1d,0x2a,0x7f,0x78,0x25,0x7f,0x1f,0x2a,0x00,
0x59,0x2a,0x7f,0x01,0x25,0x00,0x75,0x2a,0x00,0x02,0x25,0x7f,0x78,0x29,0x7f,0x02,
0x25,0x00,0x76,0x25,0x7f,0x14,0x29,0x00,0x64,0x1e,0x7f,0x1e,0x25,0x00,0x24,0x1e,
0x00,0x36,0x19,0x7f,0x81,0x2b,0x19,0x00,0x45,0x19,0x7f,0x48,0x19,0x00,0x30,0x19,
0x7f,0x2d,0x19,0x00,0x4b,0x19,0x7f,0x40,0x19,0x00,0x38,0x19,0x7f,0x2d,0x19,0x00,
0x4b,0x19,0x7f,0x3a,0x19,0x00,0x3e,0x19,0x7f,0x2a,0x19,0x00,0x4e,0x19,0x7f,0x51,
0x19,0x00,0x27,0x25,0x7f,0x78,0x24,0x7f,0x06,0x25,0x00,0x68,0x24,0x00,0x0a,0x20,
0x7f,0x6c,0x20,0x00,0x0c,0x25,0x7f,0x78,0x25,0x00,0x00,0x20,0x7f,0x78,0x20,0x00,
0x00,0x24,0x7f,0x78,0x24,0x00,0x00,0x25,0x7f,0x78,0x1e,0x7f,0x07,0x25,0x00,0x44,
0x1e,0x00,0x2d,0x1e,0x7f,0x2f,0x1e,0x00,0x49,0x1e,0x7f,0x3d,0x1e,0x00,0x3b,0x1e,
0x7f,0x36,0x1e,0x00,0x42,0x1e,0x7f,0x33,0x1e,0x00,0x45,0x1e,0x7f,0x2b,0x1e,0x00,
0x4d,0x1e,0x7f,0x3b,0x1e,0x00,0x3d,0x1e,0x7f,0x2e,0x1e,0x00,0x4a,0x1e,0x7f,0x64,
0x1e,0x00,0x14,0x2a,0x7f,0x78,0x25,0x7f,0x23,0x2a,0x00,0x55,0x1e,0x7f,0x0e,0x25,
0x00,0x68,0x1e,0x00,0x02,0x2a,0x7c,0x77,0x2a,0x00,0x01,0x1e,0x7f,0x78,0x25,0x7f,
0x0c,0x1e,0x00,0x6c,0x2a,0x7f,0x0d,0x25,0x00,0x2e,0x2a,0x00,0x3d,0x19,0x7f,0x49,
0x19,0x00,0x2f,0x19,0x7f,0x48,0x19,0x00,0x30,0x19,0x7f,0x4b,0x19,0x00,0x2d,0x19,
0x7f,0x25,0x19,0x00,0x53,0x19,0x7f,0x46,0x19,0x00,0x32,0x19,0x7f,0x3a,0x19,0x00,
0x3e,0x19,0x7f,0x36,0x19,0x00,0x42,0x19,0x7f,0x2e,0x19,0x00,0x4a,0x19,0x7f,0x5a,
0x19,0x00,0x1e,0x25,0x7f,0x78,0x24,0x7f,0x07,0x25,0x00,0x71,0x25,0x7f,0x0b,0x24,
0x00,0x66,0x25,0x00,0x07,0x20,0x7f,0x78,0x24,0x7f,0x1c,0x20,0x00,0x53,0x24,0x00,
0x09,0x25,0x7f,0x78,0x20,0x7f,0x1d,0x25,0x00,0x5b,0x1e,0x7f,0x21,0x20,0x00,0x28,
0x1e,0x00,0x2f,0x1e,0x7f,0x47,0x1e,0x00,0x31,0x1e,0x7f,0x4d,0x1e,0x00,0x2b,0x1e,
0x7f,0x29,0x1e,0x00,0x4f,0x1e,0x7f,0x36,0x1e,0x00,0x42,0x1e,0x7f,0x2d,0x1e,0x00,
0x4b,0x1e,0x7f,0x3a,0x1e,0x00,0x3e,0x1e,0x7f,0x24,0x1e,0x00,0x54,0x1e,0x7f,0x6e,
0x1e,0x00,0x0a,0x2a,0x7f,0x78,0x25,0x7f,0x22,0x2a,0x00,0x56,0x22,0x7f,0x08,0x25,
0x00,0x6c,0x22,0x00,0x04,0x2a,0x7f,0x78,0x1e,0x7f,0x07,0x2a,0x00,0x71,0x25,0x7f,
0x0b,0x1e,0x00,0x6d,0x2a,0x7f,0x15,0x25,0x00,0x5e,0x2a,0x00,0x05,0x20,0x7f,0x82,
0x68,0x19,0x7f,0x06,0x20,0x00,0x84,0x51,0x19,0x00,0x01,0x20,0x7f,0x81,0x53,0x20,
0x00,0x1d,0x19,0x7f,0x78,0x1e,0x7f,0x1d,0x19,0x00,0x84,0x3b,0x1e,0x00,0x00,0x19,
0x7f,0x84,0x58,0x1b,0x7f,0x03,0x19,0x00,0x68,0x1b,0x00,0x0d,0x1d,0x7f,0x78,0x20,
0x7f,0x0b,0x1d,0x00,0x85,0x0b,0x20,0x00,0x3a,0x22,0x7f,0x78,0x24,0x7f,0x05,0x22,
0x00,0x73,0x22,0x7f,0x0e,0x24,0x00,0x85,0x42,0x24,0x7f,0x0a,0x22,0x00,0x6b,0x24,
0x00,0x03,0x25,0x7f,0x78,0x1e,0x7f,0x02,0x25,0x00,0x85,0x4e,0x24,0x7f,0x78,0x25,
0x7f,0x06,0x24,0x00,0x00,0x1e,0x00,0x81,0x6a,0x19,0x7f,0x09,0x25,0x00,0x83,0x28,
0x19,0x00,0x2f,0x19,0x7f,0x77,0x19,0x00,0x01,0x1b,0x7f,0x74,0x1b,0x00,0x04,0x1d,
0x7f,0x77,0x1d,0x00,0x01,0x20,0x7f,0x84,0x65,0x20,0x00,0x6b,0x22,0x7f,0x6f,0x22,
0x00,0x09,0x24,0x7f,0x73,0x24,0x00,0x05,0x1d,0x7f,0x84,0x1a,0x1d,0x00,0x3e,0x1d,
0x7f,0x6c,0x1d,0x00,0x0c,0x25,0x7f,0x78,0x1d,0x7f,0x0e,0x25,0x00,0x5a,0x1d,0x00,
0x10,0x1e,0x7f,0x85,0x50,0x24,0x7f,0x29,0x1e,0x00,0x4f,0x25,0x7f,0x04,0x24,0x00,
0x81,0x53,0x25,0x00,0x19,0x19,0x7f,0x84,0x58,0x1b,0x7f,0x03,0x19,0x00,0x68,0x1b,
0x00,0x0d,0x1d,0x7f,0x78,0x20,0x7f,0x0b,0x1d,0x00,0x85,0x0b,0x20,0x00,0x3a,0x22,
0x7f,0x78,0x24,0x7f,0x05,0x22,0x00,0x73,0x22,0x7f,0x0e,0x24,0x00,0x85,0x42,0x24,
0x7f,0x0a,0x22,0x00,0x6b,0x24,0x00,0x03,0x25,0x7f,0x78,0x1e,0x7f,0x02,0x25,0x00,
0x85,0x4e,0x24,0x7f,0x78,0x25,0x7f,0x06,0x24,0x00,0x00,0x1e,0x00,0x81,0x6a,0x19,
0x7f,0x09,0x25,0x00,0x83,0x28,0x19,0x00,0x2f,0x19,0x7f,0x77,0x19,0x00,0x01,0x1b,
0x7f,0x74,0x1b,0x00,0x04,0x1d,0x7f,0x77,0x1d,0x00,0x01,0x20,0x7f,0x84,0x65,0x20,
0x00,0x6b,0x22,0x7f,0x6f,0x22,0x00,0x09,0x24,0x7f,0x73,0x24,0x00,0x05,0x1d,0x7f,
0x84,0x1a,0x1d,0x00,0x3e,0x1d,0x7f,0x6c,0x1d,0x00,0x0c,0x25,0x7f,0x78,0x1d,0x7f,
0x0e,0x25,0x00,0x5a,0x1d,0x00,0x10,0x1e,0x7f,0x85,0x50,0x24,0x7f,0x29,0x1e,0x00,
0x4f,0x25,0x7f,0x04,0x24,0x00,0x81,0x53,0x25,0x00,0x19,0x19,0x7f,0x84,0x58,0x1b,
0x7f,0x03,0x19,0x00,0x68,0x1b,0x00,0x0d,0x1d,0x7f,0x78,0x20,0x7f,0x0b,0x1d,0x00,
0x85,0x0b,0x20,0x00,0x3a,0x22,0x7f,0x78,0x24,0x7f,0x05,0x22,0x00,0x73,0x22,0x7f,
0x0e,0x24,0x00,0x85,0x42,0x24,0x7f,0x0a,0x22,0x00,0x6b,0x24,0x00,0x03,0x25,0x7f,
0x78,0x1e,0x7f,0x02,0x25,0x00,0x85,0x4e,0x24,0x7f,0x78,0x25,0x7f,0x06,0x24,0x00,
0x00,0x1e,0x00,0x81,0x6a,0x19,0x7f,0x09,0x25,0x00,0x83,0x28,0x19,0x00,0x2f,0x19,
0x7f,0x77,0x19,0x00,0x01,0x1b,0x7f,0x74,0x1b,0x00,0x04,0x1d,0x7f,0x77,0x1d,0x00,
0x01,0x20,0x7f,0x84,0x65,0x20,0x00,0x6b,0x22,0x7f,0x6f,0x22,0x00,0x09,0x24,0x7f,
0x73,0x24,0x00,0x05,0x1d,0x7f,0x84,0x1a,0x1d,0x00,0x3e,0x1d,0x7f,0x6c,0x1d,0x00,
0x0c,0x25,0x7f,0x78,0x1d,0x7f,0x0e,0x25,0x00,0x5a,0x1d,0x00,0x10,0x1e,0x7f,0x85,
0x50,0x24,0x7f,0x29,0x1e,0x00,0x4f,0x25,0x7f,0x04,0x24,0x00,0x81,0x53,0x25,0x00,
0x19,0x19,0x7f,0x84,0x58,0x1b,0x7f,0x03,0x19,0x00,0x68,0x1b,0x00,0x0d,0x1d,0x7f,
0x78,0x20,0x7f,0x0b,0x1d,0x00,0x85,0x0b,0x20,0x00,0x3a,0x22,0x7f,0x78,0x24,0x7f,
0x05,0x22,0x00,0x73,0x22,0x7f,0x0e,0x24,0x00,0x85,0x42,0x24,0x7f,0x0a,0x22,0x00,
0x6b,0x24,0x00,0x03,0x25,0x7f,0x78,0x1e,0x7f,0x02,0x25,0x00,0x85,0x4e,0x24,0x7f,
0x78,0x25,0x7f,0x06,0x24,0x00,0x00,0x1e,0x00,0x81,0x6a,0x19,0x7f,0x09,0x25,0x00,
0x83,0x28,0x19,0x00,0x2f,0x19,0x7f,0x77,0x19,0x00,0x01,0x1b,0x7f,0x74,0x1b,0x00,
0x04,0x1d,0x7f,0x77,0x1d,0x00,0x01,0x20,0x7f,0x84,0x65,0x20,0x00,0x6b,0x22,0x7f,
0x6f,0x22,0x00,0x09,0x24,0x7f,0x73,0x24,0x00,0x05,0x1d,0x7f,0x84,0x1a,0x1d,0x00,
0x3e,0x1d,0x7f,0x6c,0x1d,0x00,0x0c,0x25,0x7f,0x78,0x1d,0x7f,0x0e,0x25,0x00,0x5a,
0x1d,0x00,0x10,0x1e,0x7f,0x85,0x50,0x24,0x7f,0x29,0x1e,0x00,0x4f,0x25,0x7f,0x04,
0x24,0x00,0x81,0x53,0x25,0x00,0x00,0xff,0x2f,0x00,0x4d,0x54,0x72,0x6b,0x00,0x00,
0x01,0x3e,0x00,0xff,0x21,0x01,0x00,0x00,0xff,0x03,0x05,0x63,0x68,0x6f,0x69,0x72,
0x00,0xcf,0x58,0x00,0xbf,0x07,0x64,0x00,0xbf,0x0a,0x14,0x83,0xc2,0x78,0x9f,0x38,
0x7f,0x6c,0x38,0x00,0x81,0x04,0x44,0x7f,0x81,0x02,0x44,0x00,0x6e,0x42,0x7f,0x81,
0x32,0x42,0x00,0x98,0x6e,0x38,0x7f,0x6d,0x38,0x00,0x81,0x03,0x44,0x7f,0x81,0x06,
0x44,0x00,0x6a,0x42,0x7f,0x81,0x1b,0x42,0x00,0x99,0x05,0x38,0x7f,0x6e,0x38,0x00,
0x81,0x02,0x44,0x7f,0x81,0x0c,0x44,0x00,0x64,0x42,0x7f,0x81,0x0f,0x42,0x00,0x99,
0x11,0x38,0x7f,0x6d,0x38,0x00,0x81,0x03,0x44,0x7f,0x81,0x06,0x44,0x00,0x6a,0x42,
0x7f,0x81,0x1b,0x42,0x00,0x99,0x05,0x38,0x73,0x6e,0x38,0x00,0x81,0x02,0x44,0x7f,
0x81,0x0c,0x44,0x00,0x64,0x42,0x7f,0x81,0x0f,0x42,0x00,0x81,0x91,0x11,0x38,0x7f,
0x6c,0x38,0x00,0x81,0x04,0x44,0x7f,0x81,0x02,0x44,0x00,0x6e,0x42,0x7f,0x81,0x32,
0x42,0x00,0x98,0x6e,0x38,0x7f,0x67,0x38,0x00,0x81,0x09,0x44,0x7f,0x81,0x04,0x44,
0x00,0x6c,0x42,0x7f,0x81,0x26,0x42,0x00,0x98,0x7a,0x38,0x7f,0x6d,0x38,0x00,0x81,
0x03,0x44,0x7f,0x81,0x06,0x44,0x00,0x6a,0x42,0x7f,0x81,0x1b,0x42,0x00,0x99,0x05,
0x38,0x7f,0x6e,0x38,0x00,0x81,0x02,0x44,0x7f,0x81,0x0c,0x44,0x00,0x64,0x42,0x7f,
0x81,0x0f,0x42,0x00,0x99,0x11,0x38,0x7f,0x6c,0x38,0x00,0x81,0x04,0x44,0x7f,0x81,
0x02,0x44,0x00,0x6e,0x42,0x7f,0x81,0x32,0x42,0x00,0x98,0x6e,0x38,0x7f,0x67,0x38,
0x00,0x81,0x09,0x44,0x7f,0x81,0x04,0x44,0x00,0x6c,0x42,0x7f,0x81,0x26,0x42,0x00,
0x98,0x7a,0x38,0x7f,0x6d,0x38,0x00,0x81,0x03,0x44,0x7f,0x81,0x06,0x44,0x00,0x6a,
0x42,0x7f,0x81,0x1b,0x42,0x00,0x99,0x05,0x38,0x7f,0x6e,0x38,0x00,0x81,0x02,0x44,
0x7f,0x81,0x0c,0x44,0x00,0x64,0x42,0x7f,0x81,0x0f,0x42,0x00,0x00,0xff,0x2f,0x00,
0x4d,0x54,0x72,0x6b,0x00,0x00,0x01,0x47,0x00,0xff,0x21,0x01,0x00,0x00,0xff,0x03,
0x0e,0x73,0x79,0x6e,0x74,0x68,0x20,0x73,0x74,0x72,0x69,0x6e,0x67,0x73,0x32,0x00,
0xcd,0x32,0x00,0xbd,0x07,0x64,0x00,0xbd,0x0a,0x6b,0x83,0xc2,0x78,0x9d,0x38,0x7f,
0x6c,0x38,0x00,0x81,0x04,0x44,0x7f,0x81,0x02,0x44,0x00,0x6e,0x42,0x7f,0x81,0x32,
0x42,0x00,0x98,0x6e,0x38,0x7f,0x6d,0x38,0x00,0x81,0x03,0x44,0x7f,0x81,0x06,0x44,
0x00,0x6a,0x42,0x7f,0x81,0x1b,0x42,0x00,0x99,0x05,0x38,0x7f,0x6e,0x38,0x00,0x81,
0x02,0x44,0x7f,0x81,0x0c,0x44,0x00,0x64,0x42,0x7f,0x81,0x0f,0x42,0x00,0x99,0x11,
0x38,0x7f,0x6d,0x38,0x00,0x81,0x03,0x44,0x7f,0x81,0x06,0x44,0x00,0x6a,0x42,0x7f,
0x81,0x1b,0x42,0x00,0x99,0x05,0x38,0x7f,0x6e,0x38,0x00,0x81,0x02,0x44,0x7f,0x81,
0x0c,0x44,0x00,0x64,0x42,0x7f,0x81,0x0f,0x42,0x00,0x81,0x91,0x11,0x38,0x7f,0x6c,
0x38,0x00,0x81,0x04,0x44,0x7f,0x81,0x02,0x44,0x00,0x6e,0x42,0x7f,0x81,0x32,0x42,
0x00,0x98,0x6e,0x38,0x7f,0x67,0x38,0x00,0x81,0x09,0x44,0x7f,0x81,0x04,0x44,0x00,
0x6c,0x42,0x7f,0x81,0x26,0x42,0x00,0x98,0x7a,0x38,0x7f,0x6d,0x38,0x00,0x81,0x03,
0x44,0x7f,0x81,0x06,0x44,0x00,0x6a,0x42,0x7f,0x81,0x1b,0x42,0x00,0x99,0x05,0x38,
0x7f,0x6e,0x38,0x00,0x81,0x02,0x44,0x7f,0x81,0x0c,0x44,0x00,0x64,0x42,0x7f,0x81,
0x0f,0x42,0x00,0x99,0x11,0x38,0x7f,0x6c,0x38,0x00,0x81,0x04,0x44,0x7f,0x81,0x02,
0x44,0x00,0x6e,0x42,0x7f,0x81,0x32,0x42,0x00,0x98,0x6e,0x38,0x7f,0x67,0x38,0x00,
0x81,0x09,0x44,0x7f,0x81,0x04,0x44,0x00,0x6c,0x42,0x7f,0x81,0x26,0x42,0x00,0x98,
0x7a,0x38,0x7f,0x6d,0x38,0x00,0x81,0x03,0x44,0x7f,0x81,0x06,0x44,0x00,0x6a,0x42,
0x7f,0x81,0x1b,0x42,0x00,0x99,0x05,0x38,0x7f,0x6e,0x38,0x00,0x81,0x02,0x44,0x7f,
0x81,0x0c,0x44,0x00,0x64,0x42,0x7f,0x81,0x0f,0x42,0x00,0x00,0xff,0x2f,0x00,0x4d,
0x54,0x72,0x6b,0x00,0x00,0x06,0xf6,0x00,0xff,0x21,0x01,0x00,0x00,0xff,0x03,0x0a,
0x66,0x75,0x74,0x75,0x72,0x65,0x20,0x70,0x61,0x64,0x00,0xc2,0x5a,0x00,0xb2,0x07,
0x5a,0x83,0xad,0x30,0x92,0x55,0x7f,0x00,0x50,0x7f,0x00,0x59,0x7f,0x60,0x59,0x00,
0x0a,0x55,0x00,0x0e,0x59,0x7f,0x00,0x55,0x7f,0x51,0x59,0x00,0x11,0x55,0x00,0x0e,
0x50,0x00,0x85,0x58,0x50,0x7f,0x00,0x57,0x7f,0x00,0x54,0x7f,0x64,0x57,0x00,0x08,
0x54,0x00,0x0c,0x57,0x7f,0x00,0x54,0x7f,0x63,0x50,0x00,0x02,0x54,0x00,0x00,0x57,
0x00,0x85,0x63,0x4d,0x7f,0x00,0x52,0x7f,0x00,0x55,0x7f,0x57,0x4d,0x00,0x01,0x55,
0x00,0x0f,0x52,0x00,0x11,0x55,0x7f,0x00,0x4d,0x7f,0x00,0x52,0x7f,0x5e,0x55,0x00,
0x0c,0x4d,0x00,0x01,0x52,0x00,0x85,0x5d,0x4e,0x7f,0x00,0x55,0x7f,0x00,0x52,0x7f,
0x5b,0x55,0x00,0x08,0x4e,0x00,0x02,0x52,0x00,0x13,0x4e,0x7f,0x00,0x55,0x7f,0x00,
0x52,0x7f,0x59,0x4e,0x00,0x03,0x52,0x00,0x0d,0x55,0x00,0x85,0x5f,0x55,0x7f,0x00,
0x59,0x7f,0x00,0x50,0x7f,0x4c,0x59,0x00,0x13,0x55,0x00,0x0b,0x50,0x00,0x0e,0x59,
0x7f,0x00,0x50,0x7f,0x00,0x55,0x7f,0x5e,0x59,0x00,0x0c,0x55,0x00,0x04,0x50,0x00,
0x85,0x5a,0x50,0x7f,0x00,0x57,0x7f,0x00,0x54,0x7f,0x55,0x57,0x00,0x06,0x50,0x00,
0x08,0x54,0x00,0x15,0x57,0x7f,0x00,0x50,0x7f,0x00,0x54,0x7f,0x6a,0x57,0x00,0x03,
0x54,0x00,0x04,0x50,0x00,0x85,0x57,0x4d,0x7f,0x00,0x55,0x7f,0x00,0x52,0x7f,0x5e,
0x52,0x00,0x00,0x4d,0x00,0x04,0x55,0x00,0x16,0x55,0x7f,0x00,0x52,0x7f,0x00,0x4d,
0x7f,0x56,0x55,0x00,0x0e,0x4d,0x00,0x02,0x52,0x00,0x85,0x62,0x4e,0x7f,0x00,0x55,
0x7f,0x00,0x52,0x7f,0x59,0x55,0x00,0x01,0x4e,0x00,0x09,0x52,0x00,0x15,0x55,0x7f,
0x00,0x4e,0x7f,0x00,0x52,0x7f,0x5c,0x4e,0x00,0x09,0x55,0x00,0x08,0x52,0x00,0x85,
0x5b,0x55,0x7f,0x00,0x59,0x7f,0x00,0x50,0x7f,0x40,0x59,0x00,0x05,0x55,0x00,0x1c,
0x50,0x00,0x17,0x59,0x7f,0x00,0x55,0x7f,0x00,0x50,0x7f,0x53,0x59,0x00,0x1a,0x55,
0x00,0x04,0x50,0x00,0x85,0x57,0x50,0x7f,0x00,0x57,0x7f,0x00,0x54,0x7f,0x5b,0x57,
0x00,0x0b,0x54,0x00,0x07,0x50,0x00,0x0b,0x57,0x7f,0x00,0x50,0x7f,0x00,0x54,0x7f,
0x68,0x50,0x00,0x01,0x57,0x00,0x03,0x54,0x00,0x85,0x5c,0x54,0x7f,0x00,0x50,0x7f,
0x00,0x4d,0x7f,0x4c,0x4d,0x00,0x01,0x54,0x00,0x01,0x50,0x00,0x2a,0x4d,0x7f,0x00,
0x54,0x7f,0x00,0x50,0x7f,0x5a,0x4d,0x00,0x07,0x54,0x00,0x0b,0x50,0x00,0x85,0x5c,
0x55,0x7f,0x00,0x4e,0x7f,0x00,0x52,0x7f,0x4a,0x55,0x00,0x09,0x52,0x00,0x04,0x4e,
0x00,0x21,0x55,0x7f,0x00,0x52,0x7f,0x00,0x4e,0x7f,0x63,0x4e,0x00,0x04,0x52,0x00,
0x13,0x55,0x00,0x85,0x4e,0x59,0x7f,0x00,0x50,0x7f,0x00,0x55,0x7f,0x3d,0x59,0x00,
0x0e,0x55,0x00,0x11,0x50,0x00,0x1c,0x50,0x7f,0x00,0x59,0x7f,0x00,0x55,0x7f,0x51,
0x59,0x00,0x15,0x50,0x00,0x06,0x55,0x00,0x85,0x5c,0x50,0x7f,0x00,0x57,0x7f,0x00,
0x54,0x7f,0x58,0x50,0x00,0x05,0x57,0x00,0x08,0x54,0x00,0x13,0x57,0x7f,0x00,0x50,
0x7f,0x00,0x54,0x7f,0x61,0x54,0x00,0x02,0x50,0x00,0x01,0x57,0x00,0x85,0x64,0x55,
0x7f,0x00,0x4d,0x7f,0x00,0x52,0x7f,0x53,0x55,0x00,0x0c,0x52,0x00,0x08,0x4d,0x00,
0x11,0x55,0x7f,0x00,0x4d,0x7f,0x00,0x52,0x7f,0x62,0x55,0x00,0x0f,0x4d,0x00,0x01,
0x52,0x00,0x85,0x56,0x4e,0x7f,0x00,0x52,0x7f,0x00,0x55,0x7f,0x5f,0x52,0x00,0x05,
0x4e,0x00,0x14,0x52,0x7f,0x00,0x4e,0x7f,0x6a,0x4e,0x00,0x05,0x52,0x00,0x05,0x55,
0x00,0x85,0x54,0x59,0x7f,0x00,0x50,0x7f,0x00,0x55,0x7f,0x41,0x59,0x00,0x14,0x55,
0x00,0x23,0x59,0x7f,0x00,0x55,0x7f,0x5e,0x59,0x00,0x09,0x50,0x00,0x04,0x55,0x00,
0x85,0x5d,0x50,0x7f,0x00,0x57,0x7f,0x00,0x54,0x7f,0x58,0x57,0x00,0x01,0x50,0x00,
0x1f,0x57,0x7f,0x00,0x50,0x7f,0x5d,0x57,0x00,0x06,0x54,0x00,0x06,0x50,0x00,0x85,
0x5f,0x54,0x7f,0x00,0x4d,0x7f,0x00,0x50,0x7f,0x4a,0x4d,0x00,0x01,0x50,0x00,0x02,
0x54,0x00,0x2b,0x54,0x7f,0x00,0x4d,0x7f,0x00,0x50,0x7f,0x62,0x4d,0x00,0x02,0x54,
0x00,0x04,0x50,0x00,0x85,0x60,0x52,0x7f,0x00,0x55,0x7f,0x00,0x4e,0x7f,0x4e,0x55,
0x00,0x05,0x52,0x00,0x25,0x55,0x7f,0x00,0x52,0x7f,0x68,0x55,0x00,0x02,0x52,0x00,
0x0a,0x4e,0x00,0xfd,0x54,0x59,0x7f,0x00,0x50,0x7f,0x00,0x55,0x7f,0x4b,0x59,0x00,
0x1c,0x50,0x00,0x11,0x59,0x7f,0x00,0x50,0x7f,0x55,0x59,0x00,0x08,0x50,0x00,0x06,
0x55,0x00,0x85,0x65,0x57,0x7f,0x00,0x50,0x7f,0x00,0x54,0x7f,0x53,0x57,0x00,0x25,
0x57,0x7f,0x5b,0x50,0x00,0x02,0x54,0x00,0x0c,0x57,0x00,0x85,0x5f,0x4d,0x7f,0x00,
0x55,0x7f,0x00,0x52,0x7f,0x5e,0x4d,0x00,0x01,0x52,0x00,0x09,0x55,0x00,0x10,0x55,
0x7f,0x00,0x4d,0x7f,0x00,0x52,0x7f,0x5c,0x4d,0x00,0x01,0x55,0x00,0x0b,0x52,0x00,
0x85,0x60,0x52,0x7f,0x00,0x55,0x7f,0x00,0x4e,0x7f,0x51,0x52,0x00,0x03,0x55,0x00,
0x06,0x4e,0x00,0x1e,0x55,0x7f,0x00,0x4e,0x7f,0x00,0x52,0x7f,0x5d,0x55,0x00,0x01,
0x4e,0x00,0x09,0x52,0x00,0x85,0x61,0x59,0x7f,0x00,0x55,0x7f,0x00,0x50,0x7f,0x49,
0x59,0x00,0x13,0x55,0x00,0x1c,0x59,0x7f,0x00,0x55,0x7f,0x58,0x59,0x00,0x13,0x50,
0x00,0x01,0x55,0x00,0x85,0x5c,0x57,0x7f,0x00,0x50,0x7f,0x00,0x54,0x7f,0x56,0x57,
0x00,0x11,0x54,0x00,0x01,0x50,0x00,0x10,0x57,0x7f,0x00,0x50,0x7f,0x00,0x54,0x7f,
0x63,0x57,0x00,0x02,0x54,0x00,0x03,0x50,0x00,0x85,0x60,0x54,0x7f,0x00,0x4d,0x7f,
0x00,0x50,0x7f,0x5b,0x54,0x00,0x0b,0x50,0x00,0x01,0x4d,0x00,0x11,0x54,0x7f,0x00,
0x4d,0x7f,0x00,0x50,0x7f,0x63,0x54,0x00,0x02,0x4d,0x00,0x02,0x50,0x00,0x85,0x61,
0x55,0x7f,0x00,0x52,0x7f,0x00,0x4e,0x7f,0x4b,0x55,0x00,0x17,0x52,0x00,0x16,0x52,
0x7f,0x00,0x55,0x7f,0x50,0x4e,0x00,0x0c,0x55,0x00,0x06,0x52,0x00,0x85,0x66,0x59,
0x7f,0x00,0x55,0x7f,0x00,0x50,0x7f,0x4a,0x59,0x00,0x09,0x55,0x00,0x25,0x59,0x7f,
0x00,0x55,0x7f,0x60,0x59,0x00,0x09,0x50,0x00,0x02,0x55,0x00,0x85,0x5d,0x57,0x7f,
0x00,0x50,0x7f,0x00,0x54,0x7f,0x5f,0x57,0x00,0x0f,0x54,0x00,0x0a,0x57,0x7f,0x00,
0x54,0x7f,0x57,0x54,0x00,0x04,0x57,0x00,0x0b,0x50,0x00,0x85,0x62,0x55,0x7f,0x00,
0x4d,0x7f,0x00,0x52,0x7f,0x4e,0x55,0x00,0x05,0x52,0x00,0x25,0x55,0x7f,0x00,0x52,
0x7f,0x56,0x4d,0x00,0x05,0x55,0x00,0x10,0x52,0x00,0x85,0x5d,0x55,0x7f,0x00,0x52,
0x7f,0x00,0x4e,0x7f,0x4f,0x52,0x00,0x00,0x55,0x00,0x07,0x4e,0x00,0x22,0x55,0x7f,
0x00,0x4e,0x7f,0x00,0x52,0x7f,0x6a,0x4e,0x00,0x05,0x52,0x00,0x03,0x55,0x00,0x85,
0x56,0x59,0x7f,0x00,0x55,0x7f,0x00,0x50,0x7f,0x55,0x59,0x00,0x07,0x55,0x00,0x1c,
0x59,0x7f,0x00,0x55,0x7f,0x66,0x59,0x00,0x01,0x55,0x00,0x0e,0x50,0x00,0x85,0x53,
0x57,0x7f,0x00,0x50,0x7f,0x00,0x54,0x7f,0x4c,0x57,0x00,0x13,0x50,0x00,0x04,0x54,
0x00,0x15,0x57,0x7f,0x00,0x50,0x7f,0x00,0x54,0x7f,0x5c,0x57,0x00,0x05,0x54,0x00,
0x00,0x50,0x00,0x85,0x67,0x54,0x7f,0x00,0x4d,0x7f,0x00,0x50,0x7f,0x55,0x54,0x00,
0x05,0x50,0x00,0x04,0x4d,0x00,0x1a,0x54,0x7f,0x00,0x4d,0x7f,0x00,0x50,0x7f,0x5e,
0x4d,0x00,0x07,0x50,0x00,0x02,0x54,0x00,0x85,0x61,0x52,0x7f,0x00,0x4e,0x7f,0x00,
0x55,0x7f,0x4a,0x55,0x00,0x13,0x52,0x00,0x1b,0x55,0x7f,0x00,0x52,0x7f,0x52,0x4e,
0x00,0x16,0x52,0x00,0x07,0x55,0x00,0x85,0x59,0x59,0x7f,0x00,0x50,0x7f,0x00,0x55,
0x7f,0x3d,0x59,0x00,0x10,0x55,0x00,0x0f,0x50,0x00,0x1c,0x59,0x7f,0x00,0x55,0x7f,
0x00,0x50,0x7f,0x5d,0x59,0x00,0x0f,0x55,0x00,0x07,0x50,0x00,0x85,0x55,0x57,0x7f,
0x00,0x50,0x7f,0x00,0x54,0x7f,0x5d,0x57,0x00,0x0a,0x54,0x00,0x07,0x50,0x00,0x0a,
0x57,0x7f,0x00,0x50,0x7f,0x00,0x54,0x7f,0x66,0x54,0x00,0x04,0x57,0x00,0x04,0x50,
0x00,0x85,0x5a,0x4d,0x7f,0x00,0x52,0x7f,0x00,0x55,0x7f,0x5b,0x4d,0x00,0x05,0x52,
0x00,0x05,0x55,0x00,0x13,0x55,0x7f,0x00,0x4d,0x7f,0x00,0x52,0x7f,0x5a,0x55,0x00,
0x03,0x4d,0x00,0x0a,0x52,0x00,0x85,0x61,0x55,0x7f,0x00,0x4e,0x7f,0x00,0x52,0x7f,
0x59,0x55,0x00,0x1f,0x55,0x7f,0x4f,0x4e,0x00,0x0e,0x52,0x00,0x07,0x55,0x00,0x85,
0x64,0x59,0x7b,0x00,0x50,0x7b,0x00,0x55,0x7b,0x39,0x59,0x00,0x21,0x55,0x00,0x05,
0x50,0x00,0x19,0x59,0x7f,0x00,0x50,0x7f,0x00,0x55,0x7f,0x54,0x59,0x00,0x10,0x50,
0x00,0x03,0x55,0x00,0x85,0x61,0x57,0x7f,0x00,0x50,0x7f,0x00,0x54,0x7f,0x5f,0x57,
0x00,0x19,0x57,0x7f,0x56,0x57,0x00,0x07,0x54,0x00,0x03,0x50,0x00,0x85,0x68,0x54,
0x7f,0x00,0x4d,0x7f,0x00,0x50,0x7f,0x50,0x54,0x00,0x01,0x4d,0x00,0x0c,0x50,0x00,
0x1b,0x54,0x7f,0x00,0x4d,0x7f,0x00,0x50,0x7f,0x61,0x4d,0x00,0x0b,0x54,0x00,0x05,
0x50,0x00,0x85,0x57,0x55,0x7f,0x00,0x4e,0x7f,0x00,0x52,0x7f,0x4f,0x55,0x00,0x0c,
0x52,0x00,0x1d,0x55,0x7f,0x00,0x52,0x7f,0x4d,0x55,0x00,0x0a,0x4e,0x00,0x0d,0x52,
0x00,0x85,0x64,0x59,0x7f,0x00,0x55,0x7f,0x00,0x50,0x7f,0x46,0x59,0x00,0x11,0x55,
0x00,0x21,0x59,0x7f,0x00,0x55,0x7f,0x59,0x59,0x00,0x08,0x50,0x00,0x0a,0x55,0x00,
0x85,0x5d,0x57,0x7f,0x00,0x54,0x7f,0x00,0x50,0x7f,0x58,0x57,0x00,0x20,0x57,0x7f,
0x66,0x57,0x00,0x00,0x54,0x00,0x06,0x50,0x00,0x85,0x5c,0x55,0x7f,0x00,0x4d,0x7f,
0x00,0x52,0x7f,0x4c,0x4d,0x00,0x0e,0x52,0x00,0x00,0x55,0x00,0x1e,0x55,0x7f,0x00,
0x4d,0x7f,0x00,0x52,0x7f,0x5b,0x4d,0x00,0x0c,0x55,0x00,0x04,0x52,0x00,0x85,0x5d,
0x55,0x7f,0x00,0x4e,0x7f,0x00,0x52,0x7f,0x66,0x55,0x00,0x07,0x52,0x00,0x0b,0x55,
0x7f,0x00,0x52,0x7f,0x65,0x4e,0x00,0x06,0x52,0x00,0x14,0x55,0x00,0x85,0x49,0x59,
0x7f,0x00,0x55,0x7f,0x00,0x50,0x7f,0x35,0x59,0x00,0x1f,0x55,0x00,0x24,0x59,0x7f,
0x00,0x55,0x7f,0x5e,0x59,0x00,0x10,0x55,0x00,0x09,0x50,0x00,0x85,0x51,0x57,0x7f,
0x00,0x54,0x7f,0x00,0x50,0x7f,0x59,0x57,0x00,0x1f,0x57,0x7f,0x6d,0x57,0x00,0x06,
0x54,0x00,0x09,0x50,0x00,0x85,0x4c,0x54,0x7f,0x00,0x4d,0x7f,0x00,0x50,0x7f,0x4d,
0x54,0x00,0x01,0x4d,0x00,0x04,0x50,0x00,0x26,0x54,0x7f,0x00,0x4d,0x7f,0x00,0x50,
0x7f,0x5e,0x4d,0x00,0x04,0x50,0x00,0x02,0x54,0x00,0x85,0x64,0x55,0x7f,0x00,0x52,
0x7f,0x00,0x4e,0x7f,0x55,0x55,0x00,0x04,0x52,0x00,0x1f,0x55,0x7f,0x00,0x52,0x7f,
0x51,0x55,0x00,0x01,0x52,0x00,0x04,0x4e,0x00,0x00,0xff,0x2f,0x00,0x4d,0x54,0x72,
0x6b,0x00,0x00,0x10,0xba,0x00,0xff,0x21,0x01,0x00,0x00,0xff,0x03,0x04,0x74,0x6f,
0x6d,0x73,0x00,0xc9,0x10,0x00,0xb9,0x07,0x7f,0x82,0xa4,0x40,0x99,0x2b,0x49,0x40,
0x2b,0x00,0x38,0x2b,0x4a,0x3c,0x2b,0x00,0x3c,0x2b,0x4d,0x3c,0x2b,0x00,0x3c,0x2b,
0x50,0x32,0x2b,0x00,0x46,0x2b,0x53,0x32,0x2b,0x00,0x46,0x2b,0x57,0x30,0x2b,0x00,
0x48,0x2b,0x58,0x2f,0x2b,0x00,0x49,0x2b,0x5c,0x2b,0x2b,0x00,0x4d,0x2b,0x5f,0x28,
0x2b,0x00,0x50,0x2b,0x63,0x1f,0x2b,0x00,0x59,0x2b,0x67,0x26,0x2b,0x00,0x52,0x2b,
0x6a,0x1b,0x2b,0x00,0x5d,0x2b,0x6d,0x24,0x2b,0x00,0x54,0x2b,0x6e,0x25,0x2b,0x00,
0x53,0x2b,0x70,0x26,0x2b,0x00,0x52,0x2b,0x72,0x25,0x2b,0x00,0x81,0x4b,0x45,0x7f,
0x02,0x45,0x00,0x81,0x6e,0x45,0x7f,0x03,0x45,0x00,0x81,0x6d,0x45,0x7f,0x06,0x45,
0x00,0x72,0x2b,0x7f,0x00,0x2f,0x7f,0x03,0x2f,0x00,0x00,0x2b,0x00,0x75,0x45,0x7f,
0x02,0x45,0x00,0x81,0x6e,0x45,0x7f,0x03,0x45,0x00,0x81,0x6d,0x45,0x7f,0x02,0x45,
0x00,0x81,0x6e,0x30,0x7f,0x00,0x30,0x7f,0x00,0x2f,0x7f,0x00,0x45,0x7f,0x06,0x45,
0x00,0x00,0x2f,0x00,0x01,0x30,0x00,0x00,0x30,0x00,0x81,0x69,0x2d,0x7f,0x00,0x2d,
0x7f,0x00,0x2b,0x7f,0x00,0x45,0x7f,0x06,0x45,0x00,0x00,0x2b,0x00,0x00,0x2d,0x00,
0x01,0x2d,0x00,0x81,0x69,0x45,0x7f,0x02,0x45,0x00,0x81,0x6e,0x45,0x7f,0x02,0x45,
0x00,0x81,0x6e,0x45,0x7f,0x05,0x45,0x00,0x73,0x2b,0x7f,0x00,0x2f,0x7f,0x04,0x2f,
0x00,0x00,0x2b,0x00,0x74,0x45,0x7f,0x02,0x45,0x00,0x81,0x6e,0x45,0x7f,0x03,0x45,
0x00,0x81,0x6d,0x45,0x7f,0x02,0x45,0x00,0x81,0x6e,0x30,0x7f,0x00,0x30,0x7f,0x00,
0x2f,0x7f,0x00,0x45,0x7f,0x06,0x45,0x00,0x00,0x2f,0x00,0x01,0x30,0x00,0x01,0x30,
0x00,0x81,0x68,0x2d,0x7f,0x00,0x2d,0x7f,0x00,0x2b,0x7f,0x00,0x45,0x7f,0x05,0x45,
0x00,0x01,0x2b,0x00,0x00,0x2d,0x00,0x01,0x2d,0x00,0x81,0x69,0x45,0x7f,0x03,0x45,
0x00,0x81,0x6d,0x45,0x7f,0x03,0x45,0x00,0x81,0x6d,0x45,0x7f,0x05,0x45,0x00,0x73,
0x2b,0x7f,0x00,0x2f,0x7f,0x03,0x2f,0x00,0x01,0x2b,0x00,0x74,0x45,0x7f,0x02,0x45,
0x00,0x81,0x6e,0x45,0x7f,0x03,0x45,0x00,0x81,0x6d,0x45,0x7f,0x02,0x45,0x00,0x81,
0x6e,0x30,0x7f,0x00,0x30,0x7f,0x00,0x2f,0x7f,0x00,0x45,0x7f,0x05,0x45,0x00,0x00,
0x2f,0x00,0x01,0x30,0x00,0x01,0x30,0x00,0x81,0x69,0x2d,0x7f,0x00,0x2d,0x7f,0x00,
0x2b,0x7f,0x00,0x45,0x7f,0x05,0x45,0x00,0x00,0x2d,0x00,0x01,0x2b,0x00,0x01,0x2d,
0x00,0x81,0x69,0x45,0x7f,0x02,0x45,0x00,0x81,0x6e,0x45,0x7f,0x03,0x45,0x00,0x81,
0x6d,0x45,0x7f,0x05,0x45,0x00,0x73,0x2b,0x7f,0x00,0x2f,0x7f,0x03,0x2f,0x00,0x01,
0x2b,0x00,0x74,0x45,0x7f,0x02,0x45,0x00,0x81,0x6e,0x45,0x7f,0x02,0x45,0x00,0x81,
0x6e,0x45,0x7f,0x03,0x45,0x00,0x81,0x6d,0x30,0x7f,0x00,0x30,0x7f,0x00,0x2f,0x7f,
0x00,0x45,0x7f,0x05,0x45,0x00,0x01,0x2f,0x00,0x00,0x30,0x00,0x01,0x30,0x00,0x81,
0x69,0x2d,0x7f,0x00,0x2d,0x7f,0x00,0x2b,0x7f,0x00,0x45,0x7f,0x05,0x45,0x00,0x01,
0x2b,0x00,0x00,0x2d,0x00,0x01,0x2d,0x00,0x81,0x69,0x45,0x7f,0x02,0x45,0x00,0x81,
0x6e,0x45,0x7f,0x03,0x45,0x00,0x81,0x6d,0x45,0x7f,0x06,0x45,0x00,0x72,0x2b,0x7f,
0x00,0x2f,0x7f,0x03,0x2f,0x00,0x00,0x2b,0x00,0x75,0x45,0x7f,0x02,0x45,0x00,0x81,
0x6e,0x45,0x7f,0x03,0x45,0x00,0x81,0x6d,0x45,0x7f,0x02,0x45,0x00,0x81,0x6e,0x30,
0x7f,0x00,0x30,0x7f,0x00,0x2f,0x7f,0x00,0x45,0x7f,0x06,0x45,0x00,0x00,0x2f,0x00,
0x01,0x30,0x00,0x00,0x30,0x00,0x81,0x69,0x2d,0x7f,0x00,0x2d,0x7f,0x00,0x2b,0x7f,
0x00,0x45,0x7f,0x06,0x45,0x00,0x00,0x2b,0x00,0x00,0x2d,0x00,0x01,0x2d,0x00,0x81,
0x69,0x45,0x7f,0x02,0x45,0x00,0x81,0x6e,0x45,0x7f,0x02,0x45,0x00,0x81,0x6e,0x45,
0x7f,0x05,0x45,0x00,0x73,0x2b,0x7f,0x00,0x2f,0x7f,0x04,0x2f,0x00,0x00,0x2b,0x00,
0x74,0x45,0x7f,0x02,0x45,0x00,0x81,0x6e,0x45,0x7f,0x03,0x45,0x00,0x81,0x6d,0x45,
0x7f,0x02,0x45,0x00,0x81,0x6e,0x30,0x7f,0x00,0x30,0x7f,0x00,0x2f,0x7f,0x00,0x45,
0x7f,0x06,0x45,0x00,0x00,0x2f,0x00,0x01,0x30,0x00,0x01,0x30,0x00,0x81,0x68,0x2d,
0x7f,0x00,0x2d,0x7f,0x00,0x2b,0x7f,0x00,0x45,0x7f,0x05,0x45,0x00,0x01,0x2b,0x00,
0x00,0x2d,0x00,0x01,0x2d,0x00,0x81,0x69,0x45,0x7f,0x03,0x45,0x00,0x81,0x6d,0x45,
0x7f,0x03,0x45,0x00,0x81,0x6d,0x45,0x7f,0x05,0x45,0x00,0x73,0x2b,0x7f,0x00,0x2f,
0x7f,0x03,0x2f,0x00,0x01,0x2b,0x00,0x74,0x45,0x7f,0x02,0x45,0x00,0x81,0x6e,0x45,
0x7f,0x03,0x45,0x00,0x81,0x6d,0x45,0x7f,0x02,0x45,0x00,0x81,0x6e,0x30,0x7f,0x00,
0x30,0x7f,0x00,0x2f,0x7f,0x00,0x45,0x7f,0x05,0x45,0x00,0x00,0x2f,0x00,0x01,0x30,
0x00,0x01,0x30,0x00,0x81,0x69,0x2d,0x7f,0x00,0x2d,0x7f,0x00,0x2b,0x7f,0x00,0x45,
0x7f,0x05,0x45,0x00,0x00,0x2d,0x00,0x01,0x2b,0x00,0x01,0x2d,0x00,0x90,0x69,0x45,
0x7f,0x02,0x45,0x00,0x81,0x6e,0x45,0x7f,0x03,0x45,0x00,0x81,0x6d,0x45,0x7f,0x05,
0x45,0x00,0x73,0x2b,0x7f,0x00,0x2f,0x7f,0x03,0x2f,0x00,0x01,0x2b,0x00,0x74,0x45,
0x7f,0x02,0x45,0x00,0x81,0x6e,0x45,0x7f,0x02,0x45,0x00,0x81,0x6e,0x45,0x7f,0x03,
0x45,0x00,0x81,0x6d,0x30,0x7f,0x00,0x30,0x7f,0x00,0x2f,0x7f,0x00,0x45,0x7f,0x05,
0x45,0x00,0x01,0x2f,0x00,0x00,0x30,0x00,0x01,0x30,0x00,0x81,0x69,0x2d,0x7f,0x00,
0x2d,0x7f,0x00,0x2b,0x7f,0x00,0x45,0x7f,0x05,0x45,0x00,0x01,0x2b,0x00,0x00,0x2d,
0x00,0x01,0x2d,0x00,0x81,0x69,0x45,0x7f,0x02,0x45,0x00,0x81,0x6e,0x45,0x7f,0x03,
0x45,0x00,0x81,0x6d,0x45,0x7f,0x06,0x45,0x00,0x72,0x2b,0x7f,0x00,0x2f,0x7f,0x03,
0x2f,0x00,0x00,0x2b,0x00,0x75,0x45,0x7f,0x02,0x45,0x00,0x81,0x6e,0x45,0x7f,0x03,
0x45,0x00,0x81,0x6d,0x45,0x7f,0x02,0x45,0x00,0x81,0x6e,0x30,0x7f,0x00,0x30,0x7f,
0x00,0x2f,0x7f,0x00,0x45,0x7f,0x06,0x45,0x00,0x00,0x2f,0x00,0x01,0x30,0x00,0x00,
0x30,0x00,0x81,0x69,0x2d,0x7f,0x00,0x2d,0x7f,0x00,0x2b,0x7f,0x00,0x45,0x7f,0x06,
0x45,0x00,0x00,0x2b,0x00,0x00,0x2d,0x00,0x01,0x2d,0x00,0x81,0x69,0x45,0x7f,0x02,
0x45,0x00,0x81,0x6e,0x45,0x7f,0x03,0x45,0x00,0x81,0x6d,0x45,0x7f,0x05,0x45,0x00,
0x73,0x2b,0x7f,0x00,0x2f,0x7f,0x03,0x2f,0x00,0x01,0x2b,0x00,0x74,0x45,0x7f,0x02,
0x45,0x00,0x81,0x6e,0x45,0x7f,0x02,0x45,0x00,0x81,0x6e,0x45,0x7f,0x03,0x45,0x00,
0x81,0x6d,0x30,0x7f,0x00,0x30,0x7f,0x00,0x2f,0x7f,0x00,0x45,0x7f,0x05,0x45,0x00,
0x01,0x2f,0x00,0x00,0x30,0x00,0x01,0x30,0x00,0x81,0x69,0x2d,0x7f,0x00,0x2d,0x7f,
0x00,0x2b,0x7f,0x00,0x45,0x7f,0x05,0x45,0x00,0x01,0x2b,0x00,0x00,0x2d,0x00,0x01,
0x2d,0x00,0x81,0x69,0x45,0x7f,0x02,0x45,0x00,0x81,0x6e,0x45,0x7f,0x03,0x45,0x00,
0x81,0x6d,0x45,0x7f,0x06,0x45,0x00,0x72,0x2b,0x7f,0x00,0x2f,0x7f,0x03,0x2f,0x00,
0x00,0x2b,0x00,0x75,0x45,0x7f,0x02,0x45,0x00,0x81,0x6e,0x45,0x7f,0x03,0x45,0x00,
0x81,0x6d,0x45,0x7f,0x02,0x45,0x00,0x81,0x6e,0x30,0x7f,0x00,0x30,0x7f,0x00,0x2f,
0x7f,0x00,0x45,0x7f,0x06,0x45,0x00,0x00,0x2f,0x00,0x01,0x30,0x00,0x00,0x30,0x00,
0x81,0x69,0x2d,0x7f,0x00,0x2d,0x7f,0x00,0x2b,0x7f,0x00,0x45,0x7f,0x06,0x45,0x00,
0x00,0x2b,0x00,0x00,0x2d,0x00,0x01,0x2d,0x00,0x81,0x69,0x45,0x7f,0x02,0x45,0x00,
0x81,0x6e,0x45,0x7f,0x02,0x45,0x00,0x81,0x6e,0x45,0x7f,0x05,0x45,0x00,0x73,0x2b,
0x7f,0x00,0x2f,0x7f,0x04,0x2f,0x00,0x00,0x2b,0x00,0x74,0x45,0x7f,0x02,0x45,0x00,
0x81,0x6e,0x45,0x7f,0x03,0x45,0x00,0x81,0x6d,0x45,0x7f,0x02,0x45,0x00,0x81,0x6e,
0x30,0x7f,0x00,0x30,0x7f,0x00,0x2f,0x7f,0x00,0x45,0x7f,0x06,0x45,0x00,0x00,0x2f,
0x00,0x01,0x30,0x00,0x01,0x30,0x00,0x81,0x68,0x2d,0x7f,0x00,0x2d,0x7f,0x00,0x2b,
0x7f,0x00,0x45,0x7f,0x05,0x45,0x00,0x01,0x2b,0x00,0x00,0x2d,0x00,0x01,0x2d,0x00,
0x81,0x69,0x45,0x7f,0x03,0x45,0x00,0x81,0x6d,0x45,0x7f,0x03,0x45,0x00,0x81,0x6d,
0x45,0x7f,0x05,0x45,0x00,0x73,0x2b,0x7f,0x00,0x2f,0x7f,0x03,0x2f,0x00,0x01,0x2b,
0x00,0x74,0x45,0x7f,0x02,0x45,0x00,0x81,0x6e,0x45,0x7f,0x03,0x45,0x00,0x81,0x6d,
0x45,0x7f,0x02,0x45,0x00,0x81,0x6e,0x30,0x7f,0x00,0x30,0x7f,0x00,0x2f,0x7f,0x00,
0x45,0x7f,0x05,0x45,0x00,0x00,0x2f,0x00,0x01,0x30,0x00,0x01,0x30,0x00,0x81,0x69,
0x2d,0x7f,0x00,0x2d,0x7f,0x00,0x2b,0x7f,0x00,0x45,0x7f,0x05,0x45,0x00,0x00,0x2d,
0x00,0x01,0x2b,0x00,0x01,0x2d,0x00,0x81,0x69,0x45,0x7f,0x02,0x45,0x00,0x81,0x6e,
0x45,0x7f,0x03,0x45,0x00,0x81,0x6d,0x45,0x7f,0x05,0x45,0x00,0x73,0x2b,0x7f,0x00,
0x2f,0x7f,0x03,0x2f,0x00,0x01,0x2b,0x00,0x74,0x45,0x7f,0x02,0x45,0x00,0x81,0x6e,
0x45,0x7f,0x02,0x45,0x00,0x81,0x6e,0x45,0x7f,0x03,0x45,0x00,0x81,0x6d,0x30,0x7f,
0x00,0x30,0x7f,0x00,0x2f,0x7f,0x00,0x45,0x7f,0x05,0x45,0x00,0x01,0x2f,0x00,0x00,
0x30,0x00,0x01,0x30,0x00,0x81,0x69,0x2d,0x7f,0x00,0x2d,0x7f,0x00,0x2b,0x7f,0x00,
0x45,0x7f,0x05,0x45,0x00,0x01,0x2b,0x00,0x00,0x2d,0x00,0x01,0x2d,0x00,0x81,0x69,
0x45,0x7f,0x02,0x45,0x00,0x81,0x6e,0x45,0x7f,0x03,0x45,0x00,0x81,0x6d,0x45,0x7f,
0x06,0x45,0x00,0x72,0x2b,0x7f,0x00,0x2f,0x7f,0x03,0x2f,0x00,0x00,0x2b,0x00,0x75,
0x45,0x7f,0x02,0x45,0x00,0x81,0x6e,0x45,0x7f,0x03,0x45,0x00,0x81,0x6d,0x45,0x7f,
0x02,0x45,0x00,0x81,0x6e,0x30,0x7f,0x00,0x30,0x7f,0x00,0x2f,0x7f,0x00,0x45,0x7f,
0x06,0x45,0x00,0x00,0x2f,0x00,0x01,0x30,0x00,0x00,0x30,0x00,0x81,0x69,0x2d,0x7f,
0x00,0x2d,0x7f,0x00,0x2b,0x7f,0x00,0x45,0x7f,0x06,0x45,0x00,0x00,0x2b,0x00,0x00,
0x2d,0x00,0x01,0x2d,0x00,0x81,0x69,0x45,0x7f,0x02,0x45,0x00,0x81,0x6e,0x45,0x7f,
0x02,0x45,0x00,0x81,0x6e,0x45,0x7f,0x05,0x45,0x00,0x73,0x2b,0x7f,0x00,0x2f,0x7f,
0x04,0x2f,0x00,0x00,0x2b,0x00,0x74,0x45,0x7f,0x02,0x45,0x00,0x81,0x6e,0x45,0x7f,
0x03,0x45,0x00,0x81,0x6d,0x45,0x7f,0x02,0x45,0x00,0x81,0x6e,0x30,0x7f,0x00,0x30,
0x7f,0x00,0x2f,0x7f,0x00,0x45,0x7f,0x06,0x45,0x00,0x00,0x2f,0x00,0x01,0x30,0x00,
0x01,0x30,0x00,0x81,0x68,0x2d,0x7f,0x00,0x2d,0x7f,0x00,0x2b,0x7f,0x00,0x45,0x7f,
0x05,0x45,0x00,0x01,0x2b,0x00,0x00,0x2d,0x00,0x01,0x2d,0x00,0x81,0x69,0x45,0x7f,
0x03,0x45,0x00,0x81,0x6d,0x45,0x7f,0x03,0x45,0x00,0x81,0x6d,0x45,0x7f,0x05,0x45,
0x00,0x73,0x2b,0x7f,0x00,0x2f,0x7f,0x03,0x2f,0x00,0x01,0x2b,0x00,0x74,0x45,0x7f,
0x02,0x45,0x00,0x81,0x6e,0x2d,0x7f,0x00,0x45,0x7f,0x03,0x45,0x00,0x10,0x2d,0x00,
0x65,0x2d,0x7f,0x19,0x2d,0x00,0x5f,0x2d,0x7f,0x00,0x45,0x7f,0x02,0x45,0x00,0x1d,
0x2d,0x00,0x59,0x2d,0x7f,0x1d,0x2d,0x00,0x5b,0x2d,0x7f,0x00,0x30,0x7f,0x00,0x30,
0x7f,0x00,0x2f,0x7f,0x00,0x45,0x7f,0x05,0x45,0x00,0x00,0x2f,0x00,0x01,0x30,0x00,
0x01,0x30,0x00,0x19,0x2d,0x00,0x58,0x2d,0x7f,0x18,0x2d,0x00,0x60,0x2d,0x7f,0x00,
0x2d,0x7f,0x00,0x2d,0x7f,0x00,0x2b,0x7f,0x00,0x45,0x7f,0x05,0x45,0x00,0x00,0x2d,
0x00,0x01,0x2b,0x00,0x01,0x2d,0x00,0x19,0x2d,0x00,0x81,0x50,0x45,0x7f,0x02,0x45,
0x00,0x81,0x6e,0x45,0x7f,0x03,0x45,0x00,0x81,0x6d,0x45,0x7f,0x06,0x45,0x00,0x72,
0x2b,0x7f,0x00,0x2f,0x7f,0x03,0x2f,0x00,0x00,0x2b,0x00,0x75,0x45,0x7f,0x02,0x45,
0x00,0x81,0x6e,0x45,0x7f,0x03,0x45,0x00,0x81,0x6d,0x45,0x7f,0x02,0x45,0x00,0x81,
0x6e,0x30,0x7f,0x00,0x30,0x7f,0x00,0x2f,0x7f,0x00,0x45,0x7f,0x06,0x45,0x00,0x00,
0x2f,0x00,0x01,0x30,0x00,0x00,0x30,0x00,0x81,0x69,0x2d,0x7f,0x00,0x2d,0x7f,0x00,
0x2b,0x7f,0x00,0x45,0x7f,0x06,0x45,0x00,0x00,0x2b,0x00,0x00,0x2d,0x00,0x01,0x2d,
0x00,0x81,0x69,0x45,0x7f,0x02,0x45,0x00,0x81,0x6e,0x45,0x7f,0x02,0x45,0x00,0x81,
0x6e,0x45,0x7f,0x05,0x45,0x00,0x73,0x2b,0x7f,0x00,0x2f,0x7f,0x04,0x2f,0x00,0x00,
0x2b,0x00,0x74,0x45,0x7f,0x02,0x45,0x00,0x81,0x6e,0x45,0x7f,0x03,0x45,0x00,0x81,
0x6d,0x45,0x7f,0x02,0x45,0x00,0x81,0x6e,0x30,0x7f,0x00,0x30,0x7f,0x00,0x2f,0x7f,
0x00,0x45,0x7f,0x06,0x45,0x00,0x00,0x2f,0x00,0x01,0x30,0x00,0x01,0x30,0x00,0x81,
0x68,0x2d,0x7f,0x00,0x2d,0x7f,0x00,0x2b,0x7f,0x00,0x45,0x7f,0x05,0x45,0x00,0x01,
0x2b,0x00,0x00,0x2d,0x00,0x01,0x2d,0x00,0x81,0x69,0x45,0x7f,0x03,0x45,0x00,0x81,
0x6d,0x45,0x7f,0x03,0x45,0x00,0x81,0x6d,0x45,0x7f,0x05,0x45,0x00,0x73,0x2b,0x7f,
0x00,0x2f,0x7f,0x03,0x2f,0x00,0x01,0x2b,0x00,0x74,0x45,0x7f,0x02,0x45,0x00,0x81,
0x6e,0x45,0x7f,0x03,0x45,0x00,0x81,0x6d,0x45,0x7f,0x02,0x45,0x00,0x81,0x6e,0x30,
0x7f,0x00,0x30,0x7f,0x00,0x2f,0x7f,0x00,0x45,0x7f,0x05,0x45,0x00,0x00,0x2f,0x00,
0x01,0x30,0x00,0x01,0x30,0x00,0x81,0x69,0x2d,0x7f,0x00,0x2d,0x7f,0x00,0x2b,0x7f,
0x00,0x45,0x7f,0x05,0x45,0x00,0x00,0x2d,0x00,0x01,0x2b,0x00,0x01,0x2d,0x00,0x81,
0x69,0x45,0x7f,0x02,0x45,0x00,0x81,0x6e,0x45,0x7f,0x03,0x45,0x00,0x81,0x6d,0x45,
0x7f,0x05,0x45,0x00,0x73,0x2b,0x7f,0x00,0x2f,0x7f,0x03,0x2f,0x00,0x01,0x2b,0x00,
0x74,0x45,0x7f,0x02,0x45,0x00,0x81,0x6e,0x45,0x7f,0x02,0x45,0x00,0x81,0x6e,0x45,
0x7f,0x03,0x45,0x00,0x81,0x6d,0x30,0x7f,0x00,0x30,0x7f,0x00,0x2f,0x7f,0x00,0x45,
0x7f,0x05,0x45,0x00,0x01,0x2f,0x00,0x00,0x30,0x00,0x01,0x30,0x00,0x81,0x69,0x2d,
0x7f,0x00,0x2d,0x7f,0x00,0x2b,0x7f,0x00,0x45,0x7f,0x05,0x45,0x00,0x01,0x2b,0x00,
0x00,0x2d,0x00,0x01,0x2d,0x00,0x81,0x69,0x45,0x7f,0x02,0x45,0x00,0x81,0x6e,0x45,
0x7f,0x03,0x45,0x00,0x81,0x6d,0x45,0x7f,0x06,0x45,0x00,0x72,0x2b,0x7f,0x00,0x2f,
0x7f,0x03,0x2f,0x00,0x00,0x2b,0x00,0x75,0x45,0x7f,0x02,0x45,0x00,0x81,0x6e,0x45,
0x7f,0x03,0x45,0x00,0x81,0x6d,0x45,0x7f,0x02,0x45,0x00,0x81,0x6e,0x30,0x7f,0x00,
0x30,0x7f,0x00,0x2f,0x7f,0x00,0x45,0x7f,0x06,0x45,0x00,0x00,0x2f,0x00,0x01,0x30,
0x00,0x00,0x30,0x00,0x81,0x69,0x2d,0x7f,0x00,0x2d,0x7f,0x00,0x2b,0x7f,0x00,0x45,
0x7f,0x06,0x45,0x00,0x00,0x2b,0x00,0x00,0x2d,0x00,0x01,0x2d,0x00,0x81,0x69,0x45,
0x7f,0x02,0x45,0x00,0x81,0x6e,0x45,0x7f,0x02,0x45,0x00,0x81,0x6e,0x45,0x7f,0x05,
0x45,0x00,0x73,0x2b,0x7f,0x00,0x2f,0x7f,0x04,0x2f,0x00,0x00,0x2b,0x00,0x74,0x45,
0x7f,0x02,0x45,0x00,0x81,0x6e,0x45,0x7f,0x03,0x45,0x00,0x81,0x6d,0x45,0x7f,0x02,
0x45,0x00,0x81,0x6e,0x30,0x7f,0x00,0x30,0x7f,0x00,0x2f,0x7f,0x00,0x45,0x7f,0x06,
0x45,0x00,0x00,0x2f,0x00,0x01,0x30,0x00,0x01,0x30,0x00,0x81,0x68,0x2d,0x7f,0x00,
0x2d,0x7f,0x00,0x2b,0x7f,0x00,0x45,0x7f,0x05,0x45,0x00,0x01,0x2b,0x00,0x00,0x2d,
0x00,0x01,0x2d,0x00,0x81,0x69,0x45,0x7f,0x03,0x45,0x00,0x81,0x6d,0x45,0x7f,0x03,
0x45,0x00,0x81,0x6d,0x45,0x7f,0x05,0x45,0x00,0x73,0x2b,0x7f,0x00,0x2f,0x7f,0x03,
0x2f,0x00,0x01,0x2b,0x00,0x74,0x45,0x7f,0x02,0x45,0x00,0x81,0x6e,0x45,0x7f,0x03,
0x45,0x00,0x81,0x6d,0x45,0x7f,0x02,0x45,0x00,0x81,0x6e,0x30,0x7f,0x00,0x30,0x7f,
0x00,0x2f,0x7f,0x00,0x45,0x7f,0x05,0x45,0x00,0x00,0x2f,0x00,0x01,0x30,0x00,0x01,
0x30,0x00,0x81,0x69,0x2d,0x7f,0x00,0x2d,0x7f,0x00,0x2b,0x7f,0x00,0x45,0x7f,0x05,
0x45,0x00,0x00,0x2d,0x00,0x01,0x2b,0x00,0x01,0x2d,0x00,0x90,0x69,0x45,0x7f,0x02,
0x45,0x00,0x81,0x6e,0x45,0x7f,0x03,0x45,0x00,0x81,0x6d,0x45,0x7f,0x05,0x45,0x00,
0x73,0x2b,0x7f,0x00,0x2f,0x7f,0x03,0x2f,0x00,0x01,0x2b,0x00,0x74,0x45,0x7f,0x02,
0x45,0x00,0x81,0x6e,0x45,0x7f,0x02,0x45,0x00,0x81,0x6e,0x45,0x7f,0x03,0x45,0x00,
0x81,0x6d,0x30,0x7f,0x00,0x30,0x7f,0x00,0x2f,0x7f,0x00,0x45,0x7f,0x05,0x45,0x00,
0x01,0x2f,0x00,0x00,0x30,0x00,0x01,0x30,0x00,0x81,0x69,0x2d,0x7f,0x00,0x2d,0x7f,
0x00,0x2b,0x7f,0x00,0x45,0x7f,0x05,0x45,0x00,0x01,0x2b,0x00,0x00,0x2d,0x00,0x01,
0x2d,0x00,0x81,0x69,0x45,0x7f,0x02,0x45,0x00,0x81,0x6e,0x45,0x7f,0x03,0x45,0x00,
0x81,0x6d,0x45,0x7f,0x06,0x45,0x00,0x72,0x2b,0x7f,0x00,0x2f,0x7f,0x03,0x2f,0x00,
0x00,0x2b,0x00,0x75,0x45,0x7f,0x02,0x45,0x00,0x81,0x6e,0x45,0x7f,0x03,0x45,0x00,
0x81,0x6d,0x45,0x7f,0x02,0x45,0x00,0x81,0x6e,0x30,0x7f,0x00,0x30,0x7f,0x00,0x2f,
0x7f,0x00,0x45,0x7f,0x06,0x45,0x00,0x00,0x2f,0x00,0x01,0x30,0x00,0x00,0x30,0x00,
0x81,0x69,0x2d,0x7f,0x00,0x2d,0x7f,0x00,0x2b,0x7f,0x00,0x45,0x7f,0x06,0x45,0x00,
0x00,0x2b,0x00,0x00,0x2d,0x00,0x01,0x2d,0x00,0x81,0x69,0x45,0x7f,0x02,0x45,0x00,
0x81,0x6e,0x45,0x7f,0x02,0x45,0x00,0x81,0x6e,0x45,0x7f,0x05,0x45,0x00,0x73,0x2b,
0x7f,0x00,0x2f,0x7f,0x04,0x2f,0x00,0x00,0x2b,0x00,0x74,0x45,0x7f,0x02,0x45,0x00,
0x81,0x6e,0x45,0x7f,0x03,0x45,0x00,0x81,0x6d,0x45,0x7f,0x02,0x45,0x00,0x81,0x6e,
0x30,0x7f,0x00,0x30,0x7f,0x00,0x2f,0x7f,0x00,0x45,0x7f,0x06,0x45,0x00,0x00,0x2f,
0x00,0x01,0x30,0x00,0x01,0x30,0x00,0x81,0x68,0x2d,0x7f,0x00,0x2d,0x7f,0x00,0x2b,
0x7f,0x00,0x45,0x7f,0x05,0x45,0x00,0x01,0x2b,0x00,0x00,0x2d,0x00,0x01,0x2d,0x00,
0x81,0x69,0x45,0x7f,0x03,0x45,0x00,0x81,0x6d,0x45,0x7f,0x03,0x45,0x00,0x81,0x6d,
0x45,0x7f,0x05,0x45,0x00,0x73,0x2b,0x7f,0x00,0x2f,0x7f,0x03,0x2f,0x00,0x01,0x2b,
0x00,0x74,0x45,0x7f,0x02,0x45,0x00,0x81,0x6e,0x45,0x7f,0x03,0x45,0x00,0x81,0x6d,
0x45,0x7f,0x02,0x45,0x00,0x81,0x6e,0x30,0x7f,0x00,0x30,0x7f,0x00,0x2f,0x7f,0x00,
0x45,0x7f,0x05,0x45,0x00,0x00,0x2f,0x00,0x01,0x30,0x00,0x01,0x30,0x00,0x81,0x69,
0x2d,0x7f,0x00,0x2d,0x7f,0x00,0x2b,0x7f,0x00,0x45,0x7f,0x05,0x45,0x00,0x00,0x2d,
0x00,0x01,0x2b,0x00,0x01,0x2d,0x00,0x81,0x69,0x45,0x7f,0x02,0x45,0x00,0x81,0x6e,
0x45,0x7f,0x03,0x45,0x00,0x81,0x6d,0x45,0x7f,0x05,0x45,0x00,0x73,0x2b,0x7f,0x00,
0x2f,0x7f,0x03,0x2f,0x00,0x01,0x2b,0x00,0x74,0x45,0x7f,0x02,0x45,0x00,0x81,0x6e,
0x45,0x7f,0x02,0x45,0x00,0x81,0x6e,0x45,0x7f,0x03,0x45,0x00,0x81,0x6d,0x30,0x7f,
0x00,0x30,0x7f,0x00,0x2f,0x7f,0x00,0x45,0x7f,0x05,0x45,0x00,0x01,0x2f,0x00,0x00,
0x30,0x00,0x01,0x30,0x00,0x81,0x69,0x2d,0x7f,0x00,0x2d,0x7f,0x00,0x2b,0x7f,0x00,
0x45,0x7f,0x05,0x45,0x00,0x01,0x2b,0x00,0x00,0x2d,0x00,0x01,0x2d,0x00,0x81,0x69,
0x45,0x7f,0x02,0x45,0x00,0x81,0x6e,0x45,0x7f,0x03,0x45,0x00,0x81,0x6d,0x45,0x7f,
0x06,0x45,0x00,0x72,0x2b,0x7f,0x00,0x2f,0x7f,0x03,0x2f,0x00,0x00,0x2b,0x00,0x75,
0x45,0x7f,0x02,0x45,0x00,0x81,0x6e,0x45,0x7f,0x03,0x45,0x00,0x81,0x6d,0x45,0x7f,
0x02,0x45,0x00,0x81,0x6e,0x30,0x7f,0x00,0x30,0x7f,0x00,0x2f,0x7f,0x00,0x45,0x7f,
0x06,0x45,0x00,0x00,0x2f,0x00,0x01,0x30,0x00,0x00,0x30,0x00,0x81,0x69,0x2d,0x7f,
0x00,0x2d,0x7f,0x00,0x2b,0x7f,0x00,0x45,0x7f,0x06,0x45,0x00,0x00,0x2b,0x00,0x00,
0x2d,0x00,0x01,0x2d,0x00,0x81,0x69,0x45,0x7f,0x02,0x45,0x00,0x81,0x6e,0x45,0x7f,
0x02,0x45,0x00,0x81,0x6e,0x45,0x7f,0x05,0x45,0x00,0x73,0x2b,0x7f,0x00,0x2f,0x7f,
0x04,0x2f,0x00,0x00,0x2b,0x00,0x74,0x45,0x7f,0x02,0x45,0x00,0x81,0x6e,0x45,0x7f,
0x03,0x45,0x00,0x81,0x6d,0x45,0x7f,0x02,0x45,0x00,0x81,0x6e,0x30,0x7f,0x00,0x30,
0x7f,0x00,0x2f,0x7f,0x00,0x45,0x7f,0x06,0x45,0x00,0x00,0x2f,0x00,0x01,0x30,0x00,
0x01,0x30,0x00,0x81,0x68,0x2d,0x7f,0x00,0x2d,0x7f,0x00,0x2b,0x7f,0x00,0x45,0x7f,
0x05,0x45,0x00,0x01,0x2b,0x00,0x00,0x2d,0x00,0x01,0x2d,0x00,0x81,0x69,0x45,0x7f,
0x03,0x45,0x00,0x81,0x6d,0x45,0x7f,0x03,0x45,0x00,0x81,0x6d,0x45,0x7f,0x05,0x45,
0x00,0x73,0x2b,0x7f,0x00,0x2f,0x7f,0x03,0x2f,0x00,0x01,0x2b,0x00,0x74,0x45,0x7f,
0x02,0x45,0x00,0x81,0x6e,0x45,0x7f,0x03,0x45,0x00,0x81,0x6d,0x45,0x7f,0x02,0x45,
0x00,0x81,0x6e,0x30,0x7f,0x00,0x30,0x7f,0x00,0x2f,0x7f,0x00,0x45,0x7f,0x05,0x45,
0x00,0x00,0x2f,0x00,0x01,0x30,0x00,0x01,0x30,0x00,0x81,0x69,0x2d,0x7f,0x00,0x2d,
0x7f,0x00,0x2b,0x7f,0x00,0x45,0x7f,0x05,0x45,0x00,0x00,0x2d,0x00,0x01,0x2b,0x00,
0x01,0x2d,0x00,0x81,0x69,0x45,0x7f,0x02,0x45,0x00,0x81,0x6e,0x45,0x7f,0x03,0x45,
0x00,0x81,0x6d,0x45,0x7f,0x05,0x45,0x00,0x73,0x2b,0x7f,0x00,0x2f,0x7f,0x03,0x2f,
0x00,0x01,0x2b,0x00,0x74,0x45,0x7f,0x02,0x45,0x00,0x81,0x6e,0x45,0x7f,0x02,0x45,
0x00,0x81,0x6e,0x45,0x7f,0x03,0x45,0x00,0x81,0x6d,0x30,0x7f,0x00,0x30,0x7f,0x00,
0x2f,0x7f,0x00,0x45,0x7f,0x05,0x45,0x00,0x01,0x2f,0x00,0x00,0x30,0x00,0x01,0x30,
0x00,0x81,0x69,0x2d,0x7f,0x00,0x2d,0x7f,0x00,0x2b,0x7f,0x00,0x45,0x7f,0x05,0x45,
0x00,0x01,0x2b,0x00,0x00,0x2d,0x00,0x01,0x2d,0x00,0x81,0x69,0x45,0x7f,0x02,0x45,
0x00,0x81,0x6e,0x45,0x7f,0x03,0x45,0x00,0x81,0x6d,0x45,0x7f,0x06,0x45,0x00,0x72,
0x2b,0x7f,0x00,0x2f,0x7f,0x03,0x2f,0x00,0x00,0x2b,0x00,0x75,0x45,0x7f,0x02,0x45,
0x00,0x81,0x6e,0x45,0x7f,0x03,0x45,0x00,0x81,0x6d,0x45,0x7f,0x02,0x45,0x00,0x81,
0x6e,0x30,0x7f,0x00,0x30,0x7f,0x00,0x2f,0x7f,0x00,0x45,0x7f,0x06,0x45,0x00,0x00,
0x2f,0x00,0x01,0x30,0x00,0x00,0x30,0x00,0x81,0x69,0x2d,0x7f,0x00,0x2d,0x7f,0x00,
0x2b,0x7f,0x00,0x45,0x7f,0x06,0x45,0x00,0x00,0x2b,0x00,0x00,0x2d,0x00,0x01,0x2d,
0x00,0x81,0x69,0x45,0x7f,0x02,0x45,0x00,0x81,0x6e,0x45,0x7f,0x02,0x45,0x00,0x81,
0x6e,0x45,0x7f,0x05,0x45,0x00,0x73,0x2b,0x7f,0x00,0x2f,0x7f,0x04,0x2f,0x00,0x00,
0x2b,0x00,0x74,0x45,0x7f,0x02,0x45,0x00,0x81,0x6e,0x45,0x7f,0x03,0x45,0x00,0x81,
0x6d,0x45,0x7f,0x02,0x45,0x00,0x81,0x6e,0x30,0x7f,0x00,0x30,0x7f,0x00,0x2f,0x7f,
0x00,0x45,0x7f,0x06,0x45,0x00,0x00,0x2f,0x00,0x01,0x30,0x00,0x01,0x30,0x00,0x81,
0x68,0x2d,0x7f,0x00,0x2d,0x7f,0x00,0x2b,0x7f,0x00,0x45,0x7f,0x05,0x45,0x00,0x01,
0x2b,0x00,0x00,0x2d,0x00,0x01,0x2d,0x00,0x81,0x69,0x45,0x7f,0x03,0x45,0x00,0x81,
0x6d,0x45,0x7f,0x03,0x45,0x00,0x81,0x6d,0x45,0x7f,0x05,0x45,0x00,0x73,0x2b,0x7f,
0x00,0x2f,0x7f,0x03,0x2f,0x00,0x01,0x2b,0x00,0x74,0x45,0x7f,0x02,0x45,0x00,0x81,
0x6e,0x45,0x7f,0x03,0x45,0x00,0x81,0x6d,0x45,0x7f,0x02,0x45,0x00,0x81,0x6e,0x30,
0x7f,0x00,0x30,0x7f,0x00,0x2f,0x7f,0x00,0x45,0x7f,0x05,0x45,0x00,0x00,0x2f,0x00,
0x01,0x30,0x00,0x01,0x30,0x00,0x81,0x69,0x2d,0x7f,0x00,0x2d,0x7f,0x00,0x2b,0x7f,
0x00,0x45,0x7f,0x05,0x45,0x00,0x00,0x2d,0x00,0x01,0x2b,0x00,0x01,0x2d,0x00,0x81,
0x69,0x45,0x7f,0x02,0x45,0x00,0x81,0x6e,0x45,0x7f,0x03,0x45,0x00,0x81,0x6d,0x45,
0x7f,0x05,0x45,0x00,0x73,0x2b,0x7f,0x00,0x2f,0x7f,0x03,0x2f,0x00,0x01,0x2b,0x00,
0x74,0x45,0x7f,0x02,0x45,0x00,0x81,0x6e,0x45,0x7f,0x02,0x45,0x00,0x81,0x6e,0x45,
0x7f,0x03,0x45,0x00,0x81,0x6d,0x30,0x7f,0x00,0x30,0x7f,0x00,0x2f,0x7f,0x00,0x45,
0x7f,0x05,0x45,0x00,0x01,0x2f,0x00,0x00,0x30,0x00,0x01,0x30,0x00,0x81,0x69,0x2d,
0x7f,0x00,0x2d,0x7f,0x00,0x2b,0x7f,0x00,0x45,0x7f,0x05,0x45,0x00,0x01,0x2b,0x00,
0x00,0x2d,0x00,0x01,0x2d,0x00,0x81,0x69,0x45,0x7f,0x02,0x45,0x00,0x81,0x6e,0x45,
0x7f,0x03,0x45,0x00,0x81,0x6d,0x45,0x7f,0x06,0x45,0x00,0x72,0x2b,0x7f,0x00,0x2f,
0x7f,0x03,0x2f,0x00,0x00,0x2b,0x00,0x75,0x45,0x7f,0x02,0x45,0x00,0x81,0x6e,0x45,
0x7f,0x03,0x45,0x00,0x81,0x6d,0x45,0x7f,0x02,0x45,0x00,0x81,0x6e,0x30,0x7f,0x00,
0x30,0x7f,0x00,0x2f,0x7f,0x00,0x45,0x7f,0x06,0x45,0x00,0x00,0x2f,0x00,0x01,0x30,
0x00,0x00,0x30,0x00,0x81,0x69,0x2d,0x7f,0x00,0x2d,0x7f,0x00,0x2b,0x7f,0x00,0x45,
0x7f,0x06,0x45,0x00,0x00,0x2b,0x00,0x00,0x2d,0x00,0x01,0x2d,0x00,0x81,0x69,0x45,
0x7f,0x02,0x45,0x00,0x81,0x6e,0x45,0x7f,0x02,0x45,0x00,0x81,0x6e,0x45,0x7f,0x05,
0x45,0x00,0x73,0x2b,0x7f,0x00,0x2f,0x7f,0x04,0x2f,0x00,0x00,0x2b,0x00,0x74,0x45,
0x7f,0x02,0x45,0x00,0x81,0x6e,0x45,0x7f,0x03,0x45,0x00,0x81,0x6d,0x45,0x7f,0x02,
0x45,0x00,0x81,0x6e,0x30,0x7f,0x00,0x30,0x7f,0x00,0x2f,0x7f,0x00,0x45,0x7f,0x06,
0x45,0x00,0x00,0x2f,0x00,0x01,0x30,0x00,0x01,0x30,0x00,0x81,0x68,0x2d,0x7f,0x00,
0x2d,0x7f,0x00,0x2b,0x7f,0x00,0x45,0x7f,0x05,0x45,0x00,0x01,0x2b,0x00,0x00,0x2d,
0x00,0x01,0x2d,0x00,0x81,0x69,0x45,0x7f,0x03,0x45,0x00,0x81,0x6d,0x45,0x7f,0x03,
0x45,0x00,0x81,0x6d,0x45,0x7f,0x05,0x45,0x00,0x73,0x2b,0x7f,0x00,0x2f,0x7f,0x03,
0x2f,0x00,0x01,0x2b,0x00,0x74,0x45,0x7f,0x02,0x45,0x00,0x81,0x6e,0x45,0x7f,0x03,
0x45,0x00,0x81,0x6d,0x45,0x7f,0x02,0x45,0x00,0x81,0x6e,0x30,0x7f,0x00,0x30,0x7f,
0x00,0x2f,0x7f,0x00,0x45,0x7f,0x05,0x45,0x00,0x00,0x2f,0x00,0x01,0x30,0x00,0x01,
0x30,0x00,0x81,0x69,0x2d,0x7f,0x00,0x2d,0x7f,0x00,0x2b,0x7f,0x00,0x45,0x7f,0x05,
0x45,0x00,0x00,0x2d,0x00,0x01,0x2b,0x00,0x01,0x2d,0x00,0x00,0xff,0x2f,0x00,0x4d,
0x54,0x72,0x6b,0x00,0x00,0x09,0xc0,0x00,0xff,0x21,0x01,0x00,0x00,0xff,0x03,0x04,
0x6b,0x69,0x63,0x6b,0x00,0xc9,0x10,0x00,0xb9,0x07,0x7f,0x81,0xf5,0x50,0x99,0x24,
0x7f,0x2b,0x24,0x00,0x4d,0x24,0x7f,0x46,0x24,0x00,0xad,0x32,0x24,0x49,0x40,0x24,
0x00,0x38,0x24,0x4a,0x3c,0x24,0x00,0x3c,0x24,0x4d,0x3c,0x24,0x00,0x3c,0x24,0x50,
0x32,0x24,0x00,0x46,0x24,0x53,0x32,0x24,0x00,0x46,0x24,0x57,0x30,0x24,0x00,0x48,
0x24,0x58,0x2f,0x24,0x00,0x49,0x24,0x5c,0x2b,0x24,0x00,0x4d,0x24,0x5f,0x28,0x24,
0x00,0x50,0x24,0x63,0x1f,0x24,0x00,0x59,0x24,0x67,0x26,0x24,0x00,0x52,0x24,0x6a,
0x1b,0x24,0x00,0x5d,0x24,0x6d,0x24,0x24,0x00,0x54,0x24,0x6e,0x25,0x24,0x00,0x53,
0x24,0x70,0x26,0x24,0x00,0x52,0x24,0x72,0x25,0x24,0x00,0x53,0x24,0x75,0x03,0x24,
0x00,0x81,0x6d,0x24,0x7f,0x03,0x24,0x00,0x81,0x6d,0x24,0x7f,0x03,0x24,0x00,0x81,
0x6d,0x24,0x7f,0x04,0x24,0x00,0x81,0x6c,0x24,0x7f,0x02,0x24,0x00,0x81,0x6e,0x24,
0x7f,0x08,0x24,0x00,0x81,0x68,0x24,0x7f,0x02,0x24,0x00,0x81,0x6e,0x24,0x7f,0x02,
0x24,0x00,0x81,0x6e,0x24,0x7f,0x03,0x24,0x00,0x81,0x6d,0x24,0x7f,0x03,0x24,0x00,
0x81,0x6d,0x24,0x7f,0x03,0x24,0x00,0x81,0x6d,0x24,0x7f,0x04,0x24,0x00,0x81,0x6c,
0x24,0x7f,0x03,0x24,0x00,0x81,0x6d,0x24,0x7f,0x09,0x24,0x00,0x81,0x67,0x24,0x7f,
0x02,0x24,0x00,0x81,0x6e,0x24,0x7f,0x02,0x24,0x00,0x81,0x6e,0x24,0x7f,0x02,0x24,
0x00,0x81,0x6e,0x24,0x7f,0x03,0x24,0x00,0x81,0x6d,0x24,0x7f,0x02,0x24,0x00,0x81,
0x6e,0x24,0x7f,0x05,0x24,0x00,0x81,0x6b,0x24,0x7f,0x02,0x24,0x00,0x81,0x6e,0x24,
0x7f,0x09,0x24,0x00,0x81,0x67,0x24,0x7f,0x02,0x24,0x00,0x81,0x6e,0x24,0x7f,0x02,
0x24,0x00,0x81,0x6e,0x24,0x7f,0x02,0x24,0x00,0x81,0x6e,0x24,0x7f,0x03,0x24,0x00,
0x81,0x6d,0x24,0x7f,0x02,0x24,0x00,0x81,0x6e,0x24,0x7f,0x04,0x24,0x00,0x81,0x6c,
0x24,0x7f,0x03,0x24,0x00,0x81,0x6d,0x24,0x7f,0x07,0x24,0x00,0x81,0x69,0x24,0x7f,
0x03,0x24,0x00,0x81,0x6d,0x24,0x7f,0x03,0x24,0x00,0x81,0x6d,0x24,0x7f,0x03,0x24,
0x00,0x81,0x6d,0x24,0x7f,0x03,0x24,0x00,0x81,0x6d,0x24,0x7f,0x03,0x24,0x00,0x81,
0x6d,0x24,0x7f,0x04,0x24,0x00,0x81,0x6c,0x24,0x7f,0x02,0x24,0x00,0x81,0x6e,0x24,
0x7f,0x08,0x24,0x00,0x81,0x68,0x24,0x7f,0x02,0x24,0x00,0x81,0x6e,0x24,0x7f,0x02,
0x24,0x00,0x81,0x6e,0x24,0x7f,0x03,0x24,0x00,0x81,0x6d,0x24,0x7f,0x03,0x24,0x00,
0x81,0x6d,0x24,0x7f,0x03,0x24,0x00,0x81,0x6d,0x24,0x7f,0x04,0x24,0x00,0x81,0x6c,
0x24,0x7f,0x03,0x24,0x00,0x81,0x6d,0x24,0x7f,0x09,0x24,0x00,0x81,0x67,0x24,0x7f,
0x02,0x24,0x00,0x81,0x6e,0x24,0x7f,0x02,0x24,0x00,0x81,0x6e,0x24,0x7f,0x02,0x24,
0x00,0x81,0x6e,0x24,0x7f,0x03,0x24,0x00,0x81,0x6d,0x24,0x7f,0x02,0x24,0x00,0x81,
0x6e,0x24,0x7f,0x05,0x24,0x00,0x81,0x6b,0x24,0x7f,0x02,0x24,0x00,0x81,0x6e,0x24,
0x7f,0x09,0x24,0x00,0x81,0x67,0x24,0x7f,0x02,0x24,0x00,0x81,0x6e,0x24,0x7f,0x02,
0x24,0x00,0x81,0x6e,0x24,0x7f,0x81,0x2f,0x24,0x00,0x81,0x39,0x24,0x7f,0x66,0x24,
0x00,0x83,0x72,0x24,0x7f,0x6b,0x24,0x00,0x81,0x05,0x24,0x7f,0x28,0x24,0x00,0x50,
0x24,0x7f,0x73,0x24,0x00,0x83,0x65,0x24,0x7f,0x02,0x24,0x00,0x81,0x6e,0x24,0x7f,
0x03,0x24,0x00,0x81,0x6d,0x24,0x7f,0x02,0x24,0x00,0x81,0x6e,0x24,0x7f,0x04,0x24,
0x00,0x81,0x6c,0x24,0x7f,0x03,0x24,0x00,0x81,0x6d,0x24,0x7f,0x07,0x24,0x00,0x81,
0x69,0x24,0x7f,0x03,0x24,0x00,0x81,0x6d,0x24,0x7f,0x03,0x24,0x00,0x81,0x6d,0x24,
0x7f,0x03,0x24,0x00,0x81,0x6d,0x24,0x7f,0x03,0x24,0x00,0x81,0x6d,0x24,0x7f,0x03,
0x24,0x00,0x81,0x6d,0x24,0x7f,0x04,0x24,0x00,0x81,0x6c,0x24,0x7f,0x02,0x24,0x00,
0x81,0x6e,0x24,0x7f,0x08,0x24,0x00,0x81,0x68,0x24,0x7f,0x02,0x24,0x00,0x81,0x6e,
0x24,0x7f,0x02,0x24,0x00,0x81,0x6e,0x24,0x7f,0x02,0x24,0x00,0x81,0x6e,0x24,0x7f,
0x03,0x24,0x00,0x81,0x6d,0x24,0x7f,0x02,0x24,0x00,0x81,0x6e,0x24,0x7f,0x04,0x24,
0x00,0x81,0x6c,0x24,0x7f,0x03,0x24,0x00,0x81,0x6d,0x24,0x7f,0x07,0x24,0x00,0x81,
0x69,0x24,0x7f,0x03,0x24,0x00,0x81,0x6d,0x24,0x7f,0x03,0x24,0x00,0x81,0x6d,0x24,
0x7f,0x03,0x24,0x00,0x81,0x6d,0x24,0x7f,0x03,0x24,0x00,0x81,0x6d,0x24,0x7f,0x03,
0x24,0x00,0x81,0x6d,0x24,0x7f,0x04,0x24,0x00,0x81,0x6c,0x24,0x7f,0x02,0x24,0x00,
0x81,0x6e,0x24,0x7f,0x08,0x24,0x00,0x81,0x68,0x24,0x7f,0x02,0x24,0x00,0x81,0x6e,
0x24,0x7f,0x02,0x24,0x00,0x81,0x6e,0x24,0x7f,0x03,0x24,0x00,0x81,0x6d,0x24,0x7f,
0x03,0x24,0x00,0x81,0x6d,0x24,0x7f,0x03,0x24,0x00,0x81,0x6d,0x24,0x7f,0x04,0x24,
0x00,0x81,0x6c,0x24,0x7f,0x03,0x24,0x00,0x81,0x6d,0x24,0x7f,0x09,0x24,0x00,0x81,
0x67,0x24,0x7f,0x02,0x24,0x00,0x81,0x6e,0x24,0x7f,0x02,0x24,0x00,0x81,0x6e,0x24,
0x7f,0x02,0x24,0x00,0x81,0x6e,0x24,0x7f,0x03,0x24,0x00,0x81,0x6d,0x24,0x7f,0x02,
0x24,0x00,0x81,0x6e,0x24,0x7f,0x05,0x24,0x00,0x81,0x6b,0x24,0x7f,0x02,0x24,0x00,
0x81,0x6e,0x24,0x7f,0x09,0x24,0x00,0x81,0x67,0x24,0x7f,0x02,0x24,0x00,0x81,0x6e,
0x24,0x7f,0x02,0x24,0x00,0x81,0x6e,0x24,0x7f,0x02,0x24,0x00,0x81,0x6e,0x24,0x7f,
0x03,0x24,0x00,0x81,0x6d,0x24,0x7f,0x02,0x24,0x00,0x81,0x6e,0x24,0x7f,0x04,0x24,
0x00,0x81,0x6c,0x24,0x7f,0x03,0x24,0x00,0x81,0x6d,0x24,0x7f,0x07,0x24,0x00,0x81,
0x69,0x24,0x7f,0x03,0x24,0x00,0x81,0x6d,0x24,0x7f,0x03,0x24,0x00,0x81,0x6d,0x24,
0x7f,0x03,0x24,0x00,0x81,0x6d,0x24,0x7f,0x03,0x24,0x00,0x81,0x6d,0x24,0x7f,0x03,
0x24,0x00,0x81,0x6d,0x24,0x7f,0x04,0x24,0x00,0x81,0x6c,0x24,0x7f,0x02,0x24,0x00,
0x81,0x6e,0x24,0x7f,0x08,0x24,0x00,0x81,0x68,0x24,0x7f,0x02,0x24,0x00,0x81,0x6e,
0x24,0x7f,0x02,0x24,0x00,0x81,0x6e,0x24,0x7f,0x03,0x24,0x00,0x81,0x6d,0x24,0x7f,
0x03,0x24,0x00,0x81,0x6d,0x24,0x7f,0x03,0x24,0x00,0x81,0x6d,0x24,0x7f,0x04,0x24,
0x00,0x81,0x6c,0x24,0x7f,0x03,0x24,0x00,0x81,0x6d,0x24,0x7f,0x09,0x24,0x00,0x81,
0x67,0x24,0x7f,0x02,0x24,0x00,0x81,0x6e,0x24,0x7f,0x02,0x24,0x00,0x81,0x6e,0x24,
0x7f,0x02,0x24,0x00,0x81,0x6e,0x24,0x7f,0x03,0x24,0x00,0x81,0x6d,0x24,0x7f,0x02,
0x24,0x00,0x81,0x6e,0x24,0x7f,0x05,0x24,0x00,0x81,0x6b,0x24,0x7f,0x02,0x24,0x00,
0x81,0x6e,0x24,0x7f,0x09,0x24,0x00,0x81,0x67,0x24,0x7f,0x02,0x24,0x00,0x81,0x6e,
0x24,0x7f,0x02,0x24,0x00,0x81,0x6e,0x24,0x7f,0x03,0x24,0x00,0x81,0x6d,0x24,0x7f,
0x03,0x24,0x00,0x81,0x6d,0x24,0x7f,0x03,0x24,0x00,0x81,0x6d,0x24,0x7f,0x04,0x24,
0x00,0x81,0x6c,0x24,0x7f,0x02,0x24,0x00,0x81,0x6e,0x24,0x7f,0x08,0x24,0x00,0x81,
0x68,0x24,0x7f,0x02,0x24,0x00,0x81,0x6e,0x24,0x7f,0x02,0x24,0x00,0x81,0x6e,0x24,
0x7f,0x03,0x24,0x00,0x81,0x6d,0x24,0x7f,0x03,0x24,0x00,0x81,0x6d,0x24,0x7f,0x03,
0x24,0x00,0x81,0x6d,0x24,0x7f,0x04,0x24,0x00,0x81,0x6c,0x24,0x7f,0x03,0x24,0x00,
0x81,0x6d,0x24,0x7f,0x09,0x24,0x00,0x81,0x67,0x24,0x7f,0x02,0x24,0x00,0x81,0x6e,
0x24,0x7f,0x02,0x24,0x00,0x81,0x6e,0x24,0x7f,0x02,0x24,0x00,0x81,0x6e,0x24,0x7f,
0x03,0x24,0x00,0x81,0x6d,0x24,0x7f,0x02,0x24,0x00,0x81,0x6e,0x24,0x7f,0x05,0x24,
0x00,0x81,0x6b,0x24,0x7f,0x02,0x24,0x00,0x81,0x6e,0x24,0x7f,0x09,0x24,0x00,0x81,
0x67,0x24,0x7f,0x02,0x24,0x00,0x81,0x6e,0x24,0x7f,0x02,0x24,0x00,0x81,0x6e,0x24,
0x7f,0x02,0x24,0x00,0x81,0x6e,0x24,0x7f,0x03,0x24,0x00,0x81,0x6d,0x24,0x7f,0x02,
0x24,0x00,0x81,0x6e,0x24,0x7f,0x04,0x24,0x00,0x81,0x6c,0x24,0x7f,0x03,0x24,0x00,
0x81,0x6d,0x24,0x7f,0x07,0x24,0x00,0x81,0x69,0x24,0x7f,0x03,0x24,0x00,0x81,0x6d,
0x24,0x7f,0x03,0x24,0x00,0x81,0x6d,0x24,0x7f,0x03,0x24,0x00,0x81,0x6d,0x24,0x7f,
0x03,0x24,0x00,0x81,0x6d,0x24,0x7f,0x03,0x24,0x00,0x81,0x6d,0x24,0x7f,0x04,0x24,
0x00,0x81,0x6c,0x24,0x7f,0x02,0x24,0x00,0x81,0x6e,0x24,0x7f,0x08,0x24,0x00,0x81,
0x68,0x24,0x7f,0x02,0x24,0x00,0x81,0x6e,0x24,0x7f,0x02,0x24,0x00,0x81,0x6e,0x24,
0x7f,0x03,0x24,0x00,0x81,0x6d,0x24,0x7f,0x03,0x24,0x00,0x81,0x6d,0x24,0x7f,0x03,
0x24,0x00,0x81,0x6d,0x24,0x7f,0x04,0x24,0x00,0x81,0x6c,0x24,0x7f,0x03,0x24,0x00,
0x81,0x6d,0x24,0x7f,0x09,0x24,0x00,0x81,0x67,0x24,0x7f,0x02,0x24,0x00,0x81,0x6e,
0x24,0x7f,0x02,0x24,0x00,0x81,0x6e,0x24,0x7f,0x02,0x24,0x00,0x81,0x6e,0x24,0x7f,
0x03,0x24,0x00,0x81,0x6d,0x24,0x7f,0x02,0x24,0x00,0x81,0x6e,0x24,0x7f,0x05,0x24,
0x00,0x81,0x6b,0x24,0x7f,0x02,0x24,0x00,0x81,0x6e,0x24,0x7f,0x09,0x24,0x00,0x81,
0x67,0x24,0x7f,0x02,0x24,0x00,0x81,0x6e,0x24,0x7f,0x02,0x24,0x00,0x81,0x6e,0x24,
0x7f,0x81,0x2f,0x24,0x00,0x81,0x39,0x24,0x7f,0x66,0x24,0x00,0x83,0x72,0x24,0x7f,
0x6b,0x24,0x00,0x81,0x05,0x24,0x7f,0x28,0x24,0x00,0x50,0x24,0x7f,0x73,0x24,0x00,
0x83,0x65,0x24,0x7f,0x02,0x24,0x00,0x81,0x6e,0x24,0x7f,0x03,0x24,0x00,0x81,0x6d,
0x24,0x7f,0x02,0x24,0x00,0x81,0x6e,0x24,0x7f,0x04,0x24,0x00,0x81,0x6c,0x24,0x7f,
0x03,0x24,0x00,0x81,0x6d,0x24,0x7f,0x07,0x24,0x00,0x81,0x69,0x24,0x7f,0x03,0x24,
0x00,0x81,0x6d,0x24,0x7f,0x03,0x24,0x00,0x81,0x6d,0x24,0x7f,0x03,0x24,0x00,0x81,
0x6d,0x24,0x7f,0x03,0x24,0x00,0x81,0x6d,0x24,0x7f,0x03,0x24,0x00,0x81,0x6d,0x24,
0x7f,0x04,0x24,0x00,0x81,0x6c,0x24,0x7f,0x02,0x24,0x00,0x81,0x6e,0x24,0x7f,0x08,
0x24,0x00,0x81,0x68,0x24,0x7f,0x02,0x24,0x00,0x81,0x6e,0x24,0x7f,0x02,0x24,0x00,
0x81,0x6e,0x24,0x7f,0x03,0x24,0x00,0x81,0x6d,0x24,0x7f,0x03,0x24,0x00,0x81,0x6d,
0x24,0x7f,0x03,0x24,0x00,0x81,0x6d,0x24,0x7f,0x04,0x24,0x00,0x81,0x6c,0x24,0x7f,
0x03,0x24,0x00,0x81,0x6d,0x24,0x7f,0x09,0x24,0x00,0x81,0x67,0x24,0x7f,0x02,0x24,
0x00,0x81,0x6e,0x24,0x7f,0x02,0x24,0x00,0x81,0x6e,0x24,0x7f,0x02,0x24,0x00,0x81,
0x6e,0x24,0x7f,0x03,0x24,0x00,0x81,0x6d,0x24,0x7f,0x02,0x24,0x00,0x81,0x6e,0x24,
0x7f,0x05,0x24,0x00,0x81,0x6b,0x24,0x7f,0x02,0x24,0x00,0x81,0x6e,0x24,0x7f,0x09,
0x24,0x00,0x81,0x67,0x24,0x7f,0x02,0x24,0x00,0x81,0x6e,0x24,0x7f,0x02,0x24,0x00,
0x81,0x6e,0x24,0x7f,0x02,0x24,0x00,0x81,0x6e,0x24,0x7f,0x03,0x24,0x00,0x81,0x6d,
0x24,0x7f,0x02,0x24,0x00,0x81,0x6e,0x24,0x7f,0x04,0x24,0x00,0x81,0x6c,0x24,0x7f,
0x03,0x24,0x00,0x81,0x6d,0x24,0x7f,0x07,0x24,0x00,0x81,0x69,0x24,0x7f,0x03,0x24,
0x00,0x81,0x6d,0x24,0x7f,0x03,0x24,0x00,0x81,0x6d,0x24,0x7f,0x03,0x24,0x00,0x81,
0x6d,0x24,0x7f,0x03,0x24,0x00,0x81,0x6d,0x24,0x7f,0x03,0x24,0x00,0x81,0x6d,0x24,
0x7f,0x04,0x24,0x00,0x81,0x6c,0x24,0x7f,0x02,0x24,0x00,0x81,0x6e,0x24,0x7f,0x08,
0x24,0x00,0x81,0x68,0x24,0x7f,0x02,0x24,0x00,0x81,0x6e,0x24,0x7f,0x02,0x24,0x00,
0x81,0x6e,0x24,0x7f,0x03,0x24,0x00,0x81,0x6d,0x24,0x7f,0x03,0x24,0x00,0x81,0x6d,
0x24,0x7f,0x03,0x24,0x00,0x81,0x6d,0x24,0x7f,0x04,0x24,0x00,0x81,0x6c,0x24,0x7f,
0x03,0x24,0x00,0x81,0x6d,0x24,0x7f,0x09,0x24,0x00,0x81,0x67,0x24,0x7f,0x02,0x24,
0x00,0x81,0x6e,0x24,0x7f,0x02,0x24,0x00,0x81,0x6e,0x24,0x7f,0x02,0x24,0x00,0x81,
0x6e,0x24,0x7f,0x03,0x24,0x00,0x81,0x6d,0x24,0x7f,0x02,0x24,0x00,0x81,0x6e,0x24,
0x7f,0x05,0x24,0x00,0x81,0x6b,0x24,0x7f,0x02,0x24,0x00,0x81,0x6e,0x24,0x7f,0x09,
0x24,0x00,0x81,0x67,0x24,0x7f,0x02,0x24,0x00,0x81,0x6e,0x24,0x7f,0x02,0x24,0x00,
0x81,0x6e,0x24,0x7f,0x02,0x24,0x00,0x81,0x6e,0x24,0x7f,0x03,0x24,0x00,0x81,0x6d,
0x24,0x7f,0x02,0x24,0x00,0x81,0x6e,0x24,0x7f,0x04,0x24,0x00,0x81,0x6c,0x24,0x7f,
0x03,0x24,0x00,0x81,0x6d,0x24,0x7f,0x07,0x24,0x00,0x81,0x69,0x24,0x7f,0x03,0x24,
0x00,0x81,0x6d,0x24,0x7f,0x03,0x24,0x00,0x81,0x6d,0x24,0x7f,0x03,0x24,0x00,0x81,
0x6d,0x24,0x7f,0x03,0x24,0x00,0x81,0x6d,0x24,0x7f,0x03,0x24,0x00,0x81,0x6d,0x24,
0x7f,0x04,0x24,0x00,0x81,0x6c,0x24,0x7f,0x02,0x24,0x00,0x81,0x6e,0x24,0x7f,0x08,
0x24,0x00,0x81,0x68,0x24,0x7f,0x02,0x24,0x00,0x81,0x6e,0x24,0x7f,0x02,0x24,0x00,
0x81,0x6e,0x24,0x7f,0x03,0x24,0x00,0x81,0x6d,0x24,0x7f,0x03,0x24,0x00,0x81,0x6d,
0x24,0x7f,0x03,0x24,0x00,0x81,0x6d,0x24,0x7f,0x04,0x24,0x00,0x81,0x6c,0x24,0x7f,
0x03,0x24,0x00,0x81,0x6d,0x24,0x7f,0x09,0x24,0x00,0x81,0x67,0x24,0x7f,0x02,0x24,
0x00,0x81,0x6e,0x24,0x7f,0x02,0x24,0x00,0x81,0x6e,0x24,0x7f,0x02,0x24,0x00,0x81,
0x6e,0x24,0x7f,0x03,0x24,0x00,0x81,0x6d,0x24,0x7f,0x02,0x24,0x00,0x81,0x6e,0x24,
0x7f,0x05,0x24,0x00,0x81,0x6b,0x24,0x7f,0x02,0x24,0x00,0x81,0x6e,0x24,0x7f,0x09,
0x24,0x00,0x81,0x67,0x24,0x7f,0x02,0x24,0x00,0x81,0x6e,0x24,0x7f,0x02,0x24,0x00,
0x81,0x6e,0x24,0x7f,0x02,0x24,0x00,0x81,0x6e,0x24,0x7f,0x03,0x24,0x00,0x81,0x6d,
0x24,0x7f,0x02,0x24,0x00,0x81,0x6e,0x24,0x7f,0x04,0x24,0x00,0x81,0x6c,0x24,0x7f,
0x03,0x24,0x00,0x81,0x6d,0x24,0x7f,0x07,0x24,0x00,0x81,0x69,0x24,0x7f,0x03,0x24,
0x00,0x81,0x6d,0x24,0x7f,0x03,0x24,0x00,0x81,0x6d,0x24,0x7f,0x03,0x24,0x00,0x81,
0x6d,0x24,0x7f,0x03,0x24,0x00,0x81,0x6d,0x24,0x7f,0x03,0x24,0x00,0x81,0x6d,0x24,
0x7f,0x04,0x24,0x00,0x81,0x6c,0x24,0x7f,0x02,0x24,0x00,0x81,0x6e,0x24,0x7f,0x08,
0x24,0x00,0x81,0x68,0x24,0x7f,0x02,0x24,0x00,0x81,0x6e,0x24,0x7f,0x02,0x24,0x00,
0x81,0x6e,0x24,0x7f,0x03,0x24,0x00,0x81,0x6d,0x24,0x7f,0x03,0x24,0x00,0x81,0x6d,
0x24,0x7f,0x03,0x24,0x00,0x81,0x6d,0x24,0x7f,0x04,0x24,0x00,0x81,0x6c,0x24,0x7f,
0x03,0x24,0x00,0x81,0x6d,0x24,0x7f,0x09,0x24,0x00,0x81,0x67,0x24,0x7f,0x02,0x24,
0x00,0x81,0x6e,0x24,0x7f,0x02,0x24,0x00,0x81,0x6e,0x24,0x7f,0x02,0x24,0x00,0x81,
0x6e,0x24,0x7f,0x03,0x24,0x00,0x81,0x6d,0x24,0x7f,0x02,0x24,0x00,0x81,0x6e,0x24,
0x7f,0x05,0x24,0x00,0x81,0x6b,0x24,0x7f,0x00,0x24,0x7f,0x02,0x24,0x00,0x36,0x24,
0x00,0x40,0x24,0x7f,0x38,0x24,0x00,0x40,0x24,0x7f,0x00,0x24,0x7f,0x09,0x24,0x00,
0x2c,0x24,0x00,0x43,0x24,0x7f,0x33,0x24,0x00,0x45,0x24,0x7f,0x00,0x24,0x7f,0x02,
0x24,0x00,0x2f,0x24,0x00,0x47,0x24,0x7f,0x2e,0x24,0x00,0x4a,0x24,0x7f,0x00,0x24,
0x7f,0x02,0x24,0x00,0x27,0x24,0x00,0x4f,0x24,0x7f,0x2d,0x24,0x00,0x4b,0x24,0x7f,
0x4f,0x24,0x00,0x00,0xff,0x2f,0x00,0x4d,0x54,0x72,0x6b,0x00,0x00,0x02,0xdd,0x00,
0xff,0x21,0x01,0x00,0x00,0xff,0x03,0x05,0x73,0x6e,0x61,0x72,0x65,0x00,0xc9,0x10,
0x00,0xb9,0x07,0x7f,0x82,0xac,0x78,0x99,0x26,0x6c,0x21,0x26,0x00,0x57,0x26,0x6d,
0x22,0x26,0x00,0x56,0x26,0x70,0x19,0x26,0x00,0x5f,0x26,0x72,0x24,0x26,0x00,0x54,
0x26,0x74,0x23,0x26,0x00,0x55,0x26,0x74,0x26,0x26,0x00,0x52,0x26,0x74,0x2a,0x26,
0x00,0x82,0x3e,0x26,0x7f,0x03,0x26,0x00,0x87,0x3d,0x26,0x7f,0x08,0x26,0x00,0x87,
0x38,0x26,0x7f,0x03,0x26,0x00,0x87,0x3d,0x26,0x7f,0x09,0x26,0x00,0x87,0x37,0x26,
0x7f,0x03,0x26,0x00,0x87,0x3d,0x26,0x7f,0x08,0x26,0x00,0x87,0x38,0x26,0x7f,0x03,
0x26,0x00,0x87,0x3d,0x26,0x7f,0x08,0x26,0x00,0x87,0x38,0x26,0x7f,0x03,0x26,0x00,
0x87,0x3d,0x26,0x7f,0x08,0x26,0x00,0x87,0x38,0x26,0x7f,0x03,0x26,0x00,0x87,0x3d,
0x26,0x7f,0x09,0x26,0x00,0x87,0x37,0x26,0x7f,0x03,0x26,0x00,0x87,0x3d,0x26,0x7f,
0x08,0x26,0x00,0x92,0x58,0x26,0x7f,0x16,0x26,0x00,0x26,0x26,0x7f,0x11,0x26,0x00,
0x2b,0x26,0x7f,0x20,0x26,0x00,0x1c,0x26,0x7f,0x3c,0x26,0x00,0x81,0x70,0x26,0x7f,
0x03,0x26,0x00,0x87,0x3d,0x26,0x7f,0x08,0x26,0x00,0x87,0x38,0x26,0x7f,0x03,0x26,
0x00,0x87,0x3d,0x26,0x7f,0x08,0x26,0x00,0x87,0x38,0x26,0x7f,0x03,0x26,0x00,0x87,
0x3d,0x26,0x7f,0x08,0x26,0x00,0x87,0x38,0x26,0x7f,0x03,0x26,0x00,0x87,0x3d,0x26,
0x7f,0x08,0x26,0x00,0x87,0x38,0x26,0x7f,0x03,0x26,0x00,0x87,0x3d,0x26,0x7f,0x09,
0x26,0x00,0x87,0x37,0x26,0x7f,0x03,0x26,0x00,0x87,0x3d,0x26,0x7f,0x08,0x26,0x00,
0x87,0x38,0x26,0x7f,0x03,0x26,0x00,0x87,0x3d,0x26,0x7f,0x08,0x26,0x00,0x87,0x38,
0x26,0x7f,0x03,0x26,0x00,0x87,0x3d,0x26,0x7f,0x08,0x26,0x00,0x87,0x38,0x26,0x7f,
0x03,0x26,0x00,0x87,0x3d,0x26,0x7f,0x09,0x26,0x00,0x87,0x37,0x26,0x7f,0x03,0x26,
0x00,0x87,0x3d,0x26,0x7f,0x08,0x26,0x00,0x70,0x26,0x7f,0x1e,0x26,0x00,0x5a,0x26,
0x7f,0x23,0x26,0x00,0x55,0x26,0x7f,0x21,0x26,0x00,0x57,0x26,0x7f,0x1a,0x26,0x00,
0x5e,0x26,0x7f,0x21,0x26,0x00,0x82,0x47,0x26,0x7f,0x03,0x26,0x00,0x87,0x3d,0x26,
0x71,0x08,0x26,0x00,0x87,0x38,0x26,0x7f,0x03,0x26,0x00,0x87,0x3d,0x26,0x7f,0x09,
0x26,0x00,0x87,0x37,0x26,0x7f,0x03,0x26,0x00,0x87,0x3d,0x26,0x7f,0x08,0x26,0x00,
0x87,0x38,0x26,0x7f,0x03,0x26,0x00,0x87,0x3d,0x26,0x7f,0x08,0x26,0x00,0x87,0x38,
0x26,0x7f,0x03,0x26,0x00,0x87,0x3d,0x26,0x7f,0x08,0x26,0x00,0x87,0x38,0x26,0x7f,
0x03,0x26,0x00,0x87,0x3d,0x26,0x7f,0x09,0x26,0x00,0x87,0x37,0x26,0x7f,0x03,0x26,
0x00,0x87,0x3d,0x26,0x7f,0x08,0x26,0x00,0x96,0x38,0x26,0x7f,0x03,0x26,0x00,0x87,
0x3d,0x26,0x7f,0x08,0x26,0x00,0x87,0x38,0x26,0x7f,0x03,0x26,0x00,0x87,0x3d,0x26,
0x7f,0x08,0x26,0x00,0x87,0x38,0x26,0x7f,0x03,0x26,0x00,0x87,0x3d,0x26,0x7f,0x09,
0x26,0x00,0x87,0x37,0x26,0x7f,0x03,0x26,0x00,0x87,0x3d,0x26,0x7f,0x08,0x26,0x00,
0x87,0x38,0x26,0x7f,0x03,0x26,0x00,0x87,0x3d,0x26,0x7f,0x08,0x26,0x00,0x87,0x38,
0x26,0x7f,0x03,0x26,0x00,0x87,0x3d,0x26,0x7f,0x08,0x26,0x00,0x87,0x38,0x26,0x7f,
0x03,0x26,0x00,0x87,0x3d,0x26,0x7f,0x09,0x26,0x00,0x87,0x37,0x26,0x7f,0x03,0x26,
0x00,0x87,0x3d,0x26,0x7f,0x08,0x26,0x00,0x87,0x38,0x26,0x7f,0x03,0x26,0x00,0x87,
0x3d,0x26,0x7f,0x08,0x26,0x00,0x87,0x38,0x26,0x7f,0x03,0x26,0x00,0x87,0x3d,0x26,
0x7f,0x08,0x26,0x00,0x87,0x38,0x26,0x7f,0x03,0x26,0x00,0x87,0x3d,0x26,0x7f,0x09,
0x26,0x00,0x87,0x37,0x26,0x7f,0x03,0x26,0x00,0x87,0x3d,0x26,0x7f,0x08,0x26,0x00,
0x87,0x38,0x26,0x7f,0x03,0x26,0x00,0x87,0x3d,0x26,0x7f,0x08,0x26,0x00,0x87,0x38,
0x26,0x7f,0x03,0x26,0x00,0x87,0x3d,0x26,0x7f,0x08,0x26,0x00,0x87,0x38,0x26,0x7f,
0x03,0x26,0x00,0x87,0x3d,0x26,0x7f,0x09,0x26,0x00,0x87,0x37,0x26,0x7f,0x03,0x26,
0x00,0x85,0x4d,0x26,0x7f,0x32,0x26,0x00,0x46,0x26,0x7f,0x30,0x26,0x00,0x48,0x26,
0x7f,0x00,0x26,0x7f,0x08,0x26,0x00,0x26,0x26,0x00,0x4a,0x26,0x7f,0x2d,0x26,0x00,
0x4b,0x26,0x7f,0x2d,0x26,0x00,0x4b,0x26,0x7f,0x2d,0x26,0x00,0x4b,0x26,0x7f,0x2a,
0x26,0x00,0x4e,0x26,0x7f,0x2f,0x26,0x00,0x00,0xff,0x2f,0x00,0x4d,0x54,0x72,0x6b,
0x00,0x00,0x0f,0x20,0x00,0xff,0x21,0x01,0x00,0x00,0xff,0x03,0x07,0x68,0x69,0x67,
0x68,0x68,0x61,0x74,0x00,0xc9,0x10,0x00,0xb9,0x07,0x7f,0x82,0xb3,0x40,0x99,0x2e,
0x7f,0x02,0x2e,0x00,0x76,0x2a,0x7f,0x02,0x2a,0x00,0x76,0x2a,0x7f,0x01,0x2a,0x00,
0x77,0x2a,0x7f,0x01,0x2a,0x00,0x77,0x2a,0x7f,0x01,0x2a,0x00,0x77,0x2a,0x7f,0x05,
0x2a,0x00,0x73,0x2a,0x7f,0x04,0x2a,0x00,0x74,0x2a,0x7f,0x02,0x2a,0x00,0x76,0x2a,
0x7f,0x02,0x2a,0x00,0x76,0x2a,0x7f,0x01,0x2a,0x00,0x77,0x2a,0x7f,0x07,0x2a,0x00,
0x71,0x2a,0x7f,0x02,0x2a,0x00,0x76,0x2a,0x7f,0x02,0x2a,0x00,0x76,0x2a,0x7f,0x05,
0x2a,0x00,0x73,0x2a,0x7f,0x02,0x2a,0x00,0x76,0x2a,0x7f,0x05,0x2a,0x00,0x73,0x2e,
0x7f,0x01,0x2e,0x00,0x77,0x2a,0x7f,0x02,0x2a,0x00,0x76,0x2a,0x7f,0x02,0x2a,0x00,
0x76,0x2a,0x7f,0x02,0x2a,0x00,0x76,0x2a,0x7f,0x01,0x2a,0x00,0x77,0x2a,0x7f,0x05,
0x2a,0x00,0x73,0x2a,0x7f,0x04,0x2a,0x00,0x74,0x2a,0x7f,0x01,0x2a,0x00,0x77,0x2a,
0x7f,0x01,0x2a,0x00,0x77,0x2a,0x7f,0x01,0x2a,0x00,0x77,0x2a,0x7f,0x08,0x2a,0x00,
0x70,0x2a,0x7f,0x01,0x2a,0x00,0x77,0x2a,0x7f,0x02,0x2a,0x00,0x76,0x2a,0x7f,0x05,
0x2a,0x00,0x73,0x2a,0x7f,0x02,0x2a,0x00,0x76,0x2a,0x7f,0x05,0x2a,0x00,0x73,0x2e,
0x7f,0x02,0x2e,0x00,0x76,0x2a,0x7f,0x03,0x2a,0x00,0x75,0x2a,0x7f,0x01,0x2a,0x00,
0x77,0x2a,0x7f,0x02,0x2a,0x00,0x76,0x2a,0x7f,0x02,0x2a,0x00,0x76,0x2a,0x7f,0x04,
0x2a,0x00,0x74,0x2a,0x7f,0x04,0x2a,0x00,0x74,0x2a,0x7f,0x01,0x2a,0x00,0x77,0x2a,
0x7f,0x02,0x2a,0x00,0x76,0x2a,0x7f,0x03,0x2a,0x00,0x75,0x2a,0x7f,0x07,0x2a,0x00,
0x71,0x2a,0x7f,0x02,0x2a,0x00,0x76,0x2a,0x7f,0x03,0x2a,0x00,0x75,0x2a,0x7f,0x04,
0x2a,0x00,0x74,0x2a,0x7f,0x02,0x2a,0x00,0x76,0x2a,0x7f,0x05,0x2a,0x00,0x73,0x2e,
0x7f,0x02,0x2e,0x00,0x76,0x2a,0x7f,0x02,0x2a,0x00,0x76,0x2a,0x7f,0x01,0x2a,0x00,
0x77,0x2a,0x7f,0x02,0x2a,0x00,0x76,0x2a,0x7f,0x02,0x2a,0x00,0x76,0x2a,0x7f,0x05,
0x2a,0x00,0x73,0x2a,0x7f,0x04,0x2a,0x00,0x74,0x2a,0x7f,0x01,0x2a,0x00,0x77,0x2a,
0x7f,0x01,0x2a,0x00,0x77,0x2a,0x7f,0x02,0x2a,0x00,0x76,0x2a,0x7f,0x07,0x2a,0x00,
0x71,0x2a,0x7f,0x02,0x2a,0x00,0x76,0x2a,0x7f,0x01,0x2a,0x00,0x77,0x2a,0x7f,0x05,
0x2a,0x00,0x73,0x2a,0x7f,0x01,0x2a,0x00,0x77,0x2a,0x7f,0x05,0x2a,0x00,0x73,0x2e,
0x7f,0x02,0x2e,0x00,0x76,0x2a,0x7f,0x02,0x2a,0x00,0x76,0x2a,0x7f,0x01,0x2a,0x00,
0x77,0x2a,0x7f,0x01,0x2a,0x00,0x77,0x2a,0x7f,0x01,0x2a,0x00,0x77,0x2a,0x7f,0x05,
0x2a,0x00,0x73,0x2a,0x7f,0x04,0x2a,0x00,0x74,0x2a,0x7f,0x02,0x2a,0x00,0x76,0x2a,
0x7f,0x02,0x2a,0x00,0x76,0x2a,0x7f,0x01,0x2a,0x00,0x77,0x2a,0x7f,0x07,0x2a,0x00,
0x71,0x2a,0x7f,0x02,0x2a,0x00,0x76,0x2a,0x7f,0x02,0x2a,0x00,0x76,0x2a,0x7f,0x05,
0x2a,0x00,0x73,0x2a,0x7f,0x02,0x2a,0x00,0x76,0x2a,0x7f,0x05,0x2a,0x00,0x73,0x2e,
0x7f,0x01,0x2e,0x00,0x77,0x2a,0x7f,0x02,0x2a,0x00,0x76,0x2a,0x7f,0x02,0x2a,0x00,
0x76,0x2a,0x7f,0x02,0x2a,0x00,0x76,0x2a,0x7f,0x01,0x2a,0x00,0x77,0x2a,0x7f,0x05,
0x2a,0x00,0x73,0x2a,0x7f,0x04,0x2a,0x00,0x74,0x2a,0x7f,0x01,0x2a,0x00,0x77,0x2a,
0x7f,0x01,0x2a,0x00,0x77,0x2a,0x7f,0x01,0x2a,0x00,0x77,0x2a,0x7f,0x08,0x2a,0x00,
0x70,0x2a,0x7f,0x01,0x2a,0x00,0x77,0x2a,0x7f,0x02,0x2a,0x00,0x76,0x2a,0x7f,0x05,
0x2a,0x00,0x73,0x2a,0x7f,0x02,0x2a,0x00,0x76,0x2a,0x7f,0x05,0x2a,0x00,0x73,0x2e,
0x7f,0x02,0x2e,0x00,0x76,0x2a,0x7f,0x03,0x2a,0x00,0x75,0x2a,0x7f,0x01,0x2a,0x00,
0x77,0x2a,0x7f,0x02,0x2a,0x00,0x76,0x2a,0x7f,0x02,0x2a,0x00,0x76,0x2a,0x7f,0x04,
0x2a,0x00,0x74,0x2a,0x7f,0x04,0x2a,0x00,0x74,0x2a,0x7f,0x01,0x2a,0x00,0x77,0x2a,
0x7f,0x02,0x2a,0x00,0x76,0x2a,0x7f,0x03,0x2a,0x00,0x75,0x2a,0x7f,0x07,0x2a,0x00,
0x71,0x2a,0x7f,0x02,0x2a,0x00,0x76,0x2a,0x7f,0x03,0x2a,0x00,0x75,0x2a,0x7f,0x04,
0x2a,0x00,0x74,0x2a,0x7f,0x02,0x2a,0x00,0x76,0x2a,0x7f,0x05,0x2a,0x00,0x8f,0x73,
0x2e,0x7f,0x02,0x2e,0x00,0x76,0x2a,0x7f,0x02,0x2a,0x00,0x76,0x2a,0x7f,0x01,0x2a,
0x00,0x77,0x2a,0x7f,0x02,0x2a,0x00,0x76,0x2a,0x7f,0x02,0x2a,0x00,0x76,0x2a,0x7f,
0x05,0x2a,0x00,0x73,0x2a,0x7f,0x04,0x2a,0x00,0x74,0x2a,0x7f,0x01,0x2a,0x00,0x77,
0x2a,0x7f,0x01,0x2a,0x00,0x77,0x2a,0x7f,0x02,0x2a,0x00,0x76,0x2a,0x7f,0x07,0x2a,
0x00,0x71,0x2a,0x7f,0x02,0x2a,0x00,0x76,0x2a,0x7f,0x01,0x2a,0x00,0x77,0x2a,0x7f,
0x05,0x2a,0x00,0x73,0x2a,0x7f,0x01,0x2a,0x00,0x77,0x2a,0x7f,0x05,0x2a,0x00,0x73,
0x2e,0x7f,0x02,0x2e,0x00,0x76,0x2a,0x7f,0x02,0x2a,0x00,0x76,0x2a,0x7f,0x01,0x2a,
0x00,0x77,0x2a,0x7f,0x01,0x2a,0x00,0x77,0x2a,0x7f,0x01,0x2a,0x00,0x77,0x2a,0x7f,
0x05,0x2a,0x00,0x73,0x2a,0x7f,0x04,0x2a,0x00,0x74,0x2a,0x7f,0x02,0x2a,0x00,0x76,
0x2a,0x7f,0x02,0x2a,0x00,0x76,0x2a,0x7f,0x01,0x2a,0x00,0x77,0x2a,0x7f,0x07,0x2a,
0x00,0x71,0x2a,0x7f,0x02,0x2a,0x00,0x76,0x2a,0x7f,0x02,0x2a,0x00,0x76,0x2a,0x7f,
0x05,0x2a,0x00,0x73,0x2a,0x7f,0x02,0x2a,0x00,0x76,0x2a,0x7f,0x05,0x2a,0x00,0x73,
0x2e,0x7f,0x02,0x2e,0x00,0x76,0x2a,0x7f,0x02,0x2a,0x00,0x76,0x2a,0x7f,0x01,0x2a,
0x00,0x77,0x2a,0x7f,0x02,0x2a,0x00,0x76,0x2a,0x7f,0x02,0x2a,0x00,0x76,0x2a,0x7f,
0x05,0x2a,0x00,0x73,0x2a,0x7f,0x04,0x2a,0x00,0x74,0x2a,0x7f,0x01,0x2a,0x00,0x77,
0x2a,0x7f,0x01,0x2a,0x00,0x77,0x2a,0x7f,0x02,0x2a,0x00,0x76,0x2a,0x7f,0x07,0x2a,
0x00,0x71,0x2a,0x7f,0x02,0x2a,0x00,0x76,0x2a,0x7f,0x01,0x2a,0x00,0x77,0x2a,0x7f,
0x05,0x2a,0x00,0x73,0x2a,0x7f,0x01,0x2a,0x00,0x77,0x2a,0x7f,0x05,0x2a,0x00,0x73,
0x2e,0x7f,0x02,0x2e,0x00,0x76,0x2a,0x7f,0x02,0x2a,0x00,0x76,0x2a,0x7f,0x01,0x2a,
0x00,0x77,0x2a,0x7f,0x01,0x2a,0x00,0x77,0x2a,0x7f,0x01,0x2a,0x00,0x77,0x2a,0x7f,
0x05,0x2a,0x00,0x73,0x2a,0x7f,0x04,0x2a,0x00,0x74,0x2a,0x7f,0x02,0x2a,0x00,0x76,
0x2a,0x7f,0x02,0x2a,0x00,0x76,0x2a,0x7f,0x01,0x2a,0x00,0x77,0x2a,0x7f,0x07,0x2a,
0x00,0x71,0x2a,0x7f,0x02,0x2a,0x00,0x76,0x2a,0x7f,0x02,0x2a,0x00,0x76,0x2a,0x7f,
0x05,0x2a,0x00,0x73,0x2a,0x7f,0x02,0x2a,0x00,0x76,0x2a,0x7f,0x05,0x2a,0x00,0x73,
0x2e,0x7f,0x01,0x2e,0x00,0x77,0x2a,0x7f,0x02,0x2a,0x00,0x76,0x2a,0x7f,0x02,0x2a,
0x00,0x76,0x2a,0x7f,0x02,0x2a,0x00,0x76,0x2a,0x7f,0x01,0x2a,0x00,0x77,0x2a,0x7f,
0x05,0x2a,0x00,0x73,0x2a,0x7f,0x04,0x2a,0x00,0x74,0x2a,0x7f,0x01,0x2a,0x00,0x77,
0x2a,0x7f,0x01,0x2a,0x00,0x77,0x2a,0x7f,0x01,0x2a,0x00,0x77,0x2a,0x7f,0x08,0x2a,
0x00,0x70,0x2a,0x7f,0x01,0x2a,0x00,0x77,0x2a,0x7f,0x02,0x2a,0x00,0x76,0x2a,0x7f,
0x05,0x2a,0x00,0x73,0x2a,0x7f,0x02,0x2a,0x00,0x76,0x2a,0x7f,0x05,0x2a,0x00,0x73,
0x2e,0x7f,0x02,0x2e,0x00,0x76,0x2a,0x7f,0x03,0x2a,0x00,0x75,0x2a,0x7f,0x01,0x2a,
0x00,0x77,0x2a,0x7f,0x02,0x2a,0x00,0x76,0x2a,0x7f,0x02,0x2a,0x00,0x76,0x2a,0x7f,
0x04,0x2a,0x00,0x74,0x2a,0x7f,0x04,0x2a,0x00,0x74,0x2a,0x7f,0x01,0x2a,0x00,0x77,
0x2a,0x7f,0x02,0x2a,0x00,0x76,0x2a,0x7f,0x03,0x2a,0x00,0x75,0x2a,0x7f,0x07,0x2a,
0x00,0x71,0x2a,0x7f,0x02,0x2a,0x00,0x76,0x2a,0x7f,0x03,0x2a,0x00,0x75,0x2a,0x7f,
0x04,0x2a,0x00,0x74,0x2a,0x7f,0x02,0x2a,0x00,0x76,0x2a,0x7f,0x05,0x2a,0x00,0x73,
0x2e,0x7f,0x02,0x2e,0x00,0x76,0x2a,0x7f,0x02,0x2a,0x00,0x76,0x2a,0x7f,0x01,0x2a,
0x00,0x77,0x2a,0x7f,0x02,0x2a,0x00,0x76,0x2a,0x7f,0x02,0x2a,0x00,0x76,0x2a,0x7f,
0x05,0x2a,0x00,0x73,0x2a,0x7f,0x04,0x2a,0x00,0x74,0x2a,0x7f,0x01,0x2a,0x00,0x77,
0x2a,0x7f,0x01,0x2a,0x00,0x77,0x2a,0x7f,0x02,0x2a,0x00,0x76,0x2a,0x7f,0x07,0x2a,
0x00,0x71,0x2a,0x7f,0x02,0x2a,0x00,0x76,0x2a,0x7f,0x01,0x2a,0x00,0x77,0x2a,0x7f,
0x05,0x2a,0x00,0x73,0x2a,0x7f,0x01,0x2a,0x00,0x77,0x2a,0x7f,0x05,0x2a,0x00,0x73,
0x2e,0x7f,0x02,0x2e,0x00,0x76,0x2a,0x7f,0x02,0x2a,0x00,0x76,0x2a,0x7f,0x01,0x2a,
0x00,0x77,0x2a,0x7f,0x01,0x2a,0x00,0x77,0x2a,0x7f,0x01,0x2a,0x00,0x77,0x2a,0x7f,
0x05,0x2a,0x00,0x73,0x2a,0x7f,0x04,0x2a,0x00,0x74,0x2a,0x7f,0x02,0x2a,0x00,0x76,
0x2a,0x7f,0x02,0x2a,0x00,0x76,0x2a,0x7f,0x01,0x2a,0x00,0x77,0x2a,0x7f,0x07,0x2a,
0x00,0x71,0x2a,0x7f,0x02,0x2a,0x00,0x76,0x2a,0x7f,0x02,0x2a,0x00,0x76,0x2a,0x7f,
0x05,0x2a,0x00,0x73,0x2a,0x7f,0x02,0x2a,0x00,0x76,0x2a,0x7f,0x05,0x2a,0x00,0x73,
0x2e,0x7f,0x01,0x2e,0x00,0x77,0x2a,0x7f,0x02,0x2a,0x00,0x76,0x2a,0x7f,0x02,0x2a,
0x00,0x76,0x2a,0x7f,0x02,0x2a,0x00,0x76,0x2a,0x7f,0x01,0x2a,0x00,0x77,0x2a,0x7f,
0x05,0x2a,0x00,0x73,0x2a,0x7f,0x04,0x2a,0x00,0x74,0x2a,0x7f,0x01,0x2a,0x00,0x77,
0x2a,0x7f,0x01,0x2a,0x00,0x77,0x2a,0x7f,0x01,0x2a,0x00,0x77,0x2a,0x7f,0x08,0x2a,
0x00,0x70,0x2a,0x7f,0x01,0x2a,0x00,0x77,0x2a,0x7f,0x02,0x2a,0x00,0x76,0x2a,0x7f,
0x05,0x2a,0x00,0x73,0x2a,0x7f,0x02,0x2a,0x00,0x76,0x2a,0x7f,0x05,0x2a,0x00,0x73,
0x2e,0x7f,0x02,0x2e,0x00,0x76,0x2a,0x7f,0x03,0x2a,0x00,0x75,0x2a,0x7f,0x01,0x2a,
0x00,0x77,0x2a,0x7f,0x02,0x2a,0x00,0x76,0x2a,0x7f,0x02,0x2a,0x00,0x76,0x2a,0x7f,
0x04,0x2a,0x00,0x74,0x2a,0x7f,0x04,0x2a,0x00,0x74,0x2a,0x7f,0x01,0x2a,0x00,0x77,
0x2a,0x7f,0x02,0x2a,0x00,0x76,0x2a,0x7f,0x03,0x2a,0x00,0x75,0x2a,0x7f,0x07,0x2a,
0x00,0x71,0x2a,0x7f,0x02,0x2a,0x00,0x76,0x2a,0x7f,0x03,0x2a,0x00,0x75,0x2a,0x7f,
0x04,0x2a,0x00,0x74,0x2a,0x7f,0x02,0x2a,0x00,0x76,0x2a,0x7f,0x05,0x2a,0x00,0x73,
0x2e,0x7f,0x02,0x2e,0x00,0x76,0x2a,0x7f,0x02,0x2a,0x00,0x76,0x2a,0x7f,0x01,0x2a,
0x00,0x77,0x2a,0x7f,0x01,0x2a,0x00,0x77,0x2a,0x7f,0x01,0x2a,0x00,0x77,0x2a,0x7f,
0x05,0x2a,0x00,0x73,0x2a,0x7f,0x04,0x2a,0x00,0x74,0x2a,0x7f,0x02,0x2a,0x00,0x76,
0x2a,0x7f,0x02,0x2a,0x00,0x76,0x2a,0x7f,0x01,0x2a,0x00,0x77,0x2a,0x7f,0x07,0x2a,
0x00,0x71,0x2a,0x7f,0x02,0x2a,0x00,0x76,0x2a,0x7f,0x02,0x2a,0x00,0x76,0x2a,0x7f,
0x05,0x2a,0x00,0x73,0x2a,0x7f,0x02,0x2a,0x00,0x76,0x2a,0x7f,0x05,0x2a,0x00,0x73,
0x2e,0x7f,0x01,0x2e,0x00,0x77,0x2a,0x7f,0x02,0x2a,0x00,0x76,0x2a,0x7f,0x02,0x2a,
0x00,0x76,0x2a,0x7f,0x02,0x2a,0x00,0x76,0x2a,0x7f,0x01,0x2a,0x00,0x77,0x2a,0x7f,
0x05,0x2a,0x00,0x73,0x2a,0x7f,0x04,0x2a,0x00,0x74,0x2a,0x7f,0x01,0x2a,0x00,0x77,
0x2a,0x7f,0x01,0x2a,0x00,0x77,0x2a,0x7f,0x01,0x2a,0x00,0x77,0x2a,0x7f,0x08,0x2a,
0x00,0x70,0x2a,0x7f,0x01,0x2a,0x00,0x77,0x2a,0x7f,0x02,0x2a,0x00,0x76,0x2a,0x7f,
0x05,0x2a,0x00,0x73,0x2a,0x7f,0x02,0x2a,0x00,0x76,0x2a,0x7f,0x05,0x2a,0x00,0x73,
0x2e,0x7f,0x02,0x2e,0x00,0x76,0x2a,0x7f,0x03,0x2a,0x00,0x75,0x2a,0x7f,0x01,0x2a,
0x00,0x77,0x2a,0x7f,0x02,0x2a,0x00,0x76,0x2a,0x7f,0x02,0x2a,0x00,0x76,0x2a,0x7f,
0x04,0x2a,0x00,0x74,0x2a,0x7f,0x04,0x2a,0x00,0x74,0x2a,0x7f,0x01,0x2a,0x00,0x77,
0x2a,0x7f,0x02,0x2a,0x00,0x76,0x2a,0x7f,0x03,0x2a,0x00,0x75,0x2a,0x7f,0x07,0x2a,
0x00,0x71,0x2a,0x7f,0x02,0x2a,0x00,0x76,0x2a,0x7f,0x03,0x2a,0x00,0x75,0x2a,0x7f,
0x04,0x2a,0x00,0x74,0x2a,0x7f,0x02,0x2a,0x00,0x76,0x2a,0x7f,0x05,0x2a,0x00,0x73,
0x2e,0x7f,0x02,0x2e,0x00,0x76,0x2a,0x7f,0x02,0x2a,0x00,0x76,0x2a,0x7f,0x01,0x2a,
0x00,0x77,0x2a,0x7f,0x02,0x2a,0x00,0x76,0x2a,0x7f,0x02,0x2a,0x00,0x76,0x2a,0x7f,
0x05,0x2a,0x00,0x73,0x2a,0x7f,0x04,0x2a,0x00,0x74,0x2a,0x7f,0x01,0x2a,0x00,0x77,
0x2a,0x7f,0x01,0x2a,0x00,0x77,0x2a,0x7f,0x02,0x2a,0x00,0x76,0x2a,0x7f,0x07,0x2a,
0x00,0x71,0x2a,0x7f,0x02,0x2a,0x00,0x76,0x2a,0x7f,0x01,0x2a,0x00,0x77,0x2a,0x7f,
0x05,0x2a,0x00,0x73,0x2a,0x7f,0x01,0x2a,0x00,0x77,0x2a,0x7f,0x05,0x2a,0x00,0x73,
0x2e,0x7f,0x02,0x2e,0x00,0x76,0x2a,0x7f,0x02,0x2a,0x00,0x76,0x2a,0x7f,0x01,0x2a,
0x00,0x77,0x2a,0x7f,0x01,0x2a,0x00,0x77,0x2a,0x7f,0x01,0x2a,0x00,0x77,0x2a,0x7f,
0x05,0x2a,0x00,0x73,0x2a,0x7f,0x04,0x2a,0x00,0x74,0x2a,0x7f,0x02,0x2a,0x00,0x76,
0x2a,0x7f,0x02,0x2a,0x00,0x76,0x2a,0x7f,0x01,0x2a,0x00,0x77,0x2a,0x7f,0x07,0x2a,
0x00,0x71,0x2a,0x7f,0x02,0x2a,0x00,0x76,0x2a,0x7f,0x02,0x2a,0x00,0x76,0x2a,0x7f,
0x05,0x2a,0x00,0x73,0x2a,0x7f,0x02,0x2a,0x00,0x76,0x2a,0x7f,0x05,0x2a,0x00,0x73,
0x2e,0x7f,0x01,0x2e,0x00,0x77,0x2a,0x7f,0x02,0x2a,0x00,0x76,0x2a,0x7f,0x02,0x2a,
0x00,0x76,0x2a,0x7f,0x02,0x2a,0x00,0x76,0x2a,0x7f,0x01,0x2a,0x00,0x77,0x2a,0x7f,
0x05,0x2a,0x00,0x73,0x2a,0x7f,0x04,0x2a,0x00,0x74,0x2a,0x7f,0x01,0x2a,0x00,0x77,
0x2a,0x7f,0x01,0x2a,0x00,0x77,0x2a,0x7f,0x01,0x2a,0x00,0x77,0x2a,0x7f,0x08,0x2a,
0x00,0x70,0x2a,0x7f,0x01,0x2a,0x00,0x77,0x2a,0x7f,0x02,0x2a,0x00,0x76,0x2a,0x7f,
0x05,0x2a,0x00,0x73,0x2a,0x7f,0x02,0x2a,0x00,0x76,0x2a,0x7f,0x05,0x2a,0x00,0x73,
0x2e,0x7f,0x02,0x2e,0x00,0x76,0x2a,0x7f,0x03,0x2a,0x00,0x75,0x2a,0x7f,0x01,0x2a,
0x00,0x77,0x2a,0x7f,0x02,0x2a,0x00,0x76,0x2a,0x7f,0x02,0x2a,0x00,0x76,0x2a,0x7f,
0x04,0x2a,0x00,0x74,0x2a,0x7f,0x04,0x2a,0x00,0x74,0x2a,0x7f,0x01,0x2a,0x00,0x77,
0x2a,0x7f,0x02,0x2a,0x00,0x76,0x2a,0x7f,0x03,0x2a,0x00,0x75,0x2a,0x7f,0x07,0x2a,
0x00,0x71,0x2a,0x7f,0x02,0x2a,0x00,0x76,0x2a,0x7f,0x03,0x2a,0x00,0x75,0x2a,0x7f,
0x04,0x2a,0x00,0x74,0x2a,0x7f,0x02,0x2a,0x00,0x76,0x2a,0x7f,0x05,0x2a,0x00,0x8f,
0x73,0x2e,0x7f,0x02,0x2e,0x00,0x76,0x2a,0x7f,0x02,0x2a,0x00,0x76,0x2a,0x7f,0x01,
0x2a,0x00,0x77,0x2a,0x7f,0x02,0x2a,0x00,0x76,0x2a,0x7f,0x02,0x2a,0x00,0x76,0x2a,
0x7f,0x05,0x2a,0x00,0x73,0x2a,0x7f,0x04,0x2a,0x00,0x74,0x2a,0x7f,0x01,0x2a,0x00,
0x77,0x2a,0x7f,0x01,0x2a,0x00,0x77,0x2a,0x7f,0x02,0x2a,0x00,0x76,0x2a,0x7f,0x07,
0x2a,0x00,0x71,0x2a,0x7f,0x02,0x2a,0x00,0x76,0x2a,0x7f,0x01,0x2a,0x00,0x77,0x2a,
0x7f,0x05,0x2a,0x00,0x73,0x2a,0x7f,0x01,0x2a,0x00,0x77,0x2a,0x7f,0x05,0x2a,0x00,
0x73,0x2e,0x7f,0x02,0x2e,0x00,0x76,0x2a,0x7f,0x02,0x2a,0x00,0x76,0x2a,0x7f,0x01,
0x2a,0x00,0x77,0x2a,0x7f,0x01,0x2a,0x00,0x77,0x2a,0x7f,0x01,0x2a,0x00,0x77,0x2a,
0x7f,0x05,0x2a,0x00,0x73,0x2a,0x7f,0x04,0x2a,0x00,0x74,0x2a,0x7f,0x02,0x2a,0x00,
0x76,0x2a,0x7f,0x02,0x2a,0x00,0x76,0x2a,0x7f,0x01,0x2a,0x00,0x77,0x2a,0x7f,0x07,
0x2a,0x00,0x71,0x2a,0x7f,0x02,0x2a,0x00,0x76,0x2a,0x7f,0x02,0x2a,0x00,0x76,0x2a,
0x7f,0x05,0x2a,0x00,0x73,0x2a,0x7f,0x02,0x2a,0x00,0x76,0x2a,0x7f,0x05,0x2a,0x00,
0x73,0x2e,0x7f,0x01,0x2e,0x00,0x77,0x2a,0x7f,0x02,0x2a,0x00,0x76,0x2a,0x7f,0x02,
0x2a,0x00,0x76,0x2a,0x7f,0x02,0x2a,0x00,0x76,0x2a,0x7f,0x01,0x2a,0x00,0x77,0x2a,
0x7f,0x05,0x2a,0x00,0x73,0x2a,0x7f,0x04,0x2a,0x00,0x74,0x2a,0x7f,0x01,0x2a,0x00,
0x77,0x2a,0x7f,0x01,0x2a,0x00,0x77,0x2a,0x7f,0x01,0x2a,0x00,0x77,0x2a,0x7f,0x08,
0x2a,0x00,0x70,0x2a,0x7f,0x01,0x2a,0x00,0x77,0x2a,0x7f,0x02,0x2a,0x00,0x76,0x2a,
0x7f,0x05,0x2a,0x00,0x73,0x2a,0x7f,0x02,0x2a,0x00,0x76,0x2a,0x7f,0x05,0x2a,0x00,
0x73,0x2e,0x7f,0x02,0x2e,0x00,0x76,0x2a,0x7f,0x03,0x2a,0x00,0x75,0x2a,0x7f,0x01,
0x2a,0x00,0x77,0x2a,0x7f,0x02,0x2a,0x00,0x76,0x2a,0x7f,0x02,0x2a,0x00,0x76,0x2a,
0x7f,0x04,0x2a,0x00,0x74,0x2a,0x7f,0x04,0x2a,0x00,0x74,0x2a,0x7f,0x01,0x2a,0x00,
0x77,0x2a,0x7f,0x02,0x2a,0x00,0x76,0x2a,0x7f,0x03,0x2a,0x00,0x75,0x2a,0x7f,0x07,
0x2a,0x00,0x71,0x2a,0x7f,0x02,0x2a,0x00,0x76,0x2a,0x7f,0x03,0x2a,0x00,0x75,0x2a,
0x7f,0x04,0x2a,0x00,0x74,0x2a,0x7f,0x02,0x2a,0x00,0x76,0x2a,0x7f,0x05,0x2a,0x00,
0x73,0x2e,0x7f,0x02,0x2e,0x00,0x76,0x2a,0x7f,0x02,0x2a,0x00,0x76,0x2a,0x7f,0x01,
0x2a,0x00,0x77,0x2a,0x7f,0x02,0x2a,0x00,0x76,0x2a,0x7f,0x02,0x2a,0x00,0x76,0x2a,
0x7f,0x05,0x2a,0x00,0x73,0x2a,0x7f,0x04,0x2a,0x00,0x74,0x2a,0x7f,0x01,0x2a,0x00,
0x77,0x2a,0x7f,0x01,0x2a,0x00,0x77,0x2a,0x7f,0x02,0x2a,0x00,0x76,0x2a,0x7f,0x07,
0x2a,0x00,0x71,0x2a,0x7f,0x02,0x2a,0x00,0x76,0x2a,0x7f,0x01,0x2a,0x00,0x77,0x2a,
0x7f,0x05,0x2a,0x00,0x73,0x2a,0x7f,0x01,0x2a,0x00,0x77,0x2a,0x7f,0x05,0x2a,0x00,
0x73,0x2e,0x7f,0x02,0x2e,0x00,0x76,0x2a,0x7f,0x02,0x2a,0x00,0x76,0x2a,0x7f,0x01,
0x2a,0x00,0x77,0x2a,0x7f,0x01,0x2a,0x00,0x77,0x2a,0x7f,0x01,0x2a,0x00,0x77,0x2a,
0x7f,0x05,0x2a,0x00,0x73,0x2a,0x7f,0x04,0x2a,0x00,0x74,0x2a,0x7f,0x02,0x2a,0x00,
0x76,0x2a,0x7f,0x02,0x2a,0x00,0x76,0x2a,0x7f,0x01,0x2a,0x00,0x77,0x2a,0x7f,0x07,
0x2a,0x00,0x71,0x2a,0x7f,0x02,0x2a,0x00,0x76,0x2a,0x7f,0x02,0x2a,0x00,0x76,0x2a,
0x7f,0x05,0x2a,0x00,0x73,0x2a,0x7f,0x02,0x2a,0x00,0x76,0x2a,0x7f,0x05,0x2a,0x00,
0x73,0x2e,0x7f,0x01,0x2e,0x00,0x77,0x2a,0x7f,0x02,0x2a,0x00,0x76,0x2a,0x7f,0x02,
0x2a,0x00,0x76,0x2a,0x7f,0x02,0x2a,0x00,0x76,0x2a,0x7f,0x01,0x2a,0x00,0x77,0x2a,
0x7f,0x05,0x2a,0x00,0x73,0x2a,0x7f,0x04,0x2a,0x00,0x74,0x2a,0x7f,0x01,0x2a,0x00,
0x77,0x2a,0x7f,0x01,0x2a,0x00,0x77,0x2a,0x7f,0x01,0x2a,0x00,0x77,0x2a,0x7f,0x08,
0x2a,0x00,0x70,0x2a,0x7f,0x01,0x2a,0x00,0x77,0x2a,0x7f,0x02,0x2a,0x00,0x76,0x2a,
0x7f,0x05,0x2a,0x00,0x73,0x2a,0x7f,0x02,0x2a,0x00,0x76,0x2a,0x7f,0x05,0x2a,0x00,
0x73,0x2e,0x7f,0x02,0x2e,0x00,0x76,0x2a,0x7f,0x03,0x2a,0x00,0x75,0x2a,0x7f,0x01,
0x2a,0x00,0x77,0x2a,0x7f,0x02,0x2a,0x00,0x76,0x2a,0x7f,0x02,0x2a,0x00,0x76,0x2a,
0x7f,0x04,0x2a,0x00,0x74,0x2a,0x7f,0x04,0x2a,0x00,0x74,0x2a,0x7f,0x01,0x2a,0x00,
0x77,0x2a,0x7f,0x02,0x2a,0x00,0x76,0x2a,0x7f,0x03,0x2a,0x00,0x75,0x2a,0x7f,0x07,
0x2a,0x00,0x71,0x2a,0x7f,0x02,0x2a,0x00,0x76,0x2a,0x7f,0x03,0x2a,0x00,0x75,0x2a,
0x7f,0x04,0x2a,0x00,0x74,0x2a,0x7f,0x02,0x2a,0x00,0x76,0x2a,0x7f,0x05,0x2a,0x00,
0x73,0x2e,0x7f,0x02,0x2e,0x00,0x76,0x2a,0x7f,0x02,0x2a,0x00,0x76,0x2a,0x7f,0x01,
0x2a,0x00,0x77,0x2a,0x7f,0x02,0x2a,0x00,0x76,0x2a,0x7f,0x02,0x2a,0x00,0x76,0x2a,
0x7f,0x05,0x2a,0x00,0x73,0x2a,0x7f,0x04,0x2a,0x00,0x74,0x2a,0x7f,0x01,0x2a,0x00,
0x77,0x2a,0x7f,0x01,0x2a,0x00,0x77,0x2a,0x7f,0x02,0x2a,0x00,0x76,0x2a,0x7f,0x07,
0x2a,0x00,0x71,0x2a,0x7f,0x02,0x2a,0x00,0x76,0x2a,0x7f,0x01,0x2a,0x00,0x77,0x2a,
0x7f,0x05,0x2a,0x00,0x73,0x2a,0x7f,0x01,0x2a,0x00,0x77,0x2a,0x7f,0x05,0x2a,0x00,
0x73,0x2e,0x7f,0x02,0x2e,0x00,0x76,0x2a,0x7f,0x02,0x2a,0x00,0x76,0x2a,0x7f,0x01,
0x2a,0x00,0x77,0x2a,0x7f,0x01,0x2a,0x00,0x77,0x2a,0x7f,0x01,0x2a,0x00,0x77,0x2a,
0x7f,0x05,0x2a,0x00,0x73,0x2a,0x7f,0x04,0x2a,0x00,0x74,0x2a,0x7f,0x02,0x2a,0x00,
0x76,0x2a,0x7f,0x02,0x2a,0x00,0x76,0x2a,0x7f,0x01,0x2a,0x00,0x77,0x2a,0x7f,0x07,
0x2a,0x00,0x71,0x2a,0x7f,0x02,0x2a,0x00,0x76,0x2a,0x7f,0x02,0x2a,0x00,0x76,0x2a,
0x7f,0x05,0x2a,0x00,0x73,0x2a,0x7f,0x02,0x2a,0x00,0x76,0x2a,0x7f,0x05,0x2a,0x00,
0x73,0x2e,0x7f,0x01,0x2e,0x00,0x77,0x2a,0x7f,0x02,0x2a,0x00,0x76,0x2a,0x7f,0x02,
0x2a,0x00,0x76,0x2a,0x7f,0x02,0x2a,0x00,0x76,0x2a,0x7f,0x01,0x2a,0x00,0x77,0x2a,
0x7f,0x05,0x2a,0x00,0x73,0x2a,0x7f,0x04,0x2a,0x00,0x74,0x2a,0x7f,0x01,0x2a,0x00,
0x77,0x2a,0x7f,0x01,0x2a,0x00,0x77,0x2a,0x7f,0x01,0x2a,0x00,0x77,0x2a,0x7f,0x08,
0x2a,0x00,0x70,0x2a,0x7f,0x01,0x2a,0x00,0x77,0x2a,0x7f,0x02,0x2a,0x00,0x76,0x2a,
0x7f,0x05,0x2a,0x00,0x73,0x2a,0x7f,0x02,0x2a,0x00,0x76,0x2a,0x7f,0x05,0x2a,0x00,
0x73,0x2e,0x7f,0x02,0x2e,0x00,0x76,0x2a,0x7f,0x03,0x2a,0x00,0x75,0x2a,0x7f,0x01,
0x2a,0x00,0x77,0x2a,0x7f,0x02,0x2a,0x00,0x76,0x2a,0x7f,0x02,0x2a,0x00,0x76,0x2a,
0x7f,0x04,0x2a,0x00,0x74,0x2a,0x7f,0x04,0x2a,0x00,0x74,0x2a,0x7f,0x01,0x2a,0x00,
0x77,0x2a,0x7f,0x02,0x2a,0x00,0x76,0x2a,0x7f,0x03,0x2a,0x00,0x75,0x2a,0x7f,0x07,
0x2a,0x00,0x71,0x2a,0x7f,0x02,0x2a,0x00,0x76,0x2a,0x7f,0x03,0x2a,0x00,0x75,0x2a,
0x7f,0x04,0x2a,0x00,0x74,0x2a,0x7f,0x02,0x2a,0x00,0x76,0x2a,0x7f,0x05,0x2a,0x00,
0x73,0x2e,0x7f,0x02,0x2e,0x00,0x76,0x2a,0x7f,0x02,0x2a,0x00,0x76,0x2a,0x7f,0x01,
0x2a,0x00,0x77,0x2a,0x7f,0x02,0x2a,0x00,0x76,0x2a,0x7f,0x02,0x2a,0x00,0x76,0x2a,
0x7f,0x05,0x2a,0x00,0x73,0x2a,0x7f,0x04,0x2a,0x00,0x74,0x2a,0x7f,0x01,0x2a,0x00,
0x77,0x2a,0x7f,0x01,0x2a,0x00,0x77,0x2a,0x7f,0x02,0x2a,0x00,0x76,0x2a,0x7f,0x07,
0x2a,0x00,0x71,0x2a,0x7f,0x02,0x2a,0x00,0x76,0x2a,0x7f,0x01,0x2a,0x00,0x77,0x2a,
0x7f,0x05,0x2a,0x00,0x73,0x2a,0x7f,0x01,0x2a,0x00,0x77,0x2a,0x7f,0x05,0x2a,0x00,
0x73,0x2e,0x7f,0x02,0x2e,0x00,0x76,0x2a,0x7f,0x02,0x2a,0x00,0x76,0x2a,0x7f,0x01,
0x2a,0x00,0x77,0x2a,0x7f,0x01,0x2a,0x00,0x77,0x2a,0x7f,0x01,0x2a,0x00,0x77,0x2a,
0x7f,0x05,0x2a,0x00,0x73,0x2a,0x7f,0x04,0x2a,0x00,0x74,0x2a,0x7f,0x02,0x2a,0x00,
0x76,0x2a,0x7f,0x02,0x2a,0x00,0x76,0x2a,0x7f,0x01,0x2a,0x00,0x77,0x2a,0x7f,0x07,
0x2a,0x00,0x71,0x2a,0x7f,0x02,0x2a,0x00,0x76,0x2a,0x7f,0x02,0x2a,0x00,0x76,0x2a,
0x7f,0x05,0x2a,0x00,0x73,0x2a,0x7f,0x02,0x2a,0x00,0x76,0x2a,0x7f,0x05,0x2a,0x00,
0x73,0x2e,0x7f,0x01,0x2e,0x00,0x77,0x2a,0x7f,0x02,0x2a,0x00,0x76,0x2a,0x7f,0x02,
0x2a,0x00,0x76,0x2a,0x7f,0x02,0x2a,0x00,0x76,0x2a,0x7f,0x01,0x2a,0x00,0x77,0x2a,
0x7f,0x05,0x2a,0x00,0x73,0x2a,0x7f,0x04,0x2a,0x00,0x74,0x2a,0x7f,0x01,0x2a,0x00,
0x77,0x2a,0x7f,0x01,0x2a,0x00,0x77,0x2a,0x7f,0x01,0x2a,0x00,0x77,0x2a,0x7f,0x08,
0x2a,0x00,0x70,0x2a,0x7f,0x01,0x2a,0x00,0x77,0x2a,0x7f,0x02,0x2a,0x00,0x76,0x2a,
0x7f,0x05,0x2a,0x00,0x73,0x2a,0x7f,0x02,0x2a,0x00,0x76,0x2a,0x7f,0x05,0x2a,0x00,
0x73,0x2e,0x7f,0x02,0x2e,0x00,0x76,0x2a,0x7f,0x03,0x2a,0x00,0x75,0x2a,0x7f,0x01,
0x2a,0x00,0x77,0x2a,0x7f,0x02,0x2a,0x00,0x76,0x2a,0x7f,0x02,0x2a,0x00,0x76,0x2a,
0x7f,0x04,0x2a,0x00,0x74,0x2a,0x7f,0x04,0x2a,0x00,0x74,0x2a,0x7f,0x01,0x2a,0x00,
0x77,0x2a,0x7f,0x02,0x2a,0x00,0x76,0x2a,0x7f,0x03,0x2a,0x00,0x75,0x2a,0x7f,0x07,
0x2a,0x00,0x71,0x2a,0x7f,0x02,0x2a,0x00,0x76,0x2a,0x7f,0x03,0x2a,0x00,0x75,0x2a,
0x7f,0x04,0x2a,0x00,0x74,0x2a,0x7f,0x02,0x2a,0x00,0x76,0x2a,0x7f,0x05,0x2a,0x00,
0x00,0xff,0x2f,0x00,0x4d,0x54,0x72,0x6b,0x00,0x00,0x00,0x5c,0x00,0xff,0x21,0x01,
0x00,0x00,0xff,0x03,0x0c,0x63,0x72,0x61,0x73,0x68,0x20,0x63,0x79,0x6d,0x62,0x61,
0x6c,0x00,0xc9,0x10,0x00,0xb9,0x07,0x7f,0x81,0xf5,0x50,0x99,0x34,0x7f,0x46,0x34,
0x00,0x32,0x34,0x7f,0x46,0x34,0x00,0x81,0xa8,0x1a,0x31,0x7f,0x5a,0x31,0x00,0x85,
0x6e,0x31,0x7f,0x31,0x31,0x00,0x81,0x9b,0x1f,0x31,0x2d,0x2f,0x31,0x00,0xeb,0x39,
0x31,0x7f,0x5a,0x31,0x00,0x85,0x6e,0x31,0x7f,0x31,0x31,0x00,0x81,0xf5,0x1f,0x31,
0x2d,0x31,0x31,0x00,0x00,0xff,0x2f,0x00,0x4d,0x54,0x72,0x6b,0x00,0x00,0x02,0x29,
0x00,0xff,0x21,0x01,0x00,0x00,0xff,0x03,0x0b,0x72,0x69,0x64,0x65,0x20,0x63,0x79,
0x6d,0x62,0x61,0x6c,0x00,0xc9,0x10,0x00,0xb9,0x07,0x7f,0x82,0xb8,0x18,0x99,0x35,
0x7f,0x00,0x35,0x7f,0x02,0x35,0x00,0x01,0x35,0x00,0x8e,0x7d,0x35,0x7f,0x00,0x35,
0x7f,0x03,0x35,0x00,0x01,0x35,0x00,0x8e,0x7c,0x35,0x7f,0x00,0x35,0x7f,0x04,0x35,
0x00,0x00,0x35,0x00,0x8e,0x7c,0x35,0x7f,0x00,0x35,0x7f,0x04,0x35,0x00,0x00,0x35,
0x00,0x8e,0x7c,0x35,0x7f,0x00,0x35,0x7f,0x02,0x35,0x00,0x01,0x35,0x00,0x8e,0x7d,
0x35,0x7f,0x00,0x35,0x7f,0x03,0x35,0x00,0x01,0x35,0x00,0x8e,0x7c,0x35,0x7f,0x00,
0x35,0x7f,0x04,0x35,0x00,0x00,0x35,0x00,0x9d,0x7c,0x35,0x7f,0x00,0x35,0x7f,0x04,
0x35,0x00,0x00,0x35,0x00,0x8e,0x7c,0x35,0x7f,0x00,0x35,0x7f,0x02,0x35,0x00,0x01,
0x35,0x00,0x8e,0x7d,0x35,0x7f,0x00,0x35,0x7f,0x04,0x35,0x00,0x00,0x35,0x00,0x8e,
0x7c,0x35,0x7f,0x00,0x35,0x7f,0x02,0x35,0x00,0x01,0x35,0x00,0x8e,0x7d,0x35,0x7f,
0x00,0x35,0x7f,0x03,0x35,0x00,0x01,0x35,0x00,0x8e,0x7c,0x35,0x7f,0x00,0x35,0x7f,
0x04,0x35,0x00,0x00,0x35,0x00,0x8e,0x7c,0x35,0x7f,0x00,0x35,0x7f,0x04,0x35,0x00,
0x00,0x35,0x00,0x8e,0x7c,0x35,0x7f,0x00,0x35,0x7f,0x02,0x35,0x00,0x01,0x35,0x00,
0x8e,0x7d,0x35,0x7f,0x00,0x35,0x7f,0x03,0x35,0x00,0x01,0x35,0x00,0x8e,0x7c,0x35,
0x7f,0x00,0x35,0x7f,0x04,0x35,0x00,0x00,0x35,0x00,0x8e,0x7c,0x35,0x7f,0x00,0x35,
0x7f,0x02,0x35,0x00,0x01,0x35,0x00,0x8e,0x7d,0x35,0x7f,0x00,0x35,0x7f,0x03,0x35,
0x00,0x01,0x35,0x00,0x8e,0x7c,0x35,0x7f,0x00,0x35,0x7f,0x04,0x35,0x00,0x00,0x35,
0x00,0x8e,0x7c,0x35,0x7f,0x00,0x35,0x7f,0x04,0x35,0x00,0x00,0x35,0x00,0x8e,0x7c,
0x35,0x7f,0x00,0x35,0x7f,0x02,0x35,0x00,0x01,0x35,0x00,0x8e,0x7d,0x35,0x7f,0x00,
0x35,0x7f,0x03,0x35,0x00,0x01,0x35,0x00,0x8e,0x7c,0x35,0x7f,0x00,0x35,0x7f,0x04,
0x35,0x00,0x00,0x35,0x00,0x9d,0x7c,0x35,0x7f,0x00,0x35,0x7f,0x04,0x35,0x00,0x00,
0x35,0x00,0x8e,0x7c,0x35,0x7f,0x00,0x35,0x7f,0x02,0x35,0x00,0x01,0x35,0x00,0x8e,
0x7d,0x35,0x7f,0x00,0x35,0x7f,0x03,0x35,0x00,0x01,0x35,0x00,0x8e,0x7c,0x35,0x7f,
0x00,0x35,0x7f,0x04,0x35,0x00,0x00,0x35,0x00,0x8e,0x7c,0x35,0x7f,0x00,0x35,0x7f,
0x04,0x35,0x00,0x00,0x35,0x00,0x8e,0x7c,0x35,0x7f,0x00,0x35,0x7f,0x02,0x35,0x00,
0x01,0x35,0x00,0x8e,0x7d,0x35,0x7f,0x00,0x35,0x7f,0x03,0x35,0x00,0x01,0x35,0x00,
0x8e,0x7c,0x35,0x7f,0x00,0x35,0x7f,0x04,0x35,0x00,0x00,0x35,0x00,0x8e,0x7c,0x35,
0x7f,0x00,0x35,0x7f,0x04,0x35,0x00,0x00,0x35,0x00,0x8e,0x7c,0x35,0x7f,0x00,0x35,
0x7f,0x02,0x35,0x00,0x01,0x35,0x00,0x8e,0x7d,0x35,0x7f,0x00,0x35,0x7f,0x03,0x35,
0x00,0x01,0x35,0x00,0x8e,0x7c,0x35,0x7f,0x00,0x35,0x7f,0x04,0x35,0x00,0x00,0x35,
0x00,0x8e,0x7c,0x35,0x7f,0x00,0x35,0x7f,0x04,0x35,0x00,0x00,0x35,0x00,0x8e,0x7c,
0x35,0x7f,0x00,0x35,0x7f,0x02,0x35,0x00,0x01,0x35,0x00,0x8e,0x7d,0x35,0x7f,0x00,
0x35,0x7f,0x03,0x35,0x00,0x01,0x35,0x00,0x8e,0x7c,0x35,0x7f,0x00,0x35,0x7f,0x04,
0x35,0x00,0x00,0x35,0x00,0x00,0xff,0x2f,0x00,0x4d,0x54,0x72,0x6b,0x00,0x00,0x04,
0x07,0x00,0xff,0x21,0x01,0x00,0x00,0xff,0x03,0x09,0x74,0x61,0x6d,0x62,0x6f,0x72,
0x69,0x6e,0x65,0x00,0xc9,0x10,0x00,0xb9,0x07,0x7f,0x82,0xbc,0x70,0x99,0x36,0x7f,
0x00,0x36,0x7f,0x00,0x36,0x7f,0x00,0x36,0x7f,0x07,0x36,0x00,0x03,0x36,0x00,0x00,
0x36,0x00,0x01,0x36,0x00,0x8e,0x75,0x36,0x7f,0x00,0x36,0x7f,0x00,0x36,0x7f,0x00,
0x36,0x7f,0x08,0x36,0x00,0x00,0x36,0x00,0x00,0x36,0x00,0x01,0x36,0x00,0x8e,0x77,
0x36,0x7f,0x00,0x36,0x7f,0x00,0x36,0x7f,0x00,0x36,0x7f,0x07,0x36,0x00,0x01,0x36,
0x00,0x00,0x36,0x00,0x01,0x36,0x00,0x8e,0x77,0x36,0x7f,0x00,0x36,0x7f,0x00,0x36,
0x7f,0x00,0x36,0x7f,0x05,0x36,0x00,0x01,0x36,0x00,0x01,0x36,0x00,0x01,0x36,0x00,
0x8e,0x78,0x36,0x7f,0x00,0x36,0x7f,0x00,0x36,0x7f,0x00,0x36,0x7f,0x07,0x36,0x00,
0x03,0x36,0x00,0x00,0x36,0x00,0x01,0x36,0x00,0x8e,0x75,0x36,0x7f,0x00,0x36,0x7f,
0x00,0x36,0x7f,0x00,0x36,0x7f,0x08,0x36,0x00,0x00,0x36,0x00,0x00,0x36,0x00,0x01,
0x36,0x00,0x8e,0x77,0x36,0x7f,0x00,0x36,0x7f,0x00,0x36,0x7f,0x00,0x36,0x7f,0x07,
0x36,0x00,0x01,0x36,0x00,0x00,0x36,0x00,0x01,0x36,0x00,0x9d,0x77,0x36,0x7f,0x00,
0x36,0x7f,0x00,0x36,0x7f,0x00,0x36,0x7f,0x05,0x36,0x00,0x01,0x36,0x00,0x01,0x36,
0x00,0x01,0x36,0x00,0x8e,0x78,0x36,0x7f,0x00,0x36,0x7f,0x00,0x36,0x7f,0x00,0x36,
0x7f,0x07,0x36,0x00,0x03,0x36,0x00,0x00,0x36,0x00,0x01,0x36,0x00,0x8e,0x75,0x36,
0x7f,0x00,0x36,0x7f,0x00,0x36,0x7f,0x00,0x36,0x7f,0x05,0x36,0x00,0x01,0x36,0x00,
0x01,0x36,0x00,0x01,0x36,0x00,0x8e,0x78,0x36,0x7f,0x00,0x36,0x7f,0x00,0x36,0x7f,
0x00,0x36,0x7f,0x07,0x36,0x00,0x03,0x36,0x00,0x00,0x36,0x00,0x01,0x36,0x00,0x8e,
0x75,0x36,0x7f,0x00,0x36,0x7f,0x00,0x36,0x7f,0x00,0x36,0x7f,0x08,0x36,0x00,0x00,
0x36,0x00,0x00,0x36,0x00,0x01,0x36,0x00,0x8e,0x77,0x36,0x7f,0x00,0x36,0x7f,0x00,
0x36,0x7f,0x00,0x36,0x7f,0x07,0x36,0x00,0x01,0x36,0x00,0x00,0x36,0x00,0x01,0x36,
0x00,0x8e,0x77,0x36,0x7f,0x00,0x36,0x7f,0x00,0x36,0x7f,0x00,0x36,0x7f,0x05,0x36,
0x00,0x01,0x36,0x00,0x01,0x36,0x00,0x01,0x36,0x00,0x8e,0x78,0x36,0x7f,0x00,0x36,
0x7f,0x00,0x36,0x7f,0x00,0x36,0x7f,0x07,0x36,0x00,0x03,0x36,0x00,0x00,0x36,0x00,
0x01,0x36,0x00,0x8e,0x75,0x36,0x7f,0x00,0x36,0x7f,0x00,0x36,0x7f,0x00,0x36,0x7f,
0x08,0x36,0x00,0x00,0x36,0x00,0x00,0x36,0x00,0x01,0x36,0x00,0x8e,0x77,0x36,0x7f,
0x00,0x36,0x7f,0x00,0x36,0x7f,0x00,0x36,0x7f,0x07,0x36,0x00,0x01,0x36,0x00,0x00,
0x36,0x00,0x01,0x36,0x00,0x8e,0x77,0x36,0x7f,0x00,0x36,0x7f,0x00,0x36,0x7f,0x00,
0x36,0x7f,0x07,0x36,0x00,0x03,0x36,0x00,0x00,0x36,0x00,0x01,0x36,0x00,0x8e,0x75,
0x36,0x7f,0x00,0x36,0x7f,0x00,0x36,0x7f,0x00,0x36,0x7f,0x08,0x36,0x00,0x00,0x36,
0x00,0x00,0x36,0x00,0x01,0x36,0x00,0x8e,0x77,0x36,0x7f,0x00,0x36,0x7f,0x00,0x36,
0x7f,0x00,0x36,0x7f,0x07,0x36,0x00,0x01,0x36,0x00,0x00,0x36,0x00,0x01,0x36,0x00,
0x8e,0x77,0x36,0x7f,0x00,0x36,0x7f,0x00,0x36,0x7f,0x00,0x36,0x7f,0x05,0x36,0x00,
0x01,0x36,0x00,0x01,0x36,0x00,0x01,0x36,0x00,0x8e,0x78,0x36,0x7f,0x00,0x36,0x7f,
0x00,0x36,0x7f,0x00,0x36,0x7f,0x07,0x36,0x00,0x03,0x36,0x00,0x00,0x36,0x00,0x01,
0x36,0x00,0x8e,0x75,0x36,0x7f,0x00,0x36,0x7f,0x00,0x36,0x7f,0x00,0x36,0x7f,0x08,
0x36,0x00,0x00,0x36,0x00,0x00,0x36,0x00,0x01,0x36,0x00,0x8e,0x77,0x36,0x7f,0x00,
0x36,0x7f,0x00,0x36,0x7f,0x00,0x36,0x7f,0x07,0x36,0x00,0x01,0x36,0x00,0x00,0x36,
0x00,0x01,0x36,0x00,0x9d,0x77,0x36,0x7f,0x00,0x36,0x7f,0x00,0x36,0x7f,0x00,0x36,
0x7f,0x05,0x36,0x00,0x01,0x36,0x00,0x01,0x36,0x00,0x01,0x36,0x00,0x8e,0x78,0x36,
0x7f,0x00,0x36,0x7f,0x00,0x36,0x7f,0x00,0x36,0x7f,0x07,0x36,0x00,0x03,0x36,0x00,
0x00,0x36,0x00,0x01,0x36,0x00,0x8e,0x75,0x36,0x7f,0x00,0x36,0x7f,0x00,0x36,0x7f,
0x00,0x36,0x7f,0x08,0x36,0x00,0x00,0x36,0x00,0x00,0x36,0x00,0x01,0x36,0x00,0x8e,
0x77,0x36,0x7f,0x00,0x36,0x7f,0x00,0x36,0x7f,0x00,0x36,0x7f,0x07,0x36,0x00,0x01,
0x36,0x00,0x00,0x36,0x00,0x01,0x36,0x00,0x8e,0x77,0x36,0x7f,0x00,0x36,0x7f,0x00,
0x36,0x7f,0x00,0x36,0x7f,0x05,0x36,0x00,0x01,0x36,0x00,0x01,0x36,0x00,0x01,0x36,
0x00,0x8e,0x78,0x36,0x7f,0x00,0x36,0x7f,0x00,0x36,0x7f,0x00,0x36,0x7f,0x07,0x36,
0x00,0x03,0x36,0x00,0x00,0x36,0x00,0x01,0x36,0x00,0x8e,0x75,0x36,0x7f,0x00,0x36,
0x7f,0x00,0x36,0x7f,0x00,0x36,0x7f,0x08,0x36,0x00,0x00,0x36,0x00,0x00,0x36,0x00,
0x01,0x36,0x00,0x8e,0x77,0x36,0x7f,0x00,0x36,0x7f,0x00,0x36,0x7f,0x00,0x36,0x7f,
0x07,0x36,0x00,0x01,0x36,0x00,0x00,0x36,0x00,0x01,0x36,0x00,0x8e,0x77,0x36,0x7f,
0x00,0x36,0x7f,0x00,0x36,0x7f,0x00,0x36,0x7f,0x05,0x36,0x00,0x01,0x36,0x00,0x01,
0x36,0x00,0x01,0x36,0x00,0x8e,0x78,0x36,0x7f,0x00,0x36,0x7f,0x00,0x36,0x7f,0x00,
0x36,0x7f,0x07,0x36,0x00,0x03,0x36,0x00,0x00,0x36,0x00,0x01,0x36,0x00,0x8e,0x75,
0x36,0x7f,0x00,0x36,0x7f,0x00,0x36,0x7f,0x00,0x36,0x7f,0x08,0x36,0x00,0x00,0x36,
0x00,0x00,0x36,0x00,0x01,0x36,0x00,0x8e,0x77,0x36,0x7f,0x00,0x36,0x7f,0x00,0x36,
0x7f,0x00,0x36,0x7f,0x07,0x36,0x00,0x01,0x36,0x00,0x00,0x36,0x00,0x01,0x36,0x00,
0x8e,0x77,0x36,0x7f,0x00,0x36,0x7f,0x00,0x36,0x7f,0x00,0x36,0x7f,0x05,0x36,0x00,
0x01,0x36,0x00,0x01,0x36,0x00,0x01,0x36,0x00,0x8e,0x78,0x36,0x7f,0x00,0x36,0x7f,
0x00,0x36,0x7f,0x00,0x36,0x7f,0x07,0x36,0x00,0x03,0x36,0x00,0x00,0x36,0x00,0x01,
0x36,0x00,0x8e,0x75,0x36,0x7f,0x00,0x36,0x7f,0x00,0x36,0x7f,0x00,0x36,0x7f,0x08,
0x36,0x00,0x00,0x36,0x00,0x00,0x36,0x00,0x01,0x36,0x00,0x8e,0x77,0x36,0x7f,0x00,
0x36,0x7f,0x00,0x36,0x7f,0x00,0x36,0x7f,0x07,0x36,0x00,0x01,0x36,0x00,0x00,0x36,
0x00,0x01,0x36,0x00,0x00,0xff,0x2f,0x00,0x4d,0x54,0x72,0x6b,0x00,0x00,0x00,0x50,
0x00,0xff,0x21,0x01,0x00,0x00,0xff,0x03,0x0d,0x73,0x70,0x6c,0x61,0x73,0x68,0x20,
0x63,0x79,0x6d,0x62,0x61,0x6c,0x00,0xc9,0x10,0x00,0xb9,0x07,0x7f,0x83,0x9c,0x40,
0x99,0x34,0x7f,0x81,0x1b,0x34,0x00,0x86,0x25,0x34,0x7f,0x4c,0x34,0x00,0x82,0x1c,
0x34,0x7f,0x3b,0x34,0x00,0x82,0x83,0x1d,0x34,0x7f,0x81,0x1b,0x34,0x00,0x86,0x25,
0x34,0x7f,0x4c,0x34,0x00,0x82,0x1c,0x34,0x7f,0x3b,0x34,0x00,0x00,0xff,0x2f,0x00,
};
