#include <stdint.h>
const uint8_t midifile[] = {
0x4d,0x54,0x68,0x64,0x00,0x00,0x00,0x06,0x00,0x00,0x00,0x01,0x01,0x80,0x4d,0x54,
0x72,0x6b,0x00,0x00,0x3b,0x90,0x00,0xff,0x03,0x09,0x45,0x6c,0x65,0x61,0x6e,0x52,
0x69,0x67,0x62,0x00,0xff,0x58,0x04,0x04,0x02,0x18,0x08,0x00,0xff,0x51,0x03,0x07,
0x43,0xf8,0x00,0xf0,0x0a,0x41,0x10,0x42,0x12,0x40,0x00,0x7f,0x00,0x41,0xf7,0x83,
0x14,0xb1,0x00,0x00,0x04,0xb1,0x20,0x00,0x04,0xc1,0x2a,0x04,0xb1,0x07,0x64,0x00,
0xb1,0x0a,0x40,0x00,0xb1,0x0b,0x7f,0x04,0xb1,0x5b,0x28,0x00,0xb1,0x5d,0x00,0x04,
0xb2,0x00,0x00,0x04,0xb2,0x20,0x00,0x04,0xc2,0x28,0x04,0xb2,0x07,0x5a,0x00,0xb2,
0x0a,0x40,0x00,0xb2,0x0b,0x7f,0x04,0xb2,0x5b,0x28,0x00,0xb2,0x5d,0x00,0x04,0xb3,
0x00,0x00,0x04,0xb3,0x20,0x00,0x04,0xc3,0x30,0x04,0xb3,0x07,0x64,0x00,0xb3,0x0a,
0x40,0x00,0xb3,0x0b,0x7f,0x04,0xb3,0x5b,0x28,0x00,0xb3,0x5d,0x00,0x04,0xb4,0x00,
0x00,0x04,0xb4,0x20,0x00,0x04,0xc4,0x29,0x04,0xb4,0x07,0x64,0x00,0xb4,0x0a,0x40,
0x00,0xb4,0x0b,0x64,0x04,0xb4,0x5b,0x28,0x00,0xb4,0x5d,0x00,0x04,0xb5,0x00,0x00,
0x04,0xb5,0x20,0x00,0x04,0xc5,0x30,0x04,0xb5,0x07,0x64,0x00,0xb5,0x0a,0x40,0x00,
0xb5,0x0b,0x7f,0x04,0xb5,0x5b,0x28,0x00,0xb5,0x5d,0x00,0x04,0xb6,0x00,0x00,0x04,
0xb6,0x20,0x00,0x04,0xc6,0x49,0x04,0xb6,0x07,0x64,0x00,0xb6,0x0a,0x40,0x00,0xb6,
0x0b,0x7f,0x04,0xb6,0x5b,0x28,0x00,0xb6,0x5d,0x00,0x2c,0xb9,0x00,0x00,0x04,0xb9,
0x20,0x00,0x04,0xc9,0x00,0x04,0xb9,0x07,0x64,0x00,0xb9,0x0a,0x40,0x00,0xb9,0x0b,
0x7f,0x04,0xb9,0x5b,0x28,0x00,0xb9,0x5d,0x00,0x81,0x3c,0xb1,0x65,0x00,0x04,0xb1,
0x64,0x00,0x04,0xb1,0x06,0x0c,0x04,0xb1,0x65,0x7f,0x04,0xb1,0x64,0x7f,0x04,0xb4,
0x65,0x00,0x04,0xb4,0x64,0x00,0x04,0xb4,0x06,0x0c,0x04,0xb4,0x65,0x7f,0x04,0xb4,
0x64,0x7f,0x91,0x5c,0x94,0x40,0x58,0x04,0x92,0x43,0x75,0x00,0x92,0x40,0x7b,0x04,
0x95,0x48,0x66,0x00,0x93,0x4c,0x55,0x04,0x91,0x3c,0x7f,0x4c,0x82,0x40,0x40,0x04,
0x82,0x43,0x40,0x08,0x81,0x3c,0x40,0x68,0x91,0x37,0x77,0x4c,0x81,0x37,0x40,0x68,
0x92,0x40,0x50,0x0c,0x91,0x34,0x7c,0x04,0x92,0x43,0x4a,0x40,0x82,0x40,0x40,0x08,
0x82,0x43,0x40,0x18,0x81,0x34,0x40,0x81,0x00,0x91,0x30,0x7f,0x81,0x10,0x92,0x40,
0x55,0x10,0x92,0x43,0x52,0x38,0x82,0x40,0x40,0x04,0x82,0x43,0x40,0x58,0x83,0x4c,
0x40,0x0c,0x84,0x40,0x40,0x08,0x85,0x48,0x40,0x14,0x93,0x4e,0x55,0x00,0x94,0x42,
0x66,0x04,0x95,0x4a,0x66,0x81,0x10,0x83,0x4e,0x40,0x18,0x85,0x4a,0x40,0x0c,0x92,
0x43,0x77,0x04,0x92,0x40,0x72,0x00,0x95,0x4c,0x66,0x00,0xe4,0x00,0x45,0x04,0x93,
0x4f,0x55,0x08,0xe4,0x40,0x45,0x3c,0x82,0x43,0x40,0x14,0x82,0x40,0x40,0x18,0x85,
0x4c,0x40,0x04,0x83,0x4f,0x40,0x40,0x93,0x51,0x55,0x0c,0x95,0x4e,0x66,0x0c,0xe4,
0x40,0x4a,0x18,0xe4,0x40,0x50,0x1c,0xe4,0x00,0x50,0x78,0x92,0x43,0x58,0x00,0x92,
0x40,0x55,0x3c,0x82,0x43,0x40,0x14,0x82,0x40,0x40,0x20,0x83,0x51,0x40,0x1c,0x84,
0x42,0x40,0x24,0x85,0x4e,0x40,0x14,0x95,0x4c,0x66,0x04,0x93,0x4f,0x55,0x04,0xe4,
0x00,0x40,0x04,0x94,0x43,0x68,0x81,0x2c,0x92,0x40,0x50,0x04,0x92,0x43,0x4f,0x54,
0x82,0x43,0x40,0x00,0x82,0x40,0x40,0x3c,0x83,0x4f,0x40,0x2c,0x85,0x4c,0x40,0x04,
0x95,0x4a,0x66,0x00,0xe4,0x00,0x3b,0x08,0x93,0x4e,0x55,0x81,0x34,0x92,0x40,0x78,
0x04,0x92,0x43,0x76,0x38,0xe4,0x00,0x3a,0x14,0x82,0x43,0x40,0x04,0x82,0x40,0x40,
0x00,0xe4,0x40,0x3a,0x48,0x84,0x43,0x40,0x1c,0x83,0x4e,0x40,0x08,0x85,0x4a,0x40,
0x00,0x95,0x48,0x66,0x08,0x93,0x4c,0x55,0x08,0x94,0x40,0x66,0x0c,0xe4,0x00,0x40,
0x81,0x24,0x92,0x40,0x72,0x00,0x92,0x43,0x6f,0x81,0x30,0x83,0x4c,0x40,0x48,0x85,
0x48,0x40,0x18,0x84,0x40,0x40,0x48,0x82,0x40,0x40,0x04,0x82,0x43,0x40,0x20,0xe1,
0x40,0x3c,0x04,0x95,0x43,0x66,0x00,0x93,0x47,0x55,0x0c,0x92,0x43,0x69,0x04,0x92,
0x40,0x6f,0x24,0x94,0x3b,0x5a,0x24,0x82,0x43,0x40,0x08,0x82,0x40,0x40,0x2c,0x81,
0x30,0x40,0x3c,0xe1,0x00,0x3c,0x28,0x83,0x47,0x40,0x10,0xe1,0x00,0x3a,0x10,0x85,
0x43,0x40,0x1c,0x93,0x45,0x55,0x04,0x95,0x42,0x66,0x08,0xe4,0x40,0x35,0x38,0x83,
0x45,0x40,0x08,0x85,0x42,0x40,0x0c,0x95,0x40,0x66,0x08,0x92,0x40,0x54,0x00,0x93,
0x43,0x55,0x08,0x92,0x43,0x57,0x38,0x82,0x40,0x40,0x08,0xe4,0x00,0x2b,0x10,0x82,
0x43,0x40,0x7c,0xe1,0x00,0x40,0x00,0x91,0x2b,0x7f,0x58,0x81,0x2b,0x40,0x50,0x92,
0x40,0x58,0x08,0x92,0x43,0x5c,0x0c,0x83,0x43,0x40,0x08,0x85,0x40,0x40,0x18,0x91,
0x28,0x7c,0x10,0x82,0x40,0x40,0x14,0x82,0x43,0x40,0x82,0x24,0x95,0x40,0x4c,0x00,
0x93,0x45,0x55,0x04,0x92,0x40,0x4d,0x04,0x92,0x45,0x79,0x38,0x85,0x40,0x40,0x1c,
0x83,0x45,0x40,0x38,0x82,0x45,0x40,0x04,0x82,0x40,0x40,0x28,0x95,0x40,0x4d,0x00,
0x93,0x47,0x55,0x08,0x92,0x47,0x67,0x30,0x83,0x47,0x40,0x20,0x85,0x40,0x40,0x08,
0x82,0x47,0x40,0x5c,0x95,0x40,0x4d,0x04,0x92,0x40,0x43,0x04,0x92,0x43,0x7b,0x04,
0x93,0x43,0x55,0x34,0x85,0x40,0x40,0x14,0x83,0x43,0x40,0x38,0x82,0x43,0x40,0x10,
0x82,0x40,0x40,0x28,0x92,0x47,0x69,0x04,0x95,0x40,0x4b,0x04,0x93,0x47,0x55,0x2c,
0x85,0x40,0x40,0x14,0x83,0x47,0x40,0x08,0x82,0x47,0x40,0x70,0x92,0x42,0x7f,0x04,
0x92,0x40,0x51,0x04,0x95,0x40,0x4b,0x04,0x93,0x45,0x55,0x2c,0x85,0x40,0x40,0x20,
0x83,0x45,0x40,0x44,0x82,0x40,0x40,0x00,0x82,0x42,0x40,0x24,0x95,0x40,0x50,0x04,
0x93,0x47,0x55,0x04,0x92,0x47,0x6a,0x28,0x85,0x40,0x40,0x18,0x83,0x47,0x40,0x1c,
0x82,0x47,0x40,0x58,0x92,0x40,0x4e,0x04,0x93,0x43,0x55,0x04,0x95,0x40,0x4b,0x04,
0x92,0x43,0x7c,0x44,0x85,0x40,0x40,0x04,0x83,0x43,0x40,0x30,0x82,0x43,0x40,0x20,
0x82,0x40,0x40,0x14,0x84,0x3b,0x40,0x0c,0x93,0x47,0x55,0x04,0x95,0x40,0x4f,0x04,
0x92,0x47,0x70,0x1c,0x85,0x40,0x40,0x30,0x82,0x47,0x40,0x08,0x83,0x47,0x40,0x6c,
0x92,0x3b,0x54,0x00,0x92,0x40,0x7e,0x00,0x95,0x3b,0x41,0x00,0x93,0x40,0x55,0x40,
0x85,0x3b,0x40,0x18,0x83,0x40,0x40,0x30,0x82,0x40,0x40,0x04,0x82,0x3b,0x40,0x34,
0x95,0x40,0x4e,0x00,0x93,0x47,0x55,0x04,0x92,0x47,0x73,0x04,0x81,0x28,0x40,0x38,
0x85,0x40,0x40,0x04,0x83,0x47,0x40,0x1c,0x82,0x47,0x40,0x50,0xe4,0x00,0x40,0x04,
0x95,0x48,0x66,0x00,0x94,0x40,0x58,0x04,0x92,0x40,0x50,0x00,0x93,0x4c,0x55,0x08,
0x91,0x24,0x7f,0x04,0x92,0x43,0x4a,0x40,0x82,0x40,0x40,0x08,0x82,0x43,0x40,0x10,
0x81,0x24,0x40,0x64,0x91,0x28,0x7a,0x4c,0x81,0x28,0x40,0x6c,0x92,0x40,0x50,0x08,
0x91,0x2f,0x7e,0x04,0x92,0x43,0x4a,0x40,0x82,0x40,0x40,0x08,0x82,0x43,0x40,0x18,
0x81,0x2f,0x40,0x81,0x00,0x91,0x30,0x7f,0x81,0x10,0x92,0x40,0x55,0x10,0x92,0x43,
0x52,0x38,0x82,0x40,0x40,0x04,0x82,0x43,0x40,0x54,0x83,0x4c,0x40,0x0c,0x84,0x40,
0x40,0x04,0x85,0x48,0x40,0x14,0x95,0x4a,0x66,0x00,0x93,0x4e,0x55,0x08,0x94,0x42,
0x66,0x81,0x0c,0x83,0x4e,0x40,0x14,0x85,0x4a,0x40,0x18,0x92,0x43,0x77,0x04,0x92,
0x40,0x72,0x00,0xe4,0x00,0x45,0x04,0x95,0x4c,0x66,0x00,0x93,0x4f,0x55,0x44,0x82,
0x43,0x40,0x14,0x82,0x40,0x40,0x1c,0x83,0x4f,0x40,0x04,0x85,0x4c,0x40,0x40,0x95,
0x4e,0x66,0x00,0x93,0x51,0x55,0x18,0xe4,0x40,0x4a,0x14,0xe4,0x40,0x50,0x81,0x14,
0x92,0x43,0x58,0x00,0x92,0x40,0x55,0x3c,0x82,0x43,0x40,0x14,0x82,0x40,0x40,0x24,
0x83,0x51,0x40,0x18,0x84,0x42,0x40,0x1c,0x85,0x4e,0x40,0x18,0x95,0x4c,0x66,0x0c,
0x93,0x4f,0x55,0x00,0xe4,0x00,0x40,0x04,0x94,0x43,0x68,0x81,0x30,0x92,0x40,0x50,
0x00,0x92,0x43,0x4f,0x54,0x82,0x40,0x40,0x04,0x82,0x43,0x40,0x3c,0x83,0x4f,0x40,
0x30,0x85,0x4c,0x40,0x00,0x95,0x4a,0x66,0x00,0xe4,0x00,0x3b,0x04,0x93,0x4e,0x55,
0x81,0x38,0x92,0x40,0x78,0x00,0x92,0x43,0x76,0x3c,0xe4,0x00,0x3a,0x14,0x82,0x43,
0x40,0x00,0xe4,0x40,0x3a,0x04,0x82,0x40,0x40,0x48,0x84,0x43,0x40,0x18,0x83,0x4e,
0x40,0x0c,0x85,0x4a,0x40,0x00,0x95,0x48,0x66,0x0c,0x93,0x4c,0x55,0x04,0x94,0x40,
0x66,0x08,0xe4,0x00,0x40,0x81,0x24,0x92,0x40,0x72,0x04,0x92,0x43,0x6f,0x81,0x38,
0x83,0x4c,0x40,0x40,0x85,0x48,0x40,0x18,0x84,0x40,0x40,0x44,0x82,0x40,0x40,0x08,
0x82,0x43,0x40,0x20,0xe1,0x40,0x3c,0x0c,0x92,0x43,0x69,0x00,0x93,0x47,0x55,0x04,
0x95,0x43,0x66,0x04,0x92,0x40,0x6f,0x1c,0x81,0x30,0x40,0x04,0x94,0x3b,0x5a,0x28,
0x82,0x43,0x40,0x04,0x82,0x40,0x40,0x68,0xe1,0x00,0x3c,0x34,0x83,0x47,0x40,0x24,
0x85,0x43,0x40,0x04,0x93,0x45,0x55,0x0c,0x95,0x42,0x66,0x08,0xe4,0x40,0x35,0x34,
0x83,0x45,0x40,0x0c,0x85,0x42,0x40,0x14,0x92,0x40,0x54,0x00,0x95,0x40,0x66,0x00,
0x93,0x43,0x55,0x08,0x92,0x43,0x57,0x3c,0x82,0x40,0x40,0x08,0xe4,0x00,0x2b,0x10,
0x82,0x43,0x40,0x78,0xe1,0x00,0x3f,0x04,0x91,0x2b,0x7f,0x14,0xe1,0x00,0x40,0x50,
0x81,0x2b,0x40,0x44,0x92,0x40,0x58,0x04,0x92,0x43,0x5c,0x2c,0x91,0x28,0x7c,0x10,
0x82,0x40,0x40,0x18,0x82,0x43,0x40,0x82,0x20,0x83,0x43,0x40,0x00,0x85,0x40,0x40,
0x04,0x92,0x40,0x4d,0x00,0x95,0x40,0x43,0x00,0x93,0x45,0x55,0x08,0x92,0x45,0x79,
0x28,0x83,0x45,0x40,0x0c,0x85,0x40,0x40,0x40,0x82,0x40,0x40,0x18,0x82,0x45,0x40,
0x28,0x93,0x47,0x55,0x08,0x92,0x47,0x67,0x00,0x95,0x40,0x46,0x30,0x83,0x47,0x40,
0x28,0x85,0x40,0x40,0x04,0x82,0x47,0x40,0x5c,0x92,0x40,0x43,0x04,0x92,0x43,0x7b,
0x00,0x95,0x40,0x3f,0x04,0x93,0x43,0x55,0x38,0x85,0x40,0x40,0x10,0x83,0x43,0x40,
0x34,0x82,0x40,0x40,0x08,0x82,0x43,0x40,0x34,0x92,0x47,0x69,0x08,0x95,0x40,0x48,
0x00,0x93,0x47,0x55,0x4c,0x82,0x47,0x40,0x1c,0x85,0x40,0x40,0x08,0x83,0x47,0x40,
0x4c,0x92,0x42,0x7f,0x00,0x92,0x40,0x51,0x04,0x95,0x40,0x42,0x04,0x93,0x45,0x55,
0x50,0x85,0x40,0x40,0x14,0x83,0x45,0x40,0x18,0x82,0x42,0x40,0x04,0x82,0x40,0x40,
0x34,0x95,0x40,0x43,0x08,0x92,0x47,0x6a,0x04,0x93,0x47,0x55,0x48,0x83,0x47,0x40,
0x00,0x85,0x40,0x40,0x10,0x82,0x47,0x40,0x5c,0x92,0x40,0x4e,0x00,0x95,0x40,0x4e,
0x00,0x93,0x43,0x55,0x08,0x92,0x43,0x7c,0x3c,0x85,0x40,0x40,0x0c,0x83,0x43,0x40,
0x30,0x82,0x43,0x40,0x0c,0x82,0x40,0x40,0x2c,0x84,0x3b,0x40,0x0c,0x93,0x47,0x55,
0x08,0x92,0x47,0x70,0x00,0x95,0x40,0x3f,0x4c,0x82,0x47,0x40,0x08,0x83,0x47,0x40,
0x0c,0x85,0x40,0x40,0x54,0x95,0x40,0x4a,0x04,0x93,0x40,0x55,0x04,0x92,0x3b,0x54,
0x04,0x92,0x40,0x7e,0x30,0x85,0x40,0x40,0x14,0x83,0x40,0x40,0x44,0x82,0x40,0x40,
0x00,0x82,0x3b,0x40,0x2c,0x95,0x40,0x46,0x00,0x93,0x47,0x55,0x0c,0x92,0x47,0x73,
0x08,0x81,0x28,0x40,0x2c,0x85,0x40,0x40,0x04,0x83,0x47,0x40,0x28,0x82,0x47,0x40,
0x5c,0x92,0x40,0x50,0x00,0x95,0x40,0x68,0x00,0x93,0x43,0x70,0x00,0x94,0x43,0x74,
0x04,0x91,0x34,0x6b,0x00,0xe4,0x00,0x40,0x04,0x92,0x43,0x4a,0x00,0x92,0x47,0x4a,
0x40,0x83,0x43,0x40,0x08,0x82,0x43,0x40,0x00,0x82,0x40,0x40,0x04,0x82,0x47,0x40,
0x10,0x81,0x34,0x40,0x54,0xe4,0x00,0x48,0x08,0x93,0x45,0x70,0x04,0xe4,0x00,0x4b,
0x70,0x83,0x45,0x40,0x44,0x92,0x40,0x50,0x04,0x91,0x34,0x6b,0x00,0xe4,0x00,0x50,
0x04,0x93,0x47,0x70,0x04,0x92,0x47,0x4a,0x04,0x92,0x43,0x4a,0x00,0xe4,0x40,0x55,
0x40,0x82,0x40,0x40,0x04,0x82,0x47,0x40,0x04,0x82,0x43,0x40,0x0c,0x83,0x47,0x40,
0x14,0x81,0x34,0x40,0x28,0x84,0x43,0x40,0x24,0x94,0x43,0x69,0x04,0x93,0x43,0x70,
0x00,0xe4,0x00,0x40,0x81,0x38,0x92,0x40,0x55,0x0c,0x91,0x34,0x6b,0x04,0x92,0x43,
0x52,0x04,0x92,0x47,0x52,0x30,0x82,0x40,0x40,0x08,0x82,0x43,0x40,0x04,0x82,0x47,
0x40,0x28,0x81,0x34,0x40,0x38,0x84,0x43,0x40,0x10,0x83,0x43,0x40,0x08,0x93,0x40,
0x70,0x04,0x85,0x40,0x40,0x00,0x94,0x40,0x72,0x08,0x95,0x3b,0x68,0x81,0x1c,0x85,
0x3b,0x40,0x10,0x92,0x47,0x77,0x04,0x92,0x43,0x77,0x00,0x92,0x40,0x72,0x04,0x91,
0x34,0x6b,0x10,0x95,0x40,0x68,0x34,0x82,0x43,0x40,0x00,0x82,0x47,0x40,0x18,0x82,
0x40,0x40,0x10,0x81,0x34,0x40,0x2c,0x85,0x40,0x40,0x2c,0x95,0x42,0x68,0x38,0x84,
0x40,0x40,0x18,0x85,0x42,0x40,0x24,0x83,0x40,0x40,0x40,0x92,0x43,0x58,0x04,0x92,
0x47,0x58,0x00,0x92,0x40,0x55,0x04,0x93,0x43,0x70,0x04,0x91,0x34,0x6b,0x00,0x95,
0x43,0x68,0x04,0x94,0x43,0x75,0x30,0x82,0x47,0x40,0x00,0x82,0x43,0x40,0x14,0x82,
0x40,0x40,0x18,0x83,0x43,0x40,0x18,0x81,0x34,0x40,0x44,0x93,0x45,0x70,0x00,0xe4,
0x40,0x45,0x0c,0xe4,0x00,0x46,0x14,0xe4,0x00,0x4b,0x34,0x83,0x45,0x40,0x60,0x84,
0x43,0x40,0x04,0x92,0x40,0x50,0x00,0x92,0x43,0x4f,0x04,0x91,0x34,0x6b,0x04,0x92,
0x47,0x4f,0x00,0x93,0x47,0x70,0x00,0xe4,0x00,0x40,0x00,0x94,0x46,0x72,0x14,0xe4,
0x40,0x45,0x2c,0x83,0x47,0x40,0x0c,0x82,0x40,0x40,0x04,0x82,0x43,0x40,0x04,0x82,
0x47,0x40,0x24,0x81,0x34,0x40,0x2c,0xe4,0x40,0x4a,0x18,0xe4,0x00,0x50,0x04,0x95,
0x42,0x68,0x00,0x93,0x4a,0x70,0x04,0x85,0x43,0x40,0x10,0xe4,0x00,0x55,0x2c,0xe4,
0x00,0x56,0x78,0x92,0x40,0x6b,0x00,0x92,0x43,0x64,0x04,0x92,0x47,0x6a,0x00,0x91,
0x34,0x6b,0x48,0x82,0x40,0x40,0x04,0x82,0x47,0x40,0x00,0x82,0x43,0x40,0x28,0x81,
0x34,0x40,0x04,0x83,0x4a,0x40,0x38,0x84,0x46,0x40,0x14,0x93,0x49,0x70,0x0c,0x94,
0x49,0x75,0x08,0xe4,0x00,0x40,0x34,0x83,0x49,0x40,0x6c,0x92,0x40,0x72,0x04,0x92,
0x43,0x6f,0x00,0xe4,0x00,0x3b,0x04,0x92,0x47,0x6f,0x04,0x93,0x47,0x70,0x04,0x91,
0x34,0x6b,0x1c,0xe4,0x00,0x36,0x0c,0x82,0x40,0x40,0x08,0x82,0x43,0x40,0x04,0x82,
0x47,0x40,0x1c,0x83,0x47,0x40,0x2c,0x81,0x34,0x40,0x14,0x85,0x42,0x40,0x18,0x84,
0x49,0x40,0x0c,0x95,0x40,0x68,0x00,0x94,0x49,0x52,0x08,0x93,0x49,0x70,0x00,0xe4,
0x00,0x40,0x81,0x44,0x92,0x43,0x69,0x00,0x91,0x34,0x6b,0x04,0x92,0x47,0x69,0x00,
0x92,0x40,0x6f,0x48,0x82,0x47,0x40,0x00,0x82,0x43,0x40,0x08,0x82,0x40,0x40,0x28,
0x81,0x34,0x40,0x10,0x83,0x49,0x40,0x30,0x93,0x47,0x70,0x0c,0x94,0x47,0x75,0x18,
0x84,0x49,0x40,0x30,0x83,0x47,0x40,0x64,0x91,0x34,0x6b,0x08,0x93,0x45,0x70,0x04,
0x92,0x40,0x54,0x08,0x92,0x43,0x57,0x00,0x92,0x47,0x57,0x14,0xe4,0x40,0x3b,0x0c,
0xe4,0x00,0x3b,0x18,0x82,0x40,0x40,0x00,0xe4,0x00,0x36,0x18,0x82,0x47,0x40,0x00,
0x82,0x43,0x40,0x00,0x83,0x45,0x40,0x0c,0x81,0x34,0x40,0x54,0x95,0x3e,0x68,0x04,
0x93,0x47,0x70,0x00,0xe4,0x00,0x40,0x24,0x85,0x40,0x40,0x81,0x1c,0x92,0x40,0x58,
0x08,0x92,0x43,0x5c,0x00,0x91,0x34,0x6b,0x04,0x92,0x47,0x5c,0x38,0x82,0x40,0x40,
0x14,0x82,0x43,0x40,0x04,0x82,0x47,0x40,0x18,0x81,0x34,0x40,0x10,0x83,0x47,0x40,
0x18,0x84,0x47,0x40,0x24,0x93,0x45,0x70,0x14,0x94,0x45,0x75,0x44,0x83,0x45,0x40,
0x60,0x91,0x34,0x6b,0x08,0x93,0x43,0x70,0x04,0x92,0x43,0x69,0x00,0x92,0x47,0x69,
0x00,0xe4,0x00,0x3b,0x04,0x92,0x40,0x6f,0x04,0xe4,0x00,0x36,0x44,0x82,0x43,0x40,
0x04,0x82,0x47,0x40,0x04,0x82,0x40,0x40,0x04,0x83,0x43,0x40,0x08,0x81,0x34,0x40,
0x5c,0x93,0x45,0x70,0x08,0xe4,0x00,0x40,0x04,0x95,0x3c,0x68,0x24,0x85,0x3e,0x40,
0x81,0x10,0x91,0x30,0x6b,0x04,0x92,0x40,0x50,0x04,0x92,0x43,0x4a,0x04,0x92,0x48,
0x4a,0x44,0x82,0x40,0x40,0x04,0x82,0x48,0x40,0x00,0x82,0x43,0x40,0x68,0x81,0x30,
0x40,0x81,0x3c,0x91,0x2b,0x6b,0x04,0x92,0x40,0x6f,0x0c,0x92,0x48,0x6e,0x00,0x92,
0x43,0x73,0x40,0x82,0x40,0x40,0x08,0x82,0x43,0x40,0x00,0x82,0x48,0x40,0x60,0x81,
0x2b,0x40,0x81,0x48,0x92,0x40,0x51,0x04,0x91,0x30,0x6b,0x0c,0x92,0x43,0x53,0x04,
0x92,0x48,0x52,0x34,0x82,0x40,0x40,0x04,0x82,0x43,0x40,0x04,0x82,0x48,0x40,0x24,
0x84,0x45,0x40,0x4c,0x81,0x30,0x40,0x81,0x44,0x92,0x48,0x77,0x00,0x92,0x43,0x77,
0x04,0x92,0x40,0x72,0x00,0x91,0x2b,0x6b,0x44,0x82,0x48,0x40,0x04,0x82,0x43,0x40,
0x14,0x82,0x40,0x40,0x1c,0x85,0x3c,0x40,0x3c,0x81,0x2b,0x40,0x1c,0x83,0x45,0x40,
0x81,0x28,0x95,0x40,0x68,0x00,0x94,0x43,0x75,0x04,0x92,0x43,0x58,0x00,0x92,0x48,
0x58,0x04,0x92,0x40,0x55,0x00,0x91,0x30,0x6b,0x00,0x93,0x43,0x70,0x38,0x82,0x43,
0x40,0x04,0x82,0x48,0x40,0x10,0x82,0x40,0x40,0x0c,0x83,0x43,0x40,0x38,0x85,0x40,
0x40,0x1c,0x81,0x30,0x40,0x14,0x93,0x45,0x70,0x00,0xe4,0x40,0x45,0x04,0xe4,0x00,
0x4b,0x08,0x95,0x42,0x68,0x58,0x85,0x42,0x40,0x14,0x83,0x45,0x40,0x00,0x84,0x43,
0x40,0x40,0x92,0x40,0x50,0x00,0xe4,0x00,0x40,0x00,0x94,0x47,0x75,0x04,0x92,0x43,
0x4f,0x00,0x91,0x37,0x6b,0x04,0x92,0x48,0x4f,0x00,0x93,0x47,0x70,0x08,0x95,0x43,
0x68,0x48,0x82,0x43,0x40,0x00,0x82,0x40,0x40,0x04,0x83,0x47,0x40,0x04,0x82,0x48,
0x40,0x0c,0x85,0x43,0x40,0x50,0x81,0x37,0x40,0x0c,0x93,0x48,0x70,0x0c,0x95,0x45,
0x68,0x10,0xe4,0x40,0x45,0x81,0x1c,0x92,0x40,0x78,0x00,0x91,0x34,0x6b,0x04,0x92,
0x43,0x76,0x00,0x92,0x48,0x76,0x4c,0x82,0x43,0x40,0x04,0x82,0x48,0x40,0x00,0x82,
0x40,0x40,0x3c,0x83,0x48,0x40,0x14,0x85,0x45,0x40,0x0c,0x81,0x34,0x40,0x18,0x93,
0x47,0x70,0x20,0x95,0x43,0x68,0x08,0xe4,0x00,0x40,0x81,0x10,0x92,0x40,0x72,0x00,
0x92,0x43,0x6f,0x08,0x92,0x47,0x6f,0x04,0x91,0x2f,0x6b,0x10,0x83,0x47,0x40,0x08,
0x85,0x43,0x40,0x14,0x82,0x40,0x40,0x04,0x82,0x43,0x40,0x08,0x82,0x47,0x40,0x7c,
0x81,0x2f,0x40,0x81,0x14,0x84,0x47,0x40,0x30,0x92,0x40,0x7f,0x04,0x92,0x3b,0x51,
0x00,0x91,0x34,0x6b,0x00,0x95,0x40,0x68,0x00,0x94,0x43,0x74,0x04,0x92,0x34,0x7f,
0x00,0x93,0x43,0x70,0x44,0x83,0x43,0x40,0x24,0x82,0x34,0x40,0x14,0x82,0x40,0x40,
0x04,0x82,0x3b,0x40,0x38,0x92,0x40,0x69,0x00,0x92,0x43,0x69,0x00,0x92,0x3b,0x7f,
0x00,0xe4,0x00,0x48,0x04,0x93,0x45,0x70,0x04,0xe4,0x00,0x4b,0x1c,0x81,0x34,0x40,
0x2c,0x82,0x40,0x40,0x04,0x82,0x43,0x40,0x04,0x82,0x3b,0x40,0x20,0x83,0x45,0x40,
0x48,0x92,0x40,0x7f,0x04,0x92,0x3b,0x51,0x00,0x93,0x47,0x70,0x00,0xe4,0x00,0x50,
0x04,0x92,0x34,0x7f,0x00,0x91,0x34,0x6b,0x08,0xe4,0x40,0x55,0x54,0x83,0x47,0x40,
0x14,0x82,0x34,0x40,0x0c,0x82,0x40,0x40,0x04,0x82,0x3b,0x40,0x14,0x84,0x43,0x40,
0x20,0x92,0x3b,0x7f,0x08,0x94,0x43,0x69,0x00,0xe4,0x00,0x40,0x04,0x92,0x40,0x6a,
0x00,0x92,0x43,0x6a,0x00,0x93,0x43,0x70,0x04,0x81,0x34,0x40,0x48,0x82,0x3b,0x40,
0x10,0x82,0x43,0x40,0x00,0x82,0x40,0x40,0x58,0x92,0x3b,0x4e,0x04,0x92,0x34,0x7f,
0x00,0x91,0x34,0x6b,0x04,0x92,0x40,0x7c,0x74,0x82,0x34,0x40,0x08,0x82,0x40,0x40,
0x0c,0x82,0x3b,0x40,0x20,0x84,0x43,0x40,0x04,0x81,0x34,0x40,0x0c,0x83,0x43,0x40,
0x08,0x93,0x40,0x70,0x04,0x85,0x40,0x40,0x00,0x92,0x3b,0x7f,0x00,0x92,0x40,0x70,
0x04,0x92,0x43,0x70,0x00,0x94,0x40,0x72,0x08,0x95,0x3b,0x68,0x40,0x82,0x40,0x40,
0x04,0x82,0x43,0x40,0x18,0x82,0x3b,0x40,0x40,0x85,0x3b,0x40,0x18,0x92,0x3b,0x54,
0x00,0x92,0x40,0x7e,0x04,0x92,0x34,0x7f,0x00,0x91,0x34,0x6b,0x08,0x95,0x40,0x68,
0x74,0x82,0x34,0x40,0x08,0x82,0x40,0x40,0x04,0x82,0x3b,0x40,0x08,0x85,0x40,0x40,
0x2c,0x92,0x3b,0x7f,0x04,0x92,0x40,0x73,0x00,0x92,0x43,0x73,0x00,0x95,0x42,0x68,
0x10,0x81,0x34,0x40,0x28,0x84,0x40,0x40,0x18,0x85,0x42,0x40,0x0c,0x82,0x40,0x40,
0x04,0x82,0x43,0x40,0x0c,0x82,0x3b,0x40,0x08,0x83,0x40,0x40,0x3c,0x91,0x34,0x6b,
0x04,0x92,0x40,0x7f,0x04,0x92,0x3b,0x51,0x00,0x93,0x43,0x70,0x04,0x92,0x34,0x7f,
0x00,0x95,0x43,0x68,0x08,0x94,0x43,0x75,0x58,0x83,0x43,0x40,0x08,0x82,0x34,0x40,
0x14,0x82,0x40,0x40,0x04,0x82,0x3b,0x40,0x10,0x81,0x34,0x40,0x28,0x92,0x3b,0x7f,
0x04,0xe4,0x40,0x45,0x04,0x92,0x40,0x6a,0x00,0x92,0x43,0x6a,0x00,0x93,0x45,0x70,
0x0c,0xe4,0x00,0x46,0x14,0xe4,0x00,0x4b,0x30,0x82,0x3b,0x40,0x04,0x83,0x45,0x40,
0x08,0x82,0x43,0x40,0x00,0x82,0x40,0x40,0x54,0x84,0x43,0x40,0x04,0x92,0x3b,0x4e,
0x08,0x92,0x40,0x7c,0x00,0xe4,0x00,0x40,0x00,0x94,0x46,0x72,0x04,0x92,0x34,0x7f,
0x00,0x91,0x34,0x6b,0x00,0x93,0x47,0x70,0x10,0xe4,0x40,0x45,0x30,0x83,0x47,0x40,
0x30,0x82,0x34,0x40,0x08,0x82,0x40,0x40,0x0c,0x82,0x3b,0x40,0x20,0xe4,0x40,0x4a,
0x10,0x92,0x3b,0x7f,0x04,0x81,0x34,0x40,0x00,0xe4,0x00,0x50,0x08,0x85,0x43,0x40,
0x00,0x95,0x42,0x68,0x00,0x93,0x4a,0x70,0x04,0x92,0x40,0x70,0x00,0x92,0x43,0x70,
0x0c,0xe4,0x00,0x55,0x30,0xe4,0x00,0x56,0x10,0x82,0x43,0x40,0x00,0x82,0x40,0x40,
0x00,0x82,0x3b,0x40,0x68,0x92,0x34,0x7f,0x00,0x92,0x40,0x7f,0x04,0x92,0x3b,0x51,
0x00,0x91,0x34,0x6b,0x74,0x82,0x34,0x40,0x04,0x83,0x4a,0x40,0x0c,0x82,0x3b,0x40,
0x00,0x82,0x40,0x40,0x28,0x84,0x46,0x40,0x08,0x81,0x34,0x40,0x08,0x92,0x40,0x69,
0x00,0x92,0x43,0x69,0x08,0x92,0x3b,0x7f,0x00,0x93,0x49,0x70,0x08,0x94,0x49,0x75,
0x08,0xe4,0x00,0x40,0x38,0x83,0x49,0x40,0x00,0x82,0x40,0x40,0x04,0x82,0x43,0x40,
0x20,0x82,0x3b,0x40,0x4c,0xe4,0x00,0x3b,0x04,0x92,0x40,0x7f,0x00,0x92,0x3b,0x51,
0x04,0x91,0x34,0x6b,0x00,0x93,0x47,0x70,0x04,0x92,0x34,0x7f,0x1c,0xe4,0x00,0x36,
0x34,0x83,0x47,0x40,0x2c,0x82,0x34,0x40,0x00,0x82,0x40,0x40,0x04,0x82,0x3b,0x40,
0x10,0x85,0x42,0x40,0x14,0x81,0x34,0x40,0x04,0x84,0x49,0x40,0x0c,0x95,0x40,0x68,
0x00,0x94,0x49,0x52,0x08,0x92,0x40,0x6a,0x00,0x92,0x43,0x6a,0x00,0x93,0x49,0x70,
0x00,0xe4,0x00,0x40,0x04,0x92,0x3b,0x7f,0x58,0x82,0x40,0x40,0x04,0x82,0x43,0x40,
0x14,0x82,0x3b,0x40,0x44,0x92,0x3b,0x4e,0x08,0x92,0x40,0x7c,0x00,0x91,0x34,0x6b,
0x04,0x92,0x34,0x7f,0x74,0x82,0x40,0x40,0x0c,0x82,0x3b,0x40,0x04,0x82,0x34,0x40,
0x04,0x83,0x49,0x40,0x2c,0x92,0x3b,0x7f,0x04,0x81,0x34,0x40,0x04,0x93,0x47,0x70,
0x04,0x92,0x40,0x70,0x00,0x92,0x43,0x70,0x08,0x94,0x47,0x75,0x14,0x84,0x49,0x40,
0x30,0x82,0x43,0x40,0x00,0x82,0x40,0x40,0x00,0x83,0x47,0x40,0x0c,0x82,0x3b,0x40,
0x5c,0x91,0x34,0x6b,0x04,0x92,0x40,0x7f,0x00,0x92,0x3b,0x51,0x04,0x93,0x45,0x70,
0x04,0x92,0x34,0x7f,0x18,0xe4,0x40,0x3b,0x10,0xe4,0x00,0x3b,0x18,0xe4,0x00,0x36,
0x18,0x83,0x45,0x40,0x24,0x82,0x40,0x40,0x04,0x82,0x3b,0x40,0x0c,0x82,0x34,0x40,
0x10,0x81,0x34,0x40,0x18,0x92,0x40,0x69,0x00,0x92,0x43,0x69,0x00,0x95,0x3e,0x68,
0x04,0xe4,0x00,0x40,0x04,0x93,0x47,0x70,0x04,0x92,0x3b,0x7f,0x20,0x85,0x40,0x40,
0x28,0x82,0x43,0x40,0x00,0x82,0x40,0x40,0x30,0x82,0x3b,0x40,0x40,0x92,0x40,0x7f,
0x00,0x92,0x3b,0x51,0x00,0x92,0x34,0x7f,0x08,0x91,0x34,0x6b,0x7c,0x82,0x40,0x40,
0x04,0x82,0x34,0x40,0x00,0x82,0x3b,0x40,0x00,0x83,0x47,0x40,0x14,0x84,0x47,0x40,
0x24,0x81,0x34,0x40,0x00,0x92,0x3b,0x7f,0x04,0x92,0x40,0x6a,0x00,0x92,0x43,0x6a,
0x00,0x93,0x45,0x70,0x14,0x94,0x45,0x75,0x44,0x83,0x45,0x40,0x04,0x82,0x40,0x40,
0x04,0x82,0x43,0x40,0x08,0x82,0x3b,0x40,0x50,0x92,0x34,0x7f,0x04,0x92,0x40,0x7f,
0x00,0x92,0x3b,0x51,0x00,0x91,0x34,0x6b,0x04,0x93,0x43,0x70,0x04,0xe4,0x00,0x3b,
0x04,0xe4,0x00,0x36,0x50,0x83,0x43,0x40,0x28,0x82,0x40,0x40,0x04,0x82,0x3b,0x40,
0x00,0x82,0x34,0x40,0x08,0x81,0x34,0x40,0x30,0x92,0x3b,0x7f,0x04,0x92,0x40,0x6a,
0x00,0x92,0x43,0x6a,0x00,0x93,0x45,0x70,0x04,0xe4,0x00,0x40,0x08,0x95,0x3c,0x68,
0x24,0x85,0x3e,0x40,0x2c,0x82,0x40,0x40,0x04,0x82,0x43,0x40,0x24,0x82,0x3b,0x40,
0x34,0x92,0x3c,0x4e,0x04,0x91,0x30,0x6b,0x04,0x92,0x40,0x7c,0x00,0x92,0x37,0x7f,
0x78,0x82,0x40,0x40,0x0c,0x82,0x3c,0x40,0x08,0x82,0x37,0x40,0x34,0x92,0x3c,0x7f,
0x04,0x92,0x40,0x70,0x00,0x92,0x43,0x70,0x20,0x81,0x30,0x40,0x2c,0x82,0x43,0x40,
0x00,0x82,0x40,0x40,0x2c,0x82,0x3c,0x40,0x3c,0x92,0x3c,0x4e,0x08,0x92,0x40,0x7c,
0x04,0x92,0x37,0x7f,0x00,0x91,0x2b,0x6b,0x74,0x82,0x40,0x40,0x0c,0x82,0x3c,0x40,
0x04,0x82,0x37,0x40,0x34,0x92,0x3c,0x7f,0x04,0x81,0x2b,0x40,0x04,0x92,0x40,0x70,
0x00,0x92,0x43,0x70,0x4c,0x82,0x43,0x40,0x00,0x82,0x40,0x40,0x4c,0x82,0x3c,0x40,
0x20,0x92,0x40,0x7f,0x00,0x92,0x3c,0x51,0x00,0x92,0x37,0x7f,0x00,0x91,0x30,0x6b,
0x6c,0x84,0x45,0x40,0x14,0x82,0x37,0x40,0x04,0x82,0x40,0x40,0x04,0x82,0x3c,0x40,
0x24,0x81,0x30,0x40,0x10,0x92,0x40,0x69,0x00,0x92,0x43,0x69,0x04,0x92,0x3c,0x7f,
0x50,0x82,0x43,0x40,0x00,0x82,0x40,0x40,0x4c,0x82,0x3c,0x40,0x24,0x92,0x40,0x7f,
0x00,0x92,0x37,0x7f,0x00,0x92,0x3c,0x51,0x08,0x91,0x2b,0x6b,0x74,0x85,0x3c,0x40,
0x08,0x82,0x40,0x40,0x04,0x82,0x3c,0x40,0x00,0x82,0x37,0x40,0x30,0x81,0x2b,0x40,
0x04,0x92,0x3c,0x7f,0x08,0x92,0x40,0x6a,0x00,0x92,0x43,0x6a,0x0c,0x83,0x45,0x40,
0x50,0x82,0x40,0x40,0x04,0x82,0x43,0x40,0x28,0x82,0x3c,0x40,0x30,0x92,0x3c,0x4e,
0x00,0x95,0x40,0x68,0x00,0x94,0x43,0x75,0x08,0x92,0x40,0x7c,0x00,0x91,0x30,0x6b,
0x00,0x93,0x43,0x70,0x04,0x92,0x37,0x7f,0x54,0x83,0x43,0x40,0x20,0x82,0x40,0x40,
0x0c,0x82,0x3c,0x40,0x0c,0x82,0x37,0x40,0x00,0x85,0x40,0x40,0x18,0x81,0x30,0x40,
0x04,0xe4,0x40,0x45,0x14,0x93,0x45,0x70,0x04,0x92,0x40,0x70,0x00,0x92,0x43,0x70,
0x00,0x92,0x3c,0x7f,0x00,0xe4,0x00,0x4b,0x04,0x95,0x42,0x68,0x48,0x82,0x43,0x40,
0x00,0x82,0x40,0x40,0x14,0x85,0x42,0x40,0x10,0x83,0x45,0x40,0x1c,0x82,0x3c,0x40,
0x08,0xe4,0x00,0x4a,0x14,0x84,0x43,0x40,0x08,0xe4,0x00,0x40,0x04,0x94,0x47,0x75,
0x04,0x92,0x40,0x7f,0x00,0x92,0x37,0x7f,0x00,0x92,0x3c,0x51,0x00,0x91,0x37,0x6b,
0x04,0x93,0x47,0x70,0x08,0x95,0x43,0x68,0x4c,0x83,0x47,0x40,0x0c,0x85,0x43,0x40,
0x20,0x82,0x40,0x40,0x04,0x82,0x3c,0x40,0x0c,0x82,0x37,0x40,0x28,0x92,0x40,0x69,
0x00,0x92,0x43,0x69,0x04,0x92,0x3c,0x7f,0x04,0x93,0x48,0x70,0x0c,0x81,0x37,0x40,
0x00,0x95,0x45,0x68,0x0c,0xe4,0x40,0x45,0x34,0x82,0x43,0x40,0x00,0x82,0x40,0x40,
0x3c,0x82,0x3c,0x40,0x34,0x92,0x40,0x7f,0x00,0x92,0x3b,0x51,0x04,0x92,0x34,0x7f,
0x04,0x91,0x34,0x6b,0x7c,0x82,0x40,0x40,0x04,0x82,0x3b,0x40,0x04,0x83,0x48,0x40,
0x14,0x85,0x45,0x40,0x20,0x92,0x3b,0x7f,0x04,0x92,0x40,0x6a,0x00,0x93,0x47,0x70,
0x04,0x92,0x43,0x6a,0x1c,0x95,0x43,0x68,0x04,0x81,0x34,0x40,0x00,0x82,0x34,0x40,
0x04,0xe4,0x00,0x40,0x34,0x82,0x40,0x40,0x04,0x82,0x43,0x40,0x04,0x82,0x3b,0x40,
0x54,0x92,0x3b,0x4e,0x00,0x92,0x2f,0x7f,0x08,0x92,0x40,0x7c,0x04,0x91,0x2f,0x6b,
0x14,0x85,0x43,0x40,0x60,0x82,0x40,0x40,0x0c,0x82,0x3b,0x40,0x10,0x82,0x2f,0x40,
0x30,0x92,0x40,0x70,0x00,0x92,0x43,0x70,0x00,0x92,0x3b,0x7f,0x08,0x81,0x2f,0x40,
0x08,0x83,0x47,0x40,0x3c,0x82,0x43,0x40,0x00,0x82,0x40,0x40,0x30,0x82,0x3b,0x40,
0x0c,0x84,0x47,0x40,0x34,0x92,0x3e,0x67,0x00,0x92,0x43,0x67,0x00,0x95,0x3e,0x64,
0x00,0x95,0x40,0x64,0x04,0x92,0x47,0x67,0x00,0x91,0x34,0x7f,0x00,0x93,0x45,0x7f,
0x58,0x82,0x3e,0x40,0x04,0x82,0x47,0x40,0x00,0x82,0x43,0x40,0x82,0x08,0x83,0x45,
0x40,0x18,0x92,0x3e,0x67,0x00,0x92,0x43,0x67,0x00,0x92,0x47,0x67,0x00,0x93,0x43,
0x7f,0x5c,0x82,0x3e,0x40,0x04,0x82,0x47,0x40,0x00,0x82,0x43,0x40,0x5c,0x83,0x43,
0x40,0x04,0x93,0x45,0x7f,0x81,0x40,0x92,0x3e,0x67,0x00,0x92,0x43,0x67,0x00,0x92,
0x47,0x67,0x5c,0x82,0x3e,0x40,0x04,0x82,0x47,0x40,0x00,0x82,0x43,0x40,0x82,0x1c,
0x83,0x45,0x40,0x04,0x92,0x3e,0x67,0x00,0x92,0x43,0x67,0x00,0x92,0x47,0x67,0x00,
0x93,0x47,0x7f,0x5c,0x82,0x3e,0x40,0x04,0x82,0x47,0x40,0x00,0x82,0x43,0x40,0x44,
0x83,0x47,0x40,0x1c,0x93,0x43,0x7f,0x81,0x3c,0x85,0x3e,0x40,0x04,0x85,0x40,0x40,
0x00,0x92,0x3d,0x67,0x00,0x95,0x3d,0x64,0x00,0x95,0x40,0x64,0x04,0x92,0x43,0x67,
0x00,0x92,0x47,0x67,0x58,0x82,0x3d,0x40,0x04,0x82,0x47,0x40,0x00,0x82,0x43,0x40,
0x40,0x83,0x43,0x40,0x20,0x93,0x40,0x7f,0x81,0x40,0x92,0x3d,0x67,0x00,0x92,0x43,
0x67,0x00,0x92,0x47,0x67,0x5c,0x82,0x3d,0x40,0x04,0x82,0x47,0x40,0x00,0x82,0x43,
0x40,0x82,0x00,0x83,0x40,0x40,0x20,0x92,0x3d,0x67,0x00,0x92,0x43,0x67,0x00,0x92,
0x47,0x67,0x60,0x82,0x43,0x40,0x00,0x82,0x3d,0x40,0x04,0x82,0x47,0x40,0x82,0x1c,
0x92,0x3d,0x67,0x00,0x92,0x43,0x67,0x00,0x92,0x47,0x67,0x04,0x93,0x40,0x7f,0x5c,
0x82,0x43,0x40,0x00,0x82,0x3d,0x40,0x04,0x82,0x47,0x40,0x48,0x83,0x40,0x40,0x14,
0x93,0x4c,0x7f,0x81,0x40,0x85,0x40,0x40,0x00,0x85,0x3d,0x40,0x00,0x95,0x3c,0x64,
0x00,0x95,0x40,0x64,0x04,0x92,0x3c,0x67,0x00,0x92,0x43,0x67,0x00,0x92,0x47,0x67,
0x5c,0x82,0x43,0x40,0x00,0x82,0x3c,0x40,0x04,0x82,0x47,0x40,0x82,0x0c,0x83,0x4c,
0x40,0x10,0x92,0x3c,0x67,0x00,0x92,0x43,0x67,0x00,0x92,0x47,0x67,0x04,0x93,0x47,
0x7f,0x5c,0x82,0x43,0x40,0x00,0x82,0x3c,0x40,0x04,0x82,0x47,0x40,0x48,0x83,0x47,
0x40,0x14,0x93,0x45,0x7f,0x81,0x40,0x92,0x3c,0x67,0x00,0x92,0x43,0x67,0x00,0x92,
0x47,0x67,0x60,0x82,0x43,0x40,0x00,0x82,0x3c,0x40,0x04,0x82,0x47,0x40,0x5c,0x83,
0x45,0x40,0x00,0x93,0x43,0x7f,0x81,0x40,0x92,0x3c,0x67,0x00,0x92,0x43,0x67,0x00,
0x92,0x47,0x67,0x60,0x82,0x43,0x40,0x00,0x82,0x3c,0x40,0x04,0x82,0x47,0x40,0x48,
0x83,0x43,0x40,0x14,0x93,0x40,0x7f,0x81,0x40,0x85,0x40,0x40,0x00,0x85,0x3c,0x40,
0x00,0x95,0x3b,0x6a,0x04,0x92,0x40,0x67,0x00,0x92,0x43,0x67,0x00,0x92,0x47,0x67,
0x5c,0x82,0x43,0x40,0x00,0x82,0x40,0x40,0x04,0x82,0x47,0x40,0x82,0x1c,0x81,0x34,
0x40,0x00,0x92,0x40,0x67,0x00,0x95,0x40,0x64,0x04,0x92,0x43,0x67,0x00,0x92,0x47,
0x67,0x00,0x91,0x34,0x7f,0x5c,0x81,0x34,0x40,0x00,0x82,0x43,0x40,0x00,0x85,0x40,
0x40,0x00,0x82,0x40,0x40,0x04,0x82,0x47,0x40,0x5c,0x91,0x36,0x7f,0x00,0x95,0x42,
0x64,0x81,0x40,0x81,0x36,0x40,0x00,0x92,0x40,0x67,0x00,0x95,0x43,0x64,0x04,0x85,
0x42,0x40,0x00,0x92,0x43,0x67,0x00,0x92,0x47,0x67,0x00,0x91,0x37,0x7f,0x40,0x81,
0x37,0x40,0x00,0x85,0x43,0x40,0x1c,0x82,0x43,0x40,0x00,0x82,0x40,0x40,0x04,0x82,
0x47,0x40,0x5c,0x91,0x39,0x7f,0x00,0x95,0x45,0x64,0x04,0x83,0x40,0x40,0x81,0x3c,
0x92,0x40,0x67,0x00,0x92,0x43,0x67,0x04,0x92,0x47,0x67,0x24,0x85,0x45,0x40,0x38,
0x82,0x43,0x40,0x00,0x82,0x40,0x40,0x00,0x81,0x39,0x40,0x04,0x82,0x47,0x40,0x5c,
0x85,0x3b,0x40,0x00,0x95,0x3e,0x64,0x00,0x95,0x47,0x64,0x04,0x91,0x3b,0x7f,0x81,
0x3c,0x81,0x3b,0x40,0x00,0x92,0x3e,0x67,0x04,0x92,0x43,0x67,0x00,0x92,0x47,0x67,
0x00,0x91,0x34,0x7f,0x00,0x93,0x45,0x7f,0x5c,0x82,0x43,0x40,0x00,0x82,0x3e,0x40,
0x04,0x82,0x47,0x40,0x81,0x74,0x83,0x45,0x40,0x28,0x92,0x3e,0x67,0x04,0x92,0x43,
0x67,0x00,0x92,0x47,0x67,0x00,0x93,0x43,0x7f,0x5c,0x82,0x43,0x40,0x00,0x82,0x3e,
0x40,0x04,0x82,0x47,0x40,0x38,0x83,0x43,0x40,0x24,0x93,0x45,0x7f,0x81,0x40,0x92,
0x3e,0x67,0x04,0x92,0x43,0x67,0x00,0x92,0x47,0x67,0x5c,0x82,0x43,0x40,0x00,0x82,
0x3e,0x40,0x04,0x82,0x47,0x40,0x82,0x1c,0x83,0x45,0x40,0x00,0x92,0x3e,0x67,0x04,
0x92,0x43,0x67,0x00,0x92,0x47,0x67,0x00,0x93,0x47,0x7f,0x5c,0x82,0x43,0x40,0x00,
0x82,0x3e,0x40,0x04,0x82,0x47,0x40,0x30,0x83,0x47,0x40,0x2c,0x93,0x43,0x7f,0x18,
0x85,0x3e,0x40,0x81,0x28,0x95,0x3d,0x64,0x04,0x92,0x3d,0x67,0x00,0x92,0x43,0x67,
0x00,0x92,0x47,0x67,0x5c,0x82,0x43,0x40,0x00,0x82,0x3d,0x40,0x04,0x82,0x47,0x40,
0x58,0x83,0x43,0x40,0x04,0x93,0x40,0x7f,0x81,0x40,0x92,0x3d,0x67,0x04,0x92,0x43,
0x67,0x00,0x92,0x47,0x67,0x5c,0x82,0x43,0x40,0x00,0x82,0x3d,0x40,0x04,0x82,0x47,
0x40,0x82,0x1c,0x92,0x3d,0x67,0x04,0x92,0x43,0x67,0x00,0x92,0x47,0x67,0x28,0x83,
0x40,0x40,0x34,0x82,0x43,0x40,0x00,0x82,0x3d,0x40,0x04,0x82,0x47,0x40,0x82,0x1c,
0x92,0x3d,0x67,0x04,0x92,0x43,0x67,0x00,0x92,0x47,0x67,0x00,0x93,0x40,0x7f,0x5c,
0x82,0x43,0x40,0x00,0x82,0x3d,0x40,0x04,0x82,0x47,0x40,0x34,0x83,0x40,0x40,0x28,
0x93,0x4f,0x7f,0x81,0x34,0x85,0x3d,0x40,0x10,0x92,0x3c,0x67,0x00,0x92,0x43,0x67,
0x00,0x92,0x47,0x67,0x00,0x95,0x3c,0x64,0x5c,0x82,0x3c,0x40,0x04,0x82,0x47,0x40,
0x00,0x82,0x43,0x40,0x81,0x50,0x83,0x4f,0x40,0x50,0x92,0x3c,0x67,0x00,0x92,0x43,
0x67,0x00,0x92,0x47,0x67,0x00,0x93,0x4c,0x7f,0x5c,0x82,0x3c,0x40,0x04,0x82,0x47,
0x40,0x00,0x82,0x43,0x40,0x48,0x83,0x4c,0x40,0x18,0x93,0x47,0x7f,0x81,0x40,0x92,
0x3c,0x67,0x00,0x92,0x43,0x67,0x00,0x92,0x47,0x67,0x5c,0x82,0x3c,0x40,0x04,0x82,
0x47,0x40,0x00,0x82,0x43,0x40,0x4c,0x83,0x47,0x40,0x14,0x93,0x45,0x7f,0x81,0x40,
0x92,0x3c,0x67,0x00,0x92,0x43,0x67,0x00,0x92,0x47,0x67,0x5c,0x82,0x3c,0x40,0x04,
0x82,0x47,0x40,0x00,0x82,0x43,0x40,0x50,0x83,0x45,0x40,0x10,0x93,0x43,0x7f,0x81,
0x18,0x85,0x3c,0x40,0x28,0x92,0x40,0x67,0x00,0x92,0x43,0x67,0x00,0x92,0x47,0x67,
0x34,0x85,0x47,0x40,0x28,0x82,0x40,0x40,0x04,0x82,0x47,0x40,0x00,0x82,0x43,0x40,
0x5c,0x81,0x34,0x40,0x04,0x91,0x2f,0x7f,0x00,0x95,0x3b,0x64,0x74,0x85,0x3b,0x40,
0x00,0x81,0x2f,0x40,0x4c,0x92,0x40,0x67,0x00,0x92,0x43,0x67,0x00,0x92,0x47,0x67,
0x00,0x91,0x3b,0x7f,0x00,0x95,0x47,0x64,0x4c,0x85,0x47,0x40,0x00,0x81,0x3b,0x40,
0x10,0x82,0x40,0x40,0x04,0x82,0x47,0x40,0x00,0x82,0x43,0x40,0x60,0x91,0x39,0x7f,
0x00,0x95,0x45,0x64,0x38,0x85,0x45,0x40,0x00,0x81,0x39,0x40,0x81,0x08,0x92,0x40,
0x67,0x00,0x92,0x43,0x67,0x00,0x92,0x47,0x67,0x00,0x91,0x37,0x7f,0x00,0x95,0x43,
0x64,0x18,0x85,0x43,0x40,0x00,0x81,0x37,0x40,0x44,0x82,0x40,0x40,0x04,0x82,0x47,
0x40,0x00,0x82,0x43,0x40,0x50,0x83,0x43,0x40,0x10,0x91,0x34,0x7f,0x00,0x95,0x40,
0x64,0x81,0x40,0x92,0x40,0x67,0x00,0x92,0x43,0x67,0x00,0x92,0x47,0x67,0x1c,0x81,
0x34,0x40,0x40,0x82,0x40,0x40,0x04,0x82,0x47,0x40,0x00,0x82,0x43,0x40,0x44,0x85,
0x40,0x40,0x1c,0x91,0x2f,0x7f,0x81,0x3c,0x81,0x2f,0x40,0x04,0x92,0x40,0x50,0x00,
0x91,0x28,0x7e,0x00,0x95,0x40,0x7f,0x00,0x93,0x43,0x7f,0x00,0x94,0x37,0x74,0x08,
0x92,0x43,0x4a,0x00,0x92,0x47,0x4a,0x40,0x83,0x43,0x40,0x08,0x82,0x43,0x40,0x00,
0x82,0x40,0x40,0x04,0x82,0x47,0x40,0x0c,0x81,0x28,0x40,0x58,0xe4,0x00,0x48,0x08,
0x93,0x45,0x7f,0x04,0xe4,0x00,0x4b,0x70,0x83,0x45,0x40,0x44,0x92,0x40,0x50,0x04,
0xe4,0x00,0x50,0x04,0x91,0x28,0x61,0x00,0x93,0x47,0x7f,0x04,0x92,0x47,0x4a,0x04,
0x92,0x43,0x4a,0x00,0xe4,0x40,0x55,0x40,0x82,0x40,0x40,0x04,0x82,0x47,0x40,0x04,
0x82,0x43,0x40,0x0c,0x83,0x47,0x40,0x14,0x81,0x28,0x40,0x28,0x84,0x37,0x40,0x24,
0x94,0x37,0x69,0x04,0x93,0x43,0x7f,0x00,0xe4,0x00,0x40,0x81,0x38,0x92,0x40,0x55,
0x08,0x91,0x28,0x53,0x08,0x92,0x43,0x52,0x04,0x92,0x47,0x52,0x30,0x82,0x40,0x40,
0x08,0x82,0x43,0x40,0x04,0x82,0x47,0x40,0x24,0x81,0x28,0x40,0x3c,0x84,0x37,0x40,
0x10,0x83,0x43,0x40,0x08,0x95,0x3b,0x7f,0x00,0x93,0x40,0x7f,0x04,0x85,0x40,0x40,
0x00,0x94,0x34,0x72,0x81,0x18,0x85,0x3b,0x40,0x1c,0x92,0x47,0x77,0x04,0x92,0x43,
0x77,0x00,0x92,0x40,0x72,0x04,0x91,0x28,0x78,0x00,0x95,0x40,0x7f,0x44,0x82,0x43,
0x40,0x00,0x82,0x47,0x40,0x18,0x82,0x40,0x40,0x10,0x81,0x28,0x40,0x1c,0x85,0x40,
0x40,0x38,0x95,0x42,0x7f,0x3c,0x84,0x34,0x40,0x14,0x85,0x42,0x40,0x28,0x83,0x40,
0x40,0x40,0x92,0x43,0x58,0x04,0x92,0x47,0x58,0x00,0x92,0x40,0x55,0x04,0x91,0x28,
0x5b,0x00,0x95,0x43,0x7f,0x00,0x93,0x43,0x7f,0x08,0x94,0x37,0x75,0x30,0x82,0x47,
0x40,0x00,0x82,0x43,0x40,0x14,0x82,0x40,0x40,0x18,0x83,0x43,0x40,0x10,0x81,0x28,
0x40,0x4c,0x93,0x45,0x7f,0x00,0xe4,0x40,0x45,0x0c,0xe4,0x00,0x46,0x14,0xe4,0x00,
0x4b,0x34,0x83,0x45,0x40,0x60,0x84,0x37,0x40,0x04,0x92,0x40,0x50,0x00,0x92,0x43,
0x4f,0x04,0xe4,0x00,0x40,0x04,0x92,0x47,0x4f,0x00,0x91,0x28,0x53,0x00,0x93,0x47,
0x7f,0x00,0x94,0x3a,0x72,0x14,0xe4,0x40,0x45,0x2c,0x83,0x47,0x40,0x0c,0x82,0x40,
0x40,0x04,0x82,0x43,0x40,0x04,0x82,0x47,0x40,0x24,0x81,0x28,0x40,0x2c,0xe4,0x40,
0x4a,0x18,0xe4,0x00,0x50,0x04,0x85,0x43,0x40,0x00,0x95,0x42,0x7f,0x00,0x93,0x4a,
0x7f,0x14,0xe4,0x00,0x55,0x2c,0xe4,0x00,0x56,0x78,0x92,0x40,0x6b,0x00,0x92,0x43,
0x64,0x04,0x92,0x47,0x6a,0x04,0x91,0x28,0x77,0x44,0x82,0x40,0x40,0x04,0x82,0x47,
0x40,0x00,0x82,0x43,0x40,0x2c,0x81,0x28,0x40,0x00,0x83,0x4a,0x40,0x38,0x84,0x3a,
0x40,0x14,0x93,0x49,0x7f,0x0c,0x94,0x3d,0x75,0x08,0xe4,0x00,0x40,0x34,0x83,0x49,
0x40,0x6c,0x92,0x40,0x72,0x04,0x92,0x43,0x6f,0x00,0xe4,0x00,0x3b,0x04,0x92,0x47,
0x6f,0x04,0x91,0x28,0x59,0x00,0x93,0x47,0x7f,0x20,0xe4,0x00,0x36,0x0c,0x82,0x40,
0x40,0x08,0x82,0x43,0x40,0x04,0x82,0x47,0x40,0x1c,0x83,0x47,0x40,0x28,0x81,0x28,
0x40,0x18,0x85,0x42,0x40,0x18,0x84,0x3d,0x40,0x0c,0x94,0x3d,0x52,0x08,0x95,0x40,
0x7f,0x00,0x93,0x49,0x7f,0x00,0xe4,0x00,0x40,0x81,0x40,0x91,0x28,0x6f,0x04,0x92,
0x43,0x69,0x00,0x92,0x47,0x69,0x04,0x92,0x40,0x6f,0x48,0x82,0x47,0x40,0x00,0x82,
0x43,0x40,0x04,0x82,0x40,0x40,0x28,0x81,0x28,0x40,0x10,0x83,0x49,0x40,0x34,0x93,
0x47,0x7f,0x0c,0x94,0x3b,0x75,0x14,0x84,0x3d,0x40,0x30,0x83,0x47,0x40,0x70,0x92,
0x40,0x54,0x00,0x91,0x28,0x61,0x00,0x93,0x45,0x7f,0x08,0x92,0x43,0x57,0x04,0x92,
0x47,0x57,0x10,0xe4,0x40,0x3b,0x10,0xe4,0x00,0x3b,0x18,0x82,0x40,0x40,0x00,0xe4,
0x00,0x36,0x18,0x82,0x47,0x40,0x00,0x82,0x43,0x40,0x00,0x83,0x45,0x40,0x10,0x81,
0x28,0x40,0x50,0xe4,0x00,0x40,0x04,0x95,0x3e,0x7f,0x00,0x93,0x47,0x7f,0x28,0x85,
0x40,0x40,0x81,0x18,0x92,0x40,0x58,0x00,0x91,0x28,0x5e,0x04,0x92,0x43,0x5c,0x04,
0x92,0x47,0x5c,0x38,0x82,0x40,0x40,0x18,0x82,0x43,0x40,0x04,0x82,0x47,0x40,0x10,
0x81,0x28,0x40,0x18,0x83,0x47,0x40,0x14,0x84,0x3b,0x40,0x28,0x93,0x45,0x7f,0x14,
0x94,0x39,0x75,0x44,0x83,0x45,0x40,0x68,0x91,0x28,0x75,0x00,0x93,0x43,0x7f,0x04,
0x92,0x43,0x69,0x00,0x92,0x47,0x69,0x00,0xe4,0x00,0x3b,0x04,0x92,0x40,0x6f,0x00,
0xe4,0x00,0x36,0x48,0x82,0x47,0x40,0x00,0x82,0x43,0x40,0x04,0x82,0x40,0x40,0x04,
0x83,0x43,0x40,0x10,0x81,0x28,0x40,0x58,0x95,0x3c,0x7f,0x00,0x93,0x45,0x7f,0x04,
0xe4,0x00,0x40,0x30,0x85,0x3e,0x40,0x81,0x0c,0x92,0x30,0x7f,0x00,0x92,0x40,0x50,
0x00,0x91,0x24,0x76,0x08,0x92,0x43,0x4a,0x00,0x92,0x48,0x4a,0x48,0x82,0x40,0x40,
0x04,0x82,0x48,0x40,0x00,0x82,0x43,0x40,0x08,0x82,0x30,0x40,0x04,0x81,0x24,0x40,
0x60,0x92,0x32,0x63,0x00,0x91,0x26,0x63,0x60,0x81,0x26,0x40,0x00,0x82,0x32,0x40,
0x5c,0x92,0x40,0x6f,0x04,0x92,0x34,0x61,0x00,0x91,0x28,0x69,0x08,0x92,0x48,0x6e,
0x00,0x92,0x43,0x73,0x40,0x82,0x40,0x40,0x08,0x82,0x43,0x40,0x00,0x82,0x48,0x40,
0x10,0x81,0x28,0x40,0x00,0x82,0x34,0x40,0x60,0x92,0x36,0x6e,0x00,0x91,0x2a,0x5c,
0x60,0x81,0x2a,0x40,0x00,0x82,0x36,0x40,0x58,0x92,0x40,0x51,0x08,0x92,0x37,0x6f,
0x00,0x91,0x2b,0x69,0x08,0x92,0x43,0x53,0x04,0x92,0x48,0x52,0x34,0x82,0x40,0x40,
0x04,0x82,0x43,0x40,0x04,0x82,0x48,0x40,0x18,0x81,0x2b,0x40,0x00,0x82,0x37,0x40,
0x0c,0x84,0x39,0x40,0x54,0x92,0x39,0x6d,0x00,0x91,0x2d,0x63,0x60,0x81,0x2d,0x40,
0x00,0x82,0x39,0x40,0x5c,0x92,0x48,0x77,0x00,0x92,0x43,0x77,0x04,0x92,0x40,0x72,
0x00,0x92,0x3b,0x6d,0x00,0x91,0x2f,0x6a,0x44,0x82,0x48,0x40,0x04,0x82,0x43,0x40,
0x14,0x82,0x40,0x40,0x04,0x81,0x2f,0x40,0x00,0x82,0x3b,0x40,0x0c,0x85,0x3c,0x40,
0x54,0x92,0x3c,0x7f,0x00,0x91,0x30,0x7f,0x10,0x83,0x45,0x40,0x81,0x28,0x94,0x37,
0x75,0x04,0x92,0x43,0x58,0x00,0x92,0x48,0x58,0x04,0x92,0x40,0x55,0x00,0x95,0x40,
0x7f,0x00,0x93,0x43,0x7f,0x38,0x82,0x43,0x40,0x04,0x82,0x48,0x40,0x10,0x82,0x40,
0x40,0x0c,0x83,0x43,0x40,0x40,0x85,0x40,0x40,0x28,0x95,0x42,0x7f,0x00,0x93,0x45,
0x7f,0x00,0xe4,0x40,0x45,0x00,0xe4,0x00,0x4b,0x5c,0x85,0x42,0x40,0x1c,0x83,0x45,
0x40,0x00,0x84,0x37,0x40,0x40,0x92,0x40,0x50,0x00,0xe4,0x00,0x40,0x00,0x94,0x3b,
0x75,0x04,0x92,0x43,0x4f,0x04,0x92,0x48,0x4f,0x00,0x95,0x43,0x7f,0x04,0x93,0x47,
0x7f,0x4c,0x82,0x43,0x40,0x00,0x82,0x40,0x40,0x00,0x82,0x3c,0x40,0x04,0x83,0x47,
0x40,0x04,0x82,0x48,0x40,0x04,0x85,0x43,0x40,0x64,0x81,0x30,0x40,0x00,0x92,0x40,
0x7f,0x00,0x95,0x45,0x7f,0x04,0x91,0x28,0x7f,0x00,0x93,0x48,0x7f,0x18,0xe4,0x40,
0x45,0x81,0x14,0x82,0x40,0x40,0x08,0x92,0x40,0x78,0x04,0x92,0x43,0x76,0x00,0x92,
0x48,0x76,0x4c,0x82,0x43,0x40,0x04,0x82,0x48,0x40,0x3c,0x83,0x48,0x40,0x08,0x85,
0x45,0x40,0x30,0x82,0x40,0x40,0x00,0x81,0x28,0x40,0x00,0x95,0x43,0x7f,0x00,0x93,
0x47,0x7f,0x08,0xe4,0x00,0x46,0x20,0xe4,0x00,0x40,0x81,0x10,0x92,0x40,0x72,0x00,
0x92,0x43,0x6f,0x04,0x85,0x43,0x40,0x04,0x92,0x47,0x6f,0x00,0x91,0x23,0x7f,0x14,
0x83,0x47,0x40,0x1c,0x82,0x40,0x40,0x04,0x82,0x43,0x40,0x08,0x82,0x47,0x40,0x24,
0x92,0x3b,0x7f,0x81,0x00,0x81,0x23,0x40,0x60,0x82,0x3b,0x40,0x0c,0x84,0x3b,0x40,
0x30,0x92,0x40,0x7f,0x04,0x92,0x3b,0x51,0x00,0x92,0x34,0x7f,0x00,0x95,0x40,0x7f,
0x04,0x91,0x28,0x7e,0x00,0x93,0x43,0x7f,0x00,0x94,0x43,0x68,0x44,0x83,0x43,0x40,
0x18,0x81,0x28,0x40,0x14,0x82,0x34,0x40,0x0c,0x82,0x40,0x40,0x04,0x82,0x3b,0x40,
0x38,0x92,0x40,0x69,0x00,0x92,0x43,0x69,0x00,0xe4,0x00,0x48,0x04,0x92,0x3b,0x7f,
0x00,0x93,0x45,0x7f,0x04,0xe4,0x00,0x4b,0x48,0x82,0x40,0x40,0x04,0x82,0x3b,0x40,
0x00,0x82,0x43,0x40,0x24,0x83,0x45,0x40,0x48,0x92,0x40,0x7f,0x00,0xe4,0x00,0x50,
0x04,0x92,0x3b,0x51,0x00,0x92,0x34,0x7f,0x00,0x91,0x28,0x61,0x04,0x93,0x47,0x7f,
0x08,0xe4,0x40,0x55,0x54,0x83,0x47,0x40,0x08,0x82,0x34,0x40,0x0c,0x81,0x28,0x40,
0x0c,0x82,0x40,0x40,0x04,0x82,0x3b,0x40,0x14,0x84,0x43,0x40,0x28,0x92,0x3b,0x7f,
0x00,0x94,0x43,0x5d,0x00,0xe4,0x00,0x40,0x04,0x92,0x40,0x6a,0x00,0x92,0x43,0x6a,
0x00,0x93,0x43,0x7f,0x50,0x82,0x3b,0x40,0x0c,0x82,0x43,0x40,0x00,0x82,0x40,0x40,
0x58,0x92,0x3b,0x4e,0x08,0x92,0x40,0x7c,0x00,0x92,0x34,0x7f,0x04,0x91,0x28,0x53,
0x68,0x81,0x28,0x40,0x00,0x82,0x34,0x40,0x10,0x82,0x40,0x40,0x0c,0x82,0x3b,0x40,
0x20,0x84,0x43,0x40,0x10,0x83,0x43,0x40,0x08,0x92,0x3b,0x7f,0x00,0x95,0x3b,0x7f,
0x04,0x85,0x40,0x40,0x00,0x92,0x40,0x70,0x00,0x93,0x40,0x7f,0x04,0x92,0x43,0x70,
0x00,0x94,0x40,0x66,0x48,0x82,0x40,0x40,0x04,0x82,0x43,0x40,0x00,0x82,0x3b,0x40,
0x48,0x85,0x3b,0x40,0x24,0x95,0x40,0x7f,0x04,0x92,0x34,0x7f,0x00,0x92,0x3b,0x54,
0x00,0x92,0x40,0x7e,0x00,0x91,0x28,0x78,0x64,0x82,0x34,0x40,0x04,0x81,0x28,0x40,
0x1c,0x85,0x40,0x40,0x04,0x82,0x40,0x40,0x04,0x82,0x3b,0x40,0x30,0x95,0x42,0x7f,
0x04,0x92,0x3b,0x7f,0x04,0x92,0x40,0x73,0x00,0x92,0x43,0x73,0x38,0x84,0x40,0x40,
0x10,0x85,0x42,0x40,0x08,0x82,0x3b,0x40,0x0c,0x82,0x40,0x40,0x04,0x82,0x43,0x40,
0x14,0x83,0x40,0x40,0x40,0x92,0x40,0x7f,0x04,0x92,0x3b,0x51,0x00,0x95,0x43,0x7f,
0x04,0x92,0x34,0x7f,0x00,0x91,0x28,0x5b,0x00,0x93,0x43,0x7f,0x08,0x94,0x43,0x69,
0x58,0x83,0x43,0x40,0x04,0x82,0x34,0x40,0x10,0x81,0x28,0x40,0x08,0x82,0x40,0x40,
0x04,0x82,0x3b,0x40,0x3c,0x92,0x3b,0x7f,0x04,0x92,0x40,0x6a,0x00,0x92,0x43,0x6a,
0x00,0x93,0x45,0x7f,0x00,0xe4,0x40,0x45,0x0c,0xe4,0x00,0x46,0x14,0xe4,0x00,0x4b,
0x34,0x83,0x45,0x40,0x00,0x82,0x3b,0x40,0x08,0x82,0x43,0x40,0x00,0x82,0x40,0x40,
0x54,0x84,0x43,0x40,0x04,0x92,0x3b,0x4e,0x08,0x92,0x40,0x7c,0x00,0xe4,0x00,0x40,
0x00,0x94,0x46,0x66,0x04,0x92,0x34,0x7f,0x00,0x91,0x28,0x53,0x00,0x93,0x47,0x7f,
0x10,0xe4,0x40,0x45,0x2c,0x83,0x47,0x40,0x30,0x82,0x34,0x40,0x0c,0x81,0x28,0x40,
0x00,0x82,0x40,0x40,0x0c,0x82,0x3b,0x40,0x20,0xe4,0x40,0x4a,0x14,0xe4,0x00,0x50,
0x04,0x95,0x42,0x7f,0x04,0x85,0x43,0x40,0x00,0x92,0x3b,0x7f,0x00,0x92,0x40,0x70,
0x00,0x92,0x43,0x70,0x00,0x93,0x4a,0x7f,0x10,0xe4,0x00,0x55,0x30,0xe4,0x00,0x56,
0x0c,0x82,0x40,0x40,0x04,0x82,0x43,0x40,0x04,0x82,0x3b,0x40,0x64,0x92,0x40,0x7f,
0x04,0x92,0x3b,0x51,0x00,0x92,0x34,0x7f,0x04,0x91,0x28,0x77,0x70,0x83,0x4a,0x40,
0x04,0x81,0x28,0x40,0x04,0x82,0x34,0x40,0x04,0x82,0x40,0x40,0x04,0x82,0x3b,0x40,
0x28,0x84,0x46,0x40,0x10,0x92,0x40,0x69,0x00,0x92,0x43,0x69,0x04,0x92,0x3b,0x7f,
0x04,0x93,0x49,0x7f,0x08,0x94,0x49,0x69,0x08,0xe4,0x00,0x40,0x34,0x83,0x49,0x40,
0x04,0x82,0x40,0x40,0x04,0x82,0x43,0x40,0x1c,0x82,0x3b,0x40,0x50,0x92,0x40,0x7f,
0x00,0xe4,0x00,0x3b,0x04,0x92,0x3b,0x51,0x00,0x92,0x34,0x7f,0x04,0x91,0x28,0x7f,
0x00,0x93,0x47,0x7f,0x1c,0xe4,0x00,0x36,0x34,0x83,0x47,0x40,0x28,0x81,0x28,0x40,
0x04,0x82,0x34,0x40,0x00,0x82,0x40,0x40,0x04,0x82,0x3b,0x40,0x14,0x85,0x42,0x40,
0x14,0x84,0x49,0x40,0x0c,0x94,0x49,0x46,0x08,0x95,0x40,0x7f,0x04,0x92,0x3b,0x7f,
0x00,0x92,0x40,0x6a,0x00,0x93,0x49,0x7f,0x00,0xe4,0x00,0x40,0x04,0x92,0x43,0x6a,
0x58,0x82,0x43,0x40,0x00,0x82,0x40,0x40,0x10,0x82,0x3b,0x40,0x48,0x92,0x3b,0x4e,
0x08,0x92,0x40,0x7c,0x04,0x92,0x34,0x7f,0x00,0x91,0x28,0x6f,0x78,0x82,0x40,0x40,
0x04,0x81,0x28,0x40,0x04,0x82,0x34,0x40,0x04,0x82,0x3b,0x40,0x08,0x83,0x49,0x40,
0x30,0x92,0x3b,0x7f,0x04,0x92,0x40,0x70,0x00,0x93,0x47,0x7f,0x04,0x92,0x43,0x70,
0x04,0x94,0x47,0x69,0x18,0x84,0x49,0x40,0x2c,0x82,0x40,0x40,0x04,0x82,0x43,0x40,
0x00,0x83,0x47,0x40,0x10,0x82,0x3b,0x40,0x58,0x92,0x40,0x7f,0x04,0x92,0x3b,0x51,
0x00,0x92,0x34,0x7f,0x04,0x91,0x28,0x61,0x00,0x93,0x45,0x7f,0x1c,0xe4,0x40,0x3b,
0x0c,0xe4,0x00,0x3b,0x18,0xe4,0x00,0x36,0x18,0x83,0x45,0x40,0x14,0x81,0x28,0x40,
0x10,0x82,0x40,0x40,0x04,0x82,0x3b,0x40,0x08,0x82,0x34,0x40,0x30,0x92,0x40,0x69,
0x00,0x92,0x43,0x69,0x04,0x95,0x3e,0x7f,0x00,0xe4,0x00,0x40,0x04,0x92,0x3b,0x7f,
0x00,0x93,0x47,0x7f,0x28,0x85,0x40,0x40,0x20,0x82,0x40,0x40,0x04,0x82,0x43,0x40,
0x28,0x82,0x3b,0x40,0x44,0x92,0x40,0x7f,0x04,0x92,0x3b,0x51,0x04,0x92,0x34,0x7f,
0x00,0x91,0x28,0x5e,0x6c,0x81,0x28,0x40,0x14,0x82,0x3b,0x40,0x00,0x82,0x40,0x40,
0x00,0x83,0x47,0x40,0x04,0x82,0x34,0x40,0x14,0x84,0x47,0x40,0x28,0x92,0x3b,0x7f,
0x00,0x92,0x40,0x6a,0x00,0x92,0x43,0x6a,0x00,0x93,0x45,0x7f,0x10,0x94,0x45,0x69,
0x44,0x83,0x45,0x40,0x08,0x82,0x40,0x40,0x04,0x82,0x43,0x40,0x08,0x82,0x3b,0x40,
0x50,0x92,0x40,0x7f,0x04,0x92,0x3b,0x51,0x04,0x92,0x34,0x7f,0x00,0x91,0x28,0x75,
0x00,0x93,0x43,0x7f,0x00,0xe4,0x00,0x3b,0x08,0xe4,0x00,0x36,0x50,0x83,0x43,0x40,
0x10,0x81,0x28,0x40,0x18,0x82,0x3b,0x40,0x00,0x82,0x40,0x40,0x0c,0x82,0x34,0x40,
0x34,0x92,0x3b,0x7f,0x00,0x92,0x40,0x6a,0x00,0x92,0x43,0x6a,0x00,0x95,0x3c,0x7f,
0x00,0x93,0x45,0x7f,0x04,0xe4,0x40,0x40,0x30,0x85,0x3e,0x40,0x28,0x82,0x40,0x40,
0x04,0x82,0x43,0x40,0x24,0x82,0x3b,0x40,0x34,0x92,0x3c,0x4e,0x08,0x92,0x40,0x7c,
0x00,0x92,0x30,0x7f,0x00,0x91,0x24,0x76,0x5c,0x81,0x24,0x40,0x00,0x82,0x30,0x40,
0x1c,0x82,0x40,0x40,0x0c,0x82,0x3c,0x40,0x3c,0x92,0x32,0x7f,0x00,0x91,0x26,0x63,
0x04,0x92,0x40,0x70,0x00,0x92,0x43,0x70,0x4c,0x82,0x43,0x40,0x00,0x82,0x40,0x40,
0x0c,0x81,0x26,0x40,0x00,0x82,0x32,0x40,0x5c,0x92,0x3c,0x4e,0x08,0x92,0x40,0x7c,
0x00,0x92,0x34,0x7f,0x00,0x91,0x28,0x69,0x5c,0x81,0x28,0x40,0x00,0x82,0x34,0x40,
0x1c,0x82,0x40,0x40,0x0c,0x82,0x3c,0x40,0x3c,0x92,0x36,0x7f,0x00,0x91,0x2a,0x5c,
0x04,0x92,0x40,0x70,0x00,0x92,0x43,0x70,0x4c,0x82,0x43,0x40,0x00,0x82,0x40,0x40,
0x0c,0x81,0x2a,0x40,0x00,0x82,0x36,0x40,0x60,0x92,0x40,0x7f,0x00,0x92,0x3c,0x51,
0x04,0x92,0x37,0x7f,0x00,0x91,0x2b,0x69,0x5c,0x81,0x2b,0x40,0x00,0x82,0x37,0x40,
0x0c,0x84,0x45,0x40,0x18,0x82,0x40,0x40,0x04,0x82,0x3c,0x40,0x34,0x92,0x40,0x69,
0x00,0x92,0x43,0x69,0x08,0x92,0x39,0x7f,0x00,0x91,0x2d,0x63,0x4c,0x82,0x43,0x40,
0x00,0x82,0x40,0x40,0x10,0x81,0x2d,0x40,0x00,0x82,0x39,0x40,0x60,0x92,0x40,0x7f,
0x00,0x92,0x3c,0x51,0x04,0x92,0x3b,0x7f,0x00,0x91,0x2f,0x6a,0x5c,0x81,0x2f,0x40,
0x00,0x82,0x3b,0x40,0x10,0x85,0x3c,0x40,0x14,0x82,0x40,0x40,0x04,0x82,0x3c,0x40,
0x3c,0x92,0x3c,0x7f,0x00,0x92,0x40,0x6a,0x00,0x92,0x43,0x6a,0x00,0x91,0x30,0x7f,
0x0c,0x83,0x45,0x40,0x50,0x82,0x40,0x40,0x04,0x82,0x43,0x40,0x54,0x82,0x3c,0x40,
0x04,0x92,0x3c,0x4e,0x00,0x94,0x43,0x69,0x08,0x92,0x40,0x7c,0x00,0x95,0x40,0x7f,
0x00,0x93,0x43,0x7f,0x58,0x83,0x43,0x40,0x20,0x82,0x40,0x40,0x20,0x85,0x40,0x40,
0x24,0xe4,0x40,0x45,0x04,0x95,0x42,0x7f,0x00,0x93,0x45,0x7f,0x00,0xe4,0x00,0x4b,
0x04,0x92,0x40,0x70,0x00,0x92,0x43,0x70,0x4c,0x82,0x43,0x40,0x00,0x82,0x40,0x40,
0x08,0x85,0x42,0x40,0x1c,0x83,0x45,0x40,0x00,0x84,0x43,0x40,0x3c,0x82,0x3c,0x40,
0x04,0xe4,0x00,0x40,0x04,0x94,0x47,0x69,0x04,0x92,0x40,0x7f,0x00,0x92,0x3c,0x51,
0x04,0x95,0x43,0x7f,0x00,0x93,0x47,0x7f,0x54,0x83,0x47,0x40,0x04,0x85,0x43,0x40,
0x28,0x82,0x40,0x40,0x30,0x82,0x3c,0x40,0x08,0x92,0x40,0x69,0x00,0x92,0x43,0x69,
0x04,0x81,0x30,0x40,0x04,0x92,0x34,0x7f,0x00,0x91,0x28,0x7f,0x00,0x95,0x45,0x7f,
0x04,0x93,0x48,0x7f,0x14,0xe4,0x40,0x45,0x34,0x82,0x43,0x40,0x00,0x82,0x40,0x40,
0x70,0x92,0x40,0x7f,0x00,0x92,0x3b,0x51,0x81,0x04,0x82,0x40,0x40,0x04,0x82,0x3b,
0x40,0x04,0x83,0x48,0x40,0x08,0x85,0x45,0x40,0x2c,0x81,0x28,0x40,0x04,0x92,0x40,
0x6a,0x00,0x92,0x43,0x6a,0x00,0x95,0x43,0x7f,0x00,0x93,0x47,0x7f,0x24,0xe4,0x00,
0x40,0x38,0x82,0x40,0x40,0x04,0x82,0x43,0x40,0x58,0x85,0x43,0x40,0x00,0x92,0x3b,
0x4e,0x04,0x82,0x34,0x40,0x04,0x92,0x40,0x7c,0x00,0x91,0x23,0x7f,0x78,0x82,0x40,
0x40,0x0c,0x82,0x3b,0x40,0x40,0x92,0x40,0x70,0x00,0x92,0x43,0x70,0x10,0x83,0x47,
0x40,0x0c,0x81,0x23,0x40,0x30,0x82,0x43,0x40,0x00,0x82,0x40,0x40,0x3c,0x84,0x47,
0x40,0x34,0x92,0x3e,0x67,0x00,0x92,0x43,0x67,0x00,0x92,0x47,0x67,0x00,0x95,0x3e,
0x64,0x00,0x95,0x40,0x64,0x04,0x91,0x28,0x7f,0x00,0x93,0x45,0x7f,0x58,0x82,0x3e,
0x40,0x04,0x82,0x47,0x40,0x00,0x82,0x43,0x40,0x82,0x08,0x83,0x45,0x40,0x18,0x92,
0x3e,0x67,0x00,0x92,0x43,0x67,0x00,0x92,0x47,0x67,0x00,0x93,0x43,0x7f,0x5c,0x82,
0x3e,0x40,0x04,0x82,0x47,0x40,0x00,0x82,0x43,0x40,0x5c,0x83,0x43,0x40,0x04,0x93,
0x45,0x7f,0x81,0x40,0x92,0x3e,0x67,0x00,0x92,0x43,0x67,0x00,0x92,0x47,0x67,0x5c,
0x82,0x3e,0x40,0x04,0x82,0x47,0x40,0x00,0x82,0x43,0x40,0x82,0x1c,0x83,0x45,0x40,
0x04,0x92,0x3e,0x67,0x00,0x92,0x43,0x67,0x00,0x92,0x47,0x67,0x00,0x93,0x47,0x7f,
0x5c,0x82,0x3e,0x40,0x04,0x82,0x47,0x40,0x00,0x82,0x43,0x40,0x44,0x83,0x47,0x40,
0x1c,0x93,0x43,0x7f,0x81,0x3c,0x85,0x3e,0x40,0x04,0x85,0x40,0x40,0x00,0x92,0x3d,
0x67,0x00,0x95,0x3d,0x64,0x00,0x95,0x40,0x64,0x04,0x92,0x43,0x67,0x00,0x92,0x47,
0x67,0x58,0x82,0x3d,0x40,0x04,0x82,0x47,0x40,0x00,0x82,0x43,0x40,0x40,0x83,0x43,
0x40,0x20,0x93,0x40,0x7f,0x81,0x40,0x92,0x3d,0x67,0x00,0x92,0x43,0x67,0x00,0x92,
0x47,0x67,0x5c,0x82,0x3d,0x40,0x04,0x82,0x47,0x40,0x00,0x82,0x43,0x40,0x82,0x00,
0x83,0x40,0x40,0x20,0x92,0x3d,0x67,0x00,0x92,0x43,0x67,0x00,0x92,0x47,0x67,0x5c,
0x82,0x3d,0x40,0x04,0x82,0x47,0x40,0x00,0x82,0x43,0x40,0x82,0x20,0x92,0x3d,0x67,
0x00,0x92,0x43,0x67,0x00,0x92,0x47,0x67,0x00,0x93,0x40,0x7f,0x5c,0x82,0x3d,0x40,
0x04,0x82,0x47,0x40,0x00,0x82,0x43,0x40,0x4c,0x83,0x40,0x40,0x14,0x93,0x4c,0x7f,
0x81,0x3c,0x85,0x3d,0x40,0x04,0x85,0x40,0x40,0x00,0x92,0x3c,0x67,0x00,0x95,0x3c,
0x64,0x00,0x95,0x40,0x64,0x04,0x92,0x43,0x67,0x00,0x92,0x47,0x67,0x58,0x82,0x3c,
0x40,0x04,0x82,0x47,0x40,0x00,0x82,0x43,0x40,0x82,0x10,0x83,0x4c,0x40,0x10,0x92,
0x3c,0x67,0x00,0x92,0x43,0x67,0x00,0x92,0x47,0x67,0x00,0x93,0x47,0x7f,0x5c,0x82,
0x3c,0x40,0x04,0x82,0x47,0x40,0x00,0x82,0x43,0x40,0x48,0x83,0x47,0x40,0x18,0x93,
0x45,0x7f,0x81,0x40,0x92,0x3c,0x67,0x00,0x92,0x43,0x67,0x00,0x92,0x47,0x67,0x5c,
0x82,0x3c,0x40,0x04,0x82,0x43,0x40,0x04,0x82,0x47,0x40,0x5c,0x83,0x45,0x40,0x00,
0x93,0x43,0x7f,0x81,0x40,0x92,0x3c,0x67,0x00,0x92,0x43,0x67,0x00,0x92,0x47,0x67,
0x60,0x82,0x43,0x40,0x00,0x82,0x3c,0x40,0x04,0x82,0x47,0x40,0x48,0x83,0x43,0x40,
0x14,0x93,0x40,0x7f,0x81,0x40,0x85,0x40,0x40,0x00,0x85,0x3c,0x40,0x00,0x92,0x40,
0x67,0x00,0x92,0x43,0x67,0x60,0x82,0x43,0x40,0x00,0x82,0x40,0x40,0x60,0x92,0x42,
0x63,0x60,0x82,0x42,0x40,0x60,0x81,0x28,0x40,0x00,0x92,0x40,0x67,0x00,0x92,0x43,
0x67,0x00,0x95,0x40,0x64,0x04,0x92,0x47,0x67,0x00,0x91,0x28,0x61,0x5c,0x81,0x28,
0x40,0x00,0x85,0x40,0x40,0x00,0x82,0x43,0x40,0x00,0x82,0x40,0x40,0x04,0x82,0x47,
0x40,0x5c,0x92,0x45,0x74,0x00,0x95,0x42,0x64,0x04,0x91,0x2a,0x6c,0x81,0x3c,0x81,
0x2a,0x40,0x00,0x82,0x45,0x40,0x00,0x92,0x40,0x67,0x00,0x92,0x43,0x67,0x00,0x95,
0x43,0x64,0x04,0x85,0x42,0x40,0x00,0x92,0x47,0x67,0x00,0x91,0x2b,0x6a,0x40,0x81,
0x2b,0x40,0x00,0x85,0x43,0x40,0x1c,0x82,0x47,0x40,0x00,0x82,0x43,0x40,0x00,0x82,
0x40,0x40,0x60,0x92,0x48,0x7f,0x00,0x95,0x45,0x64,0x04,0x83,0x40,0x40,0x00,0x91,
0x2d,0x7f,0x81,0x3c,0x92,0x40,0x67,0x00,0x92,0x43,0x67,0x00,0x92,0x47,0x67,0x28,
0x85,0x45,0x40,0x38,0x82,0x43,0x40,0x00,0x82,0x40,0x40,0x00,0x81,0x2d,0x40,0x04,
0x82,0x47,0x40,0x5c,0x82,0x48,0x40,0x00,0x92,0x47,0x6a,0x00,0x95,0x3e,0x64,0x00,
0x95,0x47,0x64,0x04,0x91,0x2f,0x70,0x81,0x34,0x82,0x47,0x40,0x08,0x81,0x2f,0x40,
0x00,0x92,0x3e,0x67,0x00,0x92,0x43,0x67,0x00,0x92,0x47,0x67,0x04,0x91,0x28,0x7f,
0x00,0x93,0x45,0x7f,0x5c,0x82,0x43,0x40,0x00,0x82,0x3e,0x40,0x81,0x78,0x83,0x45,
0x40,0x20,0x82,0x47,0x40,0x08,0x92,0x3e,0x67,0x00,0x92,0x43,0x67,0x04,0x92,0x47,
0x67,0x00,0x93,0x43,0x7f,0x5c,0x82,0x43,0x40,0x00,0x82,0x3e,0x40,0x3c,0x83,0x43,
0x40,0x24,0x93,0x45,0x7f,0x81,0x3c,0x82,0x47,0x40,0x04,0x92,0x3e,0x67,0x00,0x92,
0x43,0x67,0x04,0x92,0x47,0x67,0x5c,0x82,0x43,0x40,0x00,0x82,0x3e,0x40,0x82,0x1c,
0x82,0x47,0x40,0x04,0x83,0x45,0x40,0x00,0x92,0x3e,0x67,0x00,0x92,0x43,0x67,0x04,
0x92,0x47,0x67,0x00,0x93,0x47,0x7f,0x5c,0x82,0x43,0x40,0x00,0x82,0x3e,0x40,0x34,
0x83,0x47,0x40,0x2c,0x82,0x47,0x40,0x00,0x93,0x43,0x7f,0x18,0x85,0x3e,0x40,0x81,
0x28,0x92,0x3d,0x67,0x00,0x95,0x3d,0x64,0x04,0x92,0x43,0x67,0x00,0x92,0x47,0x67,
0x5c,0x82,0x43,0x40,0x00,0x82,0x3d,0x40,0x04,0x82,0x47,0x40,0x58,0x83,0x43,0x40,
0x04,0x93,0x40,0x7f,0x81,0x40,0x92,0x3d,0x67,0x04,0x92,0x43,0x67,0x00,0x92,0x47,
0x67,0x5c,0x82,0x43,0x40,0x00,0x82,0x3d,0x40,0x04,0x82,0x47,0x40,0x82,0x1c,0x92,
0x3d,0x67,0x04,0x92,0x43,0x67,0x00,0x92,0x47,0x67,0x28,0x83,0x40,0x40,0x34,0x82,
0x43,0x40,0x00,0x82,0x3d,0x40,0x04,0x82,0x47,0x40,0x82,0x1c,0x92,0x3d,0x67,0x04,
0x92,0x43,0x67,0x00,0x92,0x47,0x67,0x00,0x93,0x40,0x7f,0x5c,0x82,0x43,0x40,0x00,
0x82,0x3d,0x40,0x04,0x82,0x47,0x40,0x34,0x83,0x40,0x40,0x28,0x93,0x4f,0x7f,0x81,
0x30,0x85,0x3d,0x40,0x10,0x95,0x3c,0x64,0x04,0x92,0x3c,0x67,0x00,0x92,0x43,0x67,
0x00,0x92,0x47,0x67,0x5c,0x82,0x43,0x40,0x00,0x82,0x3c,0x40,0x04,0x82,0x47,0x40,
0x81,0x50,0x83,0x4f,0x40,0x4c,0x92,0x3c,0x67,0x04,0x92,0x43,0x67,0x00,0x92,0x47,
0x67,0x00,0x93,0x4c,0x7f,0x5c,0x82,0x43,0x40,0x00,0x82,0x3c,0x40,0x04,0x82,0x47,
0x40,0x48,0x83,0x4c,0x40,0x14,0x93,0x47,0x7f,0x81,0x40,0x92,0x3c,0x67,0x04,0x92,
0x43,0x67,0x00,0x92,0x47,0x67,0x5c,0x82,0x43,0x40,0x00,0x82,0x3c,0x40,0x04,0x82,
0x47,0x40,0x4c,0x83,0x47,0x40,0x10,0x93,0x45,0x7f,0x81,0x40,0x92,0x3c,0x67,0x04,
0x92,0x43,0x67,0x00,0x92,0x47,0x67,0x5c,0x82,0x43,0x40,0x00,0x82,0x3c,0x40,0x04,
0x82,0x47,0x40,0x4c,0x83,0x45,0x40,0x10,0x93,0x43,0x7f,0x81,0x1c,0x85,0x3c,0x40,
0x24,0x92,0x40,0x67,0x04,0x92,0x43,0x67,0x00,0x92,0x47,0x67,0x34,0x85,0x47,0x40,
0x28,0x82,0x40,0x40,0x04,0x82,0x47,0x40,0x00,0x82,0x43,0x40,0x5c,0x81,0x28,0x40,
0x04,0x92,0x40,0x5c,0x00,0x91,0x2f,0x65,0x00,0x95,0x3b,0x64,0x5c,0x82,0x40,0x40,
0x14,0x85,0x3b,0x40,0x04,0x81,0x2f,0x40,0x4c,0x92,0x40,0x67,0x00,0x92,0x43,0x67,
0x00,0x92,0x47,0x67,0x00,0x91,0x3b,0x7f,0x00,0x95,0x47,0x64,0x4c,0x85,0x47,0x40,
0x00,0x81,0x3b,0x40,0x10,0x82,0x40,0x40,0x04,0x82,0x47,0x40,0x00,0x82,0x43,0x40,
0x60,0x92,0x42,0x5e,0x00,0x91,0x39,0x6f,0x00,0x95,0x45,0x64,0x38,0x85,0x45,0x40,
0x00,0x81,0x39,0x40,0x81,0x04,0x82,0x42,0x40,0x04,0x92,0x40,0x67,0x00,0x92,0x43,
0x67,0x00,0x92,0x47,0x67,0x00,0x91,0x37,0x67,0x00,0x95,0x43,0x64,0x18,0x85,0x43,
0x40,0x00,0x81,0x37,0x40,0x44,0x82,0x40,0x40,0x04,0x82,0x47,0x40,0x00,0x82,0x43,
0x40,0x50,0x83,0x43,0x40,0x10,0x92,0x3b,0x79,0x00,0x91,0x34,0x7f,0x00,0x95,0x40,
0x64,0x81,0x40,0x92,0x40,0x67,0x00,0x92,0x43,0x67,0x00,0x92,0x47,0x67,0x1c,0x81,
0x34,0x40,0x40,0x82,0x40,0x40,0x04,0x82,0x47,0x40,0x00,0x82,0x43,0x40,0x44,0x85,
0x40,0x40,0x18,0x82,0x3b,0x40,0x04,0x92,0x34,0x7b,0x00,0x91,0x2f,0x7f,0x5c,0x82,
0x34,0x40,0x60,0x81,0x2f,0x40,0x04,0x91,0x24,0x7f,0x00,0x95,0x48,0x71,0x00,0x93,
0x4c,0x56,0x5c,0x81,0x24,0x40,0x68,0x91,0x28,0x78,0x4c,0x81,0x28,0x40,0x68,0x92,
0x40,0x67,0x0c,0x91,0x2f,0x7f,0x04,0x92,0x43,0x61,0x40,0x82,0x40,0x40,0x08,0x82,
0x43,0x40,0x14,0x81,0x2f,0x40,0x81,0x00,0x91,0x30,0x7f,0x81,0x14,0x92,0x40,0x6c,
0x10,0x92,0x43,0x69,0x34,0x82,0x40,0x40,0x08,0x82,0x43,0x40,0x54,0x83,0x4c,0x40,
0x14,0x85,0x48,0x40,0x14,0x95,0x4a,0x71,0x00,0x93,0x4e,0x56,0x00,0x94,0x42,0x66,
0x81,0x14,0x83,0x4e,0x40,0x14,0x85,0x4a,0x40,0x14,0x92,0x43,0x7f,0x00,0x92,0x40,
0x7f,0x00,0xe4,0x00,0x45,0x04,0x95,0x4c,0x71,0x00,0x93,0x4f,0x56,0x44,0x82,0x43,
0x40,0x18,0x82,0x40,0x40,0x18,0x83,0x4f,0x40,0x00,0x85,0x4c,0x40,0x4c,0x95,0x4e,
0x71,0x00,0x93,0x51,0x56,0x10,0xe4,0x40,0x4a,0x14,0xe4,0x40,0x50,0x81,0x14,0x92,
0x43,0x6f,0x04,0x92,0x40,0x6c,0x3c,0x82,0x43,0x40,0x10,0x82,0x40,0x40,0x28,0x83,
0x51,0x40,0x14,0x84,0x42,0x40,0x20,0x85,0x4e,0x40,0x1c,0x95,0x4c,0x71,0x00,0x93,
0x4f,0x56,0x04,0xe4,0x00,0x40,0x04,0x94,0x43,0x68,0x81,0x30,0x92,0x40,0x67,0x00,
0x92,0x43,0x66,0x54,0x82,0x40,0x40,0x04,0x82,0x43,0x40,0x38,0x83,0x4f,0x40,0x34,
0xe4,0x00,0x3b,0x04,0x95,0x4a,0x71,0x00,0x93,0x4e,0x56,0x48,0x85,0x4c,0x40,0x70,
0x92,0x40,0x7f,0x00,0x92,0x43,0x7f,0x50,0x82,0x43,0x40,0x04,0x82,0x40,0x40,0x48,
0x84,0x43,0x40,0x18,0x83,0x4e,0x40,0x14,0x95,0x48,0x71,0x00,0x93,0x4c,0x56,0x08,
0x94,0x40,0x66,0x08,0x85,0x4a,0x40,0x00,0xe4,0x00,0x40,0x81,0x24,0x92,0x40,0x7f,
0x04,0x92,0x43,0x7f,0x81,0x30,0x83,0x4c,0x40,0x50,0x85,0x48,0x40,0x10,0x84,0x40,
0x40,0x44,0x82,0x40,0x40,0x08,0x82,0x43,0x40,0x20,0xe1,0x40,0x3c,0x0c,0x95,0x43,
0x71,0x00,0x93,0x47,0x56,0x04,0x92,0x43,0x7f,0x04,0x92,0x40,0x7f,0x20,0x94,0x3b,
0x5a,0x28,0x82,0x43,0x40,0x04,0x82,0x40,0x40,0x30,0x81,0x30,0x40,0x38,0xe1,0x00,
0x3c,0x34,0x83,0x47,0x40,0x08,0xe1,0x00,0x3a,0x14,0x85,0x43,0x40,0x14,0x95,0x42,
0x71,0x00,0x93,0x45,0x56,0x0c,0xe4,0x40,0x35,0x38,0x83,0x45,0x40,0x04,0x85,0x42,
0x40,0x18,0x92,0x40,0x6b,0x00,0x95,0x40,0x71,0x00,0x93,0x43,0x56,0x08,0x92,0x43,
0x6e,0x3c,0x82,0x40,0x40,0x08,0xe4,0x00,0x2b,0x10,0x82,0x43,0x40,0x78,0xe1,0x00,
0x40,0x04,0x91,0x2b,0x7f,0x58,0x81,0x2b,0x40,0x50,0x92,0x40,0x6f,0x04,0x92,0x43,
0x73,0x0c,0x83,0x43,0x40,0x10,0x85,0x40,0x40,0x10,0x91,0x28,0x7f,0x10,0x82,0x40,
0x40,0x18,0x82,0x43,0x40,0x82,0x24,0x92,0x40,0x64,0x04,0x95,0x40,0x71,0x00,0x93,
0x45,0x56,0x04,0x92,0x45,0x7f,0x3c,0x85,0x40,0x40,0x50,0x82,0x45,0x40,0x00,0x83,
0x45,0x40,0x00,0x82,0x40,0x40,0x30,0x92,0x47,0x7e,0x00,0x95,0x40,0x71,0x00,0x93,
0x47,0x56,0x34,0x83,0x47,0x40,0x24,0x85,0x40,0x40,0x04,0x82,0x47,0x40,0x5c,0x92,
0x40,0x5a,0x04,0x92,0x43,0x7f,0x04,0x95,0x40,0x71,0x00,0x93,0x43,0x56,0x3c,0x85,
0x40,0x40,0x0c,0x83,0x43,0x40,0x3c,0x82,0x43,0x40,0x10,0x82,0x40,0x40,0x24,0x92,
0x47,0x7f,0x08,0x95,0x40,0x71,0x00,0x93,0x47,0x56,0x30,0x85,0x40,0x40,0x1c,0x82,
0x47,0x40,0x24,0x83,0x47,0x40,0x4c,0x92,0x42,0x7f,0x00,0x92,0x40,0x68,0x04,0x95,
0x40,0x71,0x00,0x93,0x45,0x56,0x30,0x85,0x40,0x40,0x34,0x83,0x45,0x40,0x30,0x82,
0x40,0x40,0x04,0x82,0x42,0x40,0x28,0x92,0x47,0x7f,0x00,0x95,0x40,0x71,0x00,0x93,
0x47,0x56,0x30,0x85,0x40,0x40,0x18,0x83,0x47,0x40,0x14,0x82,0x47,0x40,0x5c,0x92,
0x40,0x65,0x08,0x92,0x43,0x7f,0x00,0x95,0x40,0x71,0x00,0x93,0x43,0x56,0x44,0x85,
0x40,0x40,0x0c,0x83,0x43,0x40,0x28,0x82,0x43,0x40,0x24,0x82,0x40,0x40,0x14,0x84,
0x3b,0x40,0x10,0x95,0x40,0x71,0x00,0x93,0x47,0x56,0x04,0x92,0x47,0x7f,0x1c,0x85,
0x40,0x40,0x30,0x82,0x47,0x40,0x0c,0x83,0x47,0x40,0x64,0x92,0x3b,0x6b,0x00,0x95,
0x40,0x71,0x00,0x93,0x40,0x56,0x04,0x92,0x40,0x7f,0x38,0x85,0x40,0x40,0x0c,0x83,
0x40,0x40,0x44,0x82,0x40,0x40,0x00,0x82,0x3b,0x40,0x34,0x95,0x40,0x71,0x00,0x93,
0x47,0x56,0x04,0x92,0x47,0x7f,0x08,0x81,0x28,0x40,0x34,0x85,0x40,0x40,0x04,0x83,
0x47,0x40,0x20,0x82,0x47,0x40,0x50,0xe4,0x00,0x40,0x00,0x94,0x40,0x58,0x04,0x92,
0x40,0x67,0x08,0x91,0x3c,0x7f,0x00,0x95,0x48,0x71,0x00,0x93,0x4c,0x56,0x08,0x92,
0x43,0x61,0x40,0x82,0x40,0x40,0x08,0x82,0x43,0x40,0x0c,0x81,0x3c,0x40,0x68,0x91,
0x37,0x7a,0x4c,0x81,0x37,0x40,0x6c,0x92,0x40,0x67,0x08,0x91,0x34,0x7e,0x04,0x92,
0x43,0x61,0x40,0x82,0x40,0x40,0x08,0x82,0x43,0x40,0x18,0x81,0x34,0x40,0x81,0x00,
0x91,0x30,0x7f,0x81,0x10,0x92,0x40,0x6c,0x10,0x92,0x43,0x69,0x38,0x82,0x40,0x40,
0x04,0x82,0x43,0x40,0x58,0x83,0x4c,0x40,0x08,0x84,0x40,0x40,0x0c,0x85,0x48,0x40,
0x10,0x95,0x4a,0x71,0x00,0x93,0x4e,0x56,0x00,0x94,0x42,0x66,0x81,0x14,0x83,0x4e,
0x40,0x14,0x85,0x4a,0x40,0x14,0x92,0x43,0x7f,0x04,0x92,0x40,0x7f,0x00,0x95,0x4c,
0x71,0x00,0x93,0x4f,0x56,0x00,0xe4,0x00,0x45,0x48,0x82,0x43,0x40,0x14,0x82,0x40,
0x40,0x18,0x83,0x4f,0x40,0x04,0x85,0x4c,0x40,0x48,0x95,0x4e,0x71,0x00,0x93,0x51,
0x56,0x10,0xe4,0x40,0x4a,0x18,0xe4,0x40,0x50,0x81,0x14,0x92,0x43,0x6f,0x00,0x92,
0x40,0x6c,0x3c,0x82,0x43,0x40,0x14,0x82,0x40,0x40,0x28,0x83,0x51,0x40,0x14,0x84,
0x42,0x40,0x20,0x85,0x4e,0x40,0x18,0x95,0x4c,0x71,0x00,0x93,0x4f,0x56,0x08,0xe4,
0x00,0x40,0x04,0x94,0x43,0x68,0x81,0x2c,0x92,0x40,0x67,0x04,0x92,0x43,0x66,0x54,
0x82,0x43,0x40,0x00,0x82,0x40,0x40,0x38,0x83,0x4f,0x40,0x34,0xe4,0x00,0x3b,0x04,
0x95,0x4a,0x71,0x00,0x93,0x4e,0x56,0x4c,0x85,0x4c,0x40,0x6c,0x92,0x40,0x7f,0x04,
0x92,0x43,0x7f,0x4c,0x82,0x43,0x40,0x04,0x82,0x40,0x40,0x48,0x84,0x43,0x40,0x18,
0x83,0x4e,0x40,0x14,0x95,0x48,0x71,0x00,0x93,0x4c,0x56,0x08,0x94,0x40,0x66,0x0c,
0x85,0x4a,0x40,0x00,0xe4,0x00,0x40,0x81,0x24,0x92,0x40,0x7f,0x00,0x92,0x43,0x7f,
0x81,0x34,0x83,0x4c,0x40,0x4c,0x85,0x48,0x40,0x10,0x84,0x40,0x40,0x48,0x82,0x40,
0x40,0x04,0x82,0x43,0x40,0x20,0xe1,0x40,0x3c,0x0c,0x95,0x43,0x71,0x00,0x93,0x47,
0x56,0x04,0x92,0x43,0x7f,0x04,0x92,0x40,0x7f,0x1c,0x81,0x30,0x40,0x08,0x94,0x3b,
0x5a,0x24,0x82,0x43,0x40,0x08,0x82,0x40,0x40,0x68,0xe1,0x00,0x3c,0x30,0x83,0x47,
0x40,0x20,0x85,0x43,0x40,0x10,0x95,0x42,0x71,0x00,0x93,0x45,0x56,0x10,0xe4,0x40,
0x35,0x38,0x83,0x45,0x40,0x00,0x85,0x42,0x40,0x18,0x95,0x40,0x71,0x00,0x93,0x43,
0x56,0x04,0x92,0x40,0x6b,0x08,0x92,0x43,0x6e,0x38,0x82,0x40,0x40,0x08,0xe4,0x00,
0x2b,0x10,0x82,0x43,0x40,0x7c,0xe1,0x00,0x3f,0x00,0x91,0x2b,0x7f,0x18,0xe1,0x00,
0x40,0x4c,0x81,0x2b,0x40,0x44,0x92,0x40,0x6f,0x08,0x92,0x43,0x73,0x2c,0x91,0x28,
0x7c,0x10,0x82,0x40,0x40,0x14,0x82,0x43,0x40,0x82,0x28,0x85,0x40,0x40,0x00,0x92,
0x40,0x64,0x04,0x83,0x43,0x40,0x00,0x92,0x45,0x7f,0x00,0x95,0x40,0x71,0x00,0x93,
0x45,0x56,0x30,0x83,0x45,0x40,0x08,0x85,0x40,0x40,0x40,0x82,0x40,0x40,0x14,0x82,
0x45,0x40,0x30,0x95,0x40,0x71,0x04,0x92,0x47,0x7e,0x00,0x93,0x47,0x56,0x34,0x83,
0x47,0x40,0x20,0x85,0x40,0x40,0x04,0x82,0x47,0x40,0x60,0x92,0x40,0x5a,0x04,0x92,
0x43,0x7f,0x00,0x95,0x40,0x71,0x04,0x93,0x43,0x56,0x3c,0x85,0x40,0x40,0x08,0x83,
0x43,0x40,0x38,0x82,0x40,0x40,0x04,0x82,0x43,0x40,0x38,0x92,0x47,0x7f,0x04,0x95,
0x40,0x71,0x04,0x93,0x47,0x56,0x48,0x82,0x47,0x40,0x1c,0x85,0x40,0x40,0x08,0x83,
0x47,0x40,0x4c,0x92,0x42,0x7f,0x04,0x92,0x40,0x68,0x00,0x95,0x40,0x71,0x04,0x93,
0x45,0x56,0x54,0x85,0x40,0x40,0x0c,0x83,0x45,0x40,0x1c,0x82,0x42,0x40,0x04,0x82,
0x40,0x40,0x3c,0x95,0x40,0x71,0x04,0x92,0x47,0x7f,0x00,0x93,0x47,0x56,0x44,0x83,
0x47,0x40,0x0c,0x85,0x40,0x40,0x0c,0x82,0x47,0x40,0x58,0x92,0x40,0x65,0x08,0x95,
0x40,0x71,0x04,0x92,0x43,0x7f,0x00,0x93,0x43,0x56,0x44,0x85,0x40,0x40,0x08,0x83,
0x43,0x40,0x2c,0x82,0x43,0x40,0x0c,0x82,0x40,0x40,0x28,0x84,0x3b,0x40,0x10,0x95,
0x40,0x71,0x04,0x92,0x47,0x7f,0x00,0x93,0x47,0x56,0x4c,0x82,0x47,0x40,0x0c,0x83,
0x47,0x40,0x08,0x85,0x40,0x40,0x5c,0x95,0x40,0x71,0x04,0x92,0x3b,0x6b,0x00,0x92,
0x40,0x7f,0x00,0x93,0x40,0x56,0x3c,0x85,0x40,0x40,0x0c,0x83,0x40,0x40,0x40,0x82,
0x40,0x40,0x04,0x82,0x3b,0x40,0x30,0x95,0x40,0x71,0x04,0x93,0x47,0x56,0x04,0x92,
0x47,0x7f,0x04,0x81,0x28,0x40,0x34,0x85,0x40,0x40,0x04,0x83,0x47,0x40,0x20,0x82,
0x47,0x40,0x5c,0x95,0x40,0x7f,0x04,0x92,0x40,0x7f,0x00,0x92,0x4c,0x5f,0x00,0x91,
0x34,0x7f,0x00,0x93,0x43,0x7f,0x00,0x94,0x37,0x74,0x04,0xe4,0x00,0x40,0x40,0x83,
0x43,0x40,0x18,0x81,0x34,0x40,0x24,0x82,0x40,0x40,0x38,0x92,0x43,0x69,0x00,0xe4,
0x00,0x48,0x04,0x93,0x45,0x7f,0x04,0xe4,0x00,0x4b,0x48,0x82,0x43,0x40,0x28,0x83,
0x45,0x40,0x48,0x92,0x40,0x7f,0x04,0x91,0x34,0x67,0x00,0xe4,0x00,0x50,0x04,0x93,
0x47,0x7f,0x08,0xe4,0x40,0x55,0x54,0x83,0x47,0x40,0x14,0x81,0x34,0x40,0x0c,0x82,
0x40,0x40,0x18,0x84,0x37,0x40,0x28,0x94,0x37,0x69,0x00,0xe4,0x00,0x40,0x04,0x92,
0x43,0x6a,0x00,0x93,0x43,0x7f,0x5c,0x82,0x43,0x40,0x60,0x92,0x40,0x7c,0x04,0x91,
0x34,0x66,0x68,0x81,0x34,0x40,0x10,0x82,0x40,0x40,0x2c,0x84,0x37,0x40,0x10,0x83,
0x43,0x40,0x0c,0x85,0x40,0x40,0x00,0x95,0x3b,0x7f,0x00,0x93,0x40,0x7f,0x04,0x92,
0x43,0x70,0x00,0x94,0x34,0x72,0x4c,0x82,0x43,0x40,0x48,0x85,0x3b,0x40,0x28,0x92,
0x40,0x7e,0x00,0x91,0x34,0x7f,0x00,0x95,0x40,0x7f,0x68,0x81,0x34,0x40,0x1c,0x85,
0x40,0x40,0x04,0x82,0x40,0x40,0x38,0x95,0x42,0x7f,0x04,0x92,0x43,0x73,0x38,0x84,
0x34,0x40,0x14,0x85,0x42,0x40,0x10,0x82,0x43,0x40,0x18,0x83,0x40,0x40,0x40,0x92,
0x40,0x7f,0x08,0x91,0x34,0x6a,0x00,0x95,0x43,0x7f,0x00,0x93,0x43,0x7f,0x08,0x94,
0x37,0x75,0x5c,0x83,0x43,0x40,0x10,0x81,0x34,0x40,0x0c,0x82,0x40,0x40,0x40,0x92,
0x43,0x6a,0x00,0x93,0x45,0x7f,0x00,0xe4,0x40,0x45,0x20,0xe4,0x00,0x4b,0x34,0x83,
0x45,0x40,0x08,0x82,0x43,0x40,0x58,0x84,0x37,0x40,0x08,0x92,0x40,0x7c,0x00,0xe4,
0x00,0x40,0x00,0x94,0x3a,0x72,0x04,0x91,0x34,0x69,0x00,0x93,0x47,0x7f,0x14,0xe4,
0x40,0x45,0x2c,0x83,0x47,0x40,0x38,0x81,0x34,0x40,0x00,0x82,0x40,0x40,0x2c,0xe4,
0x40,0x4a,0x18,0xe4,0x00,0x50,0x04,0x85,0x43,0x40,0x00,0x92,0x43,0x70,0x00,0x95,
0x42,0x7f,0x00,0x93,0x4a,0x7f,0x14,0xe4,0x00,0x55,0x2c,0xe4,0x00,0x56,0x7c,0x92,
0x40,0x7f,0x04,0x91,0x34,0x7e,0x74,0x81,0x34,0x40,0x00,0x83,0x4a,0x40,0x0c,0x82,
0x40,0x40,0x2c,0x84,0x3a,0x40,0x04,0x82,0x43,0x40,0x08,0x92,0x43,0x69,0x08,0x93,
0x49,0x7f,0x0c,0x94,0x3d,0x75,0x08,0xe4,0x00,0x40,0x34,0x83,0x49,0x40,0x70,0xe4,
0x00,0x3b,0x04,0x92,0x40,0x7f,0x04,0x91,0x34,0x63,0x00,0x93,0x47,0x7f,0x20,0xe4,
0x00,0x36,0x34,0x83,0x47,0x40,0x28,0x81,0x34,0x40,0x04,0x82,0x40,0x40,0x10,0x82,
0x43,0x40,0x04,0x85,0x42,0x40,0x18,0x84,0x3d,0x40,0x0c,0x94,0x3d,0x52,0x08,0x92,
0x43,0x6a,0x00,0x95,0x40,0x7f,0x00,0x93,0x49,0x7f,0x81,0x40,0x92,0x40,0x7c,0x00,
0x91,0x34,0x7f,0x78,0x82,0x40,0x40,0x04,0x81,0x34,0x40,0x10,0x83,0x49,0x40,0x2c,
0x82,0x43,0x40,0x08,0x93,0x47,0x7f,0x04,0x92,0x43,0x70,0x08,0x94,0x3b,0x75,0x14,
0x84,0x3d,0x40,0x30,0x83,0x47,0x40,0x6c,0x92,0x40,0x7f,0x04,0x91,0x34,0x6d,0x00,
0x93,0x45,0x7f,0x1c,0xe4,0x40,0x3b,0x10,0xe4,0x00,0x3b,0x18,0xe4,0x00,0x36,0x18,
0x83,0x45,0x40,0x10,0x81,0x34,0x40,0x14,0x82,0x40,0x40,0x34,0x82,0x43,0x40,0x08,
0xe4,0x00,0x40,0x04,0x92,0x43,0x5f,0x00,0x95,0x3e,0x7f,0x00,0x93,0x47,0x7f,0x28,
0x85,0x40,0x40,0x81,0x14,0x92,0x40,0x7f,0x04,0x91,0x34,0x70,0x6c,0x81,0x34,0x40,
0x14,0x82,0x40,0x40,0x04,0x83,0x47,0x40,0x14,0x84,0x3b,0x40,0x20,0x82,0x43,0x40,
0x08,0x92,0x43,0x6a,0x00,0x93,0x45,0x7f,0x14,0x94,0x39,0x75,0x44,0x83,0x45,0x40,
0x64,0x92,0x40,0x7f,0x04,0x91,0x34,0x77,0x00,0x93,0x43,0x7f,0x04,0xe4,0x00,0x3b,
0x04,0xe4,0x00,0x36,0x50,0x83,0x43,0x40,0x10,0x81,0x34,0x40,0x18,0x82,0x40,0x40,
0x30,0x82,0x43,0x40,0x10,0x92,0x45,0x5f,0x00,0x92,0x48,0x5f,0x00,0x92,0x43,0x6a,
0x00,0x95,0x3c,0x7f,0x00,0x93,0x45,0x7f,0x04,0xe4,0x00,0x40,0x30,0x85,0x3e,0x40,
0x28,0x82,0x43,0x40,0x64,0x92,0x40,0x7c,0x00,0x91,0x30,0x7f,0x78,0x82,0x40,0x40,
0x40,0x81,0x30,0x40,0x0c,0x92,0x43,0x70,0x4c,0x82,0x43,0x40,0x70,0x92,0x40,0x7c,
0x00,0x91,0x2b,0x70,0x78,0x82,0x40,0x40,0x3c,0x81,0x2b,0x40,0x10,0x92,0x43,0x70,
0x4c,0x82,0x43,0x40,0x6c,0x92,0x40,0x7f,0x04,0x91,0x30,0x7f,0x68,0x84,0x39,0x40,
0x18,0x82,0x40,0x40,0x38,0x92,0x43,0x69,0x04,0x81,0x30,0x40,0x50,0x82,0x43,0x40,
0x70,0x92,0x40,0x7f,0x04,0x91,0x2b,0x68,0x6c,0x85,0x3c,0x40,0x14,0x82,0x40,0x40,
0x34,0x81,0x2b,0x40,0x0c,0x92,0x43,0x6a,0x04,0x82,0x48,0x40,0x08,0x83,0x45,0x40,
0x48,0x82,0x45,0x40,0x08,0x82,0x43,0x40,0x5c,0x94,0x37,0x75,0x08,0x82,0x4c,0x40,
0x00,0x92,0x40,0x7c,0x00,0x92,0x45,0x51,0x00,0x92,0x48,0x51,0x00,0x95,0x40,0x7f,
0x04,0x92,0x4c,0x51,0x00,0x91,0x30,0x7a,0x00,0x93,0x43,0x7f,0x54,0x83,0x43,0x40,
0x20,0x82,0x40,0x40,0x20,0x85,0x40,0x40,0x14,0x81,0x30,0x40,0x10,0xe4,0x40,0x45,
0x04,0x95,0x42,0x7f,0x00,0x93,0x45,0x7f,0x00,0xe4,0x00,0x4b,0x04,0x92,0x43,0x70,
0x4c,0x82,0x43,0x40,0x08,0x85,0x42,0x40,0x1c,0x84,0x37,0x40,0x04,0x83,0x45,0x40,
0x3c,0xe4,0x00,0x40,0x04,0x94,0x3b,0x75,0x08,0x92,0x40,0x7c,0x00,0x91,0x37,0x6c,
0x00,0x95,0x43,0x7f,0x00,0x93,0x47,0x7f,0x54,0x83,0x47,0x40,0x04,0x85,0x43,0x40,
0x20,0x82,0x40,0x40,0x40,0x81,0x37,0x40,0x04,0x82,0x45,0x40,0x04,0x82,0x4c,0x40,
0x00,0x82,0x48,0x40,0x00,0x95,0x45,0x7f,0x00,0x93,0x48,0x7f,0x04,0x92,0x48,0x51,
0x00,0x92,0x4c,0x51,0x00,0x92,0x43,0x70,0x14,0xe4,0x40,0x45,0x81,0x24,0x92,0x40,
0x7f,0x04,0x91,0x34,0x78,0x81,0x00,0x82,0x40,0x40,0x08,0x83,0x48,0x40,0x08,0x85,
0x45,0x40,0x1c,0x81,0x34,0x40,0x04,0x82,0x48,0x40,0x04,0x82,0x43,0x40,0x04,0x92,
0x43,0x69,0x08,0x92,0x47,0x51,0x00,0x95,0x43,0x7f,0x00,0x93,0x47,0x7f,0x24,0xe4,
0x00,0x40,0x81,0x14,0x85,0x43,0x40,0x04,0x92,0x40,0x7f,0x04,0x91,0x2f,0x69,0x10,
0x83,0x47,0x40,0x70,0x82,0x40,0x40,0x34,0x81,0x2f,0x40,0x0c,0x82,0x43,0x40,0x00,
0x92,0x43,0x6a,0x04,0x82,0x47,0x40,0x58,0x82,0x43,0x40,0x30,0x84,0x3b,0x40,0x24,
0x82,0x4c,0x40,0x10,0x92,0x47,0x79,0x00,0x92,0x4c,0x7e,0x00,0x95,0x4f,0x73,0x00,
0x95,0x53,0x73,0x04,0x91,0x28,0x7f,0x00,0x93,0x43,0x7e,0x00,0x94,0x43,0x68,0x44,
0x83,0x43,0x40,0x14,0x85,0x4f,0x40,0x04,0x85,0x53,0x40,0x00,0x82,0x4c,0x40,0x00,
0x82,0x47,0x40,0x58,0xe4,0x00,0x48,0x08,0x93,0x45,0x67,0x04,0xe4,0x00,0x4b,0x70,
0x83,0x45,0x40,0x48,0xe4,0x00,0x50,0x04,0x92,0x47,0x5e,0x00,0x95,0x4f,0x73,0x00,
0x95,0x53,0x73,0x04,0x92,0x4c,0x5f,0x00,0x93,0x47,0x69,0x04,0xe4,0x40,0x55,0x54,
0x85,0x4f,0x40,0x04,0x83,0x47,0x40,0x00,0x82,0x4c,0x40,0x00,0x85,0x53,0x40,0x00,
0x82,0x47,0x40,0x38,0x84,0x43,0x40,0x24,0x94,0x43,0x5d,0x04,0x93,0x43,0x7f,0x00,
0xe4,0x00,0x40,0x81,0x40,0x92,0x47,0x5d,0x00,0x95,0x4f,0x73,0x00,0x95,0x53,0x73,
0x04,0x92,0x4c,0x5e,0x0c,0x81,0x28,0x40,0x4c,0x85,0x4f,0x40,0x04,0x82,0x47,0x40,
0x04,0x82,0x4c,0x40,0x00,0x85,0x53,0x40,0x44,0x84,0x43,0x40,0x10,0x83,0x43,0x40,
0x08,0x91,0x23,0x7f,0x00,0x93,0x40,0x7d,0x04,0x94,0x40,0x66,0x64,0x81,0x23,0x40,
0x58,0x92,0x47,0x73,0x00,0x95,0x4f,0x73,0x00,0x95,0x53,0x73,0x04,0x92,0x4c,0x73,
0x00,0x91,0x28,0x74,0x54,0x81,0x28,0x40,0x04,0x85,0x4f,0x40,0x04,0x82,0x47,0x40,
0x04,0x82,0x4c,0x40,0x00,0x85,0x53,0x40,0x5c,0x91,0x2a,0x54,0x40,0x84,0x40,0x40,
0x0c,0x81,0x2a,0x40,0x30,0x83,0x40,0x40,0x44,0x92,0x47,0x5e,0x00,0x95,0x4f,0x73,
0x00,0x95,0x53,0x73,0x04,0x92,0x4c,0x60,0x00,0x91,0x2b,0x68,0x00,0x93,0x43,0x5a,
0x08,0x94,0x43,0x69,0x54,0x82,0x4c,0x40,0x00,0x85,0x53,0x40,0x00,0x85,0x4f,0x40,
0x00,0x82,0x47,0x40,0x04,0x83,0x43,0x40,0x0c,0x81,0x2b,0x40,0x50,0x91,0x2d,0x70,
0x00,0xe4,0x40,0x45,0x04,0x93,0x45,0x67,0x20,0xe4,0x00,0x4b,0x28,0x81,0x2d,0x40,
0x0c,0x83,0x45,0x40,0x5c,0x84,0x43,0x40,0x0c,0x95,0x4f,0x73,0x00,0x95,0x53,0x73,
0x00,0xe4,0x00,0x40,0x00,0x94,0x46,0x66,0x04,0x92,0x47,0x6f,0x00,0x92,0x4c,0x6d,
0x00,0x91,0x2f,0x74,0x00,0x93,0x47,0x74,0x10,0xe4,0x40,0x45,0x2c,0x83,0x47,0x40,
0x00,0x81,0x2f,0x40,0x20,0x82,0x4c,0x40,0x00,0x82,0x47,0x40,0x00,0x85,0x53,0x40,
0x00,0x85,0x4f,0x40,0x48,0xe4,0x40,0x4a,0x14,0xe4,0x00,0x50,0x04,0x91,0x32,0x7f,
0x00,0x93,0x4a,0x7f,0x14,0xe4,0x00,0x55,0x30,0xe4,0x00,0x56,0x7c,0x92,0x47,0x5e,
0x00,0x95,0x4f,0x73,0x00,0x95,0x53,0x73,0x04,0x92,0x4c,0x65,0x5c,0x82,0x4c,0x40,
0x00,0x85,0x53,0x40,0x00,0x85,0x4f,0x40,0x00,0x82,0x47,0x40,0x14,0x83,0x4a,0x40,
0x38,0x81,0x32,0x40,0x00,0x84,0x46,0x40,0x14,0x91,0x31,0x63,0x00,0x93,0x49,0x64,
0x0c,0x94,0x49,0x69,0x08,0xe4,0x00,0x40,0x34,0x83,0x49,0x40,0x04,0x81,0x31,0x40,
0x70,0xe4,0x00,0x3b,0x04,0x92,0x47,0x6f,0x00,0x95,0x4f,0x73,0x00,0x95,0x53,0x73,
0x04,0x92,0x4c,0x6e,0x00,0x91,0x2f,0x60,0x00,0x93,0x47,0x5c,0x1c,0xe4,0x00,0x36,
0x34,0x83,0x47,0x40,0x0c,0x81,0x2f,0x40,0x00,0x82,0x4c,0x40,0x00,0x85,0x53,0x40,
0x00,0x85,0x4f,0x40,0x00,0x82,0x47,0x40,0x4c,0x84,0x49,0x40,0x0c,0x94,0x49,0x46,
0x08,0x91,0x31,0x7f,0x00,0xe4,0x00,0x40,0x04,0x93,0x49,0x7f,0x81,0x3c,0x95,0x4f,
0x73,0x00,0x95,0x53,0x73,0x04,0x92,0x47,0x69,0x00,0x92,0x4c,0x62,0x5c,0x82,0x4c,
0x40,0x00,0x82,0x47,0x40,0x00,0x85,0x53,0x40,0x00,0x85,0x4f,0x40,0x30,0x83,0x49,
0x40,0x08,0x81,0x31,0x40,0x28,0x91,0x2f,0x69,0x00,0x93,0x47,0x60,0x0c,0x94,0x47,
0x69,0x18,0x84,0x49,0x40,0x30,0x83,0x47,0x40,0x0c,0x81,0x2f,0x40,0x60,0x95,0x4f,
0x73,0x00,0x95,0x53,0x73,0x04,0x92,0x47,0x6b,0x00,0x92,0x4c,0x6f,0x00,0x91,0x2d,
0x67,0x00,0x93,0x45,0x66,0x1c,0xe4,0x40,0x3b,0x0c,0xe4,0x00,0x3b,0x18,0xe4,0x00,
0x36,0x18,0x83,0x45,0x40,0x04,0x82,0x4c,0x40,0x00,0x82,0x47,0x40,0x00,0x85,0x53,
0x40,0x00,0x85,0x4f,0x40,0x0c,0x81,0x2d,0x40,0x54,0x91,0x2f,0x7f,0x00,0x93,0x47,
0x7f,0x00,0xe4,0x40,0x40,0x81,0x40,0x95,0x4f,0x73,0x00,0x95,0x53,0x73,0x04,0x92,
0x47,0x71,0x00,0x92,0x4c,0x6b,0x5c,0x82,0x47,0x40,0x00,0x85,0x53,0x40,0x00,0x85,
0x4f,0x40,0x04,0x82,0x4c,0x40,0x20,0x83,0x47,0x40,0x18,0x84,0x47,0x40,0x14,0x81,
0x2f,0x40,0x10,0x91,0x2d,0x6a,0x00,0x93,0x45,0x68,0x14,0x94,0x45,0x69,0x44,0x83,
0x45,0x40,0x10,0x81,0x2d,0x40,0x58,0x95,0x4f,0x73,0x00,0x95,0x53,0x73,0x04,0x92,
0x47,0x6a,0x00,0x92,0x4c,0x6c,0x00,0x91,0x2b,0x65,0x00,0x93,0x43,0x63,0x00,0xe4,
0x00,0x3b,0x08,0xe4,0x00,0x36,0x50,0x83,0x43,0x40,0x04,0x82,0x4c,0x40,0x00,0x82,
0x47,0x40,0x00,0x85,0x53,0x40,0x00,0x85,0x4f,0x40,0x08,0x81,0x2b,0x40,0x58,0x91,
0x2d,0x7f,0x00,0x93,0x45,0x7f,0x08,0xe4,0x40,0x40,0x81,0x38,0x95,0x48,0x73,0x00,
0x95,0x51,0x73,0x04,0x92,0x45,0x6a,0x00,0x92,0x4c,0x68,0x5c,0x82,0x4c,0x40,0x00,
0x82,0x45,0x40,0x00,0x85,0x51,0x40,0x00,0x85,0x48,0x40,0x82,0x20,0x95,0x48,0x73,
0x00,0x95,0x51,0x73,0x04,0x92,0x45,0x69,0x00,0x92,0x4c,0x6f,0x5c,0x82,0x4c,0x40,
0x00,0x82,0x45,0x40,0x00,0x85,0x51,0x40,0x00,0x85,0x48,0x40,0x82,0x20,0x95,0x48,
0x73,0x04,0x92,0x45,0x7a,0x00,0x92,0x4c,0x76,0x00,0x95,0x51,0x73,0x54,0x81,0x2d,
0x40,0x08,0x85,0x51,0x40,0x00,0x82,0x4c,0x40,0x00,0x82,0x45,0x40,0x00,0x85,0x48,
0x40,0x0c,0x84,0x45,0x40,0x54,0x91,0x28,0x7f,0x5c,0x81,0x28,0x40,0x64,0x95,0x48,
0x73,0x04,0x92,0x45,0x77,0x00,0x92,0x4c,0x6f,0x00,0x91,0x24,0x7f,0x00,0x95,0x51,
0x73,0x5c,0x85,0x51,0x40,0x00,0x82,0x4c,0x40,0x00,0x82,0x45,0x40,0x00,0x85,0x48,
0x40,0x1c,0x81,0x24,0x40,0x44,0x91,0x28,0x7f,0x10,0x83,0x45,0x40,0x3c,0x81,0x28,
0x40,0x6c,0x94,0x43,0x69,0x08,0x95,0x40,0x7f,0x04,0x92,0x43,0x7a,0x00,0x92,0x4c,
0x73,0x00,0x91,0x21,0x7f,0x00,0x93,0x43,0x7f,0x54,0x83,0x43,0x40,0x08,0x82,0x4c,
0x40,0x00,0x82,0x43,0x40,0x38,0x85,0x40,0x40,0x18,0xe4,0x40,0x45,0x10,0x95,0x42,
0x7f,0x04,0x93,0x45,0x66,0x00,0xe4,0x00,0x4b,0x58,0x85,0x42,0x40,0x1c,0x83,0x45,
0x40,0x00,0x84,0x43,0x40,0x40,0xe4,0x00,0x40,0x00,0x94,0x47,0x69,0x08,0x95,0x43,
0x7f,0x04,0x92,0x43,0x6e,0x00,0x92,0x4c,0x7d,0x00,0x93,0x47,0x65,0x50,0x83,0x47,
0x40,0x08,0x85,0x43,0x40,0x00,0x81,0x21,0x40,0x04,0x82,0x4c,0x40,0x00,0x82,0x43,
0x40,0x60,0x95,0x45,0x7f,0x04,0x91,0x28,0x7f,0x00,0x93,0x48,0x7f,0x18,0xe4,0x40,
0x45,0x81,0x24,0x92,0x48,0x73,0x04,0x92,0x4c,0x7d,0x5c,0x82,0x4c,0x40,0x00,0x82,
0x48,0x40,0x28,0x83,0x48,0x40,0x08,0x85,0x45,0x40,0x30,0x95,0x43,0x7f,0x04,0x93,
0x47,0x7b,0x24,0xe4,0x00,0x40,0x81,0x14,0x85,0x43,0x40,0x04,0x92,0x47,0x6b,0x04,
0x92,0x4c,0x73,0x10,0x81,0x28,0x40,0x4c,0x82,0x4c,0x40,0x00,0x82,0x47,0x40,0x74,
0x83,0x47,0x40,0x78,0x84,0x47,0x40,0x34,0x95,0x3e,0x64,0x04,0x92,0x3e,0x67,0x00,
0x92,0x43,0x67,0x00,0x92,0x47,0x67,0x00,0x96,0x4c,0x68,0x00,0x91,0x34,0x7f,0x00,
0x95,0x40,0x64,0x04,0x93,0x45,0x7f,0x58,0x82,0x43,0x40,0x00,0x82,0x3e,0x40,0x04,
0x82,0x47,0x40,0x82,0x08,0x83,0x45,0x40,0x18,0x92,0x3e,0x67,0x00,0x92,0x43,0x67,
0x00,0x92,0x47,0x67,0x00,0x93,0x43,0x7f,0x5c,0x82,0x3e,0x40,0x04,0x82,0x47,0x40,
0x00,0x82,0x43,0x40,0x5c,0x83,0x43,0x40,0x00,0x93,0x45,0x7f,0x81,0x44,0x92,0x3e,
0x67,0x00,0x92,0x43,0x67,0x00,0x92,0x47,0x67,0x5c,0x82,0x3e,0x40,0x04,0x82,0x47,
0x40,0x00,0x82,0x43,0x40,0x60,0x96,0x4e,0x68,0x34,0x86,0x4c,0x40,0x81,0x08,0x83,
0x45,0x40,0x04,0x92,0x3e,0x67,0x00,0x92,0x43,0x67,0x00,0x92,0x47,0x67,0x00,0x96,
0x4f,0x68,0x00,0x93,0x47,0x7f,0x10,0x86,0x4e,0x40,0x4c,0x82,0x3e,0x40,0x04,0x82,
0x47,0x40,0x00,0x82,0x43,0x40,0x44,0x83,0x47,0x40,0x1c,0x96,0x51,0x68,0x00,0x93,
0x43,0x7f,0x1c,0x86,0x4f,0x40,0x81,0x20,0x85,0x3e,0x40,0x04,0x85,0x40,0x40,0x00,
0x92,0x3d,0x67,0x00,0x92,0x43,0x67,0x00,0x92,0x47,0x67,0x00,0x95,0x3d,0x64,0x00,
0x95,0x40,0x64,0x5c,0x82,0x3d,0x40,0x04,0x82,0x47,0x40,0x00,0x82,0x43,0x40,0x40,
0x83,0x43,0x40,0x20,0x96,0x4f,0x68,0x00,0x93,0x40,0x7f,0x44,0x86,0x51,0x40,0x7c,
0x92,0x3d,0x67,0x00,0x92,0x43,0x67,0x00,0x92,0x47,0x67,0x5c,0x82,0x3d,0x40,0x04,
0x82,0x47,0x40,0x00,0x82,0x43,0x40,0x60,0x96,0x4e,0x68,0x08,0x86,0x4f,0x40,0x81,
0x18,0x83,0x40,0x40,0x20,0x92,0x3d,0x67,0x00,0x92,0x43,0x67,0x00,0x92,0x47,0x67,
0x5c,0x82,0x3d,0x40,0x04,0x82,0x47,0x40,0x00,0x82,0x43,0x40,0x4c,0x86,0x4e,0x40,
0x14,0x96,0x4c,0x68,0x81,0x40,0x92,0x3d,0x67,0x00,0x92,0x43,0x67,0x00,0x92,0x47,
0x67,0x00,0x93,0x40,0x7f,0x5c,0x82,0x3d,0x40,0x04,0x82,0x47,0x40,0x00,0x82,0x43,
0x40,0x4c,0x83,0x40,0x40,0x14,0x96,0x47,0x68,0x00,0x93,0x4c,0x7f,0x6c,0x86,0x4c,
0x40,0x50,0x85,0x3d,0x40,0x04,0x85,0x40,0x40,0x00,0x92,0x3c,0x67,0x00,0x92,0x43,
0x67,0x00,0x92,0x47,0x67,0x00,0x95,0x3c,0x64,0x00,0x95,0x40,0x64,0x5c,0x82,0x3c,
0x40,0x04,0x82,0x47,0x40,0x00,0x82,0x43,0x40,0x60,0x86,0x47,0x40,0x00,0x96,0x45,
0x68,0x81,0x30,0x83,0x4c,0x40,0x10,0x92,0x3c,0x67,0x00,0x92,0x43,0x67,0x00,0x92,
0x47,0x67,0x00,0x96,0x43,0x68,0x00,0x93,0x47,0x7f,0x30,0x86,0x45,0x40,0x2c,0x82,
0x3c,0x40,0x04,0x82,0x47,0x40,0x00,0x82,0x43,0x40,0x48,0x83,0x47,0x40,0x18,0x93,
0x45,0x7f,0x81,0x40,0x92,0x3c,0x67,0x00,0x92,0x43,0x67,0x00,0x92,0x47,0x67,0x5c,
0x82,0x3c,0x40,0x04,0x82,0x47,0x40,0x00,0x82,0x43,0x40,0x5c,0x83,0x45,0x40,0x04,
0x93,0x43,0x7f,0x81,0x40,0x92,0x3c,0x67,0x00,0x92,0x43,0x67,0x00,0x92,0x47,0x67,
0x5c,0x82,0x3c,0x40,0x04,0x82,0x47,0x40,0x00,0x82,0x43,0x40,0x48,0x83,0x43,0x40,
0x18,0x93,0x40,0x7f,0x81,0x3c,0x85,0x3c,0x40,0x04,0x85,0x40,0x40,0x00,0x92,0x40,
0x67,0x00,0x92,0x43,0x67,0x00,0x92,0x47,0x67,0x5c,0x82,0x40,0x40,0x04,0x82,0x47,
0x40,0x00,0x82,0x43,0x40,0x82,0x20,0x92,0x40,0x67,0x00,0x92,0x43,0x67,0x00,0x92,
0x47,0x67,0x00,0x91,0x28,0x7f,0x00,0x95,0x40,0x64,0x5c,0x85,0x40,0x40,0x00,0x82,
0x40,0x40,0x04,0x81,0x28,0x40,0x00,0x82,0x47,0x40,0x00,0x82,0x43,0x40,0x60,0x91,
0x2a,0x7f,0x00,0x95,0x42,0x64,0x81,0x40,0x92,0x40,0x67,0x00,0x92,0x43,0x67,0x00,
0x92,0x47,0x67,0x00,0x91,0x2b,0x7f,0x00,0x95,0x43,0x64,0x04,0x85,0x42,0x40,0x00,
0x81,0x2a,0x40,0x24,0x81,0x34,0x40,0x18,0x85,0x43,0x40,0x00,0x81,0x2b,0x40,0x1c,
0x82,0x40,0x40,0x04,0x82,0x47,0x40,0x00,0x82,0x43,0x40,0x60,0x83,0x40,0x40,0x00,
0x91,0x2d,0x7f,0x00,0x95,0x45,0x64,0x81,0x40,0x86,0x43,0x40,0x00,0x92,0x40,0x67,
0x00,0x92,0x43,0x67,0x00,0x92,0x47,0x67,0x28,0x85,0x45,0x40,0x34,0x82,0x40,0x40,
0x04,0x82,0x47,0x40,0x00,0x82,0x43,0x40,0x00,0x81,0x2d,0x40,0x60,0x91,0x2f,0x7f,
0x00,0x95,0x3e,0x64,0x00,0x95,0x47,0x64,0x81,0x3c,0x81,0x2f,0x40,0x04,0x92,0x3e,
0x67,0x00,0x92,0x43,0x67,0x00,0x92,0x47,0x67,0x00,0x96,0x4c,0x68,0x04,0x91,0x28,
0x7f,0x00,0x93,0x45,0x7f,0x58,0x82,0x3e,0x40,0x04,0x82,0x47,0x40,0x00,0x82,0x43,
0x40,0x81,0x78,0x83,0x45,0x40,0x28,0x92,0x3e,0x67,0x00,0x92,0x43,0x67,0x00,0x92,
0x47,0x67,0x00,0x93,0x43,0x7f,0x5c,0x82,0x3e,0x40,0x04,0x82,0x47,0x40,0x00,0x82,
0x43,0x40,0x3c,0x83,0x43,0x40,0x24,0x93,0x45,0x7f,0x81,0x40,0x92,0x3e,0x67,0x00,
0x92,0x43,0x67,0x00,0x92,0x47,0x67,0x5c,0x82,0x3e,0x40,0x04,0x82,0x47,0x40,0x00,
0x82,0x43,0x40,0x60,0x96,0x4e,0x68,0x50,0x86,0x4c,0x40,0x6c,0x83,0x45,0x40,0x04,
0x92,0x3e,0x67,0x00,0x92,0x43,0x67,0x00,0x92,0x47,0x67,0x00,0x96,0x4f,0x68,0x04,
0x93,0x47,0x7f,0x44,0x86,0x4e,0x40,0x14,0x82,0x3e,0x40,0x04,0x82,0x47,0x40,0x00,
0x82,0x43,0x40,0x30,0x83,0x47,0x40,0x30,0x96,0x51,0x68,0x00,0x93,0x43,0x7f,0x14,
0x85,0x3e,0x40,0x14,0x86,0x4f,0x40,0x81,0x18,0x92,0x3d,0x67,0x00,0x92,0x43,0x67,
0x00,0x95,0x3d,0x64,0x04,0x92,0x47,0x67,0x58,0x82,0x3d,0x40,0x04,0x82,0x47,0x40,
0x00,0x82,0x43,0x40,0x58,0x83,0x43,0x40,0x08,0x96,0x4f,0x68,0x00,0x93,0x40,0x7f,
0x48,0x86,0x51,0x40,0x78,0x92,0x3d,0x67,0x00,0x92,0x43,0x67,0x00,0x92,0x47,0x67,
0x5c,0x82,0x3d,0x40,0x04,0x82,0x43,0x40,0x04,0x82,0x47,0x40,0x5c,0x96,0x4e,0x68,
0x14,0x86,0x4f,0x40,0x81,0x2c,0x92,0x3d,0x67,0x00,0x92,0x43,0x67,0x00,0x92,0x47,
0x67,0x2c,0x83,0x40,0x40,0x34,0x82,0x43,0x40,0x00,0x82,0x3d,0x40,0x04,0x82,0x47,
0x40,0x5c,0x96,0x4c,0x68,0x20,0x86,0x4e,0x40,0x81,0x20,0x92,0x3d,0x67,0x00,0x92,
0x43,0x67,0x00,0x92,0x47,0x67,0x04,0x93,0x40,0x7f,0x5c,0x82,0x43,0x40,0x00,0x82,
0x3d,0x40,0x04,0x82,0x47,0x40,0x34,0x83,0x40,0x40,0x28,0x96,0x47,0x68,0x00,0x93,
0x4f,0x7f,0x81,0x08,0x86,0x4c,0x40,0x28,0x85,0x3d,0x40,0x10,0x92,0x3c,0x67,0x00,
0x95,0x3c,0x64,0x04,0x92,0x43,0x67,0x00,0x92,0x47,0x67,0x5c,0x82,0x43,0x40,0x00,
0x82,0x3c,0x40,0x04,0x82,0x47,0x40,0x5c,0x96,0x45,0x68,0x40,0x86,0x47,0x40,0x34,
0x83,0x4f,0x40,0x4c,0x92,0x3c,0x67,0x00,0x92,0x43,0x67,0x00,0x92,0x47,0x67,0x04,
0x96,0x43,0x29,0x00,0x93,0x4c,0x7f,0x1c,0x86,0x45,0x40,0x40,0x82,0x43,0x40,0x00,
0x82,0x3c,0x40,0x04,0x82,0x47,0x40,0x48,0x83,0x4c,0x40,0x14,0x93,0x47,0x7f,0x81,
0x40,0x86,0x43,0x40,0x00,0x92,0x3c,0x67,0x00,0x92,0x43,0x66,0x00,0x92,0x47,0x66,
0x60,0x82,0x43,0x40,0x00,0x82,0x3c,0x40,0x04,0x82,0x47,0x40,0x4c,0x83,0x47,0x40,
0x10,0x93,0x45,0x7f,0x81,0x40,0x92,0x3c,0x67,0x00,0x92,0x43,0x66,0x04,0x92,0x47,
0x66,0x4c,0x81,0x28,0x40,0x10,0x82,0x43,0x40,0x00,0x82,0x3c,0x40,0x04,0x82,0x47,
0x40,0x4c,0x83,0x45,0x40,0x10,0x93,0x43,0x7f,0x50,0x85,0x3c,0x40,0x4c,0xff,0x51,
0x03,0x07,0x7e,0x71,0x24,0x85,0x47,0x40,0x00,0x95,0x3b,0x64,0x00,0x95,0x40,0x40,
0x04,0x92,0x4c,0x40,0x00,0x92,0x4f,0x40,0x00,0x91,0x28,0x7f,0x00,0x95,0x47,0x40,
0x04,0x94,0x4f,0x73,0x82,0x18,0x81,0x28,0x40,0x3c,0xff,0x51,0x03,0x07,0xbe,0xf8,
0x1c,0xe4,0x40,0x3a,0x08,0x82,0x4f,0x40,0x00,0x82,0x4c,0x40,0x00,0x92,0x48,0x40,
0x04,0x84,0x4f,0x40,0x00,0x92,0x4c,0x40,0x00,0x91,0x30,0x7f,0x04,0x94,0x4c,0x65,
0x3c,0xe4,0x00,0x40,0x82,0x18,0xff,0x51,0x03,0x08,0x00,0xf6,0x08,0x84,0x4c,0x40,
0x1c,0x81,0x30,0x40,0x00,0x82,0x4c,0x40,0x00,0x82,0x48,0x40,0x00,0x92,0x43,0x40,
0x04,0x92,0x47,0x40,0x00,0x91,0x2b,0x7f,0x44,0x94,0x47,0x73,0x68,0x83,0x43,0x40,
0x81,0x2c,0xff,0x51,0x03,0x08,0x57,0xf8,0x24,0x81,0x2b,0x40,0x00,0x82,0x47,0x40,
0x00,0x82,0x43,0x40,0x00,0x92,0x42,0x40,0x04,0x92,0x45,0x40,0x00,0x91,0x2a,0x7f,
0x14,0xe4,0x00,0x3b,0x1c,0xe4,0x40,0x35,0x14,0xe4,0x40,0x36,0x0c,0xe4,0x00,0x36,
0x82,0x08,0xff,0x51,0x03,0x0b,0x68,0x7e,0x24,0x81,0x2a,0x40,0x00,0x82,0x45,0x40,
0x00,0x82,0x42,0x40,0x00,0x92,0x40,0x40,0x04,0x92,0x43,0x40,0x00,0x91,0x28,0x7f,
0x2c,0xe4,0x40,0x30,0x10,0xe4,0x00,0x2b,0x10,0xe4,0x40,0x2a,0x10,0xe4,0x40,0x2b,
0x86,0x20,0x84,0x47,0x40,0x2c,0x85,0x3b,0x40,0x04,0x85,0x40,0x40,0x04,0x85,0x47,
0x40,0x0c,0x81,0x28,0x40,0x00,0x82,0x43,0x40,0x00,0x82,0x40,0x40,0x54,0xe4,0x00,
0x40,0x83,0x48,0xff,0x2f,0x00,
};
