#include <stdint.h>
const uint8_t midifile[] = {
0x4d,0x54,0x68,0x64,0x00,0x00,0x00,0x06,0x00,0x01,0x00,0x0a,0x00,0x60,0x4d,0x54,
0x72,0x6b,0x00,0x00,0x00,0x19,0x00,0xff,0x58,0x04,0x04,0x02,0x18,0x08,0x00,0xff,
0x59,0x02,0x00,0x00,0x00,0xff,0x51,0x03,0x08,0x8e,0x6c,0x00,0xff,0x2f,0x00,0x4d,
0x54,0x72,0x6b,0x00,0x00,0x15,0xec,0x00,0xff,0x21,0x01,0x00,0x00,0xb1,0x00,0x00,
0x00,0xc1,0x23,0x00,0xb1,0x07,0x78,0x00,0xb1,0x5b,0x0a,0x00,0x5d,0x34,0x68,0x0b,
0x7f,0x88,0x18,0x91,0x1f,0x68,0x1e,0x1f,0x00,0x10,0x1f,0x53,0x18,0x1f,0x00,0x1b,
0x1f,0x6d,0x21,0x1f,0x00,0x0d,0x1f,0x4f,0x1c,0x1f,0x00,0x15,0x1f,0x59,0x19,0x1f,
0x00,0x16,0x1f,0x56,0x19,0x1f,0x00,0x19,0x1f,0x6e,0x1d,0x1f,0x00,0x11,0x1f,0x54,
0x1c,0x1f,0x00,0x13,0x1f,0x65,0x1e,0x1f,0x00,0x13,0x1f,0x55,0x1d,0x1f,0x00,0x12,
0x1f,0x51,0x1a,0x1f,0x00,0x16,0x1f,0x6b,0x17,0x1f,0x00,0x1c,0x1f,0x53,0x1a,0x1f,
0x00,0x15,0x1f,0x53,0x19,0x1f,0x00,0x16,0x1f,0x68,0x1e,0x1f,0x00,0x12,0x1f,0x56,
0x1b,0x1f,0x00,0x16,0x1c,0x54,0x18,0x1c,0x00,0x19,0x1c,0x66,0x1f,0x1c,0x00,0x11,
0x1c,0x55,0x1c,0x1c,0x00,0x12,0x1c,0x54,0x1a,0x1c,0x00,0x18,0x1c,0x52,0x17,0x1c,
0x00,0x18,0x1c,0x6c,0x1e,0x1c,0x00,0x11,0x1c,0x52,0x1e,0x1c,0x00,0x13,0x1c,0x51,
0x18,0x1c,0x00,0x17,0x1c,0x67,0x1a,0x1c,0x00,0x18,0x1c,0x54,0x17,0x1c,0x00,0x17,
0x1c,0x66,0x1f,0x1c,0x00,0x10,0x1c,0x55,0x1e,0x1c,0x00,0x14,0x1c,0x6d,0x1c,0x1c,
0x00,0x15,0x1c,0x6b,0x16,0x1c,0x00,0x01,0x1c,0x3f,0x10,0x1c,0x00,0x07,0x1c,0x5e,
0x0f,0x1c,0x00,0x0a,0x1c,0x46,0x0e,0x1c,0x00,0x08,0x1c,0x6a,0x1b,0x1c,0x00,0x18,
0x24,0x6b,0x1e,0x24,0x00,0x11,0x24,0x57,0x0e,0x24,0x00,0x08,0x24,0x4b,0x0e,0x24,
0x00,0x0c,0x24,0x65,0x18,0x24,0x00,0x17,0x24,0x52,0x1e,0x24,0x00,0x14,0x24,0x64,
0x19,0x24,0x00,0x17,0x24,0x4e,0x1d,0x24,0x00,0x12,0x24,0x65,0x14,0x24,0x00,0x1b,
0x24,0x53,0x2c,0x24,0x00,0x06,0x26,0x73,0x1a,0x26,0x00,0x15,0x26,0x56,0x17,0x26,
0x00,0x17,0x26,0x55,0x17,0x26,0x00,0x19,0x26,0x72,0x1e,0x26,0x00,0x13,0x26,0x54,
0x1d,0x26,0x00,0x13,0x26,0x57,0x15,0x26,0x00,0x1d,0x26,0x6f,0x16,0x26,0x00,0x18,
0x26,0x56,0x1a,0xe1,0x00,0x37,0x05,0x00,0x2b,0x04,0x00,0x20,0x05,0x40,0x16,0x03,
0x91,0x26,0x00,0x01,0xe1,0x00,0x0f,0x04,0x00,0x40,0x02,0x91,0x1f,0x51,0x17,0x1f,
0x00,0x18,0x1f,0x64,0x0f,0x1f,0x00,0x09,0x1f,0x41,0x10,0x1f,0x00,0x09,0x1f,0x57,
0x1c,0x1f,0x00,0x13,0x1f,0x62,0x1a,0x1f,0x00,0x15,0xe1,0x40,0x07,0x01,0x91,0x2b,
0x59,0x04,0xe1,0x40,0x12,0x04,0x40,0x24,0x05,0x00,0x36,0x04,0x00,0x40,0x1d,0x91,
0x2b,0x00,0x01,0x2b,0x4c,0x2a,0x2b,0x00,0x05,0x26,0x6a,0x18,0x26,0x00,0x1a,0x1f,
0x54,0x19,0x1f,0x00,0x15,0x1f,0x6c,0x10,0x1f,0x00,0x0a,0x1f,0x4f,0x10,0x1f,0x00,
0x06,0x1f,0x51,0x1e,0x1f,0x00,0x12,0x1f,0x66,0x1f,0x1f,0x00,0x11,0x1f,0x55,0x18,
0x1f,0x00,0x18,0x1f,0x62,0x1a,0x1f,0x00,0x19,0x1f,0x52,0x1d,0x1f,0x00,0x0e,0xe1,
0x00,0x0c,0x05,0x91,0x26,0x6b,0x00,0xe1,0x40,0x12,0x04,0x40,0x1c,0x05,0x40,0x2a,
0x04,0x40,0x3d,0x05,0x00,0x40,0x1a,0x91,0x26,0x00,0x01,0x26,0x51,0x2f,0x26,0x00,
0x01,0x1f,0x67,0x1e,0x1f,0x00,0x12,0x1f,0x55,0x1d,0x1f,0x00,0x14,0x1f,0x58,0x1d,
0x1f,0x00,0x12,0x1f,0x6e,0x16,0x1f,0x00,0x1b,0x1f,0x56,0x18,0x1f,0x00,0x19,0x1f,
0x57,0x17,0x1f,0x00,0x17,0x1f,0x56,0x1a,0x1f,0x00,0x17,0x1f,0x63,0x18,0x1f,0x00,
0x18,0x1f,0x6b,0x1e,0x1f,0x00,0x13,0x1f,0x56,0x1c,0x1f,0x00,0x13,0x1f,0x67,0x1f,
0x1f,0x00,0x11,0x1f,0x59,0x16,0x1f,0x00,0x1c,0x1f,0x54,0x17,0x1f,0x00,0x19,0x1f,
0x55,0x0f,0x1f,0x00,0x08,0x1f,0x61,0x0f,0x1f,0x00,0x09,0x1f,0x6f,0x1e,0x1f,0x00,
0x12,0x1f,0x5a,0x1d,0x1f,0x00,0x13,0x1c,0x65,0x19,0x1c,0x00,0x18,0x1c,0x5c,0x1e,
0x1c,0x00,0x0f,0x1c,0x5d,0x1a,0x1c,0x00,0x16,0x1c,0x6d,0x19,0x1c,0x00,0x17,0x1c,
0x53,0x1e,0x1c,0x00,0x13,0x1c,0x63,0x1d,0x1c,0x00,0x13,0x1c,0x60,0x16,0x1c,0x00,
0x1c,0x1c,0x54,0x1e,0x1c,0x00,0x11,0x1c,0x64,0x17,0x1c,0x00,0x18,0x1c,0x60,0x0e,
0x1c,0x00,0x0c,0x1c,0x57,0x0f,0x1c,0x00,0x07,0x1c,0x56,0x1d,0x1c,0x00,0x14,0x1c,
0x73,0x1c,0x1c,0x00,0x13,0x1c,0x53,0x19,0x1c,0x00,0x19,0x1c,0x63,0x17,0x1c,0x00,
0x17,0x1c,0x6f,0x17,0x1c,0x00,0x1a,0x1c,0x5b,0x1c,0x1c,0x00,0x14,0x24,0x6b,0x1e,
0x24,0x00,0x11,0x24,0x5c,0x1c,0x24,0x00,0x14,0x24,0x58,0x1f,0x24,0x00,0x10,0x24,
0x6f,0x1e,0x24,0x00,0x14,0x24,0x55,0x17,0x24,0x00,0x18,0x24,0x63,0x1b,0x24,0x00,
0x14,0x24,0x59,0x1e,0x24,0x00,0x13,0x24,0x58,0x1c,0x24,0x00,0x14,0x26,0x6c,0x1c,
0x26,0x00,0x13,0x26,0x58,0x1e,0x26,0x00,0x13,0x26,0x5f,0x1f,0x26,0x00,0x11,0xe1,
0x40,0x12,0x02,0x91,0x26,0x72,0x02,0xe1,0x40,0x21,0x04,0x40,0x2c,0x05,0x00,0x37,
0x04,0x00,0x40,0x1e,0x91,0x26,0x00,0x01,0x26,0x60,0x16,0x26,0x00,0x1c,0x26,0x58,
0x17,0x26,0x00,0x16,0x26,0x72,0x13,0x26,0x00,0x20,0x26,0x53,0x1f,0x26,0x00,0x0f,
0x1c,0x5e,0x1d,0x1c,0x00,0x13,0x1c,0x5d,0x0f,0x1c,0x00,0x0b,0x1c,0x56,0x10,0x1c,
0x00,0x07,0x1c,0x5b,0x17,0x1c,0x00,0x19,0x1c,0x53,0x1a,0x1c,0x00,0x12,0xe1,0x40,
0x07,0x03,0x91,0x28,0x74,0x02,0xe1,0x00,0x14,0x04,0x00,0x28,0x05,0x00,0x40,0x09,
0x40,0x41,0x04,0x40,0x43,0x05,0x00,0x40,0x11,0x91,0x28,0x00,0x02,0x26,0x58,0x16,
0x26,0x00,0x1c,0x23,0x53,0x17,0x23,0x00,0x18,0x1c,0x62,0x16,0x1c,0x00,0x19,0x1c,
0x64,0x24,0x1c,0x00,0x0c,0x1c,0x5e,0x14,0x1c,0x00,0x06,0x1c,0x65,0x0e,0x1c,0x00,
0x0a,0x1c,0x61,0x1e,0x1c,0x00,0x10,0x1c,0x63,0x19,0x1c,0x00,0x19,0x1c,0x64,0x1e,
0x1c,0x00,0x0f,0x28,0x53,0x17,0xe1,0x40,0x34,0x04,0x40,0x2d,0x05,0x00,0x29,0x05,
0x00,0x25,0x04,0x00,0x21,0x04,0x91,0x28,0x00,0x01,0xe1,0x40,0x19,0x03,0x00,0x40,
0x01,0x91,0x26,0x59,0x1b,0x26,0x00,0x13,0x1a,0x60,0x2e,0x1a,0x00,0x05,0x1f,0x6e,
0x1c,0x1f,0x00,0x14,0x1f,0x5a,0x18,0x1f,0x00,0x16,0x1f,0x5e,0x1d,0x1f,0x00,0x14,
0x1f,0x76,0x1e,0x1f,0x00,0x11,0x1f,0x65,0x16,0x1f,0x00,0x19,0x1f,0x56,0x19,0x1f,
0x00,0x1a,0x1f,0x67,0x1e,0x1f,0x00,0x11,0x1f,0x63,0x17,0x1f,0x00,0x1a,0x1f,0x70,
0x17,0x1f,0x00,0x16,0x1f,0x5e,0x0e,0x1f,0x00,0x0a,0x1f,0x43,0x0d,0x1f,0x00,0x0d,
0x1f,0x62,0x1c,0x1f,0x00,0x13,0x1f,0x73,0x1c,0x1f,0x00,0x16,0x1f,0x5f,0x1e,0x1f,
0x00,0x0f,0x1f,0x5d,0x1c,0x1f,0x00,0x14,0x1f,0x72,0x17,0x1f,0x00,0x1b,0x2b,0x63,
0x18,0xe1,0x40,0x34,0x04,0x00,0x2a,0x05,0x40,0x20,0x05,0x00,0x17,0x04,0x40,0x10,
0x03,0x91,0x2b,0x00,0x01,0x1c,0x75,0x01,0xe1,0x00,0x40,0x18,0x91,0x1c,0x00,0x1a,
0x1c,0x55,0x1e,0x1c,0x00,0x10,0x1c,0x5b,0x1a,0x1c,0x00,0x15,0x1c,0x76,0x1d,0x1c,
0x00,0x14,0x1c,0x5f,0x1e,0x1c,0x00,0x11,0x1c,0x61,0x1a,0x1c,0x00,0x19,0x1c,0x63,
0x15,0x1c,0x00,0x01,0x1c,0x48,0x17,0x1c,0x00,0x01,0x1c,0x53,0x19,0x1c,0x00,0x17,
0x1c,0x72,0x19,0x1c,0x00,0x16,0x1c,0x58,0x17,0x1c,0x00,0x1c,0x1c,0x55,0x1e,0x1c,
0x00,0x11,0x1c,0x70,0x19,0x1c,0x00,0x16,0x1c,0x57,0x19,0x1c,0x00,0x18,0x1c,0x58,
0x1f,0x1c,0x00,0x10,0x1c,0x5b,0x1d,0x1c,0x00,0x14,0x1c,0x62,0x18,0x1c,0x00,0x17,
0x24,0x75,0x1d,0x24,0x00,0x14,0x24,0x5c,0x1c,0x24,0x00,0x12,0x24,0x5b,0x1a,0x24,
0x00,0x18,0x24,0x72,0x19,0x24,0x00,0x15,0x24,0x57,0x17,0x24,0x00,0x1c,0x24,0x58,
0x1a,0x24,0x00,0x15,0x24,0x59,0x17,0x24,0x00,0x19,0x24,0x5a,0x17,0x24,0x00,0x1a,
0x26,0x66,0x19,0x26,0x00,0x17,0x26,0x5a,0x17,0x26,0x00,0x01,0x26,0x44,0x16,0x26,
0x00,0x01,0x26,0x54,0x1d,0x26,0x00,0x14,0x26,0x74,0x19,0x26,0x00,0x16,0x26,0x60,
0x1a,0x26,0x00,0x15,0x26,0x58,0x16,0x26,0x00,0x19,0x26,0x70,0x1e,0x26,0x00,0x14,
0x26,0x59,0x1f,0x26,0x00,0x11,0x1f,0x73,0x1d,0x1f,0x00,0x14,0x1f,0x57,0x1f,0x1f,
0x00,0x0e,0x1f,0x5e,0x1f,0x1f,0x00,0x14,0x1f,0x75,0x17,0x1f,0x00,0x16,0x1f,0x57,
0x1f,0x1f,0x00,0x14,0x1f,0x53,0x1d,0x1f,0x00,0x12,0x1f,0x5d,0x1f,0x1f,0x00,0x12,
0x1f,0x60,0x1e,0x1f,0x00,0x12,0x1f,0x70,0x17,0x1f,0x00,0x01,0x1f,0x58,0x14,0x1f,
0x00,0x01,0x1f,0x5f,0x16,0x1f,0x00,0x1c,0x1f,0x53,0x18,0x1f,0x00,0x18,0x1f,0x76,
0x1d,0x1f,0x00,0x11,0x1f,0x58,0x1e,0x1f,0x00,0x14,0x1f,0x76,0x1e,0x1f,0x00,0x12,
0x1f,0x60,0x1a,0x1f,0x00,0x15,0x1f,0x70,0x19,0x1f,0x00,0x17,0xe1,0x00,0x19,0x00,
0x91,0x24,0x6c,0x04,0xe1,0x40,0x29,0x05,0x00,0x3b,0x04,0x00,0x40,0x21,0x91,0x24,
0x00,0x03,0x24,0x53,0x18,0x24,0x00,0x19,0x24,0x5f,0x1e,0x24,0x00,0x10,0x24,0x73,
0x18,0x24,0x00,0x17,0x24,0x5c,0x1c,0x24,0x00,0x16,0x24,0x5d,0x1d,0x24,0x00,0x13,
0x24,0x59,0x1c,0x24,0x00,0x12,0x24,0x59,0x1c,0x24,0x00,0x14,0x22,0x76,0x19,0x22,
0x00,0x1a,0x22,0x5d,0x1c,0x22,0x00,0x14,0x22,0x72,0x18,0x22,0x00,0x15,0x22,0x59,
0x1c,0x22,0x00,0x17,0x22,0x58,0x16,0x22,0x00,0x19,0x22,0x6e,0x1a,0x22,0x00,0x15,
0x22,0x5b,0x1d,0x22,0x00,0x12,0x22,0x61,0x12,0xe1,0x40,0x3c,0x05,0x40,0x31,0x04,
0x00,0x28,0x05,0x40,0x21,0x04,0x00,0x1e,0x05,0x00,0x1d,0x04,0x91,0x22,0x00,0x03,
0x1f,0x72,0x01,0xe1,0x00,0x40,0x18,0x91,0x1f,0x00,0x19,0x1f,0x59,0x16,0x1f,0x00,
0x19,0x1f,0x57,0x1e,0x1f,0x00,0x13,0x1f,0x75,0x1d,0x1f,0x00,0x13,0x1f,0x53,0x16,
0x1f,0x00,0x19,0x1f,0x5a,0x19,0x1f,0x00,0x16,0x1f,0x71,0x18,0x1f,0x00,0x18,0x1f,
0x57,0x1e,0x1f,0x00,0x13,0x1f,0x6b,0x1c,0x1f,0x00,0x14,0x1f,0x62,0x16,0x1f,0x00,
0x1b,0x1f,0x74,0x1c,0x1f,0x00,0x15,0x1f,0x59,0x1c,0x1f,0x00,0x14,0x1f,0x6f,0x18,
0x1f,0x00,0x18,0x1f,0x4a,0x16,0x1f,0x00,0x1a,0x1f,0x53,0x1c,0x1f,0x00,0x11,0x1f,
0x73,0x1c,0x1f,0x00,0x17,0x21,0x74,0x19,0x21,0x00,0x16,0x21,0x53,0x19,0x21,0x00,
0x15,0x21,0x58,0x1b,0x21,0x00,0x15,0x21,0x73,0x1d,0x21,0x00,0x16,0x21,0x5a,0x1a,
0x21,0x00,0x13,0x21,0x54,0x1d,0x21,0x00,0x13,0x21,0x78,0x1f,0x21,0x00,0x12,0x21,
0x60,0x1c,0x21,0x00,0x16,0x21,0x73,0x1d,0x21,0x00,0x13,0x21,0x5a,0x1c,0x21,0x00,
0x14,0x21,0x61,0x19,0x21,0x00,0x16,0x21,0x72,0x1e,0x21,0x00,0x11,0x21,0x62,0x1e,
0x21,0x00,0x11,0x21,0x5e,0x1f,0x21,0x00,0x11,0x21,0x6e,0x1f,0x21,0x00,0x11,0x21,
0x55,0x15,0xe1,0x40,0x38,0x05,0x00,0x2a,0x04,0x00,0x1d,0x05,0x00,0x11,0x04,0x40,
0x07,0x05,0x40,0x03,0x02,0x91,0x21,0x00,0x02,0xe1,0x00,0x40,0x03,0x91,0x1a,0x6f,
0x16,0x1a,0x00,0x18,0x1a,0x5e,0x1a,0x1a,0x00,0x15,0x1a,0x62,0x1d,0x1a,0x00,0x15,
0x1a,0x7a,0x1d,0x1a,0x00,0x12,0x1a,0x60,0x19,0x1a,0x00,0x17,0x1a,0x5f,0x17,0x1a,
0x00,0x19,0x1a,0x56,0x1d,0x1a,0x00,0x12,0x1a,0x5f,0x1c,0x1a,0x00,0x17,0x1a,0x75,
0x1d,0x1a,0x00,0x10,0x1a,0x59,0x17,0x1a,0x00,0x1c,0x1a,0x57,0x16,0x1a,0x00,0x18,
0x1a,0x7a,0x1c,0x1a,0x00,0x15,0x1a,0x60,0x1e,0x1a,0x00,0x10,0x1a,0x5c,0x1f,0x1a,
0x00,0x11,0x1a,0x65,0x2a,0x1a,0x00,0x09,0x26,0x65,0x0f,0xe1,0x00,0x37,0x05,0x40,
0x29,0x04,0x40,0x1b,0x05,0x00,0x0e,0x04,0x00,0x07,0x09,0x00,0x00,0x04,0x91,0x26,
0x00,0x00,0xe1,0x00,0x40,0x01,0x91,0x1f,0x75,0x1d,0x1f,0x00,0x12,0x1f,0x5b,0x16,
0x1f,0x00,0x1c,0x1f,0x62,0x17,0x1f,0x00,0x17,0x1f,0x7b,0x1d,0x1f,0x00,0x12,0x1f,
0x61,0x1e,0x1f,0x00,0x13,0x1f,0x53,0x1f,0x1f,0x00,0x11,0x1f,0x61,0x1c,0x1f,0x00,
0x15,0x1f,0x5b,0x1e,0x1f,0x00,0x13,0x1f,0x57,0x1d,0x1f,0x00,0x12,0x1f,0x5f,0x17,
0x1f,0x00,0x02,0x1f,0x56,0x16,0x1f,0x00,0x01,0x1f,0x58,0x19,0x1f,0x00,0x16,0x1f,
0x78,0x1f,0x1f,0x00,0x11,0x1f,0x53,0x1c,0x1f,0x00,0x16,0x1f,0x57,0x1a,0x1f,0x00,
0x13,0x1f,0x6f,0x1b,0x1f,0x00,0x15,0x1f,0x57,0x18,0x1f,0x00,0x19,0x1c,0x5f,0x19,
0x1c,0x00,0x19,0x1c,0x57,0x1d,0x1c,0x00,0x11,0x1c,0x5e,0x1f,0x1c,0x00,0x11,0x1c,
0x79,0x1b,0x1c,0x00,0x14,0x1c,0x57,0x1e,0x1c,0x00,0x12,0x1c,0x57,0x17,0x1c,0x00,
0x04,0x1c,0x60,0x16,0x1c,0x00,0x01,0x1c,0x73,0x1a,0x1c,0x00,0x16,0x1c,0x57,0x18,
0x1c,0x00,0x18,0x1c,0x74,0x1f,0x1c,0x00,0x0f,0x1c,0x5a,0x1d,0x1c,0x00,0x14,0x1c,
0x56,0x1f,0x1c,0x00,0x13,0x1c,0x70,0x17,0x1c,0x00,0x17,0x1c,0x5c,0x1e,0x1c,0x00,
0x11,0x1c,0x58,0x18,0x1c,0x00,0x19,0x1c,0x54,0x1b,0x1c,0x00,0x17,0x1c,0x56,0x19,
0x1c,0x00,0x15,0xe1,0x40,0x0a,0x01,0x91,0x24,0x6d,0x03,0xe1,0x00,0x15,0x05,0x00,
0x25,0x04,0x40,0x35,0x05,0x00,0x40,0x1d,0x91,0x24,0x00,0x01,0x24,0x5c,0x17,0x24,
0x00,0x02,0x24,0x47,0x17,0x24,0x00,0x01,0x24,0x5b,0x18,0x24,0x00,0x17,0x24,0x74,
0x1d,0x24,0x00,0x14,0x24,0x5d,0x17,0x24,0x00,0x17,0x24,0x5b,0x1a,0x24,0x00,0x19,
0x24,0x6b,0x18,0x24,0x00,0x17,0x24,0x5d,0x1b,0x24,0x00,0x16,0x26,0x70,0x1d,0x26,
0x00,0x11,0x26,0x62,0x19,0x26,0x00,0x16,0x26,0x60,0x1d,0x26,0x00,0x15,0x26,0x72,
0x1f,0x26,0x00,0x12,0x26,0x55,0x19,0x26,0x00,0x14,0x26,0x5d,0x1d,0x26,0x00,0x13,
0x26,0x6e,0x18,0x26,0x00,0x19,0x26,0x5e,0x15,0xe1,0x00,0x29,0x04,0x40,0x23,0x05,
0x00,0x1e,0x09,0x00,0x18,0x04,0x91,0x26,0x00,0x00,0xe1,0x40,0x10,0x05,0x00,0x40,
0x01,0x91,0x1c,0x6f,0x1e,0x1c,0x00,0x11,0x1c,0x5a,0x1c,0x1c,0x00,0x15,0x1c,0x57,
0x1e,0x1c,0x00,0x13,0x1c,0x75,0x18,0x1c,0x00,0x17,0x1c,0x66,0x1c,0x1c,0x00,0x12,
0x1c,0x5e,0x1e,0x1c,0x00,0x12,0x1c,0x77,0x1d,0x1c,0x00,0x16,0x1c,0x5d,0x1f,0x1c,
0x00,0x10,0x1c,0x72,0x1b,0x1c,0x00,0x13,0x1c,0x5e,0x18,0x1c,0x00,0x03,0x1c,0x61,
0x16,0x1c,0x00,0x01,0x1c,0x64,0x1a,0x1c,0x00,0x17,0x1c,0x7a,0x17,0x1c,0x00,0x18,
0x1c,0x66,0x15,0x1c,0x00,0x01,0x1c,0x58,0x17,0x1c,0x00,0x04,0x1c,0x5b,0x16,0x1c,
0x00,0x17,0x1c,0x75,0x17,0x1c,0x00,0x1b,0x1c,0x53,0x1c,0x1c,0x00,0x13,0x1b,0x6a,
0x2c,0x1b,0x00,0x06,0x1b,0x5e,0x2d,0x1b,0x00,0x03,0x27,0x5f,0x2b,0x27,0x00,0x05,
0x1b,0x5c,0x2c,0x1b,0x00,0x01,0x1b,0x6a,0x2a,0x1b,0x00,0x07,0x1b,0x62,0x2d,0x1b,
0x00,0x05,0x27,0x5f,0x2b,0x27,0x00,0x04,0x27,0x57,0x2e,0x27,0x00,0x03,0x1b,0x60,
0x2d,0x1b,0x00,0x01,0x27,0x53,0x2d,0x27,0x00,0x05,0x27,0x6c,0x2c,0x27,0x00,0x01,
0x1b,0x60,0x2d,0x1b,0x00,0x04,0x27,0x6e,0x2c,0x27,0x00,0x05,0x27,0x56,0x2d,0x27,
0x00,0x01,0x1b,0x6d,0x2d,0x1b,0x00,0x04,0x27,0x5d,0x09,0xe1,0x00,0x3e,0x04,0x00,
0x37,0x05,0x40,0x2e,0x04,0x40,0x25,0x05,0x00,0x1c,0x04,0x40,0x11,0x05,0x00,0x09,
0x04,0x00,0x05,0x04,0x91,0x27,0x00,0x04,0xe1,0x00,0x40,0x00,0x91,0x1d,0x5e,0x2c,
0x1d,0x00,0x06,0x1d,0x66,0x2d,0x1d,0x00,0x01,0x29,0x5f,0x2a,0x29,0x00,0x08,0x1d,
0x74,0x2b,0x1d,0x00,0x05,0x1d,0x56,0x2d,0x1d,0x00,0x01,0x1d,0x54,0x2a,0x1d,0x00,
0x08,0x29,0x71,0x2c,0x29,0x00,0x03,0x29,0x62,0x2e,0x29,0x00,0x03,0x1d,0x70,0x2e,
0x1d,0x00,0x01,0x1d,0x55,0x2d,0x1d,0x00,0x02,0x29,0x5b,0x2c,0x29,0x00,0x06,0x1d,
0x76,0x2d,0x1d,0x00,0x01,0x29,0x72,0x17,0x29,0x00,0x02,0x29,0x4e,0x15,0x29,0x00,
0x01,0x29,0x69,0x2c,0x29,0x00,0x05,0x29,0x70,0x2e,0x29,0x00,0x01,0x1d,0x53,0x15,
0xe1,0x00,0x38,0x04,0x40,0x2b,0x05,0x40,0x1f,0x04,0x00,0x12,0x05,0x40,0x0a,0x04,
0x40,0x08,0x03,0x91,0x1d,0x00,0x03,0xe1,0x00,0x40,0x01,0x91,0x1b,0x58,0x2d,0x1b,
0x00,0x01,0x1b,0x64,0x00,0x1b,0x00,0x32,0x27,0x5b,0x2d,0x27,0x00,0x01,0x1b,0x74,
0x2b,0x1b,0x00,0x08,0x27,0x64,0x2a,0x27,0x00,0x06,0x27,0x57,0x2d,0x27,0x00,0x03,
0x1b,0x6c,0x2d,0x1b,0x00,0x01,0x27,0x54,0x2c,0x27,0x00,0x06,0x1b,0x73,0x2d,0x1b,
0x00,0x01,0x1b,0x60,0x2d,0x1b,0x00,0x04,0x27,0x55,0x2d,0x27,0x00,0x04,0x1b,0x6c,
0x2a,0x1b,0x00,0x06,0x27,0x63,0x15,0x27,0x00,0x01,0x27,0x52,0x17,0x27,0x00,0x01,
0x27,0x5c,0x2e,0x27,0x00,0x01,0x1b,0x6d,0x2b,0x1b,0x00,0x07,0x27,0x5f,0x2d,0x27,
0x00,0x03,0x1d,0x78,0x2e,0x1d,0x00,0x01,0x1d,0x5c,0x2c,0x1d,0x00,0x06,0x29,0x57,
0x2c,0x29,0x00,0x04,0x1d,0x6f,0x2d,0x1d,0x00,0x03,0x29,0x64,0x2c,0x29,0x00,0x01,
0x1d,0x65,0x2c,0x1d,0x00,0x05,0x29,0x5d,0x2d,0x29,0x00,0x04,0x29,0x58,0x2c,0x29,
0x00,0x05,0x1d,0x76,0x14,0x1d,0x00,0x01,0x1d,0x58,0x17,0x1d,0x00,0x02,0x1d,0x60,
0x2c,0x1d,0x00,0x05,0x29,0x5e,0x2d,0x29,0x00,0x01,0x1d,0x7b,0x2d,0x1d,0x00,0x05,
0x29,0x63,0x2b,0x29,0x00,0x05,0x1d,0x5c,0x2c,0x1d,0x00,0x05,0x29,0x70,0x14,0x29,
0x00,0x01,0x29,0x54,0x17,0x29,0x00,0x04,0x29,0x58,0x2e,0x29,0x00,0x01,0x1b,0x70,
0x2d,0x1b,0x00,0x04,0x1b,0x5b,0x2a,0x1b,0x00,0x05,0x27,0x5f,0x2d,0x27,0x00,0x01,
0x1b,0x76,0x2e,0x1b,0x00,0x03,0x1b,0x60,0x2a,0x1b,0x00,0x05,0x1b,0x58,0x2c,0x1b,
0x00,0x04,0x27,0x6d,0x2d,0x27,0x00,0x03,0x1b,0x56,0x2a,0x1b,0x00,0x06,0x1b,0x73,
0x2e,0x1b,0x00,0x04,0x27,0x58,0x2e,0x27,0x00,0x01,0x27,0x67,0x2a,0x27,0x00,0x08,
0x1b,0x76,0x2d,0x1b,0x00,0x01,0x27,0x5b,0x17,0x27,0x00,0x03,0x27,0x56,0x15,0x27,
0x00,0x01,0x27,0x54,0x2e,0x27,0x00,0x04,0x27,0x74,0x2e,0x27,0x00,0x01,0x1b,0x5f,
0x2d,0x1b,0x00,0x04,0x1f,0x77,0x1e,0x1f,0x00,0x0f,0x1f,0x50,0x19,0x1f,0x00,0x17,
0x1f,0x54,0x1d,0x1f,0x00,0x14,0x1f,0x71,0x1f,0x1f,0x00,0x10,0x1f,0x68,0x17,0x1f,
0x00,0x1a,0x1f,0x57,0x20,0x1f,0x00,0x10,0x1f,0x78,0x1f,0x1f,0x00,0x11,0x1f,0x5c,
0x1f,0x1f,0x00,0x13,0x1f,0x68,0x19,0x1f,0x00,0x16,0x1f,0x5b,0x17,0x1f,0x00,0x02,
0x1f,0x58,0x16,0x1f,0x00,0x01,0x1f,0x60,0x1d,0x1f,0x00,0x11,0x1f,0x53,0x1f,0x1f,
0x00,0x12,0x1f,0x6b,0x1a,0x1f,0x00,0x17,0x1f,0x56,0x1b,0x1f,0x00,0x14,0x1f,0x68,
0x1e,0x1f,0x00,0x14,0x1f,0x59,0x1a,0xe1,0x40,0x33,0x04,0x40,0x28,0x05,0x00,0x1f,
0x04,0x40,0x15,0x04,0x40,0x10,0x03,0x00,0x40,0x01,0x91,0x1f,0x00,0x01,0x1c,0x67,
0x19,0x1c,0x00,0x15,0x1c,0x53,0x18,0x1c,0x00,0x19,0x1c,0x54,0x1c,0x1c,0x00,0x12,
0x1c,0x53,0x1e,0x1c,0x00,0x14,0x1c,0x67,0x15,0x1c,0x00,0x01,0x1c,0x53,0x17,0x1c,
0x00,0x01,0x1c,0x5c,0x1f,0x1c,0x00,0x14,0x1c,0x65,0x1d,0x1c,0x00,0x12,0x1c,0x64,
0x1a,0x1c,0x00,0x16,0x1c,0x64,0x18,0x1c,0x00,0x16,0x1c,0x53,0x18,0x1c,0x00,0x1a,
0x1c,0x5b,0x19,0x1c,0x00,0x18,0x1c,0x69,0x1d,0x1c,0x00,0x10,0x1c,0x57,0x19,0x1c,
0x00,0x1a,0x1c,0x55,0x1a,0x1c,0x00,0x16,0x1c,0x67,0x16,0x1c,0x00,0x01,0x1c,0x59,
0x17,0x1c,0x00,0x02,0x1c,0x56,0x1c,0x1c,0x00,0x11,0x24,0x71,0x01,0xe1,0x00,0x0e,
0x05,0x40,0x1b,0x04,0x00,0x31,0x05,0x00,0x40,0x1f,0x91,0x24,0x00,0x03,0x24,0x58,
0x16,0x24,0x00,0x19,0x24,0x58,0x1a,0x24,0x00,0x17,0x24,0x76,0x1e,0x24,0x00,0x12,
0x24,0x56,0x1f,0x24,0x00,0x11,0x24,0x51,0x1e,0x24,0x00,0x14,0x24,0x70,0x1a,0x24,
0x00,0x13,0x24,0x52,0x19,0x24,0x00,0x1a,0x26,0x6d,0x1d,0x26,0x00,0x13,0x26,0x55,
0x1e,0x26,0x00,0x0f,0x26,0x57,0x03,0xe1,0x40,0x12,0x04,0x40,0x25,0x05,0x40,0x3c,
0x04,0x00,0x40,0x1e,0x91,0x26,0x00,0x05,0x26,0x74,0x1c,0x26,0x00,0x14,0x26,0x54,
0x1e,0x26,0x00,0x0f,0x26,0x75,0x19,0x26,0x00,0x18,0x26,0x68,0x1e,0x26,0x00,0x12,
0x26,0x5f,0x10,0xe1,0x40,0x36,0x06,0x40,0x29,0x05,0x40,0x21,0x07,0x00,0x16,0x08,
0x00,0x0f,0x05,0x91,0x26,0x00,0x01,0xe1,0x00,0x40,0x01,0x91,0x1f,0x74,0x1e,0x1f,
0x00,0x12,0x1f,0x53,0x0f,0x1f,0x00,0x0a,0x1f,0x56,0x10,0x1f,0x00,0x08,0x1f,0x58,
0x1a,0x1f,0x00,0x13,0x1f,0x65,0x1b,0x1f,0x00,0x18,0x1f,0x54,0x1c,0x1f,0x00,0x13,
0x1f,0x56,0x19,0x1f,0x00,0x18,0x2b,0x69,0x1a,0x2b,0x00,0x16,0x1f,0x5e,0x1e,0x1f,
0x00,0x11,0x1f,0x67,0x10,0x1f,0x00,0x07,0x1f,0x57,0x10,0x1f,0x00,0x07,0x1f,0x5c,
0x19,0x1f,0x00,0x17,0x1f,0x58,0x11,0x1f,0x00,0x22,0x1f,0x66,0x10,0x1f,0x00,0x20,
0x1f,0x67,0x16,0x1f,0x00,0x17,0x1f,0x52,0x14,0x1f,0x00,0x1d,0xe1,0x00,0x0d,0x02,
0x91,0x2b,0x68,0x02,0xe1,0x40,0x1e,0x05,0x00,0x3c,0x04,0x00,0x40,0x22,0x91,0x2b,
0x00,0x01,0x1f,0x57,0x1b,0x1f,0x00,0x15,0x24,0x77,0x17,0x24,0x00,0x19,0x24,0x56,
0x18,0x24,0x00,0x1a,0x24,0x59,0x1e,0x24,0x00,0x11,0x24,0x70,0x16,0x24,0x00,0x1b,
0x24,0x58,0x1f,0x24,0x00,0x0f,0x24,0x57,0x1c,0x24,0x00,0x13,0x24,0x72,0x1d,0x24,
0x00,0x15,0x24,0x5a,0x18,0x24,0x00,0x16,0x22,0x77,0x1c,0x22,0x00,0x16,0x22,0x58,
0x16,0x22,0x00,0x1a,0x22,0x5b,0x19,0x22,0x00,0x15,0x22,0x60,0x1a,0x22,0x00,0x18,
0x22,0x7a,0x1e,0x22,0x00,0x10,0x22,0x59,0x19,0x22,0x00,0x18,0x22,0x78,0x17,0x22,
0x00,0x1b,0x22,0x5b,0x1a,0x22,0x00,0x14,0x1f,0x76,0x17,0x1f,0x00,0x18,0x1f,0x67,
0x1e,0x1f,0x00,0x13,0x1f,0x58,0x17,0x1f,0x00,0x19,0x1f,0x77,0x1d,0x1f,0x00,0x14,
0x1f,0x54,0x1b,0x1f,0x00,0x16,0x1f,0x5a,0x15,0x1f,0x00,0x01,0x1f,0x4b,0x17,0x1f,
0x00,0x03,0x1f,0x73,0x1d,0x1f,0x00,0x10,0x1f,0x61,0x18,0x1f,0x00,0x1a,0x1f,0x6e,
0x1d,0x1f,0x00,0x12,0x1f,0x5f,0x1d,0x1f,0x00,0x15,0x1f,0x64,0x16,0x1f,0x00,0x01,
0x1f,0x55,0x15,0x1f,0x00,0x01,0x1f,0x7d,0x17,0x1f,0x00,0x1c,0x1f,0x63,0x1c,0x1f,
0x00,0x14,0x1f,0x5c,0x1a,0x1f,0x00,0x14,0x1f,0x75,0x18,0x1f,0x00,0x17,0x1f,0x63,
0x19,0x1f,0x00,0x19,0x21,0x6f,0x1e,0x21,0x00,0x13,0x21,0x59,0x19,0x21,0x00,0x17,
0x21,0x59,0x1e,0x21,0x00,0x11,0x21,0x76,0x1b,0x21,0x00,0x15,0x21,0x5e,0x17,0x21,
0x00,0x02,0x21,0x52,0x14,0x21,0x00,0x01,0x21,0x55,0x1e,0x21,0x00,0x14,0x21,0x6d,
0x19,0x21,0x00,0x18,0x21,0x62,0x17,0x21,0x00,0x17,0x21,0x73,0x1f,0x21,0x00,0x12,
0x21,0x5e,0x17,0x21,0x00,0x1a,0x21,0x63,0x1d,0x21,0x00,0x10,0x21,0x72,0x18,0x21,
0x00,0x19,0x21,0x5e,0x16,0x21,0x00,0x19,0x21,0x76,0x17,0x21,0x00,0x1c,0x21,0x5d,
0x17,0x21,0x00,0x16,0x21,0x73,0x16,0x21,0x00,0x1b,0x1a,0x6f,0x18,0x1a,0x00,0x1a,
0x1a,0x5c,0x1a,0x1a,0x00,0x14,0x1a,0x61,0x17,0x1a,0x00,0x18,0x1a,0x6e,0x17,0x1a,
0x00,0x1b,0x1a,0x5b,0x1a,0x1a,0x00,0x17,0x1a,0x62,0x1a,0x1a,0x00,0x13,0x1a,0x74,
0x1c,0x1a,0x00,0x15,0x1a,0x60,0x20,0x1a,0x00,0x11,0x1a,0x65,0x1a,0x1a,0x00,0x15,
0x1a,0x60,0x16,0x1a,0x00,0x01,0x1a,0x52,0x17,0x1a,0x00,0x04,0x1a,0x6f,0x18,0x1a,
0x00,0x17,0x1a,0x57,0x1a,0x1a,0x00,0x14,0x1a,0x74,0x1a,0x1a,0x00,0x17,0x1a,0x49,
0x1d,0x1a,0x00,0x13,0x1a,0x76,0x19,0x1a,0x00,0x16,0x1a,0x4f,0x19,0x1a,0x00,0x17,
0x1f,0x78,0x1c,0x1f,0x00,0x15,0x1f,0x5e,0x1a,0x1f,0x00,0x17,0x1f,0x63,0x1e,0x1f,
0x00,0x11,0x1f,0x79,0x16,0x1f,0x00,0x1c,0x1f,0x5b,0x1f,0x1f,0x00,0x0f,0x1f,0x56,
0x1c,0x1f,0x00,0x13,0x1f,0x6d,0x19,0x1f,0x00,0x17,0x1f,0x48,0x19,0x1f,0x00,0x18,
0x1f,0x68,0x1f,0x1f,0x00,0x10,0x1f,0x60,0x18,0x1f,0x00,0x03,0x1f,0x4b,0x16,0x1f,
0x00,0x01,0x1f,0x6d,0x17,0x1f,0x00,0x17,0x1f,0x61,0x16,0x1f,0x00,0x1d,0x1f,0x74,
0x18,0x1f,0x00,0x15,0x1f,0x63,0x18,0x1f,0x00,0x1a,0x1f,0x72,0x1e,0x1f,0x00,0x10,
0x1f,0x5e,0x1f,0x1f,0x00,0x13,0x1c,0x74,0x18,0x1c,0x00,0x19,0x1c,0x63,0x1d,0x1c,
0x00,0x11,0x1c,0x5d,0x1e,0x1c,0x00,0x12,0x1c,0x7a,0x1b,0x1c,0x00,0x16,0x1c,0x53,
0x1a,0x1c,0x00,0x15,0x1c,0x54,0x1d,0x1c,0x00,0x14,0x1c,0x78,0x19,0x1c,0x00,0x15,
0x1c,0x63,0x19,0x1c,0x00,0x17,0x1c,0x6f,0x17,0x1c,0x00,0x03,0x1c,0x53,0x15,0x1c,
0x00,0x01,0x1c,0x70,0x19,0x1c,0x00,0x1a,0x1c,0x56,0x17,0x1c,0x00,0x18,0x1c,0x75,
0x1d,0x1c,0x00,0x14,0x1c,0x61,0x1a,0x1c,0x00,0x14,0x1c,0x76,0x1e,0x1c,0x00,0x13,
0x1c,0x5c,0x17,0x1c,0x00,0x17,0x1c,0x75,0x1a,0x1c,0x00,0x17,0x24,0x74,0x1f,0x24,
0x00,0x10,0x24,0x61,0x1a,0x24,0x00,0x18,0x24,0x57,0x1a,0x24,0x00,0x17,0x24,0x72,
0x1b,0x24,0x00,0x14,0x24,0x55,0x1d,0x24,0x00,0x11,0x24,0x59,0x16,0x24,0x00,0x1c,
0x24,0x69,0x1b,0x24,0x00,0x13,0x24,0x5b,0x1a,0x24,0x00,0x16,0x26,0x70,0x1a,0x26,
0x00,0x16,0x26,0x62,0x1c,0x26,0x00,0x17,0x26,0x72,0x20,0x26,0x00,0x0f,0x26,0x60,
0x17,0x26,0x00,0x17,0x26,0x70,0x1e,0x26,0x00,0x13,0x26,0x54,0x1f,0x26,0x00,0x13,
0x26,0x58,0x18,0x26,0x00,0x15,0x26,0x77,0x1e,0x26,0x00,0x14,0x1c,0x6e,0x17,0x1c,
0x00,0x18,0x1c,0x53,0x1f,0x1c,0x00,0x11,0x1c,0x5c,0x1e,0x1c,0x00,0x11,0x1c,0x74,
0x1d,0x1c,0x00,0x13,0x1c,0x55,0x1e,0x1c,0x00,0x12,0x1c,0x5d,0x1e,0x1c,0x00,0x12,
0x1c,0x70,0x1a,0x1c,0x00,0x19,0x1c,0x53,0x19,0x1c,0x00,0x17,0x1c,0x71,0x0c,0x1c,
0x00,0x0b,0x1c,0x5e,0x0f,0x1c,0x00,0x0a,0x1c,0x60,0x19,0x1c,0x00,0x14,0x1c,0x57,
0x1c,0x1c,0x00,0x16,0x1c,0x72,0x18,0x1c,0x00,0x16,0x1c,0x54,0x1e,0x1c,0x00,0x15,
0x1c,0x75,0x17,0x1c,0x00,0x17,0x1c,0x60,0x1c,0x1c,0x00,0x16,0x1c,0x73,0x1e,0x1c,
0x00,0x11,0x24,0x7a,0x1b,0x24,0x00,0x15,0x24,0x56,0x1d,0x24,0x00,0x14,0x24,0x57,
0x1a,0x24,0x00,0x15,0x24,0x76,0x19,0x24,0x00,0x17,0x24,0x5a,0x1b,0x24,0x00,0x13,
0x24,0x5d,0x1c,0x24,0x00,0x16,0x24,0x79,0x1b,0x24,0x00,0x16,0x24,0x5c,0x16,0x24,
0x00,0x1a,0x26,0x6f,0x1e,0x26,0x00,0x11,0x26,0x61,0x0f,0x26,0x00,0x08,0x26,0x50,
0x0c,0x26,0x00,0x0e,0x26,0x5d,0x16,0x26,0x00,0x17,0x26,0x72,0x17,0x26,0x00,0x1a,
0x26,0x5d,0x17,0x26,0x00,0x19,0x26,0x73,0x19,0x26,0x00,0x19,0x26,0x5f,0x1a,0x26,
0x00,0x13,0x26,0x6f,0x1e,0x26,0x00,0x10,0xe1,0x40,0x16,0x02,0x91,0x28,0x78,0x04,
0xe1,0x00,0x24,0x04,0x40,0x38,0x05,0x00,0x40,0x22,0x91,0x28,0x00,0x03,0x28,0x5c,
0x18,0x28,0x00,0x19,0x28,0x59,0x1e,0x28,0x00,0x10,0x28,0x78,0x1c,0x28,0x00,0x15,
0x28,0x5c,0x18,0x28,0x00,0x17,0x28,0x52,0x0e,0x28,0x00,0x0a,0x28,0x40,0x0e,0x28,
0x00,0x0b,0x28,0x77,0x1f,0x28,0x00,0x10,0x28,0x60,0x1f,0x28,0x00,0x11,0x28,0x7c,
0x17,0x28,0x00,0x19,0x28,0x55,0x1a,0x28,0x00,0x18,0x28,0x68,0x1c,0x28,0x00,0x13,
0x28,0x72,0x1c,0x28,0x00,0x11,0xe1,0x40,0x0b,0x03,0x91,0x28,0x79,0x01,0xe1,0x40,
0x13,0x05,0x40,0x23,0x04,0x00,0x38,0x05,0x00,0x40,0x20,0x91,0x28,0x00,0x01,0x26,
0x6f,0x1e,0x26,0x00,0x11,0x23,0x7e,0x1a,0x23,0x00,0x15,0x1f,0x77,0x17,0xe1,0x40,
0x3c,0x05,0x00,0x31,0x04,0x00,0x24,0x05,0x00,0x17,0x04,0x40,0x0a,0x05,0x91,0x1f,
0x00,0x03,0xe1,0x00,0x40,0x02,0x91,0x1c,0x7f,0x4f,0x1c,0x00,0x0e,0x1c,0x6a,0x1e,
0x1c,0x00,0x12,0x1c,0x7d,0x45,0x1c,0x00,0x04,0x1c,0x6a,0x0e,0x1c,0x00,0x09,0x1c,
0x62,0x19,0x1c,0x00,0x17,0x1c,0x7d,0x1e,0x1c,0x00,0x14,0x1c,0x55,0x1c,0x1c,0x00,
0x15,0x1c,0x7e,0x17,0x1c,0x00,0x16,0x1c,0x67,0x17,0x1c,0x00,0x03,0x1c,0x66,0x17,
0x1c,0x00,0x01,0x28,0x73,0x2d,0x28,0x00,0x01,0x1c,0x7b,0x1a,0x1c,0x00,0x16,0x28,
0x73,0x2f,0x28,0x00,0x01,0x1c,0x73,0x2f,0x1c,0x00,0x03,0x1c,0x78,0x19,0x1c,0x00,
0x17,0x28,0x5f,0x1c,0x28,0x00,0x13,0x1f,0x77,0x1f,0x1f,0x00,0x12,0x1f,0x5c,0x1f,
0x1f,0x00,0x12,0x1f,0x79,0x1d,0x1f,0x00,0x12,0x1f,0x57,0x1b,0x1f,0x00,0x16,0x1f,
0x76,0x1a,0x1f,0x00,0x14,0x1f,0x5e,0x1c,0x1f,0x00,0x16,0x1f,0x54,0x1c,0x1f,0x00,
0x11,0x1f,0x66,0x16,0x1f,0x00,0x1a,0x1f,0x79,0x1f,0x1f,0x00,0x12,0x1f,0x57,0x16,
0x1f,0x00,0x01,0x1f,0x58,0x17,0x1f,0x00,0x02,0x1f,0x5e,0x1b,0x1f,0x00,0x14,0x1f,
0x74,0x1c,0x1f,0x00,0x15,0x1f,0x53,0x1f,0x1f,0x00,0x13,0x1f,0x59,0x1c,0x1f,0x00,
0x14,0x1f,0x73,0x1f,0x1f,0x00,0x11,0x1f,0x57,0x1d,0x1f,0x00,0x13,0x1c,0x6c,0x19,
0x1c,0x00,0x14,0x1c,0x63,0x1e,0x1c,0x00,0x14,0x1c,0x5a,0x1e,0x1c,0x00,0x11,0x1c,
0x70,0x1b,0x1c,0x00,0x17,0x1c,0x58,0x1e,0x1c,0x00,0x11,0x1c,0x59,0x1a,0x1c,0x00,
0x14,0x1c,0x73,0x1c,0x1c,0x00,0x15,0x1c,0x59,0x19,0x1c,0x00,0x16,0x24,0x70,0x19,
0x24,0x00,0x18,0x24,0x5b,0x1a,0x24,0x00,0x16,0x24,0x54,0x1a,0x24,0x00,0x15,0x24,
0x74,0x1d,0x24,0x00,0x14,0x24,0x5e,0x1d,0x24,0x00,0x15,0x24,0x59,0x1b,0x24,0x00,
0x14,0x24,0x72,0x1a,0x24,0x00,0x14,0x24,0x63,0x1e,0x24,0x00,0x14,0x1f,0x79,0x16,
0x1f,0x00,0x1a,0x1f,0x5f,0x16,0x1f,0x00,0x01,0x1f,0x4a,0x16,0x1f,0x00,0x01,0x1f,
0x5b,0x1f,0x1f,0x00,0x11,0x1f,0x77,0x1b,0x1f,0x00,0x15,0x1f,0x5c,0x1f,0x1f,0x00,
0x14,0x1f,0x4f,0x1a,0x1f,0x00,0x16,0x1f,0x72,0x17,0x1f,0x00,0x17,0x1f,0x61,0x1f,
0x1f,0x00,0x11,0x1f,0x7d,0x1e,0x1f,0x00,0x14,0x1f,0x60,0x18,0x1f,0x00,0x17,0x1f,
0x5b,0x1d,0x1f,0x00,0x12,0x1f,0x73,0x1c,0x1f,0x00,0x16,0x1f,0x5f,0x1d,0x1f,0x00,
0x13,0x1f,0x78,0x18,0x1f,0x00,0x17,0x1f,0x60,0x1a,0x1f,0x00,0x15,0x1f,0x7a,0x1d,
0x1f,0x00,0x12,0x1c,0x6d,0x16,0x1c,0x00,0x1b,0x1c,0x54,0x19,0x1c,0x00,0x18,0x1c,
0x5b,0x1e,0x1c,0x00,0x10,0x1c,0x72,0x1b,0x1c,0x00,0x15,0x1c,0x59,0x1c,0x1c,0x00,
0x14,0x1c,0x74,0x1f,0x1c,0x00,0x13,0x1c,0x5e,0x1f,0x1c,0x00,0x11,0x1c,0x6f,0x18,
0x1c,0x00,0x16,0x24,0x75,0x17,0x24,0x00,0x1c,0x24,0x56,0x1f,0x24,0x00,0x11,0x24,
0x59,0x18,0x24,0x00,0x15,0x24,0x70,0x1a,0x24,0x00,0x17,0x24,0x61,0x1c,0x24,0x00,
0x13,0x24,0x5c,0x16,0x24,0x00,0x1a,0x24,0x77,0x1a,0x24,0x00,0x18,0x24,0x58,0x1e,
0x24,0x00,0x11,0x1f,0x74,0x19,0x1f,0x00,0x16,0x1f,0x5b,0x16,0x1f,0x00,0x1c,0x1f,
0x76,0x1d,0x1f,0x00,0x14,0x1f,0x5a,0x15,0x1f,0x00,0x01,0x1f,0x51,0x16,0x1f,0x00,
0x01,0x1f,0x65,0x18,0x1f,0x00,0x19,0x1f,0x5d,0x19,0x1f,0x00,0x18,0x1f,0x6d,0x1d,
0x1f,0x00,0x13,0x1f,0x5b,0x1c,0x1f,0x00,0x14,0x1f,0x72,0x17,0x1f,0x00,0x17,0x1f,
0x55,0x1e,0x1f,0x00,0x13,0x1f,0x62,0x16,0x1f,0x00,0x01,0x1f,0x54,0x17,0x1f,0x00,
0x03,0x1f,0x6f,0x1d,0x1f,0x00,0x12,0x1f,0x55,0x16,0x1f,0x00,0x1a,0x1f,0x60,0x1d,
0x1f,0x00,0x12,0x1f,0x57,0x1d,0x1f,0x00,0x16,0x1f,0x55,0x1d,0x1f,0x00,0x10,0x1c,
0x61,0x14,0xb1,0x0b,0x7d,0x0a,0x0b,0x7b,0x01,0x91,0x1c,0x00,0x14,0x1c,0x54,0x1b,
0x1c,0x00,0x01,0xb1,0x0b,0x79,0x13,0x91,0x1c,0x5a,0x19,0x1c,0x00,0x16,0x1c,0x59,
0x12,0xb1,0x0b,0x77,0x07,0x91,0x1c,0x00,0x19,0x1c,0x5b,0x19,0x1c,0x00,0x16,0x1c,
0x5a,0x19,0x1c,0x00,0x02,0xb1,0x0b,0x75,0x14,0x91,0x1c,0x5d,0x1a,0xb1,0x0b,0x73,
0x01,0x91,0x1c,0x00,0x17,0x1c,0x55,0x15,0xb1,0x0b,0x71,0x03,0x91,0x1c,0x00,0x07,
0xb1,0x0b,0x6f,0x0a,0x0b,0x6d,0x05,0x91,0x24,0x5a,0x03,0xb1,0x0b,0x6b,0x08,0x0b,
0x69,0x0e,0x91,0x24,0x00,0x0b,0xb1,0x0b,0x67,0x0c,0x91,0x24,0x63,0x0d,0xb1,0x0b,
0x65,0x0c,0x91,0x24,0x00,0x12,0xb1,0x0b,0x63,0x04,0x91,0x24,0x5d,0x1e,0x24,0x00,
0x03,0xb1,0x0b,0x61,0x11,0x91,0x24,0x5c,0x09,0xb1,0x0b,0x5f,0x18,0x91,0x24,0x00,
0x10,0x24,0x55,0x1e,0x24,0x00,0x01,0xb1,0x0b,0x5d,0x10,0x91,0x24,0x53,0x1f,0x24,
0x00,0x00,0xb1,0x0b,0x5b,0x10,0x91,0x24,0x60,0x16,0x24,0x00,0x19,0x24,0x63,0x09,
0xb1,0x0b,0x59,0x15,0x91,0x24,0x00,0x12,0x1f,0x62,0x02,0xb1,0x0b,0x57,0x14,0x91,
0x1f,0x00,0x1d,0x1f,0x59,0x03,0xb1,0x0b,0x55,0x16,0x0b,0x53,0x06,0x91,0x1f,0x00,
0x0c,0x1f,0x64,0x1e,0xb1,0x0b,0x51,0x04,0x91,0x1f,0x00,0x10,0xb1,0x0b,0x4f,0x03,
0x91,0x1f,0x55,0x15,0xb1,0x0b,0x4d,0x04,0x91,0x1f,0x00,0x14,0x1f,0x65,0x02,0xb1,
0x0b,0x4b,0x13,0x0b,0x49,0x02,0x91,0x1f,0x00,0x1a,0x1f,0x5a,0x17,0x1f,0x00,0x03,
0x1f,0x5a,0x06,0xb1,0x0b,0x47,0x10,0x91,0x1f,0x00,0x01,0x1f,0x63,0x1f,0x1f,0x00,
0x04,0xb1,0x0b,0x45,0x0c,0x91,0x1f,0x61,0x0f,0xb1,0x0b,0x43,0x0e,0x91,0x1f,0x00,
0x14,0x1f,0x5b,0x09,0xb1,0x0b,0x41,0x10,0x91,0x1f,0x00,0x18,0xb1,0x0b,0x3f,0x00,
0x91,0x1f,0x55,0x1e,0x1f,0x00,0x05,0xb1,0x0b,0x3d,0x0b,0x91,0x1f,0x66,0x18,0x1f,
0x00,0x05,0xb1,0x0b,0x3b,0x11,0x91,0x1f,0x60,0x0f,0xb1,0x0b,0x39,0x08,0x91,0x1f,
0x00,0x08,0xb1,0x0b,0x37,0x13,0x91,0x1f,0x55,0x04,0xb1,0x0b,0x35,0x13,0x91,0x1f,
0x00,0x02,0xb1,0x0b,0x33,0x00,0x91,0x1f,0x5c,0x0d,0xb1,0x0b,0x31,0x09,0x91,0x1f,
0x00,0x01,0x1f,0x66,0x04,0xb1,0x0b,0x2f,0x0b,0x0b,0x2d,0x0e,0x91,0x1f,0x00,0x0f,
0xb1,0x0b,0x2b,0x05,0x91,0x1f,0x65,0x0e,0xb1,0x0b,0x29,0x09,0x0b,0x27,0x02,0x91,
0x1f,0x00,0x0b,0xb1,0x0b,0x25,0x0b,0x91,0x1f,0x63,0x01,0xb1,0x0b,0x23,0x12,0x0b,
0x21,0x07,0x91,0x1f,0x00,0x02,0xb1,0x0b,0x1f,0x0f,0x0b,0x1d,0x04,0x91,0x1c,0x56,
0x08,0xb1,0x0b,0x1b,0x0a,0x0b,0x19,0x06,0x91,0x1c,0x00,0x03,0xb1,0x0b,0x17,0x12,
0x0b,0x15,0x06,0x91,0x1c,0x63,0x0e,0xb1,0x0b,0x13,0x09,0x91,0x1c,0x00,0x03,0xb1,
0x0b,0x11,0x0c,0x0b,0x0f,0x07,0x91,0x1c,0x53,0x03,0xb1,0x0b,0x0d,0x09,0x0b,0x0b,
0x0c,0x0b,0x09,0x06,0x91,0x1c,0x00,0x0c,0xb1,0x0b,0x05,0x06,0x91,0x1c,0x54,0x0c,
0xb1,0x0b,0x00,0x10,0x91,0x1c,0x00,0x15,0x1c,0x5f,0x1b,0x1c,0x00,0x16,0x1c,0x53,
0x1b,0x1c,0x00,0x15,0x1c,0x55,0x1f,0x1c,0x00,0x10,0x1c,0x57,0x19,0x1c,0x00,0x00,
0xff,0x2f,0x00,0x4d,0x54,0x72,0x6b,0x00,0x00,0x00,0x9c,0x00,0xff,0x21,0x01,0x00,
0x00,0xb2,0x00,0x00,0x00,0xc2,0x63,0x00,0xb2,0x07,0x64,0x00,0xb2,0x5b,0x64,0x00,
0x5d,0x00,0x6d,0x0b,0x7f,0x81,0x81,0x54,0x92,0x46,0x78,0x81,0x35,0x46,0x00,0x09,
0x45,0x72,0x81,0x3f,0x45,0x00,0x00,0x43,0x79,0x81,0x2d,0x43,0x00,0x81,0x55,0x48,
0x75,0x81,0x3e,0x48,0x00,0x01,0x46,0x7d,0x81,0x3e,0x46,0x00,0x01,0x45,0x73,0x81,
0x2d,0x45,0x00,0x81,0x55,0x46,0x7e,0x81,0x3f,0x46,0x00,0x02,0x45,0x72,0x81,0x3e,
0x45,0x00,0x01,0x43,0x7b,0x81,0x34,0x43,0x00,0x81,0x4b,0x48,0x77,0x81,0x3e,0x48,
0x00,0x03,0x46,0x74,0x81,0x3d,0x46,0x00,0x02,0x45,0x75,0x81,0x3d,0x45,0x00,0x81,
0x42,0x46,0x7b,0x81,0x2b,0x46,0x00,0x17,0x45,0x73,0x81,0x39,0x45,0x00,0x07,0x43,
0x74,0x81,0x30,0x43,0x00,0x0f,0x43,0x72,0x81,0x40,0x43,0x00,0x00,0x4f,0x77,0x84,
0x3f,0x4f,0x00,0x00,0xff,0x2f,0x00,0x4d,0x54,0x72,0x6b,0x00,0x00,0x16,0x4f,0x00,
0xff,0x21,0x01,0x00,0x00,0xb3,0x00,0x00,0x00,0xc3,0x48,0x00,0xb3,0x07,0x7b,0x00,
0xb3,0x0a,0x3f,0x00,0xb3,0x5b,0x5a,0x00,0x5d,0x14,0x72,0x0b,0x7f,0x9d,0x6b,0xe3,
0x00,0x12,0x02,0x93,0x47,0x5f,0x02,0xe3,0x00,0x16,0x0d,0x00,0x21,0x06,0x00,0x31,
0x04,0x00,0x37,0x04,0x00,0x3c,0x04,0x00,0x40,0x10,0x00,0x60,0x2b,0x93,0x47,0x00,
0x04,0xe3,0x00,0x40,0x01,0x93,0x47,0x5a,0x5b,0x47,0x00,0x06,0x45,0x5c,0x2e,0xe3,
0x00,0x00,0x15,0x93,0x45,0x00,0x1b,0xe3,0x00,0x40,0x01,0x93,0x43,0x56,0x81,0x1a,
0xb3,0x01,0x03,0x09,0x01,0x06,0x09,0x01,0x18,0x09,0x01,0x25,0x09,0x01,0x2f,0x09,
0x01,0x3c,0x09,0x01,0x58,0x0e,0x01,0x60,0x09,0x01,0x64,0x35,0x93,0x43,0x00,0x6e,
0xb3,0x01,0x3b,0x09,0x01,0x26,0x09,0x01,0x0e,0x09,0x01,0x00,0x39,0xe3,0x00,0x19,
0x02,0x93,0x47,0x5b,0x04,0xe3,0x00,0x1e,0x04,0x00,0x26,0x05,0x00,0x30,0x04,0x00,
0x36,0x05,0x00,0x39,0x03,0x00,0x3b,0x04,0x00,0x40,0x12,0x00,0x60,0x2f,0x00,0x40,
0x4b,0x00,0x60,0x0c,0x00,0x40,0x08,0x93,0x47,0x00,0x02,0x45,0x57,0x30,0xe3,0x00,
0x00,0x16,0x93,0x45,0x00,0x1a,0xe3,0x00,0x40,0x01,0x93,0x43,0x54,0x81,0x4b,0xb3,
0x01,0x08,0x09,0x01,0x10,0x09,0x01,0x16,0x09,0x01,0x2d,0x09,0x01,0x34,0x09,0x01,
0x4d,0x09,0x01,0x51,0x09,0x01,0x61,0x11,0x93,0x43,0x00,0x6e,0xb3,0x01,0x23,0x09,
0x01,0x00,0x1e,0x93,0x43,0x5a,0x14,0x43,0x00,0x1b,0x43,0x54,0x13,0x43,0x00,0x1d,
0xe3,0x00,0x0d,0x01,0x93,0x47,0x6c,0x04,0xe3,0x00,0x15,0x04,0x00,0x24,0x04,0x00,
0x28,0x07,0x00,0x30,0x04,0x00,0x32,0x07,0x00,0x39,0x04,0x00,0x3d,0x0c,0x00,0x40,
0x2f,0x93,0x47,0x00,0x01,0x48,0x57,0x5a,0x48,0x00,0x06,0x43,0x63,0x26,0x43,0x00,
0x3b,0x43,0x53,0x1a,0x43,0x00,0x16,0x43,0x4c,0x13,0x43,0x00,0x0f,0xe3,0x00,0x3f,
0x0b,0x00,0x08,0x02,0x93,0x48,0x6c,0x02,0xe3,0x00,0x0b,0x04,0x00,0x14,0x04,0x00,
0x1d,0x04,0x00,0x29,0x06,0x00,0x35,0x04,0x00,0x3c,0x04,0x00,0x40,0x43,0x93,0x48,
0x00,0x01,0x47,0x59,0x48,0xe3,0x00,0x60,0x0e,0x00,0x40,0x06,0x93,0x47,0x00,0x05,
0x45,0x53,0x30,0x45,0x00,0x32,0x45,0x56,0x13,0x45,0x00,0x1d,0x43,0x51,0x18,0x43,
0x00,0x16,0xe3,0x00,0x0c,0x01,0x93,0x47,0x69,0x04,0xe3,0x00,0x0d,0x04,0x00,0x19,
0x05,0x00,0x24,0x04,0x00,0x2a,0x04,0x00,0x31,0x04,0x00,0x39,0x04,0x00,0x40,0x40,
0x93,0x47,0x00,0x02,0x43,0x48,0x24,0x43,0x00,0x3b,0x43,0x56,0x81,0x33,0xb3,0x01,
0x05,0x09,0x01,0x0d,0x09,0x01,0x13,0x09,0x01,0x18,0x09,0x01,0x1d,0x09,0x01,0x23,
0x0a,0x01,0x44,0x09,0x01,0x55,0x09,0x01,0x63,0x30,0x93,0x43,0x00,0x06,0xb3,0x01,
0x59,0x0a,0x01,0x5c,0x0d,0x01,0x5e,0x0d,0x01,0x61,0x09,0x01,0x62,0x09,0x01,0x66,
0x12,0x01,0x61,0x0a,0x01,0x54,0x09,0x01,0x36,0x09,0x01,0x1d,0x09,0x01,0x00,0x6f,
0xe3,0x00,0x1d,0x04,0x93,0x47,0x56,0x0f,0xe3,0x00,0x20,0x07,0x00,0x2d,0x04,0x00,
0x34,0x07,0x00,0x40,0x0e,0x00,0x60,0x2b,0x93,0x47,0x00,0x05,0xe3,0x00,0x40,0x01,
0x93,0x47,0x5a,0x5c,0x47,0x00,0x04,0x45,0x53,0x2f,0xe3,0x00,0x00,0x11,0x93,0x45,
0x00,0x16,0xe3,0x00,0x3e,0x09,0x00,0x21,0x01,0x93,0x47,0x5c,0x05,0xe3,0x00,0x15,
0x07,0x00,0x16,0x04,0x00,0x1a,0x04,0x00,0x22,0x07,0x00,0x2d,0x07,0x00,0x36,0x04,
0x00,0x38,0x0c,0x00,0x3f,0x0a,0x00,0x40,0x57,0xb3,0x01,0x03,0x09,0x01,0x0a,0x09,
0x01,0x13,0x09,0x01,0x1d,0x09,0x01,0x25,0x09,0x01,0x2b,0x09,0x01,0x33,0x09,0x01,
0x36,0x12,0x01,0x39,0x09,0x01,0x3b,0x09,0x01,0x40,0x09,0x01,0x44,0x09,0x01,0x47,
0x0e,0x01,0x4b,0x0d,0x01,0x4e,0x09,0x01,0x4f,0x03,0x93,0x47,0x00,0x06,0xb3,0x01,
0x51,0x09,0x01,0x54,0x0e,0x01,0x57,0x09,0x01,0x5e,0x09,0x01,0x64,0x09,0x01,0x57,
0x09,0x01,0x2b,0x0a,0x01,0x00,0x62,0xe3,0x00,0x1b,0x03,0x93,0x47,0x54,0x02,0xe3,
0x00,0x1c,0x0e,0x00,0x2b,0x04,0x00,0x31,0x07,0x00,0x3b,0x04,0x00,0x40,0x0f,0x00,
0x60,0x30,0x00,0x40,0x5e,0x93,0x47,0x00,0x04,0x45,0x56,0x1b,0xe3,0x00,0x7f,0x0b,
0x00,0x40,0x0a,0x00,0x00,0x17,0x93,0x45,0x00,0x18,0xe3,0x00,0x1b,0x03,0x93,0x43,
0x5c,0x01,0xe3,0x00,0x11,0x09,0x00,0x1a,0x04,0x00,0x21,0x06,0x00,0x34,0x04,0x00,
0x3b,0x04,0x00,0x40,0x81,0x07,0xb3,0x01,0x0a,0x09,0x01,0x0e,0x09,0x01,0x11,0x09,
0x01,0x16,0x09,0x01,0x1e,0x09,0x01,0x23,0x09,0x01,0x26,0x09,0x01,0x29,0x09,0x01,
0x30,0x0a,0x01,0x36,0x09,0x01,0x3c,0x09,0x01,0x41,0x09,0x01,0x44,0x12,0x01,0x46,
0x09,0x01,0x49,0x09,0x01,0x4c,0x03,0x93,0x43,0x00,0x06,0xb3,0x01,0x51,0x09,0x01,
0x56,0x09,0x01,0x61,0x09,0x01,0x67,0x1b,0x01,0x53,0x09,0x01,0x31,0x09,0x01,0x00,
0x2a,0x93,0x43,0x4c,0x13,0x43,0x00,0x1d,0x43,0x58,0x18,0x43,0x00,0x0f,0xe3,0x00,
0x27,0x07,0x93,0x47,0x69,0x02,0xe3,0x00,0x18,0x13,0x00,0x38,0x04,0x00,0x40,0x46,
0x93,0x47,0x00,0x01,0x48,0x5b,0x60,0x48,0x00,0x02,0x43,0x57,0x20,0x43,0x00,0x3e,
0x43,0x51,0x1c,0x43,0x00,0x15,0x43,0x56,0x18,0x43,0x00,0x0f,0xe3,0x00,0x38,0x0a,
0x93,0x48,0x69,0x01,0xe3,0x00,0x18,0x0e,0x00,0x2a,0x07,0x00,0x34,0x05,0x00,0x3a,
0x04,0x00,0x40,0x3e,0x93,0x48,0x00,0x01,0x47,0x58,0x4d,0xe3,0x40,0x60,0x0a,0x00,
0x40,0x08,0x93,0x47,0x00,0x02,0x45,0x58,0x24,0x45,0x00,0x3d,0x45,0x4f,0x1c,0x45,
0x00,0x14,0x43,0x4d,0x17,0x43,0x00,0x11,0xe3,0x00,0x35,0x05,0x00,0x23,0x03,0x93,
0x47,0x63,0x02,0xe3,0x00,0x11,0x09,0x00,0x22,0x04,0x00,0x2b,0x07,0x00,0x3a,0x04,
0x00,0x40,0x2e,0x00,0x60,0x0c,0x00,0x40,0x09,0x93,0x47,0x00,0x01,0x43,0x57,0x24,
0x43,0x00,0x3f,0x43,0x56,0x81,0x27,0xb3,0x01,0x03,0x09,0x01,0x05,0x0d,0x01,0x0b,
0x09,0x01,0x13,0x0a,0x01,0x19,0x09,0x01,0x21,0x09,0x01,0x29,0x09,0x01,0x2e,0x09,
0x01,0x34,0x09,0x01,0x3b,0x09,0x01,0x40,0x09,0x01,0x41,0x09,0x01,0x43,0x09,0x01,
0x49,0x05,0x93,0x43,0x00,0x09,0xb3,0x01,0x4f,0x09,0x01,0x54,0x0d,0x01,0x56,0x09,
0x01,0x57,0x09,0x01,0x59,0x12,0x01,0x53,0x09,0x01,0x4e,0x09,0x01,0x40,0x09,0x01,
0x20,0x0a,0x01,0x00,0x47,0xe3,0x00,0x3f,0x04,0x00,0x36,0x05,0x00,0x2a,0x05,0x00,
0x1b,0x28,0x00,0x20,0x04,0x93,0x43,0x5a,0x01,0xe3,0x00,0x23,0x0f,0x00,0x33,0x04,
0x00,0x39,0x04,0x00,0x40,0x48,0x93,0x43,0x00,0x01,0x47,0x56,0x56,0x47,0x00,0x08,
0x4a,0x58,0x2b,0x4a,0x00,0x04,0x47,0x4d,0x14,0x47,0x00,0x1a,0xe3,0x00,0x0e,0x04,
0x93,0x4c,0x5e,0x04,0xe3,0x00,0x11,0x04,0x00,0x19,0x05,0x00,0x23,0x04,0x00,0x2a,
0x05,0x00,0x31,0x03,0x00,0x38,0x04,0x00,0x3d,0x05,0x00,0x40,0x64,0xb3,0x01,0x0d,
0x09,0x01,0x18,0x09,0x01,0x1b,0x09,0x01,0x20,0x09,0x01,0x26,0x09,0x01,0x30,0x0a,
0x01,0x36,0x09,0x01,0x3b,0x09,0x01,0x3e,0x09,0x01,0x43,0x09,0x01,0x49,0x09,0x01,
0x4f,0x09,0x01,0x56,0x0e,0x01,0x57,0x09,0x01,0x5a,0x09,0x01,0x5e,0x0d,0x93,0x4c,
0x00,0x05,0xb3,0x01,0x5f,0x09,0x01,0x62,0x09,0x01,0x66,0x09,0x01,0x6c,0x09,0x01,
0x72,0x09,0x01,0x79,0x09,0x01,0x64,0x09,0x01,0x33,0x0a,0x01,0x00,0x41,0x93,0x48,
0x55,0x2f,0x48,0x00,0x02,0x4c,0x55,0x16,0x4c,0x00,0x1a,0x4c,0x58,0x18,0x4c,0x00,
0x13,0xe3,0x00,0x32,0x04,0x93,0x4a,0x56,0x03,0xe3,0x00,0x0e,0x09,0x00,0x14,0x06,
0x00,0x29,0x07,0x00,0x36,0x04,0x00,0x3c,0x04,0x00,0x40,0x29,0x00,0x7f,0x0c,0x00,
0x40,0x08,0x93,0x4a,0x00,0x01,0x43,0x51,0x17,0x43,0x00,0x1c,0x47,0x54,0x81,0x16,
0xb3,0x01,0x03,0x09,0x01,0x0a,0x09,0x01,0x10,0x09,0x01,0x15,0x09,0x01,0x1e,0x09,
0x01,0x26,0x09,0x01,0x2c,0x09,0x01,0x30,0x09,0x01,0x31,0x09,0x01,0x36,0x0a,0x01,
0x3b,0x09,0x01,0x43,0x09,0x01,0x46,0x09,0x01,0x47,0x0d,0x01,0x4e,0x09,0x01,0x53,
0x09,0x01,0x57,0x0a,0x01,0x5e,0x09,0x01,0x62,0x09,0x01,0x66,0x09,0x01,0x6c,0x09,
0x01,0x75,0x09,0x01,0x7a,0x12,0x01,0x77,0x09,0x01,0x66,0x01,0x93,0x47,0x00,0x08,
0xb3,0x01,0x36,0x09,0x01,0x00,0x7f,0x93,0x4f,0x66,0x2e,0x4f,0x00,0x01,0x4c,0x48,
0x14,0x4c,0x00,0x1a,0xe3,0x00,0x18,0x04,0x93,0x4f,0x63,0x07,0xe3,0x00,0x15,0x04,
0x00,0x1b,0x04,0x00,0x25,0x06,0x00,0x33,0x07,0x00,0x40,0x34,0x93,0x4f,0x00,0x0e,
0x4f,0x5e,0x2f,0x4f,0x00,0x04,0x4c,0x49,0x0f,0x4c,0x00,0x1c,0xe3,0x00,0x17,0x02,
0x93,0x4f,0x5c,0x02,0xe3,0x00,0x12,0x06,0x00,0x13,0x04,0x00,0x18,0x04,0x00,0x24,
0x06,0x00,0x39,0x04,0x00,0x3d,0x06,0x00,0x7f,0x09,0x00,0x40,0x06,0x93,0x4f,0x00,
0x04,0x4a,0x46,0x2c,0x4a,0x00,0x01,0x4c,0x57,0x64,0xb3,0x01,0x04,0x09,0x01,0x0e,
0x09,0x01,0x15,0x09,0x01,0x1d,0x09,0x01,0x31,0x09,0x01,0x3c,0x0a,0x01,0x49,0x09,
0x01,0x50,0x09,0x01,0x57,0x09,0x01,0x5c,0x09,0x01,0x5b,0x05,0x93,0x4c,0x00,0x04,
0xb3,0x01,0x4b,0x21,0x01,0x5f,0x09,0x01,0x74,0x09,0x01,0x67,0x0a,0x01,0x6c,0x09,
0x01,0x59,0x09,0x01,0x29,0x09,0x01,0x00,0x31,0x93,0x4c,0x56,0x2b,0x4c,0x00,0x04,
0x51,0x60,0x1e,0x51,0x00,0x13,0x51,0x5b,0x17,0x51,0x00,0x11,0xe3,0x00,0x2b,0x05,
0x00,0x11,0x04,0x00,0x02,0x01,0x93,0x4e,0x65,0x05,0xe3,0x00,0x04,0x07,0x00,0x11,
0x04,0x00,0x1a,0x04,0x00,0x21,0x06,0x00,0x30,0x05,0x00,0x37,0x06,0x00,0x40,0x39,
0x93,0x4e,0x00,0x02,0x4c,0x5b,0x2d,0xe3,0x00,0x00,0x16,0x93,0x4c,0x00,0x14,0xe3,
0x00,0x37,0x04,0x00,0x25,0x03,0x93,0x4a,0x54,0x03,0xe3,0x00,0x16,0x05,0x00,0x18,
0x04,0x00,0x22,0x04,0x00,0x2b,0x06,0x00,0x34,0x07,0x00,0x3c,0x04,0x00,0x3e,0x05,
0x00,0x40,0x64,0xb3,0x01,0x03,0x09,0x01,0x08,0x09,0x01,0x0d,0x09,0x01,0x13,0x09,
0x01,0x18,0x09,0x01,0x1e,0x09,0x01,0x36,0x0a,0x01,0x51,0x4a,0x93,0x4a,0x00,0x19,
0xb3,0x01,0x5c,0x09,0x01,0x61,0x09,0x01,0x66,0x09,0x01,0x67,0x0e,0x01,0x59,0x09,
0x01,0x46,0x09,0x01,0x2b,0x09,0x01,0x00,0x46,0xe3,0x00,0x3d,0x07,0x00,0x2e,0x07,
0x00,0x22,0x04,0x00,0x1d,0x05,0x00,0x1b,0x12,0x93,0x47,0x63,0x03,0xe3,0x00,0x1e,
0x05,0x00,0x22,0x08,0x00,0x27,0x04,0x00,0x2e,0x07,0x00,0x40,0x16,0x00,0x60,0x30,
0x00,0x40,0x56,0x93,0x47,0x00,0x0a,0x45,0x57,0x30,0xe3,0x00,0x00,0x17,0x93,0x45,
0x00,0x18,0xe3,0x00,0x15,0x01,0x93,0x43,0x57,0x04,0xe3,0x00,0x10,0x04,0x00,0x18,
0x05,0x00,0x22,0x04,0x00,0x29,0x04,0x00,0x32,0x04,0x00,0x3a,0x04,0x00,0x40,0x81,
0x0b,0xb3,0x01,0x05,0x09,0x01,0x0d,0x09,0x01,0x13,0x09,0x01,0x18,0x09,0x01,0x1d,
0x09,0x01,0x20,0x09,0x01,0x25,0x09,0x01,0x2b,0x0a,0x01,0x30,0x09,0x01,0x36,0x09,
0x01,0x3b,0x0d,0x01,0x3e,0x09,0x01,0x41,0x0a,0x01,0x44,0x03,0x93,0x43,0x00,0x06,
0xb3,0x01,0x49,0x09,0x01,0x4c,0x12,0x01,0x4f,0x09,0x01,0x53,0x09,0x01,0x56,0x09,
0x01,0x5a,0x0d,0x01,0x53,0x0a,0x01,0x34,0x09,0x01,0x00,0x29,0xe3,0x00,0x3d,0x07,
0x00,0x33,0x04,0x00,0x2e,0x07,0x00,0x25,0x04,0x00,0x22,0x05,0x00,0x20,0x05,0x00,
0x1e,0x13,0x93,0x47,0x5a,0x08,0xe3,0x00,0x21,0x04,0x00,0x23,0x04,0x00,0x26,0x06,
0x00,0x30,0x04,0x00,0x38,0x04,0x00,0x40,0x11,0x00,0x60,0x33,0x00,0x40,0x48,0x00,
0x60,0x0d,0x00,0x40,0x08,0x93,0x47,0x00,0x02,0x45,0x57,0x2f,0xe3,0x00,0x00,0x18,
0x93,0x45,0x00,0x08,0xe3,0x00,0x3e,0x04,0x00,0x32,0x06,0x00,0x13,0x04,0x00,0x10,
0x02,0x93,0x43,0x59,0x0e,0xe3,0x00,0x1b,0x04,0x00,0x24,0x04,0x00,0x27,0x07,0x00,
0x32,0x04,0x00,0x37,0x07,0x00,0x40,0x6b,0xb3,0x01,0x03,0x09,0x01,0x08,0x09,0x01,
0x0e,0x09,0x01,0x13,0x0a,0x01,0x19,0x09,0x01,0x20,0x09,0x01,0x25,0x09,0x01,0x28,
0x09,0x01,0x2b,0x09,0x01,0x30,0x09,0x01,0x34,0x09,0x01,0x39,0x09,0x01,0x3c,0x09,
0x01,0x3e,0x09,0x01,0x40,0x09,0x01,0x41,0x07,0x93,0x43,0x00,0x02,0xb3,0x01,0x44,
0x09,0x01,0x46,0x09,0x01,0x49,0x09,0x01,0x4c,0x0e,0x01,0x4f,0x09,0x01,0x54,0x09,
0x01,0x59,0x0d,0x01,0x4c,0x0a,0x01,0x29,0x09,0x01,0x00,0x34,0x93,0x43,0x51,0x17,
0x43,0x00,0x19,0x43,0x56,0x17,0x43,0x00,0x0a,0xe3,0x00,0x3d,0x07,0x00,0x22,0x04,
0x00,0x1d,0x01,0x93,0x47,0x67,0x0a,0xe3,0x00,0x1e,0x07,0x00,0x29,0x08,0x00,0x36,
0x04,0x00,0x3c,0x04,0x00,0x40,0x3e,0x93,0x47,0x00,0x01,0x48,0x5c,0x5f,0x48,0x00,
0x04,0x43,0x5a,0x1f,0x43,0x00,0x3f,0x43,0x52,0x1a,0x43,0x00,0x17,0x43,0x54,0x17,
0x43,0x00,0x07,0xe3,0x00,0x3f,0x06,0x00,0x2a,0x04,0x00,0x26,0x09,0x93,0x48,0x64,
0x0a,0xe3,0x00,0x2e,0x04,0x00,0x36,0x04,0x00,0x3b,0x06,0x00,0x40,0x2f,0x00,0x7e,
0x0c,0x00,0x40,0x0c,0x00,0x20,0x5b,0x93,0x48,0x00,0x04,0xe3,0x00,0x40,0x01,0x93,
0x45,0x55,0x28,0x45,0x00,0x37,0x45,0x59,0x17,0x45,0x00,0x18,0x43,0x59,0x17,0x43,
0x00,0x0a,0xe3,0x00,0x30,0x07,0x00,0x00,0x0b,0x93,0x47,0x6b,0x00,0xe3,0x00,0x10,
0x08,0x00,0x20,0x07,0x00,0x2b,0x04,0x00,0x31,0x07,0x00,0x40,0x42,0x93,0x47,0x00,
0x04,0x43,0x5a,0x1f,0x43,0x00,0x23,0xe3,0x00,0x29,0x04,0x00,0x1e,0x04,0x00,0x17,
0x0e,0x00,0x1e,0x07,0x93,0x43,0x6a,0x00,0xe3,0x00,0x2e,0x04,0x00,0x33,0x04,0x00,
0x36,0x04,0x00,0x37,0x0c,0x00,0x40,0x81,0x0d,0xb3,0x01,0x03,0x09,0x01,0x08,0x09,
0x01,0x0e,0x09,0x01,0x13,0x09,0x01,0x1b,0x09,0x01,0x25,0x09,0x01,0x2b,0x09,0x01,
0x31,0x0a,0x01,0x36,0x09,0x01,0x39,0x09,0x01,0x3b,0x09,0x01,0x3e,0x0d,0x01,0x43,
0x09,0x01,0x44,0x09,0x01,0x47,0x04,0x93,0x43,0x00,0x05,0xb3,0x01,0x4b,0x09,0x01,
0x4e,0x0a,0x01,0x51,0x09,0x01,0x56,0x09,0x01,0x5a,0x09,0x01,0x5f,0x12,0x01,0x4e,
0x09,0x01,0x28,0x09,0x01,0x00,0x82,0x51,0x0b,0x78,0x01,0x5d,0x71,0x81,0x0a,0x93,
0x4f,0x48,0x11,0x4f,0x00,0x21,0x4f,0x58,0x13,0x4f,0x00,0x1b,0xe3,0x00,0x25,0x01,
0x93,0x4f,0x6b,0x04,0xe3,0x00,0x29,0x04,0x00,0x2f,0x05,0x00,0x34,0x04,0x00,0x39,
0x05,0x00,0x40,0x10,0xb3,0x01,0x3f,0x13,0x01,0x6d,0x0b,0x93,0x4f,0x00,0x14,0xb3,
0x01,0x00,0x07,0x93,0x4d,0x4f,0x10,0x4d,0x00,0x21,0x4d,0x5b,0x0f,0x4d,0x00,0x20,
0x4d,0x66,0x44,0x4d,0x00,0x1d,0x4d,0x55,0x1c,0x4d,0x00,0x44,0x4f,0x62,0x3f,0xb3,
0x01,0x29,0x09,0x01,0x61,0x0a,0x01,0x7f,0x1a,0x01,0x00,0x20,0x93,0x4f,0x00,0x04,
0x4d,0x43,0x17,0x4d,0x00,0x17,0x4d,0x54,0x20,0x4d,0x00,0x42,0x4d,0x4b,0x17,0x4d,
0x00,0x19,0x4d,0x5a,0x12,0x4d,0x00,0x1f,0x4d,0x53,0x0c,0x4d,0x00,0x1f,0xe3,0x00,
0x1f,0x04,0x93,0x4d,0x5f,0x04,0xe3,0x00,0x26,0x04,0x00,0x2b,0x05,0x00,0x2f,0x04,
0x00,0x34,0x07,0x00,0x40,0x14,0x93,0x4d,0x00,0x03,0x4a,0x5a,0x0f,0x4a,0x00,0x20,
0x48,0x48,0x13,0x48,0x00,0x1f,0x4d,0x5e,0x35,0xb3,0x01,0x49,0x09,0x01,0x7f,0x0a,
0xe3,0x00,0x7f,0x08,0xb3,0x01,0x00,0x03,0xe3,0x00,0x40,0x0a,0x93,0x4d,0x00,0x04,
0x4a,0x43,0x34,0x4a,0x00,0x2a,0xe3,0x00,0x14,0x01,0x93,0x4d,0x60,0x04,0xe3,0x00,
0x1e,0x07,0x00,0x31,0x04,0x00,0x39,0x04,0x00,0x40,0x1f,0xb3,0x01,0x1d,0x09,0x01,
0x56,0x09,0x01,0x77,0x09,0x01,0x7d,0x04,0x93,0x4d,0x00,0x06,0xb3,0x01,0x00,0x07,
0x93,0x4d,0x5c,0x22,0x4d,0x00,0x3e,0x4d,0x59,0x16,0x4d,0x00,0x33,0xe3,0x00,0x23,
0x19,0x93,0x4b,0x47,0x03,0xe3,0x00,0x2a,0x05,0x00,0x2f,0x04,0x40,0x34,0x05,0x00,
0x3b,0x04,0x00,0x40,0x19,0x93,0x4b,0x00,0x03,0x4d,0x56,0x12,0x4d,0x00,0x1d,0x4d,
0x59,0x12,0x4d,0x00,0x1e,0xe3,0x00,0x0d,0x01,0x93,0x4d,0x66,0x03,0xe3,0x00,0x16,
0x04,0x00,0x1b,0x05,0x00,0x26,0x04,0x00,0x29,0x08,0x00,0x39,0x04,0x00,0x40,0x24,
0x93,0x4d,0x00,0x1d,0x4d,0x59,0x12,0x4d,0x00,0x21,0x4d,0x56,0x0e,0x4d,0x00,0x21,
0x4d,0x5d,0x15,0x4d,0x00,0x19,0x4d,0x54,0x39,0x4d,0x00,0x1f,0xe3,0x00,0x1e,0x07,
0x00,0x00,0x03,0x93,0x4f,0x68,0x04,0xe3,0x00,0x01,0x04,0x00,0x0a,0x07,0x00,0x22,
0x04,0x00,0x2d,0x07,0x00,0x40,0x10,0xb3,0x01,0x15,0x0d,0x01,0x7f,0x14,0x01,0x00,
0x00,0xe3,0x00,0x7f,0x0b,0x00,0x40,0x06,0x93,0x4f,0x00,0x04,0x4a,0x57,0x3e,0xe3,
0x00,0x38,0x05,0x40,0x2d,0x04,0x00,0x25,0x05,0x00,0x1e,0x04,0x40,0x19,0x05,0x00,
0x16,0x04,0x93,0x4a,0x00,0x00,0xe3,0x00,0x14,0x06,0x00,0x40,0x02,0x93,0x48,0x4c,
0x28,0x48,0x00,0x37,0x48,0x50,0x2d,0x48,0x00,0x01,0x4d,0x62,0x1b,0x4d,0x00,0x17,
0x48,0x46,0x18,0x48,0x00,0x06,0xe3,0x00,0x36,0x04,0x00,0x23,0x06,0x00,0x0c,0x07,
0x93,0x4d,0x65,0x03,0xe3,0x00,0x0e,0x06,0x00,0x13,0x04,0x00,0x1a,0x07,0x00,0x28,
0x04,0x00,0x31,0x06,0x00,0x40,0x3a,0x93,0x4d,0x00,0x08,0x4a,0x52,0x2f,0xe3,0x00,
0x00,0x15,0x93,0x4a,0x00,0x19,0xe3,0x00,0x22,0x04,0x93,0x4d,0x63,0x04,0xe3,0x00,
0x26,0x04,0x00,0x29,0x05,0x00,0x2e,0x04,0x00,0x34,0x07,0x00,0x40,0x3b,0x93,0x4d,
0x00,0x0d,0x4a,0x51,0x17,0x4a,0x00,0x18,0x4d,0x62,0x3f,0xb3,0x01,0x31,0x09,0x01,
0x69,0x09,0x01,0x7f,0x1a,0x01,0x77,0x0a,0x01,0x39,0x09,0x01,0x00,0x02,0x93,0x4d,
0x00,0x0f,0x4d,0x58,0x17,0x4d,0x00,0x19,0x4d,0x5a,0x15,0x4d,0x00,0x4c,0x4a,0x55,
0x11,0x4a,0x00,0x1f,0x4d,0x5b,0x32,0x4d,0x00,0x2b,0xe3,0x00,0x19,0x04,0x93,0x4d,
0x62,0x03,0xe3,0x00,0x20,0x08,0x00,0x36,0x07,0x00,0x40,0x32,0x93,0x4d,0x00,0x1d,
0x4a,0x48,0x11,0x4a,0x00,0x1e,0x4d,0x63,0x81,0x09,0x4d,0x00,0x07,0x4a,0x48,0x14,
0x4a,0x00,0x1c,0x4d,0x66,0x81,0x0e,0x4d,0x00,0x02,0x4a,0x48,0x14,0x4a,0x00,0x18,
0xe3,0x00,0x16,0x04,0x93,0x4f,0x65,0x02,0xe3,0x00,0x14,0x08,0x00,0x19,0x06,0x00,
0x2e,0x04,0x00,0x34,0x04,0x00,0x3b,0x04,0x00,0x40,0x81,0x1f,0xb3,0x01,0x08,0x09,
0x01,0x0e,0x09,0x01,0x15,0x09,0x01,0x1d,0x09,0x01,0x26,0x09,0x01,0x2c,0x09,0x01,
0x30,0x05,0x0b,0x7d,0x04,0x01,0x33,0x09,0x01,0x36,0x08,0x0b,0x7c,0x02,0x01,0x3b,
0x09,0x01,0x3e,0x0b,0x0b,0x7a,0x02,0x01,0x41,0x09,0x01,0x43,0x09,0x01,0x46,0x01,
0x0b,0x79,0x08,0x01,0x49,0x09,0x01,0x4b,0x03,0x0b,0x78,0x06,0x01,0x4c,0x07,0x0b,
0x77,0x02,0x01,0x4f,0x12,0x01,0x53,0x02,0x0b,0x76,0x08,0x01,0x56,0x09,0x01,0x57,
0x03,0x0b,0x74,0x0a,0x01,0x59,0x00,0x0b,0x73,0x0d,0x01,0x5a,0x04,0x0b,0x72,0x12,
0x0b,0x71,0x10,0x0b,0x70,0x10,0x0b,0x6f,0x0a,0x0b,0x6e,0x03,0x01,0x5c,0x08,0x0b,
0x6d,0x07,0x0b,0x6b,0x0c,0x01,0x57,0x06,0x0b,0x69,0x03,0x01,0x4c,0x09,0x01,0x43,
0x01,0x0b,0x67,0x08,0x01,0x3c,0x03,0x0b,0x65,0x0b,0x01,0x39,0x04,0x0b,0x62,0x05,
0x01,0x34,0x07,0x0b,0x60,0x02,0x01,0x30,0x09,0x01,0x2c,0x02,0x0b,0x5e,0x07,0x01,
0x2b,0x08,0x0b,0x5c,0x01,0x01,0x25,0x09,0x01,0x1e,0x09,0x01,0x19,0x03,0x0b,0x59,
0x06,0x01,0x15,0x09,0x01,0x0b,0x02,0x0b,0x57,0x07,0x01,0x00,0x09,0x0b,0x55,0x0c,
0x0b,0x53,0x0d,0x0b,0x50,0x0c,0x0b,0x4e,0x0f,0x0b,0x4c,0x09,0x0b,0x4b,0x0a,0x0b,
0x49,0x0f,0x0b,0x45,0x08,0x0b,0x44,0x08,0x0b,0x43,0x0f,0x0b,0x42,0x0d,0x0b,0x40,
0x07,0x0b,0x3e,0x08,0x0b,0x3d,0x0b,0x0b,0x3b,0x0c,0x0b,0x38,0x0a,0x0b,0x35,0x0c,
0x0b,0x32,0x0b,0x0b,0x2f,0x0b,0x0b,0x2b,0x07,0x0b,0x28,0x09,0x0b,0x25,0x0c,0x0b,
0x20,0x0e,0x0b,0x1c,0x0c,0x0b,0x18,0x0e,0x0b,0x14,0x0a,0x0b,0x11,0x0c,0x0b,0x0f,
0x0b,0x0b,0x0d,0x09,0x0b,0x0b,0x0a,0x0b,0x0a,0x07,0x0b,0x08,0x19,0x0b,0x06,0x19,
0x0b,0x05,0x1b,0x0b,0x04,0x41,0x0b,0x00,0x1d,0x93,0x4f,0x00,0x83,0x35,0xb3,0x0b,
0x7f,0x88,0x29,0x0b,0x7d,0x01,0x5d,0x00,0x81,0x2d,0xe3,0x00,0x1d,0x04,0x93,0x43,
0x48,0x01,0xe3,0x00,0x21,0x0a,0x00,0x27,0x04,0x00,0x2c,0x07,0x00,0x37,0x04,0x00,
0x3b,0x05,0x00,0x40,0x3a,0x93,0x43,0x00,0x03,0xe3,0x00,0x7f,0x03,0x93,0x45,0x52,
0x2e,0xe3,0x00,0x01,0x22,0x93,0x45,0x00,0x0f,0xe3,0x00,0x40,0x01,0x93,0x4a,0x5b,
0x2b,0x4a,0x00,0x1d,0xe3,0x00,0x3b,0x04,0x00,0x2c,0x06,0x00,0x10,0x04,0x00,0x0d,
0x09,0x93,0x4c,0x6b,0x01,0x4c,0x00,0x01,0x4c,0x5e,0x04,0xe3,0x00,0x11,0x04,0x00,
0x19,0x05,0x00,0x23,0x04,0x00,0x2a,0x05,0x00,0x31,0x03,0x00,0x38,0x04,0x00,0x3d,
0x05,0x00,0x40,0x64,0xb3,0x01,0x0d,0x09,0x01,0x18,0x09,0x01,0x1b,0x09,0x01,0x20,
0x09,0x01,0x26,0x09,0x01,0x30,0x0a,0x01,0x36,0x09,0x01,0x3b,0x09,0x01,0x3e,0x09,
0x01,0x43,0x09,0x01,0x49,0x09,0x01,0x4f,0x09,0x01,0x56,0x0e,0x01,0x57,0x09,0x01,
0x5a,0x09,0x01,0x5e,0x0d,0x93,0x4c,0x00,0x05,0xb3,0x01,0x5f,0x09,0x01,0x62,0x09,
0x01,0x66,0x09,0x01,0x6c,0x09,0x01,0x72,0x09,0x01,0x79,0x09,0x01,0x64,0x09,0x01,
0x33,0x0a,0x01,0x00,0x41,0x93,0x48,0x55,0x2f,0x48,0x00,0x02,0x4c,0x6c,0x16,0x4c,
0x00,0x1a,0x4c,0x54,0x18,0x4c,0x00,0x13,0xe3,0x00,0x32,0x04,0x93,0x4a,0x65,0x03,
0xe3,0x00,0x0e,0x09,0x00,0x14,0x06,0x00,0x29,0x07,0x00,0x36,0x04,0x00,0x3c,0x04,
0x00,0x40,0x29,0x00,0x7f,0x0c,0x00,0x40,0x08,0x93,0x4a,0x00,0x01,0x43,0x51,0x17,
0x43,0x00,0x1c,0x47,0x5a,0x81,0x16,0xb3,0x01,0x03,0x09,0x01,0x0a,0x09,0x01,0x10,
0x09,0x01,0x15,0x09,0x01,0x1e,0x09,0x01,0x26,0x09,0x01,0x2c,0x09,0x01,0x30,0x09,
0x01,0x31,0x09,0x01,0x36,0x0a,0x01,0x3b,0x09,0x01,0x43,0x09,0x01,0x46,0x09,0x01,
0x47,0x0d,0x01,0x4e,0x09,0x01,0x53,0x09,0x01,0x57,0x0a,0x01,0x5e,0x09,0x01,0x62,
0x09,0x01,0x66,0x09,0x01,0x6c,0x09,0x01,0x75,0x09,0x01,0x7a,0x12,0x01,0x77,0x09,
0x01,0x66,0x02,0x93,0x47,0x00,0x07,0xb3,0x01,0x36,0x09,0x01,0x00,0x7f,0x93,0x4f,
0x66,0x2e,0x4f,0x00,0x01,0x4c,0x48,0x14,0x4c,0x00,0x1a,0xe3,0x00,0x18,0x04,0x93,
0x4f,0x63,0x07,0xe3,0x00,0x15,0x04,0x00,0x1b,0x04,0x00,0x25,0x06,0x00,0x33,0x07,
0x00,0x40,0x34,0x93,0x4f,0x00,0x0e,0x4f,0x5e,0x2f,0x4f,0x00,0x04,0x4c,0x49,0x0f,
0x4c,0x00,0x1c,0xe3,0x00,0x17,0x02,0x93,0x4f,0x5c,0x02,0xe3,0x00,0x12,0x06,0x00,
0x13,0x04,0x00,0x18,0x04,0x00,0x24,0x06,0x00,0x39,0x04,0x00,0x3d,0x06,0x00,0x7f,
0x09,0x00,0x40,0x06,0x93,0x4f,0x00,0x04,0x4a,0x46,0x2c,0x4a,0x00,0x01,0x4c,0x57,
0x7c,0xb3,0x01,0x05,0x09,0x01,0x0e,0x09,0x01,0x15,0x09,0x01,0x1d,0x09,0x01,0x25,
0x09,0x01,0x47,0x0a,0x01,0x57,0x11,0x93,0x4c,0x00,0x37,0xb3,0x01,0x67,0x0a,0x01,
0x6c,0x09,0x01,0x59,0x09,0x01,0x29,0x09,0x01,0x00,0x31,0x93,0x4c,0x56,0x2b,0x4c,
0x00,0x04,0x51,0x60,0x1e,0x51,0x00,0x13,0x51,0x5b,0x17,0x51,0x00,0x11,0xe3,0x00,
0x2b,0x05,0x00,0x11,0x04,0x00,0x02,0x01,0x93,0x4e,0x65,0x05,0xe3,0x00,0x04,0x07,
0x00,0x11,0x04,0x00,0x1a,0x04,0x00,0x21,0x06,0x00,0x30,0x05,0x00,0x37,0x06,0x00,
0x40,0x3a,0x93,0x4e,0x00,0x01,0x4c,0x5b,0x2d,0xe3,0x00,0x00,0x16,0x93,0x4c,0x00,
0x14,0xe3,0x00,0x37,0x04,0x00,0x25,0x03,0x93,0x4a,0x54,0x03,0xe3,0x00,0x16,0x05,
0x00,0x18,0x04,0x00,0x22,0x04,0x00,0x2b,0x06,0x00,0x34,0x07,0x00,0x3c,0x04,0x00,
0x3e,0x05,0x00,0x40,0x64,0xb3,0x01,0x03,0x09,0x01,0x08,0x09,0x01,0x0d,0x09,0x01,
0x13,0x09,0x01,0x18,0x09,0x01,0x1e,0x09,0x01,0x26,0x0a,0x01,0x2c,0x08,0x01,0x30,
0x0a,0x01,0x31,0x08,0x01,0x34,0x0a,0x01,0x3b,0x09,0x01,0x40,0x09,0x01,0x57,0x09,
0x01,0x69,0x0b,0x93,0x4a,0x00,0x2b,0xb3,0x01,0x66,0x09,0x01,0x67,0x0e,0x01,0x59,
0x09,0x01,0x46,0x09,0x01,0x2b,0x09,0x01,0x00,0x46,0xe3,0x00,0x3d,0x07,0x00,0x2e,
0x07,0x00,0x22,0x04,0x00,0x1d,0x05,0x00,0x1b,0x12,0x93,0x47,0x63,0x03,0xe3,0x00,
0x1e,0x05,0x00,0x22,0x08,0x00,0x27,0x04,0x00,0x2e,0x07,0x00,0x40,0x16,0x00,0x60,
0x30,0x00,0x40,0x56,0x93,0x47,0x00,0x0a,0x45,0x57,0x30,0xe3,0x00,0x00,0x17,0x93,
0x45,0x00,0x18,0xe3,0x00,0x15,0x01,0x93,0x43,0x57,0x04,0xe3,0x00,0x10,0x04,0x00,
0x18,0x05,0x00,0x22,0x04,0x00,0x29,0x04,0x00,0x32,0x04,0x00,0x3a,0x04,0x00,0x40,
0x81,0x0b,0xb3,0x01,0x05,0x09,0x01,0x0d,0x09,0x01,0x13,0x09,0x01,0x18,0x09,0x01,
0x1d,0x09,0x01,0x20,0x09,0x01,0x25,0x09,0x01,0x2b,0x0a,0x01,0x30,0x09,0x01,0x36,
0x09,0x01,0x3b,0x0d,0x01,0x3e,0x09,0x01,0x41,0x0a,0x01,0x44,0x03,0x93,0x43,0x00,
0x06,0xb3,0x01,0x49,0x09,0x01,0x4c,0x12,0x01,0x4f,0x09,0x01,0x53,0x09,0x01,0x56,
0x09,0x01,0x5a,0x0d,0x01,0x53,0x0a,0x01,0x34,0x09,0x01,0x00,0x29,0xe3,0x00,0x3d,
0x07,0x00,0x33,0x04,0x00,0x2e,0x07,0x00,0x25,0x04,0x00,0x22,0x05,0x00,0x20,0x05,
0x00,0x1e,0x13,0x93,0x47,0x5a,0x08,0xe3,0x00,0x21,0x04,0x00,0x23,0x04,0x00,0x26,
0x06,0x00,0x30,0x04,0x00,0x38,0x04,0x00,0x40,0x11,0x00,0x60,0x33,0x00,0x40,0x48,
0x00,0x60,0x0d,0x00,0x40,0x08,0x93,0x47,0x00,0x02,0x45,0x57,0x2f,0xe3,0x00,0x00,
0x18,0x93,0x45,0x00,0x08,0xe3,0x00,0x3e,0x04,0x00,0x32,0x06,0x00,0x13,0x04,0x00,
0x10,0x02,0x93,0x43,0x59,0x0e,0xe3,0x00,0x1b,0x04,0x00,0x24,0x04,0x00,0x27,0x07,
0x00,0x32,0x04,0x00,0x37,0x07,0x00,0x40,0x6b,0xb3,0x01,0x03,0x09,0x01,0x08,0x09,
0x01,0x0e,0x09,0x01,0x13,0x0a,0x01,0x19,0x09,0x01,0x20,0x09,0x01,0x25,0x09,0x01,
0x28,0x09,0x01,0x2b,0x09,0x01,0x30,0x09,0x01,0x34,0x09,0x01,0x39,0x09,0x01,0x3c,
0x09,0x01,0x3e,0x09,0x01,0x40,0x09,0x01,0x41,0x07,0x93,0x43,0x00,0x02,0xb3,0x01,
0x44,0x09,0x01,0x46,0x09,0x01,0x49,0x09,0x01,0x4c,0x0e,0x01,0x4f,0x09,0x01,0x54,
0x09,0x01,0x59,0x0d,0x01,0x4c,0x0a,0x01,0x29,0x09,0x01,0x00,0x34,0x93,0x43,0x51,
0x17,0x43,0x00,0x19,0x43,0x56,0x17,0x43,0x00,0x0a,0xe3,0x00,0x3d,0x07,0x00,0x22,
0x04,0x00,0x1d,0x01,0x93,0x47,0x67,0x0a,0xe3,0x00,0x1e,0x07,0x00,0x29,0x08,0x00,
0x36,0x04,0x00,0x3c,0x04,0x00,0x40,0x3e,0x93,0x47,0x00,0x01,0x48,0x5c,0x5f,0x48,
0x00,0x04,0x43,0x5a,0x1f,0x43,0x00,0x3f,0x43,0x52,0x1a,0x43,0x00,0x17,0x43,0x54,
0x17,0x43,0x00,0x07,0xe3,0x00,0x3f,0x06,0x00,0x2a,0x04,0x00,0x26,0x09,0x93,0x48,
0x64,0x0a,0xe3,0x00,0x2e,0x04,0x00,0x36,0x04,0x00,0x3b,0x06,0x00,0x40,0x2f,0x00,
0x7e,0x0c,0x00,0x40,0x0c,0x00,0x20,0x5b,0x93,0x48,0x00,0x04,0xe3,0x00,0x40,0x01,
0x93,0x45,0x55,0x28,0x45,0x00,0x37,0x45,0x59,0x17,0x45,0x00,0x18,0x43,0x59,0x17,
0x43,0x00,0x0a,0xe3,0x00,0x30,0x07,0x00,0x00,0x0b,0x93,0x47,0x6b,0x00,0xe3,0x00,
0x10,0x08,0x00,0x20,0x07,0x00,0x2b,0x04,0x00,0x31,0x07,0x00,0x40,0x42,0x93,0x47,
0x00,0x04,0x43,0x5a,0x1f,0x43,0x00,0x23,0xe3,0x00,0x29,0x04,0x00,0x1e,0x04,0x00,
0x17,0x0e,0x00,0x1e,0x07,0x93,0x43,0x6a,0x00,0xe3,0x00,0x2e,0x04,0x00,0x33,0x04,
0x00,0x36,0x04,0x00,0x37,0x0c,0x00,0x40,0x81,0x0d,0xb3,0x01,0x03,0x09,0x01,0x08,
0x09,0x01,0x0e,0x09,0x01,0x13,0x09,0x01,0x1b,0x09,0x01,0x25,0x09,0x01,0x2b,0x09,
0x01,0x31,0x0a,0x01,0x36,0x09,0x01,0x39,0x09,0x01,0x3b,0x09,0x01,0x3e,0x0d,0x01,
0x43,0x09,0x01,0x44,0x09,0x01,0x47,0x04,0x93,0x43,0x00,0x05,0xb3,0x01,0x4b,0x09,
0x01,0x4e,0x0a,0x01,0x51,0x09,0x01,0x56,0x09,0x01,0x5a,0x09,0x01,0x5f,0x12,0x01,
0x4e,0x09,0x01,0x28,0x09,0x01,0x00,0x5e,0x93,0x43,0x48,0x16,0x43,0x00,0x18,0x43,
0x51,0x17,0x43,0x00,0x08,0xe3,0x00,0x3f,0x07,0x00,0x1c,0x06,0x00,0x06,0x03,0x93,
0x47,0x6c,0x06,0xe3,0x00,0x15,0x04,0x00,0x21,0x04,0x00,0x29,0x06,0x00,0x3c,0x04,
0x00,0x3e,0x07,0x00,0x40,0x40,0x93,0x47,0x00,0x03,0x48,0x5a,0x5f,0x48,0x00,0x02,
0x43,0x5c,0x20,0x43,0x00,0x3e,0x43,0x48,0x19,0x43,0x00,0x16,0x43,0x50,0x17,0x43,
0x00,0x0f,0xe3,0x00,0x21,0x07,0x00,0x0a,0x04,0x93,0x48,0x65,0x01,0xe3,0x00,0x08,
0x07,0x00,0x09,0x07,0x00,0x21,0x04,0x00,0x25,0x07,0x00,0x36,0x07,0x00,0x3c,0x04,
0x00,0x40,0x3b,0x93,0x48,0x00,0x01,0x47,0x5d,0x49,0xe3,0x00,0x60,0x0a,0x00,0x40,
0x05,0x93,0x47,0x00,0x09,0x45,0x52,0x20,0x45,0x00,0x3e,0x45,0x5a,0x31,0xe3,0x00,
0x00,0x17,0x93,0x45,0x00,0x18,0x47,0x65,0x02,0xe3,0x40,0x10,0x09,0x40,0x17,0x05,
0x40,0x24,0x04,0x40,0x3a,0x05,0x00,0x40,0x3f,0x93,0x47,0x00,0x07,0x43,0x5a,0x20,
0x43,0x00,0x20,0xe3,0x00,0x36,0x07,0x00,0x00,0x0d,0x00,0x0a,0x04,0x00,0x0e,0x04,
0x00,0x14,0x07,0x00,0x26,0x00,0x93,0x43,0x59,0x07,0xe3,0x00,0x35,0x04,0x00,0x3b,
0x04,0x00,0x40,0x81,0x03,0xb3,0x01,0x11,0x09,0x01,0x25,0x09,0x01,0x38,0x09,0x01,
0x43,0x09,0x01,0x49,0x09,0x01,0x53,0x0a,0x01,0x57,0x08,0x01,0x5c,0x0a,0x01,0x5e,
0x0d,0x01,0x61,0x12,0x01,0x62,0x09,0x01,0x66,0x09,0x01,0x67,0x20,0x93,0x43,0x00,
0x08,0xb3,0x01,0x6a,0x09,0x01,0x6f,0x12,0x01,0x72,0x12,0x01,0x64,0x09,0x01,0x36,
0x09,0x01,0x00,0x87,0x1a,0xe3,0x00,0x20,0x01,0x93,0x47,0x5c,0x03,0xe3,0x00,0x24,
0x04,0x00,0x28,0x0a,0x00,0x32,0x04,0x00,0x37,0x04,0x00,0x3c,0x04,0x00,0x40,0x13,
0x00,0x60,0x31,0x00,0x40,0x58,0x93,0x47,0x00,0x06,0x45,0x5b,0x32,0xe3,0x00,0x00,
0x16,0x93,0x45,0x00,0x0e,0xe3,0x00,0x34,0x04,0x00,0x1c,0x06,0x00,0x0a,0x00,0x93,
0x43,0x5b,0x04,0xe3,0x00,0x0b,0x07,0x00,0x20,0x04,0x00,0x24,0x08,0x00,0x31,0x07,
0x00,0x3b,0x05,0x00,0x40,0x5f,0xb3,0x01,0x08,0x09,0x01,0x11,0x09,0x01,0x19,0x09,
0x01,0x21,0x09,0x01,0x26,0x09,0x01,0x2c,0x0a,0x01,0x33,0x09,0x01,0x38,0x09,0x01,
0x3c,0x09,0x01,0x40,0x09,0x01,0x46,0x09,0x01,0x4e,0x09,0x01,0x51,0x0e,0x01,0x54,
0x09,0x01,0x57,0x09,0x01,0x5a,0x16,0x93,0x43,0x00,0x50,0xb3,0x01,0x53,0x09,0x01,
0x44,0x09,0x01,0x2e,0x09,0x01,0x15,0x09,0x01,0x00,0x86,0x14,0xe3,0x00,0x39,0x06,
0x00,0x22,0x07,0x00,0x17,0x0e,0x00,0x15,0x14,0x00,0x16,0x05,0x93,0x47,0x5a,0x02,
0xe3,0x00,0x1d,0x04,0x00,0x24,0x07,0x00,0x2c,0x07,0x00,0x3b,0x05,0x00,0x40,0x15,
0x93,0x47,0x00,0x01,0x48,0x54,0x2c,0x48,0x00,0x04,0x47,0x67,0x58,0x47,0x00,0x09,
0x45,0x5b,0x31,0xe3,0x00,0x00,0x16,0x93,0x45,0x00,0x0c,0xe3,0x00,0x37,0x06,0x00,
0x16,0x04,0x00,0x13,0x02,0x93,0x43,0x59,0x05,0xe3,0x00,0x1d,0x05,0x00,0x20,0x08,
0x00,0x35,0x04,0x00,0x3b,0x05,0x00,0x3d,0x04,0x00,0x40,0x7b,0xb3,0x01,0x03,0x09,
0x01,0x15,0x09,0x01,0x28,0x09,0x01,0x31,0x09,0x01,0x3b,0x0a,0x01,0x46,0x09,0x01,
0x4f,0x09,0x01,0x56,0x09,0x01,0x5a,0x09,0x01,0x61,0x09,0x01,0x67,0x09,0x01,0x6a,
0x0e,0x01,0x6c,0x11,0x01,0x6e,0x09,0x93,0x43,0x00,0x1b,0xb3,0x01,0x6f,0x16,0x01,
0x71,0x09,0x01,0x72,0x09,0x01,0x75,0x17,0x01,0x69,0x09,0x01,0x53,0x09,0x01,0x34,
0x09,0x01,0x11,0x09,0x01,0x00,0x86,0x0f,0xe3,0x00,0x32,0x07,0x00,0x1e,0x04,0x00,
0x17,0x04,0x00,0x13,0x08,0x00,0x19,0x04,0x00,0x1d,0x0b,0x00,0x20,0x04,0x00,0x22,
0x03,0x93,0x47,0x5a,0x03,0xe3,0x00,0x24,0x05,0x00,0x29,0x06,0x00,0x33,0x08,0x00,
0x40,0x19,0x93,0x47,0x00,0x03,0x48,0x55,0x2c,0x48,0x00,0x04,0x47,0x67,0x58,0x47,
0x00,0x06,0x45,0x5b,0x2f,0x45,0x00,0x04,0x43,0x4f,0x17,0x43,0x00,0x0b,0xe3,0x00,
0x21,0x04,0x00,0x13,0x04,0x00,0x11,0x04,0x00,0x12,0x00,0x93,0x43,0x5a,0x04,0xe3,
0x00,0x18,0x07,0x00,0x26,0x05,0x00,0x2a,0x04,0x00,0x32,0x07,0x00,0x40,0x66,0xb3,
0x01,0x0d,0x09,0x01,0x13,0x09,0x01,0x15,0x09,0x01,0x19,0x09,0x01,0x20,0x09,0x01,
0x25,0x09,0x01,0x28,0x09,0x01,0x2b,0x09,0x01,0x2e,0x09,0x01,0x31,0x09,0x01,0x34,
0x09,0x01,0x36,0x0e,0x01,0x39,0x09,0x01,0x3b,0x0d,0x01,0x3e,0x09,0x01,0x40,0x15,
0x93,0x43,0x00,0x02,0xb3,0x01,0x41,0x09,0x01,0x43,0x16,0x01,0x44,0x09,0x01,0x46,
0x12,0x01,0x49,0x12,0x01,0x43,0x09,0x01,0x34,0x09,0x01,0x1b,0x09,0x01,0x00,0x83,
0x04,0x0b,0x7d,0x0a,0x0b,0x7b,0x31,0x0b,0x79,0x54,0x0b,0x77,0x6a,0x0b,0x75,0x2e,
0x0b,0x73,0x2d,0x0b,0x71,0x0a,0x0b,0x6f,0x0a,0x0b,0x6d,0x08,0x0b,0x6b,0x08,0x0b,
0x69,0x19,0x0b,0x67,0x17,0xe3,0x00,0x3f,0x02,0xb3,0x0b,0x65,0x03,0xe3,0x00,0x2b,
0x05,0x00,0x21,0x04,0x00,0x1c,0x04,0x00,0x1b,0x07,0x00,0x1c,0x06,0x00,0x20,0x01,
0xb3,0x0b,0x63,0x03,0xe3,0x00,0x23,0x03,0x93,0x47,0x5c,0x03,0xe3,0x00,0x2c,0x05,
0x00,0x2e,0x04,0x00,0x32,0x07,0x00,0x39,0x04,0x00,0x40,0x08,0xb3,0x0b,0x61,0x10,
0x93,0x47,0x00,0x02,0x48,0x52,0x08,0xb3,0x0b,0x5f,0x26,0x93,0x48,0x00,0x01,0x47,
0x64,0x20,0xb3,0x0b,0x5d,0x2f,0x0b,0x5b,0x0e,0x93,0x47,0x00,0x01,0x45,0x5a,0x2f,
0x45,0x00,0x03,0x43,0x4e,0x07,0xb3,0x0b,0x59,0x10,0x93,0x43,0x00,0x0b,0xe3,0x00,
0x3b,0x04,0x00,0x2b,0x06,0x00,0x16,0x02,0x93,0x43,0x58,0x02,0xb3,0x0b,0x57,0x03,
0xe3,0x00,0x1b,0x05,0x00,0x23,0x07,0x00,0x30,0x07,0x00,0x3d,0x04,0x00,0x40,0x1a,
0xb3,0x0b,0x55,0x16,0x0b,0x53,0x18,0x01,0x06,0x09,0x01,0x10,0x09,0x01,0x19,0x06,
0x0b,0x51,0x04,0x01,0x25,0x09,0x01,0x2b,0x07,0x0b,0x4f,0x02,0x01,0x31,0x09,0x01,
0x38,0x09,0x01,0x3e,0x04,0x0b,0x4d,0x05,0x01,0x43,0x09,0x01,0x47,0x09,0x01,0x4b,
0x03,0x0b,0x4b,0x06,0x01,0x4e,0x0d,0x0b,0x49,0x01,0x01,0x51,0x09,0x01,0x54,0x16,
0x01,0x56,0x12,0x01,0x57,0x0a,0x0b,0x47,0x0c,0x01,0x59,0x08,0x93,0x43,0x00,0x06,
0xb3,0x01,0x5a,0x16,0x01,0x5c,0x04,0x0b,0x45,0x05,0x01,0x5e,0x09,0x01,0x5f,0x0d,
0x0b,0x43,0x1b,0x01,0x56,0x09,0x01,0x49,0x09,0x01,0x3c,0x09,0x01,0x31,0x0a,0x01,
0x25,0x09,0x01,0x15,0x09,0x01,0x08,0x09,0x01,0x00,0x00,0xff,0x2f,0x00,0x4d,0x54,
0x72,0x6b,0x00,0x00,0x16,0xaa,0x00,0xff,0x21,0x01,0x00,0x00,0xb4,0x00,0x00,0x00,
0xc4,0x1c,0x00,0xb4,0x07,0x64,0x00,0xb4,0x0a,0x68,0x00,0xb4,0x5b,0x00,0x00,0x5d,
0x7f,0x77,0x0b,0x7f,0x88,0x0a,0x94,0x2b,0x67,0x2f,0x32,0x5f,0x2f,0x39,0x6c,0x01,
0x2b,0x00,0x00,0x2b,0x4f,0x23,0x32,0x00,0x0d,0x32,0x4e,0x22,0x2b,0x00,0x0c,0x2b,
0x4f,0x02,0x3b,0x61,0x24,0x39,0x00,0x0b,0x39,0x54,0x24,0x32,0x00,0x0d,0x32,0x4c,
0x24,0x39,0x00,0x0b,0x39,0x48,0x2c,0x2b,0x00,0x04,0x2b,0x4b,0x10,0x3b,0x00,0x19,
0x32,0x00,0x07,0x2b,0x00,0x01,0x32,0x5e,0x01,0x2b,0x4c,0x23,0x39,0x00,0x03,0x2b,
0x00,0x08,0x39,0x5d,0x02,0x2b,0x52,0x21,0x32,0x00,0x0f,0x32,0x4a,0x21,0x2b,0x00,
0x0d,0x2b,0x4f,0x01,0x3b,0x54,0x22,0x39,0x00,0x0d,0x39,0x48,0x24,0x32,0x00,0x0d,
0x32,0x53,0x26,0x39,0x00,0x0b,0x39,0x50,0x1e,0x2b,0x00,0x0f,0x28,0x51,0x0d,0x32,
0x00,0x02,0x3b,0x00,0x10,0x39,0x00,0x13,0x2f,0x60,0x01,0x28,0x00,0x00,0x28,0x57,
0x26,0x28,0x00,0x08,0x36,0x5c,0x01,0x28,0x4c,0x23,0x2f,0x00,0x0b,0x2f,0x53,0x1f,
0x28,0x00,0x0a,0x36,0x00,0x09,0x37,0x5e,0x00,0x28,0x51,0x02,0x2f,0x00,0x2e,0x36,
0x54,0x2f,0x36,0x00,0x00,0x2f,0x54,0x30,0x36,0x55,0x2a,0x28,0x00,0x07,0x28,0x52,
0x1b,0x36,0x00,0x0d,0x2f,0x00,0x09,0x2f,0x5d,0x2a,0x28,0x00,0x05,0x36,0x64,0x01,
0x28,0x53,0x27,0x28,0x00,0x00,0x2f,0x00,0x08,0x2f,0x61,0x29,0x37,0x00,0x07,0x28,
0x51,0x01,0x37,0x66,0x26,0x36,0x00,0x09,0x36,0x47,0x0e,0x28,0x00,0x14,0x2f,0x00,
0x0e,0x2f,0x51,0x18,0x36,0x00,0x18,0x36,0x52,0x2c,0x2f,0x00,0x03,0x36,0x00,0x02,
0x30,0x4f,0x1a,0x37,0x00,0x06,0x30,0x00,0x0e,0x37,0x68,0x01,0x30,0x5b,0x1d,0x30,
0x00,0x11,0x3e,0x67,0x02,0x30,0x59,0x25,0x37,0x00,0x0c,0x37,0x5d,0x22,0x30,0x00,
0x0c,0x30,0x5c,0x01,0x3c,0x64,0x27,0x37,0x00,0x08,0x37,0x55,0x26,0x3e,0x00,0x0a,
0x30,0x00,0x01,0x30,0x5e,0x29,0x37,0x00,0x06,0x37,0x48,0x19,0x3c,0x00,0x03,0x30,
0x00,0x16,0x32,0x64,0x22,0x37,0x00,0x0c,0x32,0x00,0x01,0x32,0x6c,0x00,0x39,0x59,
0x18,0x32,0x00,0x15,0x40,0x67,0x01,0x32,0x58,0x0a,0x39,0x00,0x18,0x32,0x00,0x0f,
0x39,0x55,0x2f,0x3e,0x65,0x01,0x32,0x5b,0x2b,0x39,0x00,0x04,0x39,0x64,0x21,0x40,
0x00,0x08,0x32,0x00,0x08,0x32,0x5e,0x23,0x39,0x00,0x0c,0x39,0x51,0x20,0x3e,0x00,
0x0d,0x32,0x00,0x02,0x32,0x48,0x03,0x2b,0x48,0x02,0x39,0x00,0x21,0x2b,0x00,0x03,
0x32,0x00,0x09,0x32,0x65,0x02,0x2b,0x56,0x25,0x2b,0x00,0x09,0x39,0x64,0x02,0x2b,
0x56,0x22,0x32,0x00,0x0c,0x32,0x58,0x1f,0x2b,0x00,0x10,0x2b,0x52,0x01,0x3b,0x67,
0x24,0x39,0x00,0x0a,0x39,0x59,0x20,0x32,0x00,0x13,0x32,0x63,0x20,0x39,0x00,0x0f,
0x39,0x48,0x2c,0x2b,0x00,0x04,0x2b,0x53,0x0a,0x3b,0x00,0x11,0x2b,0x00,0x09,0x32,
0x00,0x0c,0x2b,0x5a,0x01,0x32,0x61,0x1b,0x2b,0x00,0x0b,0x39,0x00,0x09,0x39,0x67,
0x02,0x2b,0x56,0x16,0x32,0x00,0x19,0x32,0x59,0x20,0x2b,0x00,0x0e,0x3b,0x67,0x02,
0x2b,0x4b,0x21,0x39,0x00,0x0e,0x39,0x59,0x24,0x32,0x00,0x0e,0x32,0x64,0x22,0x39,
0x00,0x0e,0x39,0x48,0x14,0x2b,0x00,0x1c,0x2b,0x51,0x04,0x3b,0x00,0x01,0x2b,0x00,
0x16,0x32,0x00,0x14,0x32,0x60,0x00,0x2b,0x50,0x1e,0x2b,0x00,0x0a,0x39,0x00,0x08,
0x39,0x5c,0x01,0x2b,0x52,0x24,0x32,0x00,0x0c,0x32,0x4d,0x1d,0x2b,0x00,0x12,0x3b,
0x63,0x01,0x2b,0x4c,0x21,0x39,0x00,0x0d,0x39,0x56,0x1d,0x32,0x00,0x14,0x32,0x5b,
0x1e,0x39,0x00,0x13,0x39,0x56,0x20,0x3b,0x00,0x07,0x2b,0x00,0x07,0x2b,0x58,0x1e,
0x2b,0x00,0x06,0x32,0x00,0x0d,0x32,0x62,0x01,0x2b,0x59,0x24,0x39,0x00,0x04,0x2b,
0x00,0x07,0x39,0x69,0x00,0x2b,0x4f,0x25,0x32,0x00,0x0b,0x32,0x5e,0x1d,0x2b,0x00,
0x14,0x2b,0x4e,0x00,0x3b,0x4f,0x22,0x39,0x00,0x0c,0x39,0x58,0x20,0x32,0x00,0x11,
0x32,0x69,0x21,0x39,0x00,0x0f,0x39,0x5c,0x16,0x3b,0x00,0x19,0x28,0x60,0x04,0x2b,
0x00,0x0f,0x32,0x00,0x0e,0x39,0x00,0x03,0x28,0x00,0x0b,0x28,0x5d,0x02,0x2f,0x4d,
0x26,0x28,0x00,0x09,0x36,0x68,0x00,0x28,0x53,0x23,0x2f,0x00,0x0c,0x2f,0x5b,0x29,
0x28,0x00,0x09,0x37,0x69,0x00,0x28,0x54,0x24,0x36,0x00,0x0c,0x36,0x58,0x21,0x2f,
0x00,0x10,0x2f,0x5e,0x23,0x36,0x00,0x0b,0x36,0x52,0x24,0x37,0x00,0x0a,0x28,0x00,
0x04,0x28,0x56,0x1c,0x2f,0x00,0x03,0x28,0x00,0x0f,0x28,0x58,0x00,0x2f,0x60,0x23,
0x36,0x00,0x04,0x28,0x00,0x06,0x36,0x65,0x03,0x28,0x54,0x20,0x2f,0x00,0x11,0x2f,
0x62,0x24,0x28,0x00,0x0c,0x37,0x6a,0x00,0x28,0x50,0x21,0x36,0x00,0x0e,0x36,0x65,
0x22,0x2f,0x00,0x0d,0x2f,0x60,0x1e,0x36,0x00,0x13,0x36,0x5a,0x1b,0x2f,0x00,0x01,
0x28,0x00,0x10,0x36,0x00,0x04,0x30,0x69,0x1d,0x37,0x00,0x01,0x30,0x00,0x12,0x30,
0x54,0x01,0x37,0x68,0x23,0x30,0x00,0x0a,0x30,0x60,0x02,0x3e,0x68,0x23,0x37,0x00,
0x0d,0x37,0x5a,0x1f,0x30,0x00,0x0f,0x3c,0x66,0x02,0x30,0x56,0x19,0x37,0x00,0x18,
0x37,0x64,0x29,0x37,0x00,0x04,0x30,0x00,0x03,0x30,0x54,0x03,0x3e,0x00,0x2b,0x37,
0x5c,0x1e,0x3c,0x00,0x06,0x30,0x00,0x0d,0x32,0x6c,0x1f,0x37,0x00,0x01,0x32,0x00,
0x11,0x32,0x60,0x00,0x39,0x59,0x2f,0x40,0x6a,0x1f,0x39,0x00,0x11,0x39,0x58,0x2c,
0x32,0x00,0x06,0x3e,0x68,0x01,0x32,0x56,0x15,0x39,0x00,0x1a,0x39,0x58,0x1e,0x32,
0x00,0x11,0x32,0x64,0x23,0x40,0x00,0x04,0x39,0x00,0x0a,0x39,0x51,0x09,0x32,0x00,
0x20,0x3e,0x00,0x05,0x28,0x57,0x0b,0x39,0x00,0x18,0x28,0x00,0x0e,0x2f,0x63,0x01,
0x28,0x56,0x26,0x28,0x00,0x08,0x36,0x68,0x01,0x28,0x53,0x23,0x2f,0x00,0x0c,0x2f,
0x6d,0x29,0x28,0x00,0x07,0x28,0x44,0x00,0x37,0x68,0x01,0x28,0x00,0x00,0x28,0x44,
0x25,0x36,0x00,0x0b,0x36,0x5b,0x22,0x2f,0x00,0x0a,0x28,0x00,0x03,0x2f,0x6c,0x23,
0x36,0x00,0x0e,0x36,0x54,0x31,0x28,0x4e,0x03,0x36,0x00,0x07,0x37,0x00,0x19,0x2f,
0x00,0x01,0x28,0x00,0x0b,0x2f,0x6b,0x00,0x28,0x5a,0x24,0x28,0x00,0x0b,0x36,0x5c,
0x01,0x28,0x54,0x22,0x2f,0x00,0x0e,0x2f,0x67,0x27,0x28,0x00,0x09,0x28,0x54,0x00,
0x37,0x6c,0x23,0x36,0x00,0x0c,0x37,0x00,0x01,0x36,0x65,0x23,0x2f,0x00,0x0d,0x2f,
0x5e,0x2d,0x36,0x00,0x02,0x36,0x55,0x1e,0x28,0x00,0x0b,0x2f,0x00,0x07,0x36,0x00,
0x02,0x2b,0x51,0x05,0x2b,0x00,0x2a,0x32,0x60,0x00,0x2b,0x50,0x1e,0x2b,0x00,0x12,
0x39,0x5c,0x01,0x2b,0x52,0x24,0x32,0x00,0x0c,0x32,0x4d,0x1d,0x2b,0x00,0x12,0x3b,
0x63,0x01,0x2b,0x4c,0x21,0x39,0x00,0x0d,0x39,0x56,0x1d,0x32,0x00,0x14,0x32,0x5b,
0x1e,0x39,0x00,0x13,0x39,0x56,0x20,0x3b,0x00,0x07,0x2b,0x00,0x07,0x2b,0x58,0x1e,
0x2b,0x00,0x06,0x32,0x00,0x0d,0x32,0x62,0x01,0x2b,0x59,0x24,0x39,0x00,0x04,0x2b,
0x00,0x07,0x39,0x69,0x00,0x2b,0x4f,0x25,0x32,0x00,0x0b,0x32,0x5e,0x1d,0x2b,0x00,
0x14,0x2b,0x4e,0x00,0x3b,0x4f,0x22,0x39,0x00,0x0c,0x39,0x58,0x20,0x32,0x00,0x11,
0x32,0x69,0x21,0x39,0x00,0x0f,0x39,0x5c,0x16,0x3b,0x00,0x19,0x28,0x60,0x04,0x2b,
0x00,0x0f,0x32,0x00,0x0e,0x39,0x00,0x03,0x28,0x00,0x0b,0x28,0x5d,0x02,0x2f,0x4d,
0x26,0x28,0x00,0x09,0x36,0x68,0x00,0x28,0x53,0x23,0x2f,0x00,0x0c,0x2f,0x5b,0x29,
0x28,0x00,0x09,0x37,0x69,0x00,0x28,0x54,0x24,0x36,0x00,0x0c,0x36,0x58,0x21,0x2f,
0x00,0x10,0x2f,0x5e,0x23,0x36,0x00,0x0b,0x36,0x52,0x24,0x37,0x00,0x0a,0x28,0x00,
0x04,0x28,0x56,0x1c,0x2f,0x00,0x03,0x28,0x00,0x0f,0x28,0x58,0x00,0x2f,0x60,0x23,
0x36,0x00,0x04,0x28,0x00,0x06,0x36,0x65,0x03,0x28,0x54,0x20,0x2f,0x00,0x11,0x2f,
0x62,0x24,0x28,0x00,0x0c,0x37,0x6a,0x00,0x28,0x50,0x21,0x36,0x00,0x0e,0x36,0x65,
0x22,0x2f,0x00,0x0d,0x2f,0x60,0x1e,0x36,0x00,0x13,0x36,0x5a,0x1b,0x2f,0x00,0x01,
0x28,0x00,0x10,0x36,0x00,0x04,0x30,0x69,0x1d,0x37,0x00,0x01,0x30,0x00,0x12,0x30,
0x54,0x01,0x37,0x68,0x23,0x30,0x00,0x0a,0x30,0x60,0x02,0x3e,0x68,0x23,0x37,0x00,
0x0d,0x37,0x5a,0x1f,0x30,0x00,0x0f,0x3c,0x66,0x02,0x30,0x56,0x04,0x3e,0x00,0x2c,
0x37,0x00,0x01,0x37,0x64,0x29,0x37,0x00,0x06,0x30,0x00,0x01,0x30,0x54,0x2e,0x37,
0x5c,0x1e,0x3c,0x00,0x06,0x30,0x00,0x0d,0x32,0x6c,0x1f,0x37,0x00,0x01,0x32,0x00,
0x11,0x32,0x60,0x00,0x39,0x59,0x2f,0x40,0x6a,0x1f,0x39,0x00,0x11,0x39,0x58,0x2c,
0x32,0x00,0x06,0x3e,0x68,0x01,0x32,0x56,0x2d,0x39,0x00,0x02,0x39,0x58,0x29,0x3e,
0x00,0x05,0x32,0x00,0x01,0x32,0x64,0x23,0x40,0x00,0x04,0x39,0x00,0x0a,0x39,0x51,
0x21,0x32,0x00,0x0d,0x2b,0x57,0x0b,0x39,0x00,0x18,0x2b,0x00,0x0e,0x32,0x63,0x01,
0x2b,0x56,0x26,0x2b,0x00,0x08,0x39,0x68,0x01,0x2b,0x53,0x23,0x32,0x00,0x0c,0x32,
0x6d,0x29,0x2b,0x00,0x07,0x3b,0x68,0x01,0x2b,0x44,0x25,0x39,0x00,0x0b,0x39,0x5b,
0x22,0x32,0x00,0x0d,0x32,0x6c,0x23,0x39,0x00,0x0e,0x39,0x54,0x23,0x3b,0x00,0x09,
0x2b,0x00,0x05,0x2b,0x4e,0x03,0x39,0x00,0x20,0x32,0x00,0x01,0x2b,0x00,0x0b,0x32,
0x6b,0x00,0x2b,0x5a,0x24,0x2b,0x00,0x0b,0x39,0x5c,0x01,0x2b,0x54,0x22,0x32,0x00,
0x0e,0x32,0x67,0x27,0x2b,0x00,0x09,0x2b,0x54,0x00,0x3b,0x6c,0x23,0x39,0x00,0x0c,
0x3b,0x00,0x01,0x39,0x65,0x23,0x32,0x00,0x0d,0x32,0x5e,0x2d,0x39,0x00,0x02,0x39,
0x55,0x1e,0x2b,0x00,0x0b,0x32,0x00,0x07,0x39,0x00,0x00,0x30,0x57,0x31,0x37,0x63,
0x2b,0x30,0x00,0x04,0x3e,0x68,0x01,0x30,0x53,0x23,0x37,0x00,0x0c,0x37,0x6d,0x29,
0x30,0x00,0x07,0x3c,0x68,0x01,0x30,0x44,0x22,0x37,0x00,0x03,0x3e,0x00,0x0b,0x37,
0x5b,0x2c,0x30,0x00,0x03,0x30,0x6c,0x2c,0x37,0x00,0x05,0x37,0x54,0x23,0x3c,0x00,
0x01,0x30,0x00,0x09,0x37,0x00,0x02,0x2e,0x57,0x31,0x37,0x63,0x2b,0x2e,0x00,0x04,
0x3c,0x68,0x01,0x2e,0x53,0x23,0x37,0x00,0x0c,0x37,0x6d,0x29,0x2e,0x00,0x07,0x3a,
0x68,0x01,0x2e,0x44,0x22,0x37,0x00,0x03,0x3c,0x00,0x0b,0x37,0x5b,0x2c,0x2e,0x00,
0x03,0x2e,0x6c,0x2c,0x37,0x00,0x05,0x37,0x54,0x24,0x2e,0x00,0x09,0x37,0x00,0x04,
0x2b,0x67,0x0a,0x3a,0x00,0x25,0x32,0x5f,0x2f,0x39,0x6c,0x01,0x2b,0x00,0x00,0x2b,
0x4f,0x23,0x32,0x00,0x0d,0x32,0x4e,0x22,0x2b,0x00,0x0c,0x2b,0x4f,0x02,0x3b,0x59,
0x24,0x39,0x00,0x0b,0x39,0x54,0x24,0x32,0x00,0x08,0x2b,0x00,0x05,0x32,0x4c,0x24,
0x39,0x00,0x0b,0x39,0x48,0x28,0x3b,0x00,0x08,0x2b,0x4b,0x29,0x32,0x00,0x07,0x2b,
0x00,0x01,0x32,0x5e,0x01,0x2b,0x4c,0x23,0x39,0x00,0x03,0x2b,0x00,0x08,0x39,0x5d,
0x02,0x2b,0x52,0x21,0x32,0x00,0x0f,0x32,0x4a,0x21,0x2b,0x00,0x0d,0x2b,0x4f,0x01,
0x3b,0x54,0x22,0x39,0x00,0x0d,0x39,0x48,0x24,0x32,0x00,0x0d,0x32,0x53,0x26,0x39,
0x00,0x0b,0x39,0x50,0x1e,0x2b,0x00,0x03,0x3b,0x00,0x0d,0x2d,0x4b,0x0c,0x32,0x00,
0x12,0x39,0x00,0x12,0x2d,0x00,0x01,0x34,0x5e,0x01,0x2d,0x4c,0x26,0x2d,0x00,0x08,
0x3b,0x5d,0x02,0x2d,0x52,0x21,0x34,0x00,0x0f,0x34,0x4a,0x21,0x2d,0x00,0x0d,0x2d,
0x4f,0x01,0x3d,0x5d,0x25,0x3b,0x00,0x0a,0x3b,0x48,0x0c,0x34,0x00,0x25,0x34,0x53,
0x26,0x3b,0x00,0x0b,0x3b,0x50,0x1e,0x2d,0x00,0x06,0x3d,0x00,0x0a,0x2d,0x4b,0x0c,
0x34,0x00,0x24,0x2d,0x00,0x01,0x34,0x5e,0x01,0x2d,0x4c,0x04,0x3b,0x00,0x22,0x2d,
0x00,0x08,0x3b,0x5d,0x02,0x2d,0x52,0x21,0x34,0x00,0x0f,0x34,0x4a,0x21,0x2d,0x00,
0x0d,0x2d,0x4f,0x01,0x3d,0x5e,0x23,0x3b,0x00,0x0c,0x3b,0x48,0x24,0x34,0x00,0x0d,
0x34,0x53,0x26,0x3b,0x00,0x0b,0x3b,0x50,0x1e,0x2d,0x00,0x10,0x32,0x4b,0x0c,0x34,
0x00,0x02,0x3d,0x00,0x10,0x3b,0x00,0x12,0x32,0x00,0x01,0x39,0x5e,0x01,0x32,0x4c,
0x26,0x32,0x00,0x08,0x40,0x62,0x02,0x32,0x52,0x21,0x39,0x00,0x0f,0x39,0x4a,0x21,
0x32,0x00,0x0d,0x32,0x4f,0x01,0x3e,0x5b,0x23,0x39,0x00,0x0c,0x39,0x48,0x0c,0x40,
0x00,0x14,0x32,0x00,0x11,0x32,0x53,0x26,0x39,0x00,0x0b,0x39,0x50,0x22,0x32,0x00,
0x02,0x39,0x00,0x08,0x3e,0x00,0x02,0x32,0x4b,0x30,0x32,0x00,0x01,0x39,0x5e,0x01,
0x32,0x4c,0x26,0x32,0x00,0x08,0x40,0x61,0x02,0x32,0x52,0x21,0x39,0x00,0x0f,0x39,
0x4a,0x21,0x32,0x00,0x0d,0x32,0x4f,0x01,0x3e,0x5e,0x23,0x39,0x00,0x0c,0x39,0x48,
0x0c,0x40,0x00,0x14,0x32,0x00,0x11,0x32,0x53,0x26,0x39,0x00,0x0b,0x39,0x50,0x22,
0x32,0x00,0x02,0x39,0x00,0x0c,0x2b,0x58,0x14,0x3e,0x00,0x18,0x2b,0x00,0x03,0x32,
0x60,0x00,0x2b,0x50,0x1e,0x2b,0x00,0x12,0x39,0x5c,0x01,0x2b,0x52,0x24,0x32,0x00,
0x0c,0x32,0x4d,0x1d,0x2b,0x00,0x12,0x3b,0x63,0x01,0x2b,0x4c,0x21,0x39,0x00,0x0d,
0x39,0x56,0x05,0x32,0x00,0x2c,0x32,0x5b,0x10,0x2b,0x00,0x0e,0x39,0x00,0x13,0x39,
0x56,0x2b,0x3b,0x00,0x03,0x2b,0x58,0x1e,0x2b,0x00,0x06,0x32,0x00,0x0d,0x32,0x62,
0x01,0x2b,0x59,0x24,0x39,0x00,0x04,0x2b,0x00,0x07,0x39,0x69,0x00,0x2b,0x4f,0x25,
0x32,0x00,0x0b,0x32,0x5e,0x1d,0x2b,0x00,0x14,0x2b,0x4e,0x00,0x3b,0x4f,0x22,0x39,
0x00,0x0c,0x39,0x58,0x20,0x32,0x00,0x11,0x32,0x69,0x21,0x39,0x00,0x0f,0x39,0x5c,
0x16,0x3b,0x00,0x19,0x28,0x60,0x04,0x2b,0x00,0x0f,0x32,0x00,0x0e,0x39,0x00,0x03,
0x28,0x00,0x0b,0x28,0x5d,0x02,0x2f,0x4d,0x26,0x28,0x00,0x09,0x36,0x68,0x00,0x28,
0x53,0x23,0x2f,0x00,0x0c,0x2f,0x5b,0x29,0x28,0x00,0x09,0x37,0x69,0x00,0x28,0x54,
0x24,0x36,0x00,0x0c,0x36,0x58,0x21,0x2f,0x00,0x10,0x2f,0x5e,0x23,0x36,0x00,0x0b,
0x36,0x52,0x2e,0x28,0x00,0x00,0x37,0x00,0x04,0x28,0x56,0x1c,0x2f,0x00,0x03,0x28,
0x00,0x0f,0x28,0x58,0x00,0x2f,0x60,0x23,0x36,0x00,0x04,0x28,0x00,0x06,0x36,0x65,
0x03,0x28,0x54,0x20,0x2f,0x00,0x11,0x2f,0x62,0x24,0x28,0x00,0x0c,0x37,0x6a,0x00,
0x28,0x50,0x21,0x36,0x00,0x0e,0x36,0x65,0x22,0x2f,0x00,0x0d,0x2f,0x60,0x1e,0x36,
0x00,0x13,0x36,0x5a,0x1b,0x2f,0x00,0x01,0x28,0x00,0x10,0x36,0x00,0x04,0x30,0x69,
0x1d,0x37,0x00,0x01,0x30,0x00,0x12,0x30,0x54,0x01,0x37,0x68,0x23,0x30,0x00,0x0a,
0x30,0x60,0x02,0x3e,0x68,0x23,0x37,0x00,0x0d,0x37,0x5a,0x1f,0x30,0x00,0x0f,0x3c,
0x66,0x02,0x30,0x56,0x04,0x3e,0x00,0x2c,0x37,0x00,0x01,0x37,0x64,0x29,0x37,0x00,
0x06,0x30,0x00,0x01,0x30,0x54,0x2e,0x37,0x5c,0x1e,0x3c,0x00,0x06,0x30,0x00,0x0d,
0x32,0x6c,0x1f,0x37,0x00,0x01,0x32,0x00,0x11,0x32,0x60,0x00,0x39,0x59,0x2f,0x40,
0x6a,0x1f,0x39,0x00,0x11,0x39,0x58,0x2c,0x32,0x00,0x06,0x3e,0x68,0x01,0x32,0x56,
0x2d,0x39,0x00,0x02,0x39,0x58,0x29,0x3e,0x00,0x05,0x32,0x00,0x01,0x32,0x64,0x23,
0x40,0x00,0x04,0x39,0x00,0x0a,0x39,0x51,0x21,0x32,0x00,0x0d,0x28,0x57,0x0b,0x39,
0x00,0x18,0x28,0x00,0x0e,0x2f,0x63,0x01,0x28,0x56,0x26,0x28,0x00,0x08,0x36,0x68,
0x01,0x28,0x53,0x23,0x2f,0x00,0x0c,0x2f,0x6d,0x29,0x28,0x00,0x07,0x28,0x44,0x00,
0x37,0x68,0x01,0x28,0x00,0x00,0x28,0x44,0x25,0x36,0x00,0x0b,0x36,0x5b,0x22,0x2f,
0x00,0x0d,0x2f,0x6c,0x23,0x36,0x00,0x0e,0x36,0x54,0x2c,0x28,0x00,0x05,0x28,0x4e,
0x03,0x36,0x00,0x00,0x37,0x00,0x20,0x2f,0x00,0x01,0x28,0x00,0x0b,0x2f,0x6b,0x00,
0x28,0x5a,0x24,0x28,0x00,0x0b,0x36,0x5c,0x01,0x28,0x54,0x22,0x2f,0x00,0x0e,0x2f,
0x67,0x27,0x28,0x00,0x09,0x28,0x54,0x00,0x37,0x6c,0x23,0x36,0x00,0x0c,0x37,0x00,
0x01,0x36,0x65,0x23,0x2f,0x00,0x0d,0x2f,0x5e,0x2d,0x36,0x00,0x02,0x36,0x55,0x1e,
0x28,0x00,0x0b,0x2f,0x00,0x07,0x36,0x00,0x9e,0x02,0x2b,0x58,0x2a,0x2b,0x00,0x05,
0x32,0x60,0x00,0x2b,0x50,0x1e,0x2b,0x00,0x12,0x39,0x5c,0x01,0x2b,0x52,0x24,0x32,
0x00,0x0c,0x32,0x4d,0x1d,0x2b,0x00,0x12,0x3b,0x63,0x01,0x2b,0x4c,0x21,0x39,0x00,
0x0d,0x39,0x56,0x1d,0x32,0x00,0x0c,0x2b,0x00,0x08,0x32,0x47,0x1e,0x39,0x00,0x13,
0x39,0x41,0x20,0x39,0x00,0x0e,0x2b,0x58,0x1e,0x2b,0x00,0x06,0x32,0x00,0x0d,0x32,
0x62,0x01,0x2b,0x59,0x24,0x3b,0x00,0x04,0x2b,0x00,0x07,0x39,0x69,0x00,0x2b,0x4f,
0x25,0x32,0x00,0x0b,0x32,0x5e,0x1d,0x2b,0x00,0x14,0x2b,0x4e,0x00,0x3b,0x4f,0x22,
0x39,0x00,0x0c,0x39,0x58,0x20,0x32,0x00,0x11,0x32,0x69,0x21,0x39,0x00,0x0f,0x39,
0x5c,0x16,0x3b,0x00,0x19,0x28,0x60,0x04,0x2b,0x00,0x0f,0x32,0x00,0x0e,0x39,0x00,
0x03,0x28,0x00,0x0b,0x28,0x5d,0x02,0x2f,0x4d,0x26,0x28,0x00,0x09,0x36,0x68,0x00,
0x28,0x53,0x23,0x2f,0x00,0x0c,0x2f,0x5b,0x29,0x28,0x00,0x09,0x37,0x69,0x00,0x28,
0x54,0x24,0x36,0x00,0x0c,0x36,0x58,0x21,0x2f,0x00,0x10,0x2f,0x5e,0x23,0x36,0x00,
0x0b,0x36,0x52,0x24,0x37,0x00,0x0a,0x28,0x00,0x04,0x28,0x56,0x1c,0x2f,0x00,0x03,
0x28,0x00,0x0f,0x28,0x58,0x00,0x2f,0x60,0x23,0x36,0x00,0x04,0x28,0x00,0x06,0x36,
0x65,0x03,0x28,0x54,0x20,0x2f,0x00,0x11,0x2f,0x62,0x24,0x28,0x00,0x0c,0x37,0x6a,
0x00,0x28,0x50,0x21,0x36,0x00,0x0e,0x36,0x65,0x22,0x2f,0x00,0x0d,0x2f,0x60,0x1e,
0x36,0x00,0x13,0x36,0x5a,0x1b,0x2f,0x00,0x01,0x28,0x00,0x10,0x36,0x00,0x04,0x30,
0x69,0x1d,0x37,0x00,0x01,0x30,0x00,0x12,0x30,0x54,0x01,0x37,0x68,0x23,0x30,0x00,
0x0a,0x30,0x60,0x02,0x3c,0x68,0x23,0x37,0x00,0x0d,0x37,0x5a,0x1c,0x3c,0x00,0x03,
0x30,0x00,0x0f,0x3e,0x66,0x02,0x30,0x56,0x30,0x37,0x00,0x01,0x37,0x64,0x29,0x37,
0x00,0x06,0x30,0x00,0x01,0x30,0x54,0x2e,0x37,0x5c,0x1e,0x3e,0x00,0x06,0x30,0x00,
0x0d,0x32,0x6c,0x1f,0x37,0x00,0x01,0x32,0x00,0x11,0x32,0x60,0x00,0x39,0x59,0x2f,
0x40,0x6a,0x1f,0x39,0x00,0x11,0x39,0x58,0x2c,0x32,0x00,0x06,0x3e,0x68,0x01,0x32,
0x56,0x2d,0x39,0x00,0x02,0x39,0x58,0x29,0x3e,0x00,0x05,0x32,0x00,0x01,0x32,0x64,
0x23,0x40,0x00,0x04,0x39,0x00,0x0a,0x39,0x51,0x21,0x32,0x00,0x0d,0x2b,0x57,0x0b,
0x39,0x00,0x18,0x2b,0x00,0x0e,0x32,0x63,0x01,0x2b,0x56,0x26,0x2b,0x00,0x08,0x39,
0x68,0x01,0x2b,0x53,0x23,0x32,0x00,0x0c,0x32,0x6d,0x29,0x2b,0x00,0x07,0x3b,0x68,
0x01,0x2b,0x44,0x25,0x39,0x00,0x0b,0x39,0x5b,0x22,0x32,0x00,0x0d,0x32,0x6c,0x23,
0x39,0x00,0x0e,0x39,0x54,0x23,0x3b,0x00,0x09,0x2b,0x00,0x05,0x2b,0x4e,0x03,0x39,
0x00,0x20,0x32,0x00,0x01,0x2b,0x00,0x0b,0x32,0x6b,0x00,0x2b,0x5a,0x24,0x2b,0x00,
0x0b,0x39,0x5c,0x01,0x2b,0x54,0x22,0x32,0x00,0x0e,0x32,0x67,0x27,0x2b,0x00,0x09,
0x2b,0x54,0x00,0x3b,0x6c,0x23,0x39,0x00,0x0c,0x3b,0x00,0x01,0x39,0x65,0x23,0x32,
0x00,0x0d,0x32,0x5e,0x2d,0x39,0x00,0x02,0x39,0x55,0x1e,0x2b,0x00,0x0b,0x32,0x00,
0x07,0x39,0x00,0x00,0x30,0x57,0x31,0x37,0x63,0x2b,0x30,0x00,0x04,0x3e,0x68,0x01,
0x30,0x53,0x23,0x37,0x00,0x0c,0x37,0x6d,0x29,0x30,0x00,0x07,0x3c,0x68,0x01,0x30,
0x44,0x22,0x37,0x00,0x03,0x3e,0x00,0x0b,0x37,0x5b,0x2c,0x30,0x00,0x03,0x30,0x6c,
0x24,0x3c,0x00,0x08,0x37,0x00,0x05,0x37,0x54,0x24,0x30,0x00,0x09,0x37,0x00,0x02,
0x2e,0x57,0x31,0x37,0x63,0x2b,0x2e,0x00,0x04,0x3c,0x68,0x01,0x2e,0x53,0x23,0x37,
0x00,0x0c,0x37,0x6d,0x29,0x2e,0x00,0x07,0x3a,0x68,0x01,0x2e,0x44,0x22,0x37,0x00,
0x03,0x3c,0x00,0x0b,0x37,0x5b,0x2c,0x2e,0x00,0x03,0x2e,0x6c,0x24,0x3a,0x00,0x08,
0x37,0x00,0x05,0x37,0x54,0x24,0x2e,0x00,0x09,0x37,0x00,0x04,0x2b,0x67,0x2f,0x32,
0x5f,0x2f,0x39,0x6c,0x01,0x2b,0x00,0x00,0x2b,0x4f,0x23,0x32,0x00,0x0d,0x32,0x4e,
0x22,0x2b,0x00,0x0c,0x2b,0x4f,0x02,0x3b,0x4c,0x24,0x39,0x00,0x0b,0x39,0x54,0x24,
0x32,0x00,0x0d,0x32,0x4c,0x24,0x39,0x00,0x0b,0x39,0x48,0x28,0x3b,0x00,0x04,0x2b,
0x00,0x04,0x2b,0x4b,0x29,0x32,0x00,0x07,0x2b,0x00,0x01,0x32,0x5e,0x01,0x2b,0x4c,
0x23,0x39,0x00,0x03,0x2b,0x00,0x08,0x39,0x5d,0x02,0x2b,0x52,0x21,0x32,0x00,0x0f,
0x32,0x4a,0x21,0x2b,0x00,0x0d,0x2b,0x4f,0x01,0x3b,0x54,0x22,0x39,0x00,0x0d,0x39,
0x48,0x24,0x32,0x00,0x0d,0x32,0x53,0x26,0x39,0x00,0x0b,0x39,0x50,0x1e,0x2b,0x00,
0x03,0x3b,0x00,0x0d,0x2d,0x4b,0x0c,0x32,0x00,0x12,0x39,0x00,0x12,0x2d,0x00,0x01,
0x34,0x5e,0x01,0x2d,0x4c,0x26,0x2d,0x00,0x08,0x3b,0x5d,0x02,0x2d,0x52,0x21,0x34,
0x00,0x0f,0x34,0x4a,0x21,0x2d,0x00,0x0d,0x2d,0x4f,0x01,0x3d,0x54,0x25,0x3b,0x00,
0x0a,0x3b,0x48,0x24,0x34,0x00,0x0d,0x34,0x53,0x26,0x3b,0x00,0x0b,0x3b,0x50,0x1e,
0x2d,0x00,0x06,0x3d,0x00,0x0a,0x2d,0x4b,0x0c,0x34,0x00,0x24,0x2d,0x00,0x01,0x34,
0x5e,0x01,0x2d,0x4c,0x04,0x3b,0x00,0x22,0x2d,0x00,0x08,0x3b,0x5d,0x02,0x2d,0x52,
0x21,0x34,0x00,0x0f,0x34,0x4a,0x21,0x2d,0x00,0x0d,0x2d,0x4f,0x01,0x3d,0x54,0x23,
0x3b,0x00,0x0c,0x3b,0x48,0x24,0x34,0x00,0x0d,0x34,0x53,0x26,0x3b,0x00,0x0b,0x3b,
0x50,0x1e,0x2d,0x00,0x10,0x32,0x4b,0x0c,0x34,0x00,0x02,0x3d,0x00,0x10,0x3b,0x00,
0x12,0x32,0x00,0x01,0x39,0x5e,0x01,0x32,0x4c,0x26,0x32,0x00,0x08,0x40,0x5d,0x02,
0x32,0x52,0x21,0x39,0x00,0x0f,0x39,0x4a,0x21,0x32,0x00,0x0d,0x32,0x4f,0x01,0x3e,
0x54,0x23,0x39,0x00,0x0c,0x39,0x48,0x0c,0x40,0x00,0x14,0x32,0x00,0x11,0x32,0x53,
0x26,0x39,0x00,0x07,0x3e,0x00,0x04,0x39,0x50,0x22,0x32,0x00,0x02,0x39,0x00,0x0a,
0x32,0x4b,0x30,0x32,0x00,0x01,0x39,0x5e,0x01,0x32,0x4c,0x26,0x32,0x00,0x08,0x40,
0x5d,0x02,0x32,0x52,0x21,0x39,0x00,0x0f,0x39,0x4a,0x21,0x32,0x00,0x0d,0x32,0x4f,
0x01,0x3e,0x54,0x23,0x39,0x00,0x0c,0x39,0x48,0x0c,0x40,0x00,0x14,0x32,0x00,0x11,
0x32,0x53,0x26,0x39,0x00,0x07,0x3e,0x00,0x04,0x39,0x50,0x22,0x32,0x00,0x02,0x39,
0x00,0x0c,0x2b,0x51,0x05,0x2b,0x00,0x2a,0x32,0x60,0x00,0x2b,0x50,0x1e,0x2b,0x00,
0x12,0x39,0x5c,0x01,0x2b,0x52,0x24,0x32,0x00,0x0c,0x32,0x4d,0x1d,0x2b,0x00,0x12,
0x3b,0x63,0x01,0x2b,0x4c,0x21,0x39,0x00,0x0d,0x39,0x56,0x1d,0x32,0x00,0x14,0x32,
0x5b,0x1e,0x39,0x00,0x13,0x39,0x56,0x27,0x2b,0x00,0x07,0x2b,0x58,0x1e,0x2b,0x00,
0x06,0x32,0x00,0x0d,0x32,0x62,0x01,0x2b,0x59,0x24,0x39,0x00,0x04,0x2b,0x00,0x07,
0x39,0x69,0x00,0x2b,0x4f,0x25,0x32,0x00,0x0b,0x32,0x5e,0x1d,0x2b,0x00,0x04,0x3b,
0x00,0x10,0x2b,0x4e,0x00,0x3b,0x4f,0x22,0x39,0x00,0x0c,0x39,0x58,0x20,0x32,0x00,
0x11,0x32,0x69,0x21,0x39,0x00,0x0f,0x39,0x5c,0x16,0x3b,0x00,0x19,0x28,0x60,0x04,
0x2b,0x00,0x0f,0x32,0x00,0x0e,0x39,0x00,0x03,0x28,0x00,0x0b,0x28,0x5d,0x02,0x2f,
0x4d,0x26,0x28,0x00,0x09,0x36,0x68,0x00,0x28,0x53,0x23,0x2f,0x00,0x0c,0x2f,0x5b,
0x29,0x28,0x00,0x09,0x37,0x69,0x00,0x28,0x54,0x24,0x36,0x00,0x0c,0x36,0x58,0x21,
0x2f,0x00,0x10,0x2f,0x5e,0x23,0x36,0x00,0x0b,0x36,0x52,0x2e,0x28,0x00,0x04,0x28,
0x56,0x1c,0x2f,0x00,0x03,0x28,0x00,0x0f,0x28,0x58,0x00,0x2f,0x60,0x23,0x36,0x00,
0x04,0x28,0x00,0x06,0x36,0x65,0x03,0x28,0x54,0x20,0x2f,0x00,0x11,0x2f,0x62,0x23,
0x37,0x00,0x01,0x28,0x00,0x0c,0x37,0x6a,0x00,0x28,0x50,0x21,0x36,0x00,0x0e,0x36,
0x65,0x22,0x2f,0x00,0x0d,0x2f,0x60,0x1e,0x36,0x00,0x13,0x36,0x5a,0x1b,0x2f,0x00,
0x01,0x28,0x00,0x10,0x36,0x00,0x04,0x30,0x69,0x1d,0x37,0x00,0x01,0x30,0x00,0x12,
0x30,0x54,0x01,0x37,0x68,0x23,0x30,0x00,0x0a,0x30,0x60,0x02,0x3e,0x68,0x23,0x37,
0x00,0x0d,0x37,0x5a,0x1f,0x30,0x00,0x0f,0x3c,0x66,0x02,0x30,0x56,0x04,0x3e,0x00,
0x2c,0x37,0x00,0x01,0x37,0x64,0x29,0x37,0x00,0x06,0x30,0x00,0x01,0x30,0x54,0x2e,
0x37,0x5c,0x1e,0x3c,0x00,0x06,0x30,0x00,0x0d,0x32,0x6c,0x1f,0x37,0x00,0x01,0x32,
0x00,0x11,0x32,0x60,0x00,0x39,0x59,0x2f,0x40,0x6a,0x1f,0x39,0x00,0x11,0x39,0x58,
0x2c,0x32,0x00,0x06,0x3e,0x68,0x01,0x32,0x56,0x2d,0x39,0x00,0x02,0x39,0x58,0x29,
0x3e,0x00,0x05,0x32,0x00,0x01,0x32,0x64,0x23,0x40,0x00,0x04,0x39,0x00,0x0a,0x39,
0x51,0x21,0x32,0x00,0x0d,0x28,0x57,0x0b,0x39,0x00,0x18,0x28,0x00,0x0e,0x2f,0x63,
0x01,0x28,0x56,0x26,0x28,0x00,0x08,0x36,0x68,0x01,0x28,0x53,0x23,0x2f,0x00,0x0c,
0x2f,0x6d,0x29,0x28,0x00,0x07,0x37,0x68,0x01,0x28,0x44,0x25,0x36,0x00,0x0b,0x36,
0x5b,0x22,0x2f,0x00,0x0d,0x2f,0x6c,0x23,0x36,0x00,0x0e,0x36,0x54,0x23,0x37,0x00,
0x09,0x28,0x00,0x05,0x28,0x4e,0x03,0x36,0x00,0x20,0x2f,0x00,0x01,0x28,0x00,0x0b,
0x2f,0x6b,0x00,0x28,0x5a,0x24,0x28,0x00,0x0b,0x36,0x5c,0x01,0x28,0x54,0x22,0x2f,
0x00,0x0e,0x2f,0x67,0x27,0x28,0x00,0x09,0x28,0x54,0x00,0x37,0x6c,0x23,0x36,0x00,
0x0d,0x36,0x65,0x23,0x2f,0x00,0x0d,0x2f,0x5e,0x2d,0x36,0x00,0x02,0x37,0x00,0x00,
0x36,0x55,0x1e,0x28,0x00,0x0b,0x2f,0x00,0x07,0x36,0x00,0x00,0x30,0x69,0x1e,0x30,
0x00,0x12,0x30,0x54,0x01,0x37,0x68,0x23,0x30,0x00,0x0a,0x30,0x60,0x02,0x3e,0x68,
0x23,0x37,0x00,0x0d,0x37,0x5a,0x1f,0x30,0x00,0x0f,0x3c,0x66,0x02,0x30,0x56,0x04,
0x3e,0x00,0x2c,0x37,0x00,0x01,0x37,0x64,0x29,0x37,0x00,0x06,0x30,0x00,0x01,0x30,
0x54,0x2e,0x37,0x5c,0x1e,0x3c,0x00,0x06,0x30,0x00,0x0d,0x32,0x6c,0x1f,0x37,0x00,
0x01,0x32,0x00,0x11,0x32,0x60,0x00,0x39,0x59,0x2f,0x40,0x6a,0x1f,0x39,0x00,0x11,
0x39,0x58,0x2c,0x32,0x00,0x06,0x3e,0x68,0x01,0x32,0x56,0x2d,0x39,0x00,0x02,0x39,
0x58,0x29,0x3e,0x00,0x05,0x32,0x00,0x01,0x32,0x64,0x23,0x40,0x00,0x04,0x39,0x00,
0x0a,0x39,0x51,0x21,0x32,0x00,0x0d,0x28,0x57,0x0b,0x39,0x00,0x18,0x28,0x00,0x0e,
0x2f,0x63,0x01,0x28,0x56,0x26,0x28,0x00,0x08,0x36,0x68,0x01,0x28,0x53,0x23,0x2f,
0x00,0x0c,0x2f,0x6d,0x29,0x28,0x00,0x07,0x37,0x68,0x01,0x28,0x44,0x25,0x36,0x00,
0x0b,0x36,0x5b,0x22,0x2f,0x00,0x0d,0x2f,0x6c,0x23,0x36,0x00,0x0e,0x36,0x54,0x23,
0x37,0x00,0x09,0x28,0x00,0x05,0x28,0x4e,0x03,0x36,0x00,0x20,0x2f,0x00,0x01,0x28,
0x00,0x0b,0x2f,0x6b,0x00,0x28,0x5a,0x24,0x28,0x00,0x0b,0x36,0x5c,0x01,0x28,0x54,
0x22,0x2f,0x00,0x0e,0x2f,0x67,0x27,0x28,0x00,0x09,0x28,0x54,0x00,0x37,0x6c,0x23,
0x36,0x00,0x0d,0x36,0x65,0x23,0x2f,0x00,0x0d,0x2f,0x5e,0x2d,0x36,0x00,0x02,0x36,
0x55,0x18,0x37,0x00,0x06,0x28,0x00,0x0b,0x2f,0x00,0x07,0x36,0x00,0x00,0x28,0x57,
0x23,0x28,0x00,0x0e,0x2f,0x63,0x01,0x28,0x56,0x26,0x28,0x00,0x08,0x36,0x68,0x01,
0x28,0x53,0x23,0x2f,0x00,0x0c,0x2f,0x6d,0x29,0x28,0x00,0x07,0x37,0x68,0x01,0x28,
0x44,0x25,0x36,0x00,0x0b,0x36,0x5b,0x22,0x2f,0x00,0x0d,0x2f,0x6c,0x23,0x36,0x00,
0x0e,0x36,0x54,0x23,0x37,0x00,0x09,0x28,0x00,0x05,0x28,0x4e,0x03,0x36,0x00,0x20,
0x2f,0x00,0x01,0x28,0x00,0x0b,0x2f,0x6b,0x00,0x28,0x5a,0x24,0x28,0x00,0x0b,0x36,
0x5c,0x01,0x28,0x54,0x22,0x2f,0x00,0x0e,0x2f,0x67,0x27,0x28,0x00,0x09,0x28,0x54,
0x00,0x37,0x6c,0x23,0x36,0x00,0x0d,0x36,0x65,0x23,0x2f,0x00,0x0d,0x2f,0x5e,0x2d,
0x36,0x00,0x02,0x36,0x55,0x18,0x37,0x00,0x06,0x28,0x00,0x0b,0x2f,0x00,0x07,0x36,
0x00,0x00,0x2b,0x69,0x1e,0x2b,0x00,0x12,0x2b,0x54,0x01,0x32,0x68,0x23,0x2b,0x00,
0x0a,0x2b,0x60,0x02,0x39,0x68,0x23,0x32,0x00,0x0d,0x32,0x5a,0x1f,0x2b,0x00,0x0f,
0x3b,0x66,0x02,0x2b,0x56,0x04,0x39,0x00,0x2c,0x32,0x00,0x01,0x32,0x64,0x29,0x32,
0x00,0x06,0x2b,0x00,0x01,0x2b,0x54,0x2e,0x32,0x5c,0x1e,0x3b,0x00,0x06,0x2b,0x00,
0x0d,0x2b,0x6c,0x1f,0x2b,0x00,0x01,0x32,0x00,0x11,0x2b,0x60,0x00,0x32,0x59,0x2f,
0x39,0x6a,0x1f,0x32,0x00,0x11,0x32,0x58,0x2c,0x2b,0x00,0x06,0x3b,0x68,0x01,0x2b,
0x56,0x2d,0x32,0x00,0x02,0x32,0x58,0x29,0x3b,0x00,0x05,0x2b,0x00,0x01,0x2b,0x64,
0x23,0x39,0x00,0x04,0x32,0x00,0x0a,0x32,0x51,0x21,0x2b,0x00,0x0d,0x28,0x57,0x0b,
0x32,0x00,0x18,0x28,0x00,0x0e,0x2f,0x63,0x01,0x28,0x56,0x26,0x28,0x00,0x08,0x36,
0x68,0x01,0x28,0x53,0x23,0x2f,0x00,0x0c,0x2f,0x6d,0x29,0x28,0x00,0x07,0x37,0x68,
0x01,0x28,0x44,0x25,0x36,0x00,0x0b,0x36,0x5b,0x22,0x2f,0x00,0x0d,0x2f,0x6c,0x23,
0x36,0x00,0x0e,0x36,0x54,0x23,0x37,0x00,0x09,0x28,0x00,0x05,0x30,0x4e,0x03,0x36,
0x00,0x20,0x2f,0x00,0x01,0x30,0x00,0x0b,0x37,0x6b,0x00,0x30,0x5a,0x24,0x30,0x00,
0x0b,0x3e,0x5c,0x01,0x30,0x54,0x22,0x37,0x00,0x0e,0x37,0x67,0x27,0x30,0x00,0x09,
0x30,0x54,0x00,0x3c,0x6c,0x23,0x3e,0x00,0x0d,0x37,0x00,0x00,0x37,0x65,0x1d,0x30,
0x00,0x13,0x30,0x5e,0x0b,0x37,0x00,0x24,0x3c,0x00,0x00,0x37,0x55,0x29,0x30,0x00,
0x07,0x37,0x00,0x00,0x2b,0x69,0x1e,0x2b,0x00,0x12,0x2b,0x54,0x01,0x32,0x68,0x23,
0x2b,0x00,0x0a,0x2b,0x60,0x02,0x39,0x68,0x23,0x32,0x00,0x0d,0x32,0x5a,0x1f,0x2b,
0x00,0x0f,0x3b,0x66,0x02,0x2b,0x56,0x04,0x39,0x00,0x2c,0x32,0x00,0x01,0x32,0x64,
0x29,0x32,0x00,0x06,0x2b,0x00,0x01,0x2b,0x54,0x2e,0x32,0x5c,0x1e,0x3b,0x00,0x06,
0x2b,0x00,0x0d,0x2b,0x6c,0x1f,0x2b,0x00,0x01,0x32,0x00,0x11,0x2b,0x60,0x00,0x32,
0x59,0x2f,0x39,0x6a,0x1f,0x32,0x00,0x11,0x32,0x58,0x2c,0x2b,0x00,0x06,0x3b,0x68,
0x01,0x2b,0x56,0x2d,0x32,0x00,0x02,0x32,0x58,0x29,0x3b,0x00,0x05,0x2b,0x00,0x01,
0x2b,0x64,0x23,0x39,0x00,0x04,0x32,0x00,0x0a,0x32,0x51,0x21,0x2b,0x00,0x0d,0x28,
0x57,0x0b,0x32,0x00,0x18,0x28,0x00,0x0e,0x2f,0x63,0x01,0x28,0x56,0x26,0x28,0x00,
0x08,0x36,0x68,0x01,0x28,0x53,0x23,0x2f,0x00,0x0c,0x2f,0x6d,0x29,0x28,0x00,0x07,
0x37,0x68,0x01,0x28,0x44,0x25,0x36,0x00,0x0b,0x36,0x5b,0x22,0x2f,0x00,0x0d,0x2f,
0x6c,0x23,0x36,0x00,0x0e,0x36,0x54,0x23,0x37,0x00,0x09,0x28,0x00,0x05,0x30,0x4e,
0x03,0x36,0x00,0x20,0x2f,0x00,0x01,0x30,0x00,0x0b,0x37,0x6b,0x00,0x30,0x5a,0x24,
0x30,0x00,0x0b,0x3e,0x5c,0x01,0x30,0x54,0x22,0x37,0x00,0x0e,0x37,0x67,0x27,0x30,
0x00,0x09,0x30,0x54,0x00,0x3c,0x6c,0x23,0x3e,0x00,0x0d,0x37,0x00,0x00,0x37,0x65,
0x1d,0x30,0x00,0x13,0x30,0x5e,0x0b,0x37,0x00,0x24,0x3c,0x00,0x00,0x37,0x55,0x29,
0x30,0x00,0x07,0x37,0x00,0x00,0x2b,0x69,0x1e,0x2b,0x00,0x12,0x2b,0x54,0x01,0x32,
0x68,0x23,0x2b,0x00,0x0a,0x2b,0x60,0x02,0x39,0x68,0x23,0x32,0x00,0x0d,0x32,0x5a,
0x1f,0x2b,0x00,0x0f,0x3b,0x66,0x02,0x2b,0x56,0x04,0x39,0x00,0x2c,0x32,0x00,0x01,
0x32,0x64,0x29,0x32,0x00,0x06,0x2b,0x00,0x01,0x2b,0x54,0x2e,0x32,0x5c,0x1e,0x3b,
0x00,0x06,0x2b,0x00,0x0d,0x2b,0x6c,0x1f,0x2b,0x00,0x01,0x32,0x00,0x11,0x2b,0x60,
0x00,0x32,0x59,0x2f,0x39,0x6a,0x1f,0x32,0x00,0x11,0x32,0x58,0x2c,0x2b,0x00,0x06,
0x3b,0x68,0x01,0x2b,0x56,0x2d,0x32,0x00,0x02,0x32,0x58,0x29,0x3b,0x00,0x05,0x2b,
0x00,0x01,0x2b,0x64,0x23,0x39,0x00,0x04,0x32,0x00,0x0a,0x32,0x51,0x21,0x2b,0x00,
0x0d,0x28,0x57,0x0b,0x32,0x00,0x08,0xb4,0x0b,0x7d,0x0a,0x0b,0x7b,0x06,0x94,0x28,
0x00,0x0e,0x2f,0x63,0x01,0x28,0x56,0x1c,0xb4,0x0b,0x79,0x0a,0x94,0x28,0x00,0x08,
0x36,0x68,0x01,0x28,0x53,0x23,0x2f,0x00,0x0c,0x2f,0x6d,0x12,0xb4,0x0b,0x77,0x17,
0x94,0x28,0x00,0x07,0x37,0x68,0x01,0x28,0x44,0x25,0x36,0x00,0x0b,0x36,0x5b,0x1b,
0xb4,0x0b,0x75,0x07,0x94,0x2f,0x00,0x0d,0x2f,0x6c,0x1a,0xb4,0x0b,0x73,0x09,0x94,
0x36,0x00,0x0e,0x36,0x54,0x16,0xb4,0x0b,0x71,0x0a,0x0b,0x6f,0x03,0x94,0x37,0x00,
0x07,0xb4,0x0b,0x6d,0x02,0x94,0x28,0x00,0x05,0x30,0x4e,0x01,0xb4,0x0b,0x6b,0x02,
0x94,0x36,0x00,0x06,0xb4,0x0b,0x69,0x19,0x0b,0x67,0x01,0x94,0x2f,0x00,0x01,0x30,
0x00,0x0b,0x37,0x6b,0x00,0x30,0x5a,0x0c,0xb4,0x0b,0x65,0x18,0x94,0x30,0x00,0x06,
0xb4,0x0b,0x63,0x05,0x94,0x3e,0x5c,0x01,0x30,0x54,0x1f,0xb4,0x0b,0x61,0x03,0x94,
0x37,0x00,0x0e,0x37,0x67,0x09,0xb4,0x0b,0x5f,0x1e,0x94,0x30,0x00,0x09,0x30,0x54,
0x00,0x3c,0x6c,0x20,0xb4,0x0b,0x5d,0x03,0x94,0x3e,0x00,0x0d,0x37,0x00,0x00,0x37,
0x65,0x1d,0x30,0x00,0x02,0xb4,0x0b,0x5b,0x11,0x94,0x30,0x5e,0x0b,0x37,0x00,0x24,
0x3c,0x00,0x00,0x37,0x55,0x08,0xb4,0x0b,0x59,0x21,0x94,0x30,0x00,0x07,0x37,0x00,
0x00,0x2b,0x69,0x01,0xb4,0x0b,0x57,0x1d,0x94,0x2b,0x00,0x12,0x2b,0x54,0x01,0x32,
0x68,0x04,0xb4,0x0b,0x55,0x16,0x0b,0x53,0x09,0x94,0x2b,0x00,0x0a,0x2b,0x60,0x02,
0x39,0x68,0x1b,0xb4,0x0b,0x51,0x08,0x94,0x32,0x00,0x0c,0xb4,0x0b,0x4f,0x01,0x94,
0x32,0x5a,0x17,0xb4,0x0b,0x4d,0x08,0x94,0x2b,0x00,0x0f,0x3b,0x66,0x02,0x2b,0x56,
0x01,0xb4,0x0b,0x4b,0x03,0x94,0x39,0x00,0x10,0xb4,0x0b,0x49,0x1c,0x94,0x32,0x00,
0x01,0x32,0x64,0x1f,0xb4,0x0b,0x47,0x0a,0x94,0x32,0x00,0x06,0x2b,0x00,0x01,0x2b,
0x54,0x23,0xb4,0x0b,0x45,0x0b,0x94,0x32,0x5c,0x10,0xb4,0x0b,0x43,0x0e,0x94,0x3b,
0x00,0x06,0x2b,0x00,0x0d,0x2b,0x6c,0x0a,0xb4,0x0b,0x41,0x15,0x94,0x2b,0x00,0x01,
0x32,0x00,0x11,0x2b,0x60,0x00,0x32,0x59,0x01,0xb4,0x0b,0x3f,0x23,0x0b,0x3d,0x0b,
0x94,0x39,0x6a,0x1d,0xb4,0x0b,0x3b,0x02,0x94,0x32,0x00,0x11,0x32,0x58,0x0d,0xb4,
0x0b,0x39,0x10,0x0b,0x37,0x0f,0x94,0x2b,0x00,0x06,0x3b,0x68,0x01,0x2b,0x56,0x01,
0xb4,0x0b,0x35,0x15,0x0b,0x33,0x0d,0x0b,0x31,0x0a,0x94,0x32,0x00,0x02,0x32,0x58,
0x02,0xb4,0x0b,0x2f,0x0b,0x0b,0x2d,0x1c,0x94,0x3b,0x00,0x01,0xb4,0x0b,0x2b,0x04,
0x94,0x2b,0x00,0x01,0x2b,0x64,0x0e,0xb4,0x0b,0x29,0x09,0x0b,0x27,0x0c,0x94,0x39,
0x00,0x01,0xb4,0x0b,0x25,0x03,0x94,0x32,0x00,0x09,0xb4,0x0b,0x23,0x01,0x94,0x32,
0x51,0x11,0xb4,0x0b,0x21,0x09,0x0b,0x1f,0x07,0x94,0x2b,0x00,0x08,0xb4,0x0b,0x1d,
0x05,0x94,0x28,0x57,0x07,0xb4,0x0b,0x1b,0x04,0x94,0x32,0x00,0x06,0xb4,0x0b,0x19,
0x09,0x0b,0x17,0x09,0x94,0x28,0x00,0x09,0xb4,0x0b,0x15,0x05,0x94,0x2f,0x63,0x01,
0x28,0x56,0x0e,0xb4,0x0b,0x13,0x0c,0x0b,0x11,0x0c,0x94,0x28,0x00,0x00,0xb4,0x0b,
0x0f,0x08,0x94,0x36,0x68,0x01,0x28,0x53,0x01,0xb4,0x0b,0x0d,0x09,0x0b,0x0b,0x0c,
0x0b,0x09,0x0d,0x94,0x2f,0x00,0x05,0xb4,0x0b,0x05,0x07,0x94,0x2f,0x6d,0x0b,0xb4,
0x0b,0x00,0x1e,0x94,0x28,0x00,0x2d,0x36,0x00,0x2d,0x2f,0x00,0x00,0xff,0x2f,0x00,
0x4d,0x54,0x72,0x6b,0x00,0x00,0x03,0xd1,0x00,0xff,0x21,0x01,0x00,0x00,0xb5,0x00,
0x00,0x00,0xc5,0x1d,0x00,0xb5,0x07,0x6e,0x00,0xb5,0x5b,0x55,0x00,0x5d,0x32,0x7c,
0x0b,0x7f,0xff,0x52,0x95,0x27,0x78,0x01,0x33,0x7f,0x01,0x2e,0x68,0x05,0x33,0x00,
0x00,0x27,0x00,0x02,0x2e,0x00,0x0f,0x33,0x62,0x01,0x27,0x7b,0x01,0x2e,0x76,0x09,
0x33,0x00,0x01,0x27,0x00,0x02,0x2e,0x00,0x0b,0x27,0x62,0x03,0x2e,0x65,0x05,0x33,
0x67,0x03,0x3a,0x66,0x81,0x0b,0xb5,0x01,0x08,0x09,0x01,0x0b,0x09,0x01,0x0e,0x09,
0x01,0x13,0x09,0x01,0x18,0x0d,0x01,0x19,0x09,0x01,0x1d,0x0a,0x01,0x20,0x09,0x01,
0x25,0x09,0x01,0x29,0x09,0x01,0x2c,0x0d,0x01,0x2e,0x09,0x01,0x30,0x0e,0x01,0x31,
0x23,0x01,0x33,0x17,0x01,0x34,0x0d,0x01,0x36,0x09,0x01,0x39,0x09,0x01,0x3b,0x09,
0x01,0x3c,0x0d,0x01,0x3e,0x12,0x01,0x41,0x12,0x01,0x43,0x36,0x01,0x44,0x16,0x01,
0x41,0x09,0x01,0x40,0x0d,0x01,0x3c,0x0a,0x01,0x39,0x0d,0x01,0x38,0x0e,0x01,0x34,
0x0d,0x01,0x33,0x28,0x01,0x2e,0x09,0x01,0x29,0x0e,0x01,0x25,0x09,0x01,0x21,0x09,
0x01,0x1b,0x09,0x01,0x16,0x09,0x01,0x0e,0x09,0x01,0x08,0x02,0x95,0x2e,0x00,0x07,
0xb5,0x01,0x00,0x0c,0x95,0x27,0x00,0x1e,0x33,0x00,0x01,0x3a,0x00,0x19,0x29,0x72,
0x03,0x30,0x75,0x03,0x35,0x78,0x02,0x3c,0x77,0x81,0x35,0xb5,0x01,0x03,0x09,0x01,
0x05,0x09,0x01,0x06,0x09,0x01,0x0a,0x0a,0x01,0x0d,0x0d,0x01,0x11,0x09,0x01,0x13,
0x09,0x01,0x18,0x0e,0x01,0x1d,0x09,0x01,0x20,0x09,0x01,0x23,0x09,0x01,0x26,0x0d,
0x01,0x28,0x0a,0x01,0x29,0x11,0x01,0x2b,0x28,0x01,0x2c,0x6b,0x01,0x2e,0x16,0x01,
0x30,0x24,0x95,0x30,0x00,0x0f,0x29,0x00,0x13,0x35,0x00,0x32,0xb5,0x01,0x2c,0x09,
0x01,0x1b,0x09,0x01,0x0a,0x09,0x01,0x00,0x48,0x95,0x3c,0x00,0x2a,0x27,0x6b,0x02,
0x2e,0x6e,0x03,0x33,0x6b,0x03,0x3a,0x72,0x81,0x72,0xb5,0x01,0x03,0x09,0x01,0x08,
0x09,0x01,0x0b,0x0d,0x01,0x0e,0x0e,0x01,0x11,0x09,0x01,0x15,0x09,0x01,0x16,0x09,
0x01,0x19,0x0e,0x01,0x1d,0x09,0x01,0x20,0x0d,0x01,0x23,0x0e,0x01,0x26,0x09,0x01,
0x28,0x0d,0x01,0x2b,0x0e,0x01,0x2c,0x09,0x01,0x2e,0x0d,0x01,0x31,0x09,0x01,0x33,
0x09,0x01,0x34,0x09,0x01,0x36,0x12,0x01,0x38,0x0d,0x01,0x39,0x1b,0x01,0x3b,0x04,
0x95,0x2e,0x00,0x0e,0x27,0x00,0x00,0xb5,0x01,0x3c,0x21,0x95,0x33,0x00,0x2b,0xb5,
0x01,0x39,0x09,0x01,0x38,0x09,0x01,0x26,0x09,0x01,0x0d,0x09,0x01,0x00,0x62,0x95,
0x3a,0x00,0x19,0x29,0x6c,0x03,0x30,0x74,0x02,0x35,0x70,0x03,0x3c,0x78,0x81,0x38,
0xb5,0x01,0x06,0x09,0x01,0x0d,0x09,0x01,0x10,0x09,0x01,0x13,0x09,0x01,0x18,0x09,
0x01,0x1b,0x09,0x01,0x20,0x09,0x01,0x21,0x0e,0x01,0x23,0x09,0x01,0x25,0x09,0x01,
0x28,0x09,0x01,0x29,0x09,0x01,0x2c,0x09,0x01,0x30,0x12,0x01,0x31,0x0d,0x01,0x33,
0x09,0x01,0x34,0x0e,0x01,0x36,0x08,0x01,0x38,0x0e,0x01,0x39,0x28,0x01,0x3b,0x12,
0x01,0x3c,0x12,0x01,0x3e,0x1a,0x01,0x40,0x24,0x95,0x30,0x00,0x0f,0x35,0x00,0x02,
0x29,0x00,0x36,0xb5,0x01,0x39,0x09,0x01,0x2c,0x09,0x01,0x18,0x09,0x01,0x0b,0x09,
0x01,0x00,0x54,0x95,0x3c,0x00,0x06,0x2e,0x7c,0x02,0x33,0x7f,0x01,0x3a,0x7e,0x05,
0x2e,0x00,0x02,0x33,0x00,0x01,0x3a,0x00,0x0e,0x3a,0x65,0x01,0x33,0x6a,0x01,0x2e,
0x68,0x05,0x3a,0x00,0x01,0x33,0x00,0x03,0x2e,0x00,0x0b,0x27,0x74,0x02,0x2e,0x78,
0x04,0x33,0x76,0x02,0x3a,0x79,0x81,0x3c,0xb5,0x01,0x03,0x09,0x01,0x06,0x09,0x01,
0x0a,0x09,0x01,0x0d,0x12,0x01,0x10,0x09,0x01,0x13,0x09,0x01,0x15,0x09,0x01,0x18,
0x09,0x01,0x1b,0x09,0x01,0x1d,0x09,0x01,0x20,0x1b,0x01,0x23,0x12,0x01,0x26,0x0e,
0x01,0x28,0x11,0x01,0x29,0x0e,0x01,0x2c,0x09,0x01,0x2e,0x0d,0x01,0x30,0x0e,0x01,
0x31,0x1b,0x01,0x33,0x0d,0x01,0x34,0x0d,0x01,0x36,0x12,0x01,0x38,0x24,0x01,0x39,
0x17,0x95,0x2e,0x00,0x14,0x27,0x00,0x29,0xb5,0x01,0x36,0x09,0x01,0x34,0x03,0x95,
0x33,0x00,0x0b,0xb5,0x01,0x31,0x09,0x01,0x26,0x09,0x01,0x18,0x09,0x01,0x0e,0x09,
0x01,0x00,0x0d,0x95,0x3a,0x00,0x50,0x2b,0x69,0x02,0x32,0x6a,0x04,0x37,0x6c,0x02,
0x3e,0x68,0x82,0x07,0x32,0x00,0x01,0x37,0x00,0x0d,0x2b,0x00,0x08,0xb5,0x01,0x03,
0x01,0x95,0x3e,0x00,0x02,0x32,0x44,0x00,0x37,0x3c,0x06,0xb5,0x01,0x06,0x09,0x01,
0x0a,0x09,0x01,0x0e,0x09,0x01,0x11,0x0e,0x01,0x15,0x09,0x01,0x18,0x09,0x01,0x1b,
0x09,0x01,0x1e,0x09,0x01,0x21,0x09,0x01,0x25,0x0e,0x01,0x29,0x09,0x01,0x2c,0x28,
0x01,0x1e,0x09,0x01,0x0b,0x09,0x01,0x00,0x12,0x95,0x32,0x00,0x01,0x37,0x00,0x00,
0x32,0x43,0x00,0x37,0x40,0x81,0x3f,0x37,0x00,0x00,0x32,0x00,0x01,0x32,0x34,0x00,
0x37,0x31,0x81,0x3e,0x37,0x00,0x02,0x32,0x00,0x00,0x32,0x34,0x00,0x37,0x2f,0x81,
0x3f,0x32,0x00,0x01,0x37,0x00,0x00,0x32,0x35,0x00,0x37,0x3a,0x81,0x3e,0x37,0x00,
0x01,0x32,0x00,0x01,0x32,0x2e,0x00,0x37,0x36,0x81,0x3f,0x32,0x00,0x01,0x37,0x00,
0x00,0x32,0x30,0x00,0x37,0x38,0x81,0x3c,0x32,0x00,0x02,0x37,0x00,0x02,0x32,0x38,
0x00,0x37,0x2f,0x81,0x3f,0x32,0x00,0x01,0x37,0x00,0x00,0x32,0x37,0x00,0x37,0x2c,
0x81,0x3c,0x37,0x00,0x03,0x32,0x00,0x01,0x32,0x35,0x00,0x37,0x38,0x81,0x3e,0x37,
0x00,0x01,0x32,0x00,0x01,0x32,0x35,0x00,0x37,0x36,0x81,0x3f,0x32,0x00,0x01,0x37,
0x00,0x00,0x32,0x2e,0x00,0x37,0x31,0x81,0x3e,0x37,0x00,0x01,0x32,0x00,0x01,0x32,
0x35,0x00,0x37,0x31,0x81,0x3e,0x37,0x00,0x00,0x32,0x00,0x02,0x32,0x2d,0x00,0x37,
0x2f,0x81,0x3e,0x32,0x00,0x01,0x37,0x00,0x01,0x32,0x2f,0x00,0x37,0x2b,0x81,0x3f,
0x37,0x00,0x00,0x32,0x00,0x00,0xff,0x2f,0x00,0x4d,0x54,0x72,0x6b,0x00,0x00,0x05,
0x84,0x00,0xff,0x21,0x01,0x00,0x00,0xb6,0x00,0x00,0x00,0xc6,0x01,0x00,0xb6,0x07,
0x64,0x00,0xb6,0x0a,0x11,0x00,0xb6,0x5b,0x1e,0x00,0x5d,0x32,0x81,0x01,0x0b,0x7f,
0xd0,0x30,0x96,0x43,0x5b,0x20,0x43,0x00,0x10,0x43,0x54,0x57,0x43,0x00,0x08,0x43,
0x5d,0x29,0x43,0x00,0x05,0x43,0x53,0x57,0x43,0x00,0x0b,0x43,0x60,0x20,0x43,0x00,
0x0e,0x43,0x55,0x5a,0x43,0x00,0x06,0x43,0x59,0x2f,0x43,0x00,0x02,0x43,0x59,0x5a,
0x43,0x00,0x07,0x43,0x56,0x20,0x43,0x00,0x11,0x43,0x54,0x59,0x43,0x00,0x04,0x43,
0x5a,0x2c,0x43,0x00,0x04,0x43,0x53,0x5f,0x43,0x00,0x03,0x43,0x5d,0x1f,0x43,0x00,
0x0f,0x43,0x5c,0x5a,0x43,0x00,0x07,0x43,0x59,0x2f,0x43,0x00,0x02,0x43,0x55,0x58,
0x43,0x00,0x07,0x43,0x5d,0x1f,0x43,0x00,0x13,0x43,0x52,0x57,0x43,0x00,0x06,0x43,
0x5a,0x2f,0x43,0x00,0x03,0x43,0x54,0x5a,0x43,0x00,0x06,0x43,0x5a,0x20,0x43,0x00,
0x0f,0x43,0x51,0x5f,0x43,0x00,0x01,0x43,0x55,0x2d,0x43,0x00,0x02,0x43,0x56,0x5e,
0x43,0x00,0x03,0x43,0x54,0x20,0x43,0x00,0x0f,0x43,0x55,0x5f,0x43,0x00,0x01,0x43,
0x52,0x2b,0x43,0x00,0x05,0x43,0x5e,0x5f,0x43,0x00,0x01,0x43,0x53,0x20,0x43,0x00,
0x10,0x43,0x5a,0x5f,0x43,0x00,0x01,0x43,0x56,0x2f,0x43,0x00,0x03,0x43,0x5a,0x58,
0x43,0x00,0x08,0x43,0x54,0x20,0x43,0x00,0x10,0x43,0x5e,0x5f,0x43,0x00,0x00,0x43,
0x52,0x2e,0x43,0x00,0x03,0x43,0x5b,0x5c,0x43,0x00,0x02,0x43,0x52,0x20,0x43,0x00,
0x12,0x43,0x56,0x5c,0x43,0x00,0x03,0x43,0x60,0x2d,0x43,0x00,0x04,0x43,0x59,0x5b,
0x43,0x00,0x03,0x43,0x5f,0x1f,0x43,0x00,0x12,0x43,0x56,0x5f,0x43,0x00,0x00,0x43,
0x57,0x2d,0x43,0x00,0x05,0x43,0x62,0x19,0x43,0x00,0xb5,0x36,0x2b,0x4a,0x01,0x1f,
0x4d,0x5e,0x3e,0x62,0x00,0x43,0x5d,0x81,0x3f,0x43,0x00,0x00,0x3e,0x00,0x01,0x43,
0x5d,0x01,0x3e,0x65,0x81,0x27,0x3e,0x00,0x00,0x43,0x00,0x19,0x3e,0x5f,0x02,0x43,
0x66,0x81,0x25,0x3e,0x00,0x02,0x43,0x00,0x13,0x2b,0x00,0x01,0x1f,0x00,0x04,0x43,
0x5e,0x01,0x3e,0x63,0x5d,0x1c,0x4a,0x02,0x28,0x4d,0x46,0x3e,0x00,0x01,0x43,0x00,
0x17,0x3e,0x59,0x01,0x43,0x64,0x81,0x26,0x3e,0x00,0x01,0x43,0x00,0x1a,0x43,0x5f,
0x01,0x3e,0x65,0x81,0x25,0x43,0x00,0x01,0x3e,0x00,0x17,0x43,0x5f,0x01,0x3e,0x60,
0x81,0x26,0x43,0x00,0x01,0x3e,0x00,0x18,0x43,0x68,0x02,0x3e,0x5a,0x17,0x1c,0x00,
0x02,0x28,0x00,0x46,0x18,0x4e,0x00,0x24,0x4b,0x46,0x43,0x00,0x02,0x3e,0x00,0x19,
0x3e,0x5f,0x00,0x43,0x63,0x81,0x27,0x43,0x00,0x00,0x3e,0x00,0x18,0x43,0x68,0x01,
0x3e,0x60,0x09,0x18,0x00,0x00,0x24,0x00,0x55,0x26,0x49,0x02,0x1a,0x4b,0x46,0x43,
0x00,0x01,0x3e,0x00,0x17,0x43,0x5b,0x02,0x3e,0x67,0x81,0x26,0x43,0x00,0x01,0x26,
0x00,0x02,0x1a,0x00,0x16,0x3e,0x00,0x01,0x3e,0x5a,0x01,0x43,0x64,0x5d,0x1f,0x48,
0x00,0x2b,0x4c,0x60,0x3e,0x00,0x00,0x3e,0x61,0x02,0x43,0x00,0x00,0x43,0x60,0x81,
0x3d,0x3e,0x00,0x01,0x3e,0x68,0x01,0x43,0x00,0x00,0x43,0x5b,0x81,0x3e,0x3e,0x00,
0x01,0x3e,0x62,0x01,0x43,0x00,0x00,0x43,0x65,0x61,0x2b,0x00,0x00,0x1f,0x00,0x5d,
0x3e,0x00,0x02,0x43,0x00,0x00,0x3e,0x62,0x00,0x43,0x5b,0x5f,0x43,0x00,0x00,0x3e,
0x00,0x31,0x43,0x5e,0x20,0x43,0x00,0x10,0x43,0x52,0x5f,0x43,0x00,0x03,0x43,0x5e,
0x2e,0x43,0x00,0x00,0x43,0x53,0x5f,0x43,0x00,0x02,0x43,0x5d,0x20,0x43,0x00,0x11,
0x43,0x53,0x5f,0x43,0x00,0x00,0x43,0x5a,0x2f,0x43,0x00,0x02,0x43,0x57,0x5f,0x43,
0x00,0x01,0x43,0x5b,0x1f,0x43,0x00,0x0e,0x43,0x57,0x5f,0x43,0x00,0x04,0x43,0x5a,
0x30,0x43,0x00,0x00,0x43,0x5e,0x5f,0x43,0x00,0x00,0x43,0x57,0x1f,0x43,0x00,0x12,
0x43,0x58,0x5d,0x43,0x00,0x00,0x43,0x56,0x2f,0x43,0x00,0x03,0x43,0x5d,0x5e,0x43,
0x00,0x00,0x43,0x51,0x20,0x43,0x00,0x12,0x43,0x5f,0x5f,0x43,0x00,0x00,0x43,0x57,
0x2f,0x43,0x00,0x01,0x43,0x55,0x5f,0x43,0x00,0x00,0x43,0x56,0x20,0x43,0x00,0x11,
0x43,0x66,0x60,0x43,0x00,0x00,0x43,0x5d,0x2f,0x43,0x00,0x00,0x43,0x55,0x5f,0x43,
0x00,0x02,0x43,0x5f,0x20,0x43,0x00,0x12,0x43,0x54,0x5e,0x43,0x00,0x00,0x43,0x5f,
0x2f,0x43,0x00,0x00,0x43,0x59,0x5f,0x43,0x00,0x02,0x43,0x54,0x20,0x43,0x00,0x11,
0x43,0x61,0x60,0x43,0x00,0x00,0x43,0x54,0x2e,0x43,0x00,0x00,0x43,0x5b,0x5f,0x43,
0x00,0x02,0x43,0x56,0x20,0x43,0x00,0x10,0x43,0x5b,0x5f,0x43,0x00,0x02,0x43,0x54,
0x2f,0x43,0x00,0x00,0x43,0x54,0x5f,0x43,0x00,0x03,0x43,0x5b,0x1f,0x43,0x00,0x11,
0x43,0x5f,0x5d,0x43,0x00,0x00,0x43,0x53,0x30,0x43,0x00,0x01,0x43,0x57,0x5f,0x43,
0x00,0x03,0x43,0x55,0x1f,0x43,0x00,0x0f,0x43,0x59,0x5f,0x43,0x00,0x00,0x43,0x60,
0x2f,0x43,0x00,0x03,0x43,0x53,0x01,0x43,0x00,0xaa,0x2d,0x43,0x61,0x03,0x3e,0x62,
0x81,0x3c,0x43,0x00,0x01,0x3e,0x00,0x00,0x3e,0x5b,0x02,0x43,0x5d,0x81,0x3d,0x3e,
0x00,0x03,0x43,0x00,0x00,0x43,0x58,0x01,0x3e,0x5f,0x81,0x3e,0x3e,0x00,0x00,0x43,
0x00,0x00,0x3e,0x59,0x01,0x43,0x5f,0x81,0x3e,0x3e,0x00,0x00,0x3e,0x56,0x01,0x43,
0x00,0x02,0x43,0x5b,0x81,0x3c,0x3e,0x00,0x01,0x43,0x00,0x00,0x43,0x62,0x03,0x3e,
0x57,0x81,0x3d,0x43,0x00,0x02,0x3e,0x00,0x00,0x3e,0x58,0x00,0x43,0x56,0x81,0x3e,
0x3e,0x00,0x00,0x3e,0x5e,0x02,0x43,0x00,0x01,0x43,0x55,0x81,0x3c,0x3e,0x00,0x01,
0x3e,0x59,0x01,0x43,0x00,0x00,0x43,0x56,0x81,0x3e,0x3e,0x00,0x01,0x43,0x00,0x00,
0x3e,0x62,0x03,0x43,0x5e,0x81,0x3c,0x3e,0x00,0x03,0x43,0x00,0x00,0x43,0x5b,0x01,
0x3e,0x5e,0x81,0x3d,0x3e,0x00,0x00,0x3e,0x5a,0x01,0x43,0x00,0x00,0x43,0x59,0x81,
0x3e,0x3e,0x00,0x01,0x43,0x00,0x02,0x3e,0x62,0x00,0x43,0x55,0x81,0x40,0x43,0x00,
0x00,0x3e,0x00,0x00,0x3e,0x58,0x01,0x43,0x61,0x81,0x3d,0x3e,0x00,0x00,0x3e,0x5f,
0x02,0x43,0x00,0x00,0x43,0x5f,0x81,0x3d,0x3e,0x00,0x01,0x3e,0x59,0x01,0x43,0x00,
0x00,0x43,0x5e,0x81,0x3e,0x3e,0x00,0x02,0x43,0x00,0x00,0x3e,0x61,0x00,0x43,0x5a,
0x81,0x3f,0x43,0x00,0x00,0x3e,0x00,0x03,0x3e,0x5c,0x00,0x43,0x5e,0x81,0x3f,0x43,
0x00,0x00,0x3e,0x00,0x00,0x3e,0x60,0x01,0x43,0x57,0x81,0x3e,0x3e,0x00,0x00,0x3e,
0x56,0x01,0x43,0x00,0x00,0x43,0x60,0x72,0xb6,0x0b,0x7d,0x0a,0x0b,0x7b,0x31,0x0b,
0x79,0x11,0x96,0x43,0x00,0x00,0x3e,0x00,0x00,0x43,0x5b,0x03,0x3e,0x5d,0x40,0xb6,
0x0b,0x77,0x6a,0x0b,0x75,0x13,0x96,0x43,0x00,0x02,0x3e,0x00,0x00,0x3e,0x5a,0x00,
0x43,0x60,0x19,0xb6,0x0b,0x73,0x2d,0x0b,0x71,0x0a,0x0b,0x6f,0x0a,0x0b,0x6d,0x08,
0x0b,0x6b,0x08,0x0b,0x69,0x19,0x0b,0x67,0x19,0x0b,0x65,0x1e,0x0b,0x63,0x04,0x96,
0x43,0x00,0x00,0x43,0x59,0x01,0x3e,0x00,0x02,0x3e,0x60,0x1e,0xb6,0x0b,0x61,0x1a,
0x0b,0x5f,0x47,0x0b,0x5d,0x2f,0x0b,0x5b,0x0e,0x96,0x43,0x00,0x02,0x3e,0x00,0x00,
0x3e,0x5d,0x01,0x43,0x5d,0x37,0xb6,0x0b,0x59,0x29,0x0b,0x57,0x34,0x0b,0x55,0x16,
0x0b,0x53,0x13,0x96,0x3e,0x00,0x00,0x3e,0x61,0x01,0x43,0x00,0x02,0x43,0x60,0x1a,
0xb6,0x0b,0x51,0x14,0x0b,0x4f,0x18,0x0b,0x4d,0x1a,0x0b,0x4b,0x13,0x0b,0x49,0x3c,
0x0b,0x47,0x0e,0x96,0x3e,0x00,0x01,0x43,0x00,0x00,0x43,0x5d,0x01,0x3e,0x58,0x24,
0xb6,0x0b,0x45,0x1b,0x0b,0x43,0x2b,0x0b,0x41,0x28,0x0b,0x3f,0x23,0x0b,0x3d,0x09,
0x96,0x43,0x00,0x01,0x3e,0x00,0x00,0x3e,0x56,0x02,0x43,0x59,0x1c,0xb6,0x0b,0x3b,
0x20,0x0b,0x39,0x10,0x0b,0x37,0x17,0x0b,0x35,0x15,0x0b,0x33,0x0d,0x0b,0x31,0x0e,
0x0b,0x2f,0x0b,0x0b,0x2d,0x1d,0x0b,0x2b,0x02,0x96,0x3e,0x00,0x02,0x43,0x00,0x01,
0x3e,0x5c,0x01,0x43,0x5e,0x0d,0xb6,0x0b,0x29,0x09,0x0b,0x27,0x0d,0x0b,0x25,0x0c,
0x0b,0x23,0x12,0x0b,0x21,0x09,0x0b,0x1f,0x0f,0x0b,0x1d,0x0c,0x0b,0x1b,0x0a,0x0b,
0x19,0x09,0x0b,0x17,0x12,0x0b,0x15,0x14,0x0b,0x13,0x0c,0x0b,0x11,0x0c,0x0b,0x0f,
0x07,0x96,0x3e,0x00,0x00,0x3e,0x5b,0x01,0x43,0x00,0x00,0x43,0x59,0x02,0xb6,0x0b,
0x0d,0x09,0x0b,0x0b,0x0c,0x0b,0x09,0x12,0x0b,0x05,0x12,0x0b,0x00,0x81,0x04,0x96,
0x3e,0x00,0x01,0x43,0x00,0x00,0x3e,0x5d,0x00,0x43,0x60,0x5f,0x43,0x00,0x00,0x3e,
0x00,0x00,0xff,0x2f,0x00,0x4d,0x54,0x72,0x6b,0x00,0x00,0x02,0x70,0x00,0xff,0x21,
0x01,0x00,0x00,0xb7,0x00,0x00,0x00,0xc7,0x34,0x00,0xb7,0x07,0x50,0x00,0xb7,0x0a,
0x17,0x00,0xb7,0x5b,0x64,0x00,0x5d,0x00,0x81,0x06,0x0b,0x7f,0xcf,0x7a,0x97,0x3c,
0x6c,0x00,0x40,0x64,0x00,0x43,0x67,0x82,0x7f,0x3c,0x00,0x01,0x3a,0x6f,0x82,0x7c,
0x3a,0x00,0x01,0x43,0x00,0x02,0x40,0x00,0x01,0x3b,0x69,0x00,0x3e,0x6b,0x00,0x43,
0x69,0x85,0x7e,0x3b,0x00,0x01,0x3e,0x00,0x01,0x3d,0x6b,0x00,0x40,0x63,0x85,0x7e,
0x3d,0x00,0x02,0x3c,0x57,0x85,0x7c,0x43,0x00,0x02,0x3c,0x00,0x01,0x40,0x00,0x01,
0x3b,0x3e,0x00,0x3e,0x42,0x00,0x43,0x65,0x81,0x3f,0x43,0x00,0x01,0x45,0x69,0x81,
0x3f,0x45,0x00,0x00,0x3e,0x00,0x00,0x3b,0x00,0x01,0x3e,0x3d,0x00,0x43,0x34,0x00,
0x47,0x68,0x82,0x7d,0x43,0x00,0x01,0x3e,0x00,0x01,0x47,0x00,0x01,0x3e,0x3f,0x00,
0x43,0x64,0x82,0x7f,0x3e,0x00,0x82,0x7c,0x43,0x00,0x05,0x3e,0x3c,0x00,0x43,0x38,
0x82,0x7a,0x43,0x00,0x04,0x3e,0x00,0x02,0x3e,0x42,0x00,0x43,0x35,0x5f,0x43,0x00,
0x01,0x45,0x37,0x82,0x1b,0x3e,0x00,0x03,0x45,0x00,0x02,0x3e,0x3d,0x00,0x43,0x38,
0x85,0x68,0x3e,0x00,0x04,0x43,0x00,0x9f,0x17,0xe7,0x40,0x1d,0x0d,0x97,0x3e,0x75,
0x05,0xe7,0x40,0x22,0x05,0x00,0x29,0x04,0x00,0x32,0x05,0x00,0x3d,0x04,0x00,0x40,
0x71,0x97,0x3e,0x00,0x81,0x77,0xe7,0x00,0x22,0x01,0x97,0x3e,0x7b,0x04,0xe7,0x40,
0x29,0x04,0x40,0x30,0x05,0x00,0x39,0x04,0x00,0x40,0x7b,0x97,0x3e,0x00,0x81,0x69,
0xe7,0x00,0x0c,0x0b,0x97,0x3e,0x7d,0x02,0xe7,0x40,0x15,0x05,0x40,0x23,0x04,0x00,
0x34,0x05,0x00,0x40,0x7b,0x97,0x3e,0x00,0x81,0x53,0xe7,0x40,0x0f,0x22,0x97,0x3e,
0x7f,0x06,0xe7,0x00,0x1b,0x04,0x40,0x29,0x05,0x40,0x39,0x04,0x00,0x40,0x7d,0x97,
0x3e,0x00,0x81,0x36,0xe7,0x40,0x0c,0x3a,0x97,0x3e,0x7e,0x00,0xe7,0x00,0x11,0x05,
0x40,0x1b,0x04,0x40,0x2b,0x05,0x40,0x3c,0x04,0x00,0x40,0x7d,0x97,0x3e,0x00,0x81,
0x5f,0xe7,0x40,0x06,0x12,0x97,0x3e,0x76,0x00,0xe7,0x40,0x0b,0x04,0x40,0x12,0x05,
0x40,0x1f,0x04,0x00,0x30,0x05,0x00,0x40,0x79,0x97,0x3e,0x00,0x81,0x5e,0xe7,0x00,
0x05,0x17,0x97,0x3e,0x7d,0x08,0xe7,0x00,0x0e,0x04,0x00,0x1b,0x05,0x40,0x29,0x04,
0x00,0x35,0x05,0x40,0x3b,0x05,0x00,0x40,0x6e,0x97,0x3e,0x00,0x83,0x63,0x3c,0x7b,
0x00,0x40,0x7d,0x00,0x43,0x7a,0x82,0x7c,0x3c,0x00,0x04,0x3a,0x75,0x82,0x7f,0x3a,
0x00,0x00,0x43,0x00,0x00,0x40,0x00,0x01,0x3b,0x77,0x00,0x3e,0x7b,0x00,0x43,0x7a,
0x85,0x7e,0x3e,0x00,0x00,0x3b,0x00,0x02,0x3d,0x7d,0x00,0x40,0x77,0x85,0x7f,0x3d,
0x00,0x01,0x3c,0x76,0x85,0x7c,0x40,0x00,0x00,0x43,0x00,0x02,0x3c,0x00,0x02,0x3b,
0x4e,0x00,0x43,0x63,0x81,0x3f,0x43,0x00,0x01,0x45,0x68,0x81,0x3f,0x45,0x00,0x00,
0x3b,0x00,0x01,0x3e,0x57,0x00,0x43,0x62,0x00,0x47,0x69,0x82,0x7d,0x47,0x00,0x01,
0x43,0x00,0x01,0x3e,0x00,0x01,0x3e,0x5f,0x00,0x43,0x5b,0x85,0x7f,0x43,0x00,0x00,
0x3e,0x00,0x01,0x3e,0x58,0x00,0x43,0x59,0x82,0x7b,0x3e,0x00,0x05,0x43,0x00,0x00,
0x3e,0x5b,0x00,0x43,0x52,0x5c,0x43,0x00,0x04,0x45,0x5d,0x82,0x1f,0x45,0x00,0x00,
0x3e,0x00,0x01,0x3e,0x58,0x00,0x43,0x5b,0x85,0x7c,0x3e,0x00,0x02,0x43,0x00,0x02,
0x3e,0x53,0x00,0x43,0x52,0x82,0x7f,0x3e,0x00,0x01,0x43,0x00,0x00,0x3e,0x61,0x00,
0x43,0x5f,0x5c,0x43,0x00,0x04,0x45,0x5e,0x82,0x1e,0x45,0x00,0x01,0x3e,0x00,0x01,
0x3e,0x52,0x00,0x43,0x61,0x85,0x7f,0x3e,0x00,0x01,0x43,0x00,0x00,0x3e,0x56,0x00,
0x43,0x5d,0x85,0x45,0x43,0x00,0x03,0x3e,0x00,0x00,0xff,0x2f,0x00,0x4d,0x54,0x72,
0x6b,0x00,0x00,0x07,0x0c,0x00,0xff,0x21,0x01,0x00,0x00,0xb8,0x00,0x00,0x00,0xc8,
0x32,0x00,0xb8,0x07,0x70,0x00,0xb8,0x5b,0x3c,0x00,0x5d,0x00,0x81,0x0b,0x0b,0x7f,
0x81,0xf8,0x23,0xe8,0x00,0x04,0x02,0x98,0x43,0x66,0x00,0x47,0x65,0x03,0xe8,0x40,
0x08,0x05,0x00,0x10,0x04,0x40,0x1c,0x05,0x40,0x29,0x04,0x40,0x33,0x05,0x00,0x40,
0x10,0x98,0x47,0x00,0x00,0x43,0x00,0x06,0x3e,0x5d,0x00,0x43,0x61,0x2c,0x43,0x00,
0x00,0x3e,0x00,0x04,0x43,0x65,0x00,0x47,0x5c,0x34,0xb8,0x01,0x43,0x09,0x01,0x6f,
0x09,0x01,0x79,0x0e,0x01,0x4e,0x04,0x98,0x47,0x00,0x00,0x43,0x00,0x05,0xb8,0x01,
0x00,0x03,0x98,0x43,0x4c,0x00,0x47,0x56,0x3e,0x47,0x00,0x00,0x43,0x00,0x22,0x43,
0x52,0x00,0x47,0x60,0x2f,0x47,0x00,0x00,0x43,0x00,0x31,0x43,0x59,0x00,0x47,0x50,
0x2b,0x47,0x00,0x00,0x43,0x00,0x05,0x3e,0x63,0x00,0x43,0x71,0x26,0x3e,0x00,0x01,
0x43,0x00,0x07,0xe8,0x00,0x00,0x02,0x98,0x43,0x5b,0x00,0x47,0x5d,0x04,0xe8,0x40,
0x32,0x06,0x00,0x3b,0x05,0x40,0x3c,0x04,0x00,0x3e,0x06,0x00,0x40,0x34,0x98,0x43,
0x00,0x01,0x47,0x00,0x12,0x43,0x66,0x00,0x47,0x5c,0x42,0x47,0x00,0x00,0x43,0x00,
0x1e,0x43,0x53,0x00,0x47,0x66,0x2a,0x47,0x00,0x00,0x43,0x00,0x32,0xe8,0x40,0x04,
0x04,0x98,0x43,0x62,0x00,0x47,0x4f,0x00,0xe8,0x40,0x0b,0x05,0x00,0x1c,0x04,0x00,
0x2f,0x05,0x40,0x39,0x04,0x40,0x3a,0x09,0x00,0x40,0x13,0x98,0x47,0x00,0x00,0x43,
0x00,0x02,0x3e,0x4f,0x00,0x43,0x52,0x24,0x43,0x00,0x00,0x3e,0x00,0x0c,0x43,0x64,
0x00,0x47,0x6b,0x26,0xb8,0x01,0x13,0x09,0x01,0x5a,0x0a,0x01,0x7f,0x14,0x98,0x47,
0x00,0x00,0x43,0x00,0x06,0xb8,0x01,0x53,0x09,0x01,0x00,0x04,0x98,0x43,0x5b,0x00,
0x47,0x56,0x2e,0x43,0x00,0x01,0x47,0x00,0x31,0x43,0x60,0x00,0x47,0x66,0x2f,0x47,
0x00,0x00,0x43,0x00,0x31,0x43,0x67,0x00,0x47,0x59,0x27,0x47,0x00,0x00,0x43,0x00,
0x09,0x3e,0x5e,0x00,0x43,0x51,0x14,0x43,0x00,0x00,0x3e,0x00,0x18,0xe8,0x40,0x00,
0x04,0x98,0x43,0x60,0x00,0x47,0x65,0x00,0xe8,0x00,0x00,0x05,0x00,0x04,0x04,0x00,
0x0f,0x05,0x40,0x21,0x04,0x00,0x34,0x05,0x00,0x40,0x3b,0x98,0x47,0x00,0x00,0x43,
0x00,0x0e,0x43,0x6b,0x00,0x47,0x59,0x46,0x47,0x00,0x00,0x43,0x00,0x1a,0x43,0x55,
0x00,0x47,0x57,0x25,0x47,0x00,0x00,0x43,0x00,0x3b,0x43,0x5f,0x00,0x47,0x6f,0x2a,
0x47,0x00,0x00,0x43,0x00,0x06,0x3e,0x70,0x00,0x43,0x5e,0x2c,0x43,0x00,0x00,0x3e,
0x00,0x04,0x43,0x58,0x00,0x47,0x6a,0x33,0xb8,0x01,0x39,0x0a,0x01,0x6e,0x09,0x01,
0x7f,0x09,0x01,0x77,0x09,0x98,0x47,0x00,0x00,0x43,0x00,0x00,0xb8,0x01,0x00,0x08,
0x98,0x43,0x6d,0x00,0x47,0x5e,0x3e,0x47,0x00,0x00,0x43,0x00,0x22,0x43,0x56,0x00,
0x47,0x68,0x2f,0x47,0x00,0x00,0x43,0x00,0x2d,0xe8,0x40,0x0a,0x04,0x98,0x43,0x64,
0x00,0x47,0x57,0x03,0xe8,0x00,0x0d,0x05,0x40,0x13,0x04,0x40,0x23,0x05,0x00,0x37,
0x04,0x00,0x40,0x16,0x98,0x47,0x00,0x00,0x43,0x00,0x05,0x3e,0x5a,0x00,0x43,0x5c,
0x27,0x43,0x00,0x00,0x3e,0x00,0x09,0x43,0x62,0x00,0x47,0x6a,0x4e,0x47,0x00,0x00,
0x43,0x00,0x12,0x43,0x69,0x00,0x47,0x5d,0x2a,0xb8,0x01,0x36,0x0a,0x01,0x6e,0x09,
0x01,0x7f,0x05,0x98,0x47,0x00,0x00,0x43,0x00,0x04,0xb8,0x01,0x7c,0x09,0x01,0x5a,
0x09,0x01,0x00,0x08,0x98,0x43,0x53,0x00,0x47,0x6f,0x2a,0x47,0x00,0x00,0x43,0x00,
0x36,0x43,0x6a,0x00,0x47,0x5c,0x2d,0x43,0x00,0x01,0x47,0x00,0x02,0x3e,0x59,0x00,
0x43,0x58,0x24,0x43,0x00,0x00,0x3e,0x00,0x08,0xe8,0x00,0x05,0x04,0x98,0x43,0x68,
0x00,0x47,0x6a,0x04,0xe8,0x40,0x12,0x04,0x40,0x1f,0x05,0x40,0x36,0x04,0x00,0x40,
0x3c,0x98,0x47,0x00,0x00,0x43,0x00,0x13,0x43,0x5b,0x00,0x47,0x57,0x01,0xb8,0x01,
0x5c,0x09,0x01,0x3e,0x09,0x01,0x20,0x0a,0x01,0x0d,0x09,0x01,0x00,0x09,0x98,0x47,
0x00,0x00,0x43,0x00,0x31,0x43,0x4e,0x00,0x47,0x5a,0x2f,0x47,0x00,0x00,0x43,0x00,
0x2d,0xe8,0x00,0x22,0x04,0x98,0x43,0x6d,0x00,0x47,0x67,0x04,0xe8,0x40,0x2d,0x04,
0x00,0x34,0x05,0x00,0x39,0x04,0x00,0x40,0x1c,0x98,0x43,0x00,0x01,0x47,0x00,0x02,
0x3e,0x55,0x00,0x43,0x58,0x14,0x43,0x00,0x00,0x3e,0x00,0x1c,0x43,0x6c,0x00,0x47,
0x6b,0x2a,0xb8,0x01,0x36,0x09,0x01,0x6a,0x0a,0x01,0x7a,0x09,0x01,0x7d,0x09,0x01,
0x79,0x03,0x98,0x47,0x00,0x00,0x43,0x00,0x06,0xb8,0x01,0x00,0x08,0x98,0x43,0x50,
0x00,0x47,0x51,0x46,0x47,0x00,0x00,0x43,0x00,0x1a,0x43,0x61,0x00,0x47,0x6b,0x25,
0x47,0x00,0x00,0x43,0x00,0x37,0xe8,0x40,0x22,0x04,0x98,0x43,0x68,0x00,0x47,0x5f,
0x02,0xe8,0x00,0x2f,0x05,0x00,0x34,0x06,0x00,0x39,0x04,0x00,0x40,0x19,0x98,0x47,
0x00,0x00,0x43,0x00,0x06,0x3e,0x5e,0x00,0x43,0x57,0x2c,0x43,0x00,0x00,0x3e,0x00,
0x04,0x43,0x4f,0x00,0x47,0x67,0x32,0xb8,0x01,0x26,0x09,0x01,0x5f,0x09,0x01,0x7f,
0x0d,0x01,0x7a,0x07,0x98,0x47,0x00,0x00,0x43,0x00,0x03,0xb8,0x01,0x00,0x05,0x98,
0x43,0x5f,0x00,0x47,0x62,0x3e,0x47,0x00,0x00,0x43,0x00,0x22,0x43,0x55,0x00,0x47,
0x59,0x30,0x47,0x00,0x00,0x43,0x00,0x2c,0xe8,0x00,0x19,0x04,0x98,0x43,0x67,0x00,
0x47,0x66,0x05,0xe8,0x40,0x1e,0x04,0x40,0x26,0x05,0x00,0x31,0x04,0x40,0x39,0x05,
0x00,0x40,0x14,0x98,0x47,0x00,0x00,0x43,0x00,0x05,0x3e,0x5a,0x00,0x43,0x55,0x27,
0x43,0x00,0x00,0x3e,0x00,0x09,0x43,0x5b,0x00,0x47,0x55,0x30,0xb8,0x01,0x0d,0x09,
0x01,0x5c,0x09,0x01,0x7f,0x0c,0x98,0x47,0x00,0x00,0x43,0x00,0x02,0xb8,0x01,0x77,
0x09,0x01,0x00,0x07,0x98,0x43,0x62,0x00,0x47,0x51,0x14,0xb8,0x0b,0x7e,0x2e,0x98,
0x47,0x00,0x00,0x43,0x00,0x05,0xb8,0x0b,0x7d,0x19,0x98,0x43,0x67,0x00,0x47,0x69,
0x20,0xb8,0x0b,0x7c,0x0a,0x98,0x47,0x00,0x00,0x43,0x00,0x18,0xb8,0x0b,0x7d,0x0a,
0x0b,0x7b,0x14,0x0b,0x7a,0x00,0x98,0x43,0x5d,0x00,0x47,0x58,0x1e,0xb8,0x0b,0x79,
0x10,0x98,0x47,0x00,0x00,0x43,0x00,0x02,0x3e,0x60,0x00,0x43,0x52,0x1e,0xb8,0x0b,
0x78,0x06,0x98,0x43,0x00,0x00,0x3e,0x00,0x08,0xe8,0x00,0x05,0x04,0x98,0x43,0x63,
0x00,0x47,0x6a,0x09,0xe8,0x00,0x10,0x04,0x00,0x26,0x04,0xb8,0x0b,0x77,0x01,0xe8,
0x00,0x39,0x04,0x00,0x40,0x21,0xb8,0x01,0x20,0x09,0x01,0x64,0x03,0x0b,0x76,0x06,
0x01,0x7f,0x04,0x98,0x47,0x00,0x00,0x43,0x00,0x0e,0xb8,0x01,0x00,0x05,0x98,0x43,
0x5d,0x00,0x47,0x5e,0x1b,0xb8,0x0b,0x75,0x14,0x98,0x47,0x00,0x00,0x43,0x00,0x05,
0xb8,0x0b,0x74,0x15,0x0b,0x73,0x17,0x98,0x43,0x6d,0x00,0x47,0x66,0x08,0xb8,0x0b,
0x72,0x14,0x0b,0x70,0x0b,0x0b,0x6e,0x08,0x98,0x47,0x00,0x00,0x43,0x00,0x00,0xb8,
0x0b,0x6c,0x08,0x0b,0x6a,0x0a,0x0b,0x68,0x12,0x0b,0x67,0x09,0xe8,0x40,0x0c,0x02,
0xb8,0x0b,0x66,0x02,0x98,0x43,0x5c,0x00,0x47,0x58,0x04,0xe8,0x00,0x17,0x04,0x00,
0x26,0x04,0xb8,0x0b,0x65,0x01,0xe8,0x40,0x33,0x04,0x00,0x40,0x09,0xb8,0x0b,0x64,
0x0d,0x98,0x47,0x00,0x00,0x43,0x00,0x03,0xb8,0x0b,0x63,0x06,0x98,0x3e,0x62,0x00,
0x43,0x5c,0x13,0xb8,0x0b,0x62,0x01,0x98,0x43,0x00,0x00,0x3e,0x00,0x0b,0xb8,0x0b,
0x61,0x0d,0x0b,0x60,0x03,0x98,0x43,0x5a,0x01,0x47,0x55,0x09,0xb8,0x0b,0x5f,0x21,
0x0b,0x5e,0x10,0x01,0x20,0x09,0x01,0x59,0x09,0x01,0x7f,0x04,0x0b,0x5d,0x02,0x98,
0x47,0x00,0x00,0x43,0x00,0x0e,0x43,0x62,0x00,0x47,0x59,0x02,0xb8,0x01,0x40,0x08,
0x0b,0x5c,0x02,0x01,0x00,0x13,0x0b,0x5b,0x27,0x98,0x47,0x00,0x00,0x43,0x00,0x0d,
0xb8,0x0b,0x5a,0x0d,0x98,0x43,0x6b,0x00,0x47,0x66,0x08,0xb8,0x0b,0x59,0x19,0x0b,
0x58,0x04,0x98,0x47,0x00,0x00,0x43,0x00,0x0b,0xb8,0x0b,0x57,0x10,0x0b,0x56,0x1c,
0xe8,0x00,0x10,0x04,0x98,0x43,0x4e,0x00,0x47,0x4f,0x00,0xe8,0x00,0x1f,0x04,0xb8,
0x0b,0x55,0x01,0xe8,0x00,0x2f,0x04,0x40,0x3c,0x05,0x00,0x40,0x03,0xb8,0x0b,0x54,
0x09,0x0b,0x53,0x10,0x98,0x47,0x00,0x00,0x43,0x00,0x02,0xb8,0x0b,0x52,0x02,0x98,
0x3e,0x52,0x01,0x43,0x61,0x1b,0xb8,0x0b,0x51,0x12,0x98,0x43,0x00,0x00,0x3e,0x00,
0x02,0xb8,0x0b,0x4f,0x02,0x98,0x43,0x5c,0x00,0x47,0x6e,0x08,0xb8,0x0b,0x4e,0x0f,
0x0b,0x4d,0x18,0x01,0x41,0x01,0x0b,0x4b,0x08,0x0b,0x4a,0x00,0x01,0x7f,0x0c,0x0b,
0x49,0x0f,0x01,0x57,0x05,0x98,0x47,0x00,0x00,0x43,0x00,0x04,0xb8,0x01,0x00,0x04,
0x98,0x43,0x67,0x00,0x47,0x4f,0x0d,0xb8,0x0b,0x48,0x12,0x0b,0x47,0x1d,0x0b,0x46,
0x01,0x98,0x47,0x00,0x00,0x43,0x00,0x16,0xb8,0x0b,0x45,0x0d,0x98,0x43,0x50,0x00,
0x47,0x57,0x00,0xb8,0x0b,0x44,0x0e,0x0b,0x43,0x1f,0x0b,0x42,0x02,0x98,0x43,0x00,
0x01,0x47,0x00,0x09,0xb8,0x0b,0x41,0x12,0x0b,0x40,0x15,0x98,0x43,0x54,0x00,0x47,
0x53,0x01,0xb8,0x0b,0x3f,0x12,0x0b,0x3e,0x11,0x0b,0x3d,0x07,0x98,0x43,0x00,0x01,
0x47,0x00,0x04,0x3e,0x5f,0x00,0x43,0x54,0x03,0xb8,0x0b,0x3c,0x19,0x0b,0x3b,0x0a,
0x98,0x3e,0x00,0x01,0x43,0x00,0x05,0xe8,0x00,0x0e,0x00,0xb8,0x0b,0x3a,0x03,0x98,
0x43,0x68,0x00,0x47,0x6e,0x01,0xe8,0x00,0x0d,0x09,0x00,0x12,0x03,0xb8,0x0b,0x39,
0x01,0xe8,0x00,0x22,0x05,0x40,0x3c,0x04,0x00,0x40,0x06,0xb8,0x0b,0x37,0x0e,0x0b,
0x36,0x03,0x01,0x0a,0x07,0x0b,0x35,0x02,0x01,0x59,0x07,0x0b,0x34,0x02,0x01,0x7f,
0x0e,0x98,0x43,0x00,0x01,0x47,0x00,0x01,0xb8,0x0b,0x32,0x07,0x01,0x74,0x05,0x0b,
0x30,0x04,0x01,0x00,0x01,0x98,0x43,0x62,0x00,0x47,0x5c,0x03,0xb8,0x0b,0x2f,0x0b,
0x0b,0x2d,0x0e,0x0b,0x2c,0x10,0x0b,0x2b,0x0a,0x0b,0x2a,0x0c,0x0b,0x28,0x01,0x98,
0x47,0x00,0x00,0x43,0x00,0x09,0xb8,0x0b,0x26,0x08,0x0b,0x25,0x0c,0x98,0x43,0x5a,
0x00,0x47,0x4f,0x00,0xb8,0x0b,0x23,0x08,0x0b,0x22,0x0b,0x0b,0x21,0x09,0x0b,0x1f,
0x0e,0x0b,0x1d,0x01,0x98,0x47,0x00,0x00,0x43,0x00,0x0c,0xb8,0x0b,0x1b,0x09,0x0b,
0x19,0x09,0x0b,0x17,0x08,0x0b,0x16,0x0a,0x0b,0x15,0x05,0x98,0x43,0x4f,0x00,0x47,
0x54,0x07,0xb8,0x0b,0x14,0x09,0x0b,0x13,0x0b,0x0b,0x11,0x0c,0x0b,0x0f,0x07,0x98,
0x47,0x00,0x00,0x43,0x00,0x02,0x3e,0x67,0x00,0x43,0x6f,0x01,0xb8,0x0b,0x0d,0x0e,
0x0b,0x0a,0x0d,0x0b,0x08,0x08,0x98,0x43,0x00,0x00,0x3e,0x00,0x04,0xb8,0x0b,0x05,
0x08,0x98,0x43,0x6c,0x00,0x47,0x68,0x03,0xb8,0x0b,0x03,0x0b,0x0b,0x00,0x3f,0x98,
0x47,0x00,0x00,0x43,0x00,0x13,0x43,0x5f,0x00,0x47,0x50,0x2f,0x47,0x00,0x00,0x43,
0x00,0x31,0x43,0x53,0x00,0x47,0x5e,0x2e,0x43,0x00,0x01,0x47,0x00,0x00,0xff,0x2f,
0x00,0x4d,0x54,0x72,0x6b,0x00,0x00,0x1b,0x35,0x00,0xff,0x21,0x01,0x00,0x00,0xb9,
0x00,0x00,0x00,0xb9,0x20,0x00,0x00,0xc9,0x00,0x00,0xb9,0x07,0x73,0x00,0xb9,0x00,
0x00,0x00,0x5b,0x5a,0x00,0x5d,0x00,0x81,0x10,0x0b,0x7f,0x81,0x70,0x99,0x2a,0x6e,
0x03,0x2a,0x00,0x5d,0x2a,0x51,0x03,0x2a,0x00,0x5d,0x2a,0x51,0x03,0x2a,0x00,0x5d,
0x2a,0x50,0x03,0x2a,0x00,0x5d,0x2a,0x78,0x03,0x2a,0x00,0x5d,0x2a,0x4a,0x03,0x2a,
0x00,0x5d,0x2a,0x4a,0x03,0x2a,0x00,0x5a,0x28,0x73,0x02,0x28,0x00,0x05,0x28,0x72,
0x01,0x28,0x00,0x5b,0x24,0x6a,0x03,0x24,0x00,0x5d,0x28,0x78,0x01,0x28,0x00,0x2f,
0x24,0x6e,0x03,0x24,0x00,0x2d,0x24,0x61,0x03,0x24,0x00,0x5d,0x28,0x70,0x01,0x28,
0x00,0x5f,0x24,0x57,0x03,0x24,0x00,0x5d,0x28,0x79,0x01,0x28,0x00,0x2f,0x24,0x5d,
0x03,0x24,0x00,0x2d,0x24,0x6d,0x03,0x24,0x00,0x5d,0x28,0x7b,0x01,0x28,0x00,0x5f,
0x24,0x64,0x03,0x24,0x00,0x5d,0x28,0x77,0x01,0x28,0x00,0x2f,0x24,0x57,0x03,0x24,
0x00,0x2d,0x24,0x6e,0x03,0x24,0x00,0x5d,0x28,0x70,0x01,0x28,0x00,0x5f,0x24,0x6e,
0x03,0x24,0x00,0x5d,0x28,0x72,0x01,0x28,0x00,0x2f,0x24,0x60,0x03,0x24,0x00,0x2d,
0x24,0x53,0x03,0x24,0x00,0x5d,0x28,0x70,0x01,0x28,0x00,0x5f,0x24,0x69,0x03,0x24,
0x00,0x5d,0x28,0x77,0x01,0x28,0x00,0x2f,0x24,0x64,0x03,0x24,0x00,0x2d,0x24,0x58,
0x03,0x24,0x00,0x5d,0x28,0x73,0x01,0x28,0x00,0x5f,0x24,0x65,0x03,0x24,0x00,0x5d,
0x28,0x70,0x01,0x28,0x00,0x2f,0x24,0x54,0x03,0x24,0x00,0x2d,0x24,0x5d,0x03,0x24,
0x00,0x5d,0x28,0x7b,0x01,0x28,0x00,0x5f,0x24,0x6b,0x03,0x24,0x00,0x5d,0x28,0x7a,
0x01,0x28,0x00,0x2f,0x24,0x58,0x03,0x24,0x00,0x2d,0x24,0x6e,0x03,0x24,0x00,0x5d,
0x28,0x72,0x01,0x28,0x00,0x5f,0x24,0x6b,0x03,0x24,0x00,0x5d,0x28,0x72,0x01,0x28,
0x00,0x2e,0x24,0x5a,0x03,0x24,0x00,0x2e,0x24,0x68,0x03,0x24,0x00,0x5d,0x28,0x73,
0x01,0x28,0x00,0x5f,0x24,0x56,0x03,0x24,0x00,0x5d,0x28,0x79,0x01,0x28,0x00,0x2f,
0x24,0x61,0x03,0x24,0x00,0x2d,0x24,0x66,0x03,0x24,0x00,0x5d,0x28,0x73,0x01,0x28,
0x00,0x5f,0x24,0x61,0x03,0x24,0x00,0x5d,0x28,0x72,0x01,0x28,0x00,0x2f,0x24,0x61,
0x03,0x24,0x00,0x2d,0x24,0x6d,0x03,0x24,0x00,0x5d,0x28,0x72,0x01,0x28,0x00,0x5f,
0x24,0x62,0x03,0x24,0x00,0x5d,0x28,0x77,0x01,0x28,0x00,0x2f,0x24,0x5e,0x03,0x24,
0x00,0x2d,0x24,0x5a,0x03,0x24,0x00,0x5d,0x28,0x77,0x01,0x28,0x00,0x5f,0x24,0x6e,
0x03,0x24,0x00,0x5d,0x28,0x72,0x01,0x28,0x00,0x2f,0x24,0x54,0x03,0x24,0x00,0x2d,
0x24,0x55,0x03,0x24,0x00,0x5d,0x28,0x75,0x01,0x28,0x00,0x5f,0x24,0x5c,0x03,0x24,
0x00,0x5d,0x28,0x76,0x01,0x28,0x00,0x2f,0x24,0x6c,0x03,0x24,0x00,0x2d,0x24,0x6b,
0x03,0x24,0x00,0x5d,0x28,0x78,0x01,0x28,0x00,0x5f,0x24,0x5c,0x03,0x24,0x00,0x5d,
0x28,0x76,0x01,0x28,0x00,0x2f,0x24,0x54,0x03,0x24,0x00,0x2d,0x24,0x6f,0x03,0x24,
0x00,0x5d,0x28,0x77,0x01,0x28,0x00,0x5f,0x24,0x6c,0x03,0x24,0x00,0x5d,0x28,0x75,
0x01,0x28,0x00,0x2f,0x24,0x67,0x03,0x24,0x00,0x2d,0x24,0x60,0x03,0x24,0x00,0x5d,
0x28,0x79,0x01,0x28,0x00,0x5f,0x24,0x64,0x03,0x24,0x00,0x5d,0x28,0x70,0x01,0x28,
0x00,0x2f,0x24,0x52,0x03,0x24,0x00,0x2d,0x24,0x5a,0x03,0x24,0x00,0x5d,0x28,0x74,
0x01,0x28,0x00,0x5f,0x24,0x5c,0x03,0x24,0x00,0x5d,0x28,0x7c,0x01,0x28,0x00,0x2f,
0x24,0x5e,0x03,0x24,0x00,0x2d,0x24,0x52,0x03,0x24,0x00,0x5d,0x28,0x77,0x01,0x28,
0x00,0x5f,0x24,0x58,0x03,0x24,0x00,0x5d,0x28,0x73,0x01,0x28,0x00,0x2f,0x24,0x64,
0x03,0x24,0x00,0x2d,0x24,0x62,0x03,0x24,0x00,0x5d,0x28,0x70,0x01,0x28,0x00,0x5f,
0x24,0x63,0x03,0x24,0x00,0x5d,0x28,0x74,0x01,0x28,0x00,0x2f,0x24,0x62,0x03,0x24,
0x00,0x2d,0x24,0x68,0x03,0x24,0x00,0x5d,0x28,0x75,0x01,0x28,0x00,0x5f,0x24,0x67,
0x03,0x24,0x00,0x5d,0x28,0x7c,0x01,0x28,0x00,0x2f,0x24,0x64,0x03,0x24,0x00,0x2d,
0x24,0x52,0x03,0x24,0x00,0x5d,0x28,0x72,0x01,0x28,0x00,0x5f,0x24,0x65,0x03,0x24,
0x00,0x5d,0x28,0x71,0x01,0x28,0x00,0x2f,0x24,0x5c,0x03,0x24,0x00,0x2d,0x24,0x52,
0x03,0x24,0x00,0x5d,0x28,0x7c,0x01,0x28,0x00,0x5f,0x24,0x67,0x03,0x24,0x00,0x5d,
0x28,0x7c,0x01,0x28,0x00,0x2f,0x24,0x5f,0x03,0x24,0x00,0x2d,0x24,0x55,0x03,0x24,
0x00,0x5d,0x28,0x7a,0x01,0x28,0x00,0x5f,0x24,0x6b,0x03,0x24,0x00,0x5d,0x28,0x75,
0x01,0x28,0x00,0x2f,0x24,0x57,0x03,0x24,0x00,0x2d,0x24,0x5f,0x03,0x24,0x00,0x5d,
0x28,0x71,0x01,0x28,0x00,0x5f,0x24,0x61,0x03,0x24,0x00,0x5d,0x28,0x72,0x01,0x28,
0x00,0x2f,0x24,0x52,0x03,0x24,0x00,0x2d,0x24,0x60,0x00,0x28,0x74,0x01,0x28,0x00,
0x02,0x24,0x00,0x2d,0x30,0x75,0x03,0x30,0x00,0x2d,0x30,0x68,0x03,0x30,0x00,0x2d,
0x30,0x73,0x03,0x30,0x00,0x2d,0x24,0x58,0x00,0x2a,0x2d,0x03,0x2a,0x00,0x00,0x24,
0x00,0x2c,0x2a,0x1e,0x03,0x2a,0x00,0x2e,0x28,0x76,0x00,0x2a,0x30,0x01,0x28,0x00,
0x02,0x2a,0x00,0x2d,0x24,0x5e,0x00,0x2a,0x0a,0x03,0x2a,0x00,0x00,0x24,0x00,0x2d,
0x24,0x57,0x00,0x2a,0x2b,0x03,0x2a,0x00,0x00,0x24,0x00,0x2d,0x2a,0x10,0x03,0x2a,
0x00,0x2d,0x28,0x74,0x00,0x2a,0x1f,0x01,0x28,0x00,0x02,0x2a,0x00,0x2c,0x2a,0x12,
0x03,0x2a,0x00,0x2e,0x24,0x6e,0x00,0x2a,0x25,0x03,0x2a,0x00,0x00,0x24,0x00,0x2d,
0x2a,0x0f,0x03,0x2a,0x00,0x2d,0x28,0x75,0x00,0x2a,0x1d,0x01,0x28,0x00,0x02,0x2a,
0x00,0x2c,0x2a,0x11,0x01,0x24,0x5f,0x02,0x2a,0x00,0x01,0x24,0x00,0x2c,0x2a,0x1d,
0x01,0x24,0x63,0x02,0x2a,0x00,0x01,0x24,0x00,0x2c,0x2a,0x0b,0x03,0x2a,0x00,0x2d,
0x2a,0x24,0x01,0x28,0x71,0x01,0x28,0x00,0x01,0x2a,0x00,0x2d,0x2a,0x13,0x03,0x2a,
0x00,0x2e,0x24,0x5e,0x00,0x2a,0x34,0x03,0x2a,0x00,0x00,0x24,0x00,0x2c,0x2a,0x18,
0x03,0x2a,0x00,0x2d,0x2a,0x38,0x01,0x28,0x75,0x01,0x28,0x00,0x01,0x2a,0x00,0x2d,
0x2a,0x1a,0x01,0x24,0x67,0x02,0x2a,0x00,0x01,0x24,0x00,0x2c,0x2a,0x32,0x01,0x24,
0x6b,0x02,0x2a,0x00,0x01,0x24,0x00,0x2c,0x2a,0x2a,0x03,0x2a,0x00,0x2d,0x2a,0x38,
0x01,0x28,0x71,0x01,0x28,0x00,0x01,0x2a,0x00,0x2e,0x2a,0x26,0x03,0x2a,0x00,0x2d,
0x24,0x6e,0x00,0x2a,0x33,0x03,0x2a,0x00,0x00,0x24,0x00,0x2c,0x2a,0x26,0x03,0x2a,
0x00,0x2d,0x2a,0x35,0x01,0x28,0x72,0x01,0x28,0x00,0x01,0x2a,0x00,0x2e,0x24,0x6a,
0x00,0x2a,0x27,0x03,0x2a,0x00,0x00,0x24,0x00,0x2c,0x2a,0x39,0x01,0x24,0x60,0x02,
0x2a,0x00,0x01,0x24,0x00,0x2c,0x2a,0x1c,0x03,0x2a,0x00,0x2e,0x28,0x75,0x00,0x2a,
0x38,0x01,0x28,0x00,0x02,0x2a,0x00,0x2d,0x2a,0x2d,0x03,0x2a,0x00,0x2d,0x24,0x60,
0x00,0x2a,0x3b,0x03,0x2a,0x00,0x00,0x24,0x00,0x2c,0x2a,0x24,0x03,0x2a,0x00,0x2e,
0x28,0x7c,0x00,0x2a,0x33,0x01,0x28,0x00,0x02,0x2a,0x00,0x2c,0x2a,0x2d,0x01,0x24,
0x69,0x02,0x2a,0x00,0x01,0x24,0x00,0x2c,0x2a,0x33,0x01,0x24,0x5d,0x02,0x2a,0x00,
0x01,0x24,0x00,0x2d,0x2a,0x23,0x03,0x2a,0x00,0x2c,0x2a,0x32,0x01,0x28,0x77,0x01,
0x28,0x00,0x01,0x2a,0x00,0x2d,0x2a,0x2c,0x03,0x2a,0x00,0x2d,0x2a,0x34,0x01,0x24,
0x61,0x02,0x2a,0x00,0x01,0x24,0x00,0x2c,0x2a,0x2d,0x03,0x2a,0x00,0x2d,0x2a,0x36,
0x01,0x28,0x78,0x01,0x28,0x00,0x01,0x2a,0x00,0x2d,0x2a,0x1a,0x01,0x24,0x6d,0x02,
0x2a,0x00,0x01,0x24,0x00,0x2d,0x24,0x60,0x00,0x2a,0x39,0x03,0x2a,0x00,0x00,0x24,
0x00,0x2c,0x2a,0x2c,0x03,0x2a,0x00,0x2e,0x28,0x72,0x00,0x2a,0x34,0x01,0x28,0x00,
0x02,0x2a,0x00,0x2d,0x2a,0x32,0x03,0x2a,0x00,0x2d,0x24,0x61,0x00,0x2a,0x35,0x03,
0x2a,0x00,0x00,0x24,0x00,0x2c,0x2a,0x2d,0x03,0x2a,0x00,0x2d,0x2a,0x33,0x01,0x28,
0x7b,0x01,0x28,0x00,0x01,0x2a,0x00,0x2e,0x24,0x59,0x00,0x2a,0x2f,0x03,0x2a,0x00,
0x00,0x24,0x00,0x2c,0x2a,0x33,0x01,0x24,0x62,0x02,0x2a,0x00,0x01,0x24,0x00,0x2c,
0x2a,0x2e,0x03,0x2a,0x00,0x2d,0x2a,0x36,0x01,0x28,0x70,0x01,0x28,0x00,0x01,0x2a,
0x00,0x2d,0x2a,0x27,0x03,0x2a,0x00,0x2d,0x2a,0x36,0x01,0x24,0x5b,0x02,0x2a,0x00,
0x01,0x24,0x00,0x2c,0x2a,0x2f,0x03,0x2a,0x00,0x2e,0x28,0x73,0x00,0x2a,0x3b,0x01,
0x28,0x00,0x02,0x2a,0x00,0x2d,0x24,0x55,0x00,0x2a,0x29,0x03,0x2a,0x00,0x00,0x24,
0x00,0x2d,0x24,0x57,0x00,0x2a,0x39,0x03,0x2a,0x00,0x00,0x24,0x00,0x2c,0x2a,0x2b,
0x03,0x2a,0x00,0x2d,0x2a,0x38,0x01,0x28,0x78,0x01,0x28,0x00,0x01,0x2a,0x00,0x2d,
0x2a,0x2d,0x03,0x2a,0x00,0x2e,0x24,0x60,0x00,0x2a,0x35,0x03,0x2a,0x00,0x00,0x24,
0x00,0x2c,0x2a,0x2d,0x03,0x2a,0x00,0x2d,0x2a,0x33,0x01,0x28,0x70,0x01,0x28,0x00,
0x01,0x2a,0x00,0x2d,0x2a,0x2c,0x01,0x24,0x59,0x02,0x2a,0x00,0x01,0x24,0x00,0x2d,
0x24,0x6e,0x00,0x2a,0x35,0x03,0x2a,0x00,0x00,0x24,0x00,0x2c,0x2a,0x2b,0x03,0x2a,
0x00,0x2d,0x2a,0x34,0x01,0x28,0x71,0x01,0x28,0x00,0x01,0x2a,0x00,0x2d,0x2a,0x2c,
0x03,0x2a,0x00,0x2e,0x24,0x60,0x00,0x2a,0x39,0x03,0x2a,0x00,0x00,0x24,0x00,0x2d,
0x2a,0x29,0x03,0x2a,0x00,0x2d,0x28,0x74,0x00,0x2a,0x32,0x01,0x28,0x00,0x02,0x2a,
0x00,0x2c,0x2a,0x2b,0x01,0x24,0x69,0x02,0x2a,0x00,0x01,0x24,0x00,0x2d,0x24,0x69,
0x00,0x2a,0x36,0x03,0x2a,0x00,0x00,0x24,0x00,0x2c,0x2a,0x2a,0x03,0x2a,0x00,0x2d,
0x2a,0x38,0x01,0x28,0x77,0x01,0x28,0x00,0x01,0x2a,0x00,0x2e,0x2a,0x21,0x03,0x2a,
0x00,0x2d,0x24,0x6b,0x00,0x2a,0x3a,0x03,0x2a,0x00,0x00,0x24,0x00,0x2c,0x2a,0x27,
0x03,0x2a,0x00,0x2d,0x2a,0x35,0x01,0x28,0x72,0x01,0x28,0x00,0x01,0x2a,0x00,0x2d,
0x2a,0x1a,0x01,0x24,0x5a,0x02,0x2a,0x00,0x01,0x24,0x00,0x2c,0x2a,0x34,0x01,0x24,
0x64,0x02,0x2a,0x00,0x01,0x24,0x00,0x2c,0x2a,0x27,0x03,0x2a,0x00,0x2e,0x28,0x77,
0x00,0x2a,0x2f,0x01,0x28,0x00,0x02,0x2a,0x00,0x2c,0x2a,0x20,0x03,0x2a,0x00,0x2d,
0x2a,0x39,0x01,0x24,0x5f,0x02,0x2a,0x00,0x01,0x24,0x00,0x2c,0x2a,0x1a,0x03,0x2a,
0x00,0x2d,0x2a,0x34,0x01,0x28,0x75,0x01,0x28,0x00,0x01,0x2a,0x00,0x2d,0x2a,0x15,
0x01,0x24,0x5f,0x02,0x2a,0x00,0x01,0x24,0x00,0x2c,0x2a,0x30,0x01,0x24,0x5a,0x02,
0x2a,0x00,0x01,0x24,0x00,0x2d,0x2a,0x12,0x03,0x2a,0x00,0x2c,0x2a,0x38,0x01,0x28,
0x7c,0x01,0x28,0x00,0x01,0x2a,0x00,0x2d,0x2a,0x1c,0x03,0x2a,0x00,0x2e,0x24,0x64,
0x00,0x2a,0x32,0x03,0x2a,0x00,0x00,0x24,0x00,0x2c,0x2a,0x1c,0x03,0x2a,0x00,0x2d,
0x2a,0x30,0x01,0x28,0x79,0x01,0x28,0x00,0x01,0x2a,0x00,0x2d,0x2a,0x18,0x01,0x24,
0x6e,0x02,0x2a,0x00,0x01,0x24,0x00,0x2d,0x24,0x68,0x00,0x2a,0x30,0x03,0x2a,0x00,
0x00,0x24,0x00,0x2c,0x2a,0x1f,0x03,0x2a,0x00,0x2d,0x2a,0x33,0x01,0x28,0x7c,0x01,
0x28,0x00,0x01,0x2a,0x00,0x2d,0x2a,0x27,0x03,0x2a,0x00,0x2e,0x24,0x60,0x00,0x2a,
0x36,0x03,0x2a,0x00,0x00,0x24,0x00,0x2c,0x2a,0x2d,0x03,0x2a,0x00,0x2d,0x2a,0x32,
0x01,0x28,0x70,0x01,0x28,0x00,0x01,0x2a,0x00,0x2d,0x2a,0x25,0x01,0x24,0x5b,0x02,
0x2a,0x00,0x01,0x24,0x00,0x2c,0x2a,0x32,0x01,0x24,0x6d,0x02,0x2a,0x00,0x01,0x24,
0x00,0x2c,0x2a,0x2d,0x03,0x2a,0x00,0x2d,0x2a,0x34,0x01,0x28,0x71,0x01,0x28,0x00,
0x01,0x2a,0x00,0x2d,0x2a,0x26,0x03,0x2a,0x00,0x2d,0x2a,0x32,0x01,0x24,0x65,0x02,
0x2a,0x00,0x01,0x24,0x00,0x2c,0x2a,0x27,0x03,0x2a,0x00,0x2d,0x2a,0x30,0x01,0x28,
0x73,0x01,0x28,0x00,0x01,0x2a,0x00,0x2d,0x2a,0x25,0x01,0x24,0x67,0x02,0x2a,0x00,
0x01,0x24,0x00,0x2c,0x2a,0x2e,0x01,0x24,0x64,0x02,0x2a,0x00,0x01,0x24,0x00,0x2c,
0x2a,0x2d,0x03,0x2a,0x00,0x2d,0x2a,0x2f,0x01,0x28,0x70,0x01,0x28,0x00,0x01,0x2a,
0x00,0x2d,0x2a,0x1b,0x03,0x2a,0x00,0x2d,0x2a,0x2d,0x01,0x24,0x66,0x02,0x2a,0x00,
0x01,0x24,0x00,0x2c,0x2a,0x22,0x03,0x2a,0x00,0x29,0x28,0x7c,0x01,0x28,0x00,0x04,
0x2a,0x2c,0x02,0x28,0x7b,0x01,0x28,0x00,0x00,0x2a,0x00,0x2c,0x2a,0x25,0x01,0x24,
0x6f,0x02,0x2a,0x00,0x01,0x24,0x00,0x2c,0x2a,0x2b,0x01,0x24,0x5e,0x00,0x28,0x7c,
0x00,0x30,0x77,0x01,0x28,0x00,0x01,0x2a,0x00,0x01,0x24,0x00,0x00,0x30,0x00,0x2c,
0x2a,0x27,0x01,0x28,0x73,0x00,0x2d,0x60,0x01,0x28,0x00,0x01,0x2a,0x00,0x01,0x2d,
0x00,0x2c,0x31,0x77,0x01,0x24,0x73,0x00,0x28,0x79,0x00,0x2d,0x73,0x01,0x28,0x00,
0x01,0x31,0x00,0x01,0x24,0x00,0x00,0x2d,0x00,0x2c,0x2a,0x21,0x01,0x28,0x7b,0x00,
0x2d,0x7a,0x01,0x28,0x00,0x01,0x2a,0x00,0x01,0x2d,0x00,0x2d,0x24,0x7c,0x00,0x31,
0x7e,0x03,0x31,0x00,0x00,0x24,0x00,0x5c,0x33,0x7e,0x01,0x28,0x77,0x01,0x28,0x00,
0x01,0x33,0x00,0x2e,0x24,0x79,0x03,0x24,0x00,0x2c,0x33,0x5a,0x01,0x24,0x7e,0x02,
0x33,0x00,0x01,0x24,0x00,0x5c,0x33,0x74,0x01,0x28,0x73,0x01,0x28,0x00,0x01,0x33,
0x00,0x2e,0x24,0x7e,0x03,0x24,0x00,0x2c,0x33,0x6c,0x01,0x24,0x7d,0x02,0x33,0x00,
0x01,0x24,0x00,0x5c,0x33,0x68,0x01,0x28,0x73,0x01,0x28,0x00,0x01,0x33,0x00,0x2e,
0x24,0x7d,0x03,0x24,0x00,0x2c,0x33,0x63,0x01,0x24,0x78,0x02,0x33,0x00,0x01,0x24,
0x00,0x2d,0x28,0x79,0x01,0x28,0x00,0x2e,0x35,0x5b,0x01,0x28,0x74,0x01,0x28,0x00,
0x01,0x35,0x00,0x2e,0x24,0x7b,0x03,0x24,0x00,0x2d,0x24,0x7d,0x00,0x31,0x7e,0x03,
0x31,0x00,0x00,0x24,0x00,0x5c,0x33,0x67,0x01,0x28,0x77,0x01,0x28,0x00,0x01,0x33,
0x00,0x2e,0x24,0x78,0x03,0x24,0x00,0x2c,0x33,0x67,0x01,0x24,0x7d,0x02,0x33,0x00,
0x01,0x24,0x00,0x5c,0x33,0x69,0x01,0x28,0x70,0x01,0x28,0x00,0x01,0x33,0x00,0x2e,
0x24,0x7a,0x03,0x24,0x00,0x2c,0x33,0x67,0x01,0x24,0x79,0x02,0x33,0x00,0x01,0x24,
0x00,0x5c,0x33,0x67,0x01,0x28,0x7c,0x01,0x28,0x00,0x01,0x33,0x00,0x2e,0x24,0x7a,
0x03,0x24,0x00,0x2c,0x33,0x69,0x01,0x24,0x7d,0x02,0x33,0x00,0x01,0x24,0x00,0x2d,
0x28,0x77,0x01,0x28,0x00,0x2e,0x33,0x69,0x01,0x28,0x71,0x01,0x28,0x00,0x01,0x33,
0x00,0x2e,0x24,0x7d,0x03,0x24,0x00,0x2d,0x24,0x79,0x00,0x31,0x7e,0x03,0x31,0x00,
0x00,0x24,0x00,0x5c,0x33,0x69,0x01,0x28,0x70,0x01,0x28,0x00,0x01,0x33,0x00,0x2e,
0x24,0x78,0x03,0x24,0x00,0x2c,0x33,0x67,0x01,0x24,0x7a,0x02,0x33,0x00,0x01,0x24,
0x00,0x5c,0x33,0x69,0x01,0x28,0x78,0x01,0x28,0x00,0x01,0x33,0x00,0x2e,0x24,0x7d,
0x03,0x24,0x00,0x2c,0x33,0x67,0x01,0x24,0x7a,0x02,0x33,0x00,0x01,0x24,0x00,0x5c,
0x33,0x67,0x01,0x28,0x7c,0x01,0x28,0x00,0x01,0x33,0x00,0x2e,0x24,0x7b,0x03,0x24,
0x00,0x2c,0x33,0x67,0x01,0x24,0x78,0x02,0x33,0x00,0x01,0x24,0x00,0x2d,0x28,0x78,
0x01,0x28,0x00,0x2e,0x33,0x67,0x01,0x28,0x74,0x01,0x28,0x00,0x01,0x33,0x00,0x2e,
0x24,0x79,0x03,0x24,0x00,0x2c,0x31,0x78,0x01,0x24,0x77,0x02,0x31,0x00,0x01,0x24,
0x00,0x5c,0x33,0x61,0x01,0x28,0x79,0x01,0x28,0x00,0x01,0x33,0x00,0x2e,0x24,0x7e,
0x03,0x24,0x00,0x2c,0x33,0x67,0x01,0x24,0x78,0x02,0x33,0x00,0x01,0x24,0x00,0x5c,
0x33,0x67,0x01,0x28,0x74,0x01,0x28,0x00,0x01,0x33,0x00,0x2e,0x24,0x7e,0x03,0x24,
0x00,0x2c,0x33,0x67,0x01,0x24,0x79,0x02,0x33,0x00,0x01,0x24,0x00,0x2d,0x24,0x78,
0x03,0x24,0x00,0x2c,0x33,0x69,0x01,0x28,0x75,0x01,0x28,0x00,0x01,0x33,0x00,0x2e,
0x24,0x7b,0x03,0x24,0x00,0x2c,0x33,0x67,0x03,0x33,0x00,0x2e,0x24,0x7b,0x03,0x24,
0x00,0x2c,0x33,0x69,0x01,0x28,0x71,0x01,0x28,0x00,0x01,0x33,0x00,0x2e,0x24,0x7b,
0x03,0x24,0x00,0x2d,0x24,0x78,0x00,0x31,0x77,0x03,0x31,0x00,0x00,0x24,0x00,0x5c,
0x33,0x61,0x01,0x28,0x7c,0x01,0x28,0x00,0x01,0x33,0x00,0x2e,0x24,0x7a,0x03,0x24,
0x00,0x2c,0x33,0x65,0x01,0x24,0x7c,0x02,0x33,0x00,0x01,0x24,0x00,0x5c,0x33,0x65,
0x01,0x28,0x73,0x01,0x28,0x00,0x01,0x33,0x00,0x2e,0x24,0x7e,0x03,0x24,0x00,0x2c,
0x33,0x69,0x01,0x24,0x7c,0x02,0x33,0x00,0x01,0x24,0x00,0x2d,0x28,0x71,0x01,0x28,
0x00,0x2e,0x33,0x69,0x01,0x24,0x79,0x02,0x33,0x00,0x01,0x24,0x00,0x2d,0x24,0x7e,
0x03,0x24,0x00,0x2c,0x33,0x69,0x01,0x28,0x7b,0x01,0x28,0x00,0x01,0x33,0x00,0x2e,
0x24,0x7e,0x03,0x24,0x00,0x2c,0x33,0x69,0x01,0x28,0x72,0x01,0x28,0x00,0x01,0x33,
0x00,0x2e,0x24,0x77,0x03,0x24,0x00,0x2d,0x24,0x65,0x00,0x31,0x7d,0x03,0x31,0x00,
0x00,0x24,0x00,0x5c,0x2a,0x2b,0x01,0x28,0x73,0x01,0x28,0x00,0x01,0x2a,0x00,0x2e,
0x24,0x56,0x00,0x2a,0x13,0x03,0x2a,0x00,0x00,0x24,0x00,0x2d,0x24,0x5e,0x00,0x2a,
0x37,0x03,0x2a,0x00,0x00,0x24,0x00,0x2c,0x2a,0x1b,0x03,0x2a,0x00,0x2e,0x28,0x70,
0x00,0x2c,0x41,0x01,0x28,0x00,0x02,0x2c,0x00,0x2d,0x2a,0x30,0x03,0x2a,0x00,0x2c,
0x2a,0x39,0x01,0x24,0x6a,0x02,0x2a,0x00,0x01,0x24,0x00,0x2c,0x2a,0x39,0x03,0x2a,
0x00,0x2e,0x28,0x77,0x00,0x2a,0x3f,0x01,0x28,0x00,0x02,0x2a,0x00,0x2d,0x24,0x6b,
0x00,0x2a,0x37,0x03,0x2a,0x00,0x00,0x24,0x00,0x2c,0x2a,0x3d,0x01,0x24,0x5a,0x02,
0x2a,0x00,0x01,0x24,0x00,0x2c,0x2a,0x3f,0x03,0x2a,0x00,0x2e,0x28,0x78,0x00,0x2c,
0x3f,0x01,0x28,0x00,0x02,0x2c,0x00,0x2c,0x2a,0x39,0x03,0x2a,0x00,0x2d,0x2a,0x39,
0x01,0x24,0x5d,0x02,0x2a,0x00,0x01,0x24,0x00,0x2c,0x2a,0x39,0x03,0x2a,0x00,0x2e,
0x28,0x70,0x00,0x2a,0x41,0x01,0x28,0x00,0x02,0x2a,0x00,0x2c,0x2a,0x39,0x01,0x24,
0x66,0x02,0x2a,0x00,0x01,0x24,0x00,0x2d,0x24,0x67,0x00,0x2a,0x3f,0x03,0x2a,0x00,
0x00,0x24,0x00,0x2d,0x2a,0x3f,0x03,0x2a,0x00,0x2d,0x28,0x7c,0x00,0x2c,0x41,0x01,
0x28,0x00,0x02,0x2c,0x00,0x2c,0x2a,0x35,0x03,0x2a,0x00,0x2d,0x2a,0x39,0x01,0x24,
0x5f,0x02,0x2a,0x00,0x01,0x24,0x00,0x2d,0x2a,0x16,0x03,0x2a,0x00,0x2d,0x28,0x73,
0x00,0x2a,0x39,0x01,0x28,0x00,0x02,0x2a,0x00,0x2d,0x24,0x57,0x00,0x2a,0x2b,0x03,
0x2a,0x00,0x00,0x24,0x00,0x2c,0x2a,0x3d,0x01,0x24,0x57,0x02,0x2a,0x00,0x01,0x24,
0x00,0x2c,0x2a,0x35,0x03,0x2a,0x00,0x2e,0x28,0x75,0x00,0x2c,0x41,0x01,0x28,0x00,
0x02,0x2c,0x00,0x2d,0x2a,0x35,0x03,0x2a,0x00,0x2c,0x2a,0x39,0x01,0x24,0x52,0x02,
0x2a,0x00,0x01,0x24,0x00,0x2d,0x2a,0x32,0x03,0x2a,0x00,0x2d,0x28,0x78,0x00,0x2a,
0x39,0x01,0x28,0x00,0x02,0x2a,0x00,0x2d,0x24,0x6c,0x00,0x2a,0x30,0x03,0x2a,0x00,
0x00,0x24,0x00,0x2d,0x24,0x5c,0x00,0x2a,0x39,0x03,0x2a,0x00,0x00,0x24,0x00,0x2c,
0x2a,0x3d,0x03,0x2a,0x00,0x2e,0x28,0x7a,0x00,0x2c,0x41,0x01,0x28,0x00,0x02,0x2c,
0x00,0x2d,0x2a,0x35,0x03,0x2a,0x00,0x2c,0x2a,0x39,0x01,0x24,0x6e,0x02,0x2a,0x00,
0x01,0x24,0x00,0x2d,0x2a,0x39,0x03,0x2a,0x00,0x2d,0x28,0x77,0x00,0x2a,0x39,0x01,
0x28,0x00,0x02,0x2a,0x00,0x2c,0x2a,0x32,0x01,0x24,0x55,0x02,0x2a,0x00,0x01,0x24,
0x00,0x2c,0x2a,0x35,0x01,0x24,0x5c,0x02,0x2a,0x00,0x01,0x24,0x00,0x2c,0x2a,0x35,
0x03,0x2a,0x00,0x2e,0x28,0x79,0x00,0x2c,0x3f,0x01,0x28,0x00,0x02,0x2c,0x00,0x2c,
0x2a,0x2b,0x03,0x2a,0x00,0x2d,0x2a,0x35,0x01,0x24,0x54,0x02,0x2a,0x00,0x01,0x24,
0x00,0x2c,0x2a,0x39,0x03,0x2a,0x00,0x2e,0x28,0x73,0x00,0x2a,0x39,0x01,0x28,0x00,
0x02,0x2a,0x00,0x2c,0x2a,0x2d,0x01,0x24,0x5d,0x02,0x2a,0x00,0x01,0x24,0x00,0x2c,
0x2a,0x39,0x01,0x24,0x69,0x02,0x2a,0x00,0x01,0x24,0x00,0x2c,0x2a,0x2b,0x03,0x2a,
0x00,0x2e,0x28,0x77,0x00,0x2c,0x41,0x01,0x28,0x00,0x02,0x2c,0x00,0x2c,0x2a,0x32,
0x03,0x2a,0x00,0x2d,0x2a,0x3f,0x01,0x24,0x6d,0x02,0x2a,0x00,0x01,0x24,0x00,0x2d,
0x2a,0x35,0x03,0x2a,0x00,0x2a,0x28,0x78,0x01,0x28,0x00,0x02,0x28,0x74,0x00,0x2a,
0x3f,0x01,0x28,0x00,0x02,0x2a,0x00,0x2c,0x24,0x6c,0x00,0x2a,0x32,0x03,0x2a,0x00,
0x00,0x24,0x00,0x2e,0x24,0x61,0x00,0x2a,0x40,0x00,0x30,0x77,0x03,0x30,0x00,0x00,
0x2a,0x00,0x00,0x24,0x00,0x2c,0x2a,0x3d,0x01,0x24,0x52,0x00,0x30,0x62,0x02,0x2a,
0x00,0x01,0x30,0x00,0x00,0x24,0x00,0x2d,0x24,0x6e,0x00,0x28,0x70,0x00,0x31,0x7a,
0x01,0x28,0x00,0x02,0x31,0x00,0x00,0x24,0x00,0x5d,0x24,0x5d,0x00,0x2a,0x2d,0x03,
0x2a,0x00,0x00,0x24,0x00,0x2c,0x2a,0x1e,0x03,0x2a,0x00,0x2d,0x2a,0x30,0x01,0x28,
0x75,0x01,0x28,0x00,0x01,0x2a,0x00,0x2e,0x24,0x6e,0x00,0x2a,0x0a,0x03,0x2a,0x00,
0x00,0x24,0x00,0x2c,0x2a,0x2b,0x01,0x24,0x6f,0x02,0x2a,0x00,0x01,0x24,0x00,0x2c,
0x2a,0x10,0x03,0x2a,0x00,0x2d,0x2a,0x1f,0x01,0x28,0x77,0x01,0x28,0x00,0x01,0x2a,
0x00,0x2e,0x2a,0x12,0x03,0x2a,0x00,0x2c,0x2a,0x25,0x01,0x24,0x6d,0x02,0x2a,0x00,
0x01,0x24,0x00,0x2c,0x2a,0x0f,0x03,0x2a,0x00,0x2e,0x28,0x71,0x00,0x2a,0x1d,0x01,
0x28,0x00,0x02,0x2a,0x00,0x2c,0x2a,0x11,0x01,0x24,0x6d,0x02,0x2a,0x00,0x01,0x24,
0x00,0x2c,0x2a,0x1d,0x01,0x24,0x61,0x02,0x2a,0x00,0x01,0x24,0x00,0x2c,0x2a,0x0b,
0x03,0x2a,0x00,0x2d,0x2a,0x24,0x01,0x28,0x7b,0x01,0x28,0x00,0x01,0x2a,0x00,0x2d,
0x2a,0x13,0x03,0x2a,0x00,0x2e,0x24,0x6e,0x00,0x2a,0x34,0x03,0x2a,0x00,0x00,0x24,
0x00,0x2c,0x2a,0x18,0x03,0x2a,0x00,0x2d,0x2a,0x38,0x01,0x28,0x78,0x01,0x28,0x00,
0x01,0x2a,0x00,0x2d,0x2a,0x1a,0x01,0x24,0x6a,0x02,0x2a,0x00,0x01,0x24,0x00,0x2c,
0x2a,0x32,0x01,0x24,0x56,0x02,0x2a,0x00,0x01,0x24,0x00,0x2c,0x2a,0x2a,0x03,0x2a,
0x00,0x2d,0x2a,0x38,0x01,0x28,0x72,0x01,0x28,0x00,0x01,0x2a,0x00,0x2d,0x2a,0x26,
0x03,0x2a,0x00,0x2d,0x2a,0x33,0x01,0x24,0x52,0x02,0x2a,0x00,0x01,0x24,0x00,0x2c,
0x2a,0x26,0x03,0x2a,0x00,0x2d,0x2a,0x35,0x01,0x28,0x74,0x01,0x28,0x00,0x01,0x2a,
0x00,0x2d,0x2a,0x27,0x01,0x24,0x68,0x02,0x2a,0x00,0x01,0x24,0x00,0x2c,0x2a,0x39,
0x01,0x24,0x65,0x02,0x2a,0x00,0x01,0x24,0x00,0x2c,0x2a,0x1c,0x03,0x2a,0x00,0x2d,
0x2a,0x38,0x01,0x28,0x74,0x01,0x28,0x00,0x01,0x2a,0x00,0x2d,0x2a,0x2d,0x03,0x2a,
0x00,0x2e,0x24,0x5d,0x00,0x2a,0x3b,0x03,0x2a,0x00,0x00,0x24,0x00,0x2d,0x2a,0x24,
0x03,0x2a,0x00,0x2d,0x28,0x7c,0x00,0x2a,0x33,0x01,0x28,0x00,0x02,0x2a,0x00,0x2c,
0x2a,0x2d,0x01,0x24,0x58,0x02,0x2a,0x00,0x01,0x24,0x00,0x2c,0x2a,0x33,0x01,0x24,
0x6e,0x02,0x2a,0x00,0x01,0x24,0x00,0x2c,0x2a,0x23,0x03,0x2a,0x00,0x2d,0x2a,0x32,
0x01,0x28,0x76,0x01,0x28,0x00,0x01,0x2a,0x00,0x2d,0x2a,0x2c,0x03,0x2a,0x00,0x2d,
0x2a,0x34,0x01,0x24,0x64,0x02,0x2a,0x00,0x01,0x24,0x00,0x2c,0x2a,0x2d,0x03,0x2a,
0x00,0x2d,0x2a,0x36,0x01,0x28,0x74,0x01,0x28,0x00,0x01,0x2a,0x00,0x2d,0x2a,0x1a,
0x01,0x24,0x56,0x02,0x2a,0x00,0x01,0x24,0x00,0x2c,0x2a,0x39,0x01,0x24,0x5c,0x02,
0x2a,0x00,0x01,0x24,0x00,0x2d,0x2a,0x2c,0x03,0x2a,0x00,0x2d,0x28,0x7c,0x00,0x2a,
0x34,0x01,0x28,0x00,0x02,0x2a,0x00,0x2d,0x2a,0x32,0x03,0x2a,0x00,0x2d,0x24,0x6b,
0x00,0x2a,0x35,0x03,0x2a,0x00,0x00,0x24,0x00,0x2c,0x2a,0x2d,0x03,0x2a,0x00,0x2d,
0x2a,0x33,0x01,0x28,0x7a,0x01,0x28,0x00,0x01,0x2a,0x00,0x2d,0x2a,0x39,0x01,0x24,
0x63,0x02,0x2a,0x00,0x01,0x24,0x00,0x2d,0x24,0x5b,0x00,0x2a,0x33,0x03,0x2a,0x00,
0x00,0x24,0x00,0x2c,0x2a,0x2e,0x03,0x2a,0x00,0x2e,0x28,0x78,0x00,0x2a,0x36,0x01,
0x28,0x00,0x02,0x2a,0x00,0x2c,0x2a,0x27,0x03,0x2a,0x00,0x2d,0x2a,0x36,0x01,0x24,
0x57,0x02,0x2a,0x00,0x01,0x24,0x00,0x2c,0x2a,0x2f,0x03,0x2a,0x00,0x2e,0x28,0x7a,
0x00,0x2a,0x3b,0x01,0x28,0x00,0x02,0x2a,0x00,0x2d,0x24,0x6a,0x00,0x2a,0x29,0x03,
0x2a,0x00,0x00,0x24,0x00,0x2d,0x24,0x56,0x00,0x2a,0x39,0x03,0x2a,0x00,0x00,0x24,
0x00,0x2c,0x2a,0x2b,0x03,0x2a,0x00,0x2d,0x2a,0x38,0x01,0x28,0x7a,0x01,0x28,0x00,
0x01,0x2a,0x00,0x2e,0x2a,0x2d,0x03,0x2a,0x00,0x2c,0x2a,0x35,0x01,0x24,0x59,0x02,
0x2a,0x00,0x01,0x24,0x00,0x2c,0x2a,0x2d,0x03,0x2a,0x00,0x2d,0x2a,0x33,0x01,0x28,
0x78,0x01,0x28,0x00,0x01,0x2a,0x00,0x2d,0x2a,0x2c,0x01,0x24,0x61,0x02,0x2a,0x00,
0x01,0x24,0x00,0x2c,0x2a,0x35,0x01,0x24,0x5f,0x02,0x2a,0x00,0x01,0x24,0x00,0x2c,
0x2a,0x2b,0x03,0x2a,0x00,0x2d,0x2a,0x34,0x01,0x28,0x7c,0x01,0x28,0x00,0x01,0x2a,
0x00,0x2d,0x2a,0x2c,0x03,0x2a,0x00,0x2e,0x24,0x59,0x00,0x2a,0x39,0x03,0x2a,0x00,
0x00,0x24,0x00,0x2d,0x2a,0x29,0x03,0x2a,0x00,0x2c,0x2a,0x32,0x01,0x28,0x76,0x01,
0x28,0x00,0x01,0x2a,0x00,0x2d,0x2a,0x2b,0x01,0x24,0x61,0x02,0x2a,0x00,0x01,0x24,
0x00,0x2c,0x2a,0x36,0x01,0x24,0x58,0x02,0x2a,0x00,0x01,0x24,0x00,0x2c,0x2a,0x2a,
0x03,0x2a,0x00,0x2d,0x2a,0x38,0x01,0x28,0x71,0x01,0x28,0x00,0x01,0x2a,0x00,0x2d,
0x2a,0x21,0x03,0x2a,0x00,0x2e,0x24,0x63,0x00,0x2a,0x3a,0x03,0x2a,0x00,0x00,0x24,
0x00,0x2c,0x2a,0x27,0x03,0x2a,0x00,0x2d,0x2a,0x35,0x01,0x28,0x77,0x01,0x28,0x00,
0x01,0x2a,0x00,0x2d,0x2a,0x1a,0x01,0x24,0x55,0x02,0x2a,0x00,0x01,0x24,0x00,0x2c,
0x2a,0x34,0x01,0x24,0x6a,0x02,0x2a,0x00,0x01,0x24,0x00,0x2c,0x2a,0x27,0x03,0x2a,
0x00,0x2d,0x2a,0x2f,0x01,0x28,0x78,0x01,0x28,0x00,0x01,0x2a,0x00,0x2d,0x2a,0x20,
0x03,0x2a,0x00,0x2d,0x2a,0x39,0x01,0x24,0x5f,0x02,0x2a,0x00,0x01,0x24,0x00,0x2d,
0x2a,0x1a,0x03,0x2a,0x00,0x2c,0x2a,0x34,0x01,0x28,0x78,0x01,0x28,0x00,0x01,0x2a,
0x00,0x2d,0x2a,0x15,0x01,0x24,0x66,0x02,0x2a,0x00,0x01,0x24,0x00,0x2c,0x2a,0x30,
0x01,0x24,0x54,0x02,0x2a,0x00,0x01,0x24,0x00,0x2c,0x2a,0x12,0x03,0x2a,0x00,0x2d,
0x2a,0x38,0x01,0x28,0x74,0x01,0x28,0x00,0x01,0x2a,0x00,0x2e,0x2a,0x1c,0x03,0x2a,
0x00,0x2d,0x24,0x57,0x00,0x2a,0x32,0x03,0x2a,0x00,0x00,0x24,0x00,0x2c,0x2a,0x1c,
0x03,0x2a,0x00,0x2d,0x2a,0x30,0x01,0x28,0x72,0x01,0x28,0x00,0x01,0x2a,0x00,0x2d,
0x2a,0x18,0x01,0x24,0x6d,0x02,0x2a,0x00,0x01,0x24,0x00,0x2c,0x2a,0x30,0x01,0x24,
0x6f,0x02,0x2a,0x00,0x01,0x24,0x00,0x2d,0x2a,0x1f,0x03,0x2a,0x00,0x2c,0x2a,0x33,
0x01,0x28,0x7a,0x01,0x28,0x00,0x01,0x2a,0x00,0x2d,0x2a,0x27,0x03,0x2a,0x00,0x2e,
0x24,0x54,0x00,0x2a,0x36,0x03,0x2a,0x00,0x00,0x24,0x00,0x2d,0x2a,0x2d,0x03,0x2a,
0x00,0x2d,0x28,0x78,0x00,0x2a,0x32,0x01,0x28,0x00,0x02,0x2a,0x00,0x2c,0x2a,0x25,
0x01,0x24,0x58,0x02,0x2a,0x00,0x01,0x24,0x00,0x2c,0x2a,0x32,0x01,0x24,0x5c,0x02,
0x2a,0x00,0x01,0x24,0x00,0x2c,0x2a,0x2d,0x03,0x2a,0x00,0x2d,0x2a,0x34,0x01,0x28,
0x72,0x01,0x28,0x00,0x01,0x2a,0x00,0x2e,0x2a,0x26,0x03,0x2a,0x00,0x2d,0x24,0x53,
0x00,0x2a,0x32,0x03,0x2a,0x00,0x00,0x24,0x00,0x2c,0x2a,0x27,0x03,0x2a,0x00,0x2d,
0x2a,0x30,0x01,0x28,0x7b,0x01,0x28,0x00,0x01,0x2a,0x00,0x2d,0x2a,0x25,0x01,0x24,
0x5b,0x02,0x2a,0x00,0x01,0x24,0x00,0x2c,0x2a,0x2e,0x01,0x24,0x53,0x02,0x2a,0x00,
0x01,0x24,0x00,0x2c,0x2a,0x2d,0x03,0x2a,0x00,0x2d,0x2a,0x2f,0x01,0x28,0x71,0x01,
0x28,0x00,0x01,0x2a,0x00,0x2d,0x2a,0x1b,0x03,0x2a,0x00,0x2d,0x2a,0x2d,0x01,0x24,
0x6e,0x02,0x2a,0x00,0x01,0x24,0x00,0x2c,0x2a,0x22,0x03,0x2a,0x00,0x29,0x28,0x73,
0x01,0x28,0x00,0x04,0x2a,0x2c,0x02,0x28,0x79,0x01,0x28,0x00,0x00,0x2a,0x00,0x2d,
0x24,0x60,0x00,0x2a,0x25,0x03,0x2a,0x00,0x00,0x24,0x00,0x2c,0x2a,0x2b,0x01,0x24,
0x50,0x02,0x2a,0x00,0x01,0x24,0x00,0x2c,0x2a,0x27,0x03,0x2a,0x00,0x2d,0x2c,0x2a,
0x01,0x28,0x71,0x01,0x28,0x00,0x01,0x2c,0x00,0x2d,0x2a,0x21,0x03,0x2a,0x00,0x2e,
0x24,0x6c,0x00,0x2a,0x32,0x03,0x2a,0x00,0x00,0x24,0x00,0x2c,0x2a,0x1c,0x03,0x2a,
0x00,0x2d,0x2a,0x30,0x01,0x28,0x73,0x01,0x28,0x00,0x01,0x2a,0x00,0x2e,0x24,0x5b,
0x00,0x2a,0x18,0x03,0x2a,0x00,0x00,0x24,0x00,0x2c,0x2a,0x30,0x01,0x24,0x6c,0x02,
0x2a,0x00,0x01,0x24,0x00,0x2d,0x2a,0x1f,0x03,0x2a,0x00,0x2c,0x2a,0x33,0x01,0x28,
0x79,0x01,0x28,0x00,0x01,0x2a,0x00,0x2d,0x2a,0x27,0x03,0x2a,0x00,0x2e,0x24,0x58,
0x00,0x2a,0x36,0x03,0x2a,0x00,0x00,0x24,0x00,0x2c,0x2a,0x2d,0x03,0x2a,0x00,0x2d,
0x2a,0x32,0x01,0x28,0x70,0x01,0x28,0x00,0x01,0x2a,0x00,0x2d,0x2a,0x25,0x01,0x24,
0x52,0x02,0x2a,0x00,0x01,0x24,0x00,0x2c,0x2a,0x32,0x01,0x24,0x69,0x02,0x2a,0x00,
0x01,0x24,0x00,0x2c,0x2a,0x2d,0x03,0x2a,0x00,0x2d,0x2a,0x34,0x01,0x28,0x71,0x01,
0x28,0x00,0x01,0x2a,0x00,0x2e,0x2a,0x26,0x03,0x2a,0x00,0x2d,0x24,0x64,0x00,0x2a,
0x32,0x03,0x2a,0x00,0x00,0x24,0x00,0x2c,0x2a,0x27,0x03,0x2a,0x00,0x2d,0x2a,0x30,
0x01,0x28,0x7a,0x01,0x28,0x00,0x01,0x2a,0x00,0x2d,0x2a,0x25,0x01,0x24,0x57,0x02,
0x2a,0x00,0x01,0x24,0x00,0x2c,0x2a,0x2e,0x01,0x24,0x5c,0x02,0x2a,0x00,0x01,0x24,
0x00,0x2c,0x2a,0x2d,0x03,0x2a,0x00,0x2d,0x2a,0x2f,0x01,0x28,0x70,0x01,0x28,0x00,
0x01,0x2a,0x00,0x2d,0x2a,0x1b,0x03,0x2a,0x00,0x2d,0x2a,0x2d,0x01,0x24,0x5d,0x02,
0x2a,0x00,0x01,0x24,0x00,0x2c,0x2a,0x22,0x03,0x2a,0x00,0x2d,0x2a,0x2c,0x01,0x28,
0x76,0x01,0x28,0x00,0x01,0x2a,0x00,0x2d,0x2a,0x25,0x01,0x24,0x6c,0x02,0x2a,0x00,
0x01,0x24,0x00,0x2c,0x2a,0x2b,0x01,0x24,0x50,0x02,0x2a,0x00,0x01,0x24,0x00,0x2c,
0x2a,0x27,0x03,0x2a,0x00,0x2d,0x2c,0x2a,0x01,0x28,0x79,0x01,0x28,0x00,0x01,0x2c,
0x00,0x2d,0x2a,0x21,0x03,0x2a,0x00,0x2e,0x24,0x68,0x00,0x2a,0x32,0x03,0x2a,0x00,
0x00,0x24,0x00,0x2c,0x2a,0x27,0x03,0x2a,0x00,0x2d,0x2a,0x30,0x01,0x28,0x73,0x01,
0x28,0x00,0x01,0x2a,0x00,0x2d,0x2a,0x25,0x01,0x24,0x56,0x02,0x2a,0x00,0x01,0x24,
0x00,0x2c,0x2a,0x2e,0x01,0x24,0x65,0x02,0x2a,0x00,0x01,0x24,0x00,0x2c,0x2a,0x2d,
0x03,0x2a,0x00,0x2d,0x2a,0x2f,0x01,0x28,0x71,0x01,0x28,0x00,0x01,0x2a,0x00,0x2d,
0x2a,0x1b,0x03,0x2a,0x00,0x2d,0x2a,0x2d,0x01,0x24,0x5c,0x02,0x2a,0x00,0x01,0x24,
0x00,0x2c,0x2a,0x22,0x03,0x2a,0x00,0x29,0x28,0x7a,0x01,0x28,0x00,0x04,0x2a,0x2c,
0x01,0x28,0x7c,0x01,0x28,0x00,0x01,0x2a,0x00,0x2d,0x24,0x5e,0x00,0x2a,0x25,0x03,
0x2a,0x00,0x00,0x24,0x00,0x2d,0x24,0x50,0x00,0x2a,0x2b,0x03,0x2a,0x00,0x00,0x24,
0x00,0x2c,0x2a,0x27,0x03,0x2a,0x00,0x2d,0x39,0x78,0x01,0x28,0x74,0x01,0x28,0x00,
0x01,0x39,0x00,0x2e,0x2a,0x21,0x03,0x2a,0x00,0x2c,0x31,0x7c,0x01,0x24,0x6a,0x02,
0x31,0x00,0x01,0x24,0x00,0x2c,0x2a,0x30,0x03,0x2a,0x00,0x2e,0x28,0x7b,0x00,0x2a,
0x30,0x01,0x28,0x00,0x02,0x2a,0x00,0x2c,0x2a,0x30,0x01,0x24,0x6b,0x02,0x2a,0x00,
0x01,0x24,0x00,0x2c,0x2a,0x30,0x01,0x24,0x54,0x02,0x2a,0x00,0x01,0x24,0x00,0x2c,
0x2a,0x30,0x03,0x2a,0x00,0x2e,0x28,0x77,0x00,0x2c,0x30,0x01,0x28,0x00,0x02,0x2c,
0x00,0x2c,0x2a,0x30,0x03,0x2a,0x00,0x2d,0x2a,0x30,0x01,0x24,0x57,0x02,0x2a,0x00,
0x01,0x24,0x00,0x2d,0x2a,0x30,0x03,0x2a,0x00,0x2d,0x28,0x75,0x00,0x2a,0x30,0x01,
0x28,0x00,0x02,0x2a,0x00,0x2c,0x2a,0x30,0x01,0x24,0x5e,0x02,0x2a,0x00,0x01,0x24,
0x00,0x2c,0x2c,0x30,0x01,0x24,0x62,0x02,0x2c,0x00,0x01,0x24,0x00,0x2c,0x2a,0x30,
0x03,0x2a,0x00,0x2d,0x2a,0x30,0x01,0x28,0x72,0x01,0x28,0x00,0x01,0x2a,0x00,0x2d,
0x2c,0x30,0x03,0x2c,0x00,0x2e,0x24,0x66,0x00,0x2a,0x30,0x03,0x2a,0x00,0x00,0x24,
0x00,0x2c,0x2a,0x30,0x03,0x2a,0x00,0x2e,0x28,0x73,0x00,0x2a,0x30,0x01,0x28,0x00,
0x02,0x2a,0x00,0x2c,0x2a,0x30,0x01,0x24,0x52,0x02,0x2a,0x00,0x01,0x24,0x00,0x2c,
0x2a,0x30,0x01,0x24,0x52,0x02,0x2a,0x00,0x01,0x24,0x00,0x2c,0x2a,0x30,0x03,0x2a,
0x00,0x2e,0x28,0x74,0x00,0x2c,0x30,0x01,0x28,0x00,0x02,0x2c,0x00,0x2c,0x2a,0x30,
0x03,0x2a,0x00,0x2e,0x24,0x5f,0x00,0x2a,0x30,0x03,0x2a,0x00,0x00,0x24,0x00,0x2c,
0x2a,0x30,0x03,0x2a,0x00,0x2a,0x28,0x76,0x01,0x28,0x00,0x03,0x2c,0x30,0x01,0x28,
0x72,0x01,0x28,0x00,0x01,0x2c,0x00,0x2d,0x24,0x6d,0x00,0x2a,0x2b,0x03,0x2a,0x00,
0x00,0x24,0x00,0x2c,0x2a,0x35,0x01,0x24,0x54,0x00,0x2d,0x5a,0x02,0x2a,0x00,0x01,
0x2d,0x00,0x00,0x24,0x00,0x2c,0x2a,0x30,0x01,0x2d,0x6e,0x02,0x2a,0x00,0x01,0x2d,
0x00,0x2d,0x24,0x7c,0x00,0x2d,0x57,0x00,0x31,0x7b,0x03,0x31,0x00,0x00,0x2d,0x00,
0x00,0x24,0x00,0x2c,0x2a,0x30,0x03,0x2a,0x00,0x2d,0x2a,0x32,0x01,0x24,0x60,0x00,
0x33,0x58,0x02,0x2a,0x00,0x01,0x33,0x00,0x00,0x24,0x00,0x2c,0x2a,0x1c,0x03,0x2a,
0x00,0x2e,0x28,0x7c,0x00,0x2a,0x3d,0x00,0x35,0x58,0x01,0x28,0x00,0x02,0x35,0x00,
0x00,0x2a,0x00,0x2c,0x2a,0x2a,0x01,0x24,0x5a,0x02,0x2a,0x00,0x01,0x24,0x00,0x2c,
0x2a,0x35,0x00,0x35,0x58,0x01,0x24,0x57,0x02,0x35,0x00,0x00,0x2a,0x00,0x01,0x24,
0x00,0x2c,0x2a,0x2d,0x03,0x2a,0x00,0x2e,0x28,0x76,0x00,0x2a,0x35,0x00,0x33,0x58,
0x01,0x28,0x00,0x02,0x33,0x00,0x00,0x2a,0x00,0x2c,0x2a,0x35,0x00,0x33,0x58,0x03,
0x33,0x00,0x00,0x2a,0x00,0x2e,0x24,0x5b,0x00,0x2a,0x2b,0x00,0x35,0x61,0x03,0x35,
0x00,0x00,0x2a,0x00,0x00,0x24,0x00,0x2c,0x2a,0x30,0x03,0x2a,0x00,0x2d,0x2a,0x35,
0x01,0x28,0x71,0x00,0x33,0x58,0x01,0x28,0x00,0x01,0x2a,0x00,0x01,0x33,0x00,0x2c,
0x2a,0x2b,0x01,0x24,0x52,0x02,0x2a,0x00,0x01,0x24,0x00,0x2c,0x2a,0x2d,0x01,0x24,
0x5c,0x00,0x33,0x58,0x02,0x2a,0x00,0x01,0x33,0x00,0x00,0x24,0x00,0x2c,0x2a,0x2b,
0x01,0x35,0x60,0x02,0x2a,0x00,0x01,0x35,0x00,0x2d,0x28,0x71,0x00,0x2a,0x39,0x01,
0x28,0x00,0x02,0x2a,0x00,0x2c,0x2a,0x2b,0x01,0x33,0x58,0x02,0x2a,0x00,0x01,0x33,
0x00,0x2c,0x2a,0x2b,0x01,0x24,0x65,0x00,0x33,0x58,0x02,0x2a,0x00,0x01,0x33,0x00,
0x00,0x24,0x00,0x2c,0x2a,0x2b,0x00,0x33,0x58,0x03,0x33,0x00,0x00,0x2a,0x00,0x2d,
0x2a,0x39,0x01,0x28,0x73,0x01,0x28,0x00,0x01,0x2a,0x00,0x2d,0x2a,0x32,0x01,0x24,
0x64,0x00,0x35,0x58,0x02,0x2a,0x00,0x01,0x35,0x00,0x00,0x24,0x00,0x2c,0x2a,0x39,
0x01,0x24,0x64,0x02,0x2a,0x00,0x01,0x24,0x00,0x2c,0x2a,0x32,0x01,0x33,0x58,0x02,
0x2a,0x00,0x01,0x33,0x00,0x2d,0x28,0x7b,0x00,0x2a,0x2d,0x01,0x28,0x00,0x02,0x2a,
0x00,0x2c,0x2a,0x2d,0x00,0x33,0x58,0x03,0x33,0x00,0x00,0x2a,0x00,0x2e,0x24,0x55,
0x00,0x2a,0x30,0x00,0x33,0x58,0x03,0x33,0x00,0x00,0x2a,0x00,0x00,0x24,0x00,0x2c,
0x2a,0x32,0x03,0x2a,0x00,0x2a,0x28,0x77,0x01,0x28,0x00,0x03,0x2a,0x35,0x00,0x33,
0x58,0x02,0x28,0x71,0x01,0x28,0x00,0x00,0x33,0x00,0x00,0x2a,0x00,0x2d,0x24,0x5d,
0x00,0x2a,0x32,0x00,0x33,0x58,0x03,0x33,0x00,0x00,0x2a,0x00,0x00,0x24,0x00,0x2c,
0x2a,0x32,0x01,0x24,0x5d,0x00,0x28,0x78,0x01,0x28,0x00,0x01,0x2a,0x00,0x01,0x24,
0x00,0x2c,0x2a,0x2a,0x00,0x35,0x61,0x01,0x2d,0x73,0x02,0x35,0x00,0x00,0x2a,0x00,
0x01,0x2d,0x00,0x2d,0x24,0x5a,0x00,0x2a,0x39,0x00,0x2d,0x7a,0x03,0x2d,0x00,0x00,
0x2a,0x00,0x00,0x24,0x00,0x2c,0x2a,0x2b,0x01,0x24,0x6e,0x00,0x2d,0x65,0x00,0x31,
0x7a,0x02,0x2a,0x00,0x01,0x24,0x00,0x00,0x2d,0x00,0x00,0x31,0x00,0x2c,0x2a,0x32,
0x01,0x24,0x5b,0x02,0x2a,0x00,0x01,0x24,0x00,0x2c,0x2a,0x2b,0x01,0x33,0x58,0x02,
0x2a,0x00,0x01,0x33,0x00,0x2d,0x28,0x74,0x00,0x2a,0x35,0x00,0x33,0x58,0x01,0x28,
0x00,0x02,0x33,0x00,0x00,0x2a,0x00,0x2c,0x2a,0x2a,0x01,0x24,0x54,0x02,0x2a,0x00,
0x01,0x24,0x00,0x2d,0x24,0x5c,0x00,0x2a,0x32,0x00,0x35,0x58,0x03,0x35,0x00,0x00,
0x2a,0x00,0x00,0x24,0x00,0x2c,0x2a,0x2b,0x03,0x2a,0x00,0x2d,0x2a,0x3d,0x01,0x28,
0x72,0x00,0x33,0x58,0x01,0x28,0x00,0x01,0x2a,0x00,0x01,0x33,0x00,0x2c,0x2a,0x2b,
0x00,0x35,0x58,0x03,0x35,0x00,0x00,0x2a,0x00,0x2e,0x24,0x57,0x00,0x2a,0x32,0x03,
0x2a,0x00,0x00,0x24,0x00,0x2c,0x2a,0x32,0x01,0x33,0x58,0x02,0x2a,0x00,0x01,0x33,
0x00,0x2d,0x28,0x79,0x00,0x2a,0x35,0x01,0x28,0x00,0x02,0x2a,0x00,0x2d,0x24,0x56,
0x00,0x2a,0x32,0x00,0x35,0x58,0x03,0x35,0x00,0x00,0x2a,0x00,0x00,0x24,0x00,0x2c,
0x2a,0x32,0x00,0x33,0x58,0x01,0x24,0x67,0x02,0x33,0x00,0x00,0x2a,0x00,0x01,0x24,
0x00,0x2c,0x2a,0x32,0x03,0x2a,0x00,0x2e,0x28,0x7b,0x00,0x2a,0x35,0x00,0x33,0x58,
0x01,0x28,0x00,0x02,0x33,0x00,0x00,0x2a,0x00,0x2d,0x2a,0x25,0x00,0x33,0x58,0x03,
0x33,0x00,0x00,0x2a,0x00,0x2c,0x2a,0x35,0x01,0x24,0x59,0x02,0x2a,0x00,0x01,0x24,
0x00,0x0f,0xb9,0x0b,0x7d,0x0a,0x0b,0x7b,0x13,0x99,0x2a,0x2b,0x00,0x33,0x58,0x03,
0x33,0x00,0x00,0x2a,0x00,0x1b,0xb9,0x0b,0x79,0x13,0x99,0x28,0x76,0x00,0x2a,0x39,
0x01,0x28,0x00,0x02,0x2a,0x00,0x2c,0x2a,0x30,0x00,0x33,0x58,0x01,0x24,0x62,0x02,
0x33,0x00,0x00,0x2a,0x00,0x01,0x24,0x00,0x0e,0xb9,0x0b,0x77,0x1e,0x99,0x2a,0x35,
0x00,0x35,0x6e,0x01,0x24,0x68,0x02,0x35,0x00,0x00,0x2a,0x00,0x01,0x24,0x00,0x2c,
0x2a,0x32,0x03,0x2a,0x00,0x19,0xb9,0x0b,0x75,0x15,0x99,0x28,0x7a,0x00,0x2a,0x32,
0x00,0x33,0x58,0x01,0x28,0x00,0x02,0x33,0x00,0x00,0x2a,0x00,0x16,0xb9,0x0b,0x73,
0x16,0x99,0x2a,0x2b,0x03,0x2a,0x00,0x14,0xb9,0x0b,0x71,0x0a,0x0b,0x6f,0x0a,0x0b,
0x6d,0x06,0x99,0x24,0x6c,0x00,0x2a,0x32,0x00,0x33,0x58,0x02,0xb9,0x0b,0x6b,0x01,
0x99,0x33,0x00,0x00,0x2a,0x00,0x00,0x24,0x00,0x07,0xb9,0x0b,0x69,0x19,0x0b,0x67,
0x09,0x99,0x28,0x75,0x01,0x28,0x00,0x03,0x2a,0x32,0x00,0x35,0x58,0x01,0x28,0x77,
0x01,0x28,0x00,0x01,0x35,0x00,0x00,0x2a,0x00,0x09,0xb9,0x0b,0x65,0x1e,0x0b,0x63,
0x06,0x99,0x2a,0x39,0x03,0x2a,0x00,0x1c,0xb9,0x0b,0x61,0x10,0x99,0x24,0x5c,0x00,
0x2a,0x32,0x00,0x33,0x58,0x03,0x33,0x00,0x00,0x2a,0x00,0x00,0x24,0x00,0x07,0xb9,
0x0b,0x5f,0x22,0x99,0x28,0x7c,0x01,0x28,0x00,0x04,0x24,0x55,0x00,0x2a,0x35,0x01,
0x28,0x78,0x01,0x28,0x00,0x01,0x2a,0x00,0x00,0x24,0x00,0x1d,0xb9,0x0b,0x5d,0x10,
0x99,0x2a,0x37,0x00,0x30,0x6e,0x00,0x35,0x58,0x03,0x35,0x00,0x00,0x30,0x00,0x00,
0x2a,0x00,0x1c,0xb9,0x0b,0x5b,0x11,0x99,0x28,0x76,0x00,0x2a,0x37,0x00,0x30,0x6e,
0x01,0x28,0x00,0x02,0x30,0x00,0x00,0x2a,0x00,0x2c,0x2a,0x39,0x01,0x2d,0x6e,0x00,
0x31,0x7b,0x02,0x2a,0x00,0x01,0x31,0x00,0x00,0x2d,0x00,0x04,0xb9,0x0b,0x59,0x28,
0x99,0x2a,0x32,0x00,0x33,0x58,0x01,0xb9,0x0b,0x57,0x00,0x99,0x24,0x5d,0x02,0x33,
0x00,0x00,0x2a,0x00,0x01,0x24,0x00,0x2c,0x2a,0x1c,0x03,0x2a,0x00,0x02,0xb9,0x0b,
0x55,0x16,0x0b,0x53,0x14,0x99,0x28,0x7b,0x00,0x2a,0x3d,0x00,0x33,0x58,0x01,0x28,
0x00,0x02,0x33,0x00,0x00,0x2a,0x00,0x19,0xb9,0x0b,0x51,0x14,0x0b,0x4f,0x02,0x99,
0x24,0x69,0x00,0x2a,0x2a,0x03,0x2a,0x00,0x00,0x24,0x00,0x13,0xb9,0x0b,0x4d,0x19,
0x99,0x2a,0x35,0x01,0xb9,0x0b,0x4b,0x00,0x99,0x24,0x64,0x00,0x35,0x58,0x02,0x2a,
0x00,0x01,0x35,0x00,0x00,0x24,0x00,0x10,0xb9,0x0b,0x49,0x1c,0x99,0x2a,0x2d,0x03,
0x2a,0x00,0x1d,0xb9,0x0b,0x47,0x11,0x99,0x28,0x7a,0x00,0x2a,0x35,0x00,0x33,0x58,
0x01,0x28,0x00,0x02,0x33,0x00,0x00,0x2a,0x00,0x20,0xb9,0x0b,0x45,0x0c,0x99,0x2a,
0x35,0x00,0x35,0x58,0x03,0x35,0x00,0x00,0x2a,0x00,0x0c,0xb9,0x0b,0x43,0x22,0x99,
0x24,0x68,0x00,0x2a,0x2b,0x00,0x33,0x58,0x03,0x33,0x00,0x00,0x2a,0x00,0x00,0x24,
0x00,0x06,0xb9,0x0b,0x41,0x26,0x99,0x2a,0x30,0x02,0xb9,0x0b,0x3f,0x01,0x99,0x2a,
0x00,0x22,0xb9,0x0b,0x3d,0x0b,0x99,0x2a,0x35,0x01,0x28,0x73,0x00,0x33,0x58,0x01,
0x28,0x00,0x01,0x2a,0x00,0x01,0x33,0x00,0x19,0xb9,0x0b,0x3b,0x12,0x99,0x2a,0x2b,
0x01,0x24,0x52,0x02,0x2a,0x00,0x01,0x24,0x00,0x0a,0xb9,0x0b,0x39,0x10,0x0b,0x37,
0x13,0x99,0x2a,0x2d,0x01,0x24,0x5b,0x00,0x33,0x58,0x02,0x2a,0x00,0x01,0x33,0x00,
0x00,0x24,0x00,0x00,0xb9,0x0b,0x35,0x15,0x0b,0x33,0x0d,0x0b,0x31,0x0a,0x99,0x2a,
0x2b,0x01,0x35,0x58,0x02,0x2a,0x00,0x01,0x35,0x00,0x00,0xb9,0x0b,0x2f,0x0b,0x0b,
0x2d,0x1d,0x0b,0x2b,0x05,0x99,0x28,0x75,0x00,0x2a,0x39,0x01,0x28,0x00,0x02,0x2a,
0x00,0x0b,0xb9,0x0b,0x29,0x09,0x0b,0x27,0x0d,0x0b,0x25,0x0b,0x99,0x2a,0x2b,0x01,
0xb9,0x0b,0x23,0x00,0x99,0x33,0x58,0x02,0x2a,0x00,0x01,0x33,0x00,0x0f,0xb9,0x0b,
0x21,0x09,0x0b,0x1f,0x0f,0x0b,0x1d,0x05,0x99,0x2a,0x2b,0x00,0x33,0x58,0x01,0x24,
0x58,0x02,0x33,0x00,0x00,0x2a,0x00,0x01,0x24,0x00,0x03,0xb9,0x0b,0x1b,0x0a,0x0b,
0x19,0x09,0x0b,0x17,0x12,0x0b,0x15,0x04,0x99,0x2a,0x2b,0x00,0x35,0x58,0x03,0x35,
0x00,0x00,0x2a,0x00,0x0d,0xb9,0x0b,0x13,0x0c,0x0b,0x11,0x0c,0x0b,0x0f,0x09,0x99,
0x28,0x74,0x00,0x2a,0x39,0x01,0x28,0x00,0x00,0xb9,0x0b,0x0d,0x02,0x99,0x2a,0x00,
0x07,0xb9,0x0b,0x0b,0x0c,0x0b,0x09,0x12,0x0b,0x05,0x08,0x99,0x24,0x6d,0x00,0x2a,
0x32,0x00,0x33,0x58,0x03,0x33,0x00,0x00,0x2a,0x00,0x00,0x24,0x00,0x07,0xb9,0x0b,
0x00,0x25,0x99,0x2a,0x39,0x01,0x24,0x69,0x02,0x2a,0x00,0x01,0x24,0x00,0x2c,0x2a,
0x32,0x01,0x33,0x58,0x02,0x2a,0x00,0x01,0x33,0x00,0x00,0xff,0x2f,0x00,
};
