#include <stdint.h>
const uint8_t midifile[] = {
0x4d,0x54,0x68,0x64,0x00,0x00,0x00,0x06,0x00,0x01,0x00,0x07,0x00,0x78,0x4d,0x54,
0x72,0x6b,0x00,0x00,0x01,0xd4,0x00,0xff,0x7f,0x03,0x00,0x00,0x41,0x00,0xff,0x58,
0x04,0x03,0x02,0x18,0x08,0x00,0xff,0x59,0x02,0x00,0x00,0x00,0xff,0x51,0x03,0x05,
0xc2,0x0e,0xd7,0x5a,0xff,0x51,0x03,0x05,0xaf,0xbe,0x04,0xff,0x51,0x03,0x05,0xb8,
0xd8,0x02,0xff,0x51,0x03,0x05,0xc2,0x0e,0x04,0xff,0x51,0x03,0x05,0xd4,0xd5,0x04,
0xff,0x51,0x03,0x05,0xde,0x67,0x04,0xff,0x51,0x03,0x05,0xe8,0x18,0x04,0xff,0x51,
0x03,0x05,0xfb,0xdc,0x20,0xff,0x51,0x03,0x06,0x10,0x26,0x0c,0xff,0x51,0x03,0x06,
0x24,0xfc,0x0c,0xff,0x51,0x03,0x06,0x2f,0x9d,0x0c,0xff,0x51,0x03,0x06,0x3a,0x63,
0x0c,0xff,0x51,0x03,0x06,0x50,0x61,0x20,0xff,0x51,0x03,0x06,0x66,0xfc,0x0c,0xff,
0x51,0x03,0x06,0x7e,0x3b,0x18,0xff,0x51,0x03,0x06,0x96,0x26,0x10,0xff,0x51,0x03,
0x06,0xa2,0x5e,0x0c,0xff,0x51,0x03,0x06,0xae,0xc4,0x10,0xff,0x51,0x03,0x06,0xc8,
0x1c,0x18,0xff,0x51,0x03,0x06,0xe2,0x37,0x0c,0xff,0x51,0x03,0x06,0xef,0x91,0x0c,
0xff,0x51,0x03,0x06,0xfd,0x1f,0x0c,0xff,0x51,0x03,0x07,0x18,0xdc,0x0c,0xff,0x51,
0x03,0x07,0x27,0x0e,0x04,0xff,0x51,0x03,0x07,0x35,0x78,0x0c,0xff,0x51,0x03,0x07,
0x53,0x00,0x08,0xff,0x51,0x03,0x07,0x62,0x1e,0x04,0xff,0x51,0x03,0x07,0x71,0x7c,
0x08,0xff,0x51,0x03,0x07,0x90,0xfb,0x10,0xff,0x51,0x03,0x07,0xb1,0x89,0x08,0xff,
0x51,0x03,0x07,0xd3,0x34,0x08,0xff,0x51,0x03,0x07,0xe4,0x79,0x0c,0xff,0x51,0x03,
0x07,0xf6,0x0b,0x04,0xff,0x51,0x03,0x08,0x07,0xeb,0x0c,0xff,0x51,0x03,0x08,0x1a,
0x1d,0x0c,0xff,0x51,0x03,0x08,0x3f,0x7c,0x08,0xff,0x51,0x03,0x08,0x66,0x3a,0x10,
0xff,0x51,0x03,0x08,0x7a,0x23,0x04,0xff,0x51,0x03,0x08,0x8e,0x6b,0x06,0xff,0x51,
0x03,0x08,0xa3,0x15,0x04,0xff,0x51,0x03,0x08,0xb8,0x24,0x06,0xff,0x51,0x03,0x08,
0xcd,0x9b,0x06,0xff,0x51,0x03,0x08,0xe3,0x7c,0x12,0xff,0x51,0x03,0x06,0x8a,0x1b,
0xad,0x48,0xff,0x51,0x03,0x06,0x7e,0x3b,0x1c,0xff,0x51,0x03,0x06,0x72,0x87,0x04,
0xff,0x51,0x03,0x06,0x66,0xfc,0x3c,0xff,0x51,0x03,0x06,0x5b,0x9a,0x04,0xff,0x51,
0x03,0x06,0x50,0x61,0x14,0xff,0x51,0x03,0x06,0x45,0x4e,0x04,0xff,0x51,0x03,0x06,
0x3a,0x63,0x0e,0xff,0x51,0x03,0x06,0x2f,0x9d,0x04,0xff,0x51,0x03,0x06,0x24,0xfc,
0x06,0xff,0x51,0x03,0x06,0x1a,0x80,0x06,0xff,0x51,0x03,0x06,0x10,0x26,0x08,0xff,
0x51,0x03,0x06,0x05,0xf0,0x02,0xff,0x51,0x03,0x05,0xfb,0xdc,0x0c,0xff,0x51,0x03,
0x05,0xf1,0xea,0x06,0xff,0x51,0x03,0x05,0xe8,0x18,0x0e,0xff,0x51,0x03,0x05,0xde,
0x67,0x02,0xff,0x51,0x03,0x05,0xd4,0xd5,0x0e,0xff,0x51,0x03,0x05,0xcb,0x62,0x08,
0xff,0x51,0x03,0x05,0xc2,0x0e,0x00,0xff,0x2f,0x00,0x4d,0x54,0x72,0x6b,0x00,0x00,
0x1a,0x16,0x00,0xff,0x21,0x01,0x00,0x00,0xff,0x03,0x14,0x50,0x49,0x41,0x4e,0x4f,
0x20,0x20,0x20,0x20,0x20,0x20,0x20,0x20,0x20,0x20,0x20,0x20,0x20,0x20,0x20,0x00,
0xc0,0x00,0x00,0xb0,0x07,0x7f,0x00,0xb0,0x0a,0x40,0x00,0xb0,0x79,0x00,0x00,0x00,
0x00,0x00,0xc0,0x00,0x00,0xb0,0x07,0x7f,0x00,0x0a,0x40,0x81,0x6b,0x90,0x4c,0x54,
0x3e,0x4b,0x47,0x08,0x4c,0x00,0x39,0x4c,0x50,0x01,0x4b,0x00,0x36,0x4b,0x41,0x0f,
0x4c,0x00,0x2c,0x4c,0x54,0x02,0x4b,0x00,0x39,0x47,0x45,0x10,0x4c,0x00,0x2a,0x4a,
0x4e,0x07,0x47,0x00,0x35,0x4a,0x00,0x01,0x48,0x49,0x3d,0x2d,0x41,0x02,0x45,0x4a,
0x0c,0x48,0x00,0x1f,0xb0,0x40,0x7f,0x0c,0x90,0x2d,0x00,0x03,0x34,0x42,0x3c,0x39,
0x3f,0x0f,0x34,0x00,0x10,0x45,0x00,0x1c,0x3c,0x47,0x00,0x39,0x00,0x32,0x3c,0x00,
0x07,0x40,0x43,0x05,0xb0,0x40,0x00,0x34,0x90,0x45,0x4d,0x00,0x40,0x00,0x36,0x47,
0x4a,0x04,0x28,0x44,0x02,0x45,0x00,0x1b,0xb0,0x40,0x7f,0x1b,0x90,0x34,0x46,0x01,
0x47,0x00,0x02,0x28,0x00,0x32,0x38,0x4a,0x06,0x34,0x00,0x32,0x40,0x42,0x03,0x38,
0x00,0x33,0xb0,0x40,0x00,0x05,0x90,0x44,0x4b,0x13,0x40,0x00,0x2e,0x47,0x50,0x01,
0x44,0x00,0x40,0x2d,0x40,0x00,0x47,0x00,0x01,0x48,0x49,0x32,0xb0,0x40,0x7f,0x10,
0x90,0x34,0x3e,0x08,0x2d,0x00,0x0b,0x48,0x00,0x2c,0x39,0x3c,0x0c,0x34,0x00,0x2f,
0x39,0x00,0x02,0x40,0x44,0x42,0x4c,0x48,0x02,0x40,0x00,0x01,0xb0,0x40,0x00,0x39,
0x90,0x4b,0x3d,0x06,0x4c,0x00,0x36,0x4b,0x00,0x03,0x4c,0x49,0x38,0x4b,0x40,0x0e,
0x4c,0x00,0x2a,0x4c,0x4d,0x02,0x4b,0x00,0x35,0x47,0x4c,0x14,0x4c,0x00,0x26,0x4a,
0x53,0x12,0x47,0x00,0x28,0x48,0x51,0x02,0x4a,0x00,0x3d,0x45,0x49,0x00,0x2d,0x42,
0x07,0x48,0x00,0x1b,0xb0,0x40,0x7f,0x15,0x90,0x2d,0x00,0x09,0x34,0x3d,0x37,0x34,
0x00,0x06,0x39,0x3a,0x18,0x45,0x00,0x1e,0x3c,0x42,0x05,0x39,0x00,0x37,0xb0,0x40,
0x00,0x00,0x90,0x40,0x41,0x00,0x3c,0x00,0x37,0x40,0x00,0x05,0x45,0x45,0x2e,0x45,
0x00,0x09,0x28,0x3e,0x00,0x47,0x4c,0x1f,0xb0,0x40,0x7f,0x0e,0x90,0x28,0x00,0x0f,
0x34,0x4e,0x0a,0x47,0x00,0x28,0x34,0x00,0x0a,0x38,0x4f,0x37,0x40,0x4d,0x04,0x38,
0x00,0x1a,0xb0,0x40,0x00,0x1f,0x90,0x48,0x53,0x11,0x40,0x00,0x2c,0x48,0x00,0x02,
0x47,0x50,0x38,0x47,0x00,0x0a,0x45,0x48,0x01,0x2d,0x3d,0x33,0xb0,0x40,0x7f,0x12,
0x90,0x34,0x46,0x02,0x45,0x00,0x02,0x2d,0x00,0x47,0x39,0x39,0x00,0x34,0x00,0x75,
0xb0,0x40,0x00,0x0e,0x90,0x4c,0x3b,0x12,0x39,0x00,0x29,0x4b,0x2d,0x04,0x4c,0x00,
0x38,0x4c,0x3b,0x03,0x4b,0x00,0x39,0x4b,0x2d,0x08,0x4c,0x00,0x2f,0x4c,0x3f,0x08,
0x4b,0x00,0x35,0x47,0x2d,0x04,0x4c,0x00,0x3c,0x4a,0x2f,0x0b,0x47,0x00,0x28,0x4a,
0x00,0x06,0x48,0x2d,0x3c,0x45,0x29,0x03,0x2d,0x28,0x07,0x48,0x00,0x18,0xb0,0x40,
0x7f,0x15,0x90,0x2d,0x00,0x03,0x34,0x2c,0x38,0x39,0x30,0x04,0x34,0x00,0x01,0x45,
0x00,0x31,0x3c,0x34,0x05,0x39,0x00,0x2a,0xb0,0x40,0x00,0x12,0x90,0x40,0x37,0x01,
0x3c,0x00,0x36,0x45,0x30,0x05,0x40,0x00,0x32,0x47,0x3b,0x00,0x45,0x00,0x01,0x28,
0x3b,0x29,0xb0,0x40,0x7f,0x04,0x90,0x28,0x00,0x0e,0x34,0x2e,0x30,0x34,0x00,0x09,
0x38,0x36,0x02,0x47,0x00,0x39,0x38,0x00,0x01,0x40,0x36,0x1c,0xb0,0x40,0x00,0x19,
0x90,0x44,0x39,0x14,0x40,0x00,0x28,0x47,0x39,0x03,0x44,0x00,0x34,0x47,0x00,0x04,
0x48,0x4d,0x01,0x2d,0x39,0x33,0xb0,0x40,0x7f,0x09,0x90,0x34,0x30,0x00,0x2d,0x00,
0x3a,0x48,0x00,0x02,0x34,0x00,0x01,0x39,0x2c,0x3b,0x39,0x00,0x06,0x40,0x35,0x19,
0xb0,0x40,0x00,0x24,0x90,0x4c,0x43,0x04,0x40,0x00,0x36,0x4b,0x35,0x0a,0x4c,0x00,
0x2d,0x4c,0x43,0x05,0x4b,0x00,0x38,0x4b,0x3b,0x0b,0x4c,0x00,0x2b,0x4c,0x45,0x01,
0x4b,0x00,0x38,0x47,0x37,0x0f,0x4c,0x00,0x31,0x4a,0x41,0x18,0x47,0x00,0x28,0x48,
0x3b,0x01,0x4a,0x00,0x40,0x45,0x47,0x01,0x2d,0x3e,0x04,0x48,0x00,0x1a,0xb0,0x40,
0x7f,0x1c,0x90,0x2d,0x00,0x06,0x34,0x45,0x36,0x45,0x00,0x01,0x39,0x45,0x03,0x34,
0x00,0x38,0x39,0x00,0x02,0x3c,0x4c,0x09,0xb0,0x40,0x00,0x2d,0x90,0x40,0x4e,0x06,
0x3c,0x00,0x36,0x45,0x4d,0x05,0x40,0x00,0x2d,0x45,0x00,0x05,0x47,0x4f,0x00,0x28,
0x41,0x28,0xb0,0x40,0x7f,0x05,0x90,0x28,0x00,0x0f,0x34,0x44,0x3a,0x34,0x00,0x01,
0x47,0x00,0x06,0x38,0x4b,0x32,0x38,0x00,0x06,0x40,0x53,0x13,0xb0,0x40,0x00,0x2d,
0x90,0x48,0x56,0x07,0x40,0x00,0x33,0x48,0x00,0x06,0x47,0x4b,0x3a,0x47,0x00,0x08,
0x2d,0x41,0x02,0x45,0x47,0x30,0xb0,0x40,0x7f,0x0f,0x90,0x34,0x43,0x00,0x2d,0x00,
0x05,0x45,0x00,0x3c,0x39,0x42,0x0a,0x34,0x00,0x1f,0x39,0x00,0x0f,0x47,0x52,0x3b,
0x48,0x58,0x05,0xb0,0x40,0x00,0x13,0x90,0x47,0x00,0x25,0x4a,0x5a,0x14,0x48,0x00,
0x2f,0x4c,0x5e,0x00,0x30,0x44,0x03,0x4a,0x00,0x39,0x30,0x00,0x02,0x37,0x50,0x06,
0xb0,0x40,0x7f,0x2d,0x90,0x4c,0x00,0x0a,0x3c,0x5d,0x15,0x37,0x00,0x21,0x43,0x61,
0x1c,0x3c,0x00,0x16,0xb0,0x40,0x00,0x05,0x90,0x4d,0x65,0x1e,0x43,0x00,0x1e,0x4c,
0x60,0x14,0x4d,0x00,0x28,0x4a,0x60,0x01,0x2b,0x4c,0x0b,0x4c,0x00,0x21,0xb0,0x40,
0x7f,0x09,0x90,0x2b,0x00,0x08,0x37,0x56,0x35,0x37,0x00,0x04,0x4a,0x00,0x01,0x3b,
0x54,0x2d,0x3b,0x00,0x0a,0x41,0x5d,0x2e,0xb0,0x40,0x00,0x13,0x90,0x4c,0x60,0x1b,
0x41,0x00,0x22,0x4a,0x53,0x0e,0x4c,0x00,0x2f,0x48,0x57,0x01,0x2d,0x47,0x08,0x4a,
0x00,0x1f,0xb0,0x40,0x7f,0x18,0x90,0x34,0x51,0x0c,0x2d,0x00,0x2b,0x48,0x00,0x07,
0x39,0x42,0x06,0x34,0x00,0x34,0x40,0x4e,0x09,0x39,0x00,0x10,0xb0,0x40,0x00,0x25,
0x90,0x4a,0x54,0x12,0x40,0x00,0x25,0x4a,0x00,0x02,0x48,0x51,0x46,0x47,0x4e,0x01,
0x28,0x3f,0x01,0x48,0x00,0x26,0xb0,0x40,0x7f,0x13,0x90,0x28,0x00,0x0b,0x34,0x40,
0x37,0x34,0x00,0x11,0x47,0x00,0x07,0x40,0x4b,0x56,0x40,0x00,0x03,0x4c,0x4d,0x26,
0x4c,0x00,0x28,0x40,0x43,0x28,0x40,0x00,0x1e,0x4c,0x3f,0x19,0x4c,0x00,0x28,0x4c,
0x3a,0x3b,0x4c,0x00,0x0a,0x58,0x39,0x25,0x58,0x00,0x25,0x4b,0x47,0x4b,0x4b,0x00,
0x0c,0x4c,0x40,0x46,0x4c,0x00,0x0b,0x4b,0x42,0x04,0xb0,0x40,0x00,0x4a,0x90,0x4c,
0x3c,0x04,0x4b,0x00,0x4d,0x4b,0x39,0x18,0x4c,0x00,0x47,0x4c,0x41,0x05,0x4b,0x00,
0x6e,0x4b,0x3a,0x06,0x4c,0x00,0x57,0x4b,0x00,0x0b,0x4c,0x42,0x55,0x4b,0x3b,0x00,
0x4c,0x00,0x46,0x4c,0x47,0x05,0x4b,0x00,0x41,0x4b,0x3e,0x0a,0x4c,0x00,0x32,0x4c,
0x4d,0x03,0x4b,0x00,0x3e,0x47,0x45,0x16,0x4c,0x00,0x2c,0x4a,0x4f,0x1f,0x47,0x00,
0x27,0x48,0x49,0x05,0x4a,0x00,0x45,0x45,0x4d,0x02,0x2d,0x45,0x02,0x48,0x00,0x25,
0xb0,0x40,0x7f,0x10,0x90,0x2d,0x00,0x04,0x34,0x42,0x3a,0x45,0x00,0x02,0x39,0x44,
0x00,0x34,0x00,0x1c,0x39,0x00,0x1a,0x3c,0x51,0x3a,0x3c,0x00,0x03,0x40,0x4e,0x06,
0xb0,0x40,0x00,0x2c,0x90,0x40,0x00,0x04,0x45,0x53,0x32,0x45,0x00,0x02,0x47,0x53,
0x03,0x28,0x41,0x1e,0xb0,0x40,0x7f,0x0a,0x90,0x28,0x00,0x11,0x34,0x49,0x34,0x34,
0x00,0x06,0x38,0x51,0x01,0x47,0x00,0x33,0x38,0x00,0x03,0x40,0x4d,0x2a,0xb0,0x40,
0x00,0x0f,0x90,0x44,0x52,0x0d,0x40,0x00,0x2d,0x44,0x00,0x02,0x47,0x55,0x32,0x47,
0x00,0x08,0x48,0x58,0x00,0x2d,0x42,0x1b,0xb0,0x40,0x7f,0x1e,0x90,0x2d,0x00,0x03,
0x34,0x3f,0x3b,0x48,0x00,0x02,0x39,0x43,0x04,0x34,0x00,0x3f,0x39,0x00,0x02,0x40,
0x4e,0x3c,0xb0,0x40,0x00,0x00,0x90,0x40,0x00,0x05,0x4c,0x51,0x3a,0x4b,0x53,0x03,
0x4c,0x00,0x36,0x4c,0x53,0x08,0x4b,0x00,0x35,0x4b,0x4d,0x0f,0x4c,0x00,0x28,0x4b,
0x00,0x02,0x4c,0x4e,0x38,0x47,0x4d,0x09,0x4c,0x00,0x30,0x4a,0x50,0x12,0x47,0x00,
0x2a,0x48,0x4b,0x00,0x4a,0x00,0x40,0x45,0x4c,0x03,0x2d,0x3e,0x01,0x48,0x00,0x25,
0xb0,0x40,0x7f,0x13,0x90,0x34,0x44,0x03,0x2d,0x00,0x34,0x34,0x00,0x05,0x39,0x3f,
0x1d,0x45,0x00,0x1f,0x3c,0x47,0x00,0x39,0x00,0x0a,0xb0,0x40,0x00,0x37,0x90,0x40,
0x4b,0x0f,0x3c,0x00,0x2e,0x45,0x4e,0x04,0x40,0x00,0x31,0x45,0x00,0x03,0x28,0x42,
0x01,0x47,0x4e,0x20,0xb0,0x40,0x7f,0x0c,0x90,0x28,0x00,0x0d,0x34,0x50,0x32,0x34,
0x00,0x0a,0x38,0x4a,0x02,0x47,0x00,0x3a,0x38,0x00,0x02,0x40,0x4e,0x18,0xb0,0x40,
0x00,0x27,0x90,0x48,0x53,0x0e,0x40,0x00,0x35,0x48,0x00,0x04,0x47,0x48,0x39,0x47,
0x00,0x0c,0x2d,0x45,0x01,0x45,0x50,0x18,0xb0,0x40,0x7f,0x2d,0x90,0x34,0x4e,0x0f,
0x2d,0x00,0x3c,0x34,0x00,0x02,0x39,0x43,0x21,0x45,0x00,0x22,0x39,0x00,0x24,0x48,
0x4d,0x00,0x40,0x3f,0x00,0x3c,0x57,0x02,0x3a,0x3c,0x03,0xb0,0x40,0x00,0x1f,0x90,
0x40,0x00,0x02,0x3c,0x00,0x03,0xb0,0x40,0x7f,0x12,0x90,0x48,0x00,0x12,0x3a,0x00,
0x07,0x41,0x4b,0x00,0x48,0x54,0x01,0x39,0x45,0x00,0x3c,0x52,0x1d,0x41,0x00,0x08,
0x3c,0x00,0x12,0x39,0x00,0x03,0x48,0x00,0x0c,0x43,0x52,0x00,0x37,0x4d,0x00,0x3a,
0x43,0x00,0x3c,0x49,0x00,0x40,0x47,0x00,0x48,0x5d,0x3b,0x48,0x00,0x00,0x37,0x00,
0x00,0x3a,0x00,0x00,0x43,0x00,0x00,0x40,0x00,0x00,0x3c,0x00,0x07,0x41,0x4c,0x17,
0x45,0x51,0x05,0x41,0x00,0x08,0xb0,0x40,0x00,0x0d,0x90,0x48,0x67,0x01,0x35,0x55,
0x03,0x45,0x00,0x29,0xb0,0x40,0x7f,0x07,0x90,0x39,0x47,0x21,0x48,0x00,0x01,0x35,
0x00,0x13,0x3c,0x50,0x0c,0x39,0x00,0x23,0x39,0x5b,0x03,0x3c,0x00,0x2a,0x39,0x00,
0x02,0x3c,0x59,0x01,0x4d,0x70,0x2c,0x39,0x52,0x01,0x4d,0x00,0x05,0x3c,0x00,0x1b,
0x4c,0x61,0x0f,0x4c,0x00,0x03,0x39,0x00,0x05,0x4c,0x6a,0x01,0x35,0x50,0x04,0xb0,
0x40,0x00,0x2d,0x40,0x7f,0x00,0x90,0x3a,0x63,0x09,0x35,0x00,0x26,0x4a,0x6e,0x00,
0x4c,0x00,0x03,0x3e,0x4b,0x00,0x3a,0x00,0x28,0x3a,0x61,0x03,0x3e,0x00,0x11,0x4a,
0x00,0x19,0x3a,0x00,0x02,0x52,0x6e,0x03,0x3e,0x4b,0x14,0x52,0x00,0x14,0x3a,0x54,
0x05,0x3e,0x00,0x1a,0x51,0x67,0x10,0x51,0x00,0x06,0x3a,0x00,0x07,0xb0,0x40,0x00,
0x00,0x90,0x51,0x70,0x01,0x35,0x54,0x2c,0xb0,0x40,0x7f,0x03,0x90,0x40,0x4c,0x03,
0x4f,0x6d,0x00,0x35,0x00,0x13,0x51,0x00,0x19,0x4d,0x6e,0x01,0x3a,0x51,0x00,0x40,
0x00,0x01,0x35,0x39,0x01,0x37,0x51,0x03,0x4f,0x00,0x05,0xb0,0x40,0x00,0x15,0x90,
0x35,0x00,0x0d,0xb0,0x40,0x7f,0x01,0x90,0x3a,0x00,0x02,0x37,0x00,0x03,0x4c,0x75,
0x00,0x40,0x53,0x0c,0x4d,0x00,0x1c,0xb0,0x40,0x00,0x00,0x90,0x40,0x00,0x09,0x4a,
0x6b,0x00,0x37,0x49,0x01,0x3a,0x42,0x01,0x35,0x4b,0x0d,0xb0,0x40,0x7f,0x02,0x90,
0x4c,0x00,0x19,0x4a,0x00,0x02,0x35,0x00,0x02,0x37,0x00,0x00,0x3a,0x00,0x06,0x48,
0x6d,0x00,0x40,0x4c,0x17,0x40,0x00,0x11,0xb0,0x40,0x00,0x08,0x90,0x46,0x73,0x02,
0x35,0x46,0x14,0x48,0x00,0x1f,0x35,0x00,0x02,0x39,0x47,0x00,0xb0,0x40,0x7f,0x2f,
0x90,0x46,0x00,0x01,0x39,0x00,0x05,0x45,0x67,0x00,0x3c,0x4a,0x19,0x45,0x00,0x14,
0x3c,0x00,0x04,0x39,0x4e,0x1e,0x39,0x00,0x0d,0x46,0x62,0x01,0x3c,0x61,0x10,0x45,
0x65,0x05,0x46,0x00,0x05,0xb0,0x40,0x00,0x08,0x90,0x45,0x00,0x01,0x43,0x64,0x0f,
0x3c,0x00,0x03,0x43,0x00,0x01,0x45,0x6b,0x01,0x39,0x4d,0x18,0x46,0x63,0x05,0x45,
0x00,0x11,0x39,0x00,0x06,0x48,0x6d,0x00,0x35,0x4a,0x05,0x46,0x00,0x29,0x35,0x00,
0x03,0xb0,0x40,0x7f,0x00,0x90,0x39,0x4a,0x32,0x3c,0x50,0x05,0x39,0x00,0x2c,0x39,
0x47,0x01,0x48,0x00,0x07,0x3c,0x00,0x23,0x39,0x00,0x07,0x4a,0x6f,0x01,0x3c,0x59,
0x32,0x3c,0x00,0x05,0x39,0x54,0x00,0x4b,0x70,0x04,0x4a,0x00,0x13,0x39,0x00,0x23,
0x4c,0x73,0x00,0x34,0x45,0x07,0xb0,0x40,0x00,0x00,0x90,0x4b,0x00,0x2b,0x39,0x54,
0x14,0xb0,0x40,0x7f,0x1f,0x90,0x3c,0x5a,0x02,0x39,0x00,0x11,0x4c,0x00,0x14,0x34,
0x00,0x04,0x3c,0x00,0x06,0x4c,0x73,0x00,0x39,0x53,0x2e,0x39,0x00,0x09,0xb0,0x40,
0x00,0x00,0x90,0x4c,0x00,0x01,0x32,0x4d,0x01,0x3e,0x47,0x00,0x4d,0x73,0x2b,0xb0,
0x40,0x7f,0x03,0x90,0x3e,0x00,0x03,0x45,0x6a,0x00,0x35,0x5d,0x05,0x32,0x00,0x0b,
0x4d,0x00,0x25,0x37,0x61,0x01,0x48,0x75,0x01,0xb0,0x40,0x00,0x04,0x90,0x35,0x00,
0x01,0x45,0x00,0x26,0x37,0x00,0x06,0x40,0x4e,0x05,0xb0,0x40,0x7f,0x28,0x90,0x40,
0x00,0x05,0x37,0x62,0x06,0x48,0x00,0x1f,0x37,0x00,0x03,0x4a,0x66,0x02,0x40,0x4c,
0x12,0x48,0x64,0x07,0x40,0x00,0x03,0x4a,0x00,0x0a,0x47,0x5d,0x00,0x48,0x00,0x14,
0x48,0x5e,0x00,0x47,0x00,0x07,0xb0,0x40,0x00,0x08,0x90,0x4a,0x6c,0x00,0x37,0x5c,
0x05,0x48,0x00,0x24,0xb0,0x40,0x7f,0x04,0x90,0x41,0x4c,0x0b,0x37,0x00,0x04,0x41,
0x00,0x03,0x4a,0x00,0x03,0x47,0x68,0x12,0x47,0x00,0x0b,0xb0,0x40,0x00,0x06,0x90,
0x48,0x64,0x00,0x3c,0x4d,0x01,0x40,0x3e,0x19,0x48,0x00,0x04,0x4f,0x66,0x0b,0xb0,
0x40,0x7f,0x12,0x90,0x43,0x68,0x02,0x4f,0x00,0x0f,0x40,0x00,0x05,0x3c,0x00,0x03,
0x43,0x00,0x02,0x4f,0x62,0x1c,0x45,0x66,0x03,0x4f,0x00,0x16,0x4f,0x61,0x00,0x45,
0x00,0x18,0x43,0x53,0x01,0x41,0x5c,0x00,0x47,0x67,0x0a,0x4f,0x00,0x02,0xb0,0x40,
0x00,0x07,0x90,0x43,0x00,0x06,0x41,0x00,0x00,0x47,0x00,0x01,0x4f,0x67,0x18,0x48,
0x6c,0x03,0x43,0x53,0x00,0x40,0x59,0x04,0x4f,0x00,0x0b,0x43,0x00,0x01,0x40,0x00,
0x0b,0x48,0x00,0x01,0x4f,0x65,0x1c,0x4a,0x66,0x01,0x3e,0x4c,0x00,0x43,0x50,0x04,
0x4f,0x00,0x0b,0x43,0x00,0x01,0x3e,0x00,0x0b,0x4a,0x00,0x03,0x4f,0x62,0x1f,0x4f,
0x00,0x04,0x40,0x3f,0x00,0x43,0x42,0x00,0x3c,0x56,0x01,0x4c,0x62,0x1d,0xb0,0x40,
0x7f,0x00,0x90,0x4f,0x66,0x04,0x4c,0x00,0x09,0x43,0x00,0x0c,0x3c,0x00,0x05,0x40,
0x00,0x01,0x54,0x77,0x0a,0x4f,0x00,0x13,0x53,0x71,0x0e,0x54,0x00,0x15,0x39,0x41,
0x00,0x35,0x47,0x00,0x51,0x6e,0x02,0xb0,0x40,0x00,0x08,0x90,0x53,0x00,0x15,0x4f,
0x6e,0x11,0x51,0x00,0x07,0x4d,0x75,0x06,0x4f,0x00,0x18,0x4c,0x65,0x05,0x39,0x00,
0x05,0x4d,0x00,0x0b,0x35,0x00,0x09,0x3b,0x51,0x00,0x4a,0x6a,0x00,0x37,0x42,0x05,
0x4c,0x00,0x16,0x4f,0x68,0x03,0x4a,0x00,0x19,0x4d,0x64,0x07,0x4f,0x00,0x12,0x4a,
0x65,0x05,0x4d,0x00,0x1a,0x3b,0x00,0x04,0x48,0x69,0x00,0x4a,0x00,0x02,0x3c,0x5b,
0x03,0x37,0x00,0x17,0x48,0x00,0x07,0x4f,0x66,0x1e,0x43,0x66,0x05,0x4f,0x00,0x14,
0x3c,0x00,0x01,0x43,0x00,0x01,0x4f,0x5e,0x1c,0x45,0x67,0x05,0x4f,0x00,0x14,0x4f,
0x5d,0x00,0x45,0x00,0x1a,0x43,0x5c,0x00,0x41,0x64,0x01,0x47,0x67,0x0d,0x4f,0x00,
0x0d,0x47,0x00,0x02,0x43,0x00,0x01,0x4f,0x67,0x00,0x41,0x00,0x1d,0x43,0x57,0x00,
0x48,0x6c,0x01,0x40,0x53,0x08,0x4f,0x00,0x10,0x48,0x00,0x01,0x4f,0x6a,0x03,0x43,
0x00,0x01,0x40,0x00,0x19,0x3e,0x50,0x00,0x4a,0x68,0x01,0x43,0x51,0x0a,0x4f,0x00,
0x0e,0x4a,0x00,0x04,0x3e,0x00,0x01,0x43,0x00,0x04,0x4f,0x70,0x24,0x43,0x3d,0x00,
0x4c,0x60,0x01,0x40,0x39,0x00,0x3c,0x41,0x01,0x4f,0x00,0x1d,0x4f,0x6b,0x04,0xb0,
0x40,0x7f,0x00,0x90,0x43,0x00,0x00,0x4c,0x00,0x13,0x3c,0x00,0x03,0x40,0x00,0x04,
0x54,0x77,0x0a,0x4f,0x00,0x18,0x53,0x76,0x06,0x54,0x00,0x1d,0xb0,0x40,0x00,0x00,
0x90,0x51,0x6d,0x01,0x35,0x53,0x00,0x39,0x41,0x09,0x53,0x00,0x14,0x4f,0x69,0x14,
0x51,0x00,0x05,0x4d,0x64,0x05,0x4f,0x00,0x19,0x4c,0x62,0x0a,0x4d,0x00,0x0c,0x39,
0x00,0x0a,0x3b,0x47,0x01,0x4a,0x68,0x00,0x37,0x3e,0x03,0x35,0x00,0x04,0x4c,0x00,
0x15,0x4f,0x67,0x02,0x4a,0x00,0x22,0x4d,0x6a,0x07,0x4f,0x00,0x1a,0x4a,0x62,0x02,
0x4d,0x00,0x12,0x37,0x00,0x01,0x3b,0x00,0x09,0x4a,0x00,0x09,0x4c,0x5e,0x01,0x38,
0x48,0x02,0x3b,0x4e,0x1e,0x4c,0x00,0x03,0x4d,0x5c,0x21,0x4c,0x5b,0x02,0x4d,0x00,
0x1e,0x4b,0x5d,0x06,0x4c,0x00,0x18,0x4b,0x00,0x05,0x4c,0x61,0x24,0x47,0x5c,0x00,
0x4c,0x00,0x1a,0x3b,0x00,0x02,0x47,0x00,0x04,0x38,0x00,0x02,0x4c,0x5b,0x23,0x4c,
0x00,0x03,0x4b,0x55,0x25,0x4c,0x56,0x01,0x4b,0x00,0x22,0x47,0x4c,0x00,0x4c,0x00,
0x19,0x47,0x00,0x0c,0x4c,0x5d,0x24,0x4c,0x00,0x02,0x4b,0x53,0x3c,0x4c,0x4a,0x00,
0x4b,0x00,0x81,0x70,0x47,0x4a,0x00,0x4c,0x00,0x46,0x4c,0x49,0x05,0x47,0x00,0x42,
0x4b,0x4c,0x01,0x4c,0x00,0x54,0x4b,0x00,0x09,0x4c,0x42,0x82,0x0a,0x47,0x45,0x00,
0x4c,0x00,0x5f,0x47,0x00,0x0e,0x4c,0x3e,0x64,0x4b,0x3d,0x0d,0x4c,0x00,0x57,0x4c,
0x41,0x17,0x4b,0x00,0x24,0x4c,0x00,0x15,0x4b,0x3c,0x57,0x4c,0x45,0x08,0x4b,0x00,
0x33,0x4c,0x00,0x1d,0x4b,0x41,0x81,0x03,0x4c,0x42,0x20,0x4b,0x00,0x39,0x4c,0x00,
0x1e,0x4b,0x40,0x5d,0x4b,0x00,0x08,0x4c,0x3b,0x4a,0x4b,0x3c,0x0c,0x4c,0x00,0x3f,
0x4c,0x49,0x03,0x4b,0x00,0x40,0x47,0x49,0x0e,0x4c,0x00,0x32,0x4a,0x51,0x2e,0x47,
0x00,0x11,0x4a,0x00,0x02,0x48,0x4c,0x47,0x45,0x49,0x04,0x2d,0x41,0x08,0x48,0x00,
0x20,0xb0,0x40,0x7f,0x14,0x90,0x34,0x43,0x03,0x2d,0x00,0x33,0x39,0x43,0x13,0x34,
0x00,0x0c,0x45,0x00,0x1d,0x3c,0x4e,0x00,0x39,0x00,0x37,0x40,0x4b,0x01,0x3c,0x00,
0x1f,0xb0,0x40,0x00,0x17,0x90,0x40,0x00,0x05,0x45,0x4e,0x33,0x45,0x00,0x03,0x47,
0x50,0x01,0x28,0x4d,0x1e,0xb0,0x40,0x7f,0x0a,0x90,0x28,0x00,0x0c,0x34,0x57,0x30,
0x34,0x00,0x06,0x38,0x56,0x0c,0x47,0x00,0x25,0x40,0x5b,0x0a,0x38,0x00,0x25,0x44,
0x60,0x1c,0x40,0x00,0x19,0xb0,0x40,0x00,0x05,0x90,0x47,0x5d,0x07,0x44,0x00,0x35,
0x47,0x00,0x05,0x48,0x56,0x00,0x2d,0x3f,0x3d,0xb0,0x40,0x7f,0x09,0x90,0x34,0x43,
0x02,0x2d,0x00,0x2f,0x48,0x00,0x0b,0x39,0x3e,0x1e,0x34,0x00,0x16,0x40,0x52,0x07,
0x39,0x00,0x25,0xb0,0x40,0x00,0x0b,0x90,0x40,0x00,0x0a,0x4c,0x54,0x3a,0x4b,0x54,
0x03,0x4c,0x00,0x3e,0x4c,0x5c,0x02,0x4b,0x00,0x3a,0x4b,0x55,0x12,0x4c,0x00,0x21,
0x4c,0x5a,0x02,0x4b,0x00,0x34,0x47,0x56,0x0b,0x4c,0x00,0x2d,0x4a,0x58,0x13,0x47,
0x00,0x23,0x48,0x5c,0x06,0x4a,0x00,0x40,0x45,0x53,0x02,0x2d,0x47,0x01,0x48,0x00,
0x2a,0xb0,0x40,0x7f,0x0d,0x90,0x2d,0x00,0x04,0x34,0x49,0x04,0x45,0x00,0x38,0x39,
0x44,0x0f,0x34,0x00,0x26,0x3c,0x52,0x07,0x39,0x00,0x2b,0xb0,0x40,0x00,0x01,0x90,
0x40,0x4b,0x04,0x3c,0x00,0x2f,0x45,0x55,0x09,0x40,0x00,0x2a,0x45,0x00,0x02,0x28,
0x47,0x00,0x47,0x5a,0x1e,0xb0,0x40,0x7f,0x0c,0x90,0x28,0x00,0x0f,0x34,0x45,0x20,
0x47,0x00,0x04,0x34,0x00,0x0c,0x38,0x54,0x33,0x40,0x4b,0x08,0x38,0x00,0x11,0xb0,
0x40,0x00,0x1f,0x90,0x48,0x5e,0x0e,0x40,0x00,0x29,0x47,0x53,0x03,0x48,0x00,0x38,
0x47,0x00,0x02,0x45,0x50,0x03,0x2d,0x47,0x32,0xb0,0x40,0x7f,0x05,0x90,0x2d,0x00,
0x05,0x34,0x49,0x11,0x45,0x00,0x2c,0x39,0x45,0x0c,0x34,0x00,0x1a,0x39,0x00,0x0b,
0x47,0x60,0x31,0xb0,0x40,0x00,0x0a,0x90,0x48,0x67,0x13,0x47,0x00,0x21,0x4a,0x6d,
0x0d,0x48,0x00,0x2d,0x4c,0x6b,0x02,0x30,0x4c,0x03,0x4a,0x00,0x23,0xb0,0x40,0x7f,
0x0f,0x90,0x37,0x5e,0x02,0x30,0x00,0x35,0x3c,0x67,0x09,0x4c,0x00,0x0b,0x37,0x00,
0x19,0x43,0x68,0x07,0x3c,0x00,0x31,0x4d,0x6a,0x0f,0xb0,0x40,0x00,0x05,0x90,0x43,
0x00,0x22,0x4c,0x60,0x18,0x4d,0x00,0x22,0x2b,0x51,0x02,0x4a,0x65,0x0a,0x4c,0x00,
0x0f,0xb0,0x40,0x7f,0x14,0x90,0x2b,0x00,0x0b,0x37,0x49,0x2b,0x37,0x00,0x0b,0x3b,
0x4c,0x09,0x4a,0x00,0x29,0x41,0x5e,0x0a,0x3b,0x00,0x1f,0xb0,0x40,0x00,0x0f,0x90,
0x4c,0x62,0x09,0x41,0x00,0x2f,0x4a,0x58,0x05,0x4c,0x00,0x33,0x4a,0x00,0x07,0x48,
0x52,0x01,0x2d,0x42,0x38,0x34,0x51,0x09,0x2d,0x00,0x31,0x39,0x45,0x0f,0x34,0x00,
0x13,0x48,0x00,0x1a,0x40,0x51,0x00,0x39,0x00,0x3e,0x4a,0x53,0x03,0x40,0x00,0x38,
0x4a,0x00,0x02,0x48,0x51,0x48,0x47,0x4a,0x02,0x28,0x43,0x00,0xb0,0x40,0x7f,0x0f,
0x90,0x48,0x00,0x25,0x28,0x00,0x10,0x34,0x40,0x3c,0x40,0x41,0x00,0x34,0x00,0x13,
0x47,0x00,0x0b,0x40,0x00,0x23,0x40,0x3e,0x3c,0x40,0x00,0x05,0x4c,0x47,0x38,0x40,
0x4c,0x03,0x4c,0x00,0x39,0x40,0x00,0x06,0x4c,0x45,0x2d,0x4c,0x00,0x18,0x4c,0x3f,
0x4f,0x58,0x3d,0x0b,0x4c,0x00,0x31,0x58,0x00,0x11,0xb0,0x40,0x00,0x00,0x90,0x4b,
0x3f,0x61,0x4b,0x00,0x07,0x4c,0x3c,0x59,0x4c,0x00,0x1e,0x4b,0x40,0x61,0x4b,0x00,
0x03,0x4c,0x3e,0x43,0x4c,0x00,0x0e,0x4b,0x49,0x55,0x4c,0x47,0x05,0x4b,0x00,0x4b,
0x4c,0x00,0x0f,0x4b,0x40,0x55,0x4b,0x00,0x09,0x4c,0x3d,0x55,0x4b,0x45,0x03,0x4c,
0x00,0x48,0x4c,0x42,0x00,0x4b,0x00,0x3c,0x4b,0x54,0x06,0x4c,0x00,0x31,0x4b,0x00,
0x05,0x4c,0x52,0x37,0x47,0x57,0x0f,0x4c,0x00,0x32,0x4a,0x4c,0x14,0x47,0x00,0x33,
0x48,0x4e,0x0b,0x4a,0x00,0x49,0x2d,0x44,0x00,0x45,0x4c,0x04,0x48,0x00,0x29,0xb0,
0x40,0x7f,0x06,0x90,0x2d,0x00,0x0a,0x34,0x44,0x10,0x45,0x00,0x26,0x39,0x41,0x06,
0x34,0x00,0x27,0x39,0x00,0x0f,0x3c,0x50,0x2e,0x3c,0x00,0x04,0x40,0x49,0x0b,0xb0,
0x40,0x00,0x2c,0x90,0x45,0x49,0x00,0x40,0x00,0x32,0x45,0x00,0x05,0x47,0x4c,0x00,
0x28,0x41,0x1e,0xb0,0x40,0x7f,0x07,0x90,0x28,0x00,0x13,0x34,0x46,0x2d,0x34,0x00,
0x09,0x38,0x4e,0x09,0x47,0x00,0x2b,0x38,0x00,0x03,0x40,0x4b,0x2d,0x44,0x4d,0x0f,
0xb0,0x40,0x00,0x07,0x90,0x40,0x00,0x21,0x47,0x5d,0x06,0x44,0x00,0x31,0x47,0x00,
0x0a,0x48,0x57,0x02,0x2d,0x3d,0x28,0xb0,0x40,0x7f,0x17,0x90,0x34,0x41,0x05,0x2d,
0x00,0x32,0x39,0x3b,0x02,0x34,0x00,0x1b,0x48,0x00,0x1f,0x40,0x3f,0x07,0x39,0x00,
0x2c,0x40,0x00,0x0b,0xb0,0x40,0x00,0x03,0x90,0x4c,0x47,0x42,0x4b,0x47,0x07,0x4c,
0x00,0x34,0x4c,0x4d,0x04,0x4b,0x00,0x3a,0x4b,0x4c,0x10,0x4c,0x00,0x25,0x4c,0x58,
0x03,0x4b,0x00,0x2f,0x47,0x54,0x0c,0x4c,0x00,0x2d,0x4a,0x58,0x14,0x47,0x00,0x21,
0x48,0x53,0x00,0x4a,0x00,0x3c,0x45,0x50,0x00,0x48,0x00,0x05,0x2d,0x3f,0x28,0xb0,
0x40,0x7f,0x0f,0x90,0x34,0x47,0x00,0x2d,0x00,0x2d,0x39,0x40,0x05,0x34,0x00,0x09,
0x45,0x00,0x26,0x39,0x00,0x03,0x3c,0x54,0x2a,0x3c,0x00,0x09,0x40,0x4b,0x36,0x45,
0x59,0x06,0x40,0x00,0x13,0xb0,0x40,0x00,0x19,0x90,0x45,0x00,0x08,0x47,0x59,0x02,
0x28,0x40,0x28,0x28,0x00,0x05,0xb0,0x40,0x7f,0x07,0x90,0x34,0x4a,0x35,0x34,0x00,
0x05,0x38,0x56,0x25,0x47,0x00,0x08,0x40,0x52,0x00,0x38,0x00,0x37,0x48,0x5a,0x1a,
0x40,0x00,0x18,0xb0,0x40,0x00,0x0b,0x90,0x47,0x59,0x04,0x48,0x00,0x42,0x47,0x00,
0x04,0x45,0x4c,0x02,0x2d,0x50,0x1a,0x2d,0x00,0x11,0xb0,0x40,0x7f,0x14,0x90,0x2d,
0x50,0x14,0x2d,0x00,0x23,0x2d,0x56,0x12,0x2d,0x00,0x22,0x2d,0x57,0x07,0x45,0x00,
0x0d,0x2d,0x00,0x22,0x2d,0x51,0x1e,0x2d,0x00,0x1d,0x2d,0x48,0x12,0x2d,0x00,0x25,
0xb0,0x40,0x00,0x01,0x90,0x49,0x55,0x00,0x46,0x4a,0x00,0x43,0x43,0x00,0x40,0x3a,
0x00,0x2d,0x50,0x19,0x2d,0x00,0x1a,0xb0,0x40,0x7f,0x08,0x90,0x2d,0x53,0x14,0x2d,
0x00,0x16,0x40,0x00,0x08,0x2d,0x53,0x0b,0x43,0x00,0x09,0x2d,0x00,0x15,0x46,0x00,
0x09,0x2d,0x4f,0x14,0x2d,0x00,0x1f,0x49,0x00,0x04,0x2d,0x4f,0x14,0x2d,0x00,0x21,
0x2d,0x50,0x14,0x2d,0x00,0x1d,0x4a,0x60,0x01,0x41,0x5d,0x02,0xb0,0x40,0x00,0x00,
0x90,0x45,0x5e,0x01,0x2d,0x51,0x14,0x2d,0x00,0x19,0xb0,0x40,0x7f,0x09,0x90,0x2d,
0x51,0x0f,0x2d,0x00,0x0e,0x41,0x00,0x02,0x45,0x00,0x0b,0x4a,0x00,0x08,0x2d,0x56,
0x12,0x2d,0x00,0x1c,0x2d,0x57,0x10,0x2d,0x00,0x21,0xb0,0x40,0x00,0x00,0x90,0x2d,
0x5d,0x00,0x4c,0x5e,0x00,0x49,0x5b,0x0f,0x2d,0x00,0x01,0xb0,0x40,0x7f,0x10,0x90,
0x49,0x00,0x08,0x4c,0x00,0x0a,0x4d,0x66,0x00,0x4a,0x62,0x00,0x2d,0x5a,0x12,0x2d,
0x00,0x0c,0x4a,0x00,0x0f,0x4d,0x00,0x0a,0x4a,0x69,0x00,0x4d,0x6b,0x00,0x2d,0x56,
0x01,0x44,0x65,0x0e,0xb0,0x40,0x00,0x05,0x90,0x2d,0x00,0x23,0x2d,0x5a,0x0a,0xb0,
0x40,0x7f,0x0a,0x90,0x2d,0x00,0x1e,0x2d,0x5a,0x06,0x44,0x00,0x01,0x4a,0x00,0x08,
0x4d,0x00,0x01,0x2d,0x00,0x25,0x2d,0x59,0x10,0x2d,0x00,0x23,0x2d,0x56,0x01,0x44,
0x65,0x00,0x4a,0x6c,0x00,0x4d,0x6b,0x02,0xb0,0x40,0x00,0x16,0x90,0x2d,0x00,0x01,
0xb0,0x40,0x7f,0x19,0x90,0x2d,0x66,0x00,0x44,0x00,0x00,0x4a,0x00,0x07,0x4d,0x00,
0x0b,0x2d,0x00,0x20,0x48,0x6a,0x00,0x4c,0x6d,0x01,0x2d,0x65,0x00,0x45,0x6b,0x04,
0xb0,0x40,0x00,0x15,0x90,0x2d,0x00,0x13,0xb0,0x40,0x7f,0x05,0x90,0x2d,0x69,0x0f,
0x2d,0x00,0x23,0x2d,0x6c,0x12,0x2d,0x00,0x07,0xb0,0x40,0x00,0x19,0x90,0x2d,0x67,
0x0f,0x2d,0x00,0x1a,0xb0,0x40,0x7f,0x0a,0x90,0x2d,0x69,0x01,0x4c,0x00,0x03,0x48,
0x00,0x07,0x45,0x00,0x04,0x2d,0x00,0x22,0x2d,0x66,0x0f,0x2d,0x00,0x25,0x41,0x70,
0x00,0x4a,0x6a,0x01,0x26,0x53,0x00,0x2d,0x5c,0x04,0xb0,0x40,0x00,0x11,0x90,0x2d,
0x00,0x09,0x26,0x00,0x13,0xb0,0x40,0x7f,0x06,0x90,0x2d,0x60,0x00,0x26,0x56,0x14,
0x26,0x00,0x00,0x2d,0x00,0x1b,0x26,0x63,0x01,0x2d,0x62,0x14,0x2d,0x00,0x02,0x26,
0x00,0x18,0x2d,0x67,0x01,0x26,0x68,0x0f,0x26,0x00,0x02,0x2d,0x00,0x0b,0x4a,0x00,
0x00,0x41,0x00,0x13,0x26,0x67,0x03,0x2d,0x70,0x00,0x48,0x71,0x00,0x40,0x61,0x0c,
0x26,0x00,0x08,0x2d,0x00,0x16,0x2d,0x5f,0x00,0x3e,0x59,0x00,0x47,0x6f,0x00,0x26,
0x5f,0x0f,0x2d,0x00,0x01,0x26,0x00,0x01,0x40,0x00,0x00,0x48,0x00,0x26,0x3c,0x64,
0x00,0x42,0x66,0x00,0x45,0x71,0x00,0x2d,0x51,0x00,0x27,0x57,0x04,0x3e,0x00,0x00,
0x47,0x00,0x01,0xb0,0x40,0x00,0x0f,0x90,0x27,0x00,0x0b,0x2d,0x00,0x13,0xb0,0x40,
0x7f,0x05,0x90,0x2d,0x57,0x00,0x27,0x62,0x12,0x27,0x00,0x03,0x2d,0x00,0x09,0x42,
0x00,0x05,0x3c,0x00,0x03,0x45,0x00,0x07,0x27,0x60,0x00,0x2d,0x5e,0x11,0x27,0x00,
0x03,0x2d,0x00,0x19,0x27,0x68,0x00,0x2d,0x5d,0x10,0x27,0x00,0x04,0x2d,0x00,0x14,
0xb0,0x40,0x00,0x09,0x90,0x45,0x75,0x00,0x3c,0x73,0x00,0x2d,0x65,0x00,0x27,0x61,
0x15,0x27,0x00,0x00,0x2d,0x00,0x19,0x27,0x69,0x01,0x2d,0x65,0x12,0x3c,0x00,0x05,
0x45,0x00,0x01,0x27,0x00,0x01,0x2d,0x00,0x1d,0x2d,0x5c,0x00,0x3c,0x70,0x00,0x28,
0x54,0x01,0x45,0x73,0x13,0x28,0x00,0x00,0x2d,0x00,0x1e,0x2d,0x53,0x02,0x28,0x53,
0x14,0x28,0x00,0x00,0x2d,0x00,0x1e,0x48,0x64,0x00,0x40,0x4c,0x00,0x2d,0x56,0x00,
0x28,0x4f,0x02,0x45,0x00,0x0f,0x3c,0x00,0x00,0x28,0x00,0x03,0x2d,0x00,0x1a,0x28,
0x56,0x02,0x2d,0x5d,0x10,0x2d,0x00,0x00,0x28,0x00,0x1e,0x2c,0x5f,0x00,0x3e,0x46,
0x00,0x47,0x60,0x01,0x28,0x56,0x0f,0x48,0x00,0x02,0x2c,0x00,0x01,0x28,0x00,0x06,
0x40,0x00,0x20,0x2c,0x67,0x00,0x28,0x42,0x0f,0x2c,0x00,0x03,0x28,0x00,0x26,0x47,
0x00,0x05,0x2d,0x42,0x01,0x45,0x57,0x00,0x3e,0x00,0x01,0x21,0x4d,0x00,0x3c,0x50,
0x17,0x2d,0x00,0x07,0x21,0x00,0x09,0xb0,0x40,0x7f,0x14,0x90,0x2d,0x42,0x15,0x2d,
0x00,0x1d,0x2d,0x51,0x14,0x2d,0x00,0x1f,0x2d,0x4c,0x12,0x2d,0x00,0x1e,0x45,0x00,
0x01,0x3c,0x00,0x01,0x2d,0x4b,0x0f,0x2d,0x00,0x1e,0x2d,0x4b,0x10,0x2d,0x00,0x22,
0xb0,0x40,0x00,0x02,0x90,0x49,0x66,0x02,0x40,0x64,0x00,0x43,0x5f,0x00,0x46,0x67,
0x01,0x2d,0x62,0x19,0x2d,0x00,0x13,0xb0,0x40,0x7f,0x02,0x90,0x2d,0x5d,0x1c,0x2d,
0x00,0x15,0x2d,0x5c,0x19,0x2d,0x00,0x19,0x2d,0x59,0x1c,0x2d,0x00,0x15,0x2d,0x5d,
0x0c,0x49,0x00,0x02,0x46,0x00,0x00,0x40,0x00,0x00,0x43,0x00,0x10,0x2d,0x00,0x14,
0x2d,0x5f,0x19,0x2d,0x00,0x16,0x4a,0x63,0x03,0x2d,0x60,0x00,0x45,0x5f,0x00,0x41,
0x5a,0x05,0xb0,0x40,0x00,0x0a,0x90,0x2d,0x00,0x1a,0xb0,0x40,0x7f,0x09,0x90,0x2d,
0x5d,0x0f,0x2d,0x00,0x1e,0x2d,0x5a,0x1b,0x2d,0x00,0x14,0x2d,0x5c,0x04,0x4a,0x00,
0x03,0x41,0x00,0x00,0x45,0x00,0x0f,0x2d,0x00,0x0c,0xb0,0x40,0x00,0x09,0x90,0x2d,
0x57,0x01,0x49,0x5c,0x01,0x4c,0x60,0x12,0x2d,0x00,0x05,0xb0,0x40,0x7f,0x06,0x90,
0x49,0x00,0x06,0x4c,0x00,0x10,0x2d,0x5a,0x01,0x4d,0x61,0x00,0x4a,0x60,0x10,0x2d,
0x00,0x05,0x4a,0x00,0x08,0x4d,0x00,0x16,0x4a,0x61,0x00,0x2d,0x5d,0x01,0x4d,0x60,
0x05,0xb0,0x40,0x00,0x13,0x90,0x2d,0x00,0x14,0x2d,0x5b,0x05,0xb0,0x40,0x7f,0x0c,
0x90,0x2d,0x00,0x1c,0x2d,0x5d,0x11,0x2d,0x00,0x1f,0x2d,0x5a,0x0f,0x2d,0x00,0x1a,
0x4a,0x00,0x01,0xb0,0x40,0x00,0x00,0x90,0x4d,0x00,0x08,0x2d,0x56,0x02,0x4d,0x6b,
0x00,0x4a,0x62,0x0d,0x2d,0x00,0x08,0xb0,0x40,0x7f,0x1c,0x90,0x2d,0x60,0x14,0x2d,
0x00,0x14,0x4a,0x00,0x00,0x4d,0x00,0x0b,0x2e,0x58,0x00,0x4a,0x61,0x00,0x4d,0x67,
0x05,0xb0,0x40,0x00,0x1f,0x90,0x2e,0x00,0x09,0xb0,0x40,0x7f,0x0f,0x90,0x2e,0x5d,
0x0f,0x2e,0x00,0x1e,0x2e,0x57,0x11,0x2e,0x00,0x17,0x2e,0x57,0x12,0x2e,0x00,0x02,
0x4d,0x00,0x05,0x4a,0x00,0x14,0x2e,0x5b,0x0f,0x2e,0x00,0x21,0x2e,0x5d,0x0f,0x2e,
0x00,0x16,0xb0,0x40,0x00,0x0f,0x90,0x2e,0x56,0x00,0x4b,0x61,0x01,0x43,0x5a,0x13,
0x2e,0x00,0x10,0xb0,0x40,0x7f,0x01,0x40,0x00,0x00,0x40,0x7f,0x0a,0x90,0x2e,0x59,
0x0d,0x4b,0x00,0x07,0x2e,0x00,0x0c,0x43,0x00,0x11,0x2e,0x5a,0x14,0x2e,0x00,0x1d,
0x2e,0x5c,0x0f,0x2e,0x00,0x21,0x2e,0x58,0x00,0x41,0x57,0x00,0x4a,0x64,0x0f,0x2e,
0x00,0x20,0x2e,0x58,0x00,0x3f,0x5b,0x00,0x48,0x5f,0x0c,0x4a,0x00,0x00,0x41,0x00,
0x06,0x2e,0x00,0x25,0x2e,0x58,0x01,0x41,0x61,0x00,0x46,0x62,0x01,0x3e,0x5d,0x02,
0x3f,0x00,0x00,0x48,0x00,0x06,0xb0,0x40,0x00,0x0a,0x90,0x2e,0x00,0x1c,0x2e,0x57,
0x0f,0x2e,0x00,0x20,0x2e,0x5b,0x14,0x2e,0x00,0x02,0x3e,0x00,0x09,0x41,0x00,0x0f,
0x46,0x00,0x04,0x2e,0x59,0x14,0x2e,0x00,0x23,0x41,0x57,0x00,0x45,0x57,0x01,0x3e,
0x50,0x00,0x2e,0x59,0x14,0x2e,0x00,0x0f,0x3e,0x00,0x0e,0x2e,0x57,0x00,0x41,0x00,
0x14,0x2e,0x00,0x1e,0x45,0x00,0x03,0x2f,0x49,0x00,0x3e,0x47,0x00,0x41,0x4c,0x00,
0x44,0x58,0x19,0x2f,0x00,0x19,0x2f,0x51,0x17,0x2f,0x00,0x11,0x3e,0x00,0x07,0x41,
0x00,0x03,0x2f,0x57,0x02,0x44,0x00,0x12,0x2f,0x00,0x1e,0x2f,0x4e,0x12,0x2f,0x00,
0x1d,0x2f,0x53,0x00,0x44,0x5d,0x00,0x3e,0x53,0x01,0x41,0x50,0x13,0x2f,0x00,0x21,
0x2f,0x61,0x0f,0x2f,0x00,0x15,0x44,0x00,0x00,0x3e,0x00,0x01,0x41,0x00,0x19,0x3c,
0x49,0x00,0x30,0x44,0x01,0x40,0x49,0x01,0x45,0x4d,0x81,0x13,0x30,0x00,0x00,0x3c,
0x00,0x01,0x40,0x00,0x01,0x45,0x00,0x81,0x61,0x47,0x4a,0x00,0x40,0x3e,0x00,0x3e,
0x3b,0x00,0x38,0x3a,0x00,0x34,0x3d,0x81,0x15,0x34,0x00,0x00,0x3e,0x00,0x00,0x38,
0x00,0x00,0x40,0x00,0x1e,0x47,0x00,0x81,0x57,0x21,0x40,0x01,0x39,0x43,0x18,0xb0,
0x40,0x7f,0x0e,0x90,0x39,0x00,0x02,0x3c,0x51,0x22,0x40,0x50,0x0e,0x21,0x00,0x0b,
0x3c,0x00,0x0c,0x45,0x62,0x16,0x40,0x00,0x0f,0x48,0x65,0x16,0x45,0x00,0x0e,0x4c,
0x60,0x02,0x48,0x00,0x21,0x4a,0x67,0x01,0xb0,0x40,0x00,0x00,0x90,0x40,0x46,0x00,
0x3c,0x53,0x00,0x39,0x49,0x09,0x4c,0x00,0x1b,0x48,0x67,0x03,0xb0,0x40,0x7f,0x02,
0x90,0x4a,0x00,0x12,0x39,0x00,0x00,0x3c,0x00,0x00,0x40,0x00,0x0c,0x47,0x67,0x05,
0x48,0x00,0x17,0x47,0x00,0x05,0x45,0x67,0x00,0x40,0x51,0x00,0x3c,0x54,0x00,0x39,
0x4a,0x05,0xb0,0x40,0x00,0x23,0x90,0x48,0x6d,0x05,0x45,0x00,0x0a,0xb0,0x40,0x7f,
0x14,0x90,0x4c,0x63,0x00,0x48,0x00,0x02,0x3c,0x00,0x0c,0x40,0x00,0x00,0x39,0x00,
0x10,0x4c,0x00,0x05,0x51,0x69,0x1e,0x51,0x00,0x05,0x54,0x71,0x24,0x58,0x6e,0x07,
0x54,0x00,0x16,0xb0,0x40,0x00,0x05,0x90,0x39,0x4d,0x00,0x3c,0x60,0x00,0x40,0x49,
0x01,0x56,0x6c,0x14,0x58,0x00,0x0e,0x40,0x00,0x00,0x39,0x00,0x00,0x3c,0x00,0x02,
0x56,0x00,0x03,0x54,0x6e,0x00,0xb0,0x40,0x7f,0x21,0x90,0x53,0x6b,0x04,0x54,0x00,
0x1a,0x53,0x00,0x02,0xb0,0x40,0x00,0x01,0x90,0x3c,0x5e,0x00,0x40,0x51,0x00,0x39,
0x51,0x00,0x51,0x65,0x24,0x54,0x6e,0x0e,0x51,0x00,0x04,0xb0,0x40,0x7f,0x14,0x90,
0x58,0x6b,0x05,0x54,0x00,0x0f,0x58,0x00,0x14,0x5d,0x71,0x15,0x39,0x00,0x01,0x3c,
0x00,0x04,0x40,0x00,0x0e,0x60,0x6c,0x0f,0x5d,0x00,0x16,0x64,0x73,0x12,0x60,0x00,
0x14,0xb0,0x40,0x00,0x05,0x90,0x40,0x4e,0x00,0x62,0x74,0x01,0x3c,0x5e,0x00,0x39,
0x4d,0x1a,0x64,0x00,0x0d,0xb0,0x40,0x7f,0x05,0x90,0x60,0x6f,0x0b,0x39,0x00,0x03,
0x3c,0x00,0x01,0x40,0x00,0x00,0x62,0x00,0x14,0x5f,0x6d,0x05,0x60,0x00,0x2c,0x3c,
0x5c,0x01,0x5e,0x6e,0x00,0x39,0x45,0x01,0x40,0x46,0x04,0xb0,0x40,0x00,0x0d,0x90,
0x5f,0x00,0x20,0x5d,0x6a,0x0f,0x5e,0x00,0x1e,0x5c,0x6a,0x0a,0x5d,0x00,0x1e,0x5b,
0x63,0x03,0x5c,0x00,0x25,0x5a,0x61,0x03,0x39,0x00,0x02,0x5b,0x00,0x09,0x3c,0x00,
0x00,0x40,0x00,0x1a,0x59,0x5e,0x0a,0x5a,0x00,0x1e,0x58,0x5b,0x00,0x59,0x00,0x23,
0x57,0x57,0x07,0x58,0x00,0x21,0x56,0x54,0x13,0x57,0x00,0x15,0x55,0x51,0x0a,0x56,
0x00,0x23,0x54,0x51,0x0f,0x55,0x00,0x19,0x53,0x4c,0x00,0x54,0x00,0x28,0x52,0x4b,
0x05,0x53,0x00,0x23,0x51,0x4e,0x05,0x52,0x00,0x2a,0x50,0x48,0x03,0x51,0x00,0x2d,
0x50,0x00,0x05,0x4f,0x48,0x42,0x4e,0x40,0x09,0x4f,0x00,0x46,0x4d,0x48,0x04,0x4e,
0x00,0x6a,0x4c,0x48,0x00,0x4d,0x00,0x5f,0x4b,0x47,0x07,0x4c,0x00,0x3f,0x4c,0x4d,
0x01,0x4b,0x00,0x38,0x47,0x47,0x18,0x4c,0x00,0x22,0x4a,0x4a,0x2a,0x47,0x00,0x14,
0x48,0x4b,0x05,0x4a,0x00,0x53,0x45,0x45,0x00,0x48,0x00,0x02,0x2d,0x3f,0x2b,0xb0,
0x40,0x7f,0x14,0x90,0x34,0x3d,0x07,0x2d,0x00,0x08,0x45,0x00,0x2d,0x39,0x3f,0x17,
0x34,0x00,0x14,0x39,0x00,0x0c,0x3c,0x4b,0x32,0x3c,0x00,0x01,0x40,0x47,0x29,0x40,
0x00,0x08,0x45,0x4e,0x2e,0xb0,0x40,0x00,0x02,0x90,0x45,0x00,0x04,0x28,0x4a,0x00,
0x47,0x4d,0x1e,0xb0,0x40,0x7f,0x08,0x90,0x28,0x00,0x0a,0x34,0x47,0x2f,0x38,0x4f,
0x03,0x34,0x00,0x0c,0x47,0x00,0x06,0x38,0x00,0x17,0x40,0x4b,0x2c,0x44,0x4e,0x04,
0x40,0x00,0x29,0x47,0x5a,0x0c,0x44,0x00,0x27,0x47,0x00,0x04,0x48,0x5b,0x03,0x2d,
0x3f,0x07,0xb0,0x40,0x00,0x2d,0x40,0x7f,0x05,0x90,0x34,0x4c,0x12,0x2d,0x00,0x20,
0x39,0x44,0x0f,0x34,0x00,0x1e,0x48,0x00,0x05,0x40,0x44,0x09,0x39,0x00,0x2e,0x4c,
0x4c,0x00,0x40,0x00,0x0a,0xb0,0x40,0x00,0x2e,0x90,0x4b,0x45,0x0c,0x4c,0x00,0x2f,
0x4c,0x4c,0x01,0x4b,0x00,0x36,0x4b,0x49,0x14,0x4c,0x00,0x19,0x4c,0x57,0x05,0x4b,
0x00,0x2d,0x47,0x54,0x16,0x4c,0x00,0x17,0x4a,0x4d,0x15,0x47,0x00,0x20,0x4a,0x00,
0x02,0x48,0x4b,0x36,0x2d,0x3e,0x01,0x45,0x47,0x05,0x48,0x00,0x1b,0xb0,0x40,0x7f,
0x16,0x90,0x2d,0x00,0x06,0x34,0x3c,0x2d,0x39,0x41,0x0f,0x34,0x00,0x0f,0x45,0x00,
0x11,0x3c,0x46,0x05,0x39,0x00,0x23,0x3c,0x00,0x03,0x40,0x4b,0x2d,0x40,0x00,0x05,
0x45,0x4d,0x2a,0x45,0x00,0x03,0xb0,0x40,0x00,0x00,0x90,0x47,0x4a,0x01,0x28,0x45,
0x1f,0xb0,0x40,0x7f,0x0a,0x90,0x28,0x00,0x12,0x34,0x43,0x30,0x34,0x00,0x07,0x38,
0x4c,0x05,0x47,0x00,0x20,0x38,0x00,0x0d,0x40,0x42,0x30,0x40,0x00,0x02,0x48,0x53,
0x2d,0x48,0x00,0x05,0x47,0x47,0x25,0xb0,0x40,0x00,0x08,0x90,0x47,0x00,0x07,0x2d,
0x37,0x01,0x45,0x42,0x2a,0xb0,0x40,0x7f,0x15,0x90,0x34,0x43,0x04,0x2d,0x00,0x34,
0x45,0x00,0x08,0x39,0x3a,0x04,0x34,0x00,0x33,0x47,0x5e,0x05,0x39,0x00,0x1a,0xb0,
0x40,0x00,0x18,0x90,0x48,0x60,0x1e,0x47,0x00,0x1c,0x4a,0x68,0x0c,0x48,0x00,0x2d,
0x30,0x40,0x00,0x4c,0x67,0x03,0x4a,0x00,0x25,0xb0,0x40,0x7f,0x14,0x90,0x37,0x4a,
0x02,0x4c,0x00,0x03,0x30,0x00,0x2e,0x3c,0x5b,0x1f,0x37,0x00,0x09,0x43,0x67,0x1b,
0x3c,0x00,0x1b,0x4d,0x6b,0x15,0x43,0x00,0x1e,0x4c,0x68,0x0e,0x4d,0x00,0x1e,0xb0,
0x40,0x00,0x05,0x90,0x2b,0x47,0x00,0x4a,0x68,0x0e,0x4c,0x00,0x1a,0xb0,0x40,0x7f,
0x08,0x90,0x2b,0x00,0x07,0x37,0x47,0x05,0x4a,0x00,0x2d,0x3b,0x43,0x03,0x37,0x00,
0x28,0x3b,0x00,0x03,0x41,0x5b,0x33,0x4c,0x61,0x13,0x41,0x00,0x0f,0xb0,0x40,0x00,
0x13,0x90,0x4a,0x5b,0x0d,0x4c,0x00,0x2a,0x48,0x5b,0x00,0x2d,0x40,0x07,0x4a,0x00,
0x1e,0xb0,0x40,0x7f,0x14,0x90,0x2d,0x00,0x03,0x34,0x3e,0x00,0x48,0x00,0x33,0x39,
0x40,0x13,0x34,0x00,0x28,0x40,0x53,0x00,0x39,0x00,0x15,0xb0,0x40,0x00,0x27,0x90,
0x4a,0x4f,0x0a,0x40,0x00,0x2d,0x4a,0x00,0x05,0x48,0x4e,0x46,0x47,0x4b,0x01,0x28,
0x3d,0x04,0x48,0x00,0x19,0xb0,0x40,0x7f,0x22,0x90,0x28,0x00,0x12,0x34,0x3f,0x25,
0x47,0x00,0x15,0x34,0x00,0x0b,0x40,0x48,0x23,0x40,0x00,0x23,0x40,0x45,0x29,0x40,
0x00,0x22,0x4c,0x48,0x26,0x4c,0x00,0x15,0x40,0x3b,0x2d,0x40,0x00,0x1e,0x4c,0x42,
0x1e,0x4c,0x00,0x2d,0x4c,0x42,0x42,0x4c,0x00,0x18,0x58,0x40,0x19,0xb0,0x40,0x00,
0x2d,0x90,0x58,0x00,0x10,0x4b,0x4d,0x73,0x4c,0x43,0x05,0x4b,0x00,0x3c,0x4c,0x00,
0x18,0x4b,0x41,0x47,0x4b,0x00,0x13,0x4c,0x40,0x48,0x4c,0x00,0x08,0x4b,0x3c,0x7d,
0x4c,0x3b,0x0a,0x4b,0x00,0x4e,0x4c,0x00,0x13,0x4b,0x43,0x62,0x4b,0x00,0x01,0x4c,
0x40,0x54,0x4b,0x4a,0x01,0x4c,0x00,0x4a,0x4c,0x47,0x05,0x4b,0x00,0x43,0x4b,0x4f,
0x12,0x4c,0x00,0x25,0x4c,0x4e,0x06,0x4b,0x00,0x39,0x47,0x49,0x1e,0x4c,0x00,0x1a,
0x4a,0x4b,0x20,0x47,0x00,0x22,0x48,0x4d,0x0c,0x4a,0x00,0x3f,0x45,0x44,0x01,0x2d,
0x40,0x04,0x48,0x00,0x28,0xb0,0x40,0x7f,0x13,0x90,0x34,0x3d,0x09,0x45,0x00,0x03,
0x2d,0x00,0x26,0x34,0x00,0x09,0x39,0x39,0x32,0x3c,0x4e,0x09,0x39,0x00,0x24,0x3c,
0x00,0x05,0x40,0x4d,0x2d,0x40,0x00,0x07,0x45,0x4e,0x1c,0xb0,0x40,0x00,0x17,0x90,
0x47,0x54,0x00,0x28,0x42,0x08,0x45,0x00,0x1d,0xb0,0x40,0x7f,0x03,0x90,0x28,0x00,
0x0d,0x34,0x47,0x37,0x38,0x4e,0x04,0x34,0x00,0x07,0x47,0x00,0x27,0x40,0x46,0x09,
0x38,0x00,0x28,0x44,0x48,0x10,0x40,0x00,0x22,0xb0,0x40,0x00,0x05,0x90,0x47,0x4a,
0x0f,0x44,0x00,0x35,0x48,0x50,0x02,0x2d,0x3a,0x13,0x47,0x00,0x1f,0xb0,0x40,0x7f,
0x14,0x90,0x34,0x3e,0x05,0x2d,0x00,0x0b,0x48,0x00,0x31,0x39,0x3e,0x06,0x34,0x00,
0x36,0x40,0x51,0x00,0x39,0x00,0x3c,0x40,0x00,0x01,0xb0,0x40,0x00,0x04,0x90,0x4c,
0x54,0x38,0x4b,0x51,0x09,0x4c,0x00,0x2d,0x4c,0x58,0x01,0x4b,0x00,0x3b,0x4b,0x4f,
0x0f,0x4c,0x00,0x24,0x4c,0x51,0x06,0x4b,0x00,0x31,0x47,0x4d,0x17,0x4c,0x00,0x1f,
0x4a,0x53,0x1a,0x47,0x00,0x21,0x48,0x4d,0x01,0x4a,0x00,0x40,0x45,0x4a,0x00,0x2d,
0x43,0x0a,0x48,0x00,0x1f,0xb0,0x40,0x7f,0x18,0x90,0x2d,0x00,0x01,0x34,0x44,0x02,
0x45,0x00,0x30,0x39,0x4a,0x11,0x34,0x00,0x22,0x3c,0x51,0x09,0x39,0x00,0x2d,0x40,
0x50,0x01,0x3c,0x00,0x3b,0x40,0x00,0x05,0x45,0x51,0x32,0xb0,0x40,0x00,0x00,0x90,
0x45,0x00,0x07,0x28,0x41,0x01,0x47,0x50,0x27,0xb0,0x40,0x7f,0x05,0x90,0x28,0x00,
0x14,0x34,0x3f,0x2e,0x34,0x00,0x09,0x47,0x00,0x0d,0x38,0x44,0x24,0x38,0x00,0x1d,
0x3e,0x46,0x46,0xb0,0x40,0x00,0x0f,0x90,0x48,0x52,0x5f,0x47,0x4b,0x05,0x3e,0x00,
0x05,0x48,0x00,0x76,0x45,0x44,0x00,0x3c,0x37,0x00,0x2d,0x3a,0x00,0x21,0x37,0x15,
0x47,0x00,0x51,0xb0,0x79,0x00,0x82,0x1f,0x90,0x2d,0x00,0x00,0x45,0x00,0x00,0x3c,
0x00,0x00,0x21,0x00,0x00,0xff,0x2f,0x00,0x4d,0x54,0x72,0x6b,0x00,0x00,0x00,0x21,
0x00,0xff,0x21,0x01,0x00,0x00,0xff,0x03,0x14,0x43,0x72,0x65,0x61,0x74,0x69,0x76,
0x65,0x20,0x20,0x20,0x20,0x20,0x20,0x20,0x20,0x20,0x20,0x20,0x20,0x00,0xff,0x2f,
0x00,0x4d,0x54,0x72,0x6b,0x00,0x00,0x00,0x21,0x00,0xff,0x21,0x01,0x00,0x00,0xff,
0x03,0x14,0x4c,0x61,0x62,0x73,0x20,0x49,0x6e,0x73,0x2e,0x20,0x28,0x63,0x29,0x20,
0x31,0x39,0x39,0x32,0x20,0x20,0x00,0xff,0x2f,0x00,0x4d,0x54,0x72,0x6b,0x00,0x00,
0x00,0x21,0x00,0xff,0x21,0x01,0x00,0x00,0xff,0x03,0x14,0x52,0x65,0x63,0x6f,0x72,
0x64,0x65,0x64,0x20,0x62,0x79,0x20,0x44,0x72,0x2e,0x20,0x43,0x68,0x65,0x77,0x00,
0xff,0x2f,0x00,0x4d,0x54,0x72,0x6b,0x00,0x00,0x00,0x21,0x00,0xff,0x21,0x01,0x00,
0x00,0xff,0x03,0x14,0x42,0x65,0x65,0x74,0x68,0x6f,0x76,0x65,0x6e,0x20,0x20,0x20,
0x20,0x20,0x20,0x20,0x20,0x20,0x20,0x20,0x00,0xff,0x2f,0x00,0x4d,0x54,0x72,0x6b,
0x00,0x00,0x00,0x21,0x00,0xff,0x21,0x01,0x00,0x00,0xff,0x03,0x14,0x46,0x75,0x72,
0x20,0x45,0x6c,0x69,0x73,0x65,0x20,0x20,0x20,0x20,0x20,0x20,0x20,0x20,0x20,0x20,
0x20,0x00,0xff,0x2f,0x00,
};
