#include <stdint.h>
const uint8_t midifile[] = {
0x4d,0x54,0x68,0x64,0x00,0x00,0x00,0x06,0x00,0x01,0x00,0x03,0x00,0x78,0x4d,0x54,
0x72,0x6b,0x00,0x00,0x00,0x2b,0x00,0xff,0x58,0x04,0x02,0x02,0x18,0x08,0x00,0xff,
0x03,0x0b,0x54,0x65,0x6d,0x70,0x6f,0x20,0x54,0x72,0x61,0x63,0x6b,0x02,0xff,0x51,
0x03,0x09,0xc4,0x00,0x00,0xff,0x51,0x03,0x09,0xc4,0x00,0x82,0x8f,0x6e,0xff,0x2f,
0x00,0x4d,0x54,0x72,0x6b,0x00,0x00,0x22,0xae,0x04,0xb0,0x0a,0x40,0x00,0x0a,0x40,
0x00,0x07,0x45,0x00,0x07,0x45,0x81,0x6b,0x90,0x44,0x52,0x1f,0x48,0x52,0x04,0x80,
0x44,0x52,0x11,0x90,0x50,0x00,0x09,0x4b,0x40,0x00,0x3f,0x3c,0x15,0x80,0x4b,0x40,
0x00,0x3f,0x3c,0x09,0x90,0x44,0x40,0x15,0x80,0x44,0x40,0x09,0x90,0x48,0x49,0x15,
0x80,0x48,0x49,0x09,0x90,0x4b,0x49,0x00,0x3f,0x49,0x33,0x80,0x4b,0x49,0x00,0x3f,
0x49,0x09,0x90,0x43,0x49,0x14,0x80,0x48,0x52,0x01,0x43,0x49,0x09,0x90,0x3f,0x49,
0x00,0x4b,0x40,0x15,0x80,0x3f,0x49,0x00,0x4b,0x40,0x09,0x90,0x43,0x5b,0x15,0x80,
0x43,0x5b,0x09,0x90,0x46,0x49,0x15,0x80,0x46,0x49,0x09,0x90,0x4b,0x40,0x00,0x3f,
0x52,0x81,0x0d,0x80,0x4b,0x40,0x00,0x3f,0x52,0x27,0x90,0x44,0x49,0x15,0x80,0x44,
0x49,0x09,0x90,0x4b,0x38,0x00,0x3f,0x40,0x15,0x80,0x4b,0x38,0x00,0x3f,0x40,0x09,
0x90,0x44,0x40,0x15,0x80,0x44,0x40,0x09,0x90,0x48,0x52,0x15,0x80,0x48,0x52,0x09,
0x90,0x4b,0x40,0x00,0x3f,0x40,0x33,0x80,0x4b,0x40,0x00,0x3f,0x40,0x09,0x90,0x43,
0x49,0x15,0x80,0x43,0x49,0x09,0x90,0x4b,0x40,0x00,0x3f,0x40,0x15,0x80,0x4b,0x40,
0x00,0x3f,0x40,0x09,0x90,0x43,0x49,0x15,0x80,0x43,0x49,0x09,0x90,0x46,0x40,0x15,
0x80,0x46,0x40,0x09,0x90,0x4b,0x40,0x00,0x3f,0x49,0x51,0x80,0x4b,0x40,0x00,0x3f,
0x49,0x27,0x90,0x4b,0x40,0x00,0x3f,0x40,0x15,0x80,0x4b,0x40,0x00,0x3f,0x40,0x27,
0x90,0x44,0x49,0x15,0x80,0x44,0x49,0x09,0x90,0x47,0x49,0x15,0x80,0x47,0x49,0x09,
0x90,0x4c,0x40,0x00,0x40,0x40,0x15,0x80,0x4c,0x40,0x00,0x40,0x40,0x27,0x90,0x4b,
0x40,0x00,0x3f,0x49,0x15,0x80,0x4b,0x40,0x00,0x3f,0x49,0x27,0x90,0x4b,0x40,0x00,
0x3f,0x52,0x15,0x80,0x4b,0x40,0x00,0x3f,0x52,0x27,0x90,0x44,0x52,0x15,0x80,0x44,
0x52,0x09,0x90,0x47,0x49,0x15,0x80,0x47,0x49,0x09,0x90,0x40,0x49,0x00,0x4c,0x49,
0x15,0x80,0x40,0x49,0x00,0x4c,0x49,0x27,0x90,0x4b,0x49,0x00,0x3f,0x52,0x15,0x80,
0x4b,0x49,0x00,0x3f,0x52,0x63,0x90,0x2c,0x40,0x15,0x80,0x2c,0x40,0x09,0x90,0x2f,
0x49,0x15,0x80,0x2f,0x49,0x09,0x90,0x38,0x40,0x15,0x80,0x38,0x40,0x27,0x90,0x38,
0x49,0x15,0x80,0x38,0x49,0x09,0x90,0x3b,0x40,0x15,0x80,0x3b,0x40,0x09,0x90,0x44,
0x40,0x15,0x80,0x44,0x40,0x27,0x90,0x44,0x52,0x15,0x80,0x44,0x52,0x09,0x90,0x47,
0x49,0x15,0x80,0x47,0x49,0x09,0x90,0x50,0x49,0x15,0x80,0x50,0x49,0x27,0x90,0x50,
0x5b,0x15,0x80,0x50,0x5b,0x09,0x90,0x53,0x52,0x15,0x80,0x53,0x52,0x09,0x90,0x5c,
0x49,0x15,0x80,0x5c,0x49,0x09,0x90,0x5c,0x49,0x00,0x50,0x52,0x33,0x80,0x5c,0x49,
0x00,0x50,0x52,0x09,0x90,0x5c,0x49,0x00,0x50,0x49,0x33,0x80,0x5c,0x49,0x00,0x50,
0x49,0x09,0x90,0x5c,0x49,0x00,0x50,0x49,0x33,0x80,0x5c,0x49,0x00,0x50,0x49,0x09,
0x90,0x5c,0x49,0x00,0x50,0x49,0x15,0x80,0x5c,0x49,0x00,0x50,0x49,0x09,0x90,0x5c,
0x52,0x00,0x50,0x52,0x33,0x80,0x5c,0x52,0x00,0x50,0x52,0x09,0x90,0x57,0x40,0x15,
0x80,0x57,0x40,0x09,0x90,0x59,0x40,0x15,0x80,0x59,0x40,0x09,0x90,0x54,0x49,0x15,
0x80,0x54,0x49,0x09,0x90,0x57,0x49,0x15,0x80,0x57,0x49,0x09,0x90,0x50,0x40,0x00,
0x59,0x52,0x33,0x80,0x50,0x40,0x00,0x59,0x52,0x09,0x90,0x4c,0x49,0x00,0x50,0x52,
0x33,0x80,0x4c,0x49,0x00,0x50,0x52,0x09,0x90,0x52,0x49,0x15,0x80,0x52,0x49,0x09,
0x90,0x4c,0x49,0x00,0x53,0x49,0x15,0x80,0x4c,0x49,0x00,0x53,0x49,0x09,0x90,0x50,
0x49,0x15,0x80,0x50,0x49,0x09,0x90,0x52,0x52,0x15,0x80,0x52,0x52,0x09,0x90,0x4b,
0x49,0x00,0x54,0x52,0x33,0x80,0x4b,0x49,0x00,0x54,0x52,0x09,0x90,0x50,0x52,0x15,
0x80,0x50,0x52,0x09,0x90,0x4b,0x40,0x00,0x54,0x49,0x15,0x80,0x4b,0x40,0x00,0x54,
0x49,0x09,0x90,0x50,0x49,0x15,0x80,0x50,0x49,0x09,0x90,0x4b,0x49,0x00,0x52,0x49,
0x33,0x80,0x4b,0x49,0x00,0x52,0x49,0x09,0x90,0x4b,0x40,0x00,0x50,0x5b,0x33,0x80,
0x4b,0x40,0x00,0x50,0x5b,0x27,0x90,0x50,0x49,0x00,0x44,0x49,0x51,0x80,0x50,0x49,
0x00,0x44,0x49,0x09,0x90,0x50,0x40,0x00,0x44,0x49,0x33,0x80,0x50,0x40,0x00,0x44,
0x49,0x09,0x90,0x44,0x49,0x00,0x50,0x52,0x33,0x80,0x44,0x49,0x00,0x50,0x52,0x09,
0x90,0x50,0x49,0x00,0x44,0x52,0x15,0x80,0x50,0x49,0x00,0x44,0x52,0x09,0x90,0x50,
0x49,0x00,0x44,0x49,0x33,0x80,0x50,0x49,0x00,0x44,0x49,0x09,0x90,0x4b,0x49,0x15,
0x80,0x4b,0x49,0x09,0x90,0x44,0x3c,0x00,0x4d,0x49,0x15,0x80,0x44,0x3c,0x00,0x4d,
0x49,0x09,0x90,0x48,0x49,0x15,0x80,0x48,0x49,0x09,0x90,0x4b,0x49,0x15,0x80,0x4b,
0x49,0x09,0x90,0x44,0x40,0x00,0x4d,0x49,0x33,0x80,0x44,0x40,0x00,0x4d,0x49,0x09,
0x90,0x40,0x49,0x00,0x44,0x49,0x33,0x80,0x40,0x49,0x00,0x44,0x49,0x09,0x90,0x46,
0x49,0x15,0x80,0x46,0x49,0x09,0x90,0x47,0x40,0x00,0x40,0x40,0x15,0x80,0x47,0x40,
0x00,0x40,0x40,0x09,0x90,0x44,0x49,0x15,0x80,0x44,0x49,0x09,0x90,0x46,0x49,0x15,
0x80,0x46,0x49,0x09,0x90,0x3f,0x3c,0x00,0x48,0x49,0x21,0x44,0x49,0x12,0x80,0x3f,
0x3c,0x00,0x48,0x49,0x03,0x44,0x49,0x06,0x90,0x46,0x5b,0x15,0x80,0x46,0x5b,0x09,
0x90,0x3f,0x3c,0x00,0x48,0x49,0x15,0x80,0x3f,0x3c,0x00,0x48,0x49,0x09,0x90,0x44,
0x49,0x15,0x80,0x44,0x49,0x09,0x90,0x3f,0x40,0x00,0x46,0x40,0x33,0x80,0x3f,0x40,
0x00,0x46,0x40,0x09,0x90,0x3f,0x49,0x00,0x44,0x5b,0x33,0x80,0x3f,0x49,0x00,0x44,
0x5b,0x63,0x90,0x44,0x52,0x15,0x80,0x44,0x52,0x09,0x90,0x4b,0x40,0x00,0x3f,0x3c,
0x15,0x80,0x4b,0x40,0x00,0x3f,0x3c,0x09,0x90,0x44,0x40,0x15,0x80,0x44,0x40,0x09,
0x90,0x48,0x49,0x15,0x80,0x48,0x49,0x09,0x90,0x4b,0x49,0x00,0x3f,0x49,0x33,0x80,
0x4b,0x49,0x00,0x3f,0x49,0x09,0x90,0x43,0x49,0x15,0x80,0x43,0x49,0x09,0x90,0x3f,
0x49,0x00,0x4b,0x40,0x15,0x80,0x3f,0x49,0x00,0x4b,0x40,0x09,0x90,0x43,0x5b,0x15,
0x80,0x43,0x5b,0x09,0x90,0x46,0x49,0x15,0x80,0x46,0x49,0x09,0x90,0x4b,0x40,0x00,
0x3f,0x52,0x81,0x0d,0x80,0x4b,0x40,0x00,0x3f,0x52,0x27,0x90,0x44,0x49,0x15,0x80,
0x44,0x49,0x09,0x90,0x4b,0x38,0x00,0x3f,0x40,0x15,0x80,0x4b,0x38,0x00,0x3f,0x40,
0x09,0x90,0x44,0x40,0x15,0x80,0x44,0x40,0x09,0x90,0x48,0x52,0x15,0x80,0x48,0x52,
0x09,0x90,0x4b,0x40,0x00,0x3f,0x40,0x33,0x80,0x4b,0x40,0x00,0x3f,0x40,0x09,0x90,
0x43,0x49,0x15,0x80,0x43,0x49,0x09,0x90,0x4b,0x40,0x00,0x3f,0x40,0x15,0x80,0x4b,
0x40,0x00,0x3f,0x40,0x09,0x90,0x43,0x49,0x15,0x80,0x43,0x49,0x09,0x90,0x46,0x40,
0x15,0x80,0x46,0x40,0x09,0x90,0x4b,0x40,0x00,0x3f,0x49,0x51,0x80,0x4b,0x40,0x00,
0x3f,0x49,0x27,0x90,0x4b,0x40,0x00,0x3f,0x40,0x15,0x80,0x4b,0x40,0x00,0x3f,0x40,
0x27,0x90,0x44,0x49,0x15,0x80,0x44,0x49,0x09,0x90,0x47,0x49,0x15,0x80,0x47,0x49,
0x09,0x90,0x4c,0x40,0x00,0x40,0x40,0x15,0x80,0x4c,0x40,0x00,0x40,0x40,0x27,0x90,
0x4b,0x40,0x00,0x3f,0x49,0x15,0x80,0x4b,0x40,0x00,0x3f,0x49,0x27,0x90,0x4b,0x40,
0x00,0x3f,0x52,0x15,0x80,0x4b,0x40,0x00,0x3f,0x52,0x27,0x90,0x44,0x52,0x15,0x80,
0x44,0x52,0x09,0x90,0x47,0x49,0x15,0x80,0x47,0x49,0x09,0x90,0x40,0x49,0x00,0x4c,
0x49,0x15,0x80,0x40,0x49,0x00,0x4c,0x49,0x27,0x90,0x4b,0x49,0x00,0x3f,0x52,0x15,
0x80,0x4b,0x49,0x00,0x3f,0x52,0x63,0x90,0x2c,0x40,0x15,0x80,0x2c,0x40,0x09,0x90,
0x2f,0x49,0x15,0x80,0x2f,0x49,0x09,0x90,0x38,0x40,0x15,0x80,0x38,0x40,0x27,0x90,
0x38,0x49,0x15,0x80,0x38,0x49,0x09,0x90,0x3b,0x40,0x15,0x80,0x3b,0x40,0x09,0x90,
0x44,0x40,0x15,0x80,0x44,0x40,0x27,0x90,0x44,0x52,0x15,0x80,0x44,0x52,0x09,0x90,
0x47,0x49,0x15,0x80,0x47,0x49,0x09,0x90,0x50,0x49,0x15,0x80,0x50,0x49,0x27,0x90,
0x50,0x5b,0x15,0x80,0x50,0x5b,0x09,0x90,0x53,0x52,0x15,0x80,0x53,0x52,0x09,0x90,
0x5c,0x49,0x15,0x80,0x5c,0x49,0x09,0x90,0x5c,0x49,0x00,0x50,0x52,0x33,0x80,0x5c,
0x49,0x00,0x50,0x52,0x09,0x90,0x5c,0x49,0x00,0x50,0x49,0x33,0x80,0x5c,0x49,0x00,
0x50,0x49,0x09,0x90,0x5c,0x49,0x00,0x50,0x49,0x33,0x80,0x5c,0x49,0x00,0x50,0x49,
0x09,0x90,0x5c,0x49,0x00,0x50,0x49,0x15,0x80,0x5c,0x49,0x00,0x50,0x49,0x09,0x90,
0x5c,0x52,0x00,0x50,0x52,0x33,0x80,0x5c,0x52,0x00,0x50,0x52,0x09,0x90,0x57,0x40,
0x15,0x80,0x57,0x40,0x09,0x90,0x59,0x40,0x15,0x80,0x59,0x40,0x09,0x90,0x54,0x49,
0x15,0x80,0x54,0x49,0x09,0x90,0x57,0x49,0x15,0x80,0x57,0x49,0x09,0x90,0x50,0x40,
0x00,0x59,0x52,0x33,0x80,0x50,0x40,0x00,0x59,0x52,0x09,0x90,0x4c,0x49,0x00,0x50,
0x52,0x33,0x80,0x4c,0x49,0x00,0x50,0x52,0x09,0x90,0x52,0x49,0x15,0x80,0x52,0x49,
0x09,0x90,0x4c,0x49,0x00,0x53,0x49,0x15,0x80,0x4c,0x49,0x00,0x53,0x49,0x09,0x90,
0x50,0x49,0x15,0x80,0x50,0x49,0x09,0x90,0x52,0x52,0x15,0x80,0x52,0x52,0x09,0x90,
0x4b,0x49,0x00,0x54,0x52,0x33,0x80,0x4b,0x49,0x00,0x54,0x52,0x09,0x90,0x50,0x52,
0x15,0x80,0x50,0x52,0x09,0x90,0x4b,0x40,0x00,0x54,0x49,0x15,0x80,0x4b,0x40,0x00,
0x54,0x49,0x09,0x90,0x50,0x49,0x15,0x80,0x50,0x49,0x09,0x90,0x4b,0x49,0x00,0x52,
0x49,0x33,0x80,0x4b,0x49,0x00,0x52,0x49,0x09,0x90,0x4b,0x40,0x00,0x50,0x5b,0x33,
0x80,0x4b,0x40,0x00,0x50,0x5b,0x27,0x90,0x50,0x49,0x00,0x44,0x49,0x51,0x80,0x50,
0x49,0x00,0x44,0x49,0x09,0x90,0x50,0x40,0x00,0x44,0x49,0x33,0x80,0x50,0x40,0x00,
0x44,0x49,0x09,0x90,0x44,0x49,0x00,0x50,0x52,0x33,0x80,0x44,0x49,0x00,0x50,0x52,
0x09,0x90,0x50,0x49,0x00,0x44,0x52,0x15,0x80,0x50,0x49,0x00,0x44,0x52,0x09,0x90,
0x50,0x49,0x00,0x44,0x49,0x33,0x80,0x50,0x49,0x00,0x44,0x49,0x09,0x90,0x4b,0x49,
0x15,0x80,0x4b,0x49,0x09,0x90,0x44,0x3c,0x00,0x4d,0x49,0x15,0x80,0x44,0x3c,0x00,
0x4d,0x49,0x09,0x90,0x48,0x49,0x15,0x80,0x48,0x49,0x09,0x90,0x4b,0x49,0x15,0x80,
0x4b,0x49,0x09,0x90,0x44,0x40,0x00,0x4d,0x49,0x33,0x80,0x44,0x40,0x00,0x4d,0x49,
0x09,0x90,0x40,0x49,0x00,0x44,0x49,0x33,0x80,0x40,0x49,0x00,0x44,0x49,0x09,0x90,
0x46,0x49,0x15,0x80,0x46,0x49,0x09,0x90,0x47,0x40,0x00,0x40,0x40,0x15,0x80,0x47,
0x40,0x00,0x40,0x40,0x09,0x90,0x44,0x49,0x15,0x80,0x44,0x49,0x09,0x90,0x46,0x49,
0x15,0x80,0x46,0x49,0x09,0x90,0x3f,0x3c,0x00,0x48,0x49,0x33,0x80,0x3f,0x3c,0x00,
0x48,0x49,0x09,0x90,0x44,0x5b,0x15,0x80,0x44,0x5b,0x09,0x90,0x3f,0x3c,0x00,0x48,
0x49,0x15,0x80,0x3f,0x3c,0x00,0x48,0x49,0x09,0x90,0x44,0x49,0x15,0x80,0x44,0x49,
0x09,0x90,0x3f,0x40,0x00,0x46,0x40,0x33,0x80,0x3f,0x40,0x00,0x46,0x40,0x09,0x90,
0x3f,0x49,0x00,0x44,0x5b,0x33,0x80,0x3f,0x49,0x00,0x44,0x5b,0x63,0x90,0x5b,0x40,
0x15,0x80,0x5b,0x40,0x09,0x90,0x57,0x38,0x00,0x63,0x40,0x15,0x80,0x57,0x38,0x00,
0x63,0x40,0x09,0x90,0x5b,0x49,0x15,0x80,0x5b,0x49,0x09,0x90,0x5e,0x40,0x15,0x80,
0x5e,0x40,0x09,0x90,0x62,0x49,0x00,0x56,0x3c,0x33,0x80,0x62,0x49,0x00,0x56,0x3c,
0x09,0x90,0x5b,0x49,0x15,0x80,0x5b,0x49,0x09,0x90,0x61,0x49,0x00,0x55,0x40,0x15,
0x80,0x61,0x49,0x00,0x55,0x40,0x09,0x90,0x5b,0x40,0x15,0x80,0x5b,0x40,0x09,0x90,
0x5e,0x3c,0x15,0x80,0x5e,0x3c,0x09,0x90,0x60,0x49,0x00,0x54,0x49,0x33,0x80,0x60,
0x49,0x00,0x54,0x49,0x09,0x90,0x57,0x40,0x15,0x80,0x57,0x40,0x09,0x90,0x5e,0x40,
0x00,0x52,0x3c,0x15,0x80,0x5e,0x40,0x00,0x52,0x3c,0x09,0x90,0x57,0x40,0x15,0x80,
0x57,0x40,0x27,0x90,0x54,0x49,0x15,0x80,0x54,0x49,0x09,0x90,0x5c,0x49,0x00,0x50,
0x3c,0x15,0x80,0x5c,0x49,0x00,0x50,0x3c,0x09,0x90,0x54,0x49,0x15,0x80,0x54,0x49,
0x09,0x90,0x57,0x40,0x15,0x80,0x57,0x40,0x09,0x90,0x4d,0x3c,0x00,0x59,0x49,0x33,
0x80,0x4d,0x3c,0x00,0x59,0x49,0x09,0x90,0x54,0x49,0x15,0x80,0x54,0x49,0x09,0x90,
0x5c,0x49,0x00,0x50,0x38,0x15,0x80,0x5c,0x49,0x00,0x50,0x38,0x09,0x90,0x54,0x49,
0x15,0x80,0x54,0x49,0x09,0x90,0x57,0x40,0x15,0x80,0x57,0x40,0x09,0x90,0x59,0x49,
0x00,0x4d,0x40,0x33,0x80,0x59,0x49,0x00,0x4d,0x40,0x09,0x90,0x54,0x49,0x15,0x80,
0x54,0x49,0x09,0x90,0x59,0x40,0x00,0x4d,0x34,0x33,0x80,0x59,0x40,0x00,0x4d,0x34,
0x27,0x90,0x57,0x52,0x15,0x80,0x57,0x52,0x09,0x90,0x4f,0x3c,0x00,0x5b,0x40,0x15,
0x80,0x4f,0x3c,0x00,0x5b,0x40,0x09,0x90,0x52,0x5b,0x15,0x80,0x52,0x5b,0x09,0x90,
0x55,0x40,0x15,0x80,0x55,0x40,0x09,0x90,0x59,0x49,0x00,0x4d,0x40,0x33,0x80,0x59,
0x49,0x00,0x4d,0x40,0x09,0x90,0x57,0x5b,0x15,0x80,0x57,0x5b,0x09,0x90,0x5b,0x49,
0x00,0x4f,0x40,0x15,0x80,0x5b,0x49,0x00,0x4f,0x40,0x09,0x90,0x52,0x52,0x15,0x80,
0x52,0x52,0x09,0x90,0x55,0x52,0x15,0x80,0x55,0x52,0x09,0x90,0x59,0x49,0x00,0x4d,
0x40,0x33,0x80,0x59,0x49,0x00,0x4d,0x40,0x09,0x90,0x55,0x49,0x15,0x80,0x55,0x49,
0x09,0x90,0x59,0x49,0x00,0x4d,0x40,0x33,0x80,0x59,0x49,0x00,0x4d,0x40,0x27,0x90,
0x54,0x52,0x15,0x80,0x54,0x52,0x09,0x90,0x5c,0x49,0x00,0x50,0x3c,0x15,0x80,0x5c,
0x49,0x00,0x50,0x3c,0x09,0x90,0x54,0x49,0x15,0x80,0x54,0x49,0x09,0x90,0x57,0x40,
0x15,0x80,0x57,0x40,0x09,0x90,0x59,0x40,0x00,0x4d,0x3c,0x33,0x80,0x59,0x40,0x00,
0x4d,0x3c,0x09,0x90,0x54,0x52,0x15,0x80,0x54,0x52,0x09,0x90,0x50,0x40,0x00,0x5c,
0x49,0x15,0x80,0x50,0x40,0x00,0x5c,0x49,0x09,0x90,0x54,0x52,0x15,0x80,0x54,0x52,
0x09,0x90,0x57,0x40,0x15,0x80,0x57,0x40,0x09,0x90,0x4d,0x3c,0x00,0x59,0x49,0x33,
0x80,0x4d,0x3c,0x00,0x59,0x49,0x09,0x90,0x54,0x49,0x15,0x80,0x54,0x49,0x09,0x90,
0x59,0x49,0x00,0x4d,0x52,0x33,0x80,0x59,0x49,0x00,0x4d,0x52,0x27,0x90,0x4f,0x52,
0x15,0x80,0x4f,0x52,0x09,0x90,0x4b,0x40,0x00,0x57,0x40,0x15,0x80,0x4b,0x40,0x00,
0x57,0x40,0x09,0x90,0x4f,0x49,0x15,0x80,0x4f,0x49,0x09,0x90,0x52,0x40,0x15,0x80,
0x52,0x40,0x09,0x90,0x56,0x52,0x00,0x4a,0x40,0x33,0x80,0x56,0x52,0x00,0x4a,0x40,
0x09,0x90,0x4f,0x49,0x15,0x80,0x4f,0x49,0x09,0x90,0x55,0x49,0x00,0x49,0x40,0x15,
0x80,0x55,0x49,0x00,0x49,0x40,0x09,0x90,0x4f,0x49,0x15,0x80,0x4f,0x49,0x09,0x90,
0x52,0x40,0x15,0x80,0x52,0x40,0x09,0x90,0x54,0x49,0x00,0x48,0x3c,0x33,0x80,0x54,
0x49,0x00,0x48,0x3c,0x09,0x90,0x4b,0x40,0x15,0x80,0x4b,0x40,0x09,0x90,0x52,0x49,
0x00,0x46,0x3c,0x15,0x80,0x52,0x49,0x00,0x46,0x3c,0x09,0x90,0x4b,0x40,0x15,0x80,
0x4b,0x40,0x27,0x90,0x48,0x49,0x15,0x80,0x48,0x49,0x09,0x90,0x44,0x3c,0x00,0x50,
0x49,0x15,0x80,0x44,0x3c,0x00,0x50,0x49,0x09,0x90,0x48,0x52,0x15,0x80,0x48,0x52,
0x09,0x90,0x4b,0x40,0x15,0x80,0x4b,0x40,0x09,0x90,0x4d,0x49,0x00,0x41,0x38,0x33,
0x80,0x4d,0x49,0x00,0x41,0x38,0x09,0x90,0x48,0x52,0x15,0x80,0x48,0x52,0x09,0x90,
0x50,0x40,0x00,0x44,0x40,0x33,0x80,0x50,0x40,0x00,0x44,0x40,0x09,0x90,0x44,0x40,
0x00,0x50,0x49,0x33,0x80,0x44,0x40,0x00,0x50,0x49,0x09,0x90,0x43,0x3c,0x00,0x4f,
0x49,0x33,0x80,0x43,0x3c,0x00,0x4f,0x49,0x09,0x90,0x42,0x40,0x00,0x4e,0x49,0x33,
0x80,0x42,0x40,0x00,0x4e,0x49,0x27,0x90,0x41,0x40,0x15,0x80,0x41,0x40,0x09,0x90,
0x45,0x49,0x15,0x80,0x45,0x49,0x09,0x90,0x48,0x40,0x15,0x80,0x48,0x40,0x09,0x90,
0x4d,0x49,0x15,0x80,0x4d,0x49,0x09,0x90,0x48,0x49,0x15,0x80,0x48,0x49,0x09,0x90,
0x45,0x49,0x15,0x80,0x45,0x49,0x09,0x90,0x41,0x3c,0x15,0x80,0x41,0x3c,0x27,0x90,
0x41,0x52,0x15,0x80,0x41,0x52,0x09,0x90,0x46,0x40,0x15,0x80,0x46,0x40,0x09,0x90,
0x49,0x49,0x15,0x80,0x49,0x49,0x09,0x90,0x4d,0x49,0x00,0x41,0x40,0x33,0x80,0x4d,
0x49,0x00,0x41,0x40,0x09,0x90,0x46,0x49,0x00,0x49,0x49,0x00,0x41,0x40,0x33,0x80,
0x46,0x49,0x00,0x49,0x49,0x00,0x41,0x40,0x09,0x90,0x41,0x49,0x00,0x44,0x38,0x00,
0x48,0x40,0x00,0x3e,0x3c,0x33,0x80,0x41,0x49,0x00,0x44,0x38,0x00,0x48,0x40,0x00,
0x3e,0x3c,0x27,0x90,0x44,0x40,0x00,0x48,0x49,0x00,0x41,0x49,0x00,0x3e,0x40,0x15,
0x80,0x44,0x40,0x00,0x48,0x49,0x00,0x41,0x49,0x00,0x3e,0x40,0x27,0x90,0x3d,0x40,
0x00,0x46,0x49,0x33,0x80,0x3d,0x40,0x00,0x46,0x49,0x09,0x90,0x3f,0x49,0x15,0x80,
0x3f,0x49,0x09,0x90,0x3c,0x49,0x00,0x44,0x40,0x33,0x80,0x3c,0x49,0x00,0x44,0x40,
0x09,0x90,0x4b,0x49,0x00,0x3f,0x5b,0x33,0x80,0x4b,0x49,0x00,0x3f,0x5b,0x09,0x90,
0x4b,0x49,0x00,0x3f,0x52,0x33,0x80,0x4b,0x49,0x00,0x3f,0x52,0x09,0x90,0x4b,0x49,
0x00,0x3f,0x52,0x33,0x80,0x4b,0x49,0x00,0x3f,0x52,0x27,0x90,0x5b,0x40,0x15,0x80,
0x5b,0x40,0x09,0x90,0x57,0x38,0x00,0x63,0x40,0x15,0x80,0x57,0x38,0x00,0x63,0x40,
0x09,0x90,0x5b,0x49,0x15,0x80,0x5b,0x49,0x09,0x90,0x5e,0x40,0x15,0x80,0x5e,0x40,
0x09,0x90,0x62,0x49,0x00,0x56,0x3c,0x33,0x80,0x62,0x49,0x00,0x56,0x3c,0x09,0x90,
0x5b,0x49,0x15,0x80,0x5b,0x49,0x09,0x90,0x61,0x49,0x00,0x55,0x40,0x15,0x80,0x61,
0x49,0x00,0x55,0x40,0x09,0x90,0x5b,0x40,0x15,0x80,0x5b,0x40,0x09,0x90,0x5e,0x3c,
0x15,0x80,0x5e,0x3c,0x09,0x90,0x60,0x49,0x00,0x54,0x49,0x33,0x80,0x60,0x49,0x00,
0x54,0x49,0x09,0x90,0x57,0x40,0x15,0x80,0x57,0x40,0x09,0x90,0x5e,0x40,0x00,0x52,
0x3c,0x15,0x80,0x5e,0x40,0x00,0x52,0x3c,0x09,0x90,0x57,0x40,0x15,0x80,0x57,0x40,
0x27,0x90,0x54,0x49,0x15,0x80,0x54,0x49,0x09,0x90,0x5c,0x49,0x00,0x50,0x3c,0x15,
0x80,0x5c,0x49,0x00,0x50,0x3c,0x09,0x90,0x54,0x49,0x15,0x80,0x54,0x49,0x09,0x90,
0x57,0x40,0x15,0x80,0x57,0x40,0x09,0x90,0x4d,0x3c,0x00,0x59,0x49,0x33,0x80,0x4d,
0x3c,0x00,0x59,0x49,0x09,0x90,0x54,0x49,0x15,0x80,0x54,0x49,0x09,0x90,0x5c,0x49,
0x00,0x50,0x38,0x15,0x80,0x5c,0x49,0x00,0x50,0x38,0x09,0x90,0x54,0x49,0x15,0x80,
0x54,0x49,0x09,0x90,0x57,0x40,0x15,0x80,0x57,0x40,0x09,0x90,0x59,0x49,0x00,0x4d,
0x40,0x33,0x80,0x59,0x49,0x00,0x4d,0x40,0x09,0x90,0x54,0x49,0x15,0x80,0x54,0x49,
0x09,0x90,0x59,0x40,0x00,0x4d,0x34,0x33,0x80,0x59,0x40,0x00,0x4d,0x34,0x27,0x90,
0x57,0x52,0x15,0x80,0x57,0x52,0x09,0x90,0x4f,0x3c,0x00,0x5b,0x40,0x15,0x80,0x4f,
0x3c,0x00,0x5b,0x40,0x09,0x90,0x52,0x5b,0x15,0x80,0x52,0x5b,0x09,0x90,0x55,0x40,
0x15,0x80,0x55,0x40,0x09,0x90,0x59,0x49,0x00,0x4d,0x40,0x33,0x80,0x59,0x49,0x00,
0x4d,0x40,0x09,0x90,0x57,0x5b,0x15,0x80,0x57,0x5b,0x09,0x90,0x5b,0x49,0x00,0x4f,
0x40,0x15,0x80,0x5b,0x49,0x00,0x4f,0x40,0x09,0x90,0x52,0x52,0x15,0x80,0x52,0x52,
0x09,0x90,0x55,0x52,0x15,0x80,0x55,0x52,0x09,0x90,0x59,0x49,0x00,0x4d,0x40,0x33,
0x80,0x59,0x49,0x00,0x4d,0x40,0x09,0x90,0x55,0x49,0x15,0x80,0x55,0x49,0x09,0x90,
0x59,0x49,0x00,0x4d,0x40,0x33,0x80,0x59,0x49,0x00,0x4d,0x40,0x27,0x90,0x54,0x52,
0x15,0x80,0x54,0x52,0x09,0x90,0x5c,0x49,0x00,0x50,0x3c,0x15,0x80,0x5c,0x49,0x00,
0x50,0x3c,0x09,0x90,0x54,0x49,0x15,0x80,0x54,0x49,0x09,0x90,0x57,0x40,0x15,0x80,
0x57,0x40,0x09,0x90,0x59,0x40,0x00,0x4d,0x3c,0x33,0x80,0x59,0x40,0x00,0x4d,0x3c,
0x09,0x90,0x54,0x52,0x15,0x80,0x54,0x52,0x09,0x90,0x50,0x40,0x00,0x5c,0x49,0x15,
0x80,0x50,0x40,0x00,0x5c,0x49,0x09,0x90,0x54,0x52,0x15,0x80,0x54,0x52,0x09,0x90,
0x57,0x40,0x15,0x80,0x57,0x40,0x09,0x90,0x4d,0x3c,0x00,0x59,0x49,0x33,0x80,0x4d,
0x3c,0x00,0x59,0x49,0x09,0x90,0x54,0x49,0x15,0x80,0x54,0x49,0x09,0x90,0x59,0x49,
0x00,0x4d,0x52,0x33,0x80,0x59,0x49,0x00,0x4d,0x52,0x27,0x90,0x4f,0x52,0x15,0x80,
0x4f,0x52,0x09,0x90,0x4b,0x40,0x00,0x57,0x40,0x15,0x80,0x4b,0x40,0x00,0x57,0x40,
0x09,0x90,0x4f,0x49,0x15,0x80,0x4f,0x49,0x09,0x90,0x52,0x40,0x15,0x80,0x52,0x40,
0x09,0x90,0x56,0x52,0x00,0x4a,0x40,0x33,0x80,0x56,0x52,0x00,0x4a,0x40,0x09,0x90,
0x4f,0x49,0x15,0x80,0x4f,0x49,0x09,0x90,0x55,0x49,0x00,0x49,0x40,0x15,0x80,0x55,
0x49,0x00,0x49,0x40,0x09,0x90,0x4f,0x49,0x15,0x80,0x4f,0x49,0x09,0x90,0x52,0x40,
0x15,0x80,0x52,0x40,0x09,0x90,0x54,0x49,0x00,0x48,0x3c,0x33,0x80,0x54,0x49,0x00,
0x48,0x3c,0x09,0x90,0x4b,0x40,0x15,0x80,0x4b,0x40,0x09,0x90,0x52,0x49,0x00,0x46,
0x3c,0x15,0x80,0x52,0x49,0x00,0x46,0x3c,0x09,0x90,0x4b,0x40,0x15,0x80,0x4b,0x40,
0x27,0x90,0x48,0x49,0x15,0x80,0x48,0x49,0x09,0x90,0x44,0x3c,0x00,0x50,0x49,0x15,
0x80,0x44,0x3c,0x00,0x50,0x49,0x09,0x90,0x48,0x52,0x15,0x80,0x48,0x52,0x09,0x90,
0x4b,0x40,0x15,0x80,0x4b,0x40,0x09,0x90,0x4d,0x49,0x00,0x41,0x38,0x33,0x80,0x4d,
0x49,0x00,0x41,0x38,0x09,0x90,0x48,0x52,0x15,0x80,0x48,0x52,0x09,0x90,0x50,0x40,
0x00,0x44,0x40,0x33,0x80,0x50,0x40,0x00,0x44,0x40,0x09,0x90,0x44,0x40,0x00,0x50,
0x49,0x33,0x80,0x44,0x40,0x00,0x50,0x49,0x09,0x90,0x43,0x3c,0x00,0x4f,0x49,0x33,
0x80,0x43,0x3c,0x00,0x4f,0x49,0x09,0x90,0x42,0x40,0x00,0x4e,0x49,0x33,0x80,0x42,
0x40,0x00,0x4e,0x49,0x27,0x90,0x41,0x40,0x15,0x80,0x41,0x40,0x09,0x90,0x45,0x49,
0x15,0x80,0x45,0x49,0x09,0x90,0x48,0x40,0x15,0x80,0x48,0x40,0x09,0x90,0x4d,0x49,
0x15,0x80,0x4d,0x49,0x09,0x90,0x48,0x49,0x15,0x80,0x48,0x49,0x09,0x90,0x45,0x49,
0x15,0x80,0x45,0x49,0x09,0x90,0x41,0x3c,0x15,0x80,0x41,0x3c,0x27,0x90,0x41,0x52,
0x15,0x80,0x41,0x52,0x09,0x90,0x46,0x40,0x15,0x80,0x46,0x40,0x09,0x90,0x49,0x49,
0x15,0x80,0x49,0x49,0x09,0x90,0x4d,0x49,0x00,0x41,0x40,0x33,0x80,0x4d,0x49,0x00,
0x41,0x40,0x09,0x90,0x46,0x49,0x00,0x49,0x49,0x00,0x41,0x40,0x33,0x80,0x46,0x49,
0x00,0x49,0x49,0x00,0x41,0x40,0x09,0x90,0x41,0x49,0x00,0x44,0x38,0x00,0x48,0x40,
0x00,0x3e,0x3c,0x33,0x80,0x41,0x49,0x00,0x44,0x38,0x00,0x48,0x40,0x00,0x3e,0x3c,
0x27,0x90,0x44,0x40,0x00,0x48,0x49,0x00,0x41,0x49,0x00,0x3e,0x40,0x15,0x80,0x44,
0x40,0x00,0x48,0x49,0x00,0x41,0x49,0x00,0x3e,0x40,0x27,0x90,0x3d,0x40,0x00,0x46,
0x49,0x33,0x80,0x3d,0x40,0x00,0x46,0x49,0x09,0x90,0x3f,0x49,0x15,0x80,0x3f,0x49,
0x27,0x90,0x44,0x52,0x15,0x80,0x44,0x52,0x09,0x90,0x48,0x49,0x15,0x80,0x48,0x49,
0x09,0x90,0x4b,0x40,0x15,0x80,0x4b,0x40,0x09,0x90,0x50,0x49,0x00,0x44,0x49,0x33,
0x80,0x50,0x49,0x00,0x44,0x49,0x63,0x90,0x44,0x52,0x15,0x80,0x44,0x52,0x09,0x90,
0x4b,0x40,0x00,0x3f,0x3c,0x15,0x80,0x4b,0x40,0x00,0x3f,0x3c,0x09,0x90,0x44,0x40,
0x15,0x80,0x44,0x40,0x09,0x90,0x48,0x49,0x15,0x80,0x48,0x49,0x09,0x90,0x4b,0x49,
0x00,0x3f,0x49,0x33,0x80,0x4b,0x49,0x00,0x3f,0x49,0x09,0x90,0x43,0x49,0x15,0x80,
0x43,0x49,0x09,0x90,0x3f,0x49,0x00,0x4b,0x40,0x15,0x80,0x3f,0x49,0x00,0x4b,0x40,
0x09,0x90,0x43,0x5b,0x15,0x80,0x43,0x5b,0x09,0x90,0x46,0x49,0x15,0x80,0x46,0x49,
0x09,0x90,0x4b,0x40,0x00,0x3f,0x52,0x81,0x0d,0x80,0x4b,0x40,0x00,0x3f,0x52,0x27,
0x90,0x44,0x49,0x15,0x80,0x44,0x49,0x09,0x90,0x4b,0x38,0x00,0x3f,0x40,0x15,0x80,
0x4b,0x38,0x00,0x3f,0x40,0x09,0x90,0x44,0x40,0x15,0x80,0x44,0x40,0x09,0x90,0x48,
0x52,0x15,0x80,0x48,0x52,0x09,0x90,0x4b,0x40,0x00,0x3f,0x40,0x33,0x80,0x4b,0x40,
0x00,0x3f,0x40,0x09,0x90,0x43,0x49,0x15,0x80,0x43,0x49,0x09,0x90,0x4b,0x40,0x00,
0x3f,0x40,0x15,0x80,0x4b,0x40,0x00,0x3f,0x40,0x09,0x90,0x43,0x49,0x15,0x80,0x43,
0x49,0x09,0x90,0x46,0x40,0x15,0x80,0x46,0x40,0x09,0x90,0x4b,0x40,0x00,0x3f,0x49,
0x51,0x80,0x4b,0x40,0x00,0x3f,0x49,0x27,0x90,0x4b,0x40,0x00,0x3f,0x40,0x15,0x80,
0x4b,0x40,0x00,0x3f,0x40,0x27,0x90,0x44,0x49,0x15,0x80,0x44,0x49,0x09,0x90,0x47,
0x49,0x15,0x80,0x47,0x49,0x09,0x90,0x4c,0x40,0x00,0x40,0x40,0x15,0x80,0x4c,0x40,
0x00,0x40,0x40,0x27,0x90,0x4b,0x40,0x00,0x3f,0x49,0x15,0x80,0x4b,0x40,0x00,0x3f,
0x49,0x27,0x90,0x4b,0x40,0x00,0x3f,0x52,0x15,0x80,0x4b,0x40,0x00,0x3f,0x52,0x27,
0x90,0x44,0x52,0x15,0x80,0x44,0x52,0x09,0x90,0x47,0x49,0x15,0x80,0x47,0x49,0x09,
0x90,0x40,0x49,0x00,0x4c,0x49,0x15,0x80,0x40,0x49,0x00,0x4c,0x49,0x27,0x90,0x4b,
0x49,0x00,0x3f,0x52,0x15,0x80,0x4b,0x49,0x00,0x3f,0x52,0x63,0x90,0x2c,0x40,0x15,
0x80,0x2c,0x40,0x09,0x90,0x2f,0x49,0x15,0x80,0x2f,0x49,0x09,0x90,0x38,0x40,0x15,
0x80,0x38,0x40,0x27,0x90,0x38,0x49,0x15,0x80,0x38,0x49,0x09,0x90,0x3b,0x40,0x15,
0x80,0x3b,0x40,0x09,0x90,0x44,0x40,0x15,0x80,0x44,0x40,0x27,0x90,0x44,0x52,0x15,
0x80,0x44,0x52,0x09,0x90,0x47,0x49,0x15,0x80,0x47,0x49,0x09,0x90,0x50,0x49,0x15,
0x80,0x50,0x49,0x27,0x90,0x50,0x5b,0x15,0x80,0x50,0x5b,0x09,0x90,0x53,0x52,0x15,
0x80,0x53,0x52,0x09,0x90,0x5c,0x49,0x15,0x80,0x5c,0x49,0x09,0x90,0x5c,0x49,0x00,
0x50,0x52,0x33,0x80,0x5c,0x49,0x00,0x50,0x52,0x09,0x90,0x5c,0x49,0x00,0x50,0x49,
0x33,0x80,0x5c,0x49,0x00,0x50,0x49,0x09,0x90,0x5c,0x49,0x00,0x50,0x49,0x33,0x80,
0x5c,0x49,0x00,0x50,0x49,0x09,0x90,0x5c,0x49,0x00,0x50,0x49,0x15,0x80,0x5c,0x49,
0x00,0x50,0x49,0x09,0x90,0x5c,0x52,0x00,0x50,0x52,0x33,0x80,0x5c,0x52,0x00,0x50,
0x52,0x09,0x90,0x57,0x40,0x15,0x80,0x57,0x40,0x09,0x90,0x59,0x40,0x15,0x80,0x59,
0x40,0x09,0x90,0x54,0x49,0x15,0x80,0x54,0x49,0x09,0x90,0x57,0x49,0x15,0x80,0x57,
0x49,0x09,0x90,0x50,0x40,0x00,0x59,0x52,0x33,0x80,0x50,0x40,0x00,0x59,0x52,0x09,
0x90,0x4c,0x49,0x00,0x50,0x52,0x33,0x80,0x4c,0x49,0x00,0x50,0x52,0x09,0x90,0x52,
0x49,0x15,0x80,0x52,0x49,0x09,0x90,0x4c,0x49,0x00,0x53,0x49,0x15,0x80,0x4c,0x49,
0x00,0x53,0x49,0x09,0x90,0x50,0x49,0x15,0x80,0x50,0x49,0x09,0x90,0x52,0x52,0x15,
0x80,0x52,0x52,0x09,0x90,0x4b,0x49,0x00,0x54,0x52,0x33,0x80,0x4b,0x49,0x00,0x54,
0x52,0x09,0x90,0x50,0x52,0x15,0x80,0x50,0x52,0x09,0x90,0x4b,0x40,0x00,0x54,0x49,
0x15,0x80,0x4b,0x40,0x00,0x54,0x49,0x09,0x90,0x50,0x49,0x15,0x80,0x50,0x49,0x09,
0x90,0x4b,0x49,0x00,0x52,0x49,0x33,0x80,0x4b,0x49,0x00,0x52,0x49,0x09,0x90,0x4b,
0x40,0x00,0x50,0x5b,0x33,0x80,0x4b,0x40,0x00,0x50,0x5b,0x27,0x90,0x50,0x49,0x00,
0x44,0x49,0x51,0x80,0x50,0x49,0x00,0x44,0x49,0x09,0x90,0x50,0x40,0x00,0x44,0x49,
0x33,0x80,0x50,0x40,0x00,0x44,0x49,0x09,0x90,0x44,0x49,0x00,0x50,0x52,0x33,0x80,
0x44,0x49,0x00,0x50,0x52,0x09,0x90,0x50,0x49,0x00,0x44,0x52,0x15,0x80,0x50,0x49,
0x00,0x44,0x52,0x09,0x90,0x50,0x49,0x00,0x44,0x49,0x33,0x80,0x50,0x49,0x00,0x44,
0x49,0x09,0x90,0x4b,0x49,0x15,0x80,0x4b,0x49,0x09,0x90,0x44,0x3c,0x00,0x4d,0x49,
0x15,0x80,0x44,0x3c,0x00,0x4d,0x49,0x09,0x90,0x48,0x49,0x15,0x80,0x48,0x49,0x09,
0x90,0x4b,0x49,0x15,0x80,0x4b,0x49,0x09,0x90,0x44,0x40,0x00,0x4d,0x49,0x33,0x80,
0x44,0x40,0x00,0x4d,0x49,0x09,0x90,0x40,0x49,0x00,0x44,0x49,0x33,0x80,0x40,0x49,
0x00,0x44,0x49,0x09,0x90,0x46,0x49,0x15,0x80,0x46,0x49,0x09,0x90,0x47,0x40,0x00,
0x40,0x40,0x15,0x80,0x47,0x40,0x00,0x40,0x40,0x09,0x90,0x44,0x49,0x15,0x80,0x44,
0x49,0x09,0x90,0x46,0x49,0x15,0x80,0x46,0x49,0x09,0x90,0x3f,0x3c,0x00,0x48,0x49,
0x33,0x80,0x3f,0x3c,0x00,0x48,0x49,0x09,0x90,0x44,0x5b,0x15,0x80,0x44,0x5b,0x09,
0x90,0x3f,0x3c,0x00,0x48,0x49,0x15,0x80,0x3f,0x3c,0x00,0x48,0x49,0x09,0x90,0x44,
0x49,0x15,0x80,0x44,0x49,0x09,0x90,0x3f,0x40,0x00,0x46,0x40,0x33,0x80,0x3f,0x40,
0x00,0x46,0x40,0x09,0x90,0x3f,0x49,0x00,0x44,0x5b,0x33,0x80,0x3f,0x49,0x00,0x44,
0x5b,0x09,0x90,0x50,0x49,0x00,0x44,0x40,0x33,0x80,0x50,0x49,0x00,0x44,0x40,0x09,
0x90,0x50,0x40,0x00,0x4b,0x3c,0x00,0x48,0x49,0x00,0x44,0x38,0x51,0x80,0x50,0x40,
0x00,0x4b,0x3c,0x00,0x48,0x49,0x00,0x44,0x38,0x09,0x90,0x50,0x40,0x00,0x48,0x40,
0x00,0x4b,0x38,0x00,0x46,0x34,0x33,0x80,0x50,0x40,0x00,0x48,0x40,0x00,0x4b,0x38,
0x00,0x46,0x34,0x09,0x90,0x4b,0x40,0x00,0x48,0x49,0x15,0x80,0x4b,0x40,0x00,0x48,
0x49,0x09,0x90,0x46,0x40,0x33,0x80,0x46,0x40,0x09,0x90,0x50,0x49,0x00,0x44,0x3c,
0x00,0x48,0x49,0x00,0x4b,0x38,0x51,0x80,0x50,0x49,0x00,0x44,0x3c,0x00,0x48,0x49,
0x00,0x4b,0x38,0x09,0x90,0x50,0x40,0x00,0x46,0x40,0x00,0x4b,0x3c,0x00,0x48,0x52,
0x33,0x80,0x50,0x40,0x00,0x46,0x40,0x00,0x4b,0x3c,0x00,0x48,0x52,0x09,0x90,0x4b,
0x40,0x00,0x48,0x49,0x15,0x80,0x4b,0x40,0x00,0x48,0x49,0x09,0x90,0x46,0x40,0x15,
0x80,0x46,0x40,0x09,0x90,0x4b,0x40,0x00,0x48,0x49,0x15,0x80,0x4b,0x40,0x00,0x48,
0x49,0x09,0x90,0x44,0x40,0x15,0x80,0x44,0x40,0x09,0x90,0x49,0x40,0x15,0x80,0x49,
0x40,0x09,0x90,0x46,0x40,0x15,0x80,0x46,0x40,0x09,0x90,0x49,0x40,0x15,0x80,0x49,
0x40,0x09,0x90,0x4d,0x40,0x15,0x80,0x4d,0x40,0x09,0x90,0x44,0x3c,0x15,0x80,0x44,
0x3c,0x09,0x90,0x49,0x49,0x15,0x80,0x49,0x49,0x09,0x90,0x4d,0x40,0x15,0x80,0x4d,
0x40,0x09,0x90,0x46,0x49,0x15,0x80,0x46,0x49,0x09,0x90,0x49,0x40,0x15,0x80,0x49,
0x40,0x09,0x90,0x4d,0x40,0x15,0x80,0x4d,0x40,0x09,0x90,0x44,0x49,0x33,0x80,0x44,
0x49,0x09,0x90,0x4d,0x49,0x15,0x80,0x4d,0x49,0x09,0x90,0x46,0x49,0x15,0x80,0x46,
0x49,0x09,0x90,0x4d,0x49,0x15,0x80,0x4d,0x49,0x09,0x90,0x50,0x40,0x00,0x44,0x40,
0x00,0x48,0x49,0x00,0x4b,0x3c,0x51,0x80,0x50,0x40,0x00,0x44,0x40,0x00,0x48,0x49,
0x00,0x4b,0x3c,0x09,0x90,0x50,0x40,0x00,0x48,0x49,0x00,0x46,0x3c,0x00,0x4b,0x3c,
0x33,0x80,0x50,0x40,0x00,0x48,0x49,0x00,0x46,0x3c,0x00,0x4b,0x3c,0x09,0x90,0x4b,
0x49,0x00,0x48,0x52,0x15,0x80,0x4b,0x49,0x00,0x48,0x52,0x09,0x90,0x46,0x40,0x33,
0x80,0x46,0x40,0x09,0x90,0x50,0x49,0x00,0x4b,0x40,0x00,0x44,0x49,0x00,0x48,0x52,
0x51,0x80,0x50,0x49,0x00,0x4b,0x40,0x00,0x44,0x49,0x00,0x48,0x52,0x09,0x90,0x50,
0x49,0x00,0x46,0x49,0x00,0x4b,0x40,0x00,0x48,0x52,0x33,0x80,0x50,0x49,0x00,0x46,
0x49,0x00,0x4b,0x40,0x00,0x48,0x52,0x09,0x90,0x4b,0x40,0x00,0x48,0x49,0x15,0x80,
0x4b,0x40,0x00,0x48,0x49,0x09,0x90,0x46,0x49,0x15,0x80,0x46,0x49,0x09,0x90,0x4b,
0x40,0x00,0x48,0x49,0x15,0x80,0x4b,0x40,0x00,0x48,0x49,0x09,0x90,0x44,0x40,0x15,
0x80,0x44,0x40,0x09,0x90,0x49,0x49,0x15,0x80,0x49,0x49,0x09,0x90,0x46,0x40,0x15,
0x80,0x46,0x40,0x09,0x90,0x49,0x40,0x15,0x80,0x49,0x40,0x09,0x90,0x4d,0x40,0x15,
0x80,0x4d,0x40,0x09,0x90,0x44,0x40,0x15,0x80,0x44,0x40,0x09,0x90,0x49,0x3c,0x15,
0x80,0x49,0x3c,0x09,0x90,0x4d,0x40,0x15,0x80,0x4d,0x40,0x09,0x90,0x46,0x52,0x15,
0x80,0x46,0x52,0x09,0x90,0x49,0x40,0x15,0x80,0x49,0x40,0x09,0x90,0x4d,0x40,0x15,
0x80,0x4d,0x40,0x09,0x90,0x44,0x49,0x33,0x80,0x44,0x49,0x09,0x90,0x4d,0x49,0x15,
0x80,0x4d,0x49,0x09,0x90,0x45,0x49,0x15,0x80,0x45,0x49,0x09,0x90,0x4b,0x40,0x00,
0x4d,0x49,0x15,0x80,0x4b,0x40,0x00,0x4d,0x49,0x09,0x90,0x52,0x40,0x00,0x46,0x3c,
0x00,0x4a,0x52,0x00,0x4d,0x49,0x51,0x80,0x52,0x40,0x00,0x46,0x3c,0x00,0x4a,0x52,
0x00,0x4d,0x49,0x09,0x90,0x52,0x49,0x00,0x4a,0x52,0x00,0x48,0x49,0x00,0x4d,0x52,
0x33,0x80,0x52,0x49,0x00,0x4a,0x52,0x00,0x48,0x49,0x00,0x4d,0x52,0x09,0x90,0x4d,
0x49,0x00,0x4a,0x49,0x15,0x80,0x4d,0x49,0x00,0x4a,0x49,0x09,0x90,0x48,0x49,0x33,
0x80,0x48,0x49,0x09,0x90,0x52,0x49,0x00,0x46,0x40,0x00,0x4d,0x52,0x00,0x4a,0x5b,
0x51,0x80,0x52,0x49,0x00,0x46,0x40,0x00,0x4d,0x52,0x00,0x4a,0x5b,0x09,0x90,0x48,
0x49,0x00,0x4a,0x49,0x00,0x4d,0x49,0x00,0x52,0x3c,0x33,0x80,0x48,0x49,0x00,0x4a,
0x49,0x00,0x4d,0x49,0x00,0x52,0x3c,0x09,0x90,0x4a,0x49,0x00,0x4d,0x52,0x15,0x80,
0x4a,0x49,0x00,0x4d,0x52,0x09,0x90,0x48,0x40,0x15,0x80,0x48,0x40,0x09,0x90,0x4a,
0x49,0x00,0x4d,0x49,0x15,0x80,0x4a,0x49,0x00,0x4d,0x49,0x27,0x90,0x4b,0x5b,0x15,
0x80,0x4b,0x5b,0x09,0x90,0x46,0x49,0x00,0x52,0x40,0x15,0x80,0x46,0x49,0x00,0x52,
0x40,0x09,0x90,0x4b,0x49,0x15,0x80,0x4b,0x49,0x09,0x90,0x4e,0x52,0x15,0x80,0x4e,
0x52,0x09,0x90,0x54,0x52,0x00,0x48,0x49,0x33,0x80,0x54,0x52,0x00,0x48,0x49,0x09,
0x90,0x4b,0x49,0x15,0x80,0x4b,0x49,0x09,0x90,0x46,0x49,0x00,0x52,0x40,0x15,0x80,
0x46,0x49,0x00,0x52,0x40,0x09,0x90,0x4b,0x40,0x15,0x80,0x4b,0x40,0x09,0x90,0x4e,
0x52,0x15,0x80,0x4e,0x52,0x09,0x90,0x48,0x40,0x00,0x54,0x49,0x33,0x80,0x48,0x40,
0x00,0x54,0x49,0x09,0x90,0x4b,0x40,0x15,0x80,0x4b,0x40,0x09,0x90,0x52,0x49,0x00,
0x46,0x49,0x33,0x80,0x52,0x49,0x00,0x46,0x49,0x09,0x90,0x55,0x5b,0x00,0x49,0x5b,
0x00,0x4f,0x52,0x33,0x80,0x55,0x5b,0x00,0x49,0x5b,0x00,0x4f,0x52,0x09,0x90,0x55,
0x49,0x00,0x49,0x49,0x00,0x4f,0x5b,0x33,0x80,0x55,0x49,0x00,0x49,0x49,0x00,0x4f,
0x5b,0x09,0x90,0x54,0x49,0x00,0x48,0x40,0x00,0x4f,0x49,0x33,0x80,0x54,0x49,0x00,
0x48,0x40,0x00,0x4f,0x49,0x09,0x90,0x52,0x49,0x00,0x46,0x52,0x00,0x4f,0x52,0x33,
0x80,0x52,0x49,0x00,0x46,0x52,0x00,0x4f,0x52,0x09,0x90,0x4d,0x49,0x00,0x44,0x3c,
0x15,0x80,0x4d,0x49,0x00,0x44,0x3c,0x09,0x90,0x49,0x49,0x15,0x80,0x49,0x49,0x09,
0x90,0x4b,0x3c,0x15,0x80,0x4b,0x3c,0x09,0x90,0x46,0x49,0x00,0x4e,0x40,0x33,0x80,
0x46,0x49,0x00,0x4e,0x40,0x09,0x90,0x46,0x40,0x15,0x80,0x46,0x40,0x09,0x90,0x4d,
0x49,0x00,0x44,0x3c,0x33,0x80,0x4d,0x49,0x00,0x44,0x3c,0x09,0x90,0x4d,0x49,0x00,
0x43,0x49,0x15,0x80,0x4d,0x49,0x00,0x43,0x49,0x09,0x90,0x49,0x40,0x15,0x80,0x49,
0x40,0x09,0x90,0x4b,0x3c,0x15,0x80,0x4b,0x3c,0x09,0x90,0x42,0x3c,0x00,0x4d,0x49,
0x33,0x80,0x42,0x3c,0x00,0x4d,0x49,0x09,0x90,0x48,0x49,0x15,0x80,0x48,0x49,0x09,
0x90,0x4b,0x40,0x00,0x42,0x3c,0x15,0x80,0x4b,0x40,0x00,0x42,0x3c,0x09,0x90,0x49,
0x40,0x00,0x41,0x49,0x33,0x80,0x49,0x40,0x00,0x41,0x49,0x09,0x90,0x44,0x40,0x00,
0x50,0x49,0x33,0x80,0x44,0x40,0x00,0x50,0x49,0x09,0x90,0x4d,0x52,0x15,0x80,0x4d,
0x52,0x09,0x90,0x50,0x49,0x00,0x44,0x40,0x15,0x80,0x50,0x49,0x00,0x44,0x40,0x09,
0x90,0x4d,0x49,0x15,0x80,0x4d,0x49,0x09,0x90,0x50,0x40,0x00,0x44,0x49,0x15,0x80,
0x50,0x40,0x00,0x44,0x49,0x09,0x90,0x4d,0x49,0x15,0x80,0x4d,0x49,0x09,0x90,0x50,
0x40,0x00,0x4b,0x3c,0x00,0x48,0x49,0x00,0x44,0x38,0x51,0x80,0x50,0x40,0x00,0x4b,
0x3c,0x00,0x48,0x49,0x00,0x44,0x38,0x09,0x90,0x50,0x40,0x00,0x48,0x40,0x00,0x4b,
0x38,0x00,0x46,0x34,0x33,0x80,0x50,0x40,0x00,0x48,0x40,0x00,0x4b,0x38,0x00,0x46,
0x34,0x09,0x90,0x4b,0x40,0x00,0x48,0x49,0x15,0x80,0x4b,0x40,0x00,0x48,0x49,0x09,
0x90,0x46,0x40,0x33,0x80,0x46,0x40,0x09,0x90,0x50,0x49,0x00,0x44,0x3c,0x00,0x48,
0x49,0x00,0x4b,0x38,0x51,0x80,0x50,0x49,0x00,0x44,0x3c,0x00,0x48,0x49,0x00,0x4b,
0x38,0x09,0x90,0x50,0x40,0x00,0x46,0x40,0x00,0x4b,0x3c,0x00,0x48,0x52,0x33,0x80,
0x50,0x40,0x00,0x46,0x40,0x00,0x4b,0x3c,0x00,0x48,0x52,0x09,0x90,0x4b,0x40,0x00,
0x48,0x49,0x15,0x80,0x4b,0x40,0x00,0x48,0x49,0x09,0x90,0x46,0x40,0x15,0x80,0x46,
0x40,0x09,0x90,0x4b,0x40,0x00,0x48,0x49,0x15,0x80,0x4b,0x40,0x00,0x48,0x49,0x09,
0x90,0x44,0x40,0x15,0x80,0x44,0x40,0x09,0x90,0x49,0x40,0x15,0x80,0x49,0x40,0x09,
0x90,0x46,0x40,0x15,0x80,0x46,0x40,0x09,0x90,0x49,0x40,0x15,0x80,0x49,0x40,0x09,
0x90,0x4d,0x40,0x15,0x80,0x4d,0x40,0x09,0x90,0x44,0x3c,0x15,0x80,0x44,0x3c,0x09,
0x90,0x49,0x49,0x15,0x80,0x49,0x49,0x09,0x90,0x4d,0x40,0x15,0x80,0x4d,0x40,0x09,
0x90,0x46,0x49,0x15,0x80,0x46,0x49,0x09,0x90,0x49,0x40,0x15,0x80,0x49,0x40,0x09,
0x90,0x4d,0x40,0x15,0x80,0x4d,0x40,0x09,0x90,0x44,0x49,0x33,0x80,0x44,0x49,0x09,
0x90,0x4d,0x49,0x15,0x80,0x4d,0x49,0x09,0x90,0x46,0x49,0x15,0x80,0x46,0x49,0x09,
0x90,0x4d,0x49,0x15,0x80,0x4d,0x49,0x09,0x90,0x50,0x40,0x00,0x44,0x40,0x00,0x48,
0x49,0x00,0x4b,0x3c,0x51,0x80,0x50,0x40,0x00,0x44,0x40,0x00,0x48,0x49,0x00,0x4b,
0x3c,0x09,0x90,0x50,0x40,0x00,0x48,0x49,0x00,0x46,0x3c,0x00,0x4b,0x3c,0x33,0x80,
0x50,0x40,0x00,0x48,0x49,0x00,0x46,0x3c,0x00,0x4b,0x3c,0x09,0x90,0x4b,0x49,0x00,
0x48,0x52,0x15,0x80,0x4b,0x49,0x00,0x48,0x52,0x09,0x90,0x46,0x40,0x33,0x80,0x46,
0x40,0x09,0x90,0x50,0x49,0x00,0x4b,0x40,0x00,0x44,0x49,0x00,0x48,0x52,0x51,0x80,
0x50,0x49,0x00,0x4b,0x40,0x00,0x44,0x49,0x00,0x48,0x52,0x09,0x90,0x50,0x49,0x00,
0x46,0x49,0x00,0x4b,0x40,0x00,0x48,0x52,0x33,0x80,0x50,0x49,0x00,0x46,0x49,0x00,
0x4b,0x40,0x00,0x48,0x52,0x09,0x90,0x4b,0x40,0x00,0x48,0x49,0x15,0x80,0x4b,0x40,
0x00,0x48,0x49,0x09,0x90,0x46,0x49,0x15,0x80,0x46,0x49,0x09,0x90,0x4b,0x40,0x00,
0x48,0x49,0x15,0x80,0x4b,0x40,0x00,0x48,0x49,0x09,0x90,0x44,0x40,0x15,0x80,0x44,
0x40,0x09,0x90,0x49,0x49,0x15,0x80,0x49,0x49,0x09,0x90,0x46,0x40,0x15,0x80,0x46,
0x40,0x09,0x90,0x49,0x40,0x15,0x80,0x49,0x40,0x09,0x90,0x4d,0x40,0x15,0x80,0x4d,
0x40,0x09,0x90,0x44,0x40,0x15,0x80,0x44,0x40,0x09,0x90,0x49,0x3c,0x15,0x80,0x49,
0x3c,0x09,0x90,0x4d,0x40,0x15,0x80,0x4d,0x40,0x09,0x90,0x46,0x52,0x15,0x80,0x46,
0x52,0x09,0x90,0x49,0x40,0x15,0x80,0x49,0x40,0x09,0x90,0x4d,0x40,0x15,0x80,0x4d,
0x40,0x09,0x90,0x44,0x49,0x33,0x80,0x44,0x49,0x09,0x90,0x4d,0x49,0x15,0x80,0x4d,
0x49,0x09,0x90,0x45,0x49,0x15,0x80,0x45,0x49,0x09,0x90,0x4b,0x40,0x00,0x4d,0x49,
0x15,0x80,0x4b,0x40,0x00,0x4d,0x49,0x09,0x90,0x52,0x40,0x00,0x46,0x3c,0x00,0x4a,
0x52,0x00,0x4d,0x49,0x51,0x80,0x52,0x40,0x00,0x46,0x3c,0x00,0x4a,0x52,0x00,0x4d,
0x49,0x09,0x90,0x52,0x49,0x00,0x4a,0x52,0x00,0x48,0x49,0x00,0x4d,0x52,0x33,0x80,
0x52,0x49,0x00,0x4a,0x52,0x00,0x48,0x49,0x00,0x4d,0x52,0x09,0x90,0x4d,0x49,0x00,
0x4a,0x49,0x15,0x80,0x4d,0x49,0x00,0x4a,0x49,0x09,0x90,0x48,0x49,0x33,0x80,0x48,
0x49,0x09,0x90,0x52,0x49,0x00,0x46,0x40,0x00,0x4d,0x52,0x00,0x4a,0x5b,0x51,0x80,
0x52,0x49,0x00,0x46,0x40,0x00,0x4d,0x52,0x00,0x4a,0x5b,0x09,0x90,0x48,0x49,0x00,
0x4a,0x49,0x00,0x4d,0x49,0x00,0x52,0x3c,0x33,0x80,0x48,0x49,0x00,0x4a,0x49,0x00,
0x4d,0x49,0x00,0x52,0x3c,0x09,0x90,0x4a,0x49,0x00,0x4d,0x52,0x15,0x80,0x4a,0x49,
0x00,0x4d,0x52,0x09,0x90,0x48,0x40,0x15,0x80,0x48,0x40,0x09,0x90,0x4a,0x49,0x00,
0x4d,0x49,0x15,0x80,0x4a,0x49,0x00,0x4d,0x49,0x27,0x90,0x4b,0x5b,0x15,0x80,0x4b,
0x5b,0x09,0x90,0x46,0x49,0x00,0x52,0x40,0x15,0x80,0x46,0x49,0x00,0x52,0x40,0x09,
0x90,0x4b,0x49,0x15,0x80,0x4b,0x49,0x09,0x90,0x4e,0x52,0x15,0x80,0x4e,0x52,0x09,
0x90,0x54,0x52,0x00,0x48,0x49,0x33,0x80,0x54,0x52,0x00,0x48,0x49,0x09,0x90,0x4b,
0x49,0x15,0x80,0x4b,0x49,0x09,0x90,0x46,0x49,0x00,0x52,0x40,0x15,0x80,0x46,0x49,
0x00,0x52,0x40,0x09,0x90,0x4b,0x40,0x15,0x80,0x4b,0x40,0x09,0x90,0x4e,0x52,0x15,
0x80,0x4e,0x52,0x09,0x90,0x48,0x40,0x00,0x54,0x49,0x33,0x80,0x48,0x40,0x00,0x54,
0x49,0x09,0x90,0x4b,0x40,0x15,0x80,0x4b,0x40,0x09,0x90,0x52,0x49,0x00,0x46,0x49,
0x33,0x80,0x52,0x49,0x00,0x46,0x49,0x09,0x90,0x55,0x5b,0x00,0x49,0x5b,0x00,0x4f,
0x52,0x33,0x80,0x55,0x5b,0x00,0x49,0x5b,0x00,0x4f,0x52,0x09,0x90,0x55,0x49,0x00,
0x49,0x49,0x00,0x4f,0x5b,0x33,0x80,0x55,0x49,0x00,0x49,0x49,0x00,0x4f,0x5b,0x09,
0x90,0x54,0x49,0x00,0x48,0x40,0x00,0x4f,0x49,0x33,0x80,0x54,0x49,0x00,0x48,0x40,
0x00,0x4f,0x49,0x09,0x90,0x52,0x49,0x00,0x46,0x52,0x00,0x4f,0x52,0x33,0x80,0x52,
0x49,0x00,0x46,0x52,0x00,0x4f,0x52,0x09,0x90,0x4d,0x49,0x00,0x44,0x3c,0x15,0x80,
0x4d,0x49,0x00,0x44,0x3c,0x09,0x90,0x49,0x49,0x15,0x80,0x49,0x49,0x09,0x90,0x4b,
0x3c,0x15,0x80,0x4b,0x3c,0x09,0x90,0x46,0x49,0x00,0x4e,0x40,0x33,0x80,0x46,0x49,
0x00,0x4e,0x40,0x09,0x90,0x46,0x40,0x15,0x80,0x46,0x40,0x09,0x90,0x4d,0x49,0x00,
0x44,0x3c,0x33,0x80,0x4d,0x49,0x00,0x44,0x3c,0x09,0x90,0x4d,0x49,0x00,0x43,0x49,
0x15,0x80,0x4d,0x49,0x00,0x43,0x49,0x09,0x90,0x49,0x40,0x15,0x80,0x49,0x40,0x09,
0x90,0x4b,0x3c,0x15,0x80,0x4b,0x3c,0x09,0x90,0x42,0x3c,0x00,0x4d,0x49,0x33,0x80,
0x42,0x3c,0x00,0x4d,0x49,0x09,0x90,0x48,0x49,0x15,0x80,0x48,0x49,0x09,0x90,0x4b,
0x40,0x00,0x42,0x3c,0x15,0x80,0x4b,0x40,0x00,0x42,0x3c,0x09,0x90,0x49,0x40,0x00,
0x41,0x49,0x33,0x80,0x49,0x40,0x00,0x41,0x49,0x09,0x90,0x49,0x40,0x15,0x80,0x49,
0x40,0x09,0x90,0x4d,0x52,0x15,0x80,0x4d,0x52,0x09,0x90,0x50,0x49,0x15,0x80,0x50,
0x49,0x09,0x90,0x49,0x64,0x00,0x55,0x64,0x33,0x80,0x49,0x64,0x00,0x55,0x64,0x45,
0x90,0x50,0x49,0x00,0x44,0x40,0x33,0x80,0x50,0x49,0x00,0x44,0x40,0x09,0x90,0x44,
0x38,0x00,0x4d,0x49,0x33,0x80,0x44,0x38,0x00,0x4d,0x49,0x09,0x90,0x50,0x40,0x00,
0x44,0x40,0x33,0x80,0x50,0x40,0x00,0x44,0x40,0x09,0x90,0x44,0x3c,0x00,0x4d,0x49,
0x33,0x80,0x44,0x3c,0x00,0x4d,0x49,0x09,0x90,0x4d,0x40,0x00,0x50,0x40,0x33,0x80,
0x4d,0x40,0x00,0x50,0x40,0x09,0x90,0x52,0x40,0x00,0x4d,0x38,0x15,0x80,0x52,0x40,
0x00,0x4d,0x38,0x09,0x90,0x54,0x49,0x00,0x4d,0x40,0x33,0x80,0x54,0x49,0x00,0x4d,
0x40,0x09,0x90,0x52,0x49,0x15,0x80,0x52,0x49,0x09,0x90,0x50,0x3c,0x15,0x80,0x50,
0x3c,0x09,0x90,0x4d,0x40,0x15,0x80,0x4d,0x40,0x09,0x90,0x4b,0x5b,0x15,0x80,0x4b,
0x5b,0x09,0x90,0x4d,0x49,0x33,0x80,0x4d,0x49,0x09,0x90,0x44,0x3c,0x00,0x48,0x52,
0x81,0x0d,0x80,0x44,0x3c,0x00,0x48,0x52,0x27,0x90,0x4b,0x40,0x15,0x80,0x4b,0x40,
0x09,0x90,0x4d,0x40,0x00,0x44,0x38,0x15,0x80,0x4d,0x40,0x00,0x44,0x38,0x09,0x90,
0x48,0x40,0x15,0x80,0x48,0x40,0x09,0x90,0x4b,0x40,0x15,0x80,0x4b,0x40,0x09,0x90,
0x44,0x3c,0x00,0x4d,0x40,0x33,0x80,0x44,0x3c,0x00,0x4d,0x40,0x09,0x90,0x48,0x49,
0x15,0x80,0x48,0x49,0x09,0x90,0x4b,0x3c,0x00,0x43,0x40,0x33,0x80,0x4b,0x3c,0x00,
0x43,0x40,0x09,0x90,0x4d,0x40,0x15,0x80,0x4d,0x40,0x09,0x90,0x43,0x49,0x00,0x46,
0x40,0x81,0x0d,0x80,0x43,0x49,0x00,0x46,0x40,0x27,0x90,0x49,0x40,0x15,0x80,0x49,
0x40,0x09,0x90,0x4d,0x49,0x00,0x43,0x40,0x15,0x80,0x4d,0x49,0x00,0x43,0x40,0x09,
0x90,0x46,0x40,0x15,0x80,0x46,0x40,0x09,0x90,0x49,0x40,0x15,0x80,0x49,0x40,0x09,
0x90,0x4d,0x49,0x00,0x43,0x49,0x33,0x80,0x4d,0x49,0x00,0x43,0x49,0x09,0x90,0x48,
0x52,0x00,0x44,0x3c,0x33,0x80,0x48,0x52,0x00,0x44,0x3c,0x09,0x90,0x4b,0x3c,0x15,
0x80,0x4b,0x3c,0x09,0x90,0x4d,0x40,0x00,0x44,0x3c,0x15,0x80,0x4d,0x40,0x00,0x44,
0x3c,0x09,0x90,0x48,0x49,0x15,0x80,0x48,0x49,0x09,0x90,0x4b,0x3c,0x15,0x80,0x4b,
0x3c,0x09,0x90,0x4d,0x40,0x00,0x44,0x3c,0x33,0x80,0x4d,0x40,0x00,0x44,0x3c,0x09,
0x90,0x44,0x40,0x00,0x48,0x5b,0x33,0x80,0x44,0x40,0x00,0x48,0x5b,0x09,0x90,0x4b,
0x52,0x15,0x80,0x4b,0x52,0x09,0x90,0x4d,0x40,0x00,0x44,0x49,0x15,0x80,0x4d,0x40,
0x00,0x44,0x49,0x09,0x90,0x48,0x49,0x15,0x80,0x48,0x49,0x09,0x90,0x4b,0x3c,0x15,
0x80,0x4b,0x3c,0x09,0x90,0x4d,0x49,0x00,0x44,0x3c,0x33,0x80,0x4d,0x49,0x00,0x44,
0x3c,0x09,0x90,0x4b,0x49,0x15,0x80,0x4b,0x49,0x09,0x90,0x50,0x49,0x00,0x44,0x49,
0x33,0x80,0x50,0x49,0x00,0x44,0x49,0x09,0x90,0x44,0x3c,0x00,0x4d,0x49,0x33,0x80,
0x44,0x3c,0x00,0x4d,0x49,0x09,0x90,0x50,0x49,0x00,0x44,0x49,0x33,0x80,0x50,0x49,
0x00,0x44,0x49,0x09,0x90,0x44,0x40,0x00,0x4d,0x49,0x33,0x80,0x44,0x40,0x00,0x4d,
0x49,0x09,0x90,0x4d,0x40,0x00,0x50,0x40,0x33,0x80,0x4d,0x40,0x00,0x50,0x40,0x09,
0x90,0x52,0x40,0x00,0x4d,0x40,0x15,0x80,0x52,0x40,0x00,0x4d,0x40,0x09,0x90,0x54,
0x40,0x00,0x4d,0x49,0x00,0x50,0x49,0x33,0x80,0x54,0x40,0x00,0x4d,0x49,0x00,0x50,
0x49,0x09,0x90,0x52,0x40,0x15,0x80,0x52,0x40,0x09,0x90,0x50,0x40,0x15,0x80,0x50,
0x40,0x09,0x90,0x4d,0x40,0x15,0x80,0x4d,0x40,0x09,0x90,0x50,0x49,0x33,0x80,0x50,
0x49,0x09,0x90,0x4d,0x49,0x33,0x80,0x4d,0x49,0x09,0x90,0x4b,0x49,0x15,0x80,0x4b,
0x49,0x09,0x90,0x50,0x40,0x33,0x80,0x50,0x40,0x09,0x90,0x44,0x3c,0x00,0x48,0x49,
0x33,0x80,0x44,0x3c,0x00,0x48,0x49,0x09,0x90,0x4b,0x49,0x15,0x80,0x4b,0x49,0x09,
0x90,0x4d,0x40,0x00,0x44,0x38,0x15,0x80,0x4d,0x40,0x00,0x44,0x38,0x09,0x90,0x48,
0x40,0x15,0x80,0x48,0x40,0x09,0x90,0x4b,0x40,0x15,0x80,0x4b,0x40,0x09,0x90,0x4d,
0x40,0x00,0x44,0x38,0x33,0x80,0x4d,0x40,0x00,0x44,0x38,0x09,0x90,0x41,0x49,0x00,
0x44,0x49,0x33,0x80,0x41,0x49,0x00,0x44,0x49,0x09,0x90,0x46,0x49,0x15,0x80,0x46,
0x49,0x09,0x90,0x44,0x49,0x00,0x41,0x40,0x33,0x80,0x44,0x49,0x00,0x41,0x40,0x09,
0x90,0x44,0x49,0x00,0x40,0x49,0x33,0x80,0x44,0x49,0x00,0x40,0x49,0x09,0x90,0x46,
0x40,0x00,0x40,0x40,0x15,0x80,0x46,0x40,0x00,0x40,0x40,0x09,0x90,0x44,0x49,0x00,
0x3f,0x40,0x33,0x80,0x44,0x49,0x00,0x3f,0x40,0x09,0x90,0x46,0x49,0x15,0x80,0x46,
0x49,0x09,0x90,0x3f,0x40,0x00,0x48,0x49,0x15,0x80,0x3f,0x40,0x00,0x48,0x49,0x09,
0x90,0x44,0x40,0x15,0x80,0x44,0x40,0x09,0x90,0x46,0x49,0x15,0x80,0x46,0x49,0x09,
0x90,0x3f,0x40,0x00,0x48,0x52,0x33,0x80,0x3f,0x40,0x00,0x48,0x52,0x09,0x90,0x3e,
0x49,0x00,0x44,0x40,0x33,0x80,0x3e,0x49,0x00,0x44,0x40,0x09,0x90,0x46,0x40,0x15,
0x80,0x46,0x40,0x09,0x90,0x48,0x49,0x00,0x3e,0x40,0x15,0x80,0x48,0x49,0x00,0x3e,
0x40,0x09,0x90,0x44,0x49,0x15,0x80,0x44,0x49,0x27,0x90,0x3d,0x40,0x00,0x46,0x40,
0x33,0x80,0x3d,0x40,0x00,0x46,0x40,0x09,0x90,0x3f,0x49,0x15,0x80,0x3f,0x49,0x09,
0x90,0x44,0x40,0x00,0x3c,0x49,0x33,0x80,0x44,0x40,0x00,0x3c,0x49,0x09,0x90,0x4b,
0x40,0x00,0x3f,0x5b,0x33,0x80,0x4b,0x40,0x00,0x3f,0x5b,0x09,0x90,0x4b,0x49,0x00,
0x3f,0x52,0x33,0x80,0x4b,0x49,0x00,0x3f,0x52,0x09,0x90,0x4b,0x49,0x00,0x3f,0x5b,
0x33,0x80,0x4b,0x49,0x00,0x3f,0x5b,0x09,0x90,0x50,0x49,0x00,0x44,0x40,0x33,0x80,
0x50,0x49,0x00,0x44,0x40,0x09,0x90,0x44,0x38,0x00,0x4d,0x49,0x33,0x80,0x44,0x38,
0x00,0x4d,0x49,0x09,0x90,0x50,0x40,0x00,0x44,0x40,0x33,0x80,0x50,0x40,0x00,0x44,
0x40,0x09,0x90,0x44,0x3c,0x00,0x4d,0x49,0x33,0x80,0x44,0x3c,0x00,0x4d,0x49,0x09,
0x90,0x4d,0x40,0x00,0x50,0x40,0x33,0x80,0x4d,0x40,0x00,0x50,0x40,0x09,0x90,0x52,
0x40,0x00,0x4d,0x38,0x15,0x80,0x52,0x40,0x00,0x4d,0x38,0x09,0x90,0x54,0x49,0x00,
0x4d,0x40,0x33,0x80,0x54,0x49,0x00,0x4d,0x40,0x09,0x90,0x52,0x49,0x15,0x80,0x52,
0x49,0x09,0x90,0x50,0x3c,0x15,0x80,0x50,0x3c,0x09,0x90,0x4d,0x40,0x15,0x80,0x4d,
0x40,0x09,0x90,0x4b,0x5b,0x15,0x80,0x4b,0x5b,0x09,0x90,0x4d,0x49,0x33,0x80,0x4d,
0x49,0x09,0x90,0x44,0x3c,0x00,0x48,0x52,0x81,0x0d,0x80,0x44,0x3c,0x00,0x48,0x52,
0x27,0x90,0x4b,0x40,0x15,0x80,0x4b,0x40,0x09,0x90,0x4d,0x40,0x00,0x44,0x38,0x15,
0x80,0x4d,0x40,0x00,0x44,0x38,0x09,0x90,0x48,0x40,0x15,0x80,0x48,0x40,0x09,0x90,
0x4b,0x40,0x15,0x80,0x4b,0x40,0x09,0x90,0x44,0x3c,0x00,0x4d,0x40,0x33,0x80,0x44,
0x3c,0x00,0x4d,0x40,0x09,0x90,0x48,0x49,0x15,0x80,0x48,0x49,0x09,0x90,0x4b,0x3c,
0x00,0x43,0x40,0x33,0x80,0x4b,0x3c,0x00,0x43,0x40,0x09,0x90,0x4d,0x40,0x15,0x80,
0x4d,0x40,0x09,0x90,0x43,0x49,0x00,0x46,0x40,0x81,0x0d,0x80,0x43,0x49,0x00,0x46,
0x40,0x27,0x90,0x49,0x40,0x15,0x80,0x49,0x40,0x09,0x90,0x4d,0x49,0x00,0x43,0x40,
0x15,0x80,0x4d,0x49,0x00,0x43,0x40,0x09,0x90,0x46,0x40,0x15,0x80,0x46,0x40,0x09,
0x90,0x49,0x40,0x15,0x80,0x49,0x40,0x09,0x90,0x4d,0x49,0x00,0x43,0x49,0x33,0x80,
0x4d,0x49,0x00,0x43,0x49,0x09,0x90,0x48,0x52,0x00,0x44,0x3c,0x33,0x80,0x48,0x52,
0x00,0x44,0x3c,0x09,0x90,0x4b,0x3c,0x15,0x80,0x4b,0x3c,0x09,0x90,0x4d,0x40,0x00,
0x44,0x3c,0x15,0x80,0x4d,0x40,0x00,0x44,0x3c,0x09,0x90,0x48,0x49,0x15,0x80,0x48,
0x49,0x09,0x90,0x4b,0x3c,0x15,0x80,0x4b,0x3c,0x09,0x90,0x4d,0x40,0x00,0x44,0x3c,
0x33,0x80,0x4d,0x40,0x00,0x44,0x3c,0x09,0x90,0x44,0x40,0x00,0x48,0x5b,0x33,0x80,
0x44,0x40,0x00,0x48,0x5b,0x09,0x90,0x4b,0x52,0x15,0x80,0x4b,0x52,0x09,0x90,0x4d,
0x40,0x00,0x44,0x49,0x15,0x80,0x4d,0x40,0x00,0x44,0x49,0x09,0x90,0x48,0x49,0x15,
0x80,0x48,0x49,0x09,0x90,0x4b,0x3c,0x15,0x80,0x4b,0x3c,0x09,0x90,0x4d,0x49,0x00,
0x44,0x3c,0x33,0x80,0x4d,0x49,0x00,0x44,0x3c,0x09,0x90,0x4b,0x49,0x15,0x80,0x4b,
0x49,0x09,0x90,0x50,0x49,0x00,0x44,0x49,0x33,0x80,0x50,0x49,0x00,0x44,0x49,0x09,
0x90,0x44,0x3c,0x00,0x4d,0x49,0x33,0x80,0x44,0x3c,0x00,0x4d,0x49,0x09,0x90,0x50,
0x49,0x00,0x44,0x49,0x33,0x80,0x50,0x49,0x00,0x44,0x49,0x09,0x90,0x44,0x40,0x00,
0x4d,0x49,0x33,0x80,0x44,0x40,0x00,0x4d,0x49,0x09,0x90,0x4d,0x40,0x00,0x50,0x40,
0x33,0x80,0x4d,0x40,0x00,0x50,0x40,0x09,0x90,0x52,0x40,0x00,0x4d,0x40,0x15,0x80,
0x52,0x40,0x00,0x4d,0x40,0x09,0x90,0x54,0x40,0x00,0x4d,0x49,0x00,0x50,0x49,0x33,
0x80,0x54,0x40,0x00,0x4d,0x49,0x00,0x50,0x49,0x09,0x90,0x52,0x40,0x15,0x80,0x52,
0x40,0x09,0x90,0x50,0x40,0x15,0x80,0x50,0x40,0x09,0x90,0x4d,0x40,0x15,0x80,0x4d,
0x40,0x09,0x90,0x50,0x49,0x33,0x80,0x50,0x49,0x09,0x90,0x4d,0x49,0x33,0x80,0x4d,
0x49,0x09,0x90,0x4b,0x49,0x15,0x80,0x4b,0x49,0x09,0x90,0x50,0x40,0x33,0x80,0x50,
0x40,0x09,0x90,0x44,0x3c,0x00,0x48,0x49,0x33,0x80,0x44,0x3c,0x00,0x48,0x49,0x09,
0x90,0x4b,0x49,0x15,0x80,0x4b,0x49,0x09,0x90,0x4d,0x40,0x00,0x44,0x38,0x15,0x80,
0x4d,0x40,0x00,0x44,0x38,0x09,0x90,0x48,0x40,0x15,0x80,0x48,0x40,0x09,0x90,0x4b,
0x40,0x15,0x80,0x4b,0x40,0x09,0x90,0x4d,0x40,0x00,0x44,0x38,0x33,0x80,0x4d,0x40,
0x00,0x44,0x38,0x09,0x90,0x41,0x49,0x00,0x44,0x49,0x33,0x80,0x41,0x49,0x00,0x44,
0x49,0x09,0x90,0x46,0x49,0x15,0x80,0x46,0x49,0x09,0x90,0x44,0x49,0x00,0x41,0x40,
0x33,0x80,0x44,0x49,0x00,0x41,0x40,0x09,0x90,0x44,0x49,0x00,0x40,0x49,0x33,0x80,
0x44,0x49,0x00,0x40,0x49,0x09,0x90,0x46,0x40,0x00,0x40,0x40,0x15,0x80,0x46,0x40,
0x00,0x40,0x40,0x09,0x90,0x44,0x49,0x00,0x3f,0x40,0x33,0x80,0x44,0x49,0x00,0x3f,
0x40,0x09,0x90,0x46,0x49,0x15,0x80,0x46,0x49,0x09,0x90,0x3f,0x40,0x00,0x48,0x49,
0x15,0x80,0x3f,0x40,0x00,0x48,0x49,0x09,0x90,0x44,0x40,0x15,0x80,0x44,0x40,0x09,
0x90,0x46,0x49,0x15,0x80,0x46,0x49,0x09,0x90,0x3f,0x40,0x00,0x48,0x52,0x33,0x80,
0x3f,0x40,0x00,0x48,0x52,0x09,0x90,0x3e,0x49,0x00,0x44,0x40,0x33,0x80,0x3e,0x49,
0x00,0x44,0x40,0x09,0x90,0x46,0x40,0x15,0x80,0x46,0x40,0x09,0x90,0x48,0x49,0x00,
0x3e,0x40,0x15,0x80,0x48,0x49,0x00,0x3e,0x40,0x09,0x90,0x44,0x49,0x15,0x80,0x44,
0x49,0x27,0x90,0x3d,0x40,0x00,0x46,0x40,0x33,0x80,0x3d,0x40,0x00,0x46,0x40,0x09,
0x90,0x3f,0x49,0x15,0x80,0x3f,0x49,0x09,0x90,0x44,0x40,0x00,0x3c,0x49,0x33,0x80,
0x44,0x40,0x00,0x3c,0x49,0x09,0x90,0x43,0x52,0x00,0x49,0x52,0x00,0x4b,0x49,0x33,
0x80,0x43,0x52,0x00,0x49,0x52,0x00,0x4b,0x49,0x09,0x90,0x50,0x52,0x00,0x4b,0x49,
0x00,0x44,0x5b,0x00,0x48,0x5b,0x33,0x80,0x50,0x52,0x00,0x4b,0x49,0x00,0x44,0x5b,
0x00,0x48,0x5b,0x45,0xff,0x2f,0x00,0x4d,0x54,0x72,0x6b,0x00,0x00,0x24,0x42,0x00,
0xb0,0x0a,0x40,0x00,0xe0,0x00,0x40,0x00,0xb0,0x07,0x45,0x00,0x07,0x45,0x04,0xc0,
0x00,0x81,0x30,0x90,0x33,0x40,0x00,0x27,0x40,0x33,0x3f,0x00,0x00,0x80,0x27,0x40,
0x09,0x90,0x38,0x49,0x00,0x2c,0x49,0x33,0x80,0x38,0x49,0x00,0x2c,0x49,0x09,0x90,
0x33,0x38,0x00,0x3c,0x40,0x00,0x38,0x3c,0x33,0x80,0x33,0x38,0x00,0x3c,0x40,0x00,
0x38,0x3c,0x09,0x90,0x33,0x40,0x00,0x3c,0x49,0x00,0x38,0x40,0x14,0x80,0x33,0x40,
0x1f,0x33,0x40,0x00,0x3c,0x49,0x00,0x38,0x40,0x09,0x90,0x39,0x49,0x00,0x2d,0x49,
0x33,0x80,0x39,0x49,0x00,0x2d,0x49,0x09,0x90,0x3a,0x40,0x00,0x2e,0x49,0x33,0x80,
0x3a,0x40,0x00,0x2e,0x49,0x09,0x90,0x3d,0x40,0x00,0x33,0x3c,0x00,0x37,0x49,0x33,
0x80,0x3d,0x40,0x00,0x33,0x3c,0x00,0x37,0x49,0x09,0x90,0x3d,0x49,0x00,0x33,0x38,
0x00,0x37,0x40,0x33,0x80,0x3d,0x49,0x00,0x33,0x38,0x00,0x37,0x40,0x09,0x90,0x33,
0x40,0x00,0x27,0x49,0x33,0x80,0x33,0x40,0x00,0x27,0x49,0x09,0x90,0x38,0x49,0x00,
0x2c,0x49,0x33,0x80,0x38,0x49,0x00,0x2c,0x49,0x09,0x90,0x3c,0x40,0x00,0x33,0x34,
0x00,0x38,0x40,0x33,0x80,0x3c,0x40,0x00,0x33,0x34,0x00,0x38,0x40,0x09,0x90,0x33,
0x3c,0x00,0x3c,0x40,0x00,0x38,0x40,0x33,0x80,0x33,0x3c,0x00,0x3c,0x40,0x00,0x38,
0x40,0x09,0x90,0x2d,0x3c,0x00,0x39,0x40,0x33,0x80,0x2d,0x3c,0x00,0x39,0x40,0x09,
0x90,0x3a,0x40,0x00,0x2e,0x49,0x33,0x80,0x3a,0x40,0x00,0x2e,0x49,0x09,0x90,0x33,
0x40,0x00,0x3d,0x40,0x00,0x37,0x49,0x33,0x80,0x33,0x40,0x00,0x3d,0x40,0x00,0x37,
0x49,0x09,0x90,0x3d,0x40,0x00,0x33,0x3c,0x00,0x37,0x52,0x33,0x80,0x3d,0x40,0x00,
0x33,0x3c,0x00,0x37,0x52,0x09,0x90,0x33,0x3c,0x00,0x27,0x49,0x33,0x80,0x33,0x3c,
0x00,0x27,0x49,0x09,0x90,0x34,0x49,0x00,0x28,0x49,0x6f,0x80,0x34,0x49,0x00,0x28,
0x49,0x09,0x90,0x33,0x3c,0x00,0x27,0x38,0x33,0x80,0x33,0x3c,0x00,0x27,0x38,0x09,
0x90,0x33,0x3c,0x00,0x27,0x40,0x33,0x80,0x33,0x3c,0x00,0x27,0x40,0x09,0x90,0x34,
0x49,0x00,0x28,0x40,0x6f,0x80,0x34,0x49,0x00,0x28,0x40,0x09,0x90,0x33,0x40,0x00,
0x27,0x49,0x33,0x80,0x33,0x40,0x00,0x27,0x49,0x45,0x90,0x20,0x5b,0x33,0x80,0x20,
0x5b,0x45,0x90,0x2c,0x52,0x33,0x80,0x2c,0x52,0x45,0x90,0x38,0x52,0x33,0x80,0x38,
0x52,0x45,0x90,0x44,0x5b,0x33,0x80,0x44,0x5b,0x45,0x90,0x41,0x40,0x00,0x47,0x3c,
0x00,0x3e,0x49,0x00,0x44,0x3c,0x33,0x80,0x41,0x40,0x00,0x47,0x3c,0x00,0x3e,0x49,
0x00,0x44,0x3c,0x09,0x90,0x47,0x40,0x00,0x44,0x3c,0x00,0x41,0x3c,0x00,0x3e,0x40,
0x33,0x80,0x47,0x40,0x00,0x44,0x3c,0x00,0x41,0x3c,0x00,0x3e,0x40,0x09,0x90,0x47,
0x40,0x00,0x44,0x38,0x00,0x3e,0x40,0x00,0x41,0x3c,0x33,0x80,0x47,0x40,0x00,0x44,
0x38,0x00,0x3e,0x40,0x00,0x41,0x3c,0x09,0x90,0x47,0x40,0x00,0x44,0x38,0x00,0x41,
0x3c,0x00,0x3e,0x38,0x33,0x80,0x47,0x40,0x00,0x44,0x38,0x00,0x41,0x3c,0x00,0x3e,
0x38,0x09,0x90,0x3f,0x3c,0x00,0x48,0x40,0x00,0x44,0x3c,0x33,0x80,0x3f,0x3c,0x00,
0x48,0x40,0x00,0x44,0x3c,0x09,0x90,0x3f,0x49,0x00,0x44,0x40,0x00,0x48,0x52,0x33,
0x80,0x3f,0x49,0x00,0x44,0x40,0x00,0x48,0x52,0x09,0x90,0x3f,0x52,0x00,0x44,0x40,
0x00,0x48,0x40,0x33,0x80,0x3f,0x52,0x00,0x44,0x40,0x00,0x48,0x40,0x09,0x90,0x3f,
0x49,0x00,0x44,0x40,0x00,0x48,0x49,0x33,0x80,0x3f,0x49,0x00,0x44,0x40,0x00,0x48,
0x49,0x09,0x90,0x44,0x49,0x00,0x40,0x52,0x00,0x47,0x49,0x33,0x80,0x44,0x49,0x00,
0x40,0x52,0x00,0x47,0x49,0x09,0x90,0x47,0x52,0x00,0x40,0x52,0x00,0x44,0x49,0x33,
0x80,0x47,0x52,0x00,0x40,0x52,0x00,0x44,0x49,0x09,0x90,0x44,0x49,0x00,0x3f,0x52,
0x00,0x48,0x49,0x33,0x80,0x44,0x49,0x00,0x3f,0x52,0x00,0x48,0x49,0x09,0x90,0x3f,
0x49,0x00,0x48,0x49,0x00,0x44,0x49,0x33,0x80,0x3f,0x49,0x00,0x48,0x49,0x00,0x44,
0x49,0x09,0x90,0x3f,0x52,0x00,0x44,0x49,0x00,0x48,0x52,0x33,0x80,0x3f,0x52,0x00,
0x44,0x49,0x00,0x48,0x52,0x09,0x90,0x43,0x52,0x00,0x3f,0x40,0x00,0x49,0x40,0x33,
0x80,0x43,0x52,0x00,0x3f,0x40,0x00,0x49,0x40,0x09,0x90,0x44,0x40,0x00,0x48,0x49,
0x33,0x80,0x44,0x40,0x00,0x48,0x49,0x45,0x90,0x3b,0x49,0x00,0x35,0x49,0x00,0x32,
0x49,0x00,0x38,0x40,0x33,0x80,0x3b,0x49,0x00,0x35,0x49,0x00,0x32,0x49,0x00,0x38,
0x40,0x09,0x90,0x35,0x49,0x00,0x3b,0x40,0x00,0x38,0x40,0x00,0x32,0x49,0x33,0x80,
0x35,0x49,0x00,0x3b,0x40,0x00,0x38,0x40,0x00,0x32,0x49,0x09,0x90,0x35,0x40,0x00,
0x3b,0x40,0x00,0x38,0x3c,0x00,0x32,0x3c,0x33,0x80,0x35,0x40,0x00,0x3b,0x40,0x00,
0x38,0x3c,0x00,0x32,0x3c,0x09,0x90,0x35,0x40,0x00,0x32,0x49,0x00,0x3b,0x49,0x00,
0x38,0x40,0x33,0x80,0x35,0x40,0x00,0x32,0x49,0x00,0x3b,0x49,0x00,0x38,0x40,0x09,
0x90,0x33,0x52,0x00,0x38,0x49,0x00,0x3c,0x49,0x33,0x80,0x33,0x52,0x00,0x38,0x49,
0x00,0x3c,0x49,0x09,0x90,0x33,0x49,0x00,0x3c,0x52,0x00,0x38,0x49,0x33,0x80,0x33,
0x49,0x00,0x3c,0x52,0x00,0x38,0x49,0x09,0x90,0x33,0x52,0x00,0x38,0x49,0x00,0x3c,
0x52,0x33,0x80,0x33,0x52,0x00,0x38,0x49,0x00,0x3c,0x52,0x09,0x90,0x33,0x49,0x00,
0x38,0x49,0x00,0x3c,0x52,0x33,0x80,0x33,0x49,0x00,0x38,0x49,0x00,0x3c,0x52,0x09,
0x90,0x34,0x49,0x00,0x3b,0x40,0x00,0x38,0x40,0x33,0x80,0x34,0x49,0x00,0x3b,0x40,
0x00,0x38,0x40,0x09,0x90,0x34,0x49,0x00,0x38,0x49,0x00,0x3b,0x52,0x33,0x80,0x34,
0x49,0x00,0x38,0x49,0x00,0x3b,0x52,0x09,0x90,0x33,0x49,0x00,0x38,0x49,0x00,0x3c,
0x49,0x33,0x80,0x33,0x49,0x00,0x38,0x49,0x00,0x3c,0x49,0x09,0x90,0x33,0x49,0x00,
0x38,0x40,0x00,0x3c,0x49,0x33,0x80,0x33,0x49,0x00,0x38,0x40,0x00,0x3c,0x49,0x09,
0x90,0x33,0x49,0x00,0x3c,0x49,0x00,0x38,0x40,0x33,0x80,0x33,0x49,0x00,0x3c,0x49,
0x00,0x38,0x40,0x09,0x90,0x3d,0x40,0x00,0x33,0x40,0x00,0x37,0x52,0x33,0x80,0x3d,
0x40,0x00,0x33,0x40,0x00,0x37,0x52,0x09,0x90,0x38,0x40,0x00,0x3c,0x49,0x33,0x80,
0x38,0x40,0x00,0x3c,0x49,0x09,0x90,0x33,0x40,0x00,0x27,0x49,0x33,0x80,0x33,0x40,
0x00,0x27,0x49,0x0a,0x90,0x38,0x49,0x00,0x2c,0x49,0x33,0x80,0x38,0x49,0x00,0x2c,
0x49,0x09,0x90,0x33,0x38,0x00,0x3c,0x40,0x00,0x38,0x3c,0x33,0x80,0x33,0x38,0x00,
0x3c,0x40,0x00,0x38,0x3c,0x09,0x90,0x33,0x40,0x00,0x3c,0x49,0x00,0x38,0x40,0x33,
0x80,0x33,0x40,0x00,0x3c,0x49,0x00,0x38,0x40,0x09,0x90,0x39,0x49,0x00,0x2d,0x49,
0x33,0x80,0x39,0x49,0x00,0x2d,0x49,0x09,0x90,0x3a,0x40,0x00,0x2e,0x49,0x33,0x80,
0x3a,0x40,0x00,0x2e,0x49,0x09,0x90,0x3d,0x40,0x00,0x33,0x3c,0x00,0x37,0x49,0x33,
0x80,0x3d,0x40,0x00,0x33,0x3c,0x00,0x37,0x49,0x09,0x90,0x3d,0x49,0x00,0x33,0x38,
0x00,0x37,0x40,0x33,0x80,0x3d,0x49,0x00,0x33,0x38,0x00,0x37,0x40,0x09,0x90,0x33,
0x40,0x00,0x27,0x49,0x33,0x80,0x33,0x40,0x00,0x27,0x49,0x09,0x90,0x38,0x49,0x00,
0x2c,0x49,0x33,0x80,0x38,0x49,0x00,0x2c,0x49,0x09,0x90,0x3c,0x40,0x00,0x33,0x34,
0x00,0x38,0x40,0x33,0x80,0x3c,0x40,0x00,0x33,0x34,0x00,0x38,0x40,0x09,0x90,0x33,
0x3c,0x00,0x3c,0x40,0x00,0x38,0x40,0x33,0x80,0x33,0x3c,0x00,0x3c,0x40,0x00,0x38,
0x40,0x09,0x90,0x2d,0x3c,0x00,0x39,0x40,0x33,0x80,0x2d,0x3c,0x00,0x39,0x40,0x09,
0x90,0x3a,0x40,0x00,0x2e,0x49,0x33,0x80,0x3a,0x40,0x00,0x2e,0x49,0x09,0x90,0x33,
0x40,0x00,0x3d,0x40,0x00,0x37,0x49,0x33,0x80,0x33,0x40,0x00,0x3d,0x40,0x00,0x37,
0x49,0x09,0x90,0x3d,0x40,0x00,0x33,0x3c,0x00,0x37,0x52,0x33,0x80,0x3d,0x40,0x00,
0x33,0x3c,0x00,0x37,0x52,0x09,0x90,0x33,0x3c,0x00,0x27,0x49,0x33,0x80,0x33,0x3c,
0x00,0x27,0x49,0x09,0x90,0x34,0x49,0x00,0x28,0x49,0x6f,0x80,0x34,0x49,0x00,0x28,
0x49,0x09,0x90,0x33,0x3c,0x00,0x27,0x38,0x33,0x80,0x33,0x3c,0x00,0x27,0x38,0x09,
0x90,0x33,0x3c,0x00,0x27,0x40,0x33,0x80,0x33,0x3c,0x00,0x27,0x40,0x09,0x90,0x34,
0x49,0x00,0x28,0x40,0x6f,0x80,0x34,0x49,0x00,0x28,0x40,0x09,0x90,0x33,0x40,0x00,
0x27,0x49,0x33,0x80,0x33,0x40,0x00,0x27,0x49,0x45,0x90,0x20,0x5b,0x33,0x80,0x20,
0x5b,0x45,0x90,0x2c,0x52,0x33,0x80,0x2c,0x52,0x45,0x90,0x38,0x52,0x33,0x80,0x38,
0x52,0x45,0x90,0x44,0x5b,0x33,0x80,0x44,0x5b,0x45,0x90,0x41,0x40,0x00,0x47,0x3c,
0x00,0x3e,0x49,0x00,0x44,0x3c,0x33,0x80,0x41,0x40,0x00,0x47,0x3c,0x00,0x3e,0x49,
0x00,0x44,0x3c,0x09,0x90,0x47,0x40,0x00,0x44,0x3c,0x00,0x41,0x3c,0x00,0x3e,0x40,
0x33,0x80,0x47,0x40,0x00,0x44,0x3c,0x00,0x41,0x3c,0x00,0x3e,0x40,0x09,0x90,0x47,
0x40,0x00,0x44,0x38,0x00,0x3e,0x40,0x00,0x41,0x3c,0x33,0x80,0x47,0x40,0x00,0x44,
0x38,0x00,0x3e,0x40,0x00,0x41,0x3c,0x09,0x90,0x47,0x40,0x00,0x44,0x38,0x00,0x41,
0x3c,0x00,0x3e,0x38,0x33,0x80,0x47,0x40,0x00,0x44,0x38,0x00,0x41,0x3c,0x00,0x3e,
0x38,0x09,0x90,0x3f,0x3c,0x00,0x48,0x40,0x00,0x44,0x3c,0x33,0x80,0x3f,0x3c,0x00,
0x48,0x40,0x00,0x44,0x3c,0x09,0x90,0x3f,0x49,0x00,0x44,0x40,0x00,0x48,0x52,0x33,
0x80,0x3f,0x49,0x00,0x44,0x40,0x00,0x48,0x52,0x09,0x90,0x3f,0x52,0x00,0x44,0x40,
0x00,0x48,0x40,0x33,0x80,0x3f,0x52,0x00,0x44,0x40,0x00,0x48,0x40,0x09,0x90,0x3f,
0x49,0x00,0x44,0x40,0x00,0x48,0x49,0x33,0x80,0x3f,0x49,0x00,0x44,0x40,0x00,0x48,
0x49,0x09,0x90,0x44,0x49,0x00,0x40,0x52,0x00,0x47,0x49,0x33,0x80,0x44,0x49,0x00,
0x40,0x52,0x00,0x47,0x49,0x09,0x90,0x47,0x52,0x00,0x40,0x52,0x00,0x44,0x49,0x33,
0x80,0x47,0x52,0x00,0x40,0x52,0x00,0x44,0x49,0x09,0x90,0x44,0x49,0x00,0x3f,0x52,
0x00,0x48,0x49,0x33,0x80,0x44,0x49,0x00,0x3f,0x52,0x00,0x48,0x49,0x09,0x90,0x3f,
0x49,0x00,0x48,0x49,0x00,0x44,0x49,0x33,0x80,0x3f,0x49,0x00,0x48,0x49,0x00,0x44,
0x49,0x09,0x90,0x3f,0x52,0x00,0x44,0x49,0x00,0x48,0x52,0x33,0x80,0x3f,0x52,0x00,
0x44,0x49,0x00,0x48,0x52,0x09,0x90,0x43,0x52,0x00,0x3f,0x40,0x00,0x49,0x40,0x33,
0x80,0x43,0x52,0x00,0x3f,0x40,0x00,0x49,0x40,0x09,0x90,0x44,0x40,0x00,0x48,0x49,
0x33,0x80,0x44,0x40,0x00,0x48,0x49,0x45,0x90,0x3b,0x49,0x00,0x35,0x49,0x00,0x32,
0x49,0x00,0x38,0x40,0x33,0x80,0x3b,0x49,0x00,0x35,0x49,0x00,0x32,0x49,0x00,0x38,
0x40,0x09,0x90,0x35,0x49,0x00,0x3b,0x40,0x00,0x38,0x40,0x00,0x32,0x49,0x33,0x80,
0x35,0x49,0x00,0x3b,0x40,0x00,0x38,0x40,0x00,0x32,0x49,0x09,0x90,0x35,0x40,0x00,
0x3b,0x40,0x00,0x38,0x3c,0x00,0x32,0x3c,0x33,0x80,0x35,0x40,0x00,0x3b,0x40,0x00,
0x38,0x3c,0x00,0x32,0x3c,0x09,0x90,0x35,0x40,0x00,0x32,0x49,0x00,0x3b,0x49,0x00,
0x38,0x40,0x33,0x80,0x35,0x40,0x00,0x32,0x49,0x00,0x3b,0x49,0x00,0x38,0x40,0x09,
0x90,0x33,0x52,0x00,0x38,0x49,0x00,0x3c,0x49,0x33,0x80,0x33,0x52,0x00,0x38,0x49,
0x00,0x3c,0x49,0x09,0x90,0x33,0x49,0x00,0x3c,0x52,0x00,0x38,0x49,0x33,0x80,0x33,
0x49,0x00,0x3c,0x52,0x00,0x38,0x49,0x09,0x90,0x33,0x52,0x00,0x38,0x49,0x00,0x3c,
0x52,0x33,0x80,0x33,0x52,0x00,0x38,0x49,0x00,0x3c,0x52,0x09,0x90,0x33,0x49,0x00,
0x38,0x49,0x00,0x3c,0x52,0x33,0x80,0x33,0x49,0x00,0x38,0x49,0x00,0x3c,0x52,0x09,
0x90,0x34,0x49,0x00,0x3b,0x40,0x00,0x38,0x40,0x33,0x80,0x34,0x49,0x00,0x3b,0x40,
0x00,0x38,0x40,0x09,0x90,0x34,0x49,0x00,0x38,0x49,0x00,0x3b,0x52,0x33,0x80,0x34,
0x49,0x00,0x38,0x49,0x00,0x3b,0x52,0x09,0x90,0x33,0x49,0x00,0x38,0x49,0x00,0x3c,
0x49,0x33,0x80,0x33,0x49,0x00,0x38,0x49,0x00,0x3c,0x49,0x09,0x90,0x33,0x49,0x00,
0x38,0x40,0x00,0x3c,0x49,0x33,0x80,0x33,0x49,0x00,0x38,0x40,0x00,0x3c,0x49,0x09,
0x90,0x33,0x49,0x00,0x3c,0x49,0x00,0x38,0x40,0x33,0x80,0x33,0x49,0x00,0x3c,0x49,
0x00,0x38,0x40,0x09,0x90,0x3d,0x40,0x00,0x33,0x40,0x00,0x37,0x52,0x33,0x80,0x3d,
0x40,0x00,0x33,0x40,0x00,0x37,0x52,0x09,0x90,0x38,0x40,0x00,0x3c,0x49,0x33,0x80,
0x38,0x40,0x00,0x3c,0x49,0x08,0x90,0x39,0x49,0x00,0x2d,0x40,0x33,0x80,0x39,0x49,
0x00,0x2d,0x40,0x09,0x90,0x3a,0x40,0x00,0x2e,0x49,0x33,0x80,0x3a,0x40,0x00,0x2e,
0x49,0x09,0x90,0x3d,0x40,0x00,0x33,0x3c,0x00,0x37,0x49,0x33,0x80,0x3d,0x40,0x00,
0x33,0x3c,0x00,0x37,0x49,0x09,0x90,0x33,0x40,0x00,0x27,0x49,0x33,0x80,0x33,0x40,
0x00,0x27,0x49,0x09,0x90,0x3d,0x40,0x00,0x33,0x40,0x00,0x37,0x49,0x33,0x80,0x3d,
0x40,0x00,0x33,0x40,0x00,0x37,0x49,0x09,0x90,0x3a,0x40,0x00,0x2e,0x3c,0x33,0x80,
0x3a,0x40,0x00,0x2e,0x3c,0x09,0x90,0x3d,0x40,0x00,0x33,0x3c,0x00,0x37,0x52,0x33,
0x80,0x3d,0x40,0x00,0x33,0x3c,0x00,0x37,0x52,0x09,0x90,0x33,0x3c,0x00,0x27,0x49,
0x33,0x80,0x33,0x3c,0x00,0x27,0x49,0x09,0x90,0x2b,0x3c,0x00,0x37,0x40,0x33,0x80,
0x2b,0x3c,0x00,0x37,0x40,0x09,0x90,0x38,0x40,0x00,0x2c,0x49,0x33,0x80,0x38,0x40,
0x00,0x2c,0x49,0x09,0x90,0x33,0x3c,0x00,0x3c,0x40,0x00,0x38,0x40,0x33,0x80,0x33,
0x3c,0x00,0x3c,0x40,0x00,0x38,0x40,0x09,0x90,0x33,0x3c,0x00,0x27,0x3c,0x33,0x80,
0x33,0x3c,0x00,0x27,0x3c,0x09,0x90,0x33,0x40,0x00,0x3c,0x49,0x00,0x38,0x40,0x33,
0x80,0x33,0x40,0x00,0x3c,0x49,0x00,0x38,0x40,0x09,0x90,0x38,0x40,0x00,0x2c,0x40,
0x33,0x80,0x38,0x40,0x00,0x2c,0x40,0x09,0x90,0x33,0x40,0x00,0x3c,0x40,0x00,0x38,
0x40,0x33,0x80,0x33,0x40,0x00,0x3c,0x40,0x00,0x38,0x40,0x09,0x90,0x38,0x40,0x00,
0x2c,0x49,0x33,0x80,0x38,0x40,0x00,0x2c,0x49,0x09,0x90,0x2d,0x40,0x00,0x39,0x40,
0x33,0x80,0x2d,0x40,0x00,0x39,0x40,0x09,0x90,0x3a,0x40,0x00,0x2e,0x49,0x33,0x80,
0x3a,0x40,0x00,0x2e,0x49,0x09,0x90,0x3d,0x3c,0x00,0x33,0x30,0x00,0x37,0x49,0x33,
0x80,0x3d,0x3c,0x00,0x33,0x30,0x00,0x37,0x49,0x09,0x90,0x33,0x40,0x00,0x27,0x49,
0x33,0x80,0x33,0x40,0x00,0x27,0x49,0x09,0x90,0x3d,0x40,0x00,0x33,0x40,0x00,0x37,
0x49,0x33,0x80,0x3d,0x40,0x00,0x33,0x40,0x00,0x37,0x49,0x09,0x90,0x3a,0x40,0x00,
0x2e,0x52,0x33,0x80,0x3a,0x40,0x00,0x2e,0x52,0x09,0x90,0x3d,0x40,0x00,0x33,0x34,
0x00,0x37,0x3c,0x33,0x80,0x3d,0x40,0x00,0x33,0x34,0x00,0x37,0x3c,0x09,0x90,0x3a,
0x40,0x00,0x2e,0x49,0x33,0x80,0x3a,0x40,0x00,0x2e,0x49,0x09,0x90,0x2f,0x40,0x00,
0x3b,0x49,0x33,0x80,0x2f,0x40,0x00,0x3b,0x49,0x09,0x90,0x30,0x49,0x00,0x3c,0x49,
0x33,0x80,0x30,0x49,0x00,0x3c,0x49,0x09,0x90,0x3c,0x52,0x00,0x33,0x49,0x00,0x38,
0x40,0x33,0x80,0x3c,0x52,0x00,0x33,0x49,0x00,0x38,0x40,0x09,0x90,0x33,0x3c,0x00,
0x27,0x40,0x33,0x80,0x33,0x3c,0x00,0x27,0x40,0x09,0x90,0x33,0x40,0x00,0x3c,0x40,
0x00,0x38,0x40,0x33,0x80,0x33,0x40,0x00,0x3c,0x40,0x00,0x38,0x40,0x09,0x90,0x38,
0x49,0x00,0x2c,0x49,0x33,0x80,0x38,0x49,0x00,0x2c,0x49,0x09,0x90,0x3c,0x40,0x00,
0x33,0x49,0x00,0x38,0x3c,0x33,0x80,0x3c,0x40,0x00,0x33,0x49,0x00,0x38,0x3c,0x09,
0x90,0x38,0x40,0x00,0x2c,0x49,0x33,0x80,0x38,0x40,0x00,0x2c,0x49,0x09,0x90,0x2d,
0x40,0x00,0x39,0x49,0x33,0x80,0x2d,0x40,0x00,0x39,0x49,0x09,0x90,0x3a,0x40,0x00,
0x2e,0x49,0x33,0x80,0x3a,0x40,0x00,0x2e,0x49,0x09,0x90,0x3d,0x40,0x00,0x33,0x3c,
0x00,0x37,0x49,0x33,0x80,0x3d,0x40,0x00,0x33,0x3c,0x00,0x37,0x49,0x09,0x90,0x33,
0x3c,0x00,0x27,0x40,0x33,0x80,0x33,0x3c,0x00,0x27,0x40,0x09,0x90,0x3d,0x49,0x00,
0x33,0x40,0x00,0x37,0x52,0x33,0x80,0x3d,0x49,0x00,0x33,0x40,0x00,0x37,0x52,0x09,
0x90,0x3a,0x40,0x00,0x2e,0x49,0x33,0x80,0x3a,0x40,0x00,0x2e,0x49,0x09,0x90,0x3d,
0x40,0x00,0x33,0x38,0x00,0x37,0x49,0x33,0x80,0x3d,0x40,0x00,0x33,0x38,0x00,0x37,
0x49,0x09,0x90,0x33,0x38,0x00,0x27,0x40,0x33,0x80,0x33,0x38,0x00,0x27,0x40,0x09,
0x90,0x2b,0x40,0x00,0x37,0x40,0x33,0x80,0x2b,0x40,0x00,0x37,0x40,0x09,0x90,0x38,
0x40,0x00,0x2c,0x52,0x33,0x80,0x38,0x40,0x00,0x2c,0x52,0x09,0x90,0x33,0x40,0x00,
0x3c,0x40,0x00,0x38,0x3c,0x33,0x80,0x33,0x40,0x00,0x3c,0x40,0x00,0x38,0x3c,0x09,
0x90,0x33,0x38,0x00,0x27,0x40,0x33,0x80,0x33,0x38,0x00,0x27,0x40,0x09,0x90,0x33,
0x40,0x00,0x3c,0x49,0x00,0x38,0x40,0x33,0x80,0x33,0x40,0x00,0x3c,0x49,0x00,0x38,
0x40,0x09,0x90,0x38,0x49,0x00,0x2c,0x52,0x33,0x80,0x38,0x49,0x00,0x2c,0x52,0x09,
0x90,0x38,0x40,0x00,0x2c,0x52,0x33,0x80,0x38,0x40,0x00,0x2c,0x52,0x09,0x90,0x2b,
0x3c,0x00,0x37,0x49,0x33,0x80,0x2b,0x3c,0x00,0x37,0x49,0x09,0x90,0x36,0x40,0x00,
0x2a,0x52,0x33,0x80,0x36,0x40,0x00,0x2a,0x52,0x09,0x90,0x29,0x49,0x00,0x35,0x49,
0x33,0x80,0x29,0x49,0x00,0x35,0x49,0x09,0x90,0x29,0x49,0x00,0x35,0x49,0x33,0x80,
0x29,0x49,0x00,0x35,0x49,0x09,0x90,0x39,0x40,0x00,0x2d,0x3c,0x33,0x80,0x39,0x40,
0x00,0x2d,0x3c,0x09,0x90,0x39,0x40,0x00,0x2d,0x3c,0x33,0x80,0x39,0x40,0x00,0x2d,
0x3c,0x09,0x90,0x3a,0x49,0x00,0x2e,0x49,0x33,0x80,0x3a,0x49,0x00,0x2e,0x49,0x09,
0x90,0x3d,0x40,0x00,0x35,0x49,0x00,0x3a,0x3c,0x33,0x80,0x3d,0x40,0x00,0x35,0x49,
0x00,0x3a,0x3c,0x09,0x90,0x3d,0x40,0x00,0x35,0x49,0x00,0x3a,0x3c,0x33,0x80,0x3d,
0x40,0x00,0x35,0x49,0x00,0x3a,0x3c,0x09,0x90,0x3d,0x3c,0x00,0x35,0x40,0x00,0x3a,
0x3c,0x33,0x80,0x3d,0x3c,0x00,0x35,0x40,0x00,0x3a,0x3c,0x09,0x90,0x3a,0x40,0x00,
0x2e,0x40,0x00,0x35,0x49,0x33,0x80,0x3a,0x40,0x00,0x2e,0x40,0x00,0x35,0x49,0x09,
0x90,0x3a,0x40,0x00,0x2e,0x40,0x00,0x35,0x40,0x33,0x80,0x3a,0x40,0x00,0x2e,0x40,
0x00,0x35,0x40,0x09,0x90,0x33,0x3c,0x00,0x27,0x49,0x33,0x80,0x33,0x3c,0x00,0x27,
0x49,0x09,0x90,0x2b,0x40,0x00,0x37,0x49,0x33,0x80,0x2b,0x40,0x00,0x37,0x49,0x09,
0x90,0x38,0x40,0x00,0x2c,0x49,0x33,0x80,0x38,0x40,0x00,0x2c,0x49,0x09,0x90,0x33,
0x40,0x00,0x3c,0x40,0x00,0x38,0x3c,0x33,0x80,0x33,0x40,0x00,0x3c,0x40,0x00,0x38,
0x3c,0x09,0x90,0x33,0x49,0x00,0x3c,0x49,0x00,0x38,0x49,0x33,0x80,0x33,0x49,0x00,
0x3c,0x49,0x00,0x38,0x49,0x09,0x90,0x39,0x3c,0x00,0x2d,0x40,0x33,0x80,0x39,0x3c,
0x00,0x2d,0x40,0x09,0x90,0x3a,0x40,0x00,0x2e,0x49,0x33,0x80,0x3a,0x40,0x00,0x2e,
0x49,0x09,0x90,0x3d,0x40,0x00,0x33,0x3c,0x00,0x37,0x49,0x33,0x80,0x3d,0x40,0x00,
0x33,0x3c,0x00,0x37,0x49,0x09,0x90,0x33,0x40,0x00,0x27,0x49,0x33,0x80,0x33,0x40,
0x00,0x27,0x49,0x09,0x90,0x3d,0x40,0x00,0x33,0x40,0x00,0x37,0x49,0x33,0x80,0x3d,
0x40,0x00,0x33,0x40,0x00,0x37,0x49,0x09,0x90,0x3a,0x40,0x00,0x2e,0x3c,0x33,0x80,
0x3a,0x40,0x00,0x2e,0x3c,0x09,0x90,0x3d,0x40,0x00,0x33,0x3c,0x00,0x37,0x52,0x33,
0x80,0x3d,0x40,0x00,0x33,0x3c,0x00,0x37,0x52,0x09,0x90,0x33,0x3c,0x00,0x27,0x49,
0x33,0x80,0x33,0x3c,0x00,0x27,0x49,0x09,0x90,0x2b,0x3c,0x00,0x37,0x40,0x33,0x80,
0x2b,0x3c,0x00,0x37,0x40,0x09,0x90,0x38,0x40,0x00,0x2c,0x49,0x33,0x80,0x38,0x40,
0x00,0x2c,0x49,0x09,0x90,0x33,0x3c,0x00,0x3c,0x40,0x00,0x38,0x40,0x33,0x80,0x33,
0x3c,0x00,0x3c,0x40,0x00,0x38,0x40,0x09,0x90,0x33,0x3c,0x00,0x27,0x3c,0x33,0x80,
0x33,0x3c,0x00,0x27,0x3c,0x09,0x90,0x33,0x40,0x00,0x3c,0x49,0x00,0x38,0x40,0x33,
0x80,0x33,0x40,0x00,0x3c,0x49,0x00,0x38,0x40,0x09,0x90,0x38,0x40,0x00,0x2c,0x40,
0x33,0x80,0x38,0x40,0x00,0x2c,0x40,0x09,0x90,0x33,0x40,0x00,0x3c,0x40,0x00,0x38,
0x40,0x33,0x80,0x33,0x40,0x00,0x3c,0x40,0x00,0x38,0x40,0x09,0x90,0x38,0x40,0x00,
0x2c,0x49,0x33,0x80,0x38,0x40,0x00,0x2c,0x49,0x09,0x90,0x2d,0x40,0x00,0x39,0x40,
0x33,0x80,0x2d,0x40,0x00,0x39,0x40,0x09,0x90,0x3a,0x40,0x00,0x2e,0x49,0x33,0x80,
0x3a,0x40,0x00,0x2e,0x49,0x09,0x90,0x3d,0x3c,0x00,0x33,0x30,0x00,0x37,0x49,0x33,
0x80,0x3d,0x3c,0x00,0x33,0x30,0x00,0x37,0x49,0x09,0x90,0x33,0x40,0x00,0x27,0x49,
0x33,0x80,0x33,0x40,0x00,0x27,0x49,0x09,0x90,0x3d,0x40,0x00,0x33,0x40,0x00,0x37,
0x49,0x33,0x80,0x3d,0x40,0x00,0x33,0x40,0x00,0x37,0x49,0x09,0x90,0x3a,0x40,0x00,
0x2e,0x52,0x33,0x80,0x3a,0x40,0x00,0x2e,0x52,0x09,0x90,0x3d,0x40,0x00,0x33,0x34,
0x00,0x37,0x3c,0x33,0x80,0x3d,0x40,0x00,0x33,0x34,0x00,0x37,0x3c,0x09,0x90,0x3a,
0x40,0x00,0x2e,0x49,0x33,0x80,0x3a,0x40,0x00,0x2e,0x49,0x09,0x90,0x2f,0x40,0x00,
0x3b,0x49,0x33,0x80,0x2f,0x40,0x00,0x3b,0x49,0x09,0x90,0x30,0x49,0x00,0x3c,0x49,
0x33,0x80,0x30,0x49,0x00,0x3c,0x49,0x09,0x90,0x3c,0x52,0x00,0x33,0x49,0x00,0x38,
0x40,0x33,0x80,0x3c,0x52,0x00,0x33,0x49,0x00,0x38,0x40,0x09,0x90,0x33,0x3c,0x00,
0x27,0x40,0x33,0x80,0x33,0x3c,0x00,0x27,0x40,0x09,0x90,0x33,0x40,0x00,0x3c,0x40,
0x00,0x38,0x40,0x33,0x80,0x33,0x40,0x00,0x3c,0x40,0x00,0x38,0x40,0x09,0x90,0x38,
0x49,0x00,0x2c,0x49,0x33,0x80,0x38,0x49,0x00,0x2c,0x49,0x09,0x90,0x3c,0x40,0x00,
0x33,0x49,0x00,0x38,0x3c,0x33,0x80,0x3c,0x40,0x00,0x33,0x49,0x00,0x38,0x3c,0x09,
0x90,0x38,0x40,0x00,0x2c,0x49,0x33,0x80,0x38,0x40,0x00,0x2c,0x49,0x09,0x90,0x2d,
0x40,0x00,0x39,0x49,0x33,0x80,0x2d,0x40,0x00,0x39,0x49,0x09,0x90,0x3a,0x40,0x00,
0x2e,0x49,0x33,0x80,0x3a,0x40,0x00,0x2e,0x49,0x09,0x90,0x3d,0x40,0x00,0x33,0x3c,
0x00,0x37,0x49,0x33,0x80,0x3d,0x40,0x00,0x33,0x3c,0x00,0x37,0x49,0x09,0x90,0x33,
0x3c,0x00,0x27,0x40,0x33,0x80,0x33,0x3c,0x00,0x27,0x40,0x09,0x90,0x3d,0x49,0x00,
0x33,0x40,0x00,0x37,0x52,0x33,0x80,0x3d,0x49,0x00,0x33,0x40,0x00,0x37,0x52,0x09,
0x90,0x3a,0x40,0x00,0x2e,0x49,0x33,0x80,0x3a,0x40,0x00,0x2e,0x49,0x09,0x90,0x3d,
0x40,0x00,0x33,0x38,0x00,0x37,0x49,0x33,0x80,0x3d,0x40,0x00,0x33,0x38,0x00,0x37,
0x49,0x09,0x90,0x33,0x38,0x00,0x27,0x40,0x33,0x80,0x33,0x38,0x00,0x27,0x40,0x09,
0x90,0x2b,0x40,0x00,0x37,0x40,0x33,0x80,0x2b,0x40,0x00,0x37,0x40,0x09,0x90,0x38,
0x40,0x00,0x2c,0x52,0x33,0x80,0x38,0x40,0x00,0x2c,0x52,0x09,0x90,0x33,0x40,0x00,
0x3c,0x40,0x00,0x38,0x3c,0x33,0x80,0x33,0x40,0x00,0x3c,0x40,0x00,0x38,0x3c,0x09,
0x90,0x33,0x38,0x00,0x27,0x40,0x33,0x80,0x33,0x38,0x00,0x27,0x40,0x09,0x90,0x33,
0x40,0x00,0x3c,0x49,0x00,0x38,0x40,0x33,0x80,0x33,0x40,0x00,0x3c,0x49,0x00,0x38,
0x40,0x09,0x90,0x38,0x49,0x00,0x2c,0x52,0x33,0x80,0x38,0x49,0x00,0x2c,0x52,0x09,
0x90,0x38,0x40,0x00,0x2c,0x52,0x33,0x80,0x38,0x40,0x00,0x2c,0x52,0x09,0x90,0x2b,
0x3c,0x00,0x37,0x49,0x33,0x80,0x2b,0x3c,0x00,0x37,0x49,0x09,0x90,0x36,0x40,0x00,
0x2a,0x52,0x33,0x80,0x36,0x40,0x00,0x2a,0x52,0x09,0x90,0x29,0x49,0x00,0x35,0x49,
0x33,0x80,0x29,0x49,0x00,0x35,0x49,0x09,0x90,0x29,0x49,0x00,0x35,0x49,0x33,0x80,
0x29,0x49,0x00,0x35,0x49,0x09,0x90,0x39,0x40,0x00,0x2d,0x3c,0x33,0x80,0x39,0x40,
0x00,0x2d,0x3c,0x09,0x90,0x39,0x40,0x00,0x2d,0x3c,0x33,0x80,0x39,0x40,0x00,0x2d,
0x3c,0x09,0x90,0x3a,0x49,0x00,0x2e,0x49,0x33,0x80,0x3a,0x49,0x00,0x2e,0x49,0x09,
0x90,0x3d,0x40,0x00,0x35,0x49,0x00,0x3a,0x3c,0x33,0x80,0x3d,0x40,0x00,0x35,0x49,
0x00,0x3a,0x3c,0x09,0x90,0x3d,0x40,0x00,0x35,0x49,0x00,0x3a,0x3c,0x33,0x80,0x3d,
0x40,0x00,0x35,0x49,0x00,0x3a,0x3c,0x09,0x90,0x3d,0x3c,0x00,0x35,0x40,0x00,0x3a,
0x3c,0x33,0x80,0x3d,0x3c,0x00,0x35,0x40,0x00,0x3a,0x3c,0x09,0x90,0x3a,0x40,0x00,
0x2e,0x40,0x00,0x35,0x49,0x33,0x80,0x3a,0x40,0x00,0x2e,0x40,0x00,0x35,0x49,0x09,
0x90,0x3a,0x40,0x00,0x2e,0x40,0x00,0x35,0x40,0x33,0x80,0x3a,0x40,0x00,0x2e,0x40,
0x00,0x35,0x40,0x09,0x90,0x33,0x3c,0x00,0x27,0x49,0x33,0x80,0x33,0x3c,0x00,0x27,
0x49,0x09,0x90,0x2b,0x40,0x00,0x37,0x49,0x33,0x80,0x2b,0x40,0x00,0x37,0x49,0x09,
0x90,0x38,0x40,0x00,0x2c,0x49,0x33,0x80,0x38,0x40,0x00,0x2c,0x49,0x09,0x90,0x38,
0x40,0x00,0x3f,0x3c,0x00,0x3c,0x40,0x33,0x80,0x38,0x40,0x00,0x3f,0x3c,0x00,0x3c,
0x40,0x09,0x90,0x3f,0x40,0x00,0x38,0x40,0x00,0x3c,0x49,0x33,0x80,0x3f,0x40,0x00,
0x38,0x40,0x00,0x3c,0x49,0x09,0x90,0x33,0x40,0x00,0x27,0x5b,0x33,0x80,0x33,0x40,
0x00,0x27,0x5b,0x09,0x90,0x38,0x49,0x00,0x2c,0x49,0x33,0x80,0x38,0x49,0x00,0x2c,
0x49,0x09,0x90,0x33,0x38,0x00,0x3c,0x40,0x00,0x38,0x3c,0x33,0x80,0x33,0x38,0x00,
0x3c,0x40,0x00,0x38,0x3c,0x09,0x90,0x33,0x40,0x00,0x3c,0x49,0x00,0x38,0x40,0x33,
0x80,0x33,0x40,0x00,0x3c,0x49,0x00,0x38,0x40,0x09,0x90,0x39,0x49,0x00,0x2d,0x49,
0x33,0x80,0x39,0x49,0x00,0x2d,0x49,0x09,0x90,0x3a,0x40,0x00,0x2e,0x49,0x33,0x80,
0x3a,0x40,0x00,0x2e,0x49,0x09,0x90,0x3d,0x40,0x00,0x33,0x3c,0x00,0x37,0x49,0x33,
0x80,0x3d,0x40,0x00,0x33,0x3c,0x00,0x37,0x49,0x09,0x90,0x3d,0x49,0x00,0x33,0x38,
0x00,0x37,0x40,0x33,0x80,0x3d,0x49,0x00,0x33,0x38,0x00,0x37,0x40,0x09,0x90,0x33,
0x40,0x00,0x27,0x49,0x33,0x80,0x33,0x40,0x00,0x27,0x49,0x09,0x90,0x38,0x49,0x00,
0x2c,0x49,0x33,0x80,0x38,0x49,0x00,0x2c,0x49,0x09,0x90,0x3c,0x40,0x00,0x33,0x34,
0x00,0x38,0x40,0x33,0x80,0x3c,0x40,0x00,0x33,0x34,0x00,0x38,0x40,0x09,0x90,0x33,
0x3c,0x00,0x3c,0x40,0x00,0x38,0x40,0x33,0x80,0x33,0x3c,0x00,0x3c,0x40,0x00,0x38,
0x40,0x09,0x90,0x2d,0x3c,0x00,0x39,0x40,0x33,0x80,0x2d,0x3c,0x00,0x39,0x40,0x09,
0x90,0x3a,0x40,0x00,0x2e,0x49,0x33,0x80,0x3a,0x40,0x00,0x2e,0x49,0x09,0x90,0x33,
0x40,0x00,0x3d,0x40,0x00,0x37,0x49,0x33,0x80,0x33,0x40,0x00,0x3d,0x40,0x00,0x37,
0x49,0x09,0x90,0x3d,0x40,0x00,0x33,0x3c,0x00,0x37,0x52,0x33,0x80,0x3d,0x40,0x00,
0x33,0x3c,0x00,0x37,0x52,0x09,0x90,0x33,0x3c,0x00,0x27,0x49,0x33,0x80,0x33,0x3c,
0x00,0x27,0x49,0x09,0x90,0x34,0x49,0x00,0x28,0x49,0x6f,0x80,0x34,0x49,0x00,0x28,
0x49,0x09,0x90,0x33,0x3c,0x00,0x27,0x38,0x33,0x80,0x33,0x3c,0x00,0x27,0x38,0x09,
0x90,0x33,0x3c,0x00,0x27,0x40,0x33,0x80,0x33,0x3c,0x00,0x27,0x40,0x09,0x90,0x34,
0x49,0x00,0x28,0x40,0x6f,0x80,0x34,0x49,0x00,0x28,0x40,0x09,0x90,0x33,0x40,0x00,
0x27,0x49,0x33,0x80,0x33,0x40,0x00,0x27,0x49,0x45,0x90,0x20,0x5b,0x33,0x80,0x20,
0x5b,0x45,0x90,0x2c,0x52,0x33,0x80,0x2c,0x52,0x45,0x90,0x38,0x52,0x33,0x80,0x38,
0x52,0x45,0x90,0x44,0x5b,0x33,0x80,0x44,0x5b,0x45,0x90,0x41,0x40,0x00,0x47,0x3c,
0x00,0x3e,0x49,0x00,0x44,0x3c,0x33,0x80,0x41,0x40,0x00,0x47,0x3c,0x00,0x3e,0x49,
0x00,0x44,0x3c,0x09,0x90,0x47,0x40,0x00,0x44,0x3c,0x00,0x41,0x3c,0x00,0x3e,0x40,
0x33,0x80,0x47,0x40,0x00,0x44,0x3c,0x00,0x41,0x3c,0x00,0x3e,0x40,0x09,0x90,0x47,
0x40,0x00,0x44,0x38,0x00,0x3e,0x40,0x00,0x41,0x3c,0x33,0x80,0x47,0x40,0x00,0x44,
0x38,0x00,0x3e,0x40,0x00,0x41,0x3c,0x09,0x90,0x47,0x40,0x00,0x44,0x38,0x00,0x41,
0x3c,0x00,0x3e,0x38,0x33,0x80,0x47,0x40,0x00,0x44,0x38,0x00,0x41,0x3c,0x00,0x3e,
0x38,0x09,0x90,0x3f,0x3c,0x00,0x48,0x40,0x00,0x44,0x3c,0x33,0x80,0x3f,0x3c,0x00,
0x48,0x40,0x00,0x44,0x3c,0x09,0x90,0x3f,0x49,0x00,0x44,0x40,0x00,0x48,0x52,0x33,
0x80,0x3f,0x49,0x00,0x44,0x40,0x00,0x48,0x52,0x09,0x90,0x3f,0x52,0x00,0x44,0x40,
0x00,0x48,0x40,0x33,0x80,0x3f,0x52,0x00,0x44,0x40,0x00,0x48,0x40,0x09,0x90,0x3f,
0x49,0x00,0x44,0x40,0x00,0x48,0x49,0x33,0x80,0x3f,0x49,0x00,0x44,0x40,0x00,0x48,
0x49,0x09,0x90,0x44,0x49,0x00,0x40,0x52,0x00,0x47,0x49,0x33,0x80,0x44,0x49,0x00,
0x40,0x52,0x00,0x47,0x49,0x09,0x90,0x47,0x52,0x00,0x40,0x52,0x00,0x44,0x49,0x33,
0x80,0x47,0x52,0x00,0x40,0x52,0x00,0x44,0x49,0x09,0x90,0x44,0x49,0x00,0x3f,0x52,
0x00,0x48,0x49,0x33,0x80,0x44,0x49,0x00,0x3f,0x52,0x00,0x48,0x49,0x09,0x90,0x3f,
0x49,0x00,0x48,0x49,0x00,0x44,0x49,0x33,0x80,0x3f,0x49,0x00,0x48,0x49,0x00,0x44,
0x49,0x09,0x90,0x3f,0x52,0x00,0x44,0x49,0x00,0x48,0x52,0x33,0x80,0x3f,0x52,0x00,
0x44,0x49,0x00,0x48,0x52,0x09,0x90,0x43,0x52,0x00,0x3f,0x40,0x00,0x49,0x40,0x33,
0x80,0x43,0x52,0x00,0x3f,0x40,0x00,0x49,0x40,0x09,0x90,0x44,0x40,0x00,0x48,0x49,
0x33,0x80,0x44,0x40,0x00,0x48,0x49,0x45,0x90,0x3b,0x49,0x00,0x35,0x49,0x00,0x32,
0x49,0x00,0x38,0x40,0x33,0x80,0x3b,0x49,0x00,0x35,0x49,0x00,0x32,0x49,0x00,0x38,
0x40,0x09,0x90,0x35,0x49,0x00,0x3b,0x40,0x00,0x38,0x40,0x00,0x32,0x49,0x33,0x80,
0x35,0x49,0x00,0x3b,0x40,0x00,0x38,0x40,0x00,0x32,0x49,0x09,0x90,0x35,0x40,0x00,
0x3b,0x40,0x00,0x38,0x3c,0x00,0x32,0x3c,0x33,0x80,0x35,0x40,0x00,0x3b,0x40,0x00,
0x38,0x3c,0x00,0x32,0x3c,0x09,0x90,0x35,0x40,0x00,0x32,0x49,0x00,0x3b,0x49,0x00,
0x38,0x40,0x33,0x80,0x35,0x40,0x00,0x32,0x49,0x00,0x3b,0x49,0x00,0x38,0x40,0x09,
0x90,0x33,0x52,0x00,0x38,0x49,0x00,0x3c,0x49,0x33,0x80,0x33,0x52,0x00,0x38,0x49,
0x00,0x3c,0x49,0x09,0x90,0x33,0x49,0x00,0x3c,0x52,0x00,0x38,0x49,0x33,0x80,0x33,
0x49,0x00,0x3c,0x52,0x00,0x38,0x49,0x09,0x90,0x33,0x52,0x00,0x38,0x49,0x00,0x3c,
0x52,0x33,0x80,0x33,0x52,0x00,0x38,0x49,0x00,0x3c,0x52,0x09,0x90,0x33,0x49,0x00,
0x38,0x49,0x00,0x3c,0x52,0x33,0x80,0x33,0x49,0x00,0x38,0x49,0x00,0x3c,0x52,0x09,
0x90,0x34,0x49,0x00,0x3b,0x40,0x00,0x38,0x40,0x33,0x80,0x34,0x49,0x00,0x3b,0x40,
0x00,0x38,0x40,0x09,0x90,0x34,0x49,0x00,0x38,0x49,0x00,0x3b,0x52,0x33,0x80,0x34,
0x49,0x00,0x38,0x49,0x00,0x3b,0x52,0x09,0x90,0x33,0x49,0x00,0x38,0x49,0x00,0x3c,
0x49,0x33,0x80,0x33,0x49,0x00,0x38,0x49,0x00,0x3c,0x49,0x09,0x90,0x33,0x49,0x00,
0x38,0x40,0x00,0x3c,0x49,0x33,0x80,0x33,0x49,0x00,0x38,0x40,0x00,0x3c,0x49,0x09,
0x90,0x33,0x49,0x00,0x3c,0x49,0x00,0x38,0x40,0x33,0x80,0x33,0x49,0x00,0x3c,0x49,
0x00,0x38,0x40,0x09,0x90,0x3d,0x40,0x00,0x33,0x40,0x00,0x37,0x52,0x33,0x80,0x3d,
0x40,0x00,0x33,0x40,0x00,0x37,0x52,0x09,0x90,0x38,0x40,0x00,0x3c,0x49,0x33,0x80,
0x38,0x40,0x00,0x3c,0x49,0x45,0x90,0x27,0x40,0x00,0x33,0x49,0x33,0x80,0x27,0x40,
0x00,0x33,0x49,0x09,0x90,0x42,0x3c,0x00,0x38,0x40,0x00,0x3c,0x52,0x33,0x80,0x42,
0x3c,0x00,0x38,0x40,0x00,0x3c,0x52,0x09,0x90,0x2a,0x49,0x00,0x36,0x52,0x33,0x80,
0x2a,0x49,0x00,0x36,0x52,0x09,0x90,0x42,0x3c,0x00,0x38,0x3c,0x00,0x3c,0x49,0x33,
0x80,0x42,0x3c,0x00,0x38,0x3c,0x00,0x3c,0x49,0x09,0x90,0x29,0x40,0x00,0x35,0x40,
0x33,0x80,0x29,0x40,0x00,0x35,0x40,0x09,0x90,0x42,0x3c,0x00,0x38,0x40,0x00,0x3c,
0x52,0x33,0x80,0x42,0x3c,0x00,0x38,0x40,0x00,0x3c,0x52,0x09,0x90,0x27,0x3c,0x00,
0x33,0x40,0x33,0x80,0x27,0x3c,0x00,0x33,0x40,0x09,0x90,0x24,0x49,0x00,0x30,0x40,
0x33,0x80,0x24,0x49,0x00,0x30,0x40,0x09,0x90,0x25,0x40,0x00,0x31,0x52,0x33,0x80,
0x25,0x40,0x00,0x31,0x52,0x09,0x90,0x38,0x38,0x00,0x41,0x38,0x00,0x3d,0x38,0x33,
0x80,0x38,0x38,0x00,0x41,0x38,0x00,0x3d,0x38,0x09,0x90,0x2c,0x40,0x00,0x38,0x40,
0x33,0x80,0x2c,0x40,0x00,0x38,0x40,0x09,0x90,0x38,0x38,0x00,0x41,0x3c,0x00,0x3d,
0x3c,0x33,0x80,0x38,0x38,0x00,0x41,0x3c,0x00,0x3d,0x3c,0x09,0x90,0x29,0x40,0x00,
0x35,0x40,0x33,0x80,0x29,0x40,0x00,0x35,0x40,0x09,0x90,0x38,0x3c,0x00,0x3d,0x38,
0x00,0x41,0x38,0x33,0x80,0x38,0x3c,0x00,0x3d,0x38,0x00,0x41,0x38,0x09,0x90,0x25,
0x38,0x00,0x31,0x40,0x33,0x80,0x25,0x38,0x00,0x31,0x40,0x09,0x90,0x26,0x3c,0x00,
0x32,0x38,0x33,0x80,0x26,0x3c,0x00,0x32,0x38,0x09,0x90,0x27,0x3c,0x00,0x33,0x40,
0x33,0x80,0x27,0x3c,0x00,0x33,0x40,0x09,0x90,0x42,0x3c,0x00,0x38,0x40,0x00,0x3c,
0x49,0x33,0x80,0x42,0x3c,0x00,0x38,0x40,0x00,0x3c,0x49,0x09,0x90,0x36,0x40,0x00,
0x33,0x40,0x00,0x2a,0x3c,0x33,0x80,0x36,0x40,0x00,0x33,0x40,0x00,0x2a,0x3c,0x09,
0x90,0x42,0x38,0x00,0x38,0x3c,0x00,0x3c,0x40,0x33,0x80,0x42,0x38,0x00,0x38,0x3c,
0x00,0x3c,0x40,0x09,0x90,0x29,0x49,0x00,0x35,0x40,0x33,0x80,0x29,0x49,0x00,0x35,
0x40,0x09,0x90,0x42,0x3c,0x00,0x38,0x3c,0x00,0x3c,0x49,0x33,0x80,0x42,0x3c,0x00,
0x38,0x3c,0x00,0x3c,0x49,0x09,0x90,0x27,0x3c,0x00,0x33,0x38,0x33,0x80,0x27,0x3c,
0x00,0x33,0x38,0x09,0x90,0x24,0x40,0x00,0x30,0x40,0x33,0x80,0x24,0x40,0x00,0x30,
0x40,0x09,0x90,0x25,0x3c,0x00,0x31,0x40,0x33,0x80,0x25,0x3c,0x00,0x31,0x40,0x09,
0x90,0x38,0x38,0x00,0x3d,0x3c,0x00,0x41,0x3c,0x33,0x80,0x38,0x38,0x00,0x3d,0x3c,
0x00,0x41,0x3c,0x09,0x90,0x2c,0x3c,0x00,0x38,0x3c,0x33,0x80,0x2c,0x3c,0x00,0x38,
0x3c,0x09,0x90,0x38,0x38,0x00,0x41,0x3c,0x00,0x3d,0x3c,0x33,0x80,0x38,0x38,0x00,
0x41,0x3c,0x00,0x3d,0x3c,0x09,0x90,0x29,0x40,0x00,0x35,0x40,0x33,0x80,0x29,0x40,
0x00,0x35,0x40,0x09,0x90,0x38,0x38,0x00,0x41,0x3c,0x00,0x3d,0x3c,0x33,0x80,0x38,
0x38,0x00,0x41,0x3c,0x00,0x3d,0x3c,0x09,0x90,0x25,0x40,0x00,0x31,0x49,0x33,0x80,
0x25,0x40,0x00,0x31,0x49,0x09,0x90,0x24,0x3c,0x00,0x30,0x40,0x33,0x80,0x24,0x3c,
0x00,0x30,0x40,0x09,0x90,0x22,0x49,0x00,0x2e,0x40,0x33,0x80,0x22,0x49,0x00,0x2e,
0x40,0x09,0x90,0x44,0x40,0x00,0x3a,0x3c,0x00,0x3e,0x49,0x33,0x80,0x44,0x40,0x00,
0x3a,0x3c,0x00,0x3e,0x49,0x09,0x90,0x26,0x49,0x00,0x32,0x3c,0x33,0x80,0x26,0x49,
0x00,0x32,0x3c,0x09,0x90,0x44,0x40,0x00,0x3a,0x3c,0x00,0x3e,0x49,0x33,0x80,0x44,
0x40,0x00,0x3a,0x3c,0x00,0x3e,0x49,0x09,0x90,0x29,0x49,0x00,0x35,0x49,0x33,0x80,
0x29,0x49,0x00,0x35,0x49,0x09,0x90,0x3a,0x40,0x00,0x44,0x3c,0x00,0x3e,0x40,0x33,
0x80,0x3a,0x40,0x00,0x44,0x3c,0x00,0x3e,0x40,0x09,0x90,0x3a,0x40,0x00,0x2e,0x40,
0x33,0x80,0x3a,0x40,0x00,0x2e,0x40,0x09,0x90,0x44,0x3c,0x00,0x3a,0x3c,0x00,0x3e,
0x49,0x33,0x80,0x44,0x3c,0x00,0x3a,0x3c,0x00,0x3e,0x49,0x09,0x90,0x33,0x52,0x00,
0x27,0x40,0x33,0x80,0x33,0x52,0x00,0x27,0x40,0x09,0x90,0x3a,0x3c,0x00,0x42,0x3c,
0x00,0x3f,0x38,0x33,0x80,0x3a,0x3c,0x00,0x42,0x3c,0x00,0x3f,0x38,0x09,0x90,0x36,
0x49,0x00,0x2a,0x40,0x33,0x80,0x36,0x49,0x00,0x2a,0x40,0x09,0x90,0x3a,0x40,0x00,
0x42,0x3c,0x00,0x3f,0x38,0x33,0x80,0x3a,0x40,0x00,0x42,0x3c,0x00,0x3f,0x38,0x09,
0x90,0x33,0x49,0x00,0x27,0x40,0x33,0x80,0x33,0x49,0x00,0x27,0x40,0x09,0x90,0x3a,
0x40,0x00,0x42,0x3c,0x00,0x3f,0x3c,0x33,0x80,0x3a,0x40,0x00,0x42,0x3c,0x00,0x3f,
0x3c,0x09,0x90,0x2a,0x40,0x00,0x36,0x49,0x33,0x80,0x2a,0x40,0x00,0x36,0x49,0x09,
0x90,0x3a,0x3c,0x00,0x3f,0x40,0x00,0x42,0x3c,0x33,0x80,0x3a,0x3c,0x00,0x3f,0x40,
0x00,0x42,0x3c,0x09,0x90,0x37,0x38,0x15,0x80,0x37,0x38,0x09,0x90,0x3a,0x49,0x33,
0x80,0x3a,0x49,0x09,0x90,0x3d,0x40,0x15,0x80,0x3d,0x40,0x09,0x90,0x40,0x49,0x15,
0x80,0x40,0x49,0x09,0x90,0x3d,0x40,0x15,0x80,0x3d,0x40,0x09,0x90,0x3a,0x49,0x15,
0x80,0x3a,0x49,0x09,0x90,0x37,0x40,0x15,0x80,0x37,0x40,0x09,0x90,0x38,0x49,0x00,
0x2c,0x40,0x33,0x80,0x38,0x49,0x00,0x2c,0x40,0x09,0x90,0x3d,0x3c,0x00,0x41,0x3c,
0x00,0x38,0x3c,0x33,0x80,0x3d,0x3c,0x00,0x41,0x3c,0x00,0x38,0x3c,0x09,0x90,0x2e,
0x5b,0x33,0x80,0x2e,0x5b,0x09,0x90,0x3a,0x49,0x00,0x3e,0x49,0x00,0x38,0x40,0x33,
0x80,0x3a,0x49,0x00,0x3e,0x49,0x00,0x38,0x40,0x09,0x90,0x3d,0x49,0x00,0x33,0x40,
0x00,0x3a,0x40,0x33,0x80,0x3d,0x49,0x00,0x33,0x40,0x00,0x3a,0x40,0x09,0x90,0x33,
0x40,0x00,0x3d,0x49,0x00,0x3a,0x40,0x33,0x80,0x33,0x40,0x00,0x3d,0x49,0x00,0x3a,
0x40,0x09,0x90,0x38,0x49,0x00,0x3c,0x49,0x33,0x80,0x38,0x49,0x00,0x3c,0x49,0x09,
0x90,0x38,0x40,0x00,0x3c,0x49,0x33,0x80,0x38,0x40,0x00,0x3c,0x49,0x09,0x90,0x3d,
0x40,0x00,0x31,0x49,0x33,0x80,0x3d,0x40,0x00,0x31,0x49,0x09,0x90,0x38,0x49,0x00,
0x41,0x40,0x00,0x3d,0x40,0x33,0x80,0x38,0x49,0x00,0x41,0x40,0x00,0x3d,0x40,0x09,
0x90,0x38,0x52,0x00,0x3d,0x40,0x00,0x41,0x49,0x33,0x80,0x38,0x52,0x00,0x3d,0x40,
0x00,0x41,0x49,0x09,0x90,0x32,0x49,0x00,0x26,0x49,0x33,0x80,0x32,0x49,0x00,0x26,
0x49,0x09,0x90,0x27,0x40,0x00,0x33,0x49,0x33,0x80,0x27,0x40,0x00,0x33,0x49,0x09,
0x90,0x42,0x3c,0x00,0x38,0x40,0x00,0x3c,0x52,0x33,0x80,0x42,0x3c,0x00,0x38,0x40,
0x00,0x3c,0x52,0x09,0x90,0x2a,0x49,0x00,0x36,0x52,0x33,0x80,0x2a,0x49,0x00,0x36,
0x52,0x09,0x90,0x42,0x3c,0x00,0x38,0x3c,0x00,0x3c,0x49,0x33,0x80,0x42,0x3c,0x00,
0x38,0x3c,0x00,0x3c,0x49,0x09,0x90,0x29,0x40,0x00,0x35,0x40,0x33,0x80,0x29,0x40,
0x00,0x35,0x40,0x09,0x90,0x42,0x3c,0x00,0x38,0x40,0x00,0x3c,0x52,0x33,0x80,0x42,
0x3c,0x00,0x38,0x40,0x00,0x3c,0x52,0x09,0x90,0x27,0x3c,0x00,0x33,0x40,0x33,0x80,
0x27,0x3c,0x00,0x33,0x40,0x09,0x90,0x24,0x49,0x00,0x30,0x40,0x33,0x80,0x24,0x49,
0x00,0x30,0x40,0x09,0x90,0x25,0x40,0x00,0x31,0x52,0x33,0x80,0x25,0x40,0x00,0x31,
0x52,0x09,0x90,0x38,0x38,0x00,0x41,0x38,0x00,0x3d,0x38,0x33,0x80,0x38,0x38,0x00,
0x41,0x38,0x00,0x3d,0x38,0x09,0x90,0x2c,0x40,0x00,0x38,0x40,0x33,0x80,0x2c,0x40,
0x00,0x38,0x40,0x09,0x90,0x38,0x38,0x00,0x41,0x3c,0x00,0x3d,0x3c,0x33,0x80,0x38,
0x38,0x00,0x41,0x3c,0x00,0x3d,0x3c,0x09,0x90,0x29,0x40,0x00,0x35,0x40,0x33,0x80,
0x29,0x40,0x00,0x35,0x40,0x09,0x90,0x38,0x3c,0x00,0x3d,0x38,0x00,0x41,0x38,0x33,
0x80,0x38,0x3c,0x00,0x3d,0x38,0x00,0x41,0x38,0x09,0x90,0x25,0x38,0x00,0x31,0x40,
0x33,0x80,0x25,0x38,0x00,0x31,0x40,0x09,0x90,0x26,0x3c,0x00,0x32,0x38,0x33,0x80,
0x26,0x3c,0x00,0x32,0x38,0x09,0x90,0x27,0x3c,0x00,0x33,0x40,0x33,0x80,0x27,0x3c,
0x00,0x33,0x40,0x09,0x90,0x42,0x3c,0x00,0x38,0x40,0x00,0x3c,0x49,0x33,0x80,0x42,
0x3c,0x00,0x38,0x40,0x00,0x3c,0x49,0x09,0x90,0x36,0x40,0x00,0x33,0x40,0x00,0x2a,
0x3c,0x33,0x80,0x36,0x40,0x00,0x33,0x40,0x00,0x2a,0x3c,0x09,0x90,0x42,0x38,0x00,
0x38,0x3c,0x00,0x3c,0x40,0x33,0x80,0x42,0x38,0x00,0x38,0x3c,0x00,0x3c,0x40,0x09,
0x90,0x29,0x49,0x00,0x35,0x40,0x33,0x80,0x29,0x49,0x00,0x35,0x40,0x09,0x90,0x42,
0x3c,0x00,0x38,0x3c,0x00,0x3c,0x49,0x33,0x80,0x42,0x3c,0x00,0x38,0x3c,0x00,0x3c,
0x49,0x09,0x90,0x27,0x3c,0x00,0x33,0x38,0x33,0x80,0x27,0x3c,0x00,0x33,0x38,0x09,
0x90,0x24,0x40,0x00,0x30,0x40,0x33,0x80,0x24,0x40,0x00,0x30,0x40,0x09,0x90,0x25,
0x3c,0x00,0x31,0x40,0x33,0x80,0x25,0x3c,0x00,0x31,0x40,0x09,0x90,0x38,0x38,0x00,
0x3d,0x3c,0x00,0x41,0x3c,0x33,0x80,0x38,0x38,0x00,0x3d,0x3c,0x00,0x41,0x3c,0x09,
0x90,0x2c,0x3c,0x00,0x38,0x3c,0x33,0x80,0x2c,0x3c,0x00,0x38,0x3c,0x09,0x90,0x38,
0x38,0x00,0x41,0x3c,0x00,0x3d,0x3c,0x33,0x80,0x38,0x38,0x00,0x41,0x3c,0x00,0x3d,
0x3c,0x09,0x90,0x29,0x40,0x00,0x35,0x40,0x33,0x80,0x29,0x40,0x00,0x35,0x40,0x09,
0x90,0x38,0x38,0x00,0x41,0x3c,0x00,0x3d,0x3c,0x33,0x80,0x38,0x38,0x00,0x41,0x3c,
0x00,0x3d,0x3c,0x09,0x90,0x25,0x40,0x00,0x31,0x49,0x33,0x80,0x25,0x40,0x00,0x31,
0x49,0x09,0x90,0x24,0x3c,0x00,0x30,0x40,0x33,0x80,0x24,0x3c,0x00,0x30,0x40,0x09,
0x90,0x22,0x49,0x00,0x2e,0x40,0x33,0x80,0x22,0x49,0x00,0x2e,0x40,0x09,0x90,0x44,
0x40,0x00,0x3a,0x3c,0x00,0x3e,0x49,0x33,0x80,0x44,0x40,0x00,0x3a,0x3c,0x00,0x3e,
0x49,0x09,0x90,0x26,0x49,0x00,0x32,0x3c,0x33,0x80,0x26,0x49,0x00,0x32,0x3c,0x09,
0x90,0x44,0x40,0x00,0x3a,0x3c,0x00,0x3e,0x49,0x33,0x80,0x44,0x40,0x00,0x3a,0x3c,
0x00,0x3e,0x49,0x09,0x90,0x29,0x49,0x00,0x35,0x49,0x33,0x80,0x29,0x49,0x00,0x35,
0x49,0x09,0x90,0x3a,0x40,0x00,0x44,0x3c,0x00,0x3e,0x40,0x33,0x80,0x3a,0x40,0x00,
0x44,0x3c,0x00,0x3e,0x40,0x09,0x90,0x3a,0x40,0x00,0x2e,0x40,0x33,0x80,0x3a,0x40,
0x00,0x2e,0x40,0x09,0x90,0x44,0x3c,0x00,0x3a,0x3c,0x00,0x3e,0x49,0x33,0x80,0x44,
0x3c,0x00,0x3a,0x3c,0x00,0x3e,0x49,0x09,0x90,0x33,0x52,0x00,0x27,0x40,0x33,0x80,
0x33,0x52,0x00,0x27,0x40,0x09,0x90,0x3a,0x3c,0x00,0x42,0x3c,0x00,0x3f,0x38,0x33,
0x80,0x3a,0x3c,0x00,0x42,0x3c,0x00,0x3f,0x38,0x09,0x90,0x36,0x49,0x00,0x2a,0x40,
0x33,0x80,0x36,0x49,0x00,0x2a,0x40,0x09,0x90,0x3a,0x40,0x00,0x42,0x3c,0x00,0x3f,
0x38,0x33,0x80,0x3a,0x40,0x00,0x42,0x3c,0x00,0x3f,0x38,0x09,0x90,0x33,0x49,0x00,
0x27,0x40,0x33,0x80,0x33,0x49,0x00,0x27,0x40,0x09,0x90,0x3a,0x40,0x00,0x42,0x3c,
0x00,0x3f,0x3c,0x33,0x80,0x3a,0x40,0x00,0x42,0x3c,0x00,0x3f,0x3c,0x09,0x90,0x2a,
0x40,0x00,0x36,0x49,0x33,0x80,0x2a,0x40,0x00,0x36,0x49,0x09,0x90,0x3a,0x3c,0x00,
0x3f,0x40,0x00,0x42,0x3c,0x33,0x80,0x3a,0x3c,0x00,0x3f,0x40,0x00,0x42,0x3c,0x09,
0x90,0x37,0x38,0x15,0x80,0x37,0x38,0x09,0x90,0x3a,0x49,0x33,0x80,0x3a,0x49,0x09,
0x90,0x3d,0x40,0x15,0x80,0x3d,0x40,0x09,0x90,0x40,0x49,0x15,0x80,0x40,0x49,0x09,
0x90,0x3d,0x40,0x15,0x80,0x3d,0x40,0x09,0x90,0x3a,0x49,0x15,0x80,0x3a,0x49,0x09,
0x90,0x37,0x40,0x15,0x80,0x37,0x40,0x09,0x90,0x38,0x49,0x00,0x2c,0x40,0x33,0x80,
0x38,0x49,0x00,0x2c,0x40,0x09,0x90,0x3d,0x3c,0x00,0x41,0x3c,0x00,0x38,0x3c,0x33,
0x80,0x3d,0x3c,0x00,0x41,0x3c,0x00,0x38,0x3c,0x09,0x90,0x2e,0x5b,0x33,0x80,0x2e,
0x5b,0x09,0x90,0x3a,0x49,0x00,0x3e,0x49,0x00,0x38,0x40,0x33,0x80,0x3a,0x49,0x00,
0x3e,0x49,0x00,0x38,0x40,0x09,0x90,0x3d,0x49,0x00,0x33,0x40,0x00,0x3a,0x40,0x33,
0x80,0x3d,0x49,0x00,0x33,0x40,0x00,0x3a,0x40,0x09,0x90,0x33,0x40,0x00,0x3d,0x49,
0x00,0x3a,0x40,0x33,0x80,0x33,0x40,0x00,0x3d,0x49,0x00,0x3a,0x40,0x09,0x90,0x38,
0x49,0x00,0x3c,0x49,0x33,0x80,0x38,0x49,0x00,0x3c,0x49,0x09,0x90,0x38,0x40,0x00,
0x3c,0x49,0x33,0x80,0x38,0x40,0x00,0x3c,0x49,0x09,0x90,0x3d,0x40,0x00,0x31,0x49,
0x33,0x80,0x3d,0x40,0x00,0x31,0x49,0x09,0x90,0x38,0x40,0x00,0x2c,0x40,0x33,0x80,
0x38,0x40,0x00,0x2c,0x40,0x09,0x90,0x31,0x40,0x00,0x25,0x49,0x33,0x80,0x31,0x40,
0x00,0x25,0x49,0x09,0x90,0x3c,0x49,0x00,0x30,0x40,0x33,0x80,0x3c,0x49,0x00,0x30,
0x40,0x09,0x90,0x3d,0x49,0x00,0x31,0x49,0x33,0x80,0x3d,0x49,0x00,0x31,0x49,0x09,
0x90,0x41,0x49,0x00,0x3d,0x40,0x00,0x38,0x52,0x33,0x80,0x41,0x49,0x00,0x3d,0x40,
0x00,0x38,0x52,0x09,0x90,0x38,0x52,0x00,0x3d,0x49,0x00,0x41,0x49,0x33,0x80,0x38,
0x52,0x00,0x3d,0x49,0x00,0x41,0x49,0x09,0x90,0x30,0x3c,0x00,0x3c,0x52,0x33,0x80,
0x30,0x3c,0x00,0x3c,0x52,0x09,0x90,0x3d,0x40,0x00,0x31,0x49,0x33,0x80,0x3d,0x40,
0x00,0x31,0x49,0x09,0x90,0x38,0x52,0x00,0x3d,0x40,0x00,0x41,0x40,0x33,0x80,0x38,
0x52,0x00,0x3d,0x40,0x00,0x41,0x40,0x09,0x90,0x3a,0x49,0x00,0x2e,0x49,0x33,0x80,
0x3a,0x49,0x00,0x2e,0x49,0x09,0x90,0x2f,0x38,0x00,0x3b,0x49,0x33,0x80,0x2f,0x38,
0x00,0x3b,0x49,0x09,0x90,0x30,0x40,0x00,0x3c,0x52,0x33,0x80,0x30,0x40,0x00,0x3c,
0x52,0x09,0x90,0x3f,0x40,0x00,0x38,0x49,0x00,0x3c,0x49,0x33,0x80,0x3f,0x40,0x00,
0x38,0x49,0x00,0x3c,0x49,0x09,0x90,0x3f,0x38,0x00,0x3c,0x40,0x00,0x38,0x38,0x33,
0x80,0x3f,0x38,0x00,0x3c,0x40,0x00,0x38,0x38,0x09,0x90,0x33,0x40,0x00,0x27,0x40,
0x33,0x80,0x33,0x40,0x00,0x27,0x40,0x09,0x90,0x38,0x40,0x00,0x2c,0x49,0x33,0x80,
0x38,0x40,0x00,0x2c,0x49,0x09,0x90,0x33,0x40,0x00,0x3c,0x49,0x00,0x38,0x40,0x33,
0x80,0x33,0x40,0x00,0x3c,0x49,0x00,0x38,0x40,0x09,0x90,0x33,0x40,0x00,0x27,0x49,
0x33,0x80,0x33,0x40,0x00,0x27,0x49,0x09,0x90,0x39,0x49,0x00,0x2d,0x49,0x33,0x80,
0x39,0x49,0x00,0x2d,0x49,0x09,0x90,0x3a,0x49,0x00,0x2e,0x52,0x33,0x80,0x3a,0x49,
0x00,0x2e,0x52,0x09,0x90,0x3d,0x49,0x00,0x33,0x40,0x00,0x37,0x52,0x33,0x80,0x3d,
0x49,0x00,0x33,0x40,0x00,0x37,0x52,0x09,0x90,0x33,0x40,0x00,0x27,0x52,0x33,0x80,
0x33,0x40,0x00,0x27,0x52,0x09,0x90,0x2d,0x40,0x00,0x39,0x40,0x33,0x80,0x2d,0x40,
0x00,0x39,0x40,0x09,0x90,0x3a,0x49,0x00,0x2e,0x52,0x33,0x80,0x3a,0x49,0x00,0x2e,
0x52,0x09,0x90,0x3d,0x40,0x00,0x33,0x38,0x00,0x37,0x52,0x33,0x80,0x3d,0x40,0x00,
0x33,0x38,0x00,0x37,0x52,0x09,0x90,0x33,0x40,0x00,0x27,0x40,0x33,0x80,0x33,0x40,
0x00,0x27,0x40,0x09,0x90,0x2b,0x49,0x00,0x37,0x49,0x33,0x80,0x2b,0x49,0x00,0x37,
0x49,0x09,0x90,0x38,0x49,0x00,0x2c,0x49,0x33,0x80,0x38,0x49,0x00,0x2c,0x49,0x09,
0x90,0x3c,0x49,0x00,0x33,0x3c,0x00,0x38,0x40,0x33,0x80,0x3c,0x49,0x00,0x33,0x3c,
0x00,0x38,0x40,0x09,0x90,0x33,0x38,0x00,0x27,0x49,0x33,0x80,0x33,0x38,0x00,0x27,
0x49,0x09,0x90,0x33,0x40,0x00,0x3c,0x49,0x00,0x38,0x3c,0x33,0x80,0x33,0x40,0x00,
0x3c,0x49,0x00,0x38,0x3c,0x09,0x90,0x38,0x40,0x00,0x2c,0x49,0x33,0x80,0x38,0x40,
0x00,0x2c,0x49,0x09,0x90,0x3c,0x3c,0x00,0x33,0x3c,0x00,0x38,0x3c,0x33,0x80,0x3c,
0x3c,0x00,0x33,0x3c,0x00,0x38,0x3c,0x09,0x90,0x3a,0x49,0x00,0x2e,0x52,0x33,0x80,
0x3a,0x49,0x00,0x2e,0x52,0x09,0x90,0x30,0x40,0x00,0x3c,0x40,0x33,0x80,0x30,0x40,
0x00,0x3c,0x40,0x09,0x90,0x3d,0x40,0x00,0x31,0x49,0x33,0x80,0x3d,0x40,0x00,0x31,
0x49,0x09,0x90,0x41,0x40,0x00,0x38,0x40,0x00,0x3d,0x38,0x33,0x80,0x41,0x40,0x00,
0x38,0x40,0x00,0x3d,0x38,0x09,0x90,0x38,0x49,0x00,0x41,0x40,0x00,0x3d,0x3c,0x33,
0x80,0x38,0x49,0x00,0x41,0x40,0x00,0x3d,0x3c,0x09,0x90,0x30,0x40,0x00,0x3c,0x49,
0x33,0x80,0x30,0x40,0x00,0x3c,0x49,0x09,0x90,0x3d,0x40,0x00,0x31,0x52,0x33,0x80,
0x3d,0x40,0x00,0x31,0x52,0x09,0x90,0x38,0x52,0x00,0x41,0x49,0x00,0x3d,0x40,0x33,
0x80,0x38,0x52,0x00,0x41,0x49,0x00,0x3d,0x40,0x09,0x90,0x3a,0x40,0x00,0x2e,0x49,
0x33,0x80,0x3a,0x40,0x00,0x2e,0x49,0x09,0x90,0x3b,0x49,0x00,0x2f,0x49,0x33,0x80,
0x3b,0x49,0x00,0x2f,0x49,0x09,0x90,0x30,0x40,0x00,0x3c,0x49,0x33,0x80,0x30,0x40,
0x00,0x3c,0x49,0x09,0x90,0x38,0x49,0x00,0x3f,0x40,0x00,0x3c,0x49,0x33,0x80,0x38,
0x49,0x00,0x3f,0x40,0x00,0x3c,0x49,0x09,0x90,0x3f,0x49,0x00,0x38,0x49,0x00,0x3c,
0x40,0x33,0x80,0x3f,0x49,0x00,0x38,0x49,0x00,0x3c,0x40,0x09,0x90,0x33,0x3c,0x00,
0x27,0x49,0x33,0x80,0x33,0x3c,0x00,0x27,0x49,0x09,0x90,0x38,0x49,0x00,0x2c,0x52,
0x33,0x80,0x38,0x49,0x00,0x2c,0x52,0x09,0x90,0x33,0x49,0x00,0x3c,0x40,0x00,0x38,
0x40,0x33,0x80,0x33,0x49,0x00,0x3c,0x40,0x00,0x38,0x40,0x09,0x90,0x33,0x3c,0x00,
0x27,0x40,0x33,0x80,0x33,0x3c,0x00,0x27,0x40,0x09,0x90,0x33,0x49,0x00,0x3c,0x49,
0x00,0x38,0x40,0x33,0x80,0x33,0x49,0x00,0x3c,0x49,0x00,0x38,0x40,0x09,0x90,0x31,
0x49,0x00,0x25,0x49,0x33,0x80,0x31,0x49,0x00,0x25,0x49,0x09,0x90,0x31,0x40,0x00,
0x25,0x5b,0x33,0x80,0x31,0x40,0x00,0x25,0x5b,0x09,0x90,0x22,0x49,0x00,0x2e,0x40,
0x33,0x80,0x22,0x49,0x00,0x2e,0x40,0x09,0x90,0x32,0x49,0x00,0x26,0x49,0x33,0x80,
0x32,0x49,0x00,0x26,0x49,0x09,0x90,0x33,0x40,0x00,0x27,0x49,0x33,0x80,0x33,0x40,
0x00,0x27,0x49,0x09,0x90,0x33,0x40,0x00,0x3c,0x49,0x00,0x38,0x49,0x33,0x80,0x33,
0x40,0x00,0x3c,0x49,0x00,0x38,0x49,0x09,0x90,0x33,0x40,0x00,0x27,0x52,0x33,0x80,
0x33,0x40,0x00,0x27,0x52,0x09,0x90,0x28,0x49,0x00,0x34,0x40,0x33,0x80,0x28,0x49,
0x00,0x34,0x40,0x09,0x90,0x35,0x40,0x00,0x29,0x49,0x33,0x80,0x35,0x40,0x00,0x29,
0x49,0x09,0x90,0x29,0x49,0x00,0x35,0x52,0x33,0x80,0x29,0x49,0x00,0x35,0x52,0x09,
0x90,0x2b,0x49,0x00,0x37,0x49,0x33,0x80,0x2b,0x49,0x00,0x37,0x49,0x09,0x90,0x2b,
0x49,0x00,0x37,0x52,0x33,0x80,0x2b,0x49,0x00,0x37,0x52,0x09,0x90,0x38,0x49,0x00,
0x2c,0x52,0x33,0x80,0x38,0x49,0x00,0x2c,0x52,0x09,0x90,0x33,0x49,0x00,0x3c,0x52,
0x00,0x38,0x40,0x33,0x80,0x33,0x49,0x00,0x3c,0x52,0x00,0x38,0x40,0x09,0x90,0x3a,
0x49,0x00,0x2e,0x5b,0x33,0x80,0x3a,0x49,0x00,0x2e,0x5b,0x09,0x90,0x30,0x52,0x00,
0x3c,0x52,0x33,0x80,0x30,0x52,0x00,0x3c,0x52,0x09,0x90,0x3d,0x49,0x00,0x31,0x49,
0x33,0x80,0x3d,0x49,0x00,0x31,0x49,0x09,0x90,0x41,0x49,0x00,0x3d,0x40,0x00,0x38,
0x52,0x33,0x80,0x41,0x49,0x00,0x3d,0x40,0x00,0x38,0x52,0x09,0x90,0x38,0x52,0x00,
0x3d,0x49,0x00,0x41,0x49,0x33,0x80,0x38,0x52,0x00,0x3d,0x49,0x00,0x41,0x49,0x09,
0x90,0x30,0x3c,0x00,0x3c,0x52,0x33,0x80,0x30,0x3c,0x00,0x3c,0x52,0x09,0x90,0x3d,
0x40,0x00,0x31,0x49,0x33,0x80,0x3d,0x40,0x00,0x31,0x49,0x09,0x90,0x38,0x52,0x00,
0x3d,0x40,0x00,0x41,0x40,0x33,0x80,0x38,0x52,0x00,0x3d,0x40,0x00,0x41,0x40,0x09,
0x90,0x3a,0x49,0x00,0x2e,0x49,0x33,0x80,0x3a,0x49,0x00,0x2e,0x49,0x09,0x90,0x2f,
0x38,0x00,0x3b,0x49,0x33,0x80,0x2f,0x38,0x00,0x3b,0x49,0x09,0x90,0x30,0x40,0x00,
0x3c,0x52,0x33,0x80,0x30,0x40,0x00,0x3c,0x52,0x09,0x90,0x3f,0x40,0x00,0x38,0x49,
0x00,0x3c,0x49,0x33,0x80,0x3f,0x40,0x00,0x38,0x49,0x00,0x3c,0x49,0x09,0x90,0x3f,
0x38,0x00,0x3c,0x40,0x00,0x38,0x38,0x33,0x80,0x3f,0x38,0x00,0x3c,0x40,0x00,0x38,
0x38,0x09,0x90,0x33,0x40,0x00,0x27,0x40,0x33,0x80,0x33,0x40,0x00,0x27,0x40,0x09,
0x90,0x38,0x40,0x00,0x2c,0x49,0x33,0x80,0x38,0x40,0x00,0x2c,0x49,0x09,0x90,0x33,
0x40,0x00,0x3c,0x49,0x00,0x38,0x40,0x33,0x80,0x33,0x40,0x00,0x3c,0x49,0x00,0x38,
0x40,0x09,0x90,0x33,0x40,0x00,0x27,0x49,0x33,0x80,0x33,0x40,0x00,0x27,0x49,0x09,
0x90,0x39,0x49,0x00,0x2d,0x49,0x33,0x80,0x39,0x49,0x00,0x2d,0x49,0x09,0x90,0x3a,
0x49,0x00,0x2e,0x52,0x33,0x80,0x3a,0x49,0x00,0x2e,0x52,0x09,0x90,0x3d,0x49,0x00,
0x33,0x40,0x00,0x37,0x52,0x33,0x80,0x3d,0x49,0x00,0x33,0x40,0x00,0x37,0x52,0x09,
0x90,0x33,0x40,0x00,0x27,0x52,0x33,0x80,0x33,0x40,0x00,0x27,0x52,0x09,0x90,0x2d,
0x40,0x00,0x39,0x40,0x33,0x80,0x2d,0x40,0x00,0x39,0x40,0x09,0x90,0x3a,0x49,0x00,
0x2e,0x52,0x33,0x80,0x3a,0x49,0x00,0x2e,0x52,0x09,0x90,0x3d,0x40,0x00,0x33,0x38,
0x00,0x37,0x52,0x33,0x80,0x3d,0x40,0x00,0x33,0x38,0x00,0x37,0x52,0x09,0x90,0x33,
0x40,0x00,0x27,0x40,0x33,0x80,0x33,0x40,0x00,0x27,0x40,0x09,0x90,0x2b,0x49,0x00,
0x37,0x49,0x33,0x80,0x2b,0x49,0x00,0x37,0x49,0x09,0x90,0x38,0x49,0x00,0x2c,0x49,
0x33,0x80,0x38,0x49,0x00,0x2c,0x49,0x09,0x90,0x3c,0x49,0x00,0x33,0x3c,0x00,0x38,
0x40,0x33,0x80,0x3c,0x49,0x00,0x33,0x3c,0x00,0x38,0x40,0x09,0x90,0x33,0x38,0x00,
0x27,0x49,0x33,0x80,0x33,0x38,0x00,0x27,0x49,0x09,0x90,0x33,0x40,0x00,0x3c,0x49,
0x00,0x38,0x3c,0x33,0x80,0x33,0x40,0x00,0x3c,0x49,0x00,0x38,0x3c,0x09,0x90,0x38,
0x40,0x00,0x2c,0x49,0x33,0x80,0x38,0x40,0x00,0x2c,0x49,0x09,0x90,0x3c,0x3c,0x00,
0x33,0x3c,0x00,0x38,0x3c,0x33,0x80,0x3c,0x3c,0x00,0x33,0x3c,0x00,0x38,0x3c,0x09,
0x90,0x3a,0x49,0x00,0x2e,0x52,0x33,0x80,0x3a,0x49,0x00,0x2e,0x52,0x09,0x90,0x30,
0x40,0x00,0x3c,0x40,0x33,0x80,0x30,0x40,0x00,0x3c,0x40,0x09,0x90,0x3d,0x40,0x00,
0x31,0x49,0x33,0x80,0x3d,0x40,0x00,0x31,0x49,0x09,0x90,0x41,0x40,0x00,0x38,0x40,
0x00,0x3d,0x38,0x33,0x80,0x41,0x40,0x00,0x38,0x40,0x00,0x3d,0x38,0x09,0x90,0x38,
0x49,0x00,0x41,0x40,0x00,0x3d,0x3c,0x33,0x80,0x38,0x49,0x00,0x41,0x40,0x00,0x3d,
0x3c,0x09,0x90,0x30,0x40,0x00,0x3c,0x49,0x33,0x80,0x30,0x40,0x00,0x3c,0x49,0x09,
0x90,0x3d,0x40,0x00,0x31,0x52,0x33,0x80,0x3d,0x40,0x00,0x31,0x52,0x09,0x90,0x38,
0x52,0x00,0x41,0x49,0x00,0x3d,0x40,0x33,0x80,0x38,0x52,0x00,0x41,0x49,0x00,0x3d,
0x40,0x09,0x90,0x3a,0x40,0x00,0x2e,0x49,0x33,0x80,0x3a,0x40,0x00,0x2e,0x49,0x09,
0x90,0x3b,0x49,0x00,0x2f,0x49,0x33,0x80,0x3b,0x49,0x00,0x2f,0x49,0x09,0x90,0x30,
0x40,0x00,0x3c,0x49,0x33,0x80,0x30,0x40,0x00,0x3c,0x49,0x09,0x90,0x38,0x49,0x00,
0x3f,0x40,0x00,0x3c,0x49,0x33,0x80,0x38,0x49,0x00,0x3f,0x40,0x00,0x3c,0x49,0x09,
0x90,0x3f,0x49,0x00,0x38,0x49,0x00,0x3c,0x40,0x33,0x80,0x3f,0x49,0x00,0x38,0x49,
0x00,0x3c,0x40,0x09,0x90,0x33,0x3c,0x00,0x27,0x49,0x33,0x80,0x33,0x3c,0x00,0x27,
0x49,0x09,0x90,0x38,0x49,0x00,0x2c,0x52,0x33,0x80,0x38,0x49,0x00,0x2c,0x52,0x09,
0x90,0x33,0x49,0x00,0x3c,0x40,0x00,0x38,0x40,0x33,0x80,0x33,0x49,0x00,0x3c,0x40,
0x00,0x38,0x40,0x09,0x90,0x33,0x3c,0x00,0x27,0x40,0x33,0x80,0x33,0x3c,0x00,0x27,
0x40,0x09,0x90,0x33,0x49,0x00,0x3c,0x49,0x00,0x38,0x40,0x33,0x80,0x33,0x49,0x00,
0x3c,0x49,0x00,0x38,0x40,0x09,0x90,0x31,0x49,0x00,0x25,0x49,0x33,0x80,0x31,0x49,
0x00,0x25,0x49,0x09,0x90,0x31,0x40,0x00,0x25,0x5b,0x33,0x80,0x31,0x40,0x00,0x25,
0x5b,0x09,0x90,0x22,0x49,0x00,0x2e,0x40,0x33,0x80,0x22,0x49,0x00,0x2e,0x40,0x09,
0x90,0x32,0x49,0x00,0x26,0x49,0x33,0x80,0x32,0x49,0x00,0x26,0x49,0x09,0x90,0x33,
0x40,0x00,0x27,0x49,0x33,0x80,0x33,0x40,0x00,0x27,0x49,0x09,0x90,0x33,0x40,0x00,
0x3c,0x49,0x00,0x38,0x49,0x33,0x80,0x33,0x40,0x00,0x3c,0x49,0x00,0x38,0x49,0x09,
0x90,0x33,0x40,0x00,0x27,0x52,0x33,0x80,0x33,0x40,0x00,0x27,0x52,0x09,0x90,0x28,
0x49,0x00,0x34,0x40,0x33,0x80,0x28,0x49,0x00,0x34,0x40,0x09,0x90,0x35,0x40,0x00,
0x29,0x49,0x33,0x80,0x35,0x40,0x00,0x29,0x49,0x09,0x90,0x29,0x49,0x00,0x35,0x52,
0x33,0x80,0x29,0x49,0x00,0x35,0x52,0x09,0x90,0x2b,0x49,0x00,0x37,0x49,0x33,0x80,
0x2b,0x49,0x00,0x37,0x49,0x09,0x90,0x2b,0x49,0x00,0x37,0x52,0x33,0x80,0x2b,0x49,
0x00,0x37,0x52,0x09,0x90,0x38,0x49,0x00,0x2c,0x52,0x33,0x80,0x38,0x49,0x00,0x2c,
0x52,0x09,0x90,0x33,0x40,0x00,0x27,0x49,0x33,0x80,0x33,0x40,0x00,0x27,0x49,0x09,
0x90,0x2c,0x52,0x00,0x20,0x64,0x33,0x80,0x2c,0x52,0x00,0x20,0x64,0x45,0xff,0x2f,
0x00,
};
