#include <stdint.h>
const uint8_t midifile[] = {
0x4d,0x54,0x68,0x64,0x00,0x00,0x00,0x06,0x00,0x01,0x00,0x01,0x01,0xe0,0x4d,0x54,
0x72,0x6b,0x00,0x00,0x00,0xbf,0x00,0xff,0x58,0x04,0x04,0x02,0x18,0x08,0x00,0xff,
0x59,0x02,0x00,0x00,0x00,0xff,0x51,0x03,0x03,0xd0,0x90,0x00,0xb0,0x79,0x00,0x00,
0xc0,0x00,0x00,0xb0,0x07,0x64,0x00,0x0a,0x40,0x00,0x5b,0x00,0x00,0x5d,0x00,0x00,
0xff,0x21,0x01,0x00,0x00,0x90,0x3c,0x50,0x83,0x47,0x3c,0x00,0x19,0x3e,0x50,0x83,
0x47,0x3e,0x00,0x19,0x40,0x50,0x83,0x47,0x40,0x00,0x19,0x40,0x50,0x83,0x47,0x40,
0x00,0x19,0x41,0x50,0x83,0x47,0x41,0x00,0x19,0x43,0x50,0x83,0x47,0x43,0x00,0x19,
0x43,0x50,0x83,0x47,0x43,0x00,0x19,0x45,0x50,0x83,0x47,0x45,0x00,0x19,0x47,0x50,
0x83,0x47,0x47,0x00,0x19,0x48,0x50,0x8a,0x57,0x48,0x00,0x49,0x48,0x50,0x83,0x47,
0x48,0x00,0x19,0x47,0x50,0x83,0x47,0x47,0x00,0x19,0x45,0x50,0x83,0x47,0x45,0x00,
0x19,0x45,0x50,0x83,0x47,0x45,0x00,0x19,0x43,0x50,0x83,0x47,0x43,0x00,0x19,0x41,
0x50,0x83,0x47,0x41,0x00,0x19,0x41,0x50,0x83,0x47,0x41,0x00,0x19,0x40,0x50,0x83,
0x47,0x40,0x00,0x19,0x3e,0x50,0x83,0x47,0x3e,0x00,0x19,0x3c,0x50,0x8a,0x57,0x3c,
0x00,0x01,0xff,0x2f,0x00,
};
