#include <stdint.h>
const uint8_t midifile[] = {
0x4d,0x54,0x68,0x64,0x00,0x00,0x00,0x06,0x00,0x00,0x00,0x01,0x00,0xc0,0x4d,0x54,
0x72,0x6b,0x00,0x00,0x71,0xdc,0x00,0xff,0x01,0x08,0x53,0x54,0x41,0x49,0x52,0x57,
0x41,0x59,0x00,0xff,0x51,0x03,0x0b,0x71,0xb0,0x07,0xf0,0x05,0x7e,0x7f,0x09,0x01,
0xf7,0x11,0xf0,0x0a,0x41,0x10,0x42,0x12,0x40,0x00,0x7f,0x00,0x41,0xf7,0x2c,0xf0,
0x0a,0x41,0x10,0x42,0x12,0x40,0x01,0x33,0x50,0x3c,0xf7,0x31,0xf0,0x0a,0x41,0x10,
0x42,0x12,0x40,0x01,0x34,0x50,0x3b,0xf7,0x46,0xb5,0x79,0x00,0x02,0xb1,0x79,0x00,
0x03,0xbc,0x79,0x00,0x00,0xb2,0x79,0x00,0x00,0xba,0x79,0x00,0x00,0xb6,0x79,0x00,
0x00,0xb4,0x79,0x00,0x00,0xbb,0x79,0x00,0x00,0xb9,0x79,0x00,0x02,0xb7,0x79,0x00,
0x03,0xb8,0x79,0x00,0x00,0xb3,0x79,0x00,0x19,0xe4,0x00,0x40,0x00,0xeb,0x00,0x40,
0x02,0xe7,0x00,0x40,0x00,0xb4,0x0b,0x7f,0x00,0xb4,0x0a,0x46,0x00,0xbb,0x0b,0x7f,
0x00,0xbb,0x0a,0x5c,0x04,0xb4,0x5b,0x61,0x00,0xbb,0x5b,0x61,0x04,0xb4,0x5d,0x09,
0x00,0xbb,0x5d,0x09,0x07,0xe5,0x00,0x40,0x04,0xe1,0x00,0x40,0x01,0xe2,0x00,0x40,
0x05,0xe8,0x00,0x40,0x00,0xe3,0x00,0x40,0x04,0xb5,0x0b,0x7f,0x0a,0xb8,0x0b,0x7f,
0x00,0xb5,0x07,0x5a,0x01,0xb4,0x07,0x6e,0x00,0xbb,0x07,0x6e,0x02,0xb7,0x07,0x58,
0x01,0xb5,0x0a,0x46,0x03,0xec,0x00,0x40,0x00,0xea,0x00,0x40,0x00,0xb7,0x0a,0x4a,
0x00,0xe6,0x00,0x40,0x01,0xb5,0x5b,0x44,0x01,0xb4,0x00,0x00,0x00,0xbb,0x00,0x08,
0x01,0xb8,0x07,0x70,0x01,0xb7,0x0b,0x7f,0x01,0xb5,0x5d,0x07,0x02,0xb8,0x0a,0x54,
0x01,0xb7,0x5b,0x5f,0x03,0xb8,0x5b,0x5f,0x01,0xb7,0x5d,0x3c,0x03,0xb8,0x5d,0x1b,
0x15,0xb2,0x0b,0x7f,0x03,0xb5,0x00,0x00,0x02,0xb3,0x0b,0x7f,0x01,0xbc,0x07,0x4e,
0x04,0xbc,0x0a,0x58,0x00,0xb2,0x07,0x62,0x03,0xb8,0x00,0x00,0x01,0xbc,0x0b,0x7f,
0x00,0xb2,0x0a,0x40,0x00,0xc4,0x19,0x00,0xcb,0x19,0x01,0xb3,0x07,0x66,0x01,0xb7,
0x00,0x00,0x02,0xbc,0x5b,0x4c,0x00,0xb2,0x5b,0x7f,0x01,0xb3,0x0a,0x40,0x02,0xb2,
0x5d,0x12,0x01,0xbc,0x5d,0x43,0x01,0xb3,0x5b,0x57,0x04,0xb3,0x5d,0x21,0x18,0xc5,
0x49,0x03,0xba,0x07,0x51,0x02,0xb2,0x00,0x00,0x02,0xba,0x0a,0x28,0x03,0xc8,0x34,
0x00,0xb3,0x00,0x00,0x01,0xbc,0x00,0x00,0x00,0xba,0x0b,0x7f,0x02,0xc7,0x1d,0x02,
0xba,0x5b,0x58,0x04,0xba,0x5d,0x2d,0x00,0xbb,0x63,0x01,0x05,0xb1,0x07,0x71,0x04,
0xb1,0x0a,0x40,0x04,0xb1,0x0b,0x7f,0x04,0xb1,0x5b,0x00,0x03,0xb9,0x07,0x69,0x01,
0xb1,0x5d,0x1e,0x0a,0xb5,0x63,0x01,0x03,0xc2,0x37,0x04,0xb7,0x63,0x01,0x01,0xc3,
0x28,0x01,0xcc,0x11,0x00,0xba,0x00,0x00,0x01,0xb8,0x63,0x01,0x07,0xbb,0x62,0x63,
0x0d,0xb1,0x00,0x00,0x0f,0xb9,0x5d,0x06,0x03,0xb5,0x62,0x63,0x01,0xb6,0x07,0x50,
0x00,0xb9,0x5b,0x65,0x04,0xb6,0x0a,0x2c,0x02,0xb7,0x62,0x63,0x02,0xca,0x1a,0x00,
0xb6,0x0b,0x7f,0x01,0xb8,0x62,0x63,0x03,0xb6,0x5b,0x61,0x04,0xb6,0x5d,0x1e,0x01,
0xbb,0x06,0x3f,0x0c,0xc1,0x21,0x13,0xb5,0x06,0x3f,0x07,0xb7,0x06,0x3f,0x01,0xb6,
0x00,0x00,0x02,0xbc,0x63,0x01,0x00,0xb8,0x06,0x3f,0x08,0xb9,0x0b,0x7f,0x26,0xc6,
0x49,0x04,0xbc,0x62,0x66,0x14,0xb4,0x63,0x01,0x00,0xbb,0x63,0x01,0x04,0xc9,0x00,
0x13,0xb5,0x63,0x01,0x07,0xbc,0x06,0x64,0x00,0xb7,0x63,0x01,0x0a,0xba,0x63,0x01,
0x05,0xb8,0x63,0x01,0x03,0xb4,0x62,0x20,0x00,0xbb,0x62,0x20,0x17,0xb5,0x62,0x66,
0x07,0xb7,0x62,0x21,0x0a,0xba,0x62,0x20,0x05,0xb8,0x62,0x66,0x04,0xb4,0x06,0x41,
0x00,0xbb,0x06,0x50,0x17,0xb5,0x06,0x45,0x07,0xb7,0x06,0x48,0x0a,0xba,0x06,0x4b,
0x05,0xb8,0x06,0x48,0x1a,0xf0,0x0a,0x41,0x10,0x42,0x12,0x40,0x13,0x1c,0x00,0x11,
0xf7,0x10,0x9b,0x39,0x4e,0x3d,0xb8,0x63,0x01,0x23,0x9b,0x3c,0x46,0x0d,0xb8,0x62,
0x20,0x31,0xb8,0x06,0x51,0x22,0x9b,0x40,0x57,0x60,0x9b,0x45,0x53,0x40,0x9b,0x45,
0x00,0x1e,0x9b,0x40,0x00,0x02,0x9b,0x38,0x46,0x00,0x9b,0x39,0x00,0x02,0x9b,0x47,
0x57,0x38,0x9b,0x3c,0x00,0x26,0x9b,0x3c,0x53,0x5a,0x9b,0x47,0x00,0x06,0x9b,0x40,
0x57,0x60,0x9b,0x47,0x4e,0x48,0x9b,0x47,0x00,0x04,0x9b,0x38,0x00,0x06,0x9b,0x3c,
0x00,0x00,0x9b,0x40,0x00,0x0e,0x9b,0x37,0x48,0x02,0x9b,0x48,0x53,0x5e,0x9b,0x40,
0x57,0x60,0x9b,0x43,0x4c,0x04,0x9b,0x40,0x00,0x38,0x9b,0x48,0x00,0x24,0x9b,0x48,
0x4c,0x3a,0x9b,0x48,0x00,0x0e,0x9b,0x43,0x00,0x16,0x9b,0x37,0x00,0x02,0x9b,0x36,
0x39,0x02,0x9b,0x42,0x5d,0x5e,0x9b,0x3e,0x4c,0x60,0x9b,0x39,0x40,0x0a,0x9b,0x3e,
0x00,0x56,0x9b,0x3e,0x46,0x30,0x9b,0x42,0x00,0x06,0x9b,0x36,0x00,0x00,0x9b,0x39,
0x00,0x04,0x9b,0x3e,0x00,0x26,0x9b,0x29,0x4e,0x02,0x9b,0x35,0x48,0x02,0x9b,0x39,
0x40,0x02,0x9b,0x40,0x53,0x5a,0x9b,0x3c,0x4c,0x2a,0x9b,0x39,0x00,0x36,0x9b,0x39,
0x4c,0x4a,0x9b,0x40,0x00,0x16,0x9b,0x40,0x48,0x81,0x32,0x9b,0x40,0x00,0x0e,0x9b,
0x40,0x4e,0x10,0x9b,0x3c,0x00,0x50,0x9b,0x3c,0x4e,0x34,0x9b,0x39,0x00,0x2c,0x9b,
0x39,0x40,0x3a,0x9b,0x29,0x00,0x08,0x9b,0x35,0x00,0x00,0x9b,0x39,0x00,0x00,0x9b,
0x3c,0x00,0x02,0x9b,0x40,0x00,0x1c,0x9b,0x2f,0x5d,0x02,0x9b,0x37,0x62,0x02,0x9b,
0x3b,0x5d,0x3a,0x9b,0x37,0x00,0x10,0x9b,0x3b,0x00,0x12,0x9b,0x2d,0x4e,0x00,0x9b,
0x2f,0x00,0x02,0x9b,0x34,0x3d,0x02,0x9b,0x39,0x3d,0x14,0x9b,0x39,0x00,0x02,0x9b,
0x2d,0x00,0x04,0x9b,0x34,0x00,0x42,0x9b,0x2d,0x57,0x02,0x9b,0x34,0x57,0x02,0x9b,
0x39,0x57,0x02,0x9b,0x3c,0x57,0x82,0x06,0x9b,0x2d,0x00,0x14,0x9b,0x2d,0x4e,0x1e,
0x9b,0x34,0x00,0x42,0x9b,0x35,0x57,0x14,0x9b,0x39,0x00,0x40,0x9b,0x3c,0x00,0x0c,
0x9b,0x34,0x57,0x00,0x9b,0x35,0x00,0x34,0x9b,0x34,0x00,0x08,0x9b,0x2d,0x00,0x1f,
0x95,0x39,0x48,0x00,0x95,0x3c,0x40,0x00,0x95,0x40,0x44,0x05,0x9b,0x39,0x4e,0x60,
0x9b,0x3c,0x46,0x60,0x9b,0x40,0x57,0x60,0x9b,0x45,0x53,0x40,0x9b,0x45,0x00,0x1a,
0x95,0x39,0x00,0x01,0x95,0x38,0x4c,0x03,0x9b,0x40,0x00,0x02,0x9b,0x38,0x46,0x00,
0x9b,0x39,0x00,0x02,0x9b,0x47,0x57,0x38,0x9b,0x3c,0x00,0x26,0x9b,0x3c,0x53,0x5a,
0x9b,0x47,0x00,0x06,0x9b,0x40,0x57,0x60,0x9b,0x47,0x4e,0x48,0x9b,0x47,0x00,0x04,
0x9b,0x38,0x00,0x06,0x9b,0x3c,0x00,0x00,0x9b,0x40,0x00,0x08,0x95,0x38,0x00,0x01,
0x95,0x37,0x56,0x05,0x9b,0x37,0x48,0x02,0x9b,0x48,0x53,0x5e,0x9b,0x40,0x57,0x60,
0x9b,0x43,0x4c,0x04,0x9b,0x40,0x00,0x57,0x9b,0x48,0x00,0x05,0x9b,0x48,0x4c,0x3a,
0x9b,0x48,0x00,0x0e,0x9b,0x43,0x00,0x12,0x95,0x37,0x00,0x01,0x95,0x36,0x3c,0x00,
0x95,0x39,0x50,0x03,0x9b,0x37,0x00,0x02,0x9b,0x36,0x39,0x02,0x9b,0x42,0x5d,0x5e,
0x9b,0x3e,0x4c,0x60,0x9b,0x39,0x40,0x0a,0x9b,0x3e,0x00,0x56,0x9b,0x3e,0x46,0x30,
0x9b,0x42,0x00,0x06,0x9b,0x36,0x00,0x00,0x9b,0x39,0x00,0x04,0x9b,0x3e,0x00,0x1f,
0x95,0x40,0x00,0x01,0x95,0x36,0x00,0x00,0x95,0x39,0x00,0x01,0x95,0x35,0x40,0x00,
0x95,0x39,0x3c,0x00,0x95,0x40,0x40,0x05,0x9b,0x29,0x4e,0x02,0x9b,0x35,0x48,0x02,
0x9b,0x39,0x40,0x02,0x9b,0x40,0x53,0x5a,0x9b,0x3c,0x4c,0x2a,0x9b,0x39,0x00,0x36,
0x9b,0x39,0x4c,0x4a,0x9b,0x40,0x00,0x16,0x9b,0x40,0x48,0x81,0x32,0x9b,0x40,0x00,
0x0e,0x9b,0x40,0x4e,0x10,0x9b,0x3c,0x00,0x50,0x9b,0x3c,0x4e,0x34,0x9b,0x39,0x00,
0x2c,0x9b,0x39,0x40,0x3a,0x9b,0x29,0x00,0x08,0x9b,0x35,0x00,0x00,0x9b,0x39,0x00,
0x00,0x9b,0x3c,0x00,0x02,0x9b,0x40,0x00,0x15,0x95,0x35,0x00,0x00,0x95,0x39,0x00,
0x00,0x95,0x3c,0x00,0x00,0x95,0x40,0x00,0x02,0x95,0x37,0x56,0x00,0x95,0x3b,0x56,
0x05,0x9b,0x2f,0x57,0x02,0x9b,0x37,0x62,0x02,0x9b,0x3b,0x4e,0x33,0x95,0x37,0x00,
0x06,0x95,0x3b,0x00,0x07,0x9b,0x37,0x00,0x0e,0x9b,0x3b,0x00,0x06,0x9b,0x2f,0x00,
0x03,0x95,0x39,0x2a,0x00,0x95,0x3c,0x36,0x00,0x95,0x40,0x48,0x05,0x9b,0x2d,0x4c,
0x02,0x9b,0x34,0x46,0x02,0x9b,0x39,0x4c,0x02,0x9b,0x3c,0x26,0x09,0x95,0x3c,0x00,
0x07,0x9b,0x3c,0x00,0x01,0x95,0x39,0x00,0x04,0x95,0x40,0x00,0x01,0x9b,0x39,0x00,
0x02,0x9b,0x2d,0x00,0x02,0x9b,0x34,0x00,0x3b,0x95,0x39,0x34,0x00,0x95,0x3c,0x3c,
0x00,0x95,0x40,0x50,0x05,0x9b,0x2d,0x4c,0x02,0x9b,0x34,0x4e,0x02,0x9b,0x39,0x4c,
0x02,0x9b,0x3c,0x4e,0x82,0x64,0x9b,0x2d,0x00,0x16,0x9b,0x2d,0x53,0x5c,0x9b,0x2d,
0x00,0x04,0x9b,0x2f,0x57,0x2f,0x95,0x3c,0x00,0x02,0x95,0x39,0x00,0x01,0x9b,0x34,
0x00,0x01,0x95,0x40,0x00,0x05,0x9b,0x3c,0x00,0x02,0x9b,0x39,0x00,0x21,0x95,0x30,
0x48,0x00,0x95,0x40,0x40,0x00,0x95,0x43,0x40,0x05,0x9b,0x30,0x4c,0x00,0x96,0x48,
0x50,0x00,0x96,0x4c,0x5e,0x06,0x9b,0x2f,0x00,0x5a,0x9b,0x34,0x4c,0x60,0x9b,0x37,
0x48,0x60,0x9b,0x40,0x53,0x46,0x96,0x48,0x00,0x10,0x9b,0x37,0x00,0x04,0x95,0x30,
0x00,0x00,0x9b,0x30,0x00,0x00,0x95,0x40,0x00,0x00,0x95,0x43,0x00,0x01,0x95,0x32,
0x5e,0x00,0x95,0x42,0x48,0x00,0x95,0x45,0x30,0x01,0x9b,0x34,0x00,0x02,0x9b,0x40,
0x00,0x02,0x9b,0x32,0x46,0x00,0x96,0x4a,0x56,0x00,0x96,0x4e,0x3e,0x02,0x9b,0x42,
0x4e,0x02,0x96,0x4c,0x00,0x5c,0x9b,0x3e,0x4e,0x60,0x9b,0x39,0x4c,0x14,0x9b,0x3e,
0x00,0x34,0x9b,0x42,0x00,0x18,0x9b,0x42,0x46,0x42,0x9b,0x42,0x00,0x06,0x9b,0x32,
0x00,0x00,0x9b,0x39,0x00,0x12,0x95,0x32,0x00,0x00,0x95,0x42,0x00,0x00,0x95,0x45,
0x00,0x00,0x96,0x4a,0x00,0x01,0x95,0x35,0x38,0x00,0x95,0x40,0x3e,0x00,0x95,0x45,
0x34,0x00,0x95,0x48,0x48,0x05,0x9b,0x29,0x4c,0x00,0x96,0x4c,0x50,0x00,0x96,0x4e,
0x00,0x00,0x96,0x51,0x4c,0x02,0x9b,0x39,0x4c,0x02,0x9b,0x40,0x53,0x5a,0x9b,0x39,
0x00,0x02,0x9b,0x3c,0x4e,0x58,0x96,0x4c,0x00,0x03,0x96,0x51,0x00,0x05,0x9b,0x39,
0x53,0x00,0x96,0x4a,0x56,0x00,0x96,0x4f,0x44,0x0c,0x9b,0x40,0x00,0x4e,0x96,0x4a,
0x00,0x06,0x9b,0x40,0x4c,0x00,0x96,0x48,0x43,0x00,0x96,0x4d,0x48,0x00,0x96,0x4f,
0x00,0x0c,0x9b,0x3c,0x00,0x44,0x9b,0x39,0x00,0x08,0x9b,0x29,0x00,0x02,0x95,0x35,
0x00,0x01,0x95,0x2d,0x38,0x05,0x9b,0x2d,0x4e,0x00,0x96,0x4c,0x49,0x00,0x96,0x4d,
0x00,0x02,0x9b,0x3b,0x53,0x00,0x9b,0x40,0x00,0x2e,0x9b,0x3c,0x48,0x06,0x9b,0x3b,
0x00,0x28,0x9b,0x3c,0x00,0x02,0x9b,0x39,0x48,0x52,0x96,0x4c,0x00,0x02,0x9b,0x2d,
0x00,0x04,0x96,0x48,0x00,0x08,0x9b,0x2d,0x53,0x00,0x96,0x48,0x5a,0x00,0x96,0x4c,
0x5e,0x60,0x9b,0x2f,0x4e,0x00,0x96,0x4f,0x5a,0x02,0x96,0x48,0x00,0x04,0x9b,0x2d,
0x00,0x48,0x96,0x4f,0x00,0x06,0x96,0x4c,0x00,0x05,0x95,0x40,0x00,0x00,0x95,0x45,
0x00,0x00,0x95,0x48,0x00,0x01,0x95,0x2d,0x00,0x01,0x95,0x30,0x3c,0x00,0x95,0x3c,
0x48,0x00,0x95,0x40,0x3e,0x00,0x95,0x43,0x50,0x05,0x9b,0x2f,0x00,0x00,0x9b,0x30,
0x48,0x00,0x96,0x4c,0x56,0x00,0x96,0x4f,0x4c,0x02,0x9b,0x3c,0x4e,0x0c,0x9b,0x39,
0x00,0x52,0x9b,0x37,0x39,0x60,0x9b,0x34,0x53,0x14,0x9b,0x37,0x00,0x4c,0x9b,0x37,
0x48,0x46,0x9b,0x30,0x00,0x12,0x96,0x4c,0x00,0x02,0x95,0x30,0x00,0x00,0x95,0x3c,
0x00,0x00,0x95,0x40,0x00,0x01,0x95,0x2b,0x3e,0x00,0x95,0x3b,0x32,0x00,0x95,0x3e,
0x4c,0x05,0x9b,0x2b,0x46,0x00,0x9b,0x34,0x00,0x00,0x96,0x4a,0x44,0x06,0x9b,0x3c,
0x00,0x04,0x9b,0x37,0x00,0x56,0x9b,0x32,0x4e,0x60,0x9b,0x43,0x57,0x60,0x9b,0x3e,
0x48,0x44,0x9b,0x43,0x00,0x02,0x9b,0x3e,0x00,0x0a,0x96,0x4f,0x00,0x02,0x9b,0x32,
0x00,0x07,0x95,0x43,0x00,0x01,0x95,0x2b,0x00,0x00,0x9b,0x2b,0x00,0x00,0x95,0x3b,
0x00,0x00,0x96,0x4a,0x00,0x01,0x95,0x32,0x5e,0x00,0x95,0x39,0x30,0x00,0x95,0x42,
0x4c,0x05,0x9b,0x32,0x53,0x00,0x96,0x4a,0x56,0x00,0x96,0x4f,0x5a,0x02,0x9b,0x43,
0x57,0x2e,0x9b,0x42,0x57,0x0a,0x9b,0x43,0x00,0x24,0x96,0x4f,0x00,0x02,0x9b,0x3e,
0x5d,0x00,0x96,0x4e,0x3e,0x00,0x96,0x51,0x3e,0x02,0x9b,0x42,0x00,0x32,0x9b,0x3e,
0x00,0x02,0x96,0x4a,0x00,0x02,0x9b,0x32,0x00,0x06,0x96,0x4e,0x00,0x02,0x96,0x51,
0x00,0x20,0x9b,0x32,0x4c,0x00,0x96,0x4e,0x40,0x00,0x96,0x51,0x3c,0x02,0x9b,0x37,
0x5d,0x5e,0x9b,0x39,0x31,0x04,0x9b,0x37,0x00,0x2c,0x9b,0x37,0x2f,0x0c,0x9b,0x39,
0x00,0x24,0x9b,0x36,0x57,0x06,0x9b,0x37,0x00,0x2a,0x9b,0x37,0x3d,0x10,0x9b,0x36,
0x00,0x20,0x9b,0x39,0x57,0x0c,0x9b,0x37,0x00,0x48,0x9b,0x32,0x00,0x0c,0x9b,0x2d,
0x4c,0x05,0x98,0x45,0x46,0x1b,0x9b,0x39,0x00,0x3c,0x9b,0x2d,0x00,0x04,0x9b,0x2f,
0x53,0x05,0x98,0x45,0x00,0x00,0x98,0x47,0x49,0x23,0x96,0x4e,0x00,0x01,0x95,0x3e,
0x00,0x01,0x96,0x51,0x00,0x2f,0x95,0x32,0x00,0x00,0x95,0x39,0x00,0x00,0x95,0x42,
0x00,0x02,0x95,0x30,0x48,0x00,0x95,0x40,0x40,0x00,0x95,0x43,0x40,0x05,0x9b,0x2f,
0x00,0x00,0x9b,0x30,0x4c,0x00,0x96,0x48,0x5a,0x00,0x96,0x4c,0x5e,0x05,0x98,0x47,
0x00,0x00,0x98,0x48,0x48,0x5b,0x9b,0x34,0x4c,0x60,0x9b,0x37,0x48,0x00,0x96,0x51,
0x5e,0x60,0x9b,0x40,0x53,0x00,0x96,0x4f,0x62,0x0e,0x96,0x51,0x00,0x3c,0x96,0x48,
0x00,0x0a,0x96,0x4c,0x00,0x00,0x96,0x4f,0x00,0x02,0x9b,0x37,0x00,0x04,0x95,0x30,
0x00,0x00,0x9b,0x30,0x00,0x00,0x95,0x40,0x00,0x00,0x95,0x43,0x00,0x01,0x95,0x32,
0x5e,0x00,0x95,0x42,0x48,0x00,0x95,0x45,0x30,0x01,0x9b,0x34,0x00,0x02,0x9b,0x40,
0x00,0x02,0x9b,0x32,0x46,0x00,0x96,0x4a,0x4c,0x00,0x96,0x4f,0x4c,0x02,0x9b,0x42,
0x4e,0x01,0x98,0x48,0x00,0x02,0x98,0x4a,0x56,0x5b,0x9b,0x3e,0x4e,0x00,0x96,0x4e,
0x56,0x08,0x96,0x4f,0x00,0x50,0x96,0x4e,0x00,0x08,0x9b,0x39,0x4c,0x00,0x96,0x4c,
0x5e,0x14,0x9b,0x3e,0x00,0x06,0x96,0x4a,0x00,0x2e,0x9b,0x42,0x00,0x0c,0x96,0x4c,
0x00,0x0c,0x9b,0x42,0x46,0x00,0x96,0x4a,0x5a,0x30,0x96,0x4a,0x00,0x12,0x9b,0x42,
0x00,0x06,0x9b,0x32,0x00,0x00,0x9b,0x39,0x00,0x12,0x95,0x32,0x00,0x00,0x95,0x42,
0x00,0x00,0x95,0x45,0x00,0x01,0x95,0x3c,0x3c,0x00,0x95,0x40,0x3c,0x00,0x95,0x45,
0x5a,0x05,0x9b,0x29,0x4c,0x00,0x96,0x51,0x5e,0x02,0x9b,0x39,0x4c,0x01,0x98,0x4a,
0x00,0x01,0x9b,0x40,0x53,0x01,0x98,0x48,0x4c,0x59,0x9b,0x39,0x00,0x02,0x9b,0x3c,
0x4e,0x41,0x95,0x40,0x00,0x02,0x95,0x3c,0x00,0x00,0x95,0x45,0x00,0x13,0x96,0x51,
0x00,0x05,0x95,0x3c,0x4c,0x00,0x95,0x40,0x4c,0x00,0x95,0x45,0x50,0x05,0x9b,0x39,
0x53,0x00,0x96,0x54,0x62,0x0c,0x9b,0x40,0x00,0x48,0x96,0x54,0x00,0x07,0x95,0x48,
0x5a,0x05,0x9b,0x40,0x4c,0x00,0x96,0x53,0x62,0x0c,0x9b,0x3c,0x00,0x3b,0x95,0x3c,
0x00,0x06,0x95,0x40,0x00,0x03,0x9b,0x39,0x00,0x05,0x95,0x48,0x00,0x03,0x9b,0x29,
0x00,0x03,0x95,0x3c,0x44,0x00,0x95,0x40,0x44,0x00,0x95,0x4c,0x5a,0x05,0x9b,0x2d,
0x4e,0x00,0x96,0x54,0x66,0x02,0x9b,0x3b,0x53,0x00,0x9b,0x40,0x00,0x00,0x96,0x53,
0x00,0x01,0x98,0x48,0x00,0x02,0x98,0x45,0x4c,0x2b,0x9b,0x3c,0x48,0x06,0x9b,0x3b,
0x00,0x28,0x9b,0x3c,0x00,0x02,0x9b,0x39,0x48,0x54,0x9b,0x2d,0x00,0x0c,0x9b,0x2d,
0x53,0x60,0x9b,0x2f,0x4e,0x00,0x96,0x4c,0x6c,0x03,0x95,0x3c,0x00,0x03,0x9b,0x2d,
0x00,0x03,0x95,0x40,0x00,0x0e,0x95,0x4c,0x00,0x01,0x96,0x54,0x00,0x01,0x95,0x45,
0x00,0x0f,0x96,0x4c,0x00,0x08,0x96,0x4a,0x66,0x2b,0x95,0x30,0x3e,0x00,0x95,0x3c,
0x34,0x00,0x95,0x40,0x36,0x00,0x95,0x43,0x32,0x05,0x9b,0x2f,0x00,0x00,0x9b,0x30,
0x4c,0x00,0x9b,0x39,0x00,0x00,0x96,0x48,0x3e,0x00,0x96,0x4c,0x56,0x03,0x98,0x45,
0x00,0x02,0x98,0x48,0x4c,0x05,0x96,0x4a,0x00,0x56,0x9b,0x34,0x57,0x60,0x9b,0x37,
0x53,0x60,0x9b,0x3c,0x57,0x2e,0x9b,0x30,0x00,0x1e,0x9b,0x34,0x00,0x0e,0x95,0x30,
0x00,0x00,0x9b,0x37,0x00,0x00,0x95,0x3c,0x00,0x00,0x95,0x40,0x00,0x00,0x95,0x43,
0x00,0x00,0x96,0x48,0x00,0x01,0x95,0x32,0x48,0x00,0x95,0x3e,0x40,0x00,0x95,0x42,
0x4c,0x00,0x95,0x45,0x3c,0x01,0x9b,0x3c,0x00,0x04,0x9b,0x32,0x53,0x00,0x96,0x4a,
0x40,0x00,0x96,0x4e,0x50,0x03,0x98,0x48,0x00,0x01,0x96,0x4c,0x00,0x01,0x98,0x4a,
0x48,0x5b,0x9b,0x39,0x55,0x60,0x9b,0x3e,0x53,0x60,0x9b,0x42,0x48,0x38,0x9b,0x42,
0x00,0x0a,0x9b,0x39,0x00,0x00,0x9b,0x3e,0x00,0x08,0x9b,0x32,0x00,0x08,0x96,0x4a,
0x00,0x00,0x96,0x4e,0x00,0x08,0x95,0x32,0x00,0x00,0x95,0x3e,0x00,0x00,0x95,0x42,
0x00,0x01,0x95,0x35,0x3c,0x00,0x95,0x3c,0x26,0x00,0x95,0x40,0x3a,0x05,0x9b,0x29,
0x4c,0x00,0x96,0x4a,0x50,0x00,0x96,0x4f,0x62,0x02,0x9b,0x35,0x4c,0x01,0x98,0x4a,
0x00,0x01,0x9b,0x39,0x4c,0x01,0x98,0x4c,0x40,0x01,0x9b,0x40,0x40,0x56,0x96,0x4f,
0x00,0x04,0x9b,0x3c,0x48,0x00,0x96,0x4c,0x3e,0x00,0x96,0x51,0x44,0x02,0x96,0x4a,
0x00,0x10,0x9b,0x40,0x00,0x34,0x96,0x4c,0x00,0x06,0x96,0x51,0x00,0x14,0x9b,0x40,
0x4c,0x00,0x96,0x4c,0x56,0x00,0x96,0x51,0x48,0x08,0x9b,0x3c,0x00,0x58,0x9b,0x3c,
0x4c,0x14,0x9b,0x39,0x00,0x4c,0x9b,0x39,0x4c,0x48,0x9b,0x35,0x00,0x18,0x9b,0x35,
0x53,0x06,0x9b,0x29,0x00,0x4b,0xe3,0x12,0x14,0x08,0xe3,0x2f,0x12,0x07,0x9b,0x34,
0x53,0x01,0x93,0x45,0x56,0x05,0x9b,0x35,0x00,0x05,0xe3,0x12,0x14,0x0a,0xe3,0x6d,
0x1b,0x08,0xe3,0x5e,0x24,0x0a,0xe3,0x3d,0x39,0x08,0xe3,0x00,0x40,0x2e,0x93,0x45,
0x00,0x03,0x9b,0x30,0x4c,0x01,0x98,0x4c,0x00,0x02,0x93,0x47,0x44,0x0d,0x9b,0x34,
0x00,0x1e,0x96,0x51,0x00,0x02,0x96,0x4c,0x00,0x0a,0x9b,0x3c,0x00,0x02,0x9b,0x39,
0x00,0x04,0x9b,0x30,0x00,0x02,0x9b,0x40,0x00,0x0f,0x95,0x45,0x00,0x08,0x95,0x35,
0x00,0x00,0x95,0x3c,0x00,0x00,0x95,0x40,0x00,0x02,0x95,0x39,0x48,0x00,0x95,0x3c,
0x40,0x00,0x95,0x40,0x44,0x05,0x9b,0x39,0x4e,0x04,0x93,0x47,0x00,0x01,0x93,0x47,
0x60,0x00,0x93,0x48,0x4e,0x04,0x93,0x47,0x00,0x57,0x9b,0x3c,0x46,0x31,0xb3,0x01,
0x04,0x16,0xb3,0x01,0x2e,0x10,0xb3,0x01,0x4c,0x09,0x9b,0x40,0x57,0x09,0xb3,0x01,
0x00,0x02,0x93,0x47,0x5c,0x0a,0x93,0x48,0x00,0x4b,0x9b,0x45,0x53,0x05,0x93,0x47,
0x00,0x04,0x93,0x45,0x60,0x37,0x9b,0x45,0x00,0x1a,0x95,0x39,0x00,0x01,0x95,0x38,
0x4c,0x03,0x9b,0x40,0x00,0x02,0x9b,0x38,0x46,0x00,0x9b,0x39,0x00,0x02,0x9b,0x47,
0x57,0x03,0x93,0x45,0x00,0x04,0x93,0x47,0x44,0x31,0x9b,0x3c,0x00,0x26,0x9b,0x3c,
0x53,0x4f,0xb3,0x01,0x01,0x0b,0x9b,0x47,0x00,0x06,0x9b,0x40,0x57,0x05,0xb3,0x01,
0x11,0x12,0xb3,0x01,0x27,0x10,0xb3,0x01,0x3b,0x14,0xb3,0x01,0x33,0x10,0xb3,0x01,
0x00,0x12,0x93,0x47,0x00,0x03,0x9b,0x47,0x4e,0x03,0x93,0x45,0x40,0x2e,0x93,0x45,
0x00,0x02,0x93,0x47,0x64,0x15,0x9b,0x47,0x00,0x04,0x9b,0x38,0x00,0x06,0x9b,0x3c,
0x00,0x00,0x9b,0x40,0x00,0x08,0x95,0x38,0x00,0x01,0x95,0x37,0x56,0x05,0x9b,0x37,
0x48,0x02,0x9b,0x48,0x53,0x07,0x93,0x47,0x00,0x08,0x93,0x48,0x64,0x4f,0x9b,0x40,
0x57,0x29,0x93,0x48,0x00,0x02,0x93,0x4a,0x52,0x35,0x9b,0x43,0x4c,0x04,0x9b,0x40,
0x00,0x1b,0xe3,0x34,0x3f,0x08,0xe3,0x76,0x35,0x0a,0xe3,0x3d,0x29,0x03,0x9b,0x48,
0x00,0x05,0xe3,0x5e,0x24,0x12,0xe3,0x47,0x33,0x04,0x93,0x4a,0x00,0x04,0xe3,0x00,
0x40,0x04,0x93,0x48,0x60,0x09,0x9b,0x48,0x4c,0x3a,0x9b,0x48,0x00,0x0e,0x9b,0x43,
0x00,0x12,0x95,0x37,0x00,0x01,0x95,0x36,0x3c,0x00,0x95,0x39,0x50,0x03,0x9b,0x37,
0x00,0x02,0x9b,0x36,0x39,0x01,0x93,0x48,0x00,0x01,0x9b,0x42,0x5d,0x01,0x93,0x47,
0x60,0x5c,0x93,0x47,0x00,0x01,0x9b,0x3e,0x4c,0x07,0x93,0x45,0x42,0x59,0x9b,0x39,
0x40,0x0a,0x9b,0x3e,0x00,0x4d,0x93,0x45,0x00,0x08,0x93,0x48,0x44,0x01,0x9b,0x3e,
0x46,0x2d,0x93,0x48,0x00,0x03,0x9b,0x42,0x00,0x01,0x93,0x4a,0x60,0x05,0x9b,0x36,
0x00,0x00,0x9b,0x39,0x00,0x04,0x9b,0x3e,0x00,0x1f,0x95,0x40,0x00,0x01,0x95,0x36,
0x00,0x00,0x95,0x39,0x00,0x01,0x95,0x35,0x40,0x00,0x95,0x39,0x3c,0x00,0x95,0x40,
0x40,0x05,0x9b,0x29,0x4e,0x02,0x9b,0x35,0x48,0x02,0x9b,0x39,0x40,0x02,0x9b,0x40,
0x53,0x03,0x93,0x4c,0x64,0x02,0x93,0x4a,0x00,0x55,0x9b,0x3c,0x4c,0x03,0xe3,0x6d,
0x3b,0x0a,0xe3,0x5e,0x24,0x08,0xe3,0x09,0x1a,0x0e,0xe3,0x09,0x2a,0x07,0x9b,0x39,
0x00,0x01,0xe3,0x00,0x40,0x02,0x93,0x4c,0x00,0x08,0x93,0x4a,0x60,0x2b,0x9b,0x39,
0x4c,0x4a,0x9b,0x40,0x00,0x11,0x93,0x48,0x64,0x04,0x93,0x4a,0x00,0x01,0x9b,0x40,
0x48,0x5d,0x93,0x48,0x00,0x04,0x93,0x47,0x52,0x51,0x9b,0x40,0x00,0x0e,0x9b,0x40,
0x4e,0x10,0x9b,0x3c,0x00,0x19,0x93,0x47,0x00,0x08,0x93,0x45,0x3e,0x2f,0x9b,0x3c,
0x4e,0x34,0x9b,0x39,0x00,0x29,0x93,0x43,0x4a,0x03,0x9b,0x39,0x40,0x01,0x93,0x45,
0x00,0x39,0x9b,0x29,0x00,0x08,0x9b,0x35,0x00,0x00,0x9b,0x39,0x00,0x00,0x9b,0x3c,
0x00,0x02,0x9b,0x40,0x00,0x05,0x93,0x43,0x00,0x10,0x95,0x35,0x00,0x00,0x95,0x39,
0x00,0x00,0x95,0x3c,0x00,0x00,0x95,0x40,0x00,0x02,0x95,0x37,0x56,0x00,0x95,0x3b,
0x56,0x04,0x93,0x43,0x5c,0x01,0x9b,0x2f,0x5d,0x02,0x9b,0x37,0x62,0x02,0x9b,0x3b,
0x5d,0x33,0x95,0x37,0x00,0x06,0x95,0x3b,0x00,0x01,0x9b,0x37,0x00,0x10,0x9b,0x3b,
0x00,0x0d,0x95,0x39,0x2a,0x00,0x95,0x3c,0x36,0x00,0x95,0x40,0x48,0x05,0x9b,0x2d,
0x4e,0x00,0x9b,0x2f,0x00,0x02,0x9b,0x34,0x3d,0x02,0x9b,0x39,0x3d,0x01,0x93,0x43,
0x00,0x02,0x93,0x45,0x3e,0x08,0x95,0x3c,0x00,0x08,0x95,0x39,0x00,0x01,0x9b,0x39,
0x00,0x02,0x9b,0x2d,0x00,0x01,0x95,0x40,0x00,0x03,0x9b,0x34,0x00,0x33,0x93,0x45,
0x00,0x0a,0x95,0x39,0x34,0x00,0x95,0x3c,0x3c,0x00,0x95,0x40,0x50,0x05,0x9b,0x2d,
0x57,0x02,0x9b,0x34,0x57,0x01,0x93,0x45,0x44,0x01,0x9b,0x39,0x57,0x02,0x9b,0x3c,
0x57,0x82,0x06,0x9b,0x2d,0x00,0x01,0xb3,0x01,0x07,0x12,0xb3,0x01,0x11,0x01,0x9b,
0x2d,0x4e,0x15,0xb3,0x01,0x1b,0x09,0x9b,0x34,0x00,0x0d,0xb3,0x01,0x25,0x12,0xb3,
0x01,0x2a,0x1c,0xb3,0x01,0x1d,0x07,0x9b,0x35,0x57,0x0f,0xb3,0x01,0x00,0x05,0x9b,
0x39,0x00,0x40,0x9b,0x3c,0x00,0x01,0x93,0x45,0x00,0x0b,0x9b,0x34,0x57,0x00,0x9b,
0x35,0x00,0x01,0x93,0x45,0x42,0x2e,0x95,0x3c,0x00,0x02,0x95,0x39,0x00,0x02,0x95,
0x40,0x00,0x01,0x9b,0x34,0x00,0x03,0x93,0x47,0x60,0x02,0x93,0x45,0x00,0x03,0x9b,
0x2d,0x00,0x1f,0x95,0x39,0x48,0x00,0x95,0x3c,0x40,0x00,0x95,0x40,0x44,0x05,0x9b,
0x39,0x4e,0x0b,0x93,0x47,0x00,0x02,0x93,0x48,0x5c,0x53,0x9b,0x3c,0x46,0x35,0xb3,
0x01,0x16,0x1a,0xb3,0x01,0x00,0x10,0x93,0x48,0x00,0x01,0x9b,0x40,0x57,0x01,0x93,
0x47,0x64,0x5f,0x9b,0x45,0x53,0x05,0x93,0x45,0x5c,0x00,0x93,0x47,0x00,0x3b,0x9b,
0x45,0x00,0x1a,0x95,0x39,0x00,0x01,0x95,0x38,0x4c,0x03,0x9b,0x40,0x00,0x02,0x9b,
0x38,0x46,0x00,0x9b,0x39,0x00,0x01,0x93,0x45,0x00,0x01,0x9b,0x47,0x57,0x01,0x93,
0x47,0x4e,0x37,0x9b,0x3c,0x00,0x26,0x9b,0x3c,0x53,0x2d,0xb3,0x01,0x02,0x18,0xb3,
0x01,0x15,0x12,0xb3,0x01,0x25,0x03,0x9b,0x47,0x00,0x06,0x9b,0x40,0x57,0x09,0xb3,
0x01,0x3d,0x12,0xb3,0x01,0x4f,0x16,0xb3,0x01,0x4a,0x12,0xb3,0x01,0x00,0x1d,0x9b,
0x47,0x4e,0x09,0x93,0x45,0x46,0x02,0x93,0x47,0x00,0x34,0x93,0x45,0x00,0x00,0x93,
0x47,0x64,0x09,0x9b,0x47,0x00,0x04,0x9b,0x38,0x00,0x06,0x9b,0x3c,0x00,0x00,0x9b,
0x40,0x00,0x08,0x95,0x38,0x00,0x01,0x95,0x37,0x56,0x05,0x9b,0x37,0x48,0x02,0x9b,
0x48,0x53,0x11,0x93,0x47,0x00,0x08,0x93,0x48,0x64,0x45,0x9b,0x40,0x57,0x35,0x93,
0x4a,0x60,0x02,0x93,0x48,0x00,0x29,0x9b,0x43,0x4c,0x04,0x9b,0x40,0x00,0x36,0x9b,
0x48,0x00,0x25,0x93,0x4a,0x00,0x01,0x9b,0x48,0x4c,0x03,0x93,0x48,0x64,0x37,0x9b,
0x48,0x00,0x0e,0x9b,0x43,0x00,0x12,0x95,0x37,0x00,0x01,0x95,0x36,0x3c,0x00,0x95,
0x39,0x50,0x03,0x9b,0x37,0x00,0x02,0x9b,0x36,0x39,0x02,0x9b,0x42,0x5d,0x03,0x93,
0x48,0x00,0x02,0x93,0x47,0x64,0x4c,0xe3,0x55,0x2a,0x08,0xe3,0x17,0x21,0x05,0x9b,
0x3e,0x4c,0x05,0xe3,0x0e,0x27,0x08,0xe3,0x00,0x40,0x0a,0x93,0x47,0x00,0x04,0x93,
0x45,0x40,0x45,0x9b,0x39,0x40,0x0a,0x9b,0x3e,0x00,0x56,0x9b,0x3e,0x46,0x0d,0x93,
0x48,0x56,0x02,0x93,0x45,0x00,0x21,0x9b,0x42,0x00,0x03,0x93,0x48,0x00,0x03,0x9b,
0x36,0x00,0x00,0x9b,0x39,0x00,0x01,0x93,0x4a,0x64,0x03,0x9b,0x3e,0x00,0x1f,0x95,
0x40,0x00,0x01,0x95,0x36,0x00,0x00,0x95,0x39,0x00,0x01,0x95,0x35,0x40,0x00,0x95,
0x39,0x3c,0x00,0x95,0x40,0x40,0x05,0x9b,0x29,0x4e,0x02,0x9b,0x35,0x48,0x02,0x9b,
0x39,0x40,0x02,0x9b,0x40,0x53,0x05,0x93,0x4c,0x64,0x06,0x93,0x4a,0x00,0x4f,0x9b,
0x3c,0x4c,0x11,0xe3,0x7b,0x32,0x08,0xe3,0x0e,0x27,0x0a,0xe3,0x2f,0x22,0x07,0x9b,
0x39,0x00,0x01,0xe3,0x42,0x26,0x0a,0xe3,0x00,0x40,0x08,0x93,0x4c,0x00,0x02,0x93,
0x4a,0x64,0x21,0x9b,0x39,0x4c,0x25,0xe3,0x0e,0x37,0x08,0xe3,0x7b,0x32,0x0a,0xe3,
0x25,0x28,0x08,0xe3,0x2f,0x22,0x08,0xe3,0x50,0x1d,0x03,0x9b,0x40,0x00,0x07,0xe3,
0x0e,0x27,0x08,0xe3,0x00,0x40,0x02,0x93,0x48,0x60,0x05,0x9b,0x40,0x48,0x01,0x93,
0x4a,0x00,0x5a,0x93,0x48,0x00,0x02,0x93,0x47,0x52,0x55,0x9b,0x40,0x00,0x0e,0x9b,
0x40,0x4e,0x10,0x9b,0x3c,0x00,0x29,0x93,0x47,0x00,0x06,0x93,0x45,0x3e,0x21,0x9b,
0x3c,0x4e,0x34,0x9b,0x39,0x00,0x2b,0x93,0x43,0x46,0x01,0x9b,0x39,0x40,0x05,0x93,
0x45,0x00,0x35,0x9b,0x29,0x00,0x08,0x9b,0x35,0x00,0x00,0x9b,0x39,0x00,0x00,0x9b,
0x3c,0x00,0x02,0x9b,0x40,0x00,0x05,0x93,0x43,0x00,0x10,0x95,0x35,0x00,0x00,0x95,
0x39,0x00,0x00,0x95,0x3c,0x00,0x00,0x95,0x40,0x00,0x00,0x93,0x43,0x56,0x02,0x95,
0x37,0x56,0x00,0x95,0x3b,0x56,0x05,0x9b,0x2f,0x57,0x02,0x9b,0x37,0x62,0x02,0x9b,
0x3b,0x4e,0x33,0x95,0x37,0x00,0x06,0x95,0x3b,0x00,0x07,0x9b,0x37,0x00,0x0e,0x9b,
0x3b,0x00,0x06,0x9b,0x2f,0x00,0x03,0x95,0x39,0x2a,0x00,0x95,0x3c,0x36,0x00,0x95,
0x40,0x48,0x05,0x9b,0x2d,0x4c,0x01,0x93,0x43,0x00,0x01,0x9b,0x34,0x46,0x01,0x93,
0x45,0x42,0x01,0x9b,0x39,0x4c,0x02,0x9b,0x3c,0x26,0x09,0x95,0x3c,0x00,0x07,0x9b,
0x3c,0x00,0x01,0x95,0x39,0x00,0x04,0x95,0x40,0x00,0x01,0x9b,0x39,0x00,0x02,0x9b,
0x2d,0x00,0x02,0x9b,0x34,0x00,0x31,0x93,0x45,0x00,0x0a,0x95,0x39,0x34,0x00,0x95,
0x3c,0x3c,0x00,0x95,0x40,0x50,0x05,0x9b,0x2d,0x4c,0x02,0x9b,0x34,0x4e,0x02,0x9b,
0x39,0x4c,0x01,0x93,0x45,0x42,0x01,0x9b,0x3c,0x4e,0x81,0x7b,0xb3,0x01,0x09,0x12,
0xb3,0x01,0x13,0x1a,0xb3,0x01,0x1f,0x12,0xb3,0x01,0x2a,0x12,0xb3,0x01,0x35,0x16,
0xb3,0x01,0x44,0x03,0x9b,0x2d,0x00,0x13,0xb3,0x01,0x4e,0x03,0x9b,0x2d,0x53,0x17,
0xb3,0x01,0x47,0x0e,0x93,0x45,0x00,0x08,0xb3,0x01,0x00,0x2f,0x9b,0x2d,0x00,0x04,
0x9b,0x2f,0x57,0x2f,0x95,0x3c,0x00,0x02,0x95,0x39,0x00,0x01,0x9b,0x34,0x00,0x01,
0x95,0x40,0x00,0x05,0x9b,0x3c,0x00,0x02,0x9b,0x39,0x00,0x21,0x95,0x30,0x48,0x00,
0x95,0x40,0x40,0x00,0x95,0x43,0x40,0x05,0x9b,0x30,0x4c,0x05,0x93,0x48,0x52,0x00,
0xe3,0x4b,0x10,0x01,0x9b,0x2f,0x00,0x07,0xe3,0x0e,0x17,0x08,0xe3,0x4b,0x20,0x08,
0xe3,0x4b,0x30,0x0a,0xe3,0x00,0x40,0x39,0x9b,0x34,0x4c,0x60,0x9b,0x37,0x48,0x5b,
0x93,0x4a,0x4a,0x05,0x9b,0x40,0x53,0x01,0x93,0x48,0x00,0x2c,0x93,0x4c,0x4e,0x04,
0x93,0x4a,0x00,0x25,0x9b,0x37,0x00,0x04,0x95,0x30,0x00,0x00,0x9b,0x30,0x00,0x00,
0x95,0x40,0x00,0x00,0x95,0x43,0x00,0x01,0x95,0x32,0x5e,0x00,0x95,0x42,0x48,0x00,
0x95,0x45,0x30,0x01,0x9b,0x34,0x00,0x02,0x9b,0x40,0x00,0x01,0x93,0x4c,0x00,0x01,
0x9b,0x32,0x46,0x02,0x9b,0x42,0x4e,0x03,0x93,0x4a,0x52,0x5b,0x9b,0x3e,0x4e,0x60,
0x9b,0x39,0x4c,0x14,0x9b,0x3e,0x00,0x34,0x9b,0x42,0x00,0x18,0x9b,0x42,0x46,0x42,
0x9b,0x42,0x00,0x06,0x9b,0x32,0x00,0x00,0x9b,0x39,0x00,0x12,0x95,0x32,0x00,0x00,
0x95,0x42,0x00,0x00,0x95,0x45,0x00,0x01,0x95,0x35,0x38,0x00,0x95,0x40,0x3e,0x00,
0x95,0x45,0x34,0x00,0x95,0x48,0x48,0x05,0x9b,0x29,0x4c,0x02,0x9b,0x39,0x4c,0x01,
0x93,0x48,0x5c,0x01,0x9b,0x40,0x53,0x05,0x93,0x4a,0x00,0x16,0xe3,0x27,0x47,0x0a,
0xe3,0x24,0x59,0x08,0xe3,0x33,0x63,0x0a,0xe3,0x29,0x70,0x08,0xe3,0x69,0x74,0x0a,
0xe3,0x00,0x7b,0x08,0xe3,0x30,0x7e,0x08,0xe3,0x7f,0x7f,0x01,0x9b,0x39,0x00,0x02,
0x9b,0x3c,0x4e,0x60,0x9b,0x39,0x53,0x0c,0x9b,0x40,0x00,0x45,0xe3,0x6a,0x6b,0x08,
0xe3,0x00,0x40,0x07,0x9b,0x40,0x4c,0x0c,0x9b,0x3c,0x00,0x1d,0x93,0x48,0x00,0x04,
0x93,0x47,0x60,0x23,0x9b,0x39,0x00,0x08,0x9b,0x29,0x00,0x02,0x95,0x35,0x00,0x01,
0x95,0x2d,0x38,0x05,0x9b,0x2d,0x4e,0x02,0x9b,0x3b,0x53,0x00,0x9b,0x40,0x00,0x07,
0x93,0x47,0x00,0x08,0x93,0x45,0x44,0x1f,0x9b,0x3c,0x48,0x06,0x9b,0x3b,0x00,0x28,
0x9b,0x3c,0x00,0x02,0x9b,0x39,0x48,0x54,0x9b,0x2d,0x00,0x0c,0x9b,0x2d,0x53,0x05,
0x93,0x48,0x56,0x04,0x93,0x45,0x00,0x56,0x93,0x48,0x00,0x01,0x9b,0x2f,0x4e,0x03,
0x93,0x4a,0x60,0x03,0x9b,0x2d,0x00,0x53,0x95,0x40,0x00,0x00,0x95,0x45,0x00,0x00,
0x95,0x48,0x00,0x01,0x95,0x2d,0x00,0x01,0x95,0x30,0x3c,0x00,0x95,0x3c,0x48,0x00,
0x95,0x40,0x3e,0x00,0x95,0x43,0x50,0x05,0x9b,0x2f,0x00,0x00,0x9b,0x30,0x48,0x02,
0x9b,0x3c,0x4e,0x09,0x93,0x4a,0x00,0x03,0x9b,0x39,0x00,0x01,0x93,0x4c,0x44,0x51,
0x9b,0x37,0x39,0x03,0xe3,0x34,0x3f,0x08,0xe3,0x42,0x36,0x0a,0xe3,0x3d,0x29,0x08,
0xe3,0x00,0x20,0x08,0xe3,0x42,0x16,0x0e,0x93,0x4c,0x00,0x00,0xe3,0x50,0x1d,0x08,
0x93,0x4a,0x52,0x02,0xe3,0x00,0x40,0x23,0x9b,0x34,0x53,0x14,0x9b,0x37,0x00,0x49,
0x93,0x48,0x60,0x00,0x93,0x4a,0x00,0x03,0x9b,0x37,0x48,0x46,0x9b,0x30,0x00,0x13,
0x93,0x48,0x00,0x01,0x95,0x30,0x00,0x00,0x95,0x3c,0x00,0x00,0x95,0x40,0x00,0x01,
0x95,0x2b,0x3e,0x00,0x95,0x3b,0x32,0x00,0x95,0x3e,0x4c,0x05,0x9b,0x2b,0x46,0x00,
0x9b,0x34,0x00,0x03,0x93,0x47,0x4e,0x03,0x9b,0x3c,0x00,0x04,0x9b,0x37,0x00,0x45,
0xe3,0x3d,0x39,0x0a,0xe3,0x38,0x2c,0x07,0x9b,0x32,0x4e,0x01,0xe3,0x12,0x24,0x0a,
0xe3,0x71,0x18,0x08,0xe3,0x5e,0x14,0x16,0xe3,0x0e,0x27,0x08,0xe3,0x00,0x40,0x06,
0x93,0x47,0x00,0x06,0x93,0x45,0x52,0x23,0x9b,0x43,0x57,0x59,0x93,0x45,0x00,0x06,
0x93,0x43,0x42,0x01,0x9b,0x3e,0x48,0x44,0x9b,0x43,0x00,0x02,0x9b,0x3e,0x00,0x0c,
0x9b,0x32,0x00,0x01,0x93,0x43,0x00,0x06,0x95,0x43,0x00,0x01,0x95,0x2b,0x00,0x00,
0x9b,0x2b,0x00,0x00,0x95,0x3b,0x00,0x01,0x95,0x32,0x5e,0x00,0x95,0x39,0x30,0x00,
0x95,0x42,0x4c,0x05,0x9b,0x32,0x53,0x02,0x9b,0x43,0x57,0x05,0x93,0x43,0x5c,0x29,
0x9b,0x42,0x57,0x0a,0x9b,0x43,0x00,0x26,0x9b,0x3e,0x5d,0x02,0x9b,0x42,0x00,0x01,
0x93,0x45,0x44,0x02,0x93,0x43,0x00,0x2f,0x9b,0x3e,0x00,0x04,0x9b,0x32,0x00,0x11,
0x93,0x45,0x00,0x16,0x93,0x45,0x46,0x01,0x9b,0x32,0x4c,0x02,0x9b,0x37,0x5d,0x5e,
0x9b,0x39,0x31,0x04,0x9b,0x37,0x00,0x2c,0x9b,0x37,0x2f,0x0c,0x9b,0x39,0x00,0x24,
0x9b,0x36,0x57,0x06,0x9b,0x37,0x00,0x2a,0x9b,0x37,0x3d,0x07,0xb3,0x01,0x02,0x09,
0x9b,0x36,0x00,0x09,0xb3,0x01,0x07,0x16,0xb3,0x01,0x11,0x01,0x9b,0x39,0x57,0x0c,
0x9b,0x37,0x00,0x03,0xb3,0x01,0x1d,0x12,0xb3,0x01,0x2e,0x1c,0x93,0x45,0x00,0x04,
0xb3,0x01,0x00,0x13,0x9b,0x32,0x00,0x0c,0x9b,0x2d,0x4c,0x01,0x93,0x45,0x5c,0x1f,
0x9b,0x39,0x00,0x3c,0x9b,0x2d,0x00,0x04,0x9b,0x2f,0x53,0x01,0x93,0x45,0x00,0x02,
0x93,0x47,0x60,0x26,0x95,0x3e,0x00,0x30,0x95,0x32,0x00,0x00,0x95,0x39,0x00,0x00,
0x95,0x42,0x00,0x02,0x95,0x30,0x48,0x00,0x95,0x40,0x40,0x00,0x95,0x43,0x40,0x05,
0x9b,0x2f,0x00,0x00,0x9b,0x30,0x4c,0x05,0x93,0x47,0x00,0x00,0x98,0x48,0x48,0x08,
0x93,0x48,0x52,0x53,0x9b,0x34,0x4c,0x60,0x9b,0x37,0x48,0x05,0xe3,0x04,0x3d,0x08,
0xe3,0x25,0x38,0x0a,0xe3,0x1c,0x2e,0x08,0xe3,0x2a,0x25,0x08,0xe3,0x68,0x1e,0x0e,
0xe3,0x12,0x24,0x0a,0xe3,0x00,0x40,0x10,0x93,0x48,0x00,0x08,0x93,0x47,0x4a,0x09,
0x9b,0x40,0x53,0x2b,0x93,0x47,0x00,0x04,0x93,0x45,0x56,0x27,0x9b,0x37,0x00,0x04,
0x95,0x30,0x00,0x00,0x9b,0x30,0x00,0x00,0x95,0x40,0x00,0x00,0x95,0x43,0x00,0x01,
0x95,0x32,0x5e,0x00,0x95,0x42,0x48,0x00,0x95,0x45,0x30,0x01,0x9b,0x34,0x00,0x02,
0x9b,0x40,0x00,0x02,0x9b,0x32,0x46,0x02,0x9b,0x42,0x4e,0x01,0x98,0x48,0x00,0x02,
0x98,0x4a,0x56,0x02,0x93,0x45,0x00,0x04,0x93,0x47,0x4e,0x55,0x9b,0x3e,0x4e,0x01,
0xe3,0x50,0x3d,0x08,0xe3,0x0e,0x37,0x0a,0xe3,0x55,0x2a,0x08,0xe3,0x34,0x1f,0x08,
0x93,0x47,0x00,0x02,0xe3,0x47,0x13,0x08,0xe3,0x68,0x0e,0x0a,0xe3,0x00,0x40,0x29,
0x9b,0x39,0x4c,0x14,0x9b,0x3e,0x00,0x34,0x9b,0x42,0x00,0x15,0x93,0x45,0x52,0x03,
0x9b,0x42,0x46,0x2b,0x93,0x45,0x00,0x02,0x93,0x47,0x5c,0x15,0x9b,0x42,0x00,0x06,
0x9b,0x32,0x00,0x00,0x9b,0x39,0x00,0x12,0x95,0x32,0x00,0x00,0x95,0x42,0x00,0x00,
0x95,0x45,0x00,0x01,0x95,0x3c,0x3c,0x00,0x95,0x40,0x3c,0x00,0x95,0x45,0x5a,0x05,
0x9b,0x29,0x4c,0x02,0x9b,0x39,0x4c,0x01,0x98,0x4a,0x00,0x01,0x9b,0x40,0x53,0x01,
0x98,0x48,0x4c,0x04,0x93,0x47,0x00,0x02,0x93,0x48,0x4a,0x53,0x9b,0x39,0x00,0x02,
0x9b,0x3c,0x4e,0x35,0x93,0x48,0x00,0x00,0x93,0x4a,0x5c,0x0c,0x95,0x40,0x00,0x02,
0x95,0x3c,0x00,0x00,0x95,0x45,0x00,0x18,0x95,0x3c,0x4c,0x00,0x95,0x40,0x4c,0x00,
0x95,0x45,0x50,0x05,0x9b,0x39,0x53,0x0c,0x9b,0x40,0x00,0x45,0x93,0x4a,0x00,0x06,
0x93,0x48,0x56,0x04,0x95,0x48,0x5a,0x05,0x9b,0x40,0x4c,0x0c,0x9b,0x3c,0x00,0x3b,
0x95,0x3c,0x00,0x06,0x95,0x40,0x00,0x03,0x9b,0x39,0x00,0x05,0x95,0x48,0x00,0x03,
0x9b,0x29,0x00,0x03,0x95,0x3c,0x44,0x00,0x95,0x40,0x44,0x00,0x95,0x4c,0x5a,0x02,
0x93,0x48,0x00,0x03,0x9b,0x2d,0x4e,0x01,0x93,0x47,0x56,0x01,0x9b,0x3b,0x53,0x00,
0x9b,0x40,0x00,0x01,0x98,0x48,0x00,0x02,0x98,0x45,0x4c,0x2b,0x9b,0x3c,0x48,0x06,
0x9b,0x3b,0x00,0x13,0xe3,0x3d,0x29,0x08,0xe3,0x68,0x1e,0x0a,0xe3,0x47,0x23,0x03,
0x9b,0x3c,0x00,0x02,0x9b,0x39,0x48,0x03,0xe3,0x00,0x40,0x02,0x93,0x47,0x00,0x0a,
0x93,0x45,0x46,0x45,0x9b,0x2d,0x00,0x0c,0x9b,0x2d,0x53,0x60,0x9b,0x2f,0x4e,0x01,
0x93,0x45,0x00,0x02,0x95,0x3c,0x00,0x02,0x93,0x48,0x56,0x01,0x9b,0x2d,0x00,0x03,
0x95,0x40,0x00,0x0e,0x95,0x4c,0x00,0x02,0x95,0x45,0x00,0x1e,0x93,0x4a,0x60,0x0a,
0x93,0x48,0x00,0x1a,0x95,0x30,0x3e,0x00,0x95,0x3c,0x34,0x00,0x95,0x40,0x36,0x00,
0x95,0x43,0x32,0x05,0x9b,0x2f,0x00,0x00,0x9b,0x30,0x4c,0x00,0x9b,0x39,0x00,0x03,
0x98,0x45,0x00,0x02,0x98,0x48,0x4c,0x06,0x93,0x4a,0x00,0x06,0x93,0x4c,0x60,0x4f,
0x9b,0x34,0x57,0x13,0xe3,0x34,0x3f,0x0a,0xe3,0x17,0x31,0x08,0xe3,0x12,0x24,0x08,
0xe3,0x6d,0x1b,0x08,0x93,0x4c,0x00,0x02,0xe3,0x38,0x1c,0x02,0x93,0x4a,0x64,0x08,
0xe3,0x00,0x40,0x1f,0x9b,0x37,0x53,0x51,0x93,0x48,0x68,0x08,0x93,0x4a,0x00,0x07,
0x9b,0x3c,0x57,0x2e,0x9b,0x30,0x00,0x1e,0x9b,0x34,0x00,0x0e,0x95,0x30,0x00,0x00,
0x9b,0x37,0x00,0x00,0x95,0x3c,0x00,0x00,0x95,0x40,0x00,0x00,0x95,0x43,0x00,0x01,
0x95,0x32,0x48,0x00,0x95,0x3e,0x40,0x00,0x95,0x42,0x4c,0x00,0x95,0x45,0x3c,0x01,
0x9b,0x3c,0x00,0x04,0x9b,0x32,0x53,0x01,0x93,0x48,0x00,0x02,0x93,0x47,0x68,0x00,
0x98,0x48,0x00,0x02,0x98,0x4a,0x48,0x5b,0x9b,0x39,0x55,0x29,0x93,0x47,0x00,0x08,
0x93,0x45,0x52,0x2f,0x9b,0x3e,0x53,0x5f,0x93,0x43,0x44,0x01,0x9b,0x42,0x48,0x01,
0x93,0x45,0x00,0x37,0x9b,0x42,0x00,0x0a,0x9b,0x39,0x00,0x00,0x9b,0x3e,0x00,0x08,
0x9b,0x32,0x00,0x09,0x93,0x43,0x00,0x07,0x95,0x32,0x00,0x00,0x95,0x3e,0x00,0x00,
0x95,0x42,0x00,0x01,0x95,0x35,0x3c,0x00,0x95,0x3c,0x26,0x00,0x95,0x40,0x3a,0x05,
0x9b,0x29,0x4c,0x02,0x9b,0x35,0x4c,0x01,0x93,0x43,0x52,0x00,0x98,0x4a,0x00,0x01,
0x9b,0x39,0x4c,0x01,0x98,0x4c,0x40,0x01,0x9b,0x40,0x40,0x5a,0x9b,0x3c,0x48,0x05,
0x93,0x43,0x00,0x00,0x93,0x45,0x42,0x0d,0x9b,0x40,0x00,0x41,0x93,0x45,0x00,0x0d,
0x9b,0x40,0x4c,0x05,0x93,0x45,0x44,0x03,0x9b,0x3c,0x00,0x58,0x9b,0x3c,0x4c,0x14,
0x9b,0x39,0x00,0x4c,0x9b,0x39,0x4c,0x29,0xb3,0x01,0x01,0x1f,0x9b,0x35,0x00,0x01,
0xb3,0x01,0x0b,0x16,0xb3,0x01,0x1b,0x01,0x9b,0x35,0x53,0x06,0x9b,0x29,0x00,0x0b,
0xb3,0x01,0x2c,0x28,0xb3,0x01,0x00,0x20,0x93,0x45,0x00,0x06,0x93,0x45,0x2e,0x01,
0x9b,0x34,0x53,0x06,0x9b,0x35,0x00,0x5a,0x9b,0x30,0x4c,0x01,0x98,0x4c,0x00,0x02,
0x93,0x45,0x00,0x00,0x93,0x47,0x60,0x0d,0x9b,0x34,0x00,0x2a,0x9b,0x3c,0x00,0x02,
0x9b,0x39,0x00,0x04,0x9b,0x30,0x00,0x02,0x9b,0x40,0x00,0x0f,0x95,0x45,0x00,0x08,
0x95,0x35,0x00,0x00,0x95,0x3c,0x00,0x00,0x95,0x40,0x00,0x02,0x95,0x39,0x48,0x00,
0x95,0x3c,0x40,0x00,0x95,0x40,0x44,0x05,0x9b,0x39,0x4e,0x03,0x93,0x47,0x00,0x02,
0x98,0x45,0x4c,0x00,0x93,0x48,0x52,0x5b,0x9b,0x3c,0x46,0x60,0x9b,0x40,0x57,0x03,
0x93,0x48,0x00,0x02,0x93,0x47,0x4e,0x5b,0x9b,0x45,0x53,0x07,0x93,0x45,0x44,0x00,
0x93,0x47,0x00,0x39,0x9b,0x45,0x00,0x1a,0x95,0x39,0x00,0x01,0x95,0x38,0x4c,0x03,
0x9b,0x40,0x00,0x02,0x9b,0x38,0x46,0x00,0x9b,0x39,0x00,0x02,0x9b,0x47,0x57,0x01,
0x98,0x45,0x00,0x02,0x98,0x47,0x5a,0x04,0x93,0x45,0x00,0x00,0x93,0x47,0x46,0x31,
0x9b,0x3c,0x00,0x26,0x9b,0x3c,0x53,0x4d,0xb3,0x01,0x02,0x0d,0x9b,0x47,0x00,0x06,
0x9b,0x40,0x57,0x03,0xb3,0x01,0x16,0x10,0xb3,0x01,0x25,0x12,0xb3,0x01,0x38,0x12,
0xb3,0x01,0x38,0x12,0xb3,0x01,0x00,0x17,0x9b,0x47,0x4e,0x01,0x93,0x45,0x4e,0x00,
0x93,0x47,0x00,0x30,0x93,0x47,0x52,0x04,0x93,0x45,0x00,0x13,0x9b,0x47,0x00,0x04,
0x9b,0x38,0x00,0x06,0x9b,0x3c,0x00,0x00,0x9b,0x40,0x00,0x08,0x95,0x38,0x00,0x01,
0x95,0x37,0x56,0x05,0x9b,0x37,0x48,0x02,0x9b,0x48,0x53,0x01,0x98,0x47,0x00,0x02,
0x98,0x48,0x44,0x06,0x93,0x47,0x00,0x08,0x93,0x48,0x60,0x4d,0x9b,0x40,0x57,0x09,
0xe3,0x04,0x3d,0x08,0xe3,0x76,0x35,0x0a,0xe3,0x25,0x28,0x08,0xe3,0x50,0x1d,0x08,
0xe3,0x25,0x18,0x0a,0xe3,0x47,0x23,0x02,0x93,0x48,0x00,0x06,0xe3,0x00,0x40,0x02,
0x93,0x4a,0x5c,0x21,0x9b,0x43,0x4c,0x04,0x9b,0x40,0x00,0x33,0xe3,0x12,0x34,0x08,
0xe3,0x5a,0x27,0x09,0x9b,0x48,0x00,0x01,0xe3,0x4b,0x20,0x08,0xe3,0x2f,0x22,0x08,
0xe3,0x00,0x40,0x04,0x93,0x4a,0x00,0x03,0x9b,0x48,0x4c,0x01,0x93,0x48,0x4e,0x39,
0x9b,0x48,0x00,0x0e,0x9b,0x43,0x00,0x12,0x95,0x37,0x00,0x01,0x95,0x36,0x3c,0x00,
0x95,0x39,0x50,0x00,0x93,0x48,0x00,0x03,0x9b,0x37,0x00,0x01,0x93,0x47,0x5c,0x01,
0x9b,0x36,0x39,0x02,0x9b,0x42,0x5d,0x01,0x98,0x48,0x00,0x02,0x98,0x4a,0x4c,0x5b,
0x9b,0x3e,0x4c,0x09,0x93,0x47,0x00,0x04,0x93,0x45,0x44,0x53,0x9b,0x39,0x40,0x0a,
0x9b,0x3e,0x00,0x56,0x9b,0x3e,0x46,0x0d,0x93,0x45,0x00,0x02,0x93,0x48,0x42,0x21,
0x9b,0x42,0x00,0x06,0x9b,0x36,0x00,0x00,0x9b,0x39,0x00,0x04,0x9b,0x3e,0x00,0x05,
0x93,0x4a,0x52,0x1a,0x95,0x40,0x00,0x00,0x93,0x48,0x00,0x01,0x95,0x36,0x00,0x00,
0x95,0x39,0x00,0x01,0x95,0x35,0x40,0x00,0x95,0x39,0x3c,0x00,0x95,0x40,0x40,0x05,
0x9b,0x29,0x4e,0x02,0x9b,0x35,0x48,0x01,0x98,0x4a,0x00,0x01,0x9b,0x39,0x40,0x02,
0x9b,0x40,0x53,0x0d,0x93,0x4a,0x00,0x0c,0x93,0x4c,0x52,0x41,0x9b,0x3c,0x4c,0x25,
0xe3,0x6d,0x3b,0x05,0x9b,0x39,0x00,0x05,0xe3,0x71,0x28,0x08,0xe3,0x17,0x21,0x0e,
0xe3,0x1c,0x2e,0x08,0x93,0x4c,0x00,0x00,0xe3,0x00,0x40,0x02,0x93,0x4a,0x4a,0x11,
0x9b,0x39,0x4c,0x4a,0x9b,0x40,0x00,0x0d,0x93,0x48,0x4e,0x02,0x93,0x4a,0x00,0x07,
0x9b,0x40,0x48,0x5d,0x93,0x47,0x56,0x00,0x93,0x48,0x00,0x55,0x9b,0x40,0x00,0x0e,
0x9b,0x40,0x4e,0x10,0x9b,0x3c,0x00,0x19,0x93,0x47,0x00,0x06,0x93,0x45,0x42,0x31,
0x9b,0x3c,0x4e,0x34,0x9b,0x39,0x00,0x29,0x93,0x43,0x52,0x03,0x9b,0x39,0x40,0x01,
0x93,0x45,0x00,0x39,0x9b,0x29,0x00,0x08,0x9b,0x35,0x00,0x00,0x9b,0x39,0x00,0x00,
0x9b,0x3c,0x00,0x02,0x9b,0x40,0x00,0x07,0x93,0x43,0x00,0x0e,0x95,0x35,0x00,0x00,
0x95,0x39,0x00,0x00,0x95,0x3c,0x00,0x00,0x95,0x40,0x00,0x02,0x95,0x37,0x56,0x00,
0x95,0x3b,0x56,0x04,0x93,0x43,0x4e,0x01,0x9b,0x2f,0x5d,0x02,0x9b,0x37,0x62,0x02,
0x9b,0x3b,0x5d,0x33,0x95,0x37,0x00,0x06,0x95,0x3b,0x00,0x01,0x9b,0x37,0x00,0x10,
0x9b,0x3b,0x00,0x0d,0x95,0x39,0x2a,0x00,0x95,0x3c,0x36,0x00,0x95,0x40,0x48,0x05,
0x9b,0x2d,0x4e,0x00,0x9b,0x2f,0x00,0x02,0x9b,0x34,0x3d,0x02,0x9b,0x39,0x3d,0x03,
0x93,0x43,0x00,0x00,0x93,0x45,0x40,0x08,0x95,0x3c,0x00,0x08,0x95,0x39,0x00,0x01,
0x9b,0x39,0x00,0x02,0x9b,0x2d,0x00,0x01,0x95,0x40,0x00,0x03,0x9b,0x34,0x00,0x2d,
0x93,0x45,0x00,0x10,0x95,0x39,0x34,0x00,0x95,0x3c,0x3c,0x00,0x95,0x40,0x50,0x05,
0x99,0x2c,0x3c,0x00,0x9b,0x2d,0x57,0x02,0x9b,0x34,0x57,0x01,0x93,0x45,0x44,0x01,
0x99,0x2c,0x00,0x00,0x9b,0x39,0x57,0x02,0x9b,0x3c,0x57,0x81,0x3a,0x99,0x2c,0x38,
0x04,0x99,0x2c,0x00,0x48,0x9b,0x2d,0x00,0x14,0x9b,0x2d,0x4e,0x1e,0x9b,0x34,0x00,
0x3f,0x91,0x1f,0x7e,0x03,0x99,0x28,0x78,0x00,0x99,0x2e,0x54,0x00,0x9b,0x35,0x57,
0x00,0x92,0x43,0x6c,0x00,0x92,0x4f,0x72,0x04,0x99,0x28,0x00,0x00,0x99,0x2e,0x00,
0x10,0x9b,0x39,0x00,0x40,0x9b,0x3c,0x00,0x01,0x93,0x45,0x00,0x0b,0x9b,0x34,0x57,
0x00,0x9b,0x35,0x00,0x0c,0x92,0x43,0x00,0x00,0x92,0x4f,0x00,0x1b,0x91,0x1f,0x00,
0x08,0x95,0x3c,0x00,0x02,0x95,0x39,0x00,0x02,0x95,0x40,0x00,0x01,0x9b,0x34,0x00,
0x08,0x9b,0x2d,0x00,0x1f,0x95,0x39,0x38,0x00,0x95,0x40,0x3e,0x02,0x91,0x21,0x6c,
0x03,0x99,0x23,0x72,0x00,0x94,0x2d,0x57,0x00,0x99,0x31,0x3b,0x00,0x9a,0x43,0x6c,
0x01,0x9a,0x40,0x6c,0x01,0x9a,0x3c,0x5e,0x00,0x94,0x3c,0x57,0x01,0x9a,0x39,0x5a,
0x01,0x99,0x23,0x00,0x00,0x99,0x31,0x00,0x00,0x94,0x40,0x5d,0x02,0x94,0x43,0x53,
0x2a,0x99,0x2a,0x25,0x04,0x99,0x2a,0x00,0x1e,0x94,0x2d,0x00,0x04,0x9a,0x3c,0x00,
0x03,0x9a,0x39,0x00,0x07,0x99,0x2a,0x32,0x04,0x99,0x2a,0x00,0x25,0x9a,0x40,0x00,
0x01,0x94,0x3c,0x00,0x04,0x94,0x43,0x00,0x02,0x99,0x2a,0x3c,0x00,0x94,0x2d,0x4e,
0x00,0x9a,0x3c,0x5e,0x00,0x9a,0x43,0x00,0x01,0x9a,0x39,0x56,0x03,0x99,0x2a,0x00,
0x02,0x94,0x40,0x00,0x2a,0x99,0x26,0x70,0x00,0x99,0x2a,0x46,0x00,0x94,0x3c,0x40,
0x00,0x9a,0x43,0x66,0x01,0x9a,0x40,0x66,0x01,0x94,0x40,0x4c,0x02,0x99,0x26,0x00,
0x00,0x99,0x2a,0x00,0x00,0x94,0x43,0x48,0x2c,0x99,0x2a,0x38,0x04,0x99,0x2a,0x00,
0x15,0x9a,0x39,0x00,0x00,0x9a,0x40,0x00,0x01,0x9a,0x3c,0x00,0x00,0x94,0x3c,0x00,
0x02,0x9a,0x43,0x00,0x02,0x94,0x40,0x00,0x00,0x94,0x43,0x00,0x12,0x99,0x2a,0x3c,
0x00,0x94,0x3c,0x53,0x00,0x9a,0x43,0x6c,0x01,0x9a,0x40,0x66,0x01,0x9a,0x3c,0x62,
0x00,0x94,0x40,0x62,0x01,0x91,0x21,0x00,0x00,0x9a,0x39,0x50,0x01,0x99,0x2a,0x00,
0x00,0x94,0x43,0x57,0x29,0x91,0x21,0x44,0x03,0x99,0x2a,0x37,0x04,0x99,0x2a,0x00,
0x03,0x91,0x21,0x00,0x26,0x91,0x21,0x6c,0x03,0x99,0x23,0x78,0x00,0x99,0x2a,0x46,
0x04,0x99,0x23,0x00,0x00,0x99,0x2a,0x00,0x18,0x9a,0x3c,0x00,0x01,0x9a,0x39,0x00,
0x00,0x9a,0x40,0x00,0x01,0x94,0x3c,0x00,0x00,0x94,0x40,0x00,0x02,0x9a,0x43,0x00,
0x02,0x94,0x43,0x00,0x04,0x94,0x2d,0x00,0x0a,0x99,0x2a,0x3c,0x04,0x99,0x2a,0x00,
0x2c,0x99,0x2a,0x3c,0x00,0x94,0x2d,0x4c,0x00,0x9a,0x43,0x66,0x01,0x9a,0x40,0x72,
0x01,0x9a,0x3c,0x6c,0x00,0x94,0x3c,0x53,0x01,0x9a,0x39,0x56,0x01,0x99,0x2a,0x00,
0x00,0x94,0x40,0x62,0x2c,0x99,0x2a,0x3c,0x04,0x99,0x2a,0x00,0x2c,0x99,0x26,0x72,
0x00,0x99,0x2a,0x46,0x04,0x99,0x26,0x00,0x00,0x99,0x2a,0x00,0x0a,0x9a,0x3c,0x00,
0x05,0x9a,0x39,0x00,0x00,0x9a,0x40,0x00,0x01,0x9a,0x43,0x00,0x08,0x94,0x2d,0x00,
0x09,0x91,0x21,0x00,0x0b,0x99,0x2a,0x38,0x00,0x94,0x3c,0x00,0x02,0x94,0x40,0x00,
0x02,0x99,0x2a,0x00,0x29,0x91,0x21,0x6c,0x03,0x99,0x2a,0x36,0x00,0x94,0x32,0x57,
0x00,0x9a,0x42,0x72,0x01,0x9a,0x3e,0x66,0x01,0x94,0x3c,0x53,0x02,0x99,0x2a,0x00,
0x00,0x94,0x42,0x4e,0x02,0x94,0x45,0x4e,0x0d,0x91,0x21,0x00,0x1d,0x99,0x23,0x6e,
0x00,0x99,0x2a,0x3b,0x04,0x99,0x23,0x00,0x00,0x99,0x2a,0x00,0x25,0x95,0x39,0x00,
0x00,0x95,0x40,0x00,0x02,0x95,0x39,0x3e,0x00,0x95,0x3e,0x4c,0x02,0x91,0x26,0x72,
0x03,0x99,0x23,0x78,0x00,0x99,0x2a,0x46,0x00,0x9a,0x39,0x5e,0x04,0x99,0x23,0x00,
0x00,0x99,0x2a,0x00,0x2c,0x99,0x2a,0x25,0x04,0x99,0x2a,0x00,0x1a,0x94,0x3c,0x00,
0x12,0x99,0x2a,0x32,0x00,0x94,0x3c,0x3d,0x04,0x99,0x2a,0x00,0x2c,0x99,0x2a,0x3c,
0x04,0x99,0x2a,0x00,0x18,0x9a,0x42,0x00,0x03,0x9a,0x3e,0x00,0x0b,0x94,0x3c,0x00,
0x00,0x94,0x42,0x00,0x02,0x94,0x45,0x00,0x04,0x99,0x26,0x70,0x00,0x99,0x2a,0x46,
0x00,0x94,0x3c,0x48,0x00,0x9a,0x42,0x62,0x01,0x9a,0x3e,0x5a,0x01,0x94,0x42,0x53,
0x02,0x99,0x26,0x00,0x00,0x99,0x2a,0x00,0x00,0x94,0x45,0x4e,0x2c,0x99,0x2a,0x38,
0x04,0x99,0x2a,0x00,0x2c,0x99,0x2a,0x3c,0x01,0x91,0x26,0x00,0x03,0x99,0x2a,0x00,
0x06,0x9a,0x39,0x00,0x0c,0x94,0x32,0x00,0x17,0x91,0x26,0x62,0x03,0x99,0x2a,0x37,
0x00,0x94,0x32,0x2c,0x00,0x9a,0x39,0x38,0x04,0x99,0x2a,0x00,0x07,0x91,0x26,0x00,
0x05,0x94,0x3c,0x00,0x00,0x9a,0x42,0x00,0x03,0x9a,0x3e,0x00,0x01,0x94,0x42,0x00,
0x00,0x94,0x45,0x00,0x19,0x91,0x26,0x72,0x03,0x99,0x23,0x78,0x00,0x99,0x2a,0x46,
0x00,0x9a,0x39,0x00,0x00,0x94,0x3c,0x40,0x00,0x9a,0x42,0x48,0x01,0x9a,0x3e,0x48,
0x01,0x94,0x42,0x3d,0x02,0x99,0x23,0x00,0x00,0x99,0x2a,0x00,0x00,0x94,0x45,0x4c,
0x0c,0x94,0x32,0x00,0x20,0x99,0x2a,0x3c,0x00,0x94,0x32,0x48,0x00,0x9a,0x39,0x3e,
0x04,0x99,0x2a,0x00,0x2c,0x99,0x2a,0x3c,0x04,0x99,0x2a,0x00,0x2c,0x99,0x2a,0x3c,
0x04,0x99,0x2a,0x00,0x16,0x94,0x3c,0x00,0x02,0x94,0x45,0x00,0x01,0x9a,0x3e,0x00,
0x01,0x9a,0x42,0x00,0x00,0x94,0x42,0x00,0x12,0x99,0x26,0x72,0x00,0x99,0x2a,0x46,
0x00,0x94,0x3c,0x46,0x00,0x9a,0x42,0x62,0x01,0x9a,0x3e,0x5e,0x01,0x94,0x42,0x46,
0x02,0x99,0x26,0x00,0x00,0x99,0x2a,0x00,0x00,0x94,0x45,0x48,0x05,0x93,0x47,0x68,
0x19,0x9a,0x39,0x00,0x0e,0x99,0x2a,0x38,0x00,0x94,0x32,0x00,0x04,0x99,0x2a,0x00,
0x1f,0x91,0x26,0x00,0x0a,0x91,0x1f,0x6c,0x00,0x93,0x47,0x00,0x03,0x99,0x23,0x4a,
0x00,0x99,0x2a,0x36,0x00,0x94,0x32,0x35,0x00,0x9a,0x39,0x44,0x01,0x93,0x48,0x56,
0x03,0x99,0x23,0x00,0x00,0x99,0x2a,0x00,0x02,0x9a,0x42,0x00,0x09,0x9a,0x3e,0x00,
0x09,0x94,0x3c,0x00,0x04,0x9a,0x39,0x00,0x02,0x94,0x45,0x00,0x01,0x91,0x1f,0x00,
0x05,0x94,0x42,0x00,0x02,0x94,0x32,0x00,0x07,0x91,0x20,0x5e,0x03,0x99,0x23,0x6e,
0x00,0x99,0x2a,0x3b,0x04,0x99,0x23,0x00,0x00,0x99,0x2a,0x00,0x03,0x93,0x48,0x00,
0x06,0x93,0x45,0x4e,0x12,0xe3,0x4f,0x45,0x0a,0x95,0x39,0x00,0x00,0x95,0x3e,0x00,
0x00,0xe3,0x61,0x6f,0x02,0x95,0x3c,0x48,0x00,0x95,0x40,0x44,0x02,0x91,0x21,0x62,
0x03,0x99,0x23,0x78,0x00,0x99,0x2a,0x46,0x00,0x94,0x2d,0x4e,0x00,0x9a,0x43,0x62,
0x01,0x9a,0x40,0x66,0x00,0x93,0x45,0x00,0x00,0xe3,0x7f,0x7f,0x01,0x9a,0x3c,0x5e,
0x00,0x94,0x3c,0x5d,0x01,0x9a,0x39,0x56,0x01,0x99,0x23,0x00,0x00,0x99,0x2a,0x00,
0x00,0x94,0x43,0x53,0x01,0x91,0x20,0x00,0x12,0xe3,0x4a,0x69,0x08,0xe3,0x35,0x51,
0x08,0xe3,0x00,0x40,0x09,0x99,0x2a,0x25,0x04,0x99,0x2a,0x00,0x05,0x93,0x45,0x56,
0x27,0x99,0x2a,0x32,0x04,0x99,0x2a,0x00,0x06,0x9a,0x3c,0x00,0x01,0x9a,0x39,0x00,
0x25,0x99,0x2a,0x3c,0x00,0x9a,0x3c,0x50,0x00,0x94,0x40,0x46,0x01,0x9a,0x39,0x40,
0x03,0x99,0x2a,0x00,0x07,0x9a,0x40,0x00,0x0d,0x94,0x3c,0x00,0x00,0x9a,0x43,0x00,
0x04,0x94,0x40,0x00,0x00,0x94,0x43,0x00,0x06,0x94,0x2d,0x00,0x0d,0xb3,0x01,0x06,
0x01,0x99,0x26,0x70,0x00,0x99,0x2a,0x46,0x00,0x94,0x3c,0x40,0x00,0x9a,0x43,0x3e,
0x01,0x9a,0x40,0x50,0x01,0x94,0x40,0x3d,0x02,0x99,0x26,0x00,0x00,0x99,0x2a,0x00,
0x00,0x94,0x43,0x26,0x0b,0xb3,0x01,0x1f,0x12,0xb3,0x01,0x3a,0x01,0x94,0x3c,0x00,
0x02,0x94,0x40,0x00,0x0a,0x94,0x43,0x00,0x02,0x99,0x2a,0x38,0x00,0x94,0x2d,0x48,
0x01,0xb3,0x01,0x4c,0x03,0x99,0x2a,0x00,0x0f,0xb3,0x01,0x5a,0x01,0x9a,0x43,0x00,
0x03,0x9a,0x40,0x00,0x0e,0xb3,0x01,0x6a,0x0b,0x99,0x2a,0x3c,0x00,0x94,0x3c,0x53,
0x00,0x9a,0x43,0x6c,0x01,0x9a,0x40,0x6c,0x01,0x94,0x40,0x57,0x02,0x99,0x2a,0x00,
0x00,0x94,0x43,0x53,0x05,0x91,0x21,0x00,0x02,0xb3,0x01,0x7f,0x06,0x93,0x45,0x00,
0x14,0xb3,0x01,0x00,0x08,0x91,0x21,0x6c,0x03,0x99,0x23,0x5e,0x00,0x99,0x2a,0x37,
0x04,0x99,0x23,0x00,0x00,0x99,0x2a,0x00,0x07,0x91,0x21,0x00,0x22,0x91,0x21,0x66,
0x03,0x99,0x23,0x78,0x00,0x99,0x2a,0x46,0x04,0x99,0x23,0x00,0x00,0x99,0x2a,0x00,
0x10,0x9a,0x3c,0x00,0x01,0x9a,0x39,0x00,0x03,0x9a,0x43,0x00,0x03,0x9a,0x40,0x00,
0x0b,0x94,0x3c,0x00,0x02,0x94,0x40,0x00,0x04,0x94,0x43,0x00,0x04,0x99,0x2a,0x3c,
0x04,0x99,0x2a,0x00,0x00,0x94,0x2d,0x00,0x2c,0x99,0x2a,0x3c,0x00,0x94,0x2d,0x48,
0x00,0x9a,0x40,0x78,0x01,0x9a,0x3c,0x5e,0x01,0x9a,0x39,0x48,0x00,0x94,0x3c,0x53,
0x02,0x99,0x2a,0x00,0x00,0x94,0x40,0x5d,0x2c,0x99,0x23,0x56,0x00,0x99,0x2a,0x3c,
0x04,0x99,0x23,0x00,0x00,0x99,0x2a,0x00,0x2c,0x99,0x26,0x72,0x00,0x99,0x2a,0x46,
0x00,0x99,0x39,0x3e,0x04,0x99,0x26,0x00,0x00,0x99,0x2a,0x00,0x00,0x99,0x39,0x00,
0x05,0x9a,0x3c,0x00,0x03,0x9a,0x40,0x00,0x02,0x9a,0x39,0x00,0x00,0x94,0x3c,0x00,
0x08,0x94,0x2d,0x00,0x00,0x94,0x40,0x00,0x01,0x91,0x21,0x00,0x0e,0x95,0x3c,0x00,
0x0b,0x99,0x2a,0x38,0x04,0x99,0x2a,0x00,0x01,0x95,0x40,0x00,0x26,0x95,0x40,0x4c,
0x00,0x95,0x43,0x3e,0x02,0x91,0x26,0x78,0x03,0x99,0x23,0x6c,0x00,0x99,0x2e,0x54,
0x00,0x94,0x32,0x57,0x00,0x9a,0x47,0x5e,0x00,0x9c,0x4c,0x5e,0x00,0x9c,0x4f,0x66,
0x00,0x9c,0x53,0x5a,0x01,0x9a,0x43,0x6c,0x01,0x9a,0x40,0x5e,0x00,0x94,0x40,0x57,
0x02,0x99,0x23,0x00,0x00,0x99,0x2e,0x00,0x00,0x94,0x43,0x57,0x02,0x94,0x47,0x4e,
0x76,0x9a,0x47,0x00,0x04,0x9a,0x40,0x00,0x01,0x9a,0x43,0x00,0x09,0x9c,0x53,0x00,
0x04,0x9c,0x4f,0x00,0x02,0x94,0x32,0x00,0x00,0x9c,0x4c,0x00,0x04,0x94,0x40,0x00,
0x02,0x94,0x47,0x00,0x02,0x94,0x43,0x00,0x15,0x95,0x43,0x00,0x08,0x95,0x40,0x00,
0x06,0x95,0x3e,0x5a,0x00,0x95,0x42,0x56,0x02,0x91,0x1a,0x6c,0x00,0x91,0x26,0x00,
0x03,0x99,0x23,0x6c,0x00,0x99,0x2e,0x49,0x00,0x94,0x32,0x4c,0x00,0x9a,0x45,0x62,
0x00,0x9c,0x4a,0x5a,0x00,0x9c,0x4e,0x62,0x00,0x9c,0x51,0x5a,0x01,0x9a,0x42,0x72,
0x01,0x9a,0x3e,0x6c,0x00,0x94,0x3e,0x4c,0x02,0x99,0x23,0x00,0x00,0x99,0x2e,0x00,
0x00,0x94,0x42,0x53,0x02,0x94,0x45,0x48,0x5a,0x99,0x26,0x74,0x04,0x99,0x26,0x00,
0x18,0x9a,0x45,0x00,0x05,0x9a,0x42,0x00,0x03,0x9a,0x3e,0x00,0x0e,0x94,0x32,0x00,
0x02,0x94,0x42,0x00,0x00,0x9c,0x4e,0x00,0x02,0x94,0x3e,0x00,0x00,0x94,0x45,0x00,
0x04,0x9c,0x51,0x00,0x04,0x9c,0x4a,0x00,0x0d,0x95,0x3e,0x00,0x04,0x95,0x42,0x00,
0x0a,0x91,0x1a,0x00,0x02,0x95,0x3c,0x3c,0x00,0x95,0x40,0x48,0x02,0x91,0x26,0x66,
0x03,0x99,0x23,0x78,0x00,0x99,0x2e,0x49,0x00,0x94,0x32,0x4c,0x00,0x9a,0x43,0x48,
0x00,0x9c,0x48,0x4c,0x00,0x9c,0x4c,0x5e,0x00,0x9c,0x4f,0x56,0x01,0x9a,0x40,0x6c,
0x01,0x9a,0x3c,0x56,0x00,0x94,0x3c,0x48,0x02,0x99,0x23,0x00,0x00,0x99,0x2e,0x00,
0x00,0x94,0x40,0x57,0x02,0x94,0x43,0x4c,0x5a,0x99,0x26,0x74,0x00,0x99,0x2e,0x4f,
0x04,0x99,0x26,0x00,0x00,0x99,0x2e,0x00,0x1c,0x9a,0x3c,0x00,0x02,0x9a,0x43,0x00,
0x03,0x9a,0x40,0x00,0x11,0x94,0x3c,0x00,0x02,0x94,0x32,0x00,0x04,0x94,0x40,0x00,
0x04,0x94,0x43,0x00,0x09,0x95,0x3c,0x00,0x05,0x9c,0x48,0x00,0x08,0x9c,0x4f,0x00,
0x02,0x9c,0x4c,0x00,0x01,0x91,0x26,0x00,0x02,0x95,0x3e,0x4c,0x00,0x95,0x42,0x3e,
0x02,0x91,0x1a,0x5e,0x03,0x99,0x26,0x74,0x00,0x94,0x32,0x53,0x00,0x9a,0x45,0x5a,
0x00,0x9c,0x4a,0x5a,0x00,0x9c,0x4e,0x5e,0x00,0x9c,0x51,0x50,0x01,0x9a,0x42,0x66,
0x01,0x9a,0x3e,0x66,0x00,0x94,0x3e,0x4c,0x02,0x99,0x26,0x00,0x00,0x94,0x42,0x53,
0x02,0x94,0x45,0x4c,0x07,0x95,0x40,0x00,0x53,0x99,0x2b,0x68,0x04,0x99,0x2b,0x00,
0x2c,0x99,0x29,0x68,0x04,0x99,0x29,0x00,0x08,0x94,0x3e,0x00,0x06,0x9a,0x3e,0x00,
0x0f,0x91,0x1a,0x00,0x0c,0x91,0x26,0x5e,0x03,0x99,0x2d,0x64,0x00,0x9a,0x3e,0x38,
0x00,0x94,0x3e,0x2f,0x04,0x99,0x2d,0x00,0x00,0x94,0x32,0x00,0x13,0x9a,0x42,0x00,
0x03,0x9a,0x45,0x00,0x07,0x95,0x3e,0x00,0x01,0x9a,0x3e,0x00,0x04,0x94,0x42,0x00,
0x00,0x9c,0x51,0x00,0x01,0x95,0x42,0x00,0x03,0x94,0x45,0x00,0x02,0x9c,0x4a,0x00,
0x01,0x91,0x1a,0x5e,0x00,0x91,0x26,0x00,0x03,0x94,0x32,0x4c,0x00,0x9c,0x4e,0x00,
0x04,0x94,0x3e,0x00,0x1c,0x94,0x32,0x00,0x01,0x91,0x1a,0x00,0x0a,0x95,0x39,0x38,
0x00,0x95,0x40,0x3e,0x02,0x91,0x21,0x6c,0x03,0x99,0x23,0x68,0x00,0x94,0x2d,0x57,
0x00,0x99,0x31,0x3b,0x00,0x9a,0x43,0x6c,0x01,0x9a,0x40,0x6c,0x01,0x9a,0x3c,0x5e,
0x00,0x94,0x3c,0x57,0x01,0x9a,0x39,0x5a,0x01,0x99,0x23,0x00,0x00,0x99,0x31,0x00,
0x00,0x94,0x40,0x5d,0x01,0x93,0x48,0x56,0x01,0x94,0x43,0x53,0x2a,0x99,0x2a,0x25,
0x04,0x99,0x2a,0x00,0x1e,0x94,0x2d,0x00,0x04,0x9a,0x3c,0x00,0x03,0x9a,0x39,0x00,
0x07,0x99,0x2a,0x32,0x04,0x99,0x2a,0x00,0x25,0x9a,0x40,0x00,0x01,0x94,0x3c,0x00,
0x04,0x94,0x43,0x00,0x02,0x99,0x2a,0x3c,0x00,0x94,0x2d,0x4e,0x00,0x9a,0x3c,0x5e,
0x00,0x9a,0x43,0x00,0x01,0x9a,0x39,0x56,0x03,0x99,0x2a,0x00,0x02,0x94,0x40,0x00,
0x2a,0x99,0x26,0x70,0x00,0x99,0x2a,0x46,0x00,0x94,0x3c,0x40,0x00,0x9a,0x43,0x66,
0x01,0x9a,0x40,0x66,0x01,0x94,0x40,0x4c,0x02,0x99,0x26,0x00,0x00,0x99,0x2a,0x00,
0x00,0x94,0x43,0x48,0x2c,0x99,0x2a,0x38,0x04,0x99,0x2a,0x00,0x15,0x9a,0x39,0x00,
0x00,0x9a,0x40,0x00,0x01,0x9a,0x3c,0x00,0x00,0x94,0x3c,0x00,0x02,0x9a,0x43,0x00,
0x02,0x94,0x40,0x00,0x00,0x94,0x43,0x00,0x12,0x99,0x2a,0x3c,0x00,0x94,0x3c,0x53,
0x00,0x9a,0x43,0x6c,0x01,0x9a,0x40,0x66,0x01,0x9a,0x3c,0x62,0x00,0x94,0x40,0x62,
0x01,0x91,0x21,0x00,0x00,0x9a,0x39,0x50,0x01,0x99,0x2a,0x00,0x00,0x94,0x43,0x57,
0x29,0x91,0x21,0x44,0x03,0x99,0x2a,0x37,0x04,0x99,0x2a,0x00,0x03,0x91,0x21,0x00,
0x26,0x91,0x21,0x6c,0x03,0x99,0x23,0x78,0x00,0x99,0x2a,0x46,0x04,0x99,0x23,0x00,
0x00,0x99,0x2a,0x00,0x18,0x9a,0x3c,0x00,0x01,0x9a,0x39,0x00,0x00,0x9a,0x40,0x00,
0x01,0x94,0x3c,0x00,0x00,0x94,0x40,0x00,0x02,0x9a,0x43,0x00,0x02,0x94,0x43,0x00,
0x04,0x94,0x2d,0x00,0x0a,0x99,0x2a,0x3c,0x04,0x99,0x2a,0x00,0x2c,0x99,0x2a,0x3c,
0x00,0x94,0x2d,0x4c,0x00,0x9a,0x43,0x66,0x01,0x9a,0x40,0x72,0x01,0x9a,0x3c,0x6c,
0x00,0x94,0x3c,0x53,0x01,0x9a,0x39,0x56,0x01,0x99,0x2a,0x00,0x00,0x94,0x40,0x62,
0x2c,0x99,0x2a,0x3c,0x04,0x99,0x2a,0x00,0x2c,0x99,0x26,0x72,0x00,0x99,0x2a,0x46,
0x04,0x99,0x26,0x00,0x00,0x99,0x2a,0x00,0x0a,0x9a,0x3c,0x00,0x05,0x9a,0x39,0x00,
0x00,0x9a,0x40,0x00,0x01,0x9a,0x43,0x00,0x08,0x94,0x2d,0x00,0x09,0x91,0x21,0x00,
0x0b,0x99,0x2a,0x38,0x00,0x94,0x3c,0x00,0x02,0x94,0x40,0x00,0x02,0x99,0x2a,0x00,
0x29,0x91,0x21,0x6c,0x03,0x99,0x2a,0x36,0x00,0x94,0x32,0x57,0x00,0x9a,0x42,0x72,
0x01,0x9a,0x3e,0x66,0x01,0x94,0x3c,0x53,0x02,0x99,0x2a,0x00,0x00,0x94,0x42,0x4e,
0x02,0x94,0x45,0x4e,0x0d,0x91,0x21,0x00,0x1d,0x99,0x23,0x6e,0x00,0x99,0x2a,0x3b,
0x04,0x99,0x23,0x00,0x00,0x99,0x2a,0x00,0x25,0x95,0x39,0x00,0x00,0x95,0x40,0x00,
0x02,0x95,0x39,0x3e,0x00,0x95,0x3e,0x4c,0x02,0x91,0x26,0x72,0x03,0x99,0x23,0x78,
0x00,0x99,0x2a,0x46,0x00,0x9a,0x39,0x5e,0x04,0x99,0x23,0x00,0x00,0x99,0x2a,0x00,
0x2c,0x99,0x2a,0x25,0x04,0x99,0x2a,0x00,0x1a,0x94,0x3c,0x00,0x12,0x99,0x2a,0x32,
0x00,0x94,0x3c,0x3d,0x04,0x99,0x2a,0x00,0x2c,0x99,0x2a,0x3c,0x04,0x99,0x2a,0x00,
0x18,0x9a,0x42,0x00,0x03,0x9a,0x3e,0x00,0x0b,0x94,0x3c,0x00,0x00,0x94,0x42,0x00,
0x02,0x94,0x45,0x00,0x04,0x99,0x26,0x70,0x00,0x99,0x2a,0x46,0x00,0x94,0x3c,0x48,
0x00,0x9a,0x42,0x62,0x01,0x9a,0x3e,0x5a,0x01,0x94,0x42,0x53,0x02,0x99,0x26,0x00,
0x00,0x99,0x2a,0x00,0x00,0x94,0x45,0x4e,0x2c,0x99,0x2a,0x38,0x04,0x99,0x2a,0x00,
0x2c,0x99,0x2a,0x3c,0x01,0x91,0x26,0x00,0x03,0x99,0x2a,0x00,0x06,0x9a,0x39,0x00,
0x0c,0x94,0x32,0x00,0x17,0x91,0x26,0x62,0x03,0x99,0x2a,0x37,0x00,0x94,0x32,0x2c,
0x00,0x9a,0x39,0x38,0x04,0x99,0x2a,0x00,0x07,0x91,0x26,0x00,0x05,0x94,0x3c,0x00,
0x00,0x9a,0x42,0x00,0x03,0x9a,0x3e,0x00,0x01,0x94,0x42,0x00,0x00,0x94,0x45,0x00,
0x19,0x91,0x26,0x72,0x03,0x99,0x23,0x78,0x00,0x99,0x2a,0x46,0x00,0x9a,0x39,0x00,
0x00,0x94,0x3c,0x40,0x00,0x9a,0x42,0x48,0x01,0x9a,0x3e,0x48,0x01,0x94,0x42,0x3d,
0x02,0x99,0x23,0x00,0x00,0x99,0x2a,0x00,0x00,0x94,0x45,0x4c,0x0c,0x94,0x32,0x00,
0x20,0x99,0x2a,0x3c,0x00,0x94,0x32,0x48,0x00,0x9a,0x39,0x3e,0x04,0x99,0x2a,0x00,
0x2c,0x99,0x2a,0x3c,0x04,0x99,0x2a,0x00,0x2c,0x99,0x2a,0x3c,0x04,0x99,0x2a,0x00,
0x16,0x94,0x3c,0x00,0x02,0x94,0x45,0x00,0x01,0x9a,0x3e,0x00,0x01,0x9a,0x42,0x00,
0x00,0x94,0x42,0x00,0x12,0x99,0x26,0x72,0x00,0x99,0x2a,0x46,0x00,0x94,0x3c,0x46,
0x00,0x9a,0x42,0x62,0x01,0x9a,0x3e,0x5e,0x01,0x94,0x42,0x46,0x02,0x99,0x26,0x00,
0x00,0x99,0x2a,0x00,0x00,0x94,0x45,0x48,0x03,0x93,0x48,0x00,0x08,0x93,0x47,0x6c,
0x13,0x9a,0x39,0x00,0x0e,0x99,0x2a,0x38,0x00,0x94,0x32,0x00,0x04,0x99,0x2a,0x00,
0x1f,0x91,0x26,0x00,0x0a,0x91,0x1f,0x6c,0x03,0x99,0x23,0x4a,0x00,0x99,0x2a,0x36,
0x00,0x94,0x32,0x35,0x00,0x9a,0x39,0x44,0x04,0x99,0x23,0x00,0x00,0x99,0x2a,0x00,
0x01,0x93,0x47,0x00,0x00,0x93,0x48,0x64,0x01,0x9a,0x42,0x00,0x09,0x9a,0x3e,0x00,
0x09,0x94,0x3c,0x00,0x04,0x9a,0x39,0x00,0x02,0x94,0x45,0x00,0x01,0x91,0x1f,0x00,
0x05,0x94,0x42,0x00,0x02,0x94,0x32,0x00,0x07,0x91,0x20,0x5e,0x03,0x99,0x23,0x6e,
0x00,0x99,0x2a,0x3b,0x04,0x99,0x23,0x00,0x00,0x99,0x2a,0x00,0x09,0x93,0x48,0x00,
0x06,0x93,0x45,0x60,0x16,0x95,0x39,0x00,0x00,0x95,0x3e,0x00,0x00,0xe3,0x44,0x5b,
0x02,0x95,0x3c,0x48,0x00,0x95,0x40,0x44,0x02,0x91,0x21,0x62,0x03,0x99,0x23,0x78,
0x00,0x99,0x2a,0x46,0x00,0x94,0x2d,0x4e,0x00,0x9a,0x43,0x62,0x01,0x9a,0x40,0x66,
0x00,0xe3,0x21,0x74,0x01,0x9a,0x3c,0x5e,0x00,0x94,0x3c,0x5d,0x01,0x9a,0x39,0x56,
0x01,0x99,0x23,0x00,0x00,0x99,0x2a,0x00,0x00,0x94,0x43,0x53,0x01,0x91,0x20,0x00,
0x04,0xe3,0x7f,0x7f,0x08,0x93,0x45,0x00,0x0a,0xe3,0x58,0x7c,0x08,0xe3,0x0b,0x65,
0x08,0xe3,0x00,0x40,0x05,0x99,0x2a,0x25,0x04,0x99,0x2a,0x00,0x09,0x93,0x45,0x52,
0x23,0x99,0x2a,0x32,0x04,0x99,0x2a,0x00,0x06,0x9a,0x3c,0x00,0x01,0x9a,0x39,0x00,
0x25,0x99,0x2a,0x3c,0x00,0x9a,0x3c,0x50,0x00,0x94,0x40,0x46,0x01,0x9a,0x39,0x40,
0x03,0x99,0x2a,0x00,0x07,0x9a,0x40,0x00,0x0d,0x94,0x3c,0x00,0x00,0x9a,0x43,0x00,
0x04,0x94,0x40,0x00,0x00,0x94,0x43,0x00,0x06,0x94,0x2d,0x00,0x0e,0x99,0x26,0x70,
0x00,0x99,0x2a,0x46,0x00,0x94,0x3c,0x40,0x00,0x9a,0x43,0x3e,0x01,0x9a,0x40,0x50,
0x01,0x94,0x40,0x3d,0x02,0x99,0x26,0x00,0x00,0x99,0x2a,0x00,0x00,0x94,0x43,0x26,
0x0b,0xb3,0x01,0x02,0x12,0xb3,0x01,0x13,0x01,0x94,0x3c,0x00,0x02,0x94,0x40,0x00,
0x0a,0x94,0x43,0x00,0x02,0x99,0x2a,0x38,0x00,0x94,0x2d,0x48,0x04,0x99,0x2a,0x00,
0x03,0xb3,0x01,0x22,0x0d,0x9a,0x43,0x00,0x03,0x9a,0x40,0x00,0x00,0xb3,0x01,0x2e,
0x12,0xb3,0x01,0x35,0x07,0x99,0x2a,0x3c,0x00,0x94,0x3c,0x53,0x00,0x9a,0x43,0x6c,
0x01,0x9a,0x40,0x6c,0x01,0x94,0x40,0x57,0x02,0x99,0x2a,0x00,0x00,0x94,0x43,0x53,
0x05,0x91,0x21,0x00,0x02,0xb3,0x01,0x40,0x14,0xb3,0x01,0x4c,0x0e,0x91,0x21,0x6c,
0x03,0x99,0x23,0x5e,0x00,0x99,0x2a,0x37,0x01,0x93,0x45,0x00,0x03,0x99,0x23,0x00,
0x00,0x99,0x2a,0x00,0x07,0x91,0x21,0x00,0x00,0xb3,0x01,0x00,0x22,0x91,0x21,0x66,
0x03,0x99,0x23,0x78,0x00,0x99,0x2a,0x46,0x04,0x99,0x23,0x00,0x00,0x99,0x2a,0x00,
0x10,0x9a,0x3c,0x00,0x01,0x9a,0x39,0x00,0x03,0x9a,0x43,0x00,0x03,0x9a,0x40,0x00,
0x0b,0x94,0x3c,0x00,0x02,0x94,0x40,0x00,0x04,0x94,0x43,0x00,0x04,0x99,0x2a,0x3c,
0x04,0x99,0x2a,0x00,0x00,0x94,0x2d,0x00,0x2c,0x99,0x2a,0x3c,0x00,0x94,0x2d,0x48,
0x00,0x9a,0x40,0x78,0x01,0x9a,0x3c,0x5e,0x01,0x9a,0x39,0x48,0x00,0x94,0x3c,0x53,
0x02,0x99,0x2a,0x00,0x00,0x94,0x40,0x5d,0x2c,0x99,0x23,0x56,0x00,0x99,0x2a,0x3c,
0x04,0x99,0x23,0x00,0x00,0x99,0x2a,0x00,0x2c,0x99,0x26,0x72,0x00,0x99,0x2a,0x46,
0x00,0x99,0x39,0x3e,0x04,0x99,0x26,0x00,0x00,0x99,0x2a,0x00,0x00,0x99,0x39,0x00,
0x05,0x9a,0x3c,0x00,0x03,0x9a,0x40,0x00,0x02,0x9a,0x39,0x00,0x00,0x94,0x3c,0x00,
0x08,0x94,0x2d,0x00,0x00,0x94,0x40,0x00,0x01,0x91,0x21,0x00,0x0e,0x95,0x3c,0x00,
0x0b,0x99,0x2a,0x38,0x04,0x99,0x2a,0x00,0x01,0x95,0x40,0x00,0x26,0x95,0x40,0x4c,
0x00,0x95,0x43,0x3e,0x02,0x91,0x26,0x78,0x03,0x99,0x23,0x6c,0x00,0x99,0x2e,0x54,
0x00,0x94,0x32,0x57,0x00,0x9a,0x47,0x5e,0x00,0x9c,0x4c,0x5e,0x00,0x9c,0x4f,0x66,
0x00,0x9c,0x53,0x5a,0x01,0x9a,0x43,0x6c,0x01,0x9a,0x40,0x5e,0x00,0x94,0x40,0x57,
0x02,0x99,0x23,0x00,0x00,0x99,0x2e,0x00,0x00,0x94,0x43,0x57,0x02,0x94,0x47,0x4e,
0x76,0x9a,0x47,0x00,0x04,0x9a,0x40,0x00,0x01,0x9a,0x43,0x00,0x09,0x9c,0x53,0x00,
0x04,0x9c,0x4f,0x00,0x02,0x94,0x32,0x00,0x00,0x9c,0x4c,0x00,0x04,0x94,0x40,0x00,
0x02,0x94,0x47,0x00,0x02,0x94,0x43,0x00,0x15,0x95,0x43,0x00,0x08,0x95,0x40,0x00,
0x06,0x95,0x3e,0x5a,0x00,0x95,0x42,0x56,0x02,0x91,0x1a,0x6c,0x00,0x91,0x26,0x00,
0x03,0x99,0x23,0x6c,0x00,0x99,0x2e,0x49,0x00,0x94,0x32,0x4c,0x00,0x9a,0x45,0x62,
0x00,0x9c,0x4a,0x5a,0x00,0x9c,0x4e,0x62,0x00,0x9c,0x51,0x5a,0x01,0x9a,0x42,0x72,
0x01,0x9a,0x3e,0x6c,0x00,0x94,0x3e,0x4c,0x02,0x99,0x23,0x00,0x00,0x99,0x2e,0x00,
0x00,0x94,0x42,0x53,0x02,0x94,0x45,0x48,0x5a,0x99,0x26,0x74,0x04,0x99,0x26,0x00,
0x18,0x9a,0x45,0x00,0x05,0x9a,0x42,0x00,0x03,0x9a,0x3e,0x00,0x0e,0x94,0x32,0x00,
0x02,0x94,0x42,0x00,0x00,0x9c,0x4e,0x00,0x02,0x94,0x3e,0x00,0x00,0x94,0x45,0x00,
0x04,0x9c,0x51,0x00,0x04,0x9c,0x4a,0x00,0x0d,0x95,0x3e,0x00,0x04,0x95,0x42,0x00,
0x0a,0x91,0x1a,0x00,0x02,0x95,0x3c,0x3c,0x00,0x95,0x40,0x48,0x02,0x91,0x26,0x66,
0x03,0x99,0x23,0x78,0x00,0x99,0x2e,0x49,0x00,0x94,0x32,0x4c,0x00,0x9a,0x43,0x48,
0x00,0x9c,0x48,0x4c,0x00,0x9c,0x4c,0x5e,0x00,0x9c,0x4f,0x56,0x01,0x9a,0x40,0x6c,
0x01,0x9a,0x3c,0x56,0x00,0x94,0x3c,0x48,0x02,0x99,0x23,0x00,0x00,0x99,0x2e,0x00,
0x00,0x94,0x40,0x57,0x02,0x94,0x43,0x4c,0x5a,0x99,0x26,0x74,0x00,0x99,0x2e,0x4f,
0x04,0x99,0x26,0x00,0x00,0x99,0x2e,0x00,0x1c,0x9a,0x3c,0x00,0x02,0x9a,0x43,0x00,
0x03,0x9a,0x40,0x00,0x11,0x94,0x3c,0x00,0x02,0x94,0x32,0x00,0x04,0x94,0x40,0x00,
0x04,0x94,0x43,0x00,0x09,0x95,0x3c,0x00,0x05,0x9c,0x48,0x00,0x08,0x9c,0x4f,0x00,
0x02,0x9c,0x4c,0x00,0x01,0x91,0x26,0x00,0x02,0x95,0x3e,0x4c,0x00,0x95,0x42,0x3e,
0x02,0x91,0x1a,0x5e,0x03,0x99,0x26,0x74,0x00,0x94,0x32,0x53,0x00,0x9a,0x45,0x5a,
0x00,0x9c,0x4a,0x5a,0x00,0x9c,0x4e,0x5e,0x00,0x9c,0x51,0x50,0x01,0x9a,0x42,0x66,
0x01,0x9a,0x3e,0x66,0x00,0x94,0x3e,0x4c,0x02,0x99,0x26,0x00,0x00,0x94,0x42,0x53,
0x02,0x94,0x45,0x4c,0x07,0x95,0x40,0x00,0x53,0x99,0x2b,0x68,0x04,0x99,0x2b,0x00,
0x09,0x93,0x45,0x4e,0x23,0x99,0x29,0x68,0x04,0x99,0x29,0x00,0x08,0x94,0x3e,0x00,
0x06,0x9a,0x3e,0x00,0x0f,0x91,0x1a,0x00,0x0c,0x91,0x26,0x5e,0x03,0x99,0x2d,0x76,
0x00,0x9a,0x3e,0x38,0x00,0x94,0x3e,0x2f,0x04,0x99,0x2d,0x00,0x00,0x94,0x32,0x00,
0x09,0x93,0x47,0x52,0x02,0x93,0x45,0x00,0x08,0x9a,0x42,0x00,0x03,0x9a,0x45,0x00,
0x07,0x95,0x3e,0x00,0x01,0x9a,0x3e,0x00,0x04,0x94,0x42,0x00,0x00,0x9c,0x51,0x00,
0x01,0x95,0x42,0x00,0x03,0x94,0x45,0x00,0x02,0x9c,0x4a,0x00,0x01,0x91,0x1a,0x5e,
0x00,0x91,0x26,0x00,0x03,0x94,0x32,0x4c,0x00,0x9c,0x4e,0x00,0x04,0x94,0x3e,0x00,
0x18,0x94,0x32,0x00,0x05,0x91,0x1a,0x00,0x0a,0x95,0x39,0x48,0x00,0x95,0x3c,0x40,
0x00,0x95,0x40,0x44,0x02,0x91,0x21,0x56,0x03,0x99,0x23,0x6c,0x00,0x99,0x2a,0x38,
0x00,0x9b,0x39,0x4e,0x04,0x99,0x23,0x00,0x00,0x99,0x2a,0x00,0x01,0x93,0x48,0x4e,
0x04,0x93,0x47,0x00,0x27,0x99,0x2a,0x2a,0x04,0x99,0x2a,0x00,0x01,0x91,0x21,0x00,
0x28,0x91,0x21,0x66,0x03,0x99,0x23,0x6c,0x00,0x99,0x2a,0x2e,0x00,0x9b,0x3c,0x46,
0x04,0x99,0x23,0x00,0x00,0x99,0x2a,0x00,0x2c,0x99,0x2a,0x2e,0x01,0xb3,0x01,0x04,
0x03,0x99,0x2a,0x00,0x13,0xb3,0x01,0x2e,0x10,0xb3,0x01,0x4c,0x09,0x99,0x2a,0x46,
0x00,0x9b,0x40,0x57,0x04,0x99,0x2a,0x00,0x05,0xb3,0x01,0x00,0x02,0x93,0x47,0x5c,
0x0a,0x93,0x48,0x00,0x1b,0x99,0x2a,0x38,0x00,0x99,0x3c,0x3c,0x04,0x99,0x2a,0x00,
0x00,0x99,0x3c,0x00,0x2c,0x99,0x2a,0x32,0x00,0x9b,0x45,0x53,0x04,0x99,0x2a,0x00,
0x01,0x93,0x47,0x00,0x04,0x93,0x45,0x60,0x27,0x99,0x2a,0x32,0x00,0x99,0x3d,0x2a,
0x04,0x99,0x2a,0x00,0x00,0x99,0x3d,0x00,0x0c,0x9b,0x45,0x00,0x0d,0x91,0x21,0x00,
0x0d,0x95,0x39,0x00,0x01,0x95,0x38,0x4c,0x02,0x91,0x20,0x5a,0x01,0x9b,0x40,0x00,
0x02,0x99,0x2a,0x37,0x00,0x9b,0x38,0x46,0x00,0x9b,0x39,0x00,0x02,0x9b,0x47,0x57,
0x02,0x99,0x2a,0x00,0x01,0x93,0x45,0x00,0x04,0x93,0x47,0x44,0x27,0x99,0x2a,0x2a,
0x04,0x99,0x2a,0x00,0x06,0x9b,0x3c,0x00,0x26,0x99,0x2a,0x2e,0x00,0x9b,0x3c,0x53,
0x04,0x99,0x2a,0x00,0x2c,0x99,0x2a,0x32,0x00,0x99,0x3c,0x38,0x04,0x99,0x2a,0x00,
0x00,0x99,0x3c,0x00,0x1b,0xb3,0x01,0x01,0x0b,0x9b,0x47,0x00,0x06,0x99,0x2a,0x46,
0x00,0x9b,0x40,0x57,0x04,0x99,0x2a,0x00,0x01,0xb3,0x01,0x11,0x12,0xb3,0x01,0x27,
0x10,0xb3,0x01,0x3b,0x09,0x99,0x2a,0x3a,0x00,0x99,0x4b,0x5a,0x04,0x99,0x2a,0x00,
0x00,0x99,0x4b,0x00,0x07,0xb3,0x01,0x33,0x10,0xb3,0x01,0x00,0x12,0x93,0x47,0x00,
0x03,0x99,0x2a,0x38,0x00,0x99,0x3d,0x3c,0x00,0x9b,0x47,0x4e,0x03,0x93,0x45,0x40,
0x01,0x99,0x2a,0x00,0x00,0x99,0x3d,0x00,0x25,0x91,0x20,0x00,0x07,0x99,0x2a,0x32,
0x01,0x93,0x45,0x00,0x02,0x93,0x47,0x64,0x01,0x99,0x2a,0x00,0x14,0x9b,0x47,0x00,
0x04,0x9b,0x38,0x00,0x06,0x9b,0x3c,0x00,0x00,0x9b,0x40,0x00,0x08,0x95,0x38,0x00,
0x01,0x95,0x37,0x56,0x02,0x91,0x1f,0x5a,0x03,0x99,0x23,0x6c,0x00,0x99,0x2a,0x38,
0x00,0x9b,0x37,0x48,0x02,0x9b,0x48,0x53,0x02,0x99,0x23,0x00,0x00,0x99,0x2a,0x00,
0x05,0x93,0x47,0x00,0x08,0x93,0x48,0x64,0x16,0x91,0x1f,0x00,0x09,0x99,0x2a,0x2a,
0x04,0x99,0x2a,0x00,0x29,0x91,0x1f,0x5a,0x03,0x99,0x23,0x6c,0x00,0x99,0x2a,0x2e,
0x00,0x9b,0x40,0x57,0x04,0x99,0x23,0x00,0x00,0x99,0x2a,0x00,0x25,0x93,0x48,0x00,
0x02,0x93,0x4a,0x52,0x05,0x99,0x2a,0x2e,0x04,0x99,0x2a,0x00,0x2c,0x99,0x2a,0x46,
0x00,0x9b,0x43,0x4c,0x04,0x99,0x2a,0x00,0x00,0x9b,0x40,0x00,0x1b,0xe3,0x34,0x3f,
0x08,0xe3,0x76,0x35,0x09,0x99,0x2a,0x38,0x00,0x99,0x3c,0x3c,0x01,0xe3,0x3d,0x29,
0x03,0x99,0x2a,0x00,0x00,0x99,0x3c,0x00,0x05,0xe3,0x5e,0x24,0x12,0xe3,0x47,0x33,
0x04,0x9b,0x48,0x00,0x00,0x93,0x4a,0x00,0x04,0xe3,0x00,0x40,0x04,0x93,0x48,0x60,
0x09,0x99,0x2a,0x32,0x00,0x9b,0x48,0x4c,0x04,0x99,0x2a,0x00,0x2c,0x99,0x2a,0x32,
0x00,0x99,0x3d,0x2a,0x04,0x99,0x2a,0x00,0x00,0x99,0x3d,0x00,0x06,0x9b,0x48,0x00,
0x0e,0x9b,0x43,0x00,0x12,0x95,0x37,0x00,0x01,0x95,0x36,0x3c,0x00,0x95,0x39,0x50,
0x02,0x91,0x26,0x40,0x01,0x9b,0x37,0x00,0x02,0x99,0x2a,0x37,0x00,0x9b,0x36,0x39,
0x01,0x93,0x48,0x00,0x01,0x9b,0x42,0x5d,0x01,0x93,0x47,0x60,0x01,0x99,0x2a,0x00,
0x01,0x91,0x1f,0x00,0x2b,0x99,0x2a,0x2a,0x04,0x99,0x2a,0x00,0x2b,0x93,0x47,0x00,
0x01,0x99,0x2a,0x2e,0x00,0x9b,0x3e,0x4c,0x04,0x99,0x2a,0x00,0x03,0x93,0x45,0x42,
0x29,0x99,0x2a,0x32,0x00,0x99,0x3c,0x38,0x04,0x99,0x2a,0x00,0x00,0x99,0x3c,0x00,
0x2c,0x99,0x2a,0x46,0x00,0x9b,0x39,0x40,0x04,0x99,0x2a,0x00,0x06,0x9b,0x3e,0x00,
0x26,0x99,0x2a,0x3a,0x00,0x99,0x4b,0x5a,0x04,0x99,0x2a,0x00,0x00,0x99,0x4b,0x00,
0x23,0x93,0x45,0x00,0x08,0x93,0x48,0x44,0x01,0x99,0x2a,0x38,0x00,0x99,0x3d,0x3c,
0x00,0x9b,0x3e,0x46,0x04,0x99,0x2a,0x00,0x00,0x99,0x3d,0x00,0x29,0x93,0x48,0x00,
0x03,0x99,0x2a,0x32,0x00,0x9b,0x42,0x00,0x01,0x93,0x4a,0x60,0x03,0x99,0x2a,0x00,
0x02,0x9b,0x36,0x00,0x00,0x9b,0x39,0x00,0x04,0x9b,0x3e,0x00,0x15,0x91,0x26,0x00,
0x0a,0x95,0x40,0x00,0x01,0x95,0x36,0x00,0x00,0x95,0x39,0x00,0x01,0x95,0x35,0x40,
0x00,0x95,0x39,0x3c,0x00,0x95,0x40,0x40,0x02,0x91,0x1d,0x6c,0x03,0x99,0x23,0x6c,
0x00,0x9b,0x29,0x4e,0x00,0x99,0x2a,0x38,0x02,0x9b,0x35,0x48,0x02,0x99,0x23,0x00,
0x00,0x99,0x2a,0x00,0x00,0x9b,0x39,0x40,0x02,0x9b,0x40,0x53,0x03,0x93,0x4c,0x64,
0x02,0x93,0x4a,0x00,0x08,0x91,0x1d,0x00,0x1d,0x99,0x2a,0x2a,0x04,0x99,0x2a,0x00,
0x29,0x91,0x1d,0x6c,0x03,0x99,0x23,0x6c,0x00,0x99,0x2a,0x2e,0x00,0x9b,0x3c,0x4c,
0x03,0xe3,0x6d,0x3b,0x01,0x99,0x23,0x00,0x00,0x99,0x2a,0x00,0x09,0xe3,0x5e,0x24,
0x08,0xe3,0x09,0x1a,0x0e,0xe3,0x09,0x2a,0x07,0x9b,0x39,0x00,0x01,0xe3,0x00,0x40,
0x02,0x93,0x4c,0x00,0x03,0x99,0x2a,0x2e,0x04,0x99,0x2a,0x00,0x01,0x93,0x4a,0x60,
0x2b,0x99,0x2a,0x46,0x00,0x9b,0x39,0x4c,0x04,0x99,0x2a,0x00,0x2c,0x99,0x2a,0x38,
0x00,0x99,0x3c,0x3c,0x04,0x99,0x2a,0x00,0x00,0x99,0x3c,0x00,0x16,0x9b,0x40,0x00,
0x11,0x93,0x48,0x64,0x04,0x93,0x4a,0x00,0x01,0x99,0x2a,0x32,0x00,0x9b,0x40,0x48,
0x04,0x99,0x2a,0x00,0x2c,0x99,0x2a,0x32,0x00,0x99,0x3d,0x2a,0x04,0x99,0x2a,0x00,
0x00,0x99,0x3d,0x00,0x29,0x93,0x48,0x00,0x03,0x99,0x2a,0x37,0x01,0x93,0x47,0x52,
0x03,0x99,0x2a,0x00,0x2c,0x99,0x2a,0x2a,0x04,0x99,0x2a,0x00,0x1e,0x9b,0x40,0x00,
0x0e,0x99,0x2a,0x2e,0x00,0x9b,0x40,0x4e,0x04,0x99,0x2a,0x00,0x0c,0x9b,0x3c,0x00,
0x19,0x93,0x47,0x00,0x07,0x99,0x2a,0x32,0x00,0x99,0x3c,0x38,0x01,0x93,0x45,0x3e,
0x03,0x99,0x2a,0x00,0x00,0x99,0x3c,0x00,0x2c,0x99,0x2a,0x46,0x00,0x9b,0x3c,0x4e,
0x04,0x99,0x2a,0x00,0x2c,0x99,0x2a,0x3a,0x00,0x99,0x4b,0x5a,0x04,0x99,0x2a,0x00,
0x00,0x9b,0x39,0x00,0x00,0x99,0x4b,0x00,0x29,0x93,0x43,0x4a,0x03,0x99,0x2a,0x38,
0x00,0x9b,0x39,0x40,0x00,0x99,0x3d,0x3c,0x01,0x93,0x45,0x00,0x03,0x99,0x2a,0x00,
0x00,0x99,0x3d,0x00,0x27,0x91,0x1d,0x00,0x05,0x99,0x23,0x56,0x00,0x99,0x2a,0x32,
0x04,0x99,0x23,0x00,0x00,0x99,0x2a,0x00,0x06,0x9b,0x29,0x00,0x08,0x9b,0x35,0x00,
0x00,0x9b,0x39,0x00,0x00,0x9b,0x3c,0x00,0x02,0x9b,0x40,0x00,0x05,0x93,0x43,0x00,
0x10,0x95,0x35,0x00,0x00,0x95,0x39,0x00,0x00,0x95,0x3c,0x00,0x00,0x95,0x40,0x00,
0x02,0x95,0x37,0x56,0x00,0x95,0x3b,0x56,0x02,0x91,0x23,0x4c,0x02,0x93,0x43,0x5c,
0x01,0x99,0x23,0x6c,0x00,0x99,0x2a,0x38,0x00,0x9b,0x2f,0x5d,0x02,0x9b,0x37,0x62,
0x02,0x99,0x23,0x00,0x00,0x99,0x2a,0x00,0x00,0x9b,0x3b,0x5d,0x2c,0x99,0x2a,0x2a,
0x04,0x99,0x2a,0x00,0x03,0x95,0x37,0x00,0x06,0x95,0x3b,0x00,0x01,0x9b,0x37,0x00,
0x10,0x9b,0x3b,0x00,0x07,0x91,0x23,0x00,0x06,0x95,0x39,0x2a,0x00,0x95,0x3c,0x36,
0x00,0x95,0x40,0x48,0x02,0x91,0x21,0x56,0x03,0x99,0x23,0x6c,0x00,0x99,0x2a,0x2e,
0x00,0x9b,0x2d,0x4e,0x00,0x9b,0x2f,0x00,0x02,0x9b,0x34,0x3d,0x02,0x99,0x23,0x00,
0x00,0x99,0x2a,0x00,0x00,0x9b,0x39,0x3d,0x01,0x93,0x43,0x00,0x02,0x93,0x45,0x3e,
0x08,0x95,0x3c,0x00,0x04,0x91,0x21,0x00,0x04,0x95,0x39,0x00,0x01,0x9b,0x39,0x00,
0x02,0x9b,0x2d,0x00,0x01,0x95,0x40,0x00,0x03,0x9b,0x34,0x00,0x12,0x99,0x2a,0x2e,
0x04,0x99,0x2a,0x00,0x1d,0x93,0x45,0x00,0x0a,0x95,0x39,0x34,0x00,0x95,0x3c,0x3c,
0x00,0x95,0x40,0x50,0x02,0x91,0x21,0x5e,0x03,0x99,0x23,0x62,0x00,0x99,0x2a,0x46,
0x00,0x9b,0x2d,0x57,0x02,0x9b,0x34,0x57,0x01,0x93,0x45,0x44,0x01,0x99,0x23,0x00,
0x00,0x99,0x2a,0x00,0x00,0x9b,0x39,0x57,0x02,0x9b,0x3c,0x57,0x2a,0x99,0x2a,0x38,
0x00,0x99,0x3c,0x3c,0x04,0x99,0x2a,0x00,0x00,0x99,0x3c,0x00,0x2c,0x99,0x2a,0x32,
0x04,0x99,0x2a,0x00,0x2c,0x99,0x2a,0x32,0x00,0x99,0x3d,0x2a,0x04,0x99,0x2a,0x00,
0x00,0x99,0x3d,0x00,0x2c,0x99,0x2a,0x37,0x04,0x99,0x2a,0x00,0x02,0x97,0x48,0x6c,
0x2a,0x99,0x2a,0x2a,0x04,0x99,0x2a,0x00,0x00,0x97,0x48,0x00,0x06,0x97,0x45,0x6c,
0x12,0x9b,0x2d,0x00,0x01,0xb3,0x01,0x07,0x12,0xb3,0x01,0x11,0x01,0x99,0x2a,0x2e,
0x00,0x9b,0x2d,0x4e,0x04,0x99,0x2a,0x00,0x11,0xb3,0x01,0x1b,0x09,0x9b,0x34,0x00,
0x0d,0xb3,0x01,0x25,0x05,0x99,0x2a,0x32,0x00,0x99,0x3c,0x38,0x04,0x99,0x2a,0x00,
0x00,0x99,0x3c,0x00,0x09,0xb3,0x01,0x2a,0x1c,0xb3,0x01,0x1d,0x03,0xb7,0x01,0x02,
0x04,0x99,0x26,0x68,0x00,0x99,0x2a,0x46,0x00,0x9b,0x35,0x57,0x04,0x99,0x26,0x00,
0x00,0x99,0x2a,0x00,0x08,0xb7,0x01,0x18,0x03,0xb3,0x01,0x00,0x05,0x9b,0x39,0x00,
0x0a,0xb7,0x01,0x2e,0x12,0xb7,0x01,0x3f,0x00,0x99,0x2a,0x3a,0x00,0x99,0x4b,0x5a,
0x04,0x99,0x2a,0x00,0x00,0x99,0x4b,0x00,0x16,0xb7,0x01,0x4e,0x0a,0x9b,0x3c,0x00,
0x01,0x93,0x45,0x00,0x06,0x91,0x21,0x00,0x01,0xb7,0x01,0x58,0x04,0x99,0x2a,0x38,
0x00,0x9b,0x34,0x57,0x00,0x9b,0x35,0x00,0x00,0x99,0x3d,0x3c,0x01,0x93,0x45,0x42,
0x03,0x99,0x2a,0x00,0x00,0x99,0x3d,0x00,0x0e,0xb7,0x01,0x69,0x12,0x97,0x45,0x00,
0x0b,0x95,0x3c,0x00,0x01,0x99,0x2a,0x32,0x01,0x95,0x39,0x00,0x02,0x95,0x40,0x00,
0x01,0xb7,0x01,0x00,0x00,0x99,0x2a,0x00,0x00,0x9b,0x34,0x00,0x03,0x93,0x47,0x60,
0x02,0x93,0x45,0x00,0x03,0x9b,0x2d,0x00,0x1f,0x95,0x39,0x48,0x00,0x95,0x3c,0x40,
0x00,0x95,0x40,0x44,0x02,0x91,0x21,0x56,0x03,0x99,0x23,0x6c,0x00,0x99,0x2a,0x38,
0x00,0x9b,0x39,0x4e,0x04,0x99,0x23,0x00,0x00,0x99,0x2a,0x00,0x07,0x93,0x47,0x00,
0x02,0x93,0x48,0x5c,0x23,0x99,0x2a,0x2a,0x04,0x99,0x2a,0x00,0x01,0x91,0x21,0x00,
0x28,0x91,0x21,0x66,0x03,0x99,0x23,0x6c,0x00,0x99,0x2a,0x2e,0x00,0x9b,0x3c,0x46,
0x04,0x99,0x23,0x00,0x00,0x99,0x2a,0x00,0x2c,0x99,0x2a,0x2e,0x04,0x99,0x2a,0x00,
0x01,0xb3,0x01,0x16,0x1a,0xb3,0x01,0x00,0x10,0x93,0x48,0x00,0x01,0x99,0x2a,0x46,
0x00,0x9b,0x40,0x57,0x01,0x93,0x47,0x64,0x03,0x99,0x2a,0x00,0x2c,0x99,0x2a,0x38,
0x00,0x99,0x3c,0x3c,0x04,0x99,0x2a,0x00,0x00,0x99,0x3c,0x00,0x2c,0x99,0x2a,0x32,
0x00,0x9b,0x45,0x53,0x04,0x99,0x2a,0x00,0x01,0x93,0x45,0x5c,0x00,0x93,0x47,0x00,
0x2b,0x99,0x2a,0x32,0x00,0x99,0x3d,0x2a,0x04,0x99,0x2a,0x00,0x00,0x99,0x3d,0x00,
0x0c,0x9b,0x45,0x00,0x0d,0x91,0x21,0x00,0x0d,0x95,0x39,0x00,0x01,0x95,0x38,0x4c,
0x02,0x91,0x20,0x5a,0x01,0x9b,0x40,0x00,0x02,0x99,0x2a,0x37,0x00,0x9b,0x38,0x46,
0x00,0x9b,0x39,0x00,0x01,0x93,0x45,0x00,0x01,0x9b,0x47,0x57,0x01,0x93,0x47,0x4e,
0x01,0x99,0x2a,0x00,0x2c,0x99,0x2a,0x2a,0x04,0x99,0x2a,0x00,0x06,0x9b,0x3c,0x00,
0x26,0x99,0x2a,0x2e,0x00,0x9b,0x3c,0x53,0x04,0x99,0x2a,0x00,0x29,0xb3,0x01,0x02,
0x03,0x99,0x2a,0x32,0x00,0x99,0x3c,0x38,0x04,0x99,0x2a,0x00,0x00,0x99,0x3c,0x00,
0x11,0xb3,0x01,0x15,0x12,0xb3,0x01,0x25,0x03,0x9b,0x47,0x00,0x06,0x99,0x2a,0x46,
0x00,0x9b,0x40,0x57,0x04,0x99,0x2a,0x00,0x05,0xb3,0x01,0x3d,0x12,0xb3,0x01,0x4f,
0x15,0x99,0x2a,0x3a,0x00,0x99,0x4b,0x5a,0x01,0xb3,0x01,0x4a,0x03,0x99,0x2a,0x00,
0x00,0x99,0x4b,0x00,0x0f,0xb3,0x01,0x00,0x1d,0x99,0x2a,0x38,0x00,0x99,0x3d,0x3c,
0x00,0x9b,0x47,0x4e,0x04,0x99,0x2a,0x00,0x00,0x99,0x3d,0x00,0x05,0x93,0x45,0x46,
0x02,0x93,0x47,0x00,0x1e,0x91,0x20,0x00,0x07,0x99,0x2a,0x32,0x04,0x99,0x2a,0x00,
0x0b,0x93,0x45,0x00,0x00,0x93,0x47,0x64,0x09,0x9b,0x47,0x00,0x04,0x9b,0x38,0x00,
0x06,0x9b,0x3c,0x00,0x00,0x9b,0x40,0x00,0x08,0x95,0x38,0x00,0x01,0x95,0x37,0x56,
0x02,0x91,0x1f,0x5a,0x03,0x99,0x23,0x6c,0x00,0x99,0x2a,0x38,0x00,0x9b,0x37,0x48,
0x02,0x9b,0x48,0x53,0x02,0x99,0x23,0x00,0x00,0x99,0x2a,0x00,0x0f,0x93,0x47,0x00,
0x08,0x93,0x48,0x64,0x0c,0x91,0x1f,0x00,0x09,0x99,0x2a,0x2a,0x04,0x99,0x2a,0x00,
0x29,0x91,0x1f,0x5a,0x03,0x99,0x23,0x6c,0x00,0x99,0x2a,0x2e,0x00,0x9b,0x40,0x57,
0x04,0x99,0x23,0x00,0x00,0x99,0x2a,0x00,0x2c,0x99,0x2a,0x2e,0x04,0x99,0x2a,0x00,
0x01,0x93,0x4a,0x60,0x02,0x93,0x48,0x00,0x29,0x99,0x2a,0x46,0x00,0x9b,0x43,0x4c,
0x04,0x99,0x2a,0x00,0x00,0x9b,0x40,0x00,0x2c,0x99,0x2a,0x38,0x00,0x99,0x3c,0x3c,
0x04,0x99,0x2a,0x00,0x00,0x99,0x3c,0x00,0x0d,0x9b,0x48,0x00,0x1e,0x93,0x4a,0x00,
0x01,0x99,0x2a,0x32,0x00,0x9b,0x48,0x4c,0x03,0x93,0x48,0x64,0x01,0x99,0x2a,0x00,
0x2c,0x99,0x2a,0x32,0x00,0x99,0x3d,0x2a,0x04,0x99,0x2a,0x00,0x00,0x99,0x3d,0x00,
0x06,0x9b,0x48,0x00,0x0e,0x9b,0x43,0x00,0x12,0x95,0x37,0x00,0x01,0x95,0x36,0x3c,
0x00,0x95,0x39,0x50,0x02,0x91,0x26,0x40,0x01,0x9b,0x37,0x00,0x02,0x99,0x2a,0x37,
0x00,0x9b,0x36,0x39,0x02,0x9b,0x42,0x5d,0x02,0x99,0x2a,0x00,0x01,0x91,0x1f,0x00,
0x00,0x93,0x48,0x00,0x02,0x93,0x47,0x64,0x29,0x99,0x2a,0x2a,0x04,0x99,0x2a,0x00,
0x1f,0xe3,0x55,0x2a,0x08,0xe3,0x17,0x21,0x05,0x99,0x2a,0x2e,0x00,0x9b,0x3e,0x4c,
0x04,0x99,0x2a,0x00,0x01,0xe3,0x0e,0x27,0x08,0xe3,0x00,0x40,0x0a,0x93,0x47,0x00,
0x04,0x93,0x45,0x40,0x15,0x99,0x2a,0x32,0x00,0x99,0x3c,0x38,0x04,0x99,0x2a,0x00,
0x00,0x99,0x3c,0x00,0x2c,0x99,0x2a,0x46,0x00,0x9b,0x39,0x40,0x04,0x99,0x2a,0x00,
0x06,0x9b,0x3e,0x00,0x26,0x99,0x2a,0x3a,0x00,0x99,0x4b,0x5a,0x04,0x99,0x2a,0x00,
0x00,0x99,0x4b,0x00,0x2c,0x99,0x2a,0x38,0x00,0x99,0x3d,0x3c,0x00,0x9b,0x3e,0x46,
0x04,0x99,0x2a,0x00,0x00,0x99,0x3d,0x00,0x09,0x93,0x48,0x56,0x02,0x93,0x45,0x00,
0x21,0x99,0x2a,0x32,0x00,0x9b,0x42,0x00,0x03,0x93,0x48,0x00,0x01,0x99,0x2a,0x00,
0x02,0x9b,0x36,0x00,0x00,0x9b,0x39,0x00,0x01,0x93,0x4a,0x64,0x03,0x9b,0x3e,0x00,
0x15,0x91,0x26,0x00,0x0a,0x95,0x40,0x00,0x01,0x95,0x36,0x00,0x00,0x95,0x39,0x00,
0x01,0x95,0x35,0x40,0x00,0x95,0x39,0x3c,0x00,0x95,0x40,0x40,0x02,0x91,0x1d,0x6c,
0x03,0x99,0x23,0x6c,0x00,0x9b,0x29,0x4e,0x00,0x99,0x2a,0x38,0x02,0x9b,0x35,0x48,
0x02,0x99,0x23,0x00,0x00,0x99,0x2a,0x00,0x00,0x9b,0x39,0x40,0x02,0x9b,0x40,0x53,
0x05,0x93,0x4c,0x64,0x06,0x93,0x4a,0x00,0x02,0x91,0x1d,0x00,0x1d,0x99,0x2a,0x2a,
0x04,0x99,0x2a,0x00,0x29,0x91,0x1d,0x6c,0x03,0x99,0x23,0x6c,0x00,0x99,0x2a,0x2e,
0x00,0x9b,0x3c,0x4c,0x04,0x99,0x23,0x00,0x00,0x99,0x2a,0x00,0x0d,0xe3,0x7b,0x32,
0x08,0xe3,0x0e,0x27,0x0a,0xe3,0x2f,0x22,0x07,0x9b,0x39,0x00,0x01,0xe3,0x42,0x26,
0x05,0x99,0x2a,0x2e,0x04,0x99,0x2a,0x00,0x01,0xe3,0x00,0x40,0x08,0x93,0x4c,0x00,
0x02,0x93,0x4a,0x64,0x21,0x99,0x2a,0x46,0x00,0x9b,0x39,0x4c,0x04,0x99,0x2a,0x00,
0x21,0xe3,0x0e,0x37,0x08,0xe3,0x7b,0x32,0x03,0x99,0x2a,0x38,0x00,0x99,0x3c,0x3c,
0x04,0x99,0x2a,0x00,0x00,0x99,0x3c,0x00,0x03,0xe3,0x25,0x28,0x08,0xe3,0x2f,0x22,
0x08,0xe3,0x50,0x1d,0x03,0x9b,0x40,0x00,0x07,0xe3,0x0e,0x27,0x08,0xe3,0x00,0x40,
0x02,0x93,0x48,0x60,0x05,0x99,0x2a,0x32,0x00,0x9b,0x40,0x48,0x01,0x93,0x4a,0x00,
0x03,0x99,0x2a,0x00,0x2c,0x99,0x2a,0x32,0x00,0x99,0x3d,0x2a,0x04,0x99,0x2a,0x00,
0x00,0x99,0x3d,0x00,0x27,0x93,0x48,0x00,0x02,0x93,0x47,0x52,0x03,0x99,0x2a,0x37,
0x04,0x99,0x2a,0x00,0x2c,0x99,0x2a,0x2a,0x04,0x99,0x2a,0x00,0x1e,0x9b,0x40,0x00,
0x0e,0x99,0x2a,0x2e,0x00,0x9b,0x40,0x4e,0x04,0x99,0x2a,0x00,0x0c,0x9b,0x3c,0x00,
0x20,0x99,0x2a,0x32,0x00,0x99,0x3c,0x38,0x04,0x99,0x2a,0x00,0x00,0x99,0x3c,0x00,
0x05,0x93,0x47,0x00,0x06,0x93,0x45,0x3e,0x21,0x99,0x2a,0x46,0x00,0x9b,0x3c,0x4e,
0x04,0x99,0x2a,0x00,0x2c,0x99,0x2a,0x3a,0x00,0x99,0x4b,0x5a,0x04,0x99,0x2a,0x00,
0x00,0x9b,0x39,0x00,0x00,0x99,0x4b,0x00,0x2b,0x93,0x43,0x46,0x01,0x99,0x2a,0x38,
0x00,0x9b,0x39,0x40,0x00,0x99,0x3d,0x3c,0x04,0x99,0x2a,0x00,0x00,0x99,0x3d,0x00,
0x01,0x93,0x45,0x00,0x26,0x91,0x1d,0x00,0x05,0x99,0x23,0x56,0x00,0x99,0x2a,0x32,
0x04,0x99,0x23,0x00,0x00,0x99,0x2a,0x00,0x06,0x9b,0x29,0x00,0x08,0x9b,0x35,0x00,
0x00,0x9b,0x39,0x00,0x00,0x9b,0x3c,0x00,0x02,0x9b,0x40,0x00,0x05,0x93,0x43,0x00,
0x10,0x95,0x35,0x00,0x00,0x95,0x39,0x00,0x00,0x95,0x3c,0x00,0x00,0x95,0x40,0x00,
0x00,0x93,0x43,0x56,0x02,0x95,0x37,0x56,0x00,0x95,0x3b,0x56,0x02,0x91,0x23,0x4c,
0x03,0x99,0x23,0x6c,0x00,0x99,0x2a,0x38,0x00,0x9b,0x2f,0x57,0x02,0x9b,0x37,0x62,
0x02,0x99,0x23,0x00,0x00,0x99,0x2a,0x00,0x00,0x9b,0x3b,0x4e,0x2c,0x99,0x2a,0x2a,
0x04,0x99,0x2a,0x00,0x03,0x95,0x37,0x00,0x06,0x95,0x3b,0x00,0x07,0x9b,0x37,0x00,
0x0e,0x9b,0x3b,0x00,0x03,0x91,0x23,0x00,0x03,0x9b,0x2f,0x00,0x03,0x95,0x39,0x2a,
0x00,0x95,0x3c,0x36,0x00,0x95,0x40,0x48,0x02,0x91,0x21,0x56,0x03,0x99,0x23,0x6c,
0x00,0x99,0x2a,0x2e,0x00,0x9b,0x2d,0x4c,0x01,0x93,0x43,0x00,0x01,0x9b,0x34,0x46,
0x01,0x93,0x45,0x42,0x01,0x99,0x23,0x00,0x00,0x99,0x2a,0x00,0x00,0x9b,0x39,0x4c,
0x02,0x9b,0x3c,0x26,0x06,0x97,0x3e,0x6c,0x03,0x95,0x3c,0x00,0x04,0x91,0x21,0x00,
0x03,0x9b,0x3c,0x00,0x01,0x95,0x39,0x00,0x04,0x95,0x40,0x00,0x01,0x9b,0x39,0x00,
0x02,0x9b,0x2d,0x00,0x00,0xe7,0x47,0x40,0x02,0x9b,0x34,0x00,0x08,0xe7,0x4d,0x57,
0x08,0x99,0x2a,0x2e,0x00,0xe7,0x63,0x66,0x04,0x99,0x2a,0x00,0x04,0xe7,0x41,0x76,
0x08,0xe7,0x7f,0x7f,0x11,0x93,0x45,0x00,0x0a,0x95,0x39,0x34,0x00,0x95,0x3c,0x3c,
0x00,0x95,0x40,0x50,0x02,0x91,0x21,0x5e,0x03,0x99,0x23,0x62,0x00,0x99,0x2a,0x46,
0x00,0x9b,0x2d,0x4c,0x02,0x9b,0x34,0x4e,0x02,0x99,0x23,0x00,0x00,0x99,0x2a,0x00,
0x00,0x9b,0x39,0x4c,0x01,0x93,0x45,0x42,0x01,0x9b,0x3c,0x4e,0x04,0x97,0x43,0x6c,
0x06,0x97,0x3e,0x00,0x1e,0x97,0x43,0x00,0x02,0x99,0x2a,0x38,0x00,0x99,0x3c,0x3c,
0x04,0x99,0x2a,0x00,0x00,0x99,0x3c,0x00,0x02,0x97,0x3e,0x5a,0x2a,0x99,0x2a,0x32,
0x00,0x97,0x41,0x6c,0x04,0x99,0x2a,0x00,0x00,0x97,0x3e,0x00,0x26,0x97,0x41,0x00,
0x04,0x97,0x3e,0x5e,0x02,0x99,0x2a,0x32,0x00,0x99,0x3d,0x2a,0x04,0x99,0x2a,0x00,
0x00,0x99,0x3d,0x00,0x28,0x97,0x3e,0x00,0x02,0x97,0x43,0x6c,0x02,0x99,0x2a,0x37,
0x04,0x99,0x2a,0x00,0x22,0x97,0x43,0x00,0x08,0x97,0x3e,0x66,0x02,0x99,0x2a,0x2a,
0x04,0x99,0x2a,0x00,0x0d,0xb3,0x01,0x09,0x12,0xb3,0x01,0x13,0x09,0xe7,0x61,0x6f,
0x04,0x99,0x2a,0x2e,0x04,0x99,0x2a,0x00,0x02,0xe7,0x00,0x40,0x07,0xb3,0x01,0x1f,
0x12,0xb3,0x01,0x2a,0x05,0x97,0x3e,0x00,0x02,0x97,0x40,0x6c,0x0a,0x99,0x2a,0x32,
0x00,0x99,0x3c,0x38,0x01,0xb3,0x01,0x35,0x03,0x99,0x2a,0x00,0x00,0x99,0x3c,0x00,
0x13,0xb3,0x01,0x44,0x03,0x9b,0x2d,0x00,0x0c,0x97,0x40,0x00,0x04,0x97,0x3c,0x6c,
0x03,0xb3,0x01,0x4e,0x03,0x99,0x26,0x68,0x00,0x99,0x2a,0x46,0x00,0x9b,0x2d,0x53,
0x04,0x99,0x26,0x00,0x00,0x99,0x2a,0x00,0x13,0xb3,0x01,0x47,0x0e,0x93,0x45,0x00,
0x08,0xb3,0x01,0x00,0x03,0x99,0x2a,0x3a,0x00,0x99,0x4b,0x5a,0x04,0x99,0x2a,0x00,
0x00,0x99,0x4b,0x00,0x02,0xe7,0x5e,0x4f,0x0a,0xe7,0x1a,0x6f,0x0c,0xe7,0x4d,0x57,
0x08,0xe7,0x00,0x40,0x07,0x91,0x21,0x00,0x01,0x9b,0x2d,0x00,0x04,0x99,0x2a,0x38,
0x00,0x9b,0x2f,0x57,0x00,0x99,0x3d,0x3c,0x04,0x99,0x2a,0x00,0x00,0x99,0x3d,0x00,
0x02,0xe7,0x7d,0x51,0x0a,0xe7,0x01,0x72,0x08,0xe7,0x3a,0x68,0x08,0x97,0x3c,0x00,
0x00,0xe7,0x00,0x40,0x0f,0x95,0x3c,0x00,0x01,0x99,0x2a,0x32,0x01,0x95,0x39,0x00,
0x01,0x9b,0x34,0x00,0x01,0x95,0x40,0x00,0x01,0x99,0x2a,0x00,0x04,0x9b,0x3c,0x00,
0x02,0x9b,0x39,0x00,0x21,0x95,0x30,0x48,0x00,0x95,0x40,0x40,0x00,0x95,0x43,0x40,
0x02,0x91,0x24,0x6c,0x03,0x99,0x23,0x6c,0x00,0x99,0x2a,0x38,0x00,0x9b,0x30,0x4c,
0x04,0x99,0x23,0x00,0x00,0x99,0x2a,0x00,0x01,0x93,0x48,0x52,0x00,0xe3,0x4b,0x10,
0x01,0x9b,0x2f,0x00,0x07,0xe3,0x0e,0x17,0x08,0xe3,0x4b,0x20,0x08,0xe3,0x4b,0x30,
0x02,0x91,0x24,0x00,0x08,0xe3,0x00,0x40,0x09,0x99,0x2a,0x2a,0x04,0x99,0x2a,0x00,
0x29,0x91,0x24,0x66,0x03,0x99,0x23,0x6c,0x00,0x99,0x2a,0x2e,0x00,0x9b,0x34,0x4c,
0x04,0x99,0x23,0x00,0x00,0x99,0x2a,0x00,0x2c,0x99,0x2a,0x2e,0x04,0x99,0x2a,0x00,
0x2c,0x99,0x2a,0x46,0x00,0x9b,0x37,0x48,0x04,0x99,0x2a,0x00,0x2c,0x99,0x2a,0x38,
0x00,0x99,0x3c,0x3c,0x04,0x99,0x2a,0x00,0x00,0x99,0x3c,0x00,0x27,0x93,0x4a,0x4a,
0x05,0x99,0x2a,0x32,0x00,0x9b,0x40,0x53,0x01,0x93,0x48,0x00,0x03,0x99,0x2a,0x00,
0x29,0x93,0x4c,0x4e,0x03,0x99,0x2a,0x32,0x00,0x99,0x3d,0x2a,0x01,0x93,0x4a,0x00,
0x03,0x99,0x2a,0x00,0x00,0x99,0x3d,0x00,0x19,0x91,0x24,0x00,0x09,0x9b,0x37,0x00,
0x04,0x95,0x30,0x00,0x00,0x9b,0x30,0x00,0x00,0x95,0x40,0x00,0x00,0x95,0x43,0x00,
0x01,0x95,0x32,0x5e,0x00,0x95,0x42,0x48,0x00,0x95,0x45,0x30,0x01,0x9b,0x34,0x00,
0x01,0x91,0x26,0x62,0x01,0x9b,0x40,0x00,0x01,0x93,0x4c,0x00,0x01,0x99,0x2a,0x37,
0x00,0x9b,0x32,0x46,0x02,0x9b,0x42,0x4e,0x02,0x99,0x2a,0x00,0x01,0x93,0x4a,0x52,
0x2b,0x99,0x2a,0x2a,0x04,0x99,0x2a,0x00,0x2c,0x99,0x2a,0x2e,0x00,0x9b,0x3e,0x4e,
0x04,0x99,0x2a,0x00,0x2c,0x99,0x2a,0x32,0x00,0x99,0x3c,0x38,0x04,0x99,0x2a,0x00,
0x00,0x99,0x3c,0x00,0x2c,0x99,0x2a,0x46,0x00,0x9b,0x39,0x4c,0x04,0x99,0x2a,0x00,
0x10,0x9b,0x3e,0x00,0x1c,0x99,0x2a,0x3a,0x00,0x99,0x4b,0x5a,0x04,0x99,0x2a,0x00,
0x00,0x99,0x4b,0x00,0x14,0x9b,0x42,0x00,0x18,0x99,0x2a,0x38,0x00,0x99,0x3d,0x3c,
0x00,0x9b,0x42,0x46,0x04,0x99,0x2a,0x00,0x00,0x99,0x3d,0x00,0x2c,0x99,0x2a,0x32,
0x04,0x99,0x2a,0x00,0x0e,0x9b,0x42,0x00,0x06,0x9b,0x32,0x00,0x00,0x9b,0x39,0x00,
0x12,0x95,0x32,0x00,0x00,0x95,0x42,0x00,0x00,0x95,0x45,0x00,0x01,0x91,0x26,0x00,
0x00,0x95,0x35,0x38,0x00,0x95,0x40,0x3e,0x00,0x95,0x45,0x34,0x00,0x95,0x48,0x48,
0x02,0x91,0x1d,0x5e,0x03,0x99,0x23,0x6c,0x00,0x9b,0x29,0x4c,0x00,0x99,0x2a,0x38,
0x02,0x9b,0x39,0x4c,0x01,0x93,0x48,0x5c,0x01,0x99,0x23,0x00,0x00,0x99,0x2a,0x00,
0x00,0x9b,0x40,0x53,0x05,0x93,0x4a,0x00,0x16,0x91,0x1d,0x00,0x00,0xe3,0x27,0x47,
0x0a,0xe3,0x24,0x59,0x07,0x99,0x2a,0x2a,0x01,0xe3,0x33,0x63,0x03,0x99,0x2a,0x00,
0x07,0xe3,0x29,0x70,0x08,0xe3,0x69,0x74,0x0a,0xe3,0x00,0x7b,0x08,0xe3,0x30,0x7e,
0x08,0x91,0x1d,0x62,0x00,0xe3,0x7f,0x7f,0x01,0x9b,0x39,0x00,0x02,0x99,0x23,0x6c,
0x00,0x99,0x2a,0x2e,0x00,0x9b,0x3c,0x4e,0x04,0x99,0x23,0x00,0x00,0x99,0x2a,0x00,
0x2c,0x99,0x2a,0x2e,0x04,0x99,0x2a,0x00,0x2c,0x99,0x2a,0x46,0x00,0x9b,0x39,0x53,
0x04,0x99,0x2a,0x00,0x08,0x9b,0x40,0x00,0x24,0x99,0x2a,0x38,0x00,0x99,0x3c,0x3c,
0x04,0x99,0x2a,0x00,0x00,0x99,0x3c,0x00,0x1d,0xe3,0x6a,0x6b,0x08,0xe3,0x00,0x40,
0x07,0x99,0x2a,0x32,0x00,0x9b,0x40,0x4c,0x04,0x99,0x2a,0x00,0x08,0x9b,0x3c,0x00,
0x1d,0x93,0x48,0x00,0x04,0x93,0x47,0x60,0x03,0x99,0x2a,0x32,0x00,0x99,0x3d,0x2a,
0x04,0x99,0x2a,0x00,0x00,0x99,0x3d,0x00,0x19,0x91,0x1d,0x00,0x03,0x9b,0x39,0x00,
0x08,0x9b,0x29,0x00,0x02,0x95,0x35,0x00,0x01,0x95,0x2d,0x38,0x02,0x91,0x21,0x5a,
0x03,0x99,0x2a,0x37,0x00,0x9b,0x2d,0x4e,0x02,0x9b,0x3b,0x53,0x00,0x9b,0x40,0x00,
0x02,0x99,0x2a,0x00,0x05,0x93,0x47,0x00,0x08,0x93,0x45,0x44,0x1f,0x99,0x2a,0x2a,
0x00,0x9b,0x3c,0x48,0x04,0x99,0x2a,0x00,0x02,0x9b,0x3b,0x00,0x28,0x9b,0x3c,0x00,
0x02,0x99,0x2a,0x2e,0x00,0x9b,0x39,0x48,0x04,0x99,0x2a,0x00,0x2c,0x99,0x2a,0x32,
0x00,0x99,0x3c,0x38,0x04,0x99,0x2a,0x00,0x00,0x99,0x3c,0x00,0x1e,0x93,0x45,0x00,
0x02,0x9b,0x2d,0x00,0x03,0x91,0x21,0x00,0x06,0x91,0x21,0x50,0x03,0x99,0x2a,0x46,
0x00,0x9b,0x2d,0x53,0x04,0x99,0x2a,0x00,0x01,0x93,0x45,0x56,0x2b,0x99,0x2a,0x3a,
0x00,0x99,0x4b,0x5a,0x04,0x99,0x2a,0x00,0x00,0x99,0x4b,0x00,0x17,0x91,0x21,0x00,
0x06,0x93,0x45,0x00,0x0c,0x91,0x23,0x56,0x03,0x99,0x2a,0x38,0x00,0x9b,0x2f,0x4e,
0x00,0x99,0x3d,0x3c,0x03,0x93,0x47,0x60,0x01,0x99,0x2a,0x00,0x00,0x99,0x3d,0x00,
0x02,0x9b,0x2d,0x00,0x2a,0x99,0x2a,0x32,0x04,0x99,0x2a,0x00,0x25,0x95,0x40,0x00,
0x00,0x95,0x45,0x00,0x00,0x95,0x48,0x00,0x01,0x95,0x2d,0x00,0x01,0x91,0x23,0x00,
0x00,0x95,0x30,0x3c,0x00,0x95,0x3c,0x48,0x00,0x95,0x40,0x3e,0x00,0x95,0x43,0x50,
0x02,0x91,0x24,0x62,0x03,0x99,0x23,0x6c,0x00,0x99,0x2a,0x38,0x00,0x9b,0x2f,0x00,
0x00,0x9b,0x30,0x48,0x02,0x9b,0x3c,0x4e,0x02,0x99,0x23,0x00,0x00,0x99,0x2a,0x00,
0x01,0x93,0x47,0x00,0x00,0x93,0x48,0x5c,0x09,0x9b,0x39,0x00,0x15,0x91,0x24,0x00,
0x0d,0x99,0x2a,0x2a,0x04,0x99,0x2a,0x00,0x29,0x91,0x24,0x6c,0x03,0x99,0x23,0x6c,
0x00,0x99,0x2a,0x2e,0x00,0x9b,0x37,0x39,0x04,0x99,0x23,0x00,0x00,0x99,0x2a,0x00,
0x09,0x93,0x48,0x00,0x00,0x93,0x4a,0x4e,0x23,0x99,0x2a,0x2e,0x04,0x99,0x2a,0x00,
0x2c,0x99,0x2a,0x46,0x00,0x9b,0x34,0x53,0x04,0x99,0x2a,0x00,0x01,0x93,0x4c,0x4e,
0x08,0x93,0x4a,0x00,0x07,0x9b,0x37,0x00,0x1c,0x99,0x2a,0x38,0x00,0x99,0x3c,0x3c,
0x04,0x99,0x2a,0x00,0x00,0x99,0x3c,0x00,0x2c,0x99,0x2a,0x32,0x00,0x9b,0x37,0x48,
0x03,0x93,0x4c,0x00,0x01,0x99,0x2a,0x00,0x01,0x93,0x4a,0x52,0x2b,0x99,0x2a,0x32,
0x00,0x99,0x3d,0x2a,0x04,0x99,0x2a,0x00,0x00,0x99,0x3d,0x00,0x12,0x9b,0x30,0x00,
0x0f,0x91,0x24,0x00,0x05,0x95,0x30,0x00,0x00,0x95,0x3c,0x00,0x00,0x95,0x40,0x00,
0x01,0x95,0x2b,0x3e,0x00,0x95,0x3b,0x32,0x00,0x95,0x3e,0x4c,0x02,0x91,0x1f,0x5e,
0x03,0x99,0x2a,0x37,0x00,0x9b,0x2b,0x46,0x00,0x9b,0x34,0x00,0x04,0x99,0x2a,0x00,
0x02,0x9b,0x3c,0x00,0x03,0x93,0x48,0x44,0x01,0x9b,0x37,0x00,0x07,0x93,0x4a,0x00,
0x06,0xe3,0x2f,0x43,0x0a,0xe3,0x13,0x61,0x08,0xe3,0x11,0x73,0x07,0x99,0x2a,0x2a,
0x01,0xe3,0x38,0x7a,0x03,0x99,0x2a,0x00,0x1d,0xe3,0x60,0x78,0x0c,0xe3,0x39,0x71,
0x03,0x99,0x2a,0x2e,0x00,0x9b,0x32,0x4e,0x04,0x99,0x2a,0x00,0x03,0xe3,0x74,0x5e,
0x08,0xe3,0x2e,0x4c,0x08,0xe3,0x00,0x40,0x19,0x99,0x2a,0x32,0x00,0x99,0x3c,0x38,
0x04,0x99,0x2a,0x00,0x00,0x99,0x3c,0x00,0x2c,0x99,0x2a,0x46,0x00,0x9b,0x43,0x57,
0x04,0x99,0x2a,0x00,0x03,0x93,0x47,0x5c,0x02,0x93,0x48,0x00,0x27,0x99,0x2a,0x3a,
0x00,0x99,0x4b,0x5a,0x04,0x99,0x2a,0x00,0x00,0x99,0x4b,0x00,0x17,0x91,0x1f,0x00,
0x12,0x91,0x1f,0x56,0x03,0x99,0x2a,0x38,0x00,0x99,0x3d,0x3c,0x00,0x9b,0x3e,0x48,
0x04,0x99,0x2a,0x00,0x00,0x99,0x3d,0x00,0x03,0x93,0x43,0x5c,0x02,0x93,0x47,0x00,
0x27,0x99,0x23,0x66,0x00,0x99,0x2a,0x32,0x04,0x99,0x23,0x00,0x00,0x99,0x2a,0x00,
0x10,0x9b,0x43,0x00,0x02,0x9b,0x3e,0x00,0x05,0x91,0x1f,0x00,0x07,0x9b,0x32,0x00,
0x07,0x95,0x43,0x00,0x01,0x95,0x2b,0x00,0x00,0x9b,0x2b,0x00,0x00,0x95,0x3b,0x00,
0x01,0x95,0x32,0x5e,0x00,0x95,0x39,0x30,0x00,0x95,0x42,0x4c,0x02,0x91,0x1a,0x5e,
0x00,0x93,0x43,0x00,0x03,0x99,0x23,0x6c,0x00,0x99,0x2a,0x38,0x00,0x9b,0x32,0x53,
0x02,0x9b,0x43,0x57,0x02,0x99,0x23,0x00,0x00,0x99,0x2a,0x00,0x03,0x93,0x43,0x5c,
0x24,0x91,0x1a,0x00,0x05,0x99,0x2a,0x2a,0x00,0x9b,0x42,0x57,0x04,0x99,0x2a,0x00,
0x06,0x9b,0x43,0x00,0x23,0x91,0x1a,0x5e,0x03,0x99,0x23,0x6c,0x00,0x99,0x2a,0x2e,
0x00,0x9b,0x3e,0x5d,0x02,0x9b,0x42,0x00,0x01,0x93,0x45,0x44,0x01,0x99,0x23,0x00,
0x00,0x99,0x2a,0x00,0x01,0x93,0x43,0x00,0x1c,0x91,0x1a,0x00,0x0f,0x99,0x2a,0x2e,
0x04,0x99,0x2a,0x00,0x00,0x9b,0x3e,0x00,0x04,0x9b,0x32,0x00,0x11,0x93,0x45,0x00,
0x14,0x91,0x1a,0x6c,0x02,0x93,0x45,0x46,0x01,0x99,0x23,0x62,0x00,0x99,0x2a,0x46,
0x00,0x9b,0x32,0x4c,0x02,0x9b,0x37,0x5d,0x02,0x99,0x23,0x00,0x00,0x99,0x2a,0x00,
0x2c,0x99,0x2a,0x38,0x00,0x99,0x3c,0x3c,0x04,0x99,0x2a,0x00,0x00,0x99,0x3c,0x00,
0x2c,0x99,0x2a,0x32,0x00,0x9b,0x39,0x31,0x04,0x99,0x2a,0x00,0x00,0x9b,0x37,0x00,
0x2c,0x99,0x2a,0x32,0x00,0x9b,0x37,0x2f,0x00,0x99,0x3d,0x2a,0x04,0x99,0x2a,0x00,
0x00,0x99,0x3d,0x00,0x08,0x9b,0x39,0x00,0x21,0x91,0x26,0x56,0x03,0x99,0x2a,0x37,
0x00,0x9b,0x36,0x57,0x04,0x99,0x2a,0x00,0x02,0x9b,0x37,0x00,0x2a,0x99,0x2a,0x2a,
0x00,0x9b,0x37,0x3d,0x04,0x99,0x2a,0x00,0x03,0xb3,0x01,0x02,0x09,0x9b,0x36,0x00,
0x09,0xb3,0x01,0x07,0x16,0xb3,0x01,0x11,0x01,0x99,0x2a,0x2e,0x00,0x9b,0x39,0x57,
0x04,0x99,0x2a,0x00,0x08,0x9b,0x37,0x00,0x03,0xb3,0x01,0x1d,0x12,0xb3,0x01,0x2e,
0x0f,0x99,0x2a,0x32,0x00,0x99,0x3c,0x38,0x04,0x99,0x2a,0x00,0x00,0x99,0x3c,0x00,
0x09,0x93,0x45,0x00,0x04,0xb3,0x01,0x00,0x10,0x91,0x26,0x00,0x03,0x9b,0x32,0x00,
0x07,0x91,0x1a,0x00,0x02,0x91,0x21,0x6c,0x03,0x99,0x26,0x68,0x00,0x99,0x2a,0x46,
0x00,0x9b,0x2d,0x4c,0x01,0x93,0x45,0x5c,0x03,0x99,0x26,0x00,0x00,0x99,0x2a,0x00,
0x1c,0x9b,0x39,0x00,0x10,0x99,0x2a,0x3a,0x00,0x99,0x4b,0x5a,0x04,0x99,0x2a,0x00,
0x00,0x99,0x4b,0x00,0x1d,0x91,0x21,0x00,0x0b,0x9b,0x2d,0x00,0x01,0x91,0x23,0x5e,
0x03,0x99,0x2a,0x38,0x00,0x9b,0x2f,0x53,0x00,0x99,0x3d,0x3c,0x01,0x93,0x45,0x00,
0x02,0x93,0x47,0x60,0x01,0x99,0x2a,0x00,0x00,0x99,0x3d,0x00,0x25,0x95,0x3e,0x00,
0x07,0x99,0x2a,0x32,0x04,0x99,0x2a,0x00,0x25,0x95,0x32,0x00,0x00,0x95,0x39,0x00,
0x00,0x95,0x42,0x00,0x02,0x95,0x30,0x48,0x00,0x95,0x40,0x40,0x00,0x95,0x43,0x40,
0x02,0x91,0x23,0x00,0x00,0x91,0x24,0x6c,0x03,0x99,0x23,0x6c,0x00,0x99,0x2a,0x38,
0x00,0x9b,0x2f,0x00,0x00,0x9b,0x30,0x4c,0x04,0x99,0x23,0x00,0x00,0x99,0x2a,0x00,
0x01,0x93,0x47,0x00,0x00,0x98,0x48,0x48,0x08,0x93,0x48,0x52,0x12,0x91,0x24,0x00,
0x11,0x99,0x2a,0x2a,0x04,0x99,0x2a,0x00,0x29,0x91,0x24,0x72,0x03,0x99,0x23,0x6c,
0x00,0x99,0x2a,0x2e,0x00,0x9b,0x34,0x4c,0x04,0x99,0x23,0x00,0x00,0x99,0x2a,0x00,
0x2c,0x99,0x2a,0x2e,0x04,0x99,0x2a,0x00,0x2c,0x99,0x2a,0x46,0x00,0x9b,0x37,0x48,
0x04,0x99,0x2a,0x00,0x01,0xe3,0x04,0x3d,0x08,0xe3,0x25,0x38,0x0a,0xe3,0x1c,0x2e,
0x08,0xe3,0x2a,0x25,0x08,0xe3,0x68,0x1e,0x09,0x99,0x2a,0x38,0x00,0x99,0x3c,0x3c,
0x04,0x99,0x2a,0x00,0x00,0x99,0x3c,0x00,0x01,0xe3,0x12,0x24,0x0a,0xe3,0x00,0x40,
0x10,0x93,0x48,0x00,0x08,0x93,0x47,0x4a,0x09,0x99,0x2a,0x32,0x00,0x9b,0x40,0x53,
0x04,0x99,0x2a,0x00,0x27,0x93,0x47,0x00,0x04,0x93,0x45,0x56,0x01,0x99,0x2a,0x32,
0x00,0x99,0x3d,0x2a,0x04,0x99,0x2a,0x00,0x00,0x99,0x3d,0x00,0x22,0x9b,0x37,0x00,
0x03,0x91,0x24,0x00,0x01,0x95,0x30,0x00,0x00,0x9b,0x30,0x00,0x00,0x95,0x40,0x00,
0x00,0x95,0x43,0x00,0x01,0x95,0x32,0x5e,0x00,0x95,0x42,0x48,0x00,0x95,0x45,0x30,
0x01,0x9b,0x34,0x00,0x01,0x91,0x26,0x5e,0x01,0x9b,0x40,0x00,0x02,0x99,0x2a,0x37,
0x00,0x9b,0x32,0x46,0x02,0x9b,0x42,0x4e,0x01,0x98,0x48,0x00,0x01,0x99,0x2a,0x00,
0x01,0x98,0x4a,0x56,0x02,0x93,0x45,0x00,0x04,0x93,0x47,0x4e,0x25,0x99,0x2a,0x2a,
0x04,0x99,0x2a,0x00,0x2c,0x99,0x2a,0x2e,0x00,0x9b,0x3e,0x4e,0x01,0xe3,0x50,0x3d,
0x03,0x99,0x2a,0x00,0x05,0xe3,0x0e,0x37,0x0a,0xe3,0x55,0x2a,0x08,0xe3,0x34,0x1f,
0x08,0x93,0x47,0x00,0x02,0xe3,0x47,0x13,0x08,0xe3,0x68,0x0e,0x03,0x99,0x2a,0x32,
0x00,0x99,0x3c,0x38,0x04,0x99,0x2a,0x00,0x00,0x99,0x3c,0x00,0x03,0xe3,0x00,0x40,
0x29,0x99,0x2a,0x46,0x00,0x9b,0x39,0x4c,0x04,0x99,0x2a,0x00,0x10,0x9b,0x3e,0x00,
0x1c,0x99,0x2a,0x3a,0x00,0x99,0x4b,0x5a,0x04,0x99,0x2a,0x00,0x00,0x99,0x4b,0x00,
0x14,0x9b,0x42,0x00,0x15,0x93,0x45,0x52,0x03,0x99,0x2a,0x38,0x00,0x99,0x3d,0x3c,
0x00,0x9b,0x42,0x46,0x04,0x99,0x2a,0x00,0x00,0x99,0x3d,0x00,0x27,0x93,0x45,0x00,
0x02,0x93,0x47,0x5c,0x03,0x99,0x2a,0x32,0x04,0x99,0x2a,0x00,0x0e,0x9b,0x42,0x00,
0x06,0x9b,0x32,0x00,0x00,0x9b,0x39,0x00,0x05,0x91,0x26,0x00,0x0d,0x95,0x32,0x00,
0x00,0x95,0x42,0x00,0x00,0x95,0x45,0x00,0x01,0x95,0x3c,0x3c,0x00,0x95,0x40,0x3c,
0x00,0x95,0x45,0x5a,0x02,0x91,0x1d,0x62,0x03,0x99,0x23,0x6c,0x00,0x9b,0x29,0x4c,
0x00,0x99,0x2a,0x38,0x02,0x9b,0x39,0x4c,0x01,0x98,0x4a,0x00,0x01,0x99,0x23,0x00,
0x00,0x99,0x2a,0x00,0x00,0x9b,0x40,0x53,0x01,0x98,0x48,0x4c,0x04,0x93,0x47,0x00,
0x02,0x93,0x48,0x4a,0x12,0x91,0x1d,0x00,0x13,0x99,0x2a,0x2a,0x04,0x99,0x2a,0x00,
0x29,0x91,0x1d,0x6c,0x01,0x9b,0x39,0x00,0x02,0x99,0x23,0x6c,0x00,0x99,0x2a,0x2e,
0x00,0x9b,0x3c,0x4e,0x04,0x99,0x23,0x00,0x00,0x99,0x2a,0x00,0x2c,0x99,0x2a,0x2e,
0x04,0x99,0x2a,0x00,0x01,0x93,0x48,0x00,0x00,0x93,0x4a,0x5c,0x0c,0x95,0x40,0x00,
0x02,0x95,0x3c,0x00,0x00,0x95,0x45,0x00,0x18,0x95,0x3c,0x4c,0x00,0x95,0x40,0x4c,
0x00,0x95,0x45,0x50,0x05,0x99,0x2a,0x46,0x00,0x9b,0x39,0x53,0x04,0x99,0x2a,0x00,
0x08,0x9b,0x40,0x00,0x24,0x99,0x2a,0x38,0x00,0x99,0x3c,0x3c,0x04,0x99,0x2a,0x00,
0x00,0x99,0x3c,0x00,0x1d,0x93,0x4a,0x00,0x06,0x93,0x48,0x56,0x04,0x95,0x48,0x5a,
0x05,0x99,0x2a,0x32,0x00,0x9b,0x40,0x4c,0x04,0x99,0x2a,0x00,0x08,0x9b,0x3c,0x00,
0x24,0x99,0x2a,0x32,0x00,0x99,0x3d,0x2a,0x04,0x99,0x2a,0x00,0x00,0x99,0x3d,0x00,
0x13,0x95,0x3c,0x00,0x06,0x95,0x40,0x00,0x03,0x9b,0x39,0x00,0x05,0x95,0x48,0x00,
0x02,0x91,0x1d,0x00,0x01,0x9b,0x29,0x00,0x03,0x95,0x3c,0x44,0x00,0x95,0x40,0x44,
0x00,0x95,0x4c,0x5a,0x02,0x91,0x21,0x66,0x00,0x93,0x48,0x00,0x03,0x99,0x2a,0x37,
0x00,0x9b,0x2d,0x4e,0x01,0x93,0x47,0x56,0x01,0x9b,0x3b,0x53,0x00,0x9b,0x40,0x00,
0x01,0x98,0x48,0x00,0x01,0x99,0x2a,0x00,0x01,0x98,0x45,0x4c,0x2b,0x99,0x2a,0x2a,
0x00,0x9b,0x3c,0x48,0x04,0x99,0x2a,0x00,0x02,0x9b,0x3b,0x00,0x13,0xe3,0x3d,0x29,
0x08,0xe3,0x68,0x1e,0x0a,0xe3,0x47,0x23,0x03,0x9b,0x3c,0x00,0x02,0x99,0x2a,0x2e,
0x00,0x9b,0x39,0x48,0x03,0xe3,0x00,0x40,0x01,0x99,0x2a,0x00,0x01,0x93,0x47,0x00,
0x0a,0x93,0x45,0x46,0x21,0x99,0x2a,0x32,0x00,0x99,0x3c,0x38,0x04,0x99,0x2a,0x00,
0x00,0x99,0x3c,0x00,0x17,0x91,0x21,0x00,0x09,0x9b,0x2d,0x00,0x09,0x91,0x21,0x5e,
0x03,0x99,0x2a,0x46,0x00,0x9b,0x2d,0x53,0x04,0x99,0x2a,0x00,0x2c,0x99,0x2a,0x3a,
0x00,0x99,0x4b,0x5a,0x04,0x99,0x2a,0x00,0x00,0x99,0x4b,0x00,0x1f,0x91,0x21,0x00,
0x0a,0x91,0x23,0x62,0x03,0x99,0x2a,0x38,0x00,0x9b,0x2f,0x4e,0x00,0x99,0x3d,0x3c,
0x01,0x93,0x45,0x00,0x02,0x95,0x3c,0x00,0x01,0x99,0x2a,0x00,0x00,0x99,0x3d,0x00,
0x01,0x93,0x48,0x56,0x01,0x9b,0x2d,0x00,0x03,0x95,0x40,0x00,0x0e,0x95,0x4c,0x00,
0x02,0x95,0x45,0x00,0x17,0x99,0x2a,0x32,0x04,0x99,0x2a,0x00,0x03,0x93,0x4a,0x60,
0x0a,0x93,0x48,0x00,0x16,0x91,0x23,0x00,0x04,0x95,0x30,0x3e,0x00,0x95,0x3c,0x34,
0x00,0x95,0x40,0x36,0x00,0x95,0x43,0x32,0x02,0x91,0x24,0x6c,0x03,0x99,0x23,0x6c,
0x00,0x99,0x2a,0x38,0x00,0x9b,0x2f,0x00,0x00,0x9b,0x30,0x4c,0x00,0x9b,0x39,0x00,
0x03,0x98,0x45,0x00,0x01,0x99,0x23,0x00,0x00,0x99,0x2a,0x00,0x01,0x98,0x48,0x4c,
0x06,0x93,0x4a,0x00,0x06,0x93,0x4c,0x60,0x04,0x91,0x24,0x00,0x1b,0x99,0x2a,0x2a,
0x04,0x99,0x2a,0x00,0x29,0x91,0x24,0x66,0x03,0x99,0x23,0x6c,0x00,0x99,0x2a,0x2e,
0x00,0x9b,0x34,0x57,0x04,0x99,0x23,0x00,0x00,0x99,0x2a,0x00,0x0f,0xe3,0x34,0x3f,
0x0a,0xe3,0x17,0x31,0x08,0xe3,0x12,0x24,0x08,0xe3,0x6d,0x1b,0x03,0x99,0x2a,0x2e,
0x04,0x99,0x2a,0x00,0x01,0x93,0x4c,0x00,0x02,0xe3,0x38,0x1c,0x02,0x93,0x4a,0x64,
0x08,0xe3,0x00,0x40,0x1f,0x99,0x2a,0x46,0x00,0x9b,0x37,0x53,0x04,0x99,0x2a,0x00,
0x2c,0x99,0x2a,0x38,0x00,0x99,0x3c,0x3c,0x04,0x99,0x2a,0x00,0x00,0x99,0x3c,0x00,
0x1d,0x93,0x48,0x68,0x08,0x93,0x4a,0x00,0x07,0x99,0x2a,0x32,0x00,0x9b,0x3c,0x57,
0x04,0x99,0x2a,0x00,0x2a,0x9b,0x30,0x00,0x02,0x99,0x2a,0x32,0x00,0x99,0x3d,0x2a,
0x04,0x99,0x2a,0x00,0x00,0x99,0x3d,0x00,0x18,0x9b,0x34,0x00,0x0b,0x91,0x24,0x00,
0x03,0x95,0x30,0x00,0x00,0x9b,0x37,0x00,0x00,0x95,0x3c,0x00,0x00,0x95,0x40,0x00,
0x00,0x95,0x43,0x00,0x01,0x95,0x32,0x48,0x00,0x95,0x3e,0x40,0x00,0x95,0x42,0x4c,
0x00,0x95,0x45,0x3c,0x01,0x9b,0x3c,0x00,0x01,0x91,0x26,0x6c,0x03,0x99,0x2a,0x37,
0x00,0x9b,0x32,0x53,0x01,0x93,0x48,0x00,0x02,0x93,0x47,0x68,0x00,0x98,0x48,0x00,
0x01,0x99,0x2a,0x00,0x01,0x98,0x4a,0x48,0x2b,0x99,0x2a,0x2a,0x04,0x99,0x2a,0x00,
0x2c,0x99,0x2a,0x2e,0x00,0x9b,0x39,0x55,0x04,0x99,0x2a,0x00,0x25,0x93,0x47,0x00,
0x07,0x99,0x2a,0x32,0x00,0x99,0x3c,0x38,0x01,0x93,0x45,0x52,0x03,0x99,0x2a,0x00,
0x00,0x99,0x3c,0x00,0x2c,0x99,0x2a,0x46,0x00,0x9b,0x3e,0x53,0x04,0x99,0x2a,0x00,
0x2c,0x99,0x2a,0x3a,0x00,0x99,0x4b,0x5a,0x04,0x99,0x2a,0x00,0x00,0x99,0x4b,0x00,
0x2b,0x93,0x43,0x44,0x01,0x99,0x2a,0x38,0x00,0x99,0x3d,0x3c,0x00,0x9b,0x42,0x48,
0x01,0x93,0x45,0x00,0x03,0x99,0x2a,0x00,0x00,0x99,0x3d,0x00,0x2c,0x99,0x23,0x66,
0x00,0x99,0x2a,0x32,0x04,0x99,0x23,0x00,0x00,0x99,0x2a,0x00,0x01,0x91,0x26,0x00,
0x03,0x9b,0x42,0x00,0x0a,0x9b,0x39,0x00,0x00,0x9b,0x3e,0x00,0x08,0x9b,0x32,0x00,
0x09,0x93,0x43,0x00,0x07,0x95,0x32,0x00,0x00,0x95,0x3e,0x00,0x00,0x95,0x42,0x00,
0x01,0x95,0x35,0x3c,0x00,0x95,0x3c,0x26,0x00,0x95,0x40,0x3a,0x02,0x91,0x1d,0x6c,
0x03,0x99,0x23,0x6c,0x00,0x9b,0x29,0x4c,0x00,0x99,0x2a,0x38,0x02,0x9b,0x35,0x4c,
0x01,0x93,0x43,0x52,0x00,0x98,0x4a,0x00,0x01,0x99,0x23,0x00,0x00,0x99,0x2a,0x00,
0x00,0x9b,0x39,0x4c,0x01,0x98,0x4c,0x40,0x01,0x9b,0x40,0x40,0x11,0x91,0x1d,0x00,
0x19,0x99,0x2a,0x2a,0x04,0x99,0x2a,0x00,0x29,0x91,0x1d,0x5e,0x03,0x99,0x23,0x6c,
0x00,0x99,0x2a,0x2e,0x00,0x9b,0x3c,0x48,0x04,0x99,0x23,0x00,0x00,0x99,0x2a,0x00,
0x01,0x93,0x43,0x00,0x00,0x93,0x45,0x42,0x0d,0x9b,0x40,0x00,0x05,0x91,0x1d,0x00,
0x19,0x99,0x2a,0x2e,0x04,0x99,0x2a,0x00,0x1f,0x93,0x45,0x00,0x0a,0x91,0x1d,0x6c,
0x03,0x99,0x23,0x62,0x00,0x99,0x2a,0x46,0x00,0x9b,0x40,0x4c,0x04,0x99,0x23,0x00,
0x00,0x99,0x2a,0x00,0x01,0x93,0x45,0x44,0x03,0x9b,0x3c,0x00,0x28,0x99,0x2a,0x38,
0x00,0x99,0x3c,0x3c,0x04,0x99,0x2a,0x00,0x00,0x99,0x3c,0x00,0x2c,0x99,0x2a,0x32,
0x00,0x9b,0x3c,0x4c,0x04,0x99,0x2a,0x00,0x10,0x9b,0x39,0x00,0x1c,0x99,0x2a,0x32,
0x00,0x99,0x3d,0x2a,0x04,0x99,0x2a,0x00,0x00,0x99,0x3d,0x00,0x2c,0x99,0x2a,0x37,
0x00,0x9b,0x39,0x4c,0x04,0x99,0x2a,0x00,0x25,0xb3,0x01,0x01,0x07,0x99,0x2a,0x2a,
0x04,0x99,0x2a,0x00,0x14,0x9b,0x35,0x00,0x01,0xb3,0x01,0x0b,0x16,0xb3,0x01,0x1b,
0x01,0x99,0x2a,0x2e,0x00,0x9b,0x35,0x53,0x04,0x99,0x2a,0x00,0x02,0x9b,0x29,0x00,
0x0b,0xb3,0x01,0x2c,0x1b,0x97,0x45,0x66,0x04,0x99,0x2a,0x32,0x00,0x99,0x3c,0x38,
0x04,0x99,0x2a,0x00,0x00,0x99,0x3c,0x00,0x05,0xb3,0x01,0x00,0x0b,0x97,0x45,0x00,
0x15,0x93,0x45,0x00,0x06,0x93,0x45,0x2e,0x01,0x99,0x26,0x68,0x00,0x99,0x2a,0x46,
0x00,0x9b,0x34,0x53,0x04,0x99,0x26,0x00,0x00,0x99,0x2a,0x00,0x00,0x97,0x4f,0x66,
0x02,0x9b,0x35,0x00,0x10,0xe7,0x1e,0x4b,0x08,0xe7,0x14,0x58,0x0a,0xe7,0x74,0x5e,
0x08,0x99,0x2a,0x3a,0x00,0xe7,0x2b,0x67,0x00,0x99,0x4b,0x5a,0x04,0x99,0x2a,0x00,
0x00,0x99,0x4b,0x00,0x04,0xe7,0x52,0x6e,0x0a,0xe7,0x31,0x75,0x08,0xe7,0x10,0x7c,
0x08,0xe7,0x7f,0x7f,0x0e,0x99,0x2a,0x38,0x00,0x9b,0x30,0x4c,0x00,0x99,0x3d,0x3c,
0x01,0x98,0x4c,0x00,0x02,0x93,0x45,0x00,0x00,0x93,0x47,0x60,0x01,0x99,0x2a,0x00,
0x00,0x99,0x3d,0x00,0x0c,0x9b,0x34,0x00,0x20,0x99,0x2a,0x32,0x04,0x99,0x2a,0x00,
0x01,0x91,0x1d,0x00,0x05,0x9b,0x3c,0x00,0x02,0x9b,0x39,0x00,0x04,0x9b,0x30,0x00,
0x00,0x97,0x4f,0x00,0x02,0x9b,0x40,0x00,0x0e,0xe7,0x39,0x71,0x01,0x95,0x45,0x00,
0x07,0xe7,0x6c,0x59,0x01,0x95,0x35,0x00,0x00,0x95,0x3c,0x00,0x00,0x95,0x40,0x00,
0x02,0x95,0x39,0x48,0x00,0x95,0x3c,0x40,0x00,0x95,0x40,0x44,0x02,0x91,0x21,0x56,
0x03,0xe7,0x00,0x40,0x00,0x99,0x23,0x6c,0x00,0x99,0x2a,0x38,0x00,0x9b,0x39,0x4e,
0x02,0x97,0x4f,0x66,0x01,0x93,0x47,0x00,0x01,0x99,0x23,0x00,0x00,0x99,0x2a,0x00,
0x01,0x98,0x45,0x4c,0x00,0x93,0x48,0x52,0x07,0xe7,0x57,0x41,0x08,0xe7,0x66,0x4b,
0x0a,0xe7,0x4b,0x60,0x08,0xe7,0x0a,0x6e,0x08,0xe7,0x18,0x78,0x02,0x99,0x2a,0x2a,
0x04,0x99,0x2a,0x00,0x01,0x91,0x21,0x00,0x03,0xe7,0x7f,0x7f,0x25,0x91,0x21,0x66,
0x03,0x99,0x23,0x6c,0x00,0x99,0x2a,0x2e,0x00,0x9b,0x3c,0x46,0x04,0x99,0x23,0x00,
0x00,0x99,0x2a,0x00,0x2c,0x99,0x2a,0x2e,0x04,0x99,0x2a,0x00,0x2c,0x99,0x2a,0x46,
0x00,0x9b,0x40,0x57,0x03,0x93,0x48,0x00,0x01,0x99,0x2a,0x00,0x01,0x93,0x47,0x4e,
0x19,0xb7,0x01,0x02,0x12,0x99,0x2a,0x38,0x00,0x99,0x3c,0x3c,0x04,0xb7,0x01,0x0e,
0x00,0x99,0x2a,0x00,0x00,0x99,0x3c,0x00,0x14,0xb7,0x01,0x1a,0x18,0x99,0x2a,0x32,
0x00,0x9b,0x45,0x53,0x04,0xb7,0x01,0x25,0x00,0x99,0x2a,0x00,0x03,0x93,0x45,0x44,
0x00,0x93,0x47,0x00,0x1b,0xb7,0x01,0x30,0x0e,0x99,0x2a,0x32,0x00,0x99,0x3d,0x2a,
0x04,0x99,0x2a,0x00,0x00,0x99,0x3d,0x00,0x04,0xb7,0x01,0x24,0x08,0x9b,0x45,0x00,
0x0d,0x91,0x21,0x00,0x01,0xb7,0x01,0x18,0x0c,0x95,0x39,0x00,0x01,0x95,0x38,0x4c,
0x02,0x91,0x20,0x5a,0x01,0x9b,0x40,0x00,0x02,0xb7,0x01,0x07,0x00,0x99,0x2a,0x37,
0x00,0x9b,0x38,0x46,0x00,0x9b,0x39,0x00,0x02,0x9b,0x47,0x57,0x01,0x98,0x45,0x00,
0x01,0x99,0x2a,0x00,0x01,0x98,0x47,0x5a,0x04,0x93,0x45,0x00,0x00,0x93,0x47,0x46,
0x07,0x97,0x4f,0x00,0x00,0xb7,0x01,0x00,0x18,0xe7,0x50,0x77,0x08,0x99,0x2a,0x2a,
0x00,0xe7,0x4a,0x69,0x04,0x99,0x2a,0x00,0x06,0x9b,0x3c,0x00,0x00,0xe7,0x3e,0x4d,
0x08,0xe7,0x00,0x40,0x1e,0x99,0x2a,0x2e,0x00,0x9b,0x3c,0x53,0x04,0x99,0x2a,0x00,
0x1c,0xe7,0x7d,0x51,0x08,0xe7,0x33,0x63,0x08,0xe7,0x01,0x72,0x00,0x99,0x2a,0x32,
0x00,0x99,0x3c,0x38,0x04,0x99,0x2a,0x00,0x00,0x99,0x3c,0x00,0x06,0xe7,0x7f,0x7f,
0x13,0xb3,0x01,0x02,0x0d,0x9b,0x47,0x00,0x06,0x99,0x2a,0x46,0x00,0x9b,0x40,0x57,
0x03,0xb3,0x01,0x16,0x01,0x99,0x2a,0x00,0x00,0x97,0x4f,0x72,0x0f,0xb3,0x01,0x25,
0x12,0xb3,0x01,0x38,0x03,0xe7,0x09,0x77,0x08,0x99,0x2a,0x3a,0x00,0x99,0x4b,0x5a,
0x02,0xe7,0x00,0x40,0x02,0x99,0x2a,0x00,0x00,0x99,0x4b,0x00,0x03,0xb3,0x01,0x38,
0x12,0xb3,0x01,0x00,0x13,0x97,0x4f,0x00,0x04,0x99,0x2a,0x38,0x00,0x99,0x3d,0x3c,
0x00,0x9b,0x47,0x4e,0x01,0x93,0x45,0x4e,0x00,0x93,0x47,0x00,0x03,0x99,0x2a,0x00,
0x00,0x99,0x3d,0x00,0x00,0x97,0x4c,0x72,0x25,0x91,0x20,0x00,0x05,0x97,0x4c,0x00,
0x02,0x99,0x2a,0x32,0x01,0x93,0x47,0x52,0x01,0x97,0x4a,0x6c,0x02,0x99,0x2a,0x00,
0x01,0x93,0x45,0x00,0x13,0x9b,0x47,0x00,0x04,0x9b,0x38,0x00,0x06,0x9b,0x3c,0x00,
0x00,0x9b,0x40,0x00,0x08,0x95,0x38,0x00,0x01,0x95,0x37,0x56,0x02,0x91,0x1f,0x5a,
0x03,0x99,0x23,0x6c,0x00,0x99,0x2a,0x38,0x00,0x9b,0x37,0x48,0x02,0x9b,0x48,0x53,
0x01,0x98,0x47,0x00,0x01,0x99,0x23,0x00,0x00,0x99,0x2a,0x00,0x01,0x98,0x48,0x44,
0x05,0xe7,0x77,0x43,0x01,0x93,0x47,0x00,0x08,0x93,0x48,0x60,0x01,0xe7,0x11,0x73,
0x08,0xe7,0x7f,0x7f,0x0b,0x91,0x1f,0x00,0x09,0x99,0x2a,0x2a,0x04,0x99,0x2a,0x00,
0x08,0xe7,0x53,0x65,0x08,0xe7,0x00,0x40,0x19,0x91,0x1f,0x5a,0x03,0x99,0x23,0x6c,
0x00,0x99,0x2a,0x2e,0x00,0x9b,0x40,0x57,0x00,0x97,0x4a,0x00,0x04,0x99,0x23,0x00,
0x00,0x99,0x2a,0x00,0x05,0xe3,0x04,0x3d,0x03,0x97,0x48,0x6c,0x05,0xe3,0x76,0x35,
0x0a,0xe3,0x25,0x28,0x08,0xe3,0x50,0x1d,0x08,0xe3,0x25,0x18,0x05,0x99,0x2a,0x2e,
0x00,0x97,0x48,0x00,0x04,0x99,0x2a,0x00,0x01,0xe3,0x47,0x23,0x02,0x93,0x48,0x00,
0x01,0x97,0x45,0x4c,0x05,0xe3,0x00,0x40,0x02,0x93,0x4a,0x5c,0x0b,0x97,0x45,0x00,
0x16,0x99,0x2a,0x46,0x00,0x9b,0x43,0x4c,0x04,0x99,0x2a,0x00,0x00,0x9b,0x40,0x00,
0x08,0x97,0x48,0x72,0x24,0x99,0x2a,0x38,0x00,0x99,0x3c,0x3c,0x04,0x99,0x2a,0x00,
0x00,0x99,0x3c,0x00,0x03,0xe3,0x12,0x34,0x01,0x97,0x47,0x6c,0x00,0x97,0x48,0x00,
0x02,0x9b,0x48,0x00,0x05,0xe3,0x5a,0x27,0x0a,0xe3,0x4b,0x20,0x08,0xe3,0x2f,0x22,
0x08,0xe3,0x00,0x40,0x04,0x93,0x4a,0x00,0x03,0x99,0x2a,0x32,0x00,0x9b,0x48,0x4c,
0x01,0x93,0x48,0x4e,0x03,0x99,0x2a,0x00,0x06,0x97,0x47,0x00,0x02,0x97,0x45,0x4c,
0x20,0x97,0x45,0x00,0x04,0x99,0x2a,0x32,0x00,0x99,0x3d,0x2a,0x04,0x99,0x2a,0x00,
0x00,0x99,0x3d,0x00,0x06,0x9b,0x48,0x00,0x04,0x97,0x48,0x72,0x0a,0x9b,0x43,0x00,
0x12,0x95,0x37,0x00,0x01,0x95,0x36,0x3c,0x00,0x95,0x39,0x50,0x00,0x93,0x48,0x00,
0x02,0x91,0x26,0x40,0x01,0x9b,0x37,0x00,0x01,0x93,0x47,0x5c,0x01,0x99,0x2a,0x37,
0x00,0x9b,0x36,0x39,0x02,0x9b,0x42,0x5d,0x01,0x98,0x48,0x00,0x01,0x99,0x2a,0x00,
0x01,0x91,0x1f,0x00,0x00,0x98,0x4a,0x4c,0x05,0x97,0x48,0x00,0x02,0x97,0x47,0x6c,
0x24,0x99,0x2a,0x2a,0x04,0x99,0x2a,0x00,0x06,0x97,0x47,0x00,0x04,0x97,0x45,0x5a,
0x22,0x99,0x2a,0x2e,0x00,0x9b,0x3e,0x4c,0x04,0x99,0x2a,0x00,0x05,0x93,0x47,0x00,
0x01,0x97,0x45,0x00,0x03,0x93,0x45,0x44,0x01,0x97,0x43,0x66,0x22,0x99,0x2a,0x32,
0x00,0x99,0x3c,0x38,0x04,0x99,0x2a,0x00,0x00,0x99,0x3c,0x00,0x2c,0x99,0x2a,0x46,
0x00,0x9b,0x39,0x40,0x04,0x99,0x2a,0x00,0x06,0x9b,0x3e,0x00,0x04,0x97,0x43,0x00,
0x00,0x97,0x45,0x66,0x22,0x99,0x2a,0x3a,0x00,0x99,0x4b,0x5a,0x04,0x99,0x2a,0x00,
0x00,0x99,0x4b,0x00,0x12,0xb7,0x01,0x02,0x12,0xb7,0x01,0x2a,0x08,0x99,0x2a,0x38,
0x00,0x99,0x3d,0x3c,0x00,0x9b,0x3e,0x46,0x04,0x99,0x2a,0x00,0x00,0x99,0x3d,0x00,
0x06,0xb7,0x01,0x56,0x03,0x93,0x45,0x00,0x02,0x93,0x48,0x42,0x0b,0xb7,0x01,0x7f,
0x16,0x99,0x2a,0x32,0x00,0x9b,0x42,0x00,0x04,0x99,0x2a,0x00,0x00,0x97,0x45,0x00,
0x02,0x9b,0x36,0x00,0x00,0x9b,0x39,0x00,0x04,0x9b,0x3e,0x00,0x05,0x93,0x4a,0x52,
0x03,0xb7,0x01,0x00,0x03,0x93,0x48,0x00,0x0a,0x91,0x26,0x00,0x0a,0x95,0x40,0x00,
0x01,0x95,0x36,0x00,0x00,0x95,0x39,0x00,0x01,0x95,0x35,0x40,0x00,0x95,0x39,0x3c,
0x00,0x95,0x40,0x40,0x02,0x91,0x1d,0x6c,0x02,0x93,0x4a,0x00,0x01,0x99,0x23,0x6c,
0x00,0x9b,0x29,0x4e,0x00,0x99,0x2a,0x38,0x02,0x9b,0x35,0x48,0x01,0x98,0x4a,0x00,
0x01,0x99,0x23,0x00,0x00,0x99,0x2a,0x00,0x00,0x9b,0x39,0x40,0x01,0x93,0x4a,0x64,
0x01,0x9b,0x40,0x53,0x05,0xe3,0x6c,0x59,0x08,0x91,0x1d,0x00,0x00,0xe3,0x5a,0x6a,
0x0a,0xe3,0x48,0x7b,0x08,0xe3,0x7f,0x7f,0x0b,0x99,0x2a,0x2a,0x04,0x99,0x2a,0x00,
0x29,0x91,0x1d,0x6c,0x03,0x99,0x23,0x6c,0x00,0x99,0x2a,0x2e,0x00,0x9b,0x3c,0x4c,
0x04,0x99,0x23,0x00,0x00,0x99,0x2a,0x00,0x26,0x9b,0x39,0x00,0x06,0x99,0x2a,0x2e,
0x04,0x99,0x2a,0x00,0x0f,0xe3,0x61,0x6f,0x0a,0xe3,0x00,0x40,0x13,0x99,0x2a,0x46,
0x00,0x9b,0x39,0x4c,0x04,0x99,0x2a,0x00,0x2c,0x99,0x2a,0x38,0x00,0x99,0x3c,0x3c,
0x04,0x99,0x2a,0x00,0x00,0x99,0x3c,0x00,0x16,0x9b,0x40,0x00,0x11,0x93,0x4a,0x00,
0x04,0x93,0x48,0x46,0x01,0x99,0x2a,0x32,0x00,0x9b,0x40,0x48,0x04,0x99,0x2a,0x00,
0x2c,0x99,0x2a,0x32,0x00,0x99,0x3d,0x2a,0x04,0x99,0x2a,0x00,0x00,0x99,0x3d,0x00,
0x2c,0x99,0x2a,0x37,0x01,0x93,0x48,0x00,0x02,0x93,0x4a,0x60,0x01,0x99,0x2a,0x00,
0x15,0xe3,0x6f,0x47,0x0a,0xe3,0x54,0x5c,0x08,0xe3,0x72,0x67,0x05,0x99,0x2a,0x2a,
0x03,0xe3,0x0a,0x6e,0x01,0x99,0x2a,0x00,0x09,0xe3,0x31,0x75,0x08,0xe3,0x00,0x7b,
0x08,0xe3,0x7f,0x7f,0x05,0x9b,0x40,0x00,0x0e,0x99,0x2a,0x2e,0x00,0x9b,0x40,0x4e,
0x04,0x99,0x2a,0x00,0x0c,0x9b,0x3c,0x00,0x13,0x93,0x4a,0x00,0x0d,0x99,0x2a,0x32,
0x00,0x99,0x3c,0x38,0x04,0x99,0x2a,0x00,0x00,0x99,0x3c,0x00,0x01,0xe3,0x0c,0x5c,
0x02,0x93,0x4a,0x52,0x06,0xe3,0x00,0x40,0x23,0x99,0x2a,0x46,0x00,0x9b,0x3c,0x4e,
0x04,0x99,0x2a,0x00,0x2c,0x99,0x2a,0x3a,0x00,0x99,0x4b,0x5a,0x04,0x99,0x2a,0x00,
0x00,0x9b,0x39,0x00,0x00,0x99,0x4b,0x00,0x2b,0x93,0x43,0x52,0x01,0x99,0x2a,0x38,
0x00,0x9b,0x39,0x40,0x00,0x99,0x3d,0x3c,0x03,0x93,0x4a,0x00,0x01,0x99,0x2a,0x00,
0x00,0x99,0x3d,0x00,0x27,0x91,0x1d,0x00,0x05,0x99,0x23,0x56,0x00,0x99,0x2a,0x32,
0x04,0x99,0x23,0x00,0x00,0x99,0x2a,0x00,0x06,0x9b,0x29,0x00,0x08,0x9b,0x35,0x00,
0x00,0x9b,0x39,0x00,0x00,0x9b,0x3c,0x00,0x02,0x9b,0x40,0x00,0x05,0x93,0x43,0x00,
0x10,0x95,0x35,0x00,0x00,0x95,0x39,0x00,0x00,0x95,0x3c,0x00,0x00,0x95,0x40,0x00,
0x02,0x95,0x37,0x56,0x00,0x95,0x3b,0x56,0x00,0x93,0x43,0x56,0x02,0x91,0x23,0x4c,
0x03,0x99,0x23,0x6c,0x00,0x99,0x2a,0x38,0x00,0x9b,0x2f,0x5d,0x02,0x9b,0x37,0x62,
0x02,0x99,0x23,0x00,0x00,0x99,0x2a,0x00,0x00,0x9b,0x3b,0x5d,0x2c,0x99,0x2a,0x2a,
0x04,0x99,0x2a,0x00,0x03,0x95,0x37,0x00,0x06,0x95,0x3b,0x00,0x01,0x9b,0x37,0x00,
0x10,0x9b,0x3b,0x00,0x07,0x91,0x23,0x00,0x06,0x95,0x39,0x2a,0x00,0x95,0x3c,0x36,
0x00,0x95,0x40,0x48,0x02,0x91,0x21,0x56,0x03,0x99,0x23,0x6c,0x00,0x99,0x2a,0x2e,
0x00,0x9b,0x2d,0x4e,0x00,0x9b,0x2f,0x00,0x01,0x93,0x45,0x4e,0x01,0x9b,0x34,0x3d,
0x01,0x93,0x43,0x00,0x01,0x99,0x23,0x00,0x00,0x99,0x2a,0x00,0x00,0x9b,0x39,0x3d,
0x0b,0x95,0x3c,0x00,0x04,0x91,0x21,0x00,0x04,0x95,0x39,0x00,0x01,0x9b,0x39,0x00,
0x02,0x9b,0x2d,0x00,0x01,0x95,0x40,0x00,0x03,0x9b,0x34,0x00,0x12,0x99,0x2a,0x2e,
0x04,0x99,0x2a,0x00,0x27,0x95,0x39,0x34,0x00,0x95,0x3c,0x3c,0x00,0x95,0x40,0x50,
0x02,0x91,0x21,0x5e,0x03,0x99,0x23,0x62,0x00,0x99,0x2a,0x46,0x00,0x9b,0x2d,0x57,
0x02,0x9b,0x34,0x57,0x02,0x99,0x23,0x00,0x00,0x99,0x2a,0x00,0x00,0x9b,0x39,0x57,
0x02,0x9b,0x3c,0x57,0x00,0x97,0x51,0x6c,0x2a,0x99,0x2a,0x38,0x00,0x99,0x3c,0x3c,
0x04,0x99,0x2a,0x00,0x00,0x99,0x3c,0x00,0x1c,0x97,0x51,0x00,0x10,0x99,0x2a,0x32,
0x04,0x99,0x2a,0x00,0x02,0x97,0x53,0x78,0x05,0xb3,0x01,0x07,0x10,0xb3,0x01,0x11,
0x15,0x99,0x2a,0x32,0x00,0x99,0x3d,0x2a,0x01,0xb3,0x01,0x1b,0x01,0x97,0x53,0x00,
0x02,0x99,0x2a,0x00,0x00,0x99,0x3d,0x00,0x19,0xb3,0x01,0x2c,0x04,0x93,0x45,0x00,
0x0f,0x99,0x2a,0x37,0x04,0x99,0x2a,0x00,0x00,0xe7,0x56,0x4a,0x03,0xb3,0x01,0x20,
0x01,0x97,0x53,0x72,0x06,0xe7,0x24,0x59,0x08,0xe7,0x74,0x5e,0x01,0xb3,0x01,0x00,
0x0d,0xe7,0x1c,0x5d,0x08,0xe7,0x14,0x58,0x04,0x99,0x2a,0x2a,0x04,0x99,0x2a,0x00,
0x02,0xe7,0x66,0x4b,0x08,0xe7,0x00,0x40,0x0e,0x9b,0x2d,0x00,0x12,0x97,0x53,0x00,
0x02,0x99,0x2a,0x2e,0x00,0x9b,0x2d,0x4e,0x04,0x99,0x2a,0x00,0x02,0x97,0x51,0x6c,
0x18,0x9b,0x34,0x00,0x12,0x99,0x2a,0x32,0x00,0x99,0x3c,0x38,0x02,0x97,0x51,0x00,
0x02,0x99,0x2a,0x00,0x00,0x99,0x3c,0x00,0x04,0x97,0x4c,0x62,0x28,0x99,0x26,0x68,
0x00,0x99,0x2a,0x46,0x00,0x9b,0x35,0x57,0x00,0x92,0x43,0x6c,0x00,0x92,0x4f,0x72,
0x04,0x99,0x26,0x00,0x00,0x99,0x2a,0x00,0x02,0x97,0x4c,0x00,0x06,0x97,0x4f,0x6c,
0x08,0x9b,0x39,0x00,0x1c,0x99,0x2a,0x3a,0x00,0x99,0x4b,0x5a,0x04,0x99,0x2a,0x00,
0x00,0x99,0x4b,0x00,0x20,0x9b,0x3c,0x00,0x07,0x91,0x21,0x00,0x05,0x99,0x2a,0x38,
0x00,0x9b,0x34,0x57,0x00,0x9b,0x35,0x00,0x00,0x99,0x3d,0x3c,0x02,0xb7,0x01,0x20,
0x02,0x99,0x2a,0x00,0x00,0x99,0x3d,0x00,0x08,0x92,0x43,0x00,0x00,0x92,0x4f,0x00,
0x08,0xb7,0x01,0x49,0x10,0xb7,0x01,0x64,0x08,0x97,0x4f,0x00,0x03,0x95,0x3c,0x00,
0x01,0x99,0x2a,0x32,0x01,0x95,0x39,0x00,0x02,0x95,0x40,0x00,0x01,0x99,0x2a,0x00,
0x00,0x9b,0x34,0x00,0x06,0xb7,0x01,0x00,0x02,0x9b,0x2d,0x00,0x1f,0x95,0x39,0x38,
0x00,0x95,0x40,0x3e,0x02,0x91,0x21,0x6c,0x03,0x99,0x23,0x72,0x00,0x94,0x2d,0x57,
0x00,0x99,0x31,0x3b,0x00,0x9a,0x43,0x6c,0x01,0x9a,0x40,0x6c,0x01,0x9a,0x3c,0x5e,
0x00,0x94,0x3c,0x57,0x01,0x9a,0x39,0x5a,0x01,0x99,0x23,0x00,0x00,0x99,0x31,0x00,
0x00,0x94,0x40,0x5d,0x01,0x98,0x3c,0x56,0x01,0x94,0x43,0x53,0x2a,0x99,0x2a,0x25,
0x04,0x99,0x2a,0x00,0x1e,0x94,0x2d,0x00,0x04,0x9a,0x3c,0x00,0x03,0x9a,0x39,0x00,
0x07,0x99,0x2a,0x32,0x04,0x99,0x2a,0x00,0x25,0x9a,0x40,0x00,0x01,0x94,0x3c,0x00,
0x04,0x94,0x43,0x00,0x02,0x99,0x2a,0x3c,0x00,0x94,0x2d,0x4e,0x00,0x9a,0x3c,0x5e,
0x00,0x9a,0x43,0x00,0x01,0x9a,0x39,0x56,0x03,0x99,0x2a,0x00,0x02,0x94,0x40,0x00,
0x2a,0x99,0x26,0x70,0x00,0x99,0x2a,0x46,0x00,0x94,0x3c,0x40,0x00,0x9a,0x43,0x66,
0x01,0x9a,0x40,0x66,0x01,0x94,0x40,0x4c,0x02,0x99,0x26,0x00,0x00,0x99,0x2a,0x00,
0x00,0x94,0x43,0x48,0x2c,0x99,0x2a,0x38,0x04,0x99,0x2a,0x00,0x15,0x9a,0x39,0x00,
0x00,0x9a,0x40,0x00,0x01,0x9a,0x3c,0x00,0x00,0x94,0x3c,0x00,0x02,0x9a,0x43,0x00,
0x02,0x94,0x40,0x00,0x00,0x94,0x43,0x00,0x12,0x99,0x2a,0x3c,0x00,0x94,0x3c,0x53,
0x00,0x9a,0x43,0x6c,0x01,0x9a,0x40,0x66,0x01,0x9a,0x3c,0x62,0x00,0x94,0x40,0x62,
0x01,0x91,0x21,0x00,0x00,0x9a,0x39,0x50,0x01,0x99,0x2a,0x00,0x00,0x94,0x43,0x57,
0x29,0x91,0x21,0x44,0x03,0x99,0x2a,0x37,0x04,0x99,0x2a,0x00,0x03,0x91,0x21,0x00,
0x26,0x91,0x21,0x6c,0x03,0x99,0x23,0x78,0x00,0x99,0x2a,0x46,0x04,0x99,0x23,0x00,
0x00,0x99,0x2a,0x00,0x18,0x9a,0x3c,0x00,0x01,0x9a,0x39,0x00,0x00,0x9a,0x40,0x00,
0x01,0x94,0x3c,0x00,0x00,0x94,0x40,0x00,0x02,0x9a,0x43,0x00,0x02,0x94,0x43,0x00,
0x04,0x94,0x2d,0x00,0x0a,0x99,0x2a,0x3c,0x04,0x99,0x2a,0x00,0x2c,0x99,0x2a,0x3c,
0x00,0x94,0x2d,0x4c,0x00,0x9a,0x43,0x66,0x01,0x9a,0x40,0x72,0x01,0x9a,0x3c,0x6c,
0x00,0x94,0x3c,0x53,0x01,0x9a,0x39,0x56,0x01,0x99,0x2a,0x00,0x00,0x94,0x40,0x62,
0x2c,0x99,0x2a,0x3c,0x04,0x99,0x2a,0x00,0x2c,0x99,0x26,0x72,0x00,0x99,0x2a,0x46,
0x04,0x99,0x26,0x00,0x00,0x99,0x2a,0x00,0x0a,0x9a,0x3c,0x00,0x05,0x9a,0x39,0x00,
0x00,0x9a,0x40,0x00,0x01,0x9a,0x43,0x00,0x08,0x94,0x2d,0x00,0x09,0x91,0x21,0x00,
0x0b,0x99,0x2a,0x38,0x00,0x94,0x3c,0x00,0x02,0x94,0x40,0x00,0x02,0x99,0x2a,0x00,
0x29,0x91,0x21,0x6c,0x03,0x99,0x2a,0x36,0x00,0x94,0x32,0x57,0x00,0x9a,0x42,0x72,
0x01,0x9a,0x3e,0x66,0x01,0x94,0x3c,0x53,0x02,0x99,0x2a,0x00,0x00,0x94,0x42,0x4e,
0x02,0x94,0x45,0x4e,0x0d,0x91,0x21,0x00,0x1d,0x99,0x23,0x6e,0x00,0x99,0x2a,0x3b,
0x04,0x99,0x23,0x00,0x00,0x99,0x2a,0x00,0x25,0x95,0x39,0x00,0x00,0x95,0x40,0x00,
0x02,0x95,0x39,0x3e,0x00,0x95,0x3e,0x4c,0x02,0x91,0x26,0x72,0x03,0x99,0x23,0x78,
0x00,0x99,0x2a,0x46,0x00,0x9a,0x39,0x5e,0x04,0x99,0x23,0x00,0x00,0x99,0x2a,0x00,
0x2c,0x99,0x2a,0x25,0x04,0x99,0x2a,0x00,0x1a,0x94,0x3c,0x00,0x12,0x99,0x2a,0x32,
0x00,0x94,0x3c,0x3d,0x04,0x99,0x2a,0x00,0x2c,0x99,0x2a,0x3c,0x04,0x99,0x2a,0x00,
0x18,0x9a,0x42,0x00,0x03,0x9a,0x3e,0x00,0x0b,0x94,0x3c,0x00,0x00,0x94,0x42,0x00,
0x02,0x94,0x45,0x00,0x04,0x99,0x26,0x70,0x00,0x99,0x2a,0x46,0x00,0x94,0x3c,0x48,
0x00,0x9a,0x42,0x62,0x01,0x9a,0x3e,0x5a,0x01,0x94,0x42,0x53,0x02,0x99,0x26,0x00,
0x00,0x99,0x2a,0x00,0x00,0x94,0x45,0x4e,0x2c,0x99,0x2a,0x38,0x04,0x99,0x2a,0x00,
0x2c,0x99,0x2a,0x3c,0x01,0x91,0x26,0x00,0x03,0x99,0x2a,0x00,0x06,0x9a,0x39,0x00,
0x0c,0x94,0x32,0x00,0x17,0x91,0x26,0x62,0x03,0x99,0x2a,0x37,0x00,0x94,0x32,0x2c,
0x00,0x9a,0x39,0x38,0x04,0x99,0x2a,0x00,0x07,0x91,0x26,0x00,0x05,0x94,0x3c,0x00,
0x00,0x9a,0x42,0x00,0x03,0x9a,0x3e,0x00,0x01,0x94,0x42,0x00,0x00,0x94,0x45,0x00,
0x19,0x91,0x26,0x72,0x03,0x99,0x23,0x78,0x00,0x99,0x2a,0x46,0x00,0x9a,0x39,0x00,
0x00,0x94,0x3c,0x40,0x00,0x9a,0x42,0x48,0x01,0x9a,0x3e,0x48,0x01,0x94,0x42,0x3d,
0x02,0x99,0x23,0x00,0x00,0x99,0x2a,0x00,0x00,0x94,0x45,0x4c,0x0c,0x94,0x32,0x00,
0x20,0x99,0x2a,0x3c,0x00,0x94,0x32,0x48,0x00,0x9a,0x39,0x3e,0x04,0x99,0x2a,0x00,
0x2c,0x99,0x2a,0x3c,0x04,0x99,0x2a,0x00,0x01,0x98,0x3b,0x3e,0x04,0x98,0x3c,0x00,
0x27,0x99,0x2a,0x3c,0x04,0x99,0x2a,0x00,0x01,0x98,0x3c,0x48,0x02,0x98,0x3b,0x00,
0x13,0x94,0x3c,0x00,0x02,0x94,0x45,0x00,0x01,0x9a,0x3e,0x00,0x01,0x9a,0x42,0x00,
0x00,0x94,0x42,0x00,0x12,0x99,0x26,0x72,0x00,0x99,0x2a,0x46,0x00,0x94,0x3c,0x46,
0x00,0x9a,0x42,0x62,0x01,0x9a,0x3e,0x5e,0x01,0x94,0x42,0x46,0x02,0x99,0x26,0x00,
0x00,0x99,0x2a,0x00,0x00,0x97,0x45,0x6c,0x00,0x94,0x45,0x48,0x01,0x98,0x3b,0x6c,
0x04,0x98,0x3c,0x00,0x19,0x9a,0x39,0x00,0x0c,0x97,0x45,0x00,0x02,0x99,0x2a,0x38,
0x00,0x94,0x32,0x00,0x02,0x97,0x48,0x72,0x02,0x99,0x2a,0x00,0x1f,0x91,0x26,0x00,
0x0a,0x91,0x1f,0x6c,0x03,0x99,0x23,0x4a,0x00,0x99,0x2a,0x36,0x00,0x94,0x32,0x35,
0x00,0x9a,0x39,0x44,0x00,0x97,0x48,0x00,0x02,0x97,0x4a,0x62,0x02,0x99,0x23,0x00,
0x00,0x99,0x2a,0x00,0x01,0x98,0x3c,0x5a,0x01,0x9a,0x42,0x00,0x01,0x98,0x3b,0x00,
0x08,0x9a,0x3e,0x00,0x09,0x94,0x3c,0x00,0x04,0x9a,0x39,0x00,0x02,0x94,0x45,0x00,
0x01,0x91,0x1f,0x00,0x05,0x94,0x42,0x00,0x02,0x94,0x32,0x00,0x06,0x97,0x4a,0x00,
0x01,0x91,0x20,0x5e,0x01,0x97,0x48,0x66,0x02,0x99,0x23,0x6e,0x00,0x99,0x2a,0x3b,
0x04,0x99,0x23,0x00,0x00,0x99,0x2a,0x00,0x01,0x98,0x3b,0x5e,0x0a,0x98,0x3c,0x00,
0x1a,0x95,0x39,0x00,0x00,0x95,0x3e,0x00,0x02,0x95,0x3c,0x48,0x00,0x95,0x40,0x44,
0x02,0x91,0x21,0x62,0x03,0x99,0x23,0x78,0x00,0x99,0x2a,0x46,0x00,0x94,0x2d,0x4e,
0x00,0x9a,0x43,0x62,0x01,0x9a,0x40,0x66,0x01,0x9a,0x3c,0x5e,0x00,0x94,0x3c,0x5d,
0x00,0x97,0x4a,0x72,0x01,0x9a,0x39,0x56,0x01,0x99,0x23,0x00,0x00,0x99,0x2a,0x00,
0x00,0x94,0x43,0x53,0x01,0x91,0x20,0x00,0x01,0xe7,0x47,0x40,0x02,0x97,0x48,0x00,
0x08,0xe7,0x14,0x58,0x08,0xe7,0x12,0x6a,0x08,0xe7,0x50,0x77,0x08,0x97,0x4a,0x00,
0x00,0xe7,0x7f,0x7f,0x08,0x99,0x2a,0x25,0x04,0x99,0x2a,0x00,0x01,0x98,0x39,0x5a,
0x08,0x98,0x3b,0x00,0x09,0xe7,0x29,0x70,0x0a,0xe7,0x76,0x4c,0x08,0xe7,0x00,0x40,
0x08,0x99,0x2a,0x32,0x04,0x99,0x2a,0x00,0x06,0x9a,0x3c,0x00,0x00,0x97,0x4a,0x6c,
0x01,0x9a,0x39,0x00,0x01,0xe7,0x1f,0x42,0x0a,0xe7,0x34,0x5a,0x08,0xe7,0x22,0x6b,
0x08,0xe7,0x50,0x77,0x08,0xe7,0x7f,0x7f,0x02,0x99,0x2a,0x3c,0x00,0x9a,0x3c,0x50,
0x00,0x94,0x40,0x46,0x01,0x9a,0x39,0x40,0x03,0x99,0x2a,0x00,0x07,0x9a,0x40,0x00,
0x0d,0x94,0x3c,0x00,0x00,0x9a,0x43,0x00,0x04,0x94,0x40,0x00,0x00,0x94,0x43,0x00,
0x06,0x94,0x2d,0x00,0x0e,0x99,0x26,0x70,0x00,0x99,0x2a,0x46,0x00,0x94,0x3c,0x40,
0x00,0x9a,0x43,0x3e,0x01,0x9a,0x40,0x50,0x01,0x94,0x40,0x3d,0x02,0x99,0x26,0x00,
0x00,0x99,0x2a,0x00,0x00,0x94,0x43,0x26,0x1e,0x94,0x3c,0x00,0x02,0x94,0x40,0x00,
0x0a,0x94,0x43,0x00,0x02,0x99,0x2a,0x38,0x00,0x94,0x2d,0x48,0x04,0x99,0x2a,0x00,
0x10,0x9a,0x43,0x00,0x03,0x9a,0x40,0x00,0x19,0x99,0x2a,0x3c,0x00,0x94,0x3c,0x53,
0x00,0x9a,0x43,0x6c,0x01,0x9a,0x40,0x6c,0x01,0x94,0x40,0x57,0x02,0x99,0x2a,0x00,
0x00,0x94,0x43,0x53,0x05,0x91,0x21,0x00,0x24,0x91,0x21,0x6c,0x03,0x99,0x23,0x5e,
0x00,0x99,0x2a,0x37,0x04,0x99,0x23,0x00,0x00,0x99,0x2a,0x00,0x07,0x91,0x21,0x00,
0x22,0x91,0x21,0x66,0x03,0x99,0x23,0x78,0x00,0x99,0x2a,0x46,0x04,0x99,0x23,0x00,
0x00,0x99,0x2a,0x00,0x10,0x9a,0x3c,0x00,0x01,0x9a,0x39,0x00,0x03,0x9a,0x43,0x00,
0x03,0x9a,0x40,0x00,0x0b,0x94,0x3c,0x00,0x02,0x94,0x40,0x00,0x01,0x98,0x39,0x00,
0x03,0x94,0x43,0x00,0x04,0x99,0x2a,0x3c,0x04,0x99,0x2a,0x00,0x00,0x94,0x2d,0x00,
0x28,0xe7,0x40,0x7f,0x04,0x99,0x2a,0x3c,0x00,0x94,0x2d,0x48,0x00,0x9a,0x40,0x78,
0x01,0x9a,0x3c,0x5e,0x01,0x9a,0x39,0x48,0x00,0x94,0x3c,0x53,0x00,0x97,0x4a,0x00,
0x02,0x99,0x2a,0x00,0x00,0xe7,0x2c,0x5e,0x00,0x94,0x40,0x5d,0x08,0xe7,0x00,0x40,
0x24,0x99,0x23,0x56,0x00,0x99,0x2a,0x3c,0x04,0x99,0x23,0x00,0x00,0x99,0x2a,0x00,
0x2c,0x99,0x26,0x72,0x00,0x99,0x2a,0x46,0x00,0x99,0x39,0x3e,0x02,0x97,0x4f,0x72,
0x02,0x99,0x26,0x00,0x00,0x99,0x2a,0x00,0x00,0x99,0x39,0x00,0x05,0x9a,0x3c,0x00,
0x03,0x9a,0x40,0x00,0x02,0x9a,0x39,0x00,0x00,0x94,0x3c,0x00,0x08,0x94,0x2d,0x00,
0x00,0x94,0x40,0x00,0x01,0x91,0x21,0x00,0x0e,0x95,0x3c,0x00,0x0b,0x99,0x2a,0x38,
0x04,0x99,0x2a,0x00,0x01,0x95,0x40,0x00,0x26,0x95,0x40,0x4c,0x00,0x95,0x43,0x3e,
0x01,0x97,0x4f,0x00,0x01,0x91,0x26,0x78,0x03,0x99,0x23,0x6c,0x00,0x99,0x2e,0x54,
0x00,0x94,0x32,0x57,0x00,0x9a,0x47,0x5e,0x00,0x9c,0x4c,0x5e,0x00,0x9c,0x4f,0x66,
0x00,0x9c,0x53,0x5a,0x01,0x9a,0x43,0x6c,0x01,0x9a,0x40,0x5e,0x00,0x94,0x40,0x57,
0x02,0x99,0x23,0x00,0x00,0x99,0x2e,0x00,0x00,0x94,0x43,0x57,0x02,0x94,0x47,0x4e,
0x06,0x97,0x4f,0x66,0x40,0x97,0x4f,0x00,0x16,0x97,0x4f,0x72,0x1a,0x9a,0x47,0x00,
0x04,0x9a,0x40,0x00,0x01,0x9a,0x43,0x00,0x07,0x97,0x4f,0x00,0x02,0x9c,0x53,0x00,
0x04,0x9c,0x4f,0x00,0x02,0x94,0x32,0x00,0x00,0x9c,0x4c,0x00,0x02,0x97,0x4e,0x66,
0x02,0x94,0x40,0x00,0x02,0x94,0x47,0x00,0x02,0x94,0x43,0x00,0x15,0x95,0x43,0x00,
0x08,0x95,0x40,0x00,0x06,0x95,0x3e,0x5a,0x00,0x95,0x42,0x56,0x02,0x91,0x1a,0x6c,
0x00,0x91,0x26,0x00,0x03,0x99,0x23,0x6c,0x00,0x99,0x2e,0x49,0x00,0x94,0x32,0x4c,
0x00,0x9a,0x45,0x62,0x00,0x9c,0x4a,0x5a,0x00,0x9c,0x4e,0x62,0x00,0x9c,0x51,0x5a,
0x01,0x9a,0x42,0x72,0x01,0x9a,0x3e,0x6c,0x00,0x94,0x3e,0x4c,0x02,0x99,0x23,0x00,
0x00,0x99,0x2e,0x00,0x00,0x94,0x42,0x53,0x02,0x94,0x45,0x48,0x02,0x97,0x4e,0x00,
0x2a,0x97,0x4e,0x62,0x0e,0x97,0x4e,0x00,0x20,0x99,0x26,0x74,0x02,0x97,0x4e,0x78,
0x02,0x99,0x26,0x00,0x18,0x9a,0x45,0x00,0x05,0x9a,0x42,0x00,0x03,0x9a,0x3e,0x00,
0x0e,0x94,0x32,0x00,0x00,0x97,0x4c,0x6c,0x02,0x94,0x42,0x00,0x00,0x9c,0x4e,0x00,
0x02,0x94,0x3e,0x00,0x00,0x94,0x45,0x00,0x00,0x97,0x4e,0x00,0x04,0x9c,0x51,0x00,
0x04,0x9c,0x4a,0x00,0x0d,0x95,0x3e,0x00,0x04,0x95,0x42,0x00,0x05,0x97,0x4c,0x00,
0x05,0x91,0x1a,0x00,0x02,0x95,0x3c,0x3c,0x00,0x95,0x40,0x48,0x02,0x91,0x26,0x66,
0x03,0x99,0x23,0x78,0x00,0x99,0x2e,0x49,0x00,0x94,0x32,0x4c,0x00,0x9a,0x43,0x48,
0x00,0x9c,0x48,0x4c,0x00,0x9c,0x4c,0x5e,0x00,0x9c,0x4f,0x56,0x01,0x9a,0x40,0x6c,
0x01,0x9a,0x3c,0x56,0x00,0x94,0x3c,0x48,0x02,0x99,0x23,0x00,0x00,0x99,0x2e,0x00,
0x00,0x94,0x40,0x57,0x02,0x94,0x43,0x4c,0x2c,0x97,0x4c,0x6c,0x10,0x97,0x4c,0x00,
0x1e,0x99,0x26,0x74,0x00,0x99,0x2e,0x4f,0x02,0x97,0x4c,0x78,0x02,0x99,0x26,0x00,
0x00,0x99,0x2e,0x00,0x1c,0x9a,0x3c,0x00,0x02,0x9a,0x43,0x00,0x03,0x9a,0x40,0x00,
0x05,0x97,0x4c,0x00,0x08,0x97,0x4a,0x72,0x04,0x94,0x3c,0x00,0x02,0x94,0x32,0x00,
0x04,0x94,0x40,0x00,0x04,0x94,0x43,0x00,0x09,0x95,0x3c,0x00,0x05,0x9c,0x48,0x00,
0x08,0x9c,0x4f,0x00,0x02,0x9c,0x4c,0x00,0x01,0x91,0x26,0x00,0x02,0x95,0x3e,0x4c,
0x00,0x95,0x42,0x3e,0x01,0x97,0x4a,0x00,0x01,0x91,0x1a,0x5e,0x03,0x99,0x26,0x74,
0x00,0x94,0x32,0x53,0x00,0x9a,0x45,0x5a,0x00,0x9c,0x4a,0x5a,0x00,0x9c,0x4e,0x5e,
0x00,0x9c,0x51,0x50,0x01,0x9a,0x42,0x66,0x01,0x9a,0x3e,0x66,0x00,0x94,0x3e,0x4c,
0x02,0x99,0x26,0x00,0x00,0x94,0x42,0x53,0x02,0x94,0x45,0x4c,0x07,0x95,0x40,0x00,
0x25,0x97,0x48,0x6c,0x0e,0x97,0x48,0x00,0x20,0x99,0x2b,0x68,0x02,0x97,0x4a,0x7e,
0x02,0x99,0x2b,0x00,0x2c,0x99,0x29,0x68,0x04,0x99,0x29,0x00,0x08,0xe7,0x34,0x5a,
0x00,0x94,0x3e,0x00,0x06,0x9a,0x3e,0x00,0x02,0xe7,0x7f,0x7f,0x0c,0x97,0x4a,0x00,
0x01,0x91,0x1a,0x00,0x05,0xe7,0x00,0x40,0x07,0x91,0x26,0x5e,0x03,0x99,0x2d,0x64,
0x00,0x9a,0x3e,0x38,0x00,0x94,0x3e,0x2f,0x02,0x97,0x48,0x44,0x02,0x99,0x2d,0x00,
0x00,0x94,0x32,0x00,0x13,0x9a,0x42,0x00,0x03,0x9a,0x45,0x00,0x06,0x97,0x48,0x00,
0x01,0x95,0x3e,0x00,0x01,0x9a,0x3e,0x00,0x04,0x94,0x42,0x00,0x00,0x9c,0x51,0x00,
0x01,0x95,0x42,0x00,0x03,0x94,0x45,0x00,0x02,0x9c,0x4a,0x00,0x01,0x91,0x1a,0x5e,
0x00,0x91,0x26,0x00,0x03,0x99,0x29,0x6e,0x00,0x99,0x2b,0x50,0x00,0x94,0x32,0x4c,
0x00,0x9c,0x4e,0x00,0x02,0x97,0x45,0x62,0x02,0x99,0x29,0x00,0x00,0x99,0x2b,0x00,
0x00,0x94,0x3e,0x00,0x1c,0x94,0x32,0x00,0x01,0x91,0x1a,0x00,0x09,0x97,0x45,0x00,
0x01,0x95,0x39,0x38,0x00,0x95,0x40,0x3e,0x02,0x91,0x21,0x6c,0x03,0x99,0x23,0x68,
0x00,0x94,0x2d,0x57,0x00,0x99,0x31,0x3b,0x00,0x9a,0x43,0x6c,0x01,0x9a,0x40,0x6c,
0x01,0x9a,0x3c,0x5e,0x00,0x94,0x3c,0x57,0x00,0x97,0x48,0x72,0x01,0x9a,0x39,0x5a,
0x01,0x99,0x23,0x00,0x00,0x99,0x31,0x00,0x00,0x94,0x40,0x5d,0x01,0x98,0x3c,0x56,
0x01,0x94,0x43,0x53,0x2a,0x99,0x2a,0x25,0x04,0x99,0x2a,0x00,0x1e,0x94,0x2d,0x00,
0x04,0x9a,0x3c,0x00,0x03,0x9a,0x39,0x00,0x07,0x99,0x2a,0x32,0x04,0x99,0x2a,0x00,
0x02,0xb7,0x01,0x02,0x12,0xb7,0x01,0x1f,0x10,0xb7,0x01,0x3b,0x01,0x9a,0x40,0x00,
0x01,0x94,0x3c,0x00,0x04,0x94,0x43,0x00,0x02,0x99,0x2a,0x3c,0x00,0x94,0x2d,0x4e,
0x00,0x9a,0x3c,0x5e,0x00,0x9a,0x43,0x00,0x01,0x9a,0x39,0x56,0x03,0x99,0x2a,0x00,
0x02,0x94,0x40,0x00,0x04,0xb7,0x01,0x5b,0x10,0xb7,0x01,0x7f,0x08,0x97,0x48,0x00,
0x0e,0x9a,0x43,0x66,0x00,0xb7,0x01,0x00,0x00,0x99,0x26,0x70,0x00,0x99,0x2a,0x46,
0x00,0x94,0x3c,0x40,0x01,0x9a,0x40,0x66,0x01,0x94,0x40,0x4c,0x02,0x99,0x26,0x00,
0x00,0x99,0x2a,0x00,0x00,0x94,0x43,0x48,0x2c,0x99,0x2a,0x38,0x04,0x99,0x2a,0x00,
0x15,0x9a,0x39,0x00,0x00,0x9a,0x40,0x00,0x01,0x9a,0x3c,0x00,0x00,0x94,0x3c,0x00,
0x02,0x9a,0x43,0x00,0x02,0x94,0x40,0x00,0x00,0x94,0x43,0x00,0x12,0x99,0x2a,0x3c,
0x00,0x94,0x3c,0x53,0x00,0x9a,0x43,0x6c,0x01,0x9a,0x40,0x66,0x01,0x9a,0x3c,0x62,
0x00,0x94,0x40,0x62,0x01,0x91,0x21,0x00,0x00,0x9a,0x39,0x50,0x01,0x99,0x2a,0x00,
0x00,0x94,0x43,0x57,0x29,0x91,0x21,0x44,0x03,0x99,0x2a,0x37,0x04,0x99,0x2a,0x00,
0x03,0x91,0x21,0x00,0x26,0x91,0x21,0x6c,0x03,0x99,0x23,0x78,0x00,0x99,0x2a,0x46,
0x04,0x99,0x23,0x00,0x00,0x99,0x2a,0x00,0x18,0x9a,0x3c,0x00,0x01,0x9a,0x39,0x00,
0x00,0x9a,0x40,0x00,0x01,0x94,0x3c,0x00,0x00,0x94,0x40,0x00,0x02,0x9a,0x43,0x00,
0x02,0x94,0x43,0x00,0x04,0x94,0x2d,0x00,0x0a,0x99,0x2a,0x3c,0x04,0x99,0x2a,0x00,
0x2c,0x99,0x2a,0x3c,0x00,0x94,0x2d,0x4c,0x00,0x9a,0x43,0x66,0x01,0x9a,0x40,0x72,
0x01,0x9a,0x3c,0x6c,0x00,0x94,0x3c,0x53,0x01,0x9a,0x39,0x56,0x01,0x99,0x2a,0x00,
0x00,0x94,0x40,0x62,0x2c,0x99,0x2a,0x3c,0x04,0x99,0x2a,0x00,0x2c,0x99,0x26,0x72,
0x00,0x99,0x2a,0x46,0x04,0x99,0x26,0x00,0x00,0x99,0x2a,0x00,0x0a,0x9a,0x3c,0x00,
0x05,0x9a,0x39,0x00,0x00,0x9a,0x40,0x00,0x01,0x9a,0x43,0x00,0x08,0x94,0x2d,0x00,
0x09,0x91,0x21,0x00,0x0b,0x99,0x2a,0x38,0x00,0x94,0x3c,0x00,0x02,0x94,0x40,0x00,
0x02,0x99,0x2a,0x00,0x29,0x91,0x21,0x6c,0x03,0x99,0x2a,0x36,0x00,0x94,0x32,0x57,
0x00,0x9a,0x42,0x72,0x01,0x9a,0x3e,0x66,0x01,0x94,0x3c,0x53,0x02,0x99,0x2a,0x00,
0x00,0x94,0x42,0x4e,0x02,0x94,0x45,0x4e,0x0d,0x91,0x21,0x00,0x1d,0x99,0x23,0x6e,
0x00,0x99,0x2a,0x3b,0x04,0x99,0x23,0x00,0x00,0x99,0x2a,0x00,0x25,0x95,0x39,0x00,
0x00,0x95,0x40,0x00,0x02,0x95,0x39,0x3e,0x00,0x95,0x3e,0x4c,0x02,0x91,0x26,0x72,
0x03,0x99,0x23,0x78,0x00,0x99,0x2a,0x46,0x00,0x9a,0x39,0x5e,0x04,0x99,0x23,0x00,
0x00,0x99,0x2a,0x00,0x2c,0x99,0x2a,0x25,0x04,0x99,0x2a,0x00,0x1a,0x94,0x3c,0x00,
0x12,0x99,0x2a,0x32,0x00,0x94,0x3c,0x3d,0x04,0x99,0x2a,0x00,0x2c,0x99,0x2a,0x3c,
0x04,0x99,0x2a,0x00,0x18,0x9a,0x42,0x00,0x03,0x9a,0x3e,0x00,0x0b,0x94,0x3c,0x00,
0x00,0x94,0x42,0x00,0x02,0x94,0x45,0x00,0x04,0x99,0x26,0x70,0x00,0x99,0x2a,0x46,
0x00,0x94,0x3c,0x48,0x00,0x9a,0x42,0x62,0x01,0x9a,0x3e,0x5a,0x01,0x94,0x42,0x53,
0x02,0x99,0x26,0x00,0x00,0x99,0x2a,0x00,0x00,0x94,0x45,0x4e,0x2c,0x99,0x2a,0x38,
0x04,0x99,0x2a,0x00,0x2c,0x99,0x2a,0x3c,0x01,0x91,0x26,0x00,0x03,0x99,0x2a,0x00,
0x06,0x9a,0x39,0x00,0x0c,0x94,0x32,0x00,0x17,0x91,0x26,0x62,0x03,0x99,0x2a,0x37,
0x00,0x94,0x32,0x2c,0x00,0x9a,0x39,0x38,0x04,0x99,0x2a,0x00,0x07,0x91,0x26,0x00,
0x05,0x94,0x3c,0x00,0x00,0x9a,0x42,0x00,0x03,0x9a,0x3e,0x00,0x01,0x94,0x42,0x00,
0x00,0x94,0x45,0x00,0x19,0x91,0x26,0x72,0x03,0x99,0x23,0x78,0x00,0x99,0x2a,0x46,
0x00,0x9a,0x39,0x00,0x00,0x94,0x3c,0x40,0x00,0x9a,0x42,0x48,0x01,0x9a,0x3e,0x48,
0x01,0x94,0x42,0x3d,0x02,0x99,0x23,0x00,0x00,0x99,0x2a,0x00,0x00,0x94,0x45,0x4c,
0x0c,0x94,0x32,0x00,0x20,0x99,0x2a,0x3c,0x00,0x94,0x32,0x48,0x00,0x9a,0x39,0x3e,
0x04,0x99,0x2a,0x00,0x2c,0x99,0x2a,0x3c,0x04,0x99,0x2a,0x00,0x01,0x98,0x3b,0x3e,
0x04,0x98,0x3c,0x00,0x27,0x99,0x2a,0x3c,0x04,0x99,0x2a,0x00,0x01,0x98,0x3c,0x48,
0x02,0x98,0x3b,0x00,0x13,0x94,0x3c,0x00,0x02,0x94,0x45,0x00,0x01,0x9a,0x3e,0x00,
0x01,0x9a,0x42,0x00,0x00,0x94,0x42,0x00,0x12,0x99,0x26,0x72,0x00,0x99,0x2a,0x46,
0x00,0x94,0x3c,0x46,0x00,0x9a,0x42,0x62,0x01,0x9a,0x3e,0x5e,0x01,0x94,0x42,0x46,
0x02,0x99,0x26,0x00,0x00,0x99,0x2a,0x00,0x00,0x94,0x45,0x48,0x01,0x98,0x3b,0x6c,
0x04,0x98,0x3c,0x00,0x03,0x97,0x4f,0x6c,0x16,0x9a,0x39,0x00,0x0e,0x99,0x2a,0x38,
0x00,0x94,0x32,0x00,0x04,0x99,0x2a,0x00,0x1f,0x91,0x26,0x00,0x0a,0x91,0x1f,0x6c,
0x03,0x99,0x23,0x4a,0x00,0x99,0x2a,0x36,0x00,0x94,0x32,0x35,0x00,0x9a,0x39,0x44,
0x04,0x99,0x23,0x00,0x00,0x99,0x2a,0x00,0x01,0x98,0x3c,0x5a,0x01,0x9a,0x42,0x00,
0x00,0x97,0x4f,0x00,0x01,0x98,0x3b,0x00,0x07,0x97,0x51,0x72,0x01,0x9a,0x3e,0x00,
0x09,0x94,0x3c,0x00,0x04,0x9a,0x39,0x00,0x02,0x94,0x45,0x00,0x01,0x91,0x1f,0x00,
0x05,0x94,0x42,0x00,0x02,0x94,0x32,0x00,0x07,0x91,0x20,0x5e,0x03,0x99,0x23,0x6e,
0x00,0x99,0x2a,0x3b,0x04,0x99,0x23,0x00,0x00,0x99,0x2a,0x00,0x00,0x97,0x51,0x00,
0x01,0x98,0x3b,0x5e,0x0a,0x98,0x3c,0x00,0x1a,0x95,0x39,0x00,0x00,0x95,0x3e,0x00,
0x02,0x95,0x3c,0x48,0x00,0x95,0x40,0x44,0x02,0x91,0x21,0x62,0x03,0x99,0x23,0x78,
0x00,0x99,0x2a,0x46,0x00,0x94,0x2d,0x4e,0x00,0x9a,0x43,0x62,0x01,0x9a,0x40,0x66,
0x01,0x9a,0x3c,0x5e,0x00,0x94,0x3c,0x5d,0x00,0x97,0x54,0x6c,0x01,0x9a,0x39,0x56,
0x01,0x99,0x23,0x00,0x00,0x99,0x2a,0x00,0x00,0x94,0x43,0x53,0x01,0x91,0x20,0x00,
0x2b,0x99,0x2a,0x25,0x02,0x97,0x51,0x66,0x02,0x99,0x2a,0x00,0x01,0x98,0x39,0x5a,
0x01,0x97,0x54,0x00,0x07,0x98,0x3b,0x00,0x23,0x99,0x2a,0x32,0x04,0x99,0x2a,0x00,
0x06,0x9a,0x3c,0x00,0x01,0x9a,0x39,0x00,0x25,0x99,0x2a,0x3c,0x00,0x9a,0x3c,0x50,
0x00,0x94,0x40,0x46,0x01,0x9a,0x39,0x40,0x03,0x99,0x2a,0x00,0x07,0x9a,0x40,0x00,
0x0d,0x94,0x3c,0x00,0x00,0x9a,0x43,0x00,0x04,0x94,0x40,0x00,0x00,0x94,0x43,0x00,
0x06,0x94,0x2d,0x00,0x0e,0x99,0x26,0x70,0x00,0x99,0x2a,0x46,0x00,0x94,0x3c,0x40,
0x00,0x9a,0x43,0x3e,0x01,0x9a,0x40,0x50,0x01,0x94,0x40,0x3d,0x02,0x99,0x26,0x00,
0x00,0x99,0x2a,0x00,0x00,0x94,0x43,0x26,0x1e,0x94,0x3c,0x00,0x02,0x94,0x40,0x00,
0x0a,0x94,0x43,0x00,0x02,0x99,0x2a,0x38,0x00,0x94,0x2d,0x48,0x04,0x99,0x2a,0x00,
0x10,0x9a,0x43,0x00,0x03,0x9a,0x40,0x00,0x19,0x99,0x2a,0x3c,0x00,0x94,0x3c,0x53,
0x00,0x9a,0x43,0x6c,0x01,0x9a,0x40,0x6c,0x01,0x94,0x40,0x57,0x00,0x97,0x56,0x62,
0x02,0x99,0x2a,0x00,0x00,0x94,0x43,0x53,0x00,0x97,0x51,0x00,0x05,0x91,0x21,0x00,
0x1b,0x97,0x56,0x00,0x09,0x91,0x21,0x6c,0x03,0x99,0x23,0x5e,0x00,0x99,0x2a,0x37,
0x04,0x99,0x23,0x00,0x00,0x99,0x2a,0x00,0x07,0x91,0x21,0x00,0x22,0x91,0x21,0x66,
0x03,0x99,0x23,0x78,0x00,0x99,0x2a,0x46,0x02,0x97,0x54,0x62,0x02,0x99,0x23,0x00,
0x00,0x99,0x2a,0x00,0x10,0x9a,0x3c,0x00,0x01,0x9a,0x39,0x00,0x03,0x9a,0x43,0x00,
0x03,0x9a,0x40,0x00,0x09,0xe7,0x36,0x48,0x02,0x94,0x3c,0x00,0x02,0x94,0x40,0x00,
0x01,0x98,0x39,0x00,0x03,0xe7,0x0d,0x53,0x00,0x94,0x43,0x00,0x04,0x99,0x2a,0x3c,
0x04,0x99,0x2a,0x00,0x00,0x94,0x2d,0x00,0x00,0xe7,0x44,0x5b,0x0a,0xe7,0x72,0x67,
0x08,0xe7,0x52,0x6e,0x08,0xe7,0x49,0x72,0x08,0xe7,0x09,0x77,0x0a,0x9a,0x40,0x78,
0x00,0xe7,0x00,0x7b,0x00,0x99,0x2a,0x3c,0x00,0x94,0x2d,0x48,0x01,0x9a,0x3c,0x5e,
0x01,0x9a,0x39,0x48,0x00,0x94,0x3c,0x53,0x02,0x99,0x2a,0x00,0x00,0x94,0x40,0x5d,
0x04,0xe7,0x20,0x7d,0x0c,0xe7,0x7f,0x7f,0x1c,0x99,0x23,0x56,0x00,0x99,0x2a,0x3c,
0x04,0x99,0x23,0x00,0x00,0x99,0x2a,0x00,0x20,0x97,0x54,0x00,0x0c,0x99,0x26,0x72,
0x00,0x99,0x2a,0x46,0x00,0x99,0x39,0x3e,0x02,0x97,0x54,0x66,0x02,0x99,0x26,0x00,
0x00,0x99,0x2a,0x00,0x00,0x99,0x39,0x00,0x02,0xe7,0x53,0x65,0x03,0x9a,0x3c,0x00,
0x03,0x9a,0x40,0x00,0x02,0x9a,0x39,0x00,0x00,0xe7,0x00,0x40,0x00,0x94,0x3c,0x00,
0x08,0x94,0x2d,0x00,0x00,0x94,0x40,0x00,0x01,0x91,0x21,0x00,0x0e,0x95,0x3c,0x00,
0x07,0x97,0x54,0x00,0x04,0x99,0x2a,0x38,0x04,0x99,0x2a,0x00,0x01,0x95,0x40,0x00,
0x26,0x95,0x40,0x4c,0x00,0x95,0x43,0x3e,0x02,0x91,0x26,0x78,0x03,0x99,0x23,0x6c,
0x00,0x99,0x2e,0x54,0x00,0x94,0x32,0x57,0x00,0x9a,0x47,0x5e,0x00,0x9c,0x4c,0x5e,
0x00,0x9c,0x4f,0x66,0x00,0x9c,0x53,0x5a,0x01,0x9a,0x43,0x6c,0x01,0x9a,0x40,0x5e,
0x00,0x94,0x40,0x57,0x00,0x97,0x53,0x66,0x02,0x99,0x23,0x00,0x00,0x99,0x2e,0x00,
0x00,0x94,0x43,0x57,0x02,0x94,0x47,0x4e,0x2a,0x97,0x53,0x00,0x32,0x97,0x51,0x6c,
0x1a,0x9a,0x47,0x00,0x04,0x9a,0x40,0x00,0x01,0x9a,0x43,0x00,0x09,0x9c,0x53,0x00,
0x04,0x9c,0x4f,0x00,0x00,0x97,0x51,0x00,0x02,0x94,0x32,0x00,0x00,0x9c,0x4c,0x00,
0x00,0x97,0x4f,0x5e,0x04,0x94,0x40,0x00,0x02,0x94,0x47,0x00,0x02,0x94,0x43,0x00,
0x15,0x95,0x43,0x00,0x07,0x97,0x4f,0x00,0x01,0x95,0x40,0x00,0x06,0x95,0x3e,0x5a,
0x00,0x95,0x42,0x56,0x02,0x91,0x1a,0x6c,0x00,0x91,0x26,0x00,0x03,0x99,0x23,0x6c,
0x00,0x99,0x2e,0x49,0x00,0x94,0x32,0x4c,0x00,0x9a,0x45,0x62,0x00,0x9c,0x4a,0x5a,
0x00,0x9c,0x4e,0x62,0x00,0x9c,0x51,0x5a,0x00,0x97,0x51,0x5e,0x01,0x9a,0x42,0x72,
0x01,0x9a,0x3e,0x6c,0x00,0x94,0x3e,0x4c,0x02,0x99,0x23,0x00,0x00,0x99,0x2e,0x00,
0x00,0x94,0x42,0x53,0x02,0x94,0x45,0x48,0x5a,0x99,0x26,0x74,0x04,0x99,0x26,0x00,
0x18,0x9a,0x45,0x00,0x05,0x9a,0x42,0x00,0x03,0x9a,0x3e,0x00,0x06,0xb7,0x01,0x07,
0x08,0x94,0x32,0x00,0x02,0x94,0x42,0x00,0x00,0x9c,0x4e,0x00,0x02,0x94,0x3e,0x00,
0x00,0x94,0x45,0x00,0x04,0x9c,0x51,0x00,0x02,0xb7,0x01,0x18,0x02,0x9c,0x4a,0x00,
0x0d,0x95,0x3e,0x00,0x01,0xb7,0x01,0x27,0x03,0x95,0x42,0x00,0x0a,0x91,0x1a,0x00,
0x02,0x95,0x3c,0x3c,0x00,0x95,0x40,0x48,0x02,0x91,0x26,0x66,0x01,0xb7,0x01,0x40,
0x02,0x99,0x23,0x78,0x00,0x99,0x2e,0x49,0x00,0x94,0x32,0x4c,0x00,0x9a,0x43,0x48,
0x00,0x9c,0x48,0x4c,0x00,0x9c,0x4c,0x5e,0x00,0x9c,0x4f,0x56,0x01,0x9a,0x40,0x6c,
0x01,0x9a,0x3c,0x56,0x00,0x94,0x3c,0x48,0x02,0x99,0x23,0x00,0x00,0x99,0x2e,0x00,
0x00,0x94,0x40,0x57,0x02,0x94,0x43,0x4c,0x0a,0xb7,0x01,0x58,0x10,0xb7,0x01,0x6c,
0x10,0xb7,0x01,0x79,0x16,0x97,0x51,0x00,0x0e,0xb7,0x01,0x00,0x0c,0x99,0x26,0x7a,
0x00,0x99,0x2e,0x4f,0x04,0x99,0x26,0x00,0x00,0x99,0x2e,0x00,0x1c,0x9a,0x3c,0x00,
0x02,0x9a,0x43,0x00,0x03,0x9a,0x40,0x00,0x0b,0x99,0x26,0x74,0x04,0x99,0x26,0x00,
0x02,0x94,0x3c,0x00,0x02,0x94,0x32,0x00,0x04,0x94,0x40,0x00,0x04,0x94,0x43,0x00,
0x09,0x95,0x3c,0x00,0x05,0x9c,0x48,0x00,0x08,0x9c,0x4f,0x00,0x02,0x9c,0x4c,0x00,
0x01,0x91,0x26,0x00,0x02,0x95,0x3e,0x4c,0x00,0x95,0x42,0x3e,0x02,0x91,0x1a,0x5e,
0x03,0x99,0x26,0x41,0x00,0x94,0x32,0x53,0x00,0x9a,0x45,0x5a,0x00,0x9c,0x4a,0x5a,
0x00,0x9c,0x4e,0x5e,0x00,0x9c,0x51,0x50,0x01,0x9a,0x42,0x66,0x01,0x9a,0x3e,0x66,
0x00,0x94,0x3e,0x4c,0x02,0x99,0x26,0x00,0x00,0x94,0x42,0x53,0x02,0x94,0x45,0x4c,
0x07,0x95,0x40,0x00,0x23,0x99,0x26,0x4d,0x04,0x99,0x26,0x00,0x2c,0x99,0x2f,0x72,
0x04,0x99,0x2f,0x00,0x2c,0x99,0x2b,0x50,0x04,0x99,0x2b,0x00,0x08,0x94,0x3e,0x00,
0x06,0x9a,0x3e,0x00,0x0f,0x91,0x1a,0x00,0x0c,0x91,0x26,0x5e,0x03,0x99,0x2d,0x48,
0x00,0x9a,0x3e,0x38,0x00,0x94,0x3e,0x2f,0x04,0x99,0x2d,0x00,0x00,0x94,0x32,0x00,
0x13,0x9a,0x42,0x00,0x03,0x9a,0x45,0x00,0x07,0x95,0x3e,0x00,0x01,0x9a,0x3e,0x00,
0x04,0x94,0x42,0x00,0x00,0x9c,0x51,0x00,0x01,0x95,0x42,0x00,0x03,0x94,0x45,0x00,
0x02,0x9c,0x4a,0x00,0x01,0x91,0x1a,0x5e,0x00,0x91,0x26,0x00,0x03,0x99,0x29,0x62,
0x00,0x94,0x32,0x4c,0x00,0x9c,0x4e,0x00,0x04,0x99,0x29,0x00,0x00,0x94,0x3e,0x00,
0x1c,0x94,0x32,0x00,0x01,0x91,0x1a,0x00,0x0a,0x95,0x39,0x38,0x00,0x95,0x40,0x3e,
0x02,0x91,0x21,0x6c,0x03,0x99,0x23,0x72,0x00,0x94,0x2d,0x57,0x00,0x99,0x31,0x3b,
0x00,0x9a,0x43,0x6c,0x01,0x9a,0x40,0x6c,0x01,0x9a,0x3c,0x5e,0x00,0x94,0x3c,0x57,
0x01,0x9a,0x39,0x5a,0x01,0x99,0x23,0x00,0x00,0x99,0x31,0x00,0x00,0x94,0x40,0x5d,
0x01,0x98,0x40,0x48,0x00,0x98,0x43,0x3c,0x01,0x94,0x43,0x53,0x2a,0x99,0x2a,0x25,
0x04,0x99,0x2a,0x00,0x1e,0x94,0x2d,0x00,0x04,0x9a,0x3c,0x00,0x03,0x9a,0x39,0x00,
0x07,0x99,0x2a,0x32,0x04,0x99,0x2a,0x00,0x25,0x9a,0x40,0x00,0x01,0x94,0x3c,0x00,
0x04,0x94,0x43,0x00,0x02,0x99,0x2a,0x3c,0x00,0x94,0x2d,0x4e,0x00,0x9a,0x3c,0x5e,
0x00,0x9a,0x43,0x00,0x01,0x9a,0x39,0x56,0x03,0x99,0x2a,0x00,0x02,0x94,0x40,0x00,
0x2a,0x99,0x26,0x70,0x00,0x99,0x2a,0x46,0x00,0x94,0x3c,0x40,0x00,0x9a,0x43,0x66,
0x01,0x9a,0x40,0x66,0x01,0x94,0x40,0x4c,0x02,0x99,0x26,0x00,0x00,0x99,0x2a,0x00,
0x00,0x94,0x43,0x48,0x2c,0x99,0x2a,0x38,0x04,0x99,0x2a,0x00,0x15,0x9a,0x39,0x00,
0x00,0x9a,0x40,0x00,0x01,0x9a,0x3c,0x00,0x00,0x94,0x3c,0x00,0x02,0x9a,0x43,0x00,
0x02,0x94,0x40,0x00,0x00,0x94,0x43,0x00,0x12,0x99,0x2a,0x3c,0x00,0x94,0x3c,0x53,
0x00,0x9a,0x43,0x6c,0x01,0x9a,0x40,0x66,0x01,0x9a,0x3c,0x62,0x00,0x94,0x40,0x62,
0x01,0x91,0x21,0x00,0x00,0x9a,0x39,0x50,0x01,0x99,0x2a,0x00,0x00,0x94,0x43,0x57,
0x29,0x91,0x21,0x44,0x03,0x99,0x2a,0x37,0x04,0x99,0x2a,0x00,0x03,0x91,0x21,0x00,
0x26,0x91,0x21,0x6c,0x03,0x99,0x23,0x78,0x00,0x99,0x2a,0x46,0x04,0x99,0x23,0x00,
0x00,0x99,0x2a,0x00,0x18,0x9a,0x3c,0x00,0x01,0x9a,0x39,0x00,0x00,0x9a,0x40,0x00,
0x01,0x94,0x3c,0x00,0x00,0x94,0x40,0x00,0x02,0x9a,0x43,0x00,0x02,0x94,0x43,0x00,
0x04,0x94,0x2d,0x00,0x0a,0x99,0x2a,0x3c,0x04,0x99,0x2a,0x00,0x2c,0x99,0x2a,0x3c,
0x00,0x94,0x2d,0x4c,0x00,0x9a,0x43,0x66,0x01,0x9a,0x40,0x72,0x01,0x9a,0x3c,0x6c,
0x00,0x94,0x3c,0x53,0x01,0x9a,0x39,0x56,0x01,0x99,0x2a,0x00,0x00,0x94,0x40,0x62,
0x2c,0x99,0x2a,0x3c,0x04,0x99,0x2a,0x00,0x2c,0x99,0x26,0x72,0x00,0x99,0x2a,0x46,
0x04,0x99,0x26,0x00,0x00,0x99,0x2a,0x00,0x0a,0x9a,0x3c,0x00,0x05,0x9a,0x39,0x00,
0x00,0x9a,0x40,0x00,0x01,0x9a,0x43,0x00,0x08,0x94,0x2d,0x00,0x09,0x91,0x21,0x00,
0x0b,0x99,0x2a,0x38,0x00,0x94,0x3c,0x00,0x02,0x94,0x40,0x00,0x02,0x99,0x2a,0x00,
0x29,0x91,0x21,0x6c,0x03,0x99,0x2a,0x36,0x00,0x94,0x32,0x57,0x00,0x9a,0x42,0x72,
0x01,0x9a,0x3e,0x66,0x01,0x94,0x3c,0x53,0x02,0x99,0x2a,0x00,0x00,0x94,0x42,0x4e,
0x02,0x94,0x45,0x4e,0x0d,0x91,0x21,0x00,0x1d,0x99,0x23,0x6e,0x00,0x99,0x2a,0x3b,
0x04,0x99,0x23,0x00,0x00,0x99,0x2a,0x00,0x25,0x95,0x39,0x00,0x00,0x95,0x40,0x00,
0x02,0x95,0x39,0x3e,0x00,0x95,0x3e,0x4c,0x02,0x91,0x26,0x72,0x03,0x99,0x23,0x78,
0x00,0x99,0x2a,0x46,0x00,0x9a,0x39,0x5e,0x04,0x99,0x23,0x00,0x00,0x99,0x2a,0x00,
0x2c,0x99,0x2a,0x25,0x04,0x99,0x2a,0x00,0x1a,0x94,0x3c,0x00,0x12,0x99,0x2a,0x32,
0x00,0x94,0x3c,0x3d,0x04,0x99,0x2a,0x00,0x2c,0x99,0x2a,0x3c,0x04,0x99,0x2a,0x00,
0x18,0x9a,0x42,0x00,0x03,0x9a,0x3e,0x00,0x0b,0x94,0x3c,0x00,0x00,0x94,0x42,0x00,
0x02,0x94,0x45,0x00,0x04,0x99,0x26,0x70,0x00,0x99,0x2a,0x46,0x00,0x94,0x3c,0x48,
0x00,0x9a,0x42,0x62,0x01,0x9a,0x3e,0x5a,0x01,0x94,0x42,0x53,0x02,0x99,0x26,0x00,
0x00,0x99,0x2a,0x00,0x00,0x94,0x45,0x4e,0x2c,0x99,0x2a,0x38,0x04,0x99,0x2a,0x00,
0x2c,0x99,0x2a,0x3c,0x01,0x91,0x26,0x00,0x03,0x99,0x2a,0x00,0x06,0x9a,0x39,0x00,
0x0c,0x94,0x32,0x00,0x17,0x91,0x26,0x62,0x03,0x99,0x2a,0x37,0x00,0x94,0x32,0x2c,
0x00,0x9a,0x39,0x38,0x04,0x99,0x2a,0x00,0x07,0x91,0x26,0x00,0x05,0x94,0x3c,0x00,
0x00,0x9a,0x42,0x00,0x03,0x9a,0x3e,0x00,0x01,0x94,0x42,0x00,0x00,0x94,0x45,0x00,
0x19,0x91,0x26,0x72,0x03,0x99,0x23,0x78,0x00,0x99,0x2a,0x46,0x00,0x9a,0x39,0x00,
0x00,0x94,0x3c,0x40,0x00,0x9a,0x42,0x48,0x01,0x9a,0x3e,0x48,0x01,0x94,0x42,0x3d,
0x02,0x99,0x23,0x00,0x00,0x99,0x2a,0x00,0x00,0x94,0x45,0x4c,0x0c,0x94,0x32,0x00,
0x20,0x99,0x2a,0x3c,0x00,0x94,0x32,0x48,0x00,0x9a,0x39,0x3e,0x04,0x99,0x2a,0x00,
0x1d,0x98,0x40,0x00,0x02,0x98,0x43,0x00,0x0d,0x99,0x2a,0x3c,0x04,0x99,0x2a,0x00,
0x01,0x98,0x3e,0x44,0x00,0x98,0x42,0x4c,0x2b,0x99,0x2a,0x3c,0x04,0x99,0x2a,0x00,
0x01,0x98,0x3e,0x00,0x00,0x98,0x40,0x40,0x00,0x98,0x43,0x4c,0x0c,0x98,0x42,0x00,
0x09,0x94,0x3c,0x00,0x02,0x94,0x45,0x00,0x01,0x9a,0x3e,0x00,0x01,0x9a,0x42,0x00,
0x00,0x94,0x42,0x00,0x12,0x99,0x26,0x72,0x00,0x99,0x2a,0x46,0x00,0x94,0x3c,0x46,
0x00,0x9a,0x42,0x62,0x01,0x9a,0x3e,0x5e,0x01,0x94,0x42,0x46,0x02,0x99,0x26,0x00,
0x00,0x99,0x2a,0x00,0x00,0x94,0x45,0x48,0x01,0x98,0x3e,0x56,0x00,0x98,0x42,0x4c,
0x06,0x98,0x40,0x00,0x02,0x98,0x43,0x00,0x15,0x9a,0x39,0x00,0x0e,0x99,0x2a,0x38,
0x00,0x94,0x32,0x00,0x04,0x99,0x2a,0x00,0x1b,0x98,0x42,0x00,0x04,0x91,0x26,0x00,
0x00,0x98,0x3e,0x00,0x0a,0x91,0x1f,0x6c,0x03,0x99,0x23,0x4a,0x00,0x99,0x2a,0x36,
0x00,0x94,0x32,0x35,0x00,0x9a,0x39,0x44,0x04,0x99,0x23,0x00,0x00,0x99,0x2a,0x00,
0x01,0x98,0x40,0x4c,0x00,0x98,0x43,0x44,0x01,0x9a,0x42,0x00,0x09,0x9a,0x3e,0x00,
0x09,0x94,0x3c,0x00,0x04,0x9a,0x39,0x00,0x02,0x94,0x45,0x00,0x01,0x91,0x1f,0x00,
0x05,0x94,0x42,0x00,0x02,0x94,0x32,0x00,0x07,0x91,0x20,0x5e,0x03,0x99,0x23,0x6e,
0x00,0x99,0x2a,0x3b,0x04,0x99,0x23,0x00,0x00,0x99,0x2a,0x00,0x01,0x98,0x3e,0x4c,
0x00,0x98,0x42,0x48,0x08,0x98,0x43,0x00,0x06,0x98,0x40,0x00,0x16,0x95,0x39,0x00,
0x00,0x95,0x3e,0x00,0x02,0x95,0x3c,0x48,0x00,0x95,0x40,0x44,0x02,0x91,0x21,0x62,
0x03,0x99,0x23,0x78,0x00,0x99,0x2a,0x46,0x00,0x94,0x2d,0x4e,0x00,0x9a,0x43,0x62,
0x01,0x9a,0x40,0x66,0x01,0x9a,0x3c,0x5e,0x00,0x94,0x3c,0x5d,0x01,0x9a,0x39,0x56,
0x01,0x99,0x23,0x00,0x00,0x99,0x2a,0x00,0x00,0x94,0x43,0x53,0x01,0x91,0x20,0x00,
0x2b,0x99,0x2a,0x25,0x03,0x98,0x3e,0x00,0x01,0x99,0x2a,0x00,0x01,0x98,0x3c,0x48,
0x00,0x98,0x40,0x48,0x0a,0x98,0x42,0x00,0x21,0x99,0x2a,0x32,0x04,0x99,0x2a,0x00,
0x06,0x9a,0x3c,0x00,0x01,0x9a,0x39,0x00,0x25,0x99,0x2a,0x3c,0x00,0x9a,0x3c,0x50,
0x00,0x94,0x40,0x46,0x01,0x9a,0x39,0x40,0x03,0x99,0x2a,0x00,0x07,0x9a,0x40,0x00,
0x0d,0x94,0x3c,0x00,0x00,0x9a,0x43,0x00,0x04,0x94,0x40,0x00,0x00,0x94,0x43,0x00,
0x06,0x94,0x2d,0x00,0x0e,0x99,0x26,0x70,0x00,0x99,0x2a,0x46,0x00,0x94,0x3c,0x40,
0x00,0x9a,0x43,0x3e,0x01,0x9a,0x40,0x50,0x01,0x94,0x40,0x3d,0x02,0x99,0x26,0x00,
0x00,0x99,0x2a,0x00,0x00,0x94,0x43,0x26,0x1e,0x94,0x3c,0x00,0x02,0x94,0x40,0x00,
0x0a,0x94,0x43,0x00,0x02,0x99,0x2a,0x38,0x00,0x94,0x2d,0x48,0x04,0x99,0x2a,0x00,
0x10,0x9a,0x43,0x00,0x03,0x9a,0x40,0x00,0x19,0x99,0x2a,0x3c,0x00,0x94,0x3c,0x53,
0x00,0x9a,0x43,0x6c,0x01,0x9a,0x40,0x6c,0x01,0x94,0x40,0x57,0x02,0x99,0x2a,0x00,
0x00,0x94,0x43,0x53,0x05,0x91,0x21,0x00,0x24,0x91,0x21,0x6c,0x03,0x99,0x23,0x5e,
0x00,0x99,0x2a,0x37,0x04,0x99,0x23,0x00,0x00,0x99,0x2a,0x00,0x07,0x91,0x21,0x00,
0x22,0x91,0x21,0x66,0x03,0x99,0x23,0x78,0x00,0x99,0x2a,0x46,0x04,0x99,0x23,0x00,
0x00,0x99,0x2a,0x00,0x10,0x9a,0x3c,0x00,0x01,0x9a,0x39,0x00,0x03,0x9a,0x43,0x00,
0x03,0x9a,0x40,0x00,0x0b,0x94,0x3c,0x00,0x02,0x94,0x40,0x00,0x04,0x94,0x43,0x00,
0x04,0x99,0x2a,0x3c,0x04,0x99,0x2a,0x00,0x00,0x94,0x2d,0x00,0x2c,0x99,0x2a,0x3c,
0x00,0x94,0x2d,0x48,0x00,0x9a,0x40,0x78,0x01,0x9a,0x3c,0x5e,0x01,0x9a,0x39,0x48,
0x00,0x94,0x3c,0x53,0x02,0x99,0x2a,0x00,0x00,0x94,0x40,0x5d,0x2c,0x99,0x23,0x56,
0x00,0x99,0x2a,0x3c,0x04,0x99,0x23,0x00,0x00,0x99,0x2a,0x00,0x2c,0x99,0x26,0x72,
0x00,0x99,0x2a,0x46,0x00,0x99,0x39,0x3e,0x04,0x99,0x26,0x00,0x00,0x99,0x2a,0x00,
0x00,0x99,0x39,0x00,0x05,0x9a,0x3c,0x00,0x03,0x9a,0x40,0x00,0x02,0x9a,0x39,0x00,
0x00,0x94,0x3c,0x00,0x07,0x98,0x3c,0x00,0x01,0x94,0x2d,0x00,0x00,0x94,0x40,0x00,
0x01,0x91,0x21,0x00,0x04,0x98,0x40,0x00,0x0a,0x95,0x3c,0x00,0x0b,0x99,0x2a,0x38,
0x04,0x99,0x2a,0x00,0x01,0x95,0x40,0x00,0x26,0x95,0x40,0x4c,0x00,0x95,0x43,0x3e,
0x02,0x91,0x26,0x78,0x03,0x99,0x23,0x6c,0x00,0x99,0x2e,0x54,0x00,0x94,0x32,0x57,
0x00,0x9a,0x47,0x5e,0x00,0x9c,0x4c,0x5e,0x00,0x9c,0x4f,0x66,0x00,0x9c,0x53,0x5a,
0x01,0x9a,0x43,0x6c,0x01,0x9a,0x40,0x5e,0x00,0x94,0x40,0x57,0x02,0x99,0x23,0x00,
0x00,0x99,0x2e,0x00,0x00,0x94,0x43,0x57,0x02,0x94,0x47,0x4e,0x76,0x9a,0x47,0x00,
0x04,0x9a,0x40,0x00,0x01,0x9a,0x43,0x00,0x09,0x9c,0x53,0x00,0x04,0x9c,0x4f,0x00,
0x02,0x94,0x32,0x00,0x00,0x9c,0x4c,0x00,0x04,0x94,0x40,0x00,0x02,0x94,0x47,0x00,
0x02,0x94,0x43,0x00,0x15,0x95,0x43,0x00,0x08,0x95,0x40,0x00,0x06,0x95,0x3e,0x5a,
0x00,0x95,0x42,0x56,0x02,0x91,0x1a,0x6c,0x00,0x91,0x26,0x00,0x03,0x99,0x23,0x6c,
0x00,0x99,0x2e,0x49,0x00,0x94,0x32,0x4c,0x00,0x9a,0x45,0x62,0x00,0x9c,0x4a,0x5a,
0x00,0x9c,0x4e,0x62,0x00,0x9c,0x51,0x5a,0x01,0x9a,0x42,0x72,0x01,0x9a,0x3e,0x6c,
0x00,0x94,0x3e,0x4c,0x02,0x99,0x23,0x00,0x00,0x99,0x2e,0x00,0x00,0x94,0x42,0x53,
0x02,0x94,0x45,0x48,0x5a,0x99,0x26,0x74,0x04,0x99,0x26,0x00,0x18,0x9a,0x45,0x00,
0x05,0x9a,0x42,0x00,0x03,0x9a,0x3e,0x00,0x0e,0x94,0x32,0x00,0x02,0x94,0x42,0x00,
0x00,0x9c,0x4e,0x00,0x02,0x94,0x3e,0x00,0x00,0x94,0x45,0x00,0x04,0x9c,0x51,0x00,
0x04,0x9c,0x4a,0x00,0x0d,0x95,0x3e,0x00,0x04,0x95,0x42,0x00,0x0a,0x91,0x1a,0x00,
0x02,0x95,0x3c,0x3c,0x00,0x95,0x40,0x48,0x02,0x91,0x26,0x66,0x03,0x99,0x23,0x78,
0x00,0x99,0x2e,0x49,0x00,0x94,0x32,0x4c,0x00,0x9a,0x43,0x48,0x00,0x9c,0x48,0x4c,
0x00,0x9c,0x4c,0x5e,0x00,0x9c,0x4f,0x56,0x01,0x9a,0x40,0x6c,0x01,0x9a,0x3c,0x56,
0x00,0x94,0x3c,0x48,0x02,0x99,0x23,0x00,0x00,0x99,0x2e,0x00,0x00,0x94,0x40,0x57,
0x02,0x94,0x43,0x4c,0x5a,0x99,0x26,0x74,0x00,0x99,0x2e,0x4f,0x04,0x99,0x26,0x00,
0x00,0x99,0x2e,0x00,0x1c,0x9a,0x3c,0x00,0x02,0x9a,0x43,0x00,0x03,0x9a,0x40,0x00,
0x11,0x94,0x3c,0x00,0x02,0x94,0x32,0x00,0x04,0x94,0x40,0x00,0x04,0x94,0x43,0x00,
0x09,0x95,0x3c,0x00,0x05,0x9c,0x48,0x00,0x08,0x9c,0x4f,0x00,0x02,0x9c,0x4c,0x00,
0x01,0x91,0x26,0x00,0x02,0x95,0x3e,0x4c,0x00,0x95,0x42,0x3e,0x02,0x91,0x1a,0x5e,
0x03,0x99,0x26,0x74,0x00,0x94,0x32,0x53,0x00,0x9a,0x45,0x5a,0x00,0x9c,0x4a,0x5a,
0x00,0x9c,0x4e,0x5e,0x00,0x9c,0x51,0x50,0x01,0x9a,0x42,0x66,0x01,0x9a,0x3e,0x66,
0x00,0x94,0x3e,0x4c,0x02,0x99,0x26,0x00,0x00,0x94,0x42,0x53,0x02,0x94,0x45,0x4c,
0x07,0x95,0x40,0x00,0x53,0x99,0x2b,0x68,0x04,0x99,0x2b,0x00,0x2c,0x99,0x29,0x68,
0x04,0x99,0x29,0x00,0x08,0x94,0x3e,0x00,0x06,0x9a,0x3e,0x00,0x0f,0x91,0x1a,0x00,
0x0c,0x91,0x26,0x5e,0x03,0x99,0x2d,0x64,0x00,0x9a,0x3e,0x38,0x00,0x94,0x3e,0x2f,
0x04,0x99,0x2d,0x00,0x00,0x94,0x32,0x00,0x13,0x9a,0x42,0x00,0x03,0x9a,0x45,0x00,
0x07,0x95,0x3e,0x00,0x01,0x9a,0x3e,0x00,0x04,0x94,0x42,0x00,0x00,0x9c,0x51,0x00,
0x01,0x95,0x42,0x00,0x03,0x94,0x45,0x00,0x02,0x9c,0x4a,0x00,0x01,0x91,0x1a,0x5e,
0x00,0x91,0x26,0x00,0x03,0x99,0x29,0x6e,0x00,0x99,0x2b,0x50,0x00,0x94,0x32,0x4c,
0x00,0x9c,0x4e,0x00,0x04,0x99,0x29,0x00,0x00,0x99,0x2b,0x00,0x00,0x94,0x3e,0x00,
0x1c,0x94,0x32,0x00,0x01,0x91,0x1a,0x00,0x0a,0x95,0x39,0x38,0x00,0x95,0x40,0x3e,
0x02,0x91,0x21,0x6c,0x03,0x99,0x23,0x68,0x00,0x94,0x2d,0x57,0x00,0x99,0x31,0x3b,
0x00,0x9a,0x43,0x6c,0x01,0x9a,0x40,0x6c,0x01,0x9a,0x3c,0x5e,0x00,0x94,0x3c,0x57,
0x01,0x9a,0x39,0x5a,0x01,0x99,0x23,0x00,0x00,0x99,0x31,0x00,0x00,0x94,0x40,0x5d,
0x01,0x98,0x40,0x48,0x00,0x98,0x43,0x3e,0x01,0x94,0x43,0x53,0x2a,0x99,0x2a,0x25,
0x04,0x99,0x2a,0x00,0x1e,0x94,0x2d,0x00,0x04,0x9a,0x3c,0x00,0x03,0x9a,0x39,0x00,
0x07,0x99,0x2a,0x32,0x04,0x99,0x2a,0x00,0x25,0x9a,0x40,0x00,0x01,0x94,0x3c,0x00,
0x04,0x94,0x43,0x00,0x02,0x99,0x2a,0x3c,0x00,0x94,0x2d,0x4e,0x00,0x9a,0x3c,0x5e,
0x00,0x9a,0x43,0x00,0x01,0x9a,0x39,0x56,0x03,0x99,0x2a,0x00,0x02,0x94,0x40,0x00,
0x2a,0x99,0x26,0x70,0x00,0x99,0x2a,0x46,0x00,0x94,0x3c,0x40,0x00,0x9a,0x43,0x66,
0x01,0x9a,0x40,0x66,0x01,0x94,0x40,0x4c,0x02,0x99,0x26,0x00,0x00,0x99,0x2a,0x00,
0x00,0x94,0x43,0x48,0x2c,0x99,0x2a,0x38,0x04,0x99,0x2a,0x00,0x15,0x9a,0x39,0x00,
0x00,0x9a,0x40,0x00,0x01,0x9a,0x3c,0x00,0x00,0x94,0x3c,0x00,0x02,0x9a,0x43,0x00,
0x02,0x94,0x40,0x00,0x00,0x94,0x43,0x00,0x12,0x99,0x2a,0x3c,0x00,0x94,0x3c,0x53,
0x00,0x9a,0x43,0x6c,0x01,0x9a,0x40,0x66,0x01,0x9a,0x3c,0x62,0x00,0x94,0x40,0x62,
0x01,0x91,0x21,0x00,0x00,0x9a,0x39,0x50,0x01,0x99,0x2a,0x00,0x00,0x94,0x43,0x57,
0x29,0x91,0x21,0x44,0x03,0x99,0x2a,0x37,0x04,0x99,0x2a,0x00,0x03,0x91,0x21,0x00,
0x26,0x91,0x21,0x6c,0x03,0x99,0x23,0x78,0x00,0x99,0x2a,0x46,0x04,0x99,0x23,0x00,
0x00,0x99,0x2a,0x00,0x18,0x9a,0x3c,0x00,0x01,0x9a,0x39,0x00,0x00,0x9a,0x40,0x00,
0x01,0x94,0x3c,0x00,0x00,0x94,0x40,0x00,0x02,0x9a,0x43,0x00,0x02,0x94,0x43,0x00,
0x04,0x94,0x2d,0x00,0x0a,0x99,0x2a,0x3c,0x04,0x99,0x2a,0x00,0x2c,0x99,0x2a,0x3c,
0x00,0x94,0x2d,0x4c,0x00,0x9a,0x43,0x66,0x01,0x9a,0x40,0x72,0x01,0x9a,0x3c,0x6c,
0x00,0x94,0x3c,0x53,0x01,0x9a,0x39,0x56,0x01,0x99,0x2a,0x00,0x00,0x94,0x40,0x62,
0x2c,0x99,0x2a,0x3c,0x04,0x99,0x2a,0x00,0x2c,0x99,0x26,0x72,0x00,0x99,0x2a,0x46,
0x04,0x99,0x26,0x00,0x00,0x99,0x2a,0x00,0x0a,0x9a,0x3c,0x00,0x05,0x9a,0x39,0x00,
0x00,0x9a,0x40,0x00,0x01,0x9a,0x43,0x00,0x08,0x94,0x2d,0x00,0x09,0x91,0x21,0x00,
0x0b,0x99,0x2a,0x38,0x00,0x94,0x3c,0x00,0x02,0x94,0x40,0x00,0x02,0x99,0x2a,0x00,
0x29,0x91,0x21,0x6c,0x03,0x99,0x2a,0x36,0x00,0x94,0x32,0x57,0x00,0x9a,0x42,0x72,
0x01,0x9a,0x3e,0x66,0x01,0x94,0x3c,0x53,0x02,0x99,0x2a,0x00,0x00,0x94,0x42,0x4e,
0x02,0x94,0x45,0x4e,0x0d,0x91,0x21,0x00,0x1d,0x99,0x23,0x6e,0x00,0x99,0x2a,0x3b,
0x04,0x99,0x23,0x00,0x00,0x99,0x2a,0x00,0x25,0x95,0x39,0x00,0x00,0x95,0x40,0x00,
0x02,0x95,0x39,0x3e,0x00,0x95,0x3e,0x4c,0x02,0x91,0x26,0x72,0x03,0x99,0x23,0x78,
0x00,0x99,0x2a,0x46,0x00,0x9a,0x39,0x5e,0x04,0x99,0x23,0x00,0x00,0x99,0x2a,0x00,
0x2c,0x99,0x2a,0x25,0x04,0x99,0x2a,0x00,0x1a,0x94,0x3c,0x00,0x12,0x99,0x2a,0x32,
0x00,0x94,0x3c,0x3d,0x04,0x99,0x2a,0x00,0x2c,0x99,0x2a,0x3c,0x04,0x99,0x2a,0x00,
0x18,0x9a,0x42,0x00,0x03,0x9a,0x3e,0x00,0x0b,0x94,0x3c,0x00,0x00,0x94,0x42,0x00,
0x02,0x94,0x45,0x00,0x04,0x99,0x26,0x70,0x00,0x99,0x2a,0x46,0x00,0x94,0x3c,0x48,
0x00,0x9a,0x42,0x62,0x01,0x9a,0x3e,0x5a,0x01,0x94,0x42,0x53,0x02,0x99,0x26,0x00,
0x00,0x99,0x2a,0x00,0x00,0x94,0x45,0x4e,0x2c,0x99,0x2a,0x38,0x04,0x99,0x2a,0x00,
0x2c,0x99,0x2a,0x3c,0x01,0x91,0x26,0x00,0x03,0x99,0x2a,0x00,0x06,0x9a,0x39,0x00,
0x0c,0x94,0x32,0x00,0x17,0x91,0x26,0x62,0x03,0x99,0x2a,0x37,0x00,0x94,0x32,0x2c,
0x00,0x9a,0x39,0x38,0x04,0x99,0x2a,0x00,0x07,0x91,0x26,0x00,0x05,0x94,0x3c,0x00,
0x00,0x9a,0x42,0x00,0x03,0x9a,0x3e,0x00,0x01,0x94,0x42,0x00,0x00,0x94,0x45,0x00,
0x19,0x91,0x26,0x72,0x03,0x99,0x23,0x78,0x00,0x99,0x2a,0x46,0x00,0x9a,0x39,0x00,
0x00,0x94,0x3c,0x40,0x00,0x9a,0x42,0x48,0x01,0x9a,0x3e,0x48,0x01,0x94,0x42,0x3d,
0x02,0x99,0x23,0x00,0x00,0x99,0x2a,0x00,0x00,0x94,0x45,0x4c,0x0c,0x94,0x32,0x00,
0x20,0x99,0x2a,0x3c,0x00,0x94,0x32,0x48,0x00,0x9a,0x39,0x3e,0x04,0x99,0x2a,0x00,
0x29,0x98,0x43,0x00,0x03,0x99,0x2a,0x3c,0x04,0x99,0x2a,0x00,0x01,0x98,0x3e,0x5a,
0x00,0x98,0x42,0x4c,0x04,0x98,0x40,0x00,0x27,0x99,0x2a,0x3c,0x04,0x99,0x2a,0x00,
0x01,0x98,0x3e,0x00,0x00,0x98,0x40,0x56,0x00,0x98,0x43,0x56,0x12,0x98,0x42,0x00,
0x03,0x94,0x3c,0x00,0x02,0x94,0x45,0x00,0x01,0x9a,0x3e,0x00,0x01,0x9a,0x42,0x00,
0x00,0x94,0x42,0x00,0x12,0x99,0x26,0x72,0x00,0x99,0x2a,0x46,0x00,0x94,0x3c,0x46,
0x00,0x9a,0x42,0x62,0x01,0x9a,0x3e,0x5e,0x01,0x94,0x42,0x46,0x02,0x99,0x26,0x00,
0x00,0x99,0x2a,0x00,0x00,0x94,0x45,0x48,0x01,0x98,0x3e,0x5e,0x00,0x98,0x42,0x5e,
0x04,0x98,0x43,0x00,0x02,0x98,0x40,0x00,0x17,0x9a,0x39,0x00,0x0e,0x99,0x2a,0x38,
0x00,0x94,0x32,0x00,0x04,0x99,0x2a,0x00,0x1f,0x91,0x26,0x00,0x02,0x98,0x3e,0x00,
0x08,0x91,0x1f,0x6c,0x02,0x98,0x42,0x00,0x01,0x99,0x23,0x4a,0x00,0x99,0x2a,0x36,
0x00,0x94,0x32,0x35,0x00,0x9a,0x39,0x44,0x04,0x99,0x23,0x00,0x00,0x99,0x2a,0x00,
0x01,0x98,0x40,0x4c,0x00,0x98,0x43,0x5a,0x01,0x9a,0x42,0x00,0x09,0x9a,0x3e,0x00,
0x09,0x94,0x3c,0x00,0x04,0x9a,0x39,0x00,0x02,0x94,0x45,0x00,0x01,0x91,0x1f,0x00,
0x05,0x94,0x42,0x00,0x02,0x94,0x32,0x00,0x03,0x98,0x43,0x00,0x04,0x91,0x20,0x5e,
0x03,0x99,0x23,0x6e,0x00,0x99,0x2a,0x3b,0x04,0x99,0x23,0x00,0x00,0x99,0x2a,0x00,
0x01,0x98,0x3e,0x5a,0x00,0x98,0x42,0x5a,0x06,0x98,0x40,0x00,0x1e,0x95,0x39,0x00,
0x00,0x95,0x3e,0x00,0x02,0x95,0x3c,0x48,0x00,0x95,0x40,0x44,0x02,0x91,0x21,0x62,
0x03,0x99,0x23,0x78,0x00,0x99,0x2a,0x46,0x00,0x94,0x2d,0x4e,0x00,0x9a,0x43,0x62,
0x01,0x9a,0x40,0x66,0x01,0x9a,0x3c,0x5e,0x00,0x94,0x3c,0x5d,0x01,0x9a,0x39,0x56,
0x01,0x99,0x23,0x00,0x00,0x99,0x2a,0x00,0x00,0x94,0x43,0x53,0x01,0x91,0x20,0x00,
0x26,0x98,0x3e,0x00,0x05,0x99,0x2a,0x25,0x04,0x99,0x2a,0x00,0x01,0x98,0x3c,0x48,
0x00,0x98,0x40,0x4c,0x00,0x98,0x42,0x00,0x2b,0x99,0x2a,0x32,0x04,0x99,0x2a,0x00,
0x06,0x9a,0x3c,0x00,0x01,0x9a,0x39,0x00,0x25,0x99,0x2a,0x3c,0x00,0x9a,0x3c,0x50,
0x00,0x94,0x40,0x46,0x01,0x9a,0x39,0x40,0x03,0x99,0x2a,0x00,0x07,0x9a,0x40,0x00,
0x0d,0x94,0x3c,0x00,0x00,0x9a,0x43,0x00,0x04,0x94,0x40,0x00,0x00,0x94,0x43,0x00,
0x06,0x94,0x2d,0x00,0x0e,0x99,0x26,0x70,0x00,0x99,0x2a,0x46,0x00,0x94,0x3c,0x40,
0x00,0x9a,0x43,0x3e,0x01,0x9a,0x40,0x50,0x01,0x94,0x40,0x3d,0x02,0x99,0x26,0x00,
0x00,0x99,0x2a,0x00,0x00,0x94,0x43,0x26,0x1e,0x94,0x3c,0x00,0x02,0x94,0x40,0x00,
0x0a,0x94,0x43,0x00,0x02,0x99,0x2a,0x38,0x00,0x94,0x2d,0x48,0x04,0x99,0x2a,0x00,
0x02,0x97,0x4a,0x4c,0x0e,0x9a,0x43,0x00,0x03,0x9a,0x40,0x00,0x05,0x97,0x4a,0x00,
0x02,0xe7,0x47,0x40,0x08,0xe7,0x3f,0x44,0x08,0xe7,0x5f,0x46,0x02,0x99,0x2a,0x3c,
0x00,0x94,0x3c,0x53,0x00,0x9a,0x43,0x6c,0x01,0x9a,0x40,0x6c,0x01,0x94,0x40,0x57,
0x00,0x97,0x4a,0x5e,0x02,0x99,0x2a,0x00,0x00,0x94,0x43,0x53,0x02,0xe7,0x36,0x48,
0x03,0x91,0x21,0x00,0x05,0xe7,0x1e,0x4b,0x0a,0x97,0x4a,0x00,0x00,0xe7,0x5e,0x4f,
0x08,0xe7,0x0d,0x53,0x0c,0x97,0x4a,0x62,0x00,0xe7,0x4d,0x57,0x01,0x91,0x21,0x6c,
0x03,0x99,0x23,0x5e,0x00,0x99,0x2a,0x37,0x04,0x99,0x23,0x00,0x00,0x99,0x2a,0x00,
0x02,0xe7,0x24,0x59,0x05,0x91,0x21,0x00,0x03,0xe7,0x44,0x5b,0x08,0xe7,0x64,0x5d,
0x06,0x97,0x4a,0x00,0x02,0xe7,0x03,0x60,0x0a,0xe7,0x23,0x62,0x05,0x91,0x21,0x66,
0x03,0x99,0x23,0x78,0x00,0x99,0x2a,0x46,0x00,0x97,0x4a,0x5e,0x00,0xe7,0x7b,0x63,
0x04,0x99,0x23,0x00,0x00,0x99,0x2a,0x00,0x04,0xe7,0x1b,0x66,0x03,0x98,0x3c,0x00,
0x06,0x98,0x40,0x00,0x01,0xe7,0x4a,0x69,0x02,0x9a,0x3c,0x00,0x01,0x9a,0x39,0x00,
0x03,0x9a,0x43,0x00,0x02,0xe7,0x22,0x6b,0x01,0x9a,0x40,0x00,0x07,0x97,0x4a,0x00,
0x04,0x94,0x3c,0x00,0x00,0xe7,0x42,0x6d,0x02,0x94,0x40,0x00,0x04,0x94,0x43,0x00,
0x04,0xe7,0x1a,0x6f,0x00,0x99,0x2a,0x3c,0x04,0x99,0x2a,0x00,0x00,0x94,0x2d,0x00,
0x00,0x97,0x4a,0x5e,0x08,0xe7,0x71,0x70,0x0c,0xe7,0x11,0x73,0x0e,0x97,0x4a,0x00,
0x00,0xe7,0x41,0x76,0x08,0xe7,0x18,0x78,0x02,0x99,0x2a,0x3c,0x00,0x94,0x2d,0x48,
0x00,0x9a,0x40,0x78,0x01,0x9a,0x3c,0x5e,0x01,0x9a,0x39,0x48,0x00,0x94,0x3c,0x53,
0x02,0x99,0x2a,0x00,0x00,0x94,0x40,0x5d,0x02,0x97,0x4a,0x66,0x04,0xe7,0x70,0x79,
0x0e,0xe7,0x20,0x7d,0x0c,0xe7,0x7f,0x7f,0x02,0x97,0x4a,0x00,0x0a,0x99,0x23,0x56,
0x00,0x99,0x2a,0x3c,0x04,0x99,0x23,0x00,0x00,0x99,0x2a,0x00,0x04,0x97,0x4a,0x66,
0x20,0x97,0x4a,0x00,0x08,0x99,0x26,0x72,0x00,0x99,0x2a,0x46,0x00,0x99,0x39,0x3e,
0x04,0x99,0x26,0x00,0x00,0x99,0x2a,0x00,0x00,0x99,0x39,0x00,0x05,0x9a,0x3c,0x00,
0x03,0x9a,0x40,0x00,0x00,0x97,0x4a,0x72,0x02,0x9a,0x39,0x00,0x00,0x94,0x3c,0x00,
0x08,0x94,0x2d,0x00,0x00,0x94,0x40,0x00,0x01,0x91,0x21,0x00,0x0e,0x95,0x3c,0x00,
0x0b,0x99,0x2a,0x38,0x04,0x99,0x2a,0x00,0x01,0x95,0x40,0x00,0x07,0xe7,0x63,0x66,
0x08,0xe7,0x00,0x40,0x17,0x95,0x40,0x4c,0x00,0x95,0x43,0x3e,0x02,0x91,0x26,0x78,
0x03,0x99,0x23,0x6c,0x00,0x99,0x2e,0x54,0x00,0x94,0x32,0x57,0x00,0x9a,0x47,0x5e,
0x00,0x9c,0x4c,0x5e,0x00,0x9c,0x4f,0x66,0x00,0x9c,0x53,0x5a,0x01,0x9a,0x43,0x6c,
0x01,0x9a,0x40,0x5e,0x00,0x94,0x40,0x57,0x02,0x99,0x23,0x00,0x00,0x99,0x2e,0x00,
0x00,0x94,0x43,0x57,0x02,0x94,0x47,0x4e,0x04,0x97,0x48,0x72,0x06,0x97,0x4a,0x00,
0x22,0x97,0x48,0x00,0x08,0x97,0x45,0x66,0x2a,0x97,0x45,0x00,0x10,0x97,0x48,0x78,
0x08,0x9a,0x47,0x00,0x04,0x9a,0x40,0x00,0x01,0x9a,0x43,0x00,0x09,0x9c,0x53,0x00,
0x04,0x9c,0x4f,0x00,0x02,0x94,0x32,0x00,0x00,0x9c,0x4c,0x00,0x04,0x94,0x40,0x00,
0x02,0x94,0x47,0x00,0x02,0x94,0x43,0x00,0x04,0xe7,0x0d,0x53,0x06,0x97,0x48,0x00,
0x02,0xe7,0x03,0x60,0x08,0xe7,0x74,0x5e,0x01,0x95,0x43,0x00,0x07,0xe7,0x00,0x40,
0x01,0x95,0x40,0x00,0x06,0x95,0x3e,0x5a,0x00,0x95,0x42,0x56,0x02,0x91,0x1a,0x6c,
0x00,0x91,0x26,0x00,0x03,0x99,0x23,0x6c,0x00,0x99,0x2e,0x49,0x00,0x94,0x32,0x4c,
0x00,0x9a,0x45,0x62,0x00,0x9c,0x4a,0x5a,0x00,0x9c,0x4e,0x62,0x00,0x9c,0x51,0x5a,
0x01,0x9a,0x42,0x72,0x01,0x9a,0x3e,0x6c,0x00,0x94,0x3e,0x4c,0x02,0x99,0x23,0x00,
0x00,0x99,0x2e,0x00,0x00,0x94,0x42,0x53,0x02,0x94,0x45,0x48,0x04,0x97,0x45,0x72,
0x01,0x93,0x4a,0x4e,0x22,0x93,0x4a,0x00,0x04,0x93,0x4c,0x4e,0x2f,0x99,0x26,0x74,
0x01,0x93,0x4c,0x00,0x03,0x99,0x26,0x00,0x05,0x93,0x4f,0x6c,0x13,0x9a,0x45,0x00,
0x05,0x9a,0x42,0x00,0x03,0x9a,0x3e,0x00,0x0e,0x94,0x32,0x00,0x02,0x94,0x42,0x00,
0x00,0x9c,0x4e,0x00,0x02,0x94,0x3e,0x00,0x00,0x94,0x45,0x00,0x04,0x9c,0x51,0x00,
0x04,0x9c,0x4a,0x00,0x0a,0xb7,0x01,0x1b,0x03,0x95,0x3e,0x00,0x04,0x95,0x42,0x00,
0x08,0x93,0x4f,0x00,0x02,0x91,0x1a,0x00,0x02,0x95,0x3c,0x3c,0x00,0x95,0x40,0x48,
0x01,0xb7,0x01,0x33,0x01,0x91,0x26,0x66,0x03,0x99,0x23,0x78,0x00,0x99,0x2e,0x49,
0x00,0x94,0x32,0x4c,0x00,0x9a,0x43,0x48,0x00,0x9c,0x48,0x4c,0x00,0x9c,0x4c,0x5e,
0x00,0x9c,0x4f,0x56,0x01,0x9a,0x40,0x6c,0x01,0x9a,0x3c,0x56,0x00,0x94,0x3c,0x48,
0x01,0x93,0x51,0x68,0x01,0x99,0x23,0x00,0x00,0x99,0x2e,0x00,0x00,0x94,0x40,0x57,
0x02,0x94,0x43,0x4c,0x08,0xb7,0x01,0x4c,0x10,0xb7,0x01,0x58,0x12,0xb7,0x01,0x62,
0x07,0x93,0x51,0x00,0x00,0x93,0x54,0x68,0x19,0x97,0x45,0x00,0x0a,0xb7,0x01,0x00,
0x06,0x99,0x26,0x7a,0x00,0x99,0x2e,0x4f,0x04,0x99,0x26,0x00,0x00,0x99,0x2e,0x00,
0x1c,0x9a,0x3c,0x00,0x02,0x9a,0x43,0x00,0x03,0x9a,0x40,0x00,0x0a,0x93,0x54,0x00,
0x01,0x99,0x26,0x74,0x04,0x99,0x26,0x00,0x02,0x94,0x3c,0x00,0x02,0x94,0x32,0x00,
0x01,0x93,0x51,0x60,0x03,0x94,0x40,0x00,0x04,0x94,0x43,0x00,0x09,0x95,0x3c,0x00,
0x05,0x9c,0x48,0x00,0x08,0x9c,0x4f,0x00,0x02,0x9c,0x4c,0x00,0x01,0x91,0x26,0x00,
0x02,0x95,0x3e,0x4c,0x00,0x95,0x42,0x3e,0x02,0x91,0x1a,0x5e,0x03,0x99,0x26,0x41,
0x00,0x94,0x32,0x53,0x00,0x9a,0x45,0x5a,0x00,0x9c,0x4a,0x5a,0x00,0x9c,0x4e,0x5e,
0x00,0x9c,0x51,0x50,0x01,0x9a,0x42,0x66,0x01,0x9a,0x3e,0x66,0x00,0x94,0x3e,0x4c,
0x02,0x99,0x26,0x00,0x00,0x94,0x42,0x53,0x02,0x94,0x45,0x4c,0x07,0x95,0x40,0x00,
0x23,0x99,0x26,0x4d,0x04,0x99,0x26,0x00,0x17,0xb3,0x01,0x0b,0x12,0xb3,0x01,0x20,
0x03,0x99,0x2f,0x72,0x04,0x99,0x2f,0x00,0x09,0xb3,0x01,0x38,0x12,0xb3,0x01,0x51,
0x10,0xb3,0x01,0x5d,0x01,0x99,0x2b,0x50,0x04,0x99,0x2b,0x00,0x08,0x94,0x3e,0x00,
0x05,0xb3,0x01,0x73,0x01,0x9a,0x3e,0x00,0x0f,0x91,0x1a,0x00,0x00,0xb3,0x01,0x7f,
0x0c,0x91,0x26,0x5e,0x03,0x99,0x2d,0x48,0x00,0x9a,0x3e,0x38,0x00,0x94,0x3e,0x2f,
0x04,0x99,0x2d,0x00,0x00,0x94,0x32,0x00,0x01,0x93,0x51,0x00,0x0e,0xb3,0x01,0x00,
0x04,0x9a,0x42,0x00,0x03,0x9a,0x45,0x00,0x07,0x95,0x3e,0x00,0x01,0x9a,0x3e,0x00,
0x04,0x94,0x42,0x00,0x00,0x9c,0x51,0x00,0x01,0x95,0x42,0x00,0x03,0x94,0x45,0x00,
0x02,0x9c,0x4a,0x00,0x01,0x91,0x1a,0x5e,0x00,0x91,0x26,0x00,0x03,0x99,0x29,0x62,
0x00,0x94,0x32,0x4c,0x00,0x9c,0x4e,0x00,0x04,0x99,0x29,0x00,0x00,0x94,0x3e,0x00,
0x1c,0x94,0x32,0x00,0x01,0x91,0x1a,0x00,0x0c,0x91,0x1a,0x56,0x05,0x9c,0x4e,0x40,
0x02,0x9c,0x45,0x34,0x00,0x9c,0x4a,0x38,0x02,0x9c,0x32,0x48,0x00,0x99,0x39,0x3e,
0x02,0x94,0x32,0x4c,0x02,0x99,0x23,0x5e,0x00,0x94,0x39,0x4e,0x00,0x99,0x39,0x00,
0x02,0x94,0x3e,0x4e,0x02,0x99,0x23,0x00,0x00,0x94,0x42,0x48,0x85,0x34,0x94,0x42,
0x00,0x04,0x94,0x39,0x00,0x04,0x94,0x3e,0x00,0x04,0x94,0x32,0x00,0x1c,0x9c,0x4e,
0x00,0x04,0x9c,0x32,0x00,0x00,0x9c,0x45,0x00,0x02,0x9c,0x4a,0x00,0x0c,0x91,0x1a,
0x00,0x84,0x0f,0xb5,0x78,0x00,0x00,0xb5,0x7b,0x00,0x05,0xbc,0x78,0x00,0x00,0xbc,
0x7b,0x00,0x00,0xb2,0x78,0x00,0x00,0xb2,0x7b,0x00,0x00,0xba,0x78,0x00,0x00,0xba,
0x7b,0x00,0x00,0xb6,0x78,0x00,0x00,0xb6,0x7b,0x00,0x05,0xb8,0x78,0x00,0x00,0xb8,
0x7b,0x00,0x00,0xb3,0x78,0x00,0x00,0xb3,0x7b,0x00,0x2a,0xb4,0x78,0x00,0x00,0xb4,
0x7b,0x00,0x01,0xb9,0x78,0x00,0x01,0xbb,0x78,0x00,0x00,0xbb,0x7b,0x00,0x2c,0xb1,
0x78,0x00,0x00,0xb1,0x7b,0x00,0x05,0xb7,0x78,0x00,0x00,0xb7,0x7b,0x00,0x00,0xff,
0x2f,0x00,
};
