#include <stdint.h>
const uint8_t midifile[] = /*{
0x4d,0x54,0x68,0x64,0x00,0x00,0x00,0x06,0x00,0x01,0x00,0x01,0x01,0xe0,0x4d,0x54,
0x72,0x6b,0x00,0x00,0x00,0xbf,0x00,0xff,0x58,0x04,0x04,0x02,0x18,0x08,0x00,0xff,
0x59,0x02,0x00,0x00,0x00,0xff,0x51,0x03,0x03,0xd0,0x90,0x00,0xb0,0x79,0x00,0x00,
0xc0,0x00,0x00,0xb0,0x07,0x64,0x00,0x0a,0x40,0x00,0x5b,0x00,0x00,0x5d,0x00,0x00,
0xff,0x21,0x01,0x00,0x00,0x90,0x3c,0x50,0x83,0x47,0x3c,0x00,0x19,0x3e,0x50,0x83,
0x47,0x3e,0x00,0x19,0x40,0x50,0x83,0x47,0x40,0x00,0x19,0x40,0x50,0x83,0x47,0x40,
0x00,0x19,0x41,0x50,0x83,0x47,0x41,0x00,0x19,0x43,0x50,0x83,0x47,0x43,0x00,0x19,
0x43,0x50,0x83,0x47,0x43,0x00,0x19,0x45,0x50,0x83,0x47,0x45,0x00,0x19,0x47,0x50,
0x83,0x47,0x47,0x00,0x19,0x48,0x50,0x8a,0x57,0x48,0x00,0x49,0x48,0x50,0x83,0x47,
0x48,0x00,0x19,0x47,0x50,0x83,0x47,0x47,0x00,0x19,0x45,0x50,0x83,0x47,0x45,0x00,
0x19,0x45,0x50,0x83,0x47,0x45,0x00,0x19,0x43,0x50,0x83,0x47,0x43,0x00,0x19,0x41,
0x50,0x83,0x47,0x41,0x00,0x19,0x41,0x50,0x83,0x47,0x41,0x00,0x19,0x40,0x50,0x83,
0x47,0x40,0x00,0x19,0x3e,0x50,0x83,0x47,0x3e,0x00,0x19,0x3c,0x50,0x8a,0x57,0x3c,
0x00,0x01,0xff,0x2f,0x00,
};
*/
{
0x4d,0x54,0x68,0x64,0x00,0x00,0x00,0x06,0x00,0x01,0x00,0x03,0x01,0x80,0x4d,0x54,
0x72,0x6b,0x00,0x00,0x00,0x13,0x00,0xff,0x58,0x04,0x04,0x02,0x18,0x08,0x00,0xff,
0x51,0x03,0x07,0x0a,0xe2,0x00,0xff,0x2f,0x00,0x4d,0x54,0x72,0x6b,0x00,0x00,0x2f,
0xcc,0x00,0xff,0x03,0x15,0x45,0x6c,0x65,0x63,0x2e,0x00,0x50,0x69,0x61,0x6e,0x6f,
0x00,0x28,0x43,0x6c,0x61,0x73,0x73,0x69,0x63,0x29,0x00,0xc0,0x00,0x00,0x90,0x3b,
0x32,0x00,0x90,0x4b,0x32,0x60,0x80,0x4b,0x00,0x00,0x90,0x4c,0x32,0x60,0x80,0x4c,
0x00,0x00,0x90,0x4e,0x32,0x60,0x80,0x3b,0x00,0x60,0x80,0x4e,0x00,0x00,0x90,0x53,
0x32,0x00,0x90,0x3b,0x32,0x81,0x40,0x80,0x53,0x00,0x00,0x90,0x4b,0x32,0x60,0x80,
0x3b,0x00,0x00,0x80,0x4b,0x00,0x00,0x90,0x4c,0x32,0x60,0x80,0x4c,0x00,0x00,0x90,
0x4e,0x32,0x00,0x90,0x3b,0x32,0x60,0x80,0x4e,0x00,0x00,0x90,0x53,0x32,0x60,0x80,
0x53,0x00,0x00,0x90,0x55,0x32,0x60,0x80,0x3b,0x00,0x00,0x80,0x55,0x00,0x00,0x90,
0x57,0x32,0x60,0x80,0x57,0x00,0x00,0x90,0x55,0x32,0x00,0x90,0x3b,0x32,0x60,0x80,
0x55,0x00,0x00,0x90,0x5a,0x32,0x00,0x90,0x52,0x32,0x60,0x80,0x52,0x00,0x00,0x80,
0x5a,0x00,0x00,0x90,0x53,0x32,0x60,0x80,0x3b,0x00,0x60,0x80,0x53,0x00,0x00,0x90,
0x3b,0x32,0x00,0x90,0x4e,0x32,0x81,0x40,0x80,0x4e,0x00,0x00,0x90,0x4b,0x32,0x60,
0x80,0x3b,0x00,0x00,0x80,0x4b,0x00,0x00,0x90,0x4c,0x32,0x60,0x80,0x4c,0x00,0x00,
0x90,0x4e,0x32,0x00,0x90,0x3b,0x32,0x81,0x40,0x80,0x4e,0x00,0x00,0x90,0x53,0x32,
0x60,0x80,0x3b,0x00,0x60,0x80,0x53,0x00,0x00,0x90,0x3b,0x32,0x00,0x90,0x55,0x32,
0x60,0x80,0x55,0x00,0x00,0x90,0x52,0x32,0x60,0x80,0x52,0x00,0x00,0x90,0x53,0x32,
0x60,0x80,0x3b,0x00,0x00,0x80,0x53,0x00,0x00,0x90,0x55,0x32,0x60,0x80,0x55,0x00,
0x00,0x90,0x3b,0x32,0x00,0x90,0x58,0x32,0x60,0x80,0x58,0x00,0x00,0x90,0x57,0x32,
0x60,0x80,0x57,0x00,0x00,0x90,0x58,0x32,0x60,0x80,0x58,0x00,0x00,0x80,0x3b,0x00,
0x00,0x90,0x55,0x32,0x60,0x80,0x55,0x00,0x00,0x90,0x4e,0x32,0x00,0x90,0x28,0x32,
0x81,0x40,0x80,0x4e,0x00,0x00,0x80,0x28,0x00,0x00,0x90,0x34,0x32,0x00,0x90,0x50,
0x32,0x81,0x40,0x80,0x34,0x00,0x00,0x80,0x50,0x00,0x00,0x90,0x4b,0x32,0x00,0x90,
0x2a,0x32,0x60,0x80,0x4b,0x00,0x00,0x90,0x4b,0x32,0x60,0x80,0x4b,0x00,0x00,0x80,
0x2a,0x00,0x00,0x90,0x36,0x32,0x60,0x90,0x47,0x32,0x60,0x80,0x36,0x00,0x00,0x80,
0x47,0x00,0x00,0x90,0x27,0x32,0x00,0x90,0x4a,0x32,0x60,0x80,0x4a,0x00,0x00,0x90,
0x49,0x32,0x60,0x80,0x27,0x00,0x00,0x80,0x49,0x00,0x00,0x90,0x47,0x32,0x00,0x90,
0x33,0x32,0x60,0x80,0x47,0x00,0x60,0x80,0x33,0x00,0x00,0x90,0x47,0x32,0x00,0x90,
0x2c,0x32,0x81,0x40,0x80,0x47,0x00,0x00,0x80,0x2c,0x00,0x00,0x90,0x38,0x32,0x00,
0x90,0x49,0x32,0x81,0x40,0x80,0x49,0x00,0x00,0x80,0x38,0x00,0x00,0x90,0x4a,0x32,
0x00,0x90,0x25,0x32,0x81,0x40,0x80,0x4a,0x00,0x00,0x80,0x25,0x00,0x00,0x90,0x31,
0x32,0x00,0x90,0x4a,0x32,0x60,0x80,0x4a,0x00,0x00,0x90,0x49,0x32,0x60,0x80,0x31,
0x00,0x00,0x80,0x49,0x00,0x00,0x90,0x47,0x32,0x00,0x90,0x2a,0x32,0x60,0x80,0x47,
0x00,0x00,0x90,0x49,0x32,0x60,0x80,0x2a,0x00,0x00,0x80,0x49,0x00,0x00,0x90,0x36,
0x32,0x00,0x90,0x4b,0x32,0x60,0x80,0x4b,0x00,0x00,0x90,0x4e,0x32,0x60,0x80,0x36,
0x00,0x00,0x80,0x4e,0x00,0x00,0x90,0x23,0x32,0x00,0x90,0x50,0x32,0x60,0x80,0x50,
0x00,0x00,0x90,0x4b,0x32,0x60,0x80,0x23,0x00,0x00,0x80,0x4b,0x00,0x00,0x90,0x4e,
0x32,0x00,0x90,0x2f,0x32,0x60,0x80,0x4e,0x00,0x00,0x90,0x49,0x32,0x60,0x80,0x2f,
0x00,0x00,0x80,0x49,0x00,0x00,0x90,0x23,0x32,0x00,0x90,0x4b,0x32,0x60,0x80,0x4b,
0x00,0x00,0x90,0x47,0x32,0x60,0x80,0x23,0x00,0x00,0x80,0x47,0x00,0x00,0x90,0x2f,
0x32,0x00,0x90,0x49,0x32,0x60,0x80,0x49,0x00,0x00,0x90,0x47,0x32,0x60,0x80,0x2f,
0x00,0x00,0x80,0x47,0x00,0x00,0x90,0x4b,0x32,0x00,0x90,0x28,0x32,0x81,0x40,0x80,
0x4b,0x00,0x00,0x80,0x28,0x00,0x00,0x90,0x34,0x32,0x00,0x90,0x4e,0x32,0x81,0x40,
0x80,0x4e,0x00,0x00,0x80,0x34,0x00,0x00,0x90,0x50,0x32,0x00,0x90,0x2a,0x32,0x60,
0x80,0x50,0x00,0x00,0x90,0x4b,0x32,0x60,0x80,0x4b,0x00,0x00,0x80,0x2a,0x00,0x00,
0x90,0x36,0x32,0x00,0x90,0x4e,0x32,0x60,0x80,0x4e,0x00,0x00,0x90,0x49,0x32,0x60,
0x80,0x36,0x00,0x00,0x80,0x49,0x00,0x00,0x90,0x4b,0x32,0x00,0x90,0x27,0x32,0x60,
0x80,0x4b,0x00,0x00,0x90,0x47,0x32,0x60,0x80,0x27,0x00,0x00,0x80,0x47,0x00,0x00,
0x90,0x4a,0x32,0x00,0x90,0x33,0x32,0x60,0x80,0x4a,0x00,0x00,0x90,0x4b,0x32,0x60,
0x80,0x33,0x00,0x00,0x80,0x4b,0x00,0x00,0x90,0x2c,0x32,0x00,0x90,0x4a,0x32,0x60,
0x80,0x4a,0x00,0x00,0x90,0x49,0x32,0x60,0x80,0x2c,0x00,0x00,0x80,0x49,0x00,0x00,
0x90,0x38,0x32,0x00,0x90,0x47,0x32,0x60,0x80,0x47,0x00,0x00,0x90,0x49,0x32,0x60,
0x80,0x38,0x00,0x00,0x80,0x49,0x00,0x00,0x90,0x25,0x32,0x00,0x90,0x4a,0x32,0x81,
0x40,0x80,0x4a,0x00,0x00,0x80,0x25,0x00,0x00,0x90,0x31,0x32,0x00,0x90,0x47,0x32,
0x60,0x80,0x47,0x00,0x00,0x90,0x49,0x32,0x60,0x80,0x31,0x00,0x00,0x80,0x49,0x00,
0x00,0x90,0x4b,0x32,0x00,0x90,0x2a,0x32,0x60,0x80,0x4b,0x00,0x00,0x90,0x4e,0x32,
0x60,0x80,0x4e,0x00,0x00,0x80,0x2a,0x00,0x00,0x90,0x36,0x32,0x00,0x90,0x49,0x32,
0x60,0x80,0x49,0x00,0x00,0x90,0x4b,0x32,0x60,0x80,0x36,0x00,0x00,0x80,0x4b,0x00,
0x00,0x90,0x23,0x32,0x00,0x90,0x49,0x32,0x60,0x80,0x49,0x00,0x00,0x90,0x47,0x32,
0x60,0x80,0x23,0x00,0x00,0x80,0x47,0x00,0x00,0x90,0x49,0x32,0x00,0x90,0x2f,0x32,
0x81,0x40,0x80,0x2f,0x00,0x00,0x80,0x49,0x00,0x00,0x90,0x47,0x32,0x00,0x90,0x23,
0x32,0x81,0x40,0x80,0x23,0x00,0x00,0x80,0x47,0x00,0x00,0x90,0x49,0x32,0x00,0x90,
0x2f,0x32,0x81,0x40,0x80,0x49,0x00,0x00,0x80,0x2f,0x00,0x00,0x90,0x4e,0x32,0x00,
0x90,0x28,0x32,0x81,0x40,0x80,0x28,0x00,0x00,0x80,0x4e,0x00,0x00,0x90,0x50,0x32,
0x00,0x90,0x34,0x32,0x81,0x40,0x80,0x34,0x00,0x00,0x80,0x50,0x00,0x00,0x90,0x2a,
0x32,0x00,0x90,0x4b,0x32,0x60,0x80,0x4b,0x00,0x00,0x90,0x4b,0x32,0x60,0x80,0x4b,
0x00,0x00,0x80,0x2a,0x00,0x00,0x90,0x36,0x32,0x60,0x90,0x47,0x32,0x60,0x80,0x36,
0x00,0x00,0x80,0x47,0x00,0x00,0x90,0x4a,0x32,0x00,0x90,0x27,0x32,0x60,0x80,0x4a,
0x00,0x00,0x90,0x49,0x32,0x60,0x80,0x27,0x00,0x00,0x80,0x49,0x00,0x00,0x90,0x33,
0x32,0x00,0x90,0x47,0x32,0x60,0x80,0x47,0x00,0x60,0x80,0x33,0x00,0x00,0x90,0x2c,
0x32,0x00,0x90,0x47,0x32,0x81,0x40,0x80,0x47,0x00,0x00,0x80,0x2c,0x00,0x00,0x90,
0x49,0x32,0x00,0x90,0x38,0x32,0x81,0x40,0x80,0x49,0x00,0x00,0x80,0x38,0x00,0x00,
0x90,0x25,0x32,0x00,0x90,0x4a,0x32,0x81,0x40,0x80,0x4a,0x00,0x00,0x80,0x25,0x00,
0x00,0x90,0x31,0x32,0x00,0x90,0x4a,0x32,0x60,0x80,0x4a,0x00,0x00,0x90,0x49,0x32,
0x60,0x80,0x31,0x00,0x00,0x80,0x49,0x00,0x00,0x90,0x2a,0x32,0x00,0x90,0x47,0x32,
0x60,0x80,0x47,0x00,0x00,0x90,0x49,0x32,0x60,0x80,0x2a,0x00,0x00,0x80,0x49,0x00,
0x00,0x90,0x36,0x32,0x00,0x90,0x4b,0x32,0x60,0x80,0x4b,0x00,0x00,0x90,0x4e,0x32,
0x60,0x80,0x36,0x00,0x00,0x80,0x4e,0x00,0x00,0x90,0x50,0x32,0x00,0x90,0x23,0x32,
0x60,0x80,0x50,0x00,0x00,0x90,0x4b,0x32,0x60,0x80,0x23,0x00,0x00,0x80,0x4b,0x00,
0x00,0x90,0x4e,0x32,0x00,0x90,0x2f,0x32,0x60,0x80,0x4e,0x00,0x00,0x90,0x49,0x32,
0x60,0x80,0x2f,0x00,0x00,0x80,0x49,0x00,0x00,0x90,0x4b,0x32,0x00,0x90,0x23,0x32,
0x60,0x80,0x4b,0x00,0x00,0x90,0x47,0x32,0x60,0x80,0x23,0x00,0x00,0x80,0x47,0x00,
0x00,0x90,0x2f,0x32,0x00,0x90,0x49,0x32,0x60,0x80,0x49,0x00,0x00,0x90,0x47,0x32,
0x60,0x80,0x2f,0x00,0x00,0x80,0x47,0x00,0x00,0x90,0x4b,0x32,0x00,0x90,0x28,0x32,
0x81,0x40,0x80,0x28,0x00,0x00,0x80,0x4b,0x00,0x00,0x90,0x34,0x32,0x00,0x90,0x4e,
0x32,0x81,0x40,0x80,0x4e,0x00,0x00,0x80,0x34,0x00,0x00,0x90,0x2a,0x32,0x00,0x90,
0x50,0x32,0x60,0x80,0x50,0x00,0x00,0x90,0x4b,0x32,0x60,0x80,0x2a,0x00,0x00,0x80,
0x4b,0x00,0x00,0x90,0x4e,0x32,0x00,0x90,0x36,0x32,0x60,0x80,0x4e,0x00,0x00,0x90,
0x49,0x32,0x60,0x80,0x36,0x00,0x00,0x80,0x49,0x00,0x00,0x90,0x4b,0x32,0x00,0x90,
0x27,0x32,0x60,0x80,0x4b,0x00,0x00,0x90,0x47,0x32,0x60,0x80,0x27,0x00,0x00,0x80,
0x47,0x00,0x00,0x90,0x4a,0x32,0x00,0x90,0x33,0x32,0x60,0x80,0x4a,0x00,0x00,0x90,
0x4b,0x32,0x60,0x80,0x33,0x00,0x00,0x80,0x4b,0x00,0x00,0x90,0x2c,0x32,0x00,0x90,
0x4a,0x32,0x60,0x80,0x4a,0x00,0x00,0x90,0x49,0x32,0x60,0x80,0x2c,0x00,0x00,0x80,
0x49,0x00,0x00,0x90,0x38,0x32,0x00,0x90,0x47,0x32,0x60,0x80,0x47,0x00,0x00,0x90,
0x49,0x32,0x60,0x80,0x38,0x00,0x00,0x80,0x49,0x00,0x00,0x90,0x25,0x32,0x00,0x90,
0x4a,0x32,0x81,0x40,0x80,0x4a,0x00,0x00,0x80,0x25,0x00,0x00,0x90,0x31,0x32,0x00,
0x90,0x47,0x32,0x60,0x80,0x47,0x00,0x00,0x90,0x49,0x32,0x60,0x80,0x31,0x00,0x00,
0x80,0x49,0x00,0x00,0x90,0x2a,0x32,0x00,0x90,0x4b,0x32,0x60,0x80,0x4b,0x00,0x00,
0x90,0x4e,0x32,0x60,0x80,0x2a,0x00,0x00,0x80,0x4e,0x00,0x00,0x90,0x49,0x32,0x00,
0x90,0x36,0x32,0x60,0x80,0x49,0x00,0x00,0x90,0x4b,0x32,0x60,0x80,0x4b,0x00,0x00,
0x80,0x36,0x00,0x00,0x90,0x49,0x32,0x00,0x90,0x23,0x32,0x60,0x80,0x49,0x00,0x00,
0x90,0x47,0x32,0x60,0x80,0x23,0x00,0x00,0x80,0x47,0x00,0x00,0x90,0x49,0x32,0x00,
0x90,0x2f,0x32,0x81,0x40,0x80,0x2f,0x00,0x00,0x80,0x49,0x00,0x00,0x90,0x23,0x32,
0x00,0x90,0x47,0x32,0x81,0x40,0x80,0x47,0x00,0x00,0x80,0x23,0x00,0x00,0x90,0x49,
0x32,0x00,0x90,0x2f,0x32,0x81,0x40,0x80,0x49,0x00,0x00,0x80,0x2f,0x00,0x00,0x90,
0x34,0x32,0x00,0x90,0x47,0x32,0x81,0x40,0x80,0x47,0x00,0x00,0x80,0x34,0x00,0x00,
0x90,0x42,0x32,0x00,0x90,0x38,0x32,0x60,0x80,0x42,0x00,0x00,0x90,0x44,0x32,0x60,
0x80,0x44,0x00,0x00,0x80,0x38,0x00,0x00,0x90,0x47,0x32,0x00,0x90,0x3b,0x32,0x81,
0x40,0x80,0x3b,0x00,0x00,0x80,0x47,0x00,0x00,0x90,0x42,0x32,0x00,0x90,0x40,0x32,
0x60,0x80,0x42,0x00,0x00,0x90,0x44,0x32,0x60,0x80,0x40,0x00,0x00,0x80,0x44,0x00,
0x00,0x90,0x47,0x32,0x00,0x90,0x33,0x32,0x60,0x80,0x47,0x00,0x00,0x90,0x49,0x32,
0x60,0x80,0x33,0x00,0x00,0x80,0x49,0x00,0x00,0x90,0x4b,0x32,0x00,0x90,0x36,0x32,
0x60,0x80,0x4b,0x00,0x00,0x90,0x47,0x32,0x60,0x80,0x47,0x00,0x00,0x80,0x36,0x00,
0x00,0x90,0x4c,0x32,0x00,0x90,0x3b,0x32,0x60,0x80,0x4c,0x00,0x00,0x90,0x4b,0x32,
0x60,0x80,0x3b,0x00,0x00,0x80,0x4b,0x00,0x00,0x90,0x3f,0x32,0x00,0x90,0x4c,0x32,
0x60,0x80,0x4c,0x00,0x00,0x90,0x4e,0x32,0x60,0x80,0x4e,0x00,0x00,0x80,0x3f,0x00,
0x00,0x90,0x31,0x32,0x00,0x90,0x47,0x32,0x81,0x40,0x80,0x47,0x00,0x00,0x80,0x31,
0x00,0x00,0x90,0x47,0x32,0x00,0x90,0x34,0x32,0x81,0x40,0x80,0x34,0x00,0x00,0x80,
0x47,0x00,0x00,0x90,0x38,0x32,0x00,0x90,0x42,0x32,0x60,0x80,0x42,0x00,0x00,0x90,
0x44,0x32,0x60,0x80,0x38,0x00,0x00,0x80,0x44,0x00,0x00,0x90,0x47,0x32,0x00,0x90,
0x3b,0x32,0x60,0x80,0x47,0x00,0x00,0x90,0x42,0x32,0x60,0x80,0x3b,0x00,0x00,0x80,
0x42,0x00,0x00,0x90,0x4c,0x32,0x00,0x90,0x2f,0x32,0x60,0x80,0x4c,0x00,0x00,0x90,
0x4b,0x32,0x60,0x80,0x2f,0x00,0x00,0x80,0x4b,0x00,0x00,0x90,0x49,0x32,0x00,0x90,
0x33,0x32,0x60,0x80,0x49,0x00,0x00,0x90,0x47,0x32,0x60,0x80,0x33,0x00,0x00,0x80,
0x47,0x00,0x00,0x90,0x36,0x32,0x00,0x90,0x42,0x32,0x60,0x80,0x42,0x00,0x00,0x90,
0x3f,0x32,0x60,0x80,0x36,0x00,0x00,0x80,0x3f,0x00,0x00,0x90,0x3b,0x32,0x00,0x90,
0x40,0x32,0x60,0x80,0x40,0x00,0x00,0x90,0x42,0x32,0x60,0x80,0x3b,0x00,0x00,0x80,
0x42,0x00,0x00,0x90,0x34,0x32,0x00,0x90,0x47,0x32,0x81,0x40,0x80,0x34,0x00,0x00,
0x80,0x47,0x00,0x00,0x90,0x42,0x32,0x00,0x90,0x38,0x32,0x60,0x80,0x42,0x00,0x00,
0x90,0x44,0x32,0x60,0x80,0x38,0x00,0x00,0x80,0x44,0x00,0x00,0x90,0x47,0x32,0x00,
0x90,0x3b,0x32,0x81,0x40,0x80,0x3b,0x00,0x00,0x80,0x47,0x00,0x00,0x90,0x40,0x32,
0x00,0x90,0x42,0x32,0x60,0x80,0x42,0x00,0x00,0x90,0x44,0x32,0x60,0x80,0x40,0x00,
0x00,0x80,0x44,0x00,0x00,0x90,0x33,0x32,0x00,0x90,0x47,0x32,0x60,0x80,0x47,0x00,
0x00,0x90,0x47,0x32,0x60,0x80,0x33,0x00,0x00,0x80,0x47,0x00,0x00,0x90,0x49,0x32,
0x00,0x90,0x36,0x32,0x60,0x80,0x49,0x00,0x00,0x90,0x4b,0x32,0x60,0x80,0x36,0x00,
0x00,0x80,0x4b,0x00,0x00,0x90,0x47,0x32,0x00,0x90,0x3b,0x32,0x60,0x80,0x47,0x00,
0x00,0x90,0x42,0x32,0x60,0x80,0x3b,0x00,0x00,0x80,0x42,0x00,0x00,0x90,0x44,0x32,
0x00,0x90,0x3f,0x32,0x60,0x80,0x44,0x00,0x00,0x90,0x42,0x32,0x60,0x80,0x3f,0x00,
0x00,0x80,0x42,0x00,0x00,0x90,0x31,0x32,0x00,0x90,0x47,0x32,0x81,0x40,0x80,0x47,
0x00,0x00,0x80,0x31,0x00,0x00,0x90,0x47,0x32,0x00,0x90,0x34,0x32,0x60,0x80,0x47,
0x00,0x00,0x90,0x46,0x32,0x60,0x80,0x46,0x00,0x00,0x80,0x34,0x00,0x00,0x90,0x47,
0x32,0x00,0x90,0x38,0x32,0x60,0x80,0x47,0x00,0x00,0x90,0x42,0x32,0x60,0x80,0x38,
0x00,0x00,0x80,0x42,0x00,0x00,0x90,0x44,0x32,0x00,0x90,0x3b,0x32,0x60,0x80,0x44,
0x00,0x00,0x90,0x47,0x32,0x60,0x80,0x3b,0x00,0x00,0x80,0x47,0x00,0x00,0x90,0x2f,
0x32,0x00,0x90,0x4c,0x32,0x60,0x80,0x4c,0x00,0x00,0x90,0x4b,0x32,0x60,0x80,0x2f,
0x00,0x00,0x80,0x4b,0x00,0x00,0x90,0x33,0x32,0x00,0x90,0x4c,0x32,0x60,0x80,0x4c,
0x00,0x00,0x90,0x4e,0x32,0x60,0x80,0x33,0x00,0x00,0x80,0x4e,0x00,0x00,0x90,0x47,
0x32,0x00,0x90,0x36,0x32,0x81,0x40,0x80,0x36,0x00,0x00,0x80,0x47,0x00,0x00,0x90,
0x46,0x32,0x00,0x90,0x3b,0x32,0x81,0x40,0x80,0x3b,0x00,0x00,0x80,0x46,0x00,0x00,
0x90,0x47,0x32,0x00,0x90,0x34,0x32,0x81,0x40,0x80,0x34,0x00,0x00,0x80,0x47,0x00,
0x00,0x90,0x42,0x32,0x00,0x90,0x38,0x32,0x60,0x80,0x42,0x00,0x00,0x90,0x44,0x32,
0x60,0x80,0x38,0x00,0x00,0x80,0x44,0x00,0x00,0x90,0x3b,0x32,0x00,0x90,0x47,0x32,
0x81,0x40,0x80,0x3b,0x00,0x00,0x80,0x47,0x00,0x00,0x90,0x42,0x32,0x00,0x90,0x40,
0x32,0x60,0x80,0x42,0x00,0x00,0x90,0x44,0x32,0x60,0x80,0x40,0x00,0x00,0x80,0x44,
0x00,0x00,0x90,0x47,0x32,0x00,0x90,0x33,0x32,0x60,0x80,0x47,0x00,0x00,0x90,0x49,
0x32,0x60,0x80,0x33,0x00,0x00,0x80,0x49,0x00,0x00,0x90,0x36,0x32,0x00,0x90,0x4b,
0x32,0x60,0x80,0x4b,0x00,0x00,0x90,0x47,0x32,0x60,0x80,0x36,0x00,0x00,0x80,0x47,
0x00,0x00,0x90,0x4c,0x32,0x00,0x90,0x3b,0x32,0x60,0x80,0x4c,0x00,0x00,0x90,0x4b,
0x32,0x60,0x80,0x3b,0x00,0x00,0x80,0x4b,0x00,0x00,0x90,0x4c,0x32,0x00,0x90,0x3f,
0x32,0x60,0x80,0x4c,0x00,0x00,0x90,0x4e,0x32,0x60,0x80,0x3f,0x00,0x00,0x80,0x4e,
0x00,0x00,0x90,0x31,0x32,0x00,0x90,0x47,0x32,0x81,0x40,0x80,0x47,0x00,0x00,0x80,
0x31,0x00,0x00,0x90,0x47,0x32,0x00,0x90,0x34,0x32,0x81,0x40,0x80,0x34,0x00,0x00,
0x80,0x47,0x00,0x00,0x90,0x38,0x32,0x00,0x90,0x42,0x32,0x60,0x80,0x42,0x00,0x00,
0x90,0x44,0x32,0x60,0x80,0x44,0x00,0x00,0x80,0x38,0x00,0x00,0x90,0x47,0x32,0x00,
0x90,0x3b,0x32,0x60,0x80,0x47,0x00,0x00,0x90,0x42,0x32,0x60,0x80,0x3b,0x00,0x00,
0x80,0x42,0x00,0x00,0x90,0x2f,0x32,0x00,0x90,0x4c,0x32,0x60,0x80,0x4c,0x00,0x00,
0x90,0x4b,0x32,0x60,0x80,0x4b,0x00,0x00,0x80,0x2f,0x00,0x00,0x90,0x49,0x32,0x00,
0x90,0x33,0x32,0x60,0x80,0x49,0x00,0x00,0x90,0x47,0x32,0x00,0x90,0x4a,0x32,0x60,
0x80,0x33,0x00,0x00,0x80,0x4a,0x00,0x00,0x80,0x47,0x00,0x00,0x90,0x36,0x32,0x00,
0x90,0x42,0x32,0x60,0x80,0x42,0x00,0x00,0x90,0x3f,0x32,0x60,0x80,0x36,0x00,0x00,
0x80,0x3f,0x00,0x00,0x90,0x3b,0x32,0x00,0x90,0x40,0x32,0x60,0x80,0x40,0x00,0x00,0x90,0x42,0x32,0x60,0x80,0x3b,0x00,0x00,0x80,0x42,0x00,0x00,0x90,0x47,0x32,0x00,0x90,0x34,0x32,0x81,0x40,0x80,0x34,0x00,0x00,0x80,0x47,0x00,0x00,0x90,0x38,0x32,0x00,0x90,0x42,0x32,0x60,0x80,0x42,0x00,0x00,0x90,0x44,0x32,0x60,0x80,0x44,0x00,0x00,0x80,0x38,0x00,0x00,0x90,0x47,0x32,0x00,0x90,0x3b,0x32,0x81,0x40,0x80,0x3b,0x00,0x00,0x80,0x47,0x00,0x00,0x90,0x40,0x32,0x00,0x90,0x42,0x32,0x60,0x80,0x42,0x00,0x00,0x90,0x44,0x32,0x60,0x80,0x40,0x00,0x00,0x80,0x44,0x00,0x00,0x90,0x47,0x32,0x00,0x90,0x33,0x32,0x60,0x80,0x47,0x00,0x00,0x90,0x47,0x32,0x60,0x80,0x33,0x00,0x00,0x80,0x47,0x00,0x00,0x90,0x49,0x32,0x00,0x90,0x36,0x32,0x60,0x80,0x49,0x00,0x00,0x90,0x4b,0x32,0x60,0x80,0x36,0x00,0x00,0x80,0x4b,0x00,0x00,0x90,0x3b,0x32,0x00,0x90,0x47,0x32,0x60,0x80,0x47,0x00,0x00,0x90,0x42,0x32,0x60,0x80,0x3b,0x00,0x00,0x80,0x42,0x00,0x00,0x90,0x44,0x32,0x00,0x90,0x3f,0x32,0x60,0x80,0x44,0x00,0x00,0x90,0x42,0x32,0x60,0x80,0x3f,0x00,0x00,0x80,0x42,0x00,0x00,0x90,0x31,0x32,0x00,0x90,0x47,0x32,0x81,0x40,0x80,0x31,0x00,0x00,0x80,0x47,0x00,0x00,0x90,0x34,0x32,0x00,0x90,0x47,0x32,0x60,0x80,0x47,0x00,0x00,0x90,0x46,0x32,0x60,0x80,0x46,0x00,0x00,0x80,0x34,0x00,0x00,0x90,0x47,0x32,0x00,0x90,0x38,0x32,0x60,0x80,0x47,0x00,0x00,0x90,0x42,0x32,0x60,0x80,0x38,0x00,0x00,0x80,0x42,0x00,0x00,0x90,0x3b,0x32,0x00,0x90,0x44,0x32,0x60,0x80,0x44,0x00,0x00,0x90,0x47,0x32,0x60,0x80,0x3b,0x00,0x00,0x80,0x47,0x00,0x00,0x90,0x4c,0x32,0x00,0x90,0x2f,0x32,0x60,0x80,0x4c,0x00,0x00,0x90,0x4b,0x32,0x60,0x80,0x2f,0x00,0x00,0x80,0x4b,0x00,0x00,0x90,0x33,0x32,0x00,0x90,0x4c,0x32,0x60,0x80,0x4c,0x00,0x00,0x90,0x4e,0x32,0x60,0x80,0x33,0x00,0x00,0x80,0x4e,0x00,0x00,0x90,0x47,0x32,0x00,0x90,0x36,0x32,0x81,0x40,0x80,0x36,0x00,0x00,0x80,0x47,0x00,0x00,0x90,0x3b,0x32,0x00,0x90,0x49,0x32,0x81,0x40,0x80,0x49,0x00,0x00,0x80,0x3b,0x00,0x00,0x90,0x4b,0x32,0x00,0x90,0x3b,0x32,0x60,0x80,0x4b,0x00,0x00,0x90,0x4c,0x32,0x60,0x80,0x4c,0x00,0x00,0x90,0x4e,0x32,0x60,0x80,0x3b,0x00,0x60,0x80,0x4e,0x00,0x00,0x90,0x53,0x32,0x00,0x90,0x3b,0x32,0x81,0x40,0x80,0x53,0x00,0x00,0x90,0x4b,0x32,0x60,0x80,0x4b,0x00,0x00,0x80,0x3b,0x00,0x00,0x90,0x4c,0x32,0x60,0x80,0x4c,0x00,0x00,0x90,0x4e,0x32,0x00,0x90,0x3b,0x32,0x60,0x80,0x4e,0x00,0x00,0x90,0x53,0x32,0x60,0x80,0x53,0x00,0x00,0x90,0x55,0x32,0x60,0x80,0x55,0x00,0x00,0x80,0x3b,0x00,0x00,0x90,0x57,0x32,0x60,0x80,0x57,0x00,0x00,0x90,0x55,0x32,0x00,0x90,0x3b,0x32,0x60,0x80,0x55,0x00,0x00,0x90,0x5a,0x32,0x00,0x90,0x52,0x32,0x60,0x80,0x5a,0x00,0x00,0x80,0x52,0x00,0x00,0x90,0x53,0x32,0x60,0x80,0x3b,0x00,0x60,0x80,0x53,0x00,0x00,0x90,0x4e,0x32,0x00,0x90,0x3b,0x32,0x81,0x40,0x80,0x4e,0x00,0x00,0x90,0x4b,0x32,0x60,0x80,0x3b,0x00,0x00,0x80,0x4b,0x00,0x00,0x90,0x4c,0x32,0x60,0x80,0x4c,0x00,0x00,0x90,0x4e,0x32,0x00,0x90,0x3b,0x32,0x81,0x40,0x80,0x4e,0x00,0x00,0x90,0x53,0x32,0x60,0x80,0x3b,0x00,0x60,0x80,0x53,0x00,0x00,0x90,0x3b,0x32,0x00,0x90,0x55,0x32,0x60,0x80,0x55,0x00,0x00,0x90,0x52,0x32,0x60,0x80,0x52,0x00,0x00,0x90,0x53,0x32,0x60,0x80,0x3b,0x00,0x00,0x80,0x53,0x00,0x00,0x90,0x55,0x32,0x60,0x80,0x55,0x00,0x00,0x90,0x58,0x32,0x00,0x90,0x3b,0x32,0x60,0x80,0x58,0x00,0x00,0x90,0x57,0x32,0x60,0x80,0x57,0x00,0x00,0x90,0x58,0x32,0x60,0x80,0x3b,0x00,0x00,0x80,0x58,0x00,0x00,0x90,0x55,0x32,0x60,0x80,0x55,0x00,0x00,0x90,0x4e,0x32,0x00,0x90,0x28,0x32,0x81,0x40,0x80,0x4e,0x00,0x00,0x80,0x28,0x00,0x00,0x90,0x50,0x32,0x00,0x90,0x34,0x32,0x81,0x40,0x80,0x34,0x00,0x00,0x80,0x50,0x00,0x00,0x90,0x4b,0x32,0x00,0x90,0x2a,0x32,0x60,0x80,0x4b,0x00,0x00,0x90,0x4b,0x32,0x60,0x80,0x2a,0x00,0x00,0x80,0x4b,0x00,0x00,0x90,0x36,0x32,0x60,0x90,0x47,0x32,0x60,0x80,0x36,0x00,0x00,0x80,0x47,0x00,0x00,0x90,0x27,0x32,0x00,0x90,0x4a,0x32,0x60,0x80,0x4a,0x00,0x00,0x90,0x49,0x32,0x60,0x80,0x27,0x00,0x00,0x80,0x49,0x00,0x00,0x90,0x47,0x32,0x00,0x90,0x33,0x32,0x60,0x80,0x47,0x00,0x60,0x80,0x33,0x00,0x00,0x90,0x47,0x32,0x00,0x90,0x2c,0x32,0x81,0x40,0x80,0x47,0x00,0x00,0x80,0x2c,0x00,0x00,0x90,0x38,0x32,0x00,0x90,0x49,0x32,0x81,0x40,0x80,0x49,0x00,0x00,0x80,0x38,0x00,0x00,0x90,0x4a,0x32,0x00,0x90,0x25,0x32,0x81,0x40,0x80,0x4a,0x00,0x00,0x80,0x25,0x00,0x00,0x90,0x31,0x32,0x00,0x90,0x4a,0x32,0x60,0x80,0x4a,0x00,0x00,0x90,0x49,0x32,0x60,0x80,0x31,0x00,0x00,0x80,0x49,0x00,0x00,0x90,0x47,0x32,0x00,0x90,0x2a,0x32,0x60,0x80,0x47,0x00,0x00,0x90,0x49,0x32,0x60,0x80,0x2a,0x00,0x00,0x80,0x49,0x00,0x00,0x90,0x36,0x32,0x00,0x90,0x4b,0x32,0x60,0x80,0x4b,0x00,0x00,0x90,0x4e,0x32,0x60,0x80,0x36,0x00,0x00,0x80,0x4e,0x00,0x00,0x90,0x23,0x32,0x00,0x90,0x50,0x32,0x60,0x80,0x50,0x00,0x00,0x90,0x4b,0x32,0x60,0x80,0x23,0x00,0x00,0x80,0x4b,0x00,0x00,0x90,0x4e,0x32,0x00,0x90,0x2f,0x32,0x60,0x80,0x4e,0x00,0x00,0x90,0x49,0x32,0x60,0x80,0x2f,0x00,0x00,0x80,0x49,0x00,0x00,0x90,0x23,0x32,0x00,0x90,0x4b,0x32,0x60,0x80,0x4b,0x00,0x00,0x90,0x47,0x32,0x60,0x80,0x23,0x00,0x00,0x80,0x47,0x00,0x00,0x90,0x2f,0x32,0x00,0x90,0x49,0x32,0x60,0x80,0x49,0x00,0x00,0x90,0x47,0x32,0x60,0x80,0x2f,0x00,0x00,0x80,0x47,0x00,0x00,0x90,0x4b,0x32,0x00,0x90,0x28,0x32,0x81,0x40,0x80,0x4b,0x00,0x00,0x80,0x28,0x00,0x00,0x90,0x34,0x32,0x00,0x90,0x4e,0x32,0x81,0x40,0x80,0x4e,0x00,0x00,0x80,0x34,0x00,0x00,0x90,0x50,0x32,0x00,0x90,0x2a,0x32,0x60,0x80,0x50,0x00,0x00,0x90,0x4b,0x32,0x60,0x80,0x4b,0x00,0x00,0x80,0x2a,0x00,0x00,0x90,0x36,0x32,0x00,0x90,0x4e,0x32,0x60,0x80,0x4e,0x00,0x00,0x90,0x49,0x32,0x60,0x80,0x36,0x00,0x00,0x80,0x49,0x00,0x00,0x90,0x4b,0x32,0x00,0x90,0x27,0x32,0x60,0x80,0x4b,0x00,0x00,0x90,0x47,0x32,0x60,0x80,0x27,0x00,0x00,0x80,0x47,0x00,0x00,0x90,0x4a,0x32,0x00,0x90,0x33,0x32,0x60,0x80,0x4a,0x00,0x00,0x90,0x4b,0x32,0x60,0x80,0x33,0x00,0x00,0x80,0x4b,0x00,0x00,0x90,0x2c,0x32,0x00,0x90,0x4a,0x32,0x60,0x80,0x4a,0x00,0x00,0x90,0x49,0x32,0x60,0x80,0x2c,0x00,0x00,0x80,0x49,0x00,0x00,0x90,0x47,0x32,0x00,0x90,0x38,0x32,0x60,0x80,0x47,0x00,0x00,0x90,0x49,0x32,0x60,0x80,0x38,0x00,0x00,0x80,0x49,0x00,0x00,0x90,0x25,0x32,0x00,0x90,0x4a,0x32,0x81,0x40,0x80,0x4a,0x00,0x00,0x80,0x25,0x00,0x00,0x90,0x31,0x32,0x00,0x90,0x47,0x32,0x60,0x80,0x47,0x00,0x00,0x90,0x49,0x32,0x60,0x80,0x31,0x00,0x00,0x80,0x49,0x00,0x00,0x90,0x4b,0x32,0x00,0x90,0x2a,0x32,0x60,0x80,0x4b,0x00,0x00,0x90,0x4e,0x32,0x60,0x80,0x4e,0x00,0x00,0x80,0x2a,0x00,0x00,0x90,0x36,0x32,0x00,0x90,0x49,0x32,0x60,0x80,0x49,0x00,0x00,0x90,0x4b,0x32,0x60,0x80,0x36,0x00,0x00,0x80,0x4b,0x00,0x00,0x90,0x23,0x32,0x00,0x90,0x49,0x32,0x60,0x80,0x49,0x00,0x00,0x90,0x47,0x32,0x60,0x80,0x23,0x00,0x00,0x80,0x47,0x00,0x00,0x90,0x49,0x32,0x00,0x90,0x2f,0x32,0x81,0x40,0x80,0x2f,0x00,0x00,0x80,0x49,0x00,0x00,0x90,0x47,0x32,0x00,0x90,0x23,0x32,0x81,0x40,0x80,0x23,0x00,0x00,0x80,0x47,0x00,0x00,0x90,0x2f,0x32,0x00,0x90,0x49,0x32,0x81,0x40,0x80,0x49,0x00,0x00,0x80,0x2f,0x00,0x00,0x90,0x4e,0x32,0x00,0x90,0x28,0x32,0x81,0x40,0x80,0x28,0x00,0x00,0x80,0x4e,0x00,0x00,0x90,0x50,0x32,0x00,0x90,0x34,0x32,0x81,0x40,0x80,0x34,0x00,0x00,0x80,0x50,0x00,0x00,0x90,0x2a,0x32,0x00,0x90,0x4b,0x32,0x60,0x80,0x4b,0x00,0x00,0x90,0x4b,0x32,0x60,0x80,0x4b,0x00,0x00,0x80,0x2a,0x00,0x00,0x90,0x36,0x32,0x60,0x90,0x47,0x32,0x60,0x80,0x36,0x00,0x00,0x80,0x47,0x00,0x00,0x90,0x27,0x32,0x00,0x90,0x4a,0x32,0x60,0x80,0x4a,0x00,0x00,0x90,0x49,0x32,0x60,0x80,0x27,0x00,0x00,0x80,0x49,0x00,0x00,0x90,0x33,0x32,0x00,0x90,0x47,0x32,0x60,0x80,0x47,0x00,0x60,0x80,0x33,0x00,0x00,0x90,0x2c,0x32,0x00,0x90,0x47,0x32,0x81,0x40,0x80,0x47,0x00,0x00,0x80,0x2c,0x00,0x00,0x90,0x49,0x32,0x00,0x90,0x38,0x32,0x81,0x40,0x80,0x49,0x00,0x00,0x80,0x38,0x00,0x00,0x90,0x25,0x32,0x00,0x90,0x4a,0x32,0x81,0x40,0x80,0x4a,0x00,0x00,0x80,0x25,0x00,0x00,0x90,0x31,0x32,0x00,0x90,0x4a,0x32,0x60,0x80,0x4a,0x00,0x00,0x90,0x49,0x32,0x60,0x80,0x49,0x00,0x00,0x80,0x31,0x00,0x00,0x90,0x47,0x32,0x00,0x90,0x2a,0x32,0x60,0x80,0x47,0x00,0x00,0x90,0x49,0x32,0x60,0x80,0x2a,0x00,0x00,0x80,0x49,0x00,0x00,0x90,0x36,0x32,0x00,0x90,0x4b,0x32,0x60,0x80,0x4b,0x00,0x00,0x90,0x4e,0x32,0x60,0x80,0x4e,0x00,0x00,0x80,0x36,0x00,0x00,0x90,0x23,0x32,0x00,0x90,0x50,0x32,0x60,0x80,0x50,0x00,0x00,0x90,0x4b,0x32,0x60,0x80,0x23,0x00,0x00,0x80,0x4b,0x00,0x00,0x90,0x4e,0x32,0x00,0x90,0x2f,0x32,0x60,0x80,0x4e,0x00,0x00,0x90,0x49,0x32,0x60,0x80,0x2f,0x00,0x00,0x80,0x49,0x00,0x00,0x90,0x23,0x32,0x00,0x90,0x4b,0x32,0x60,0x80,0x4b,0x00,0x00,0x90,0x47,0x32,0x60,0x80,0x23,0x00,0x00,0x80,0x47,0x00,0x00,0x90,0x2f,0x32,0x00,0x90,0x49,0x32,0x60,0x80,0x49,0x00,0x00,0x90,0x47,0x32,0x60,0x80,0x2f,0x00,0x00,0x80,0x47,0x00,0x00,0x90,0x28,0x32,0x00,0x90,0x4b,0x32,0x81,0x40,0x80,0x4b,0x00,0x00,0x80,0x28,0x00,0x00,0x90,0x34,0x32,0x00,0x90,0x4e,0x32,0x81,0x40,0x80,0x4e,0x00,0x00,0x80,0x34,0x00,0x00,0x90,0x50,0x32,0x00,0x90,0x2a,0x32,0x60,0x80,0x50,0x00,0x00,0x90,0x4b,0x32,0x60,0x80,0x4b,0x00,0x00,0x80,0x2a,0x00,0x00,0x90,0x36,0x32,0x00,0x90,0x4e,0x32,0x60,0x80,0x4e,0x00,0x00,0x90,0x49,0x32,0x60,0x80,0x36,0x00,0x00,0x80,0x49,0x00,0x00,0x90,0x27,0x32,0x00,0x90,0x4b,0x32,0x60,0x80,0x4b,0x00,0x00,0x90,0x47,0x32,0x60,0x80,0x47,0x00,0x00,0x80,0x27,0x00,0x00,0x90,0x33,0x32,0x00,0x90,0x4a,0x32,0x60,0x80,0x4a,0x00,0x00,0x90,0x4b,0x32,0x60,0x80,0x33,0x00,0x00,0x80,0x4b,0x00,0x00,0x90,0x4a,0x32,0x00,0x90,0x2c,0x32,0x60,0x80,0x4a,0x00,0x00,0x90,0x49,0x32,0x60,0x80,0x2c,0x00,0x00,0x80,0x49,0x00,0x00,0x90,0x47,0x32,0x00,0x90,0x38,0x32,0x60,0x80,0x47,0x00,0x00,0x90,0x49,0x32,0x60,0x80,0x38,0x00,0x00,0x80,0x49,0x00,0x00,0x90,0x4a,0x32,0x00,0x90,0x25,0x32,0x81,0x40,0x80,0x25,0x00,0x00,0x80,0x4a,0x00,0x00,0x90,0x47,0x32,0x00,0x90,0x31,0x32,0x60,0x80,0x47,0x00,0x00,0x90,0x49,0x32,0x60,0x80,0x31,0x00,0x00,0x80,0x49,0x00,0x00,0x90,0x2a,0x32,0x00,0x90,0x4b,0x32,0x60,0x80,0x4b,0x00,0x00,0x90,0x4e,0x32,0x60,0x80,0x2a,0x00,0x00,0x80,0x4e,0x00,0x00,0x90,0x49,0x32,0x00,0x90,0x36,0x32,0x60,0x80,0x49,0x00,0x00,0x90,0x4b,0x32,0x60,0x80,0x36,0x00,0x00,0x80,0x4b,0x00,0x00,0x90,0x23,0x32,0x00,0x90,0x49,0x32,0x60,0x80,0x49,0x00,0x00,0x90,0x47,0x32,0x60,0x80,0x23,0x00,0x00,0x80,0x47,0x00,0x00,0x90,0x49,0x32,0x00,0x90,0x2f,0x32,0x81,0x40,0x80,0x2f,0x00,0x00,0x80,0x49,0x00,0x00,0x90,0x23,0x32,0x00,0x90,0x47,0x32,0x81,0x40,0x80,0x47,0x00,0x00,0x80,0x23,0x00,0x00,0x90,0x2f,0x32,0x00,0x90,0x49,0x32,0x81,0x40,0x80,0x2f,0x00,0x00,0x80,0x49,0x00,0x00,0x90,0x34,0x32,0x00,0x90,0x47,0x32,0x81,0x40,0x80,0x47,0x00,0x00,0x80,0x34,0x00,0x00,0x90,0x42,0x32,0x00,0x90,0x38,0x32,0x60,0x80,0x42,0x00,0x00,0x90,0x44,0x32,0x60,0x80,0x44,0x00,0x00,0x80,0x38,0x00,0x00,0x90,0x3b,0x32,0x00,0x90,0x47,0x32,0x81,0x40,0x80,0x47,0x00,0x00,0x80,0x3b,0x00,0x00,0x90,0x40,0x32,0x00,0x90,0x42,0x32,0x60,0x80,0x42,0x00,0x00,0x90,0x44,0x32,0x60,0x80,0x40,0x00,0x00,0x80,0x44,0x00,0x00,0x90,0x33,0x32,0x00,0x90,0x47,0x32,0x60,0x80,0x47,0x00,0x00,0x90,0x49,0x32,0x60,0x80,0x33,0x00,0x00,0x80,0x49,0x00,0x00,0x90,0x4b,0x32,0x00,0x90,0x36,0x32,0x60,0x80,0x4b,0x00,0x00,0x90,0x47,0x32,0x60,0x80,0x47,0x00,0x00,0x80,0x36,0x00,0x00,0x90,0x3b,0x32,0x00,0x90,0x4c,0x32,0x60,0x80,0x4c,0x00,0x00,0x90,0x4b,0x32,0x60,0x80,0x3b,0x00,0x00,0x80,0x4b,0x00,0x00,0x90,0x3f,0x32,0x00,0x90,0x4c,0x32,0x60,0x80,0x4c,0x00,0x00,0x90,0x4e,0x32,0x60,0x80,0x4e,0x00,0x00,0x80,0x3f,0x00,0x00,0x90,0x31,0x32,0x00,0x90,0x47,0x32,0x81,0x40,0x80,0x47,0x00,0x00,0x80,0x31,0x00,0x00,0x90,0x47,0x32,0x00,0x90,0x34,0x32,0x81,0x40,0x80,0x34,0x00,0x00,0x80,0x47,0x00,0x00,0x90,0x38,0x32,0x00,0x90,0x42,0x32,0x60,0x80,0x42,0x00,0x00,0x90,0x44,0x32,0x60,0x80,0x38,0x00,0x00,0x80,0x44,0x00,0x00,0x90,0x3b,0x32,0x00,0x90,0x47,0x32,0x60,0x80,0x47,0x00,0x00,0x90,0x42,0x32,0x60,0x80,0x3b,0x00,0x00,0x80,0x42,0x00,0x00,0x90,0x4c,0x32,0x00,0x90,0x2f,0x32,0x60,0x80,0x4c,0x00,0x00,0x90,0x4b,0x32,0x60,0x80,0x2f,0x00,0x00,0x80,0x4b,0x00,0x00,0x90,0x49,0x32,0x00,0x90,0x33,0x32,0x60,0x80,0x49,0x00,0x00,0x90,0x47,0x32,0x60,0x80,0x33,0x00,0x00,0x80,0x47,0x00,0x00,0x90,0x42,0x32,0x00,0x90,0x36,0x32,0x60,0x80,0x42,0x00,0x00,0x90,0x3f,0x32,0x60,0x80,0x36,0x00,0x00,0x80,0x3f,0x00,0x00,0x90,0x3b,0x32,0x00,0x90,0x40,0x32,0x60,0x80,0x40,0x00,0x00,0x90,0x42,0x32,0x60,0x80,0x3b,0x00,0x00,0x80,0x42,0x00,0x00,0x90,0x34,0x32,0x00,0x90,0x47,0x32,0x81,0x40,0x80,0x34,0x00,0x00,0x80,0x47,0x00,0x00,0x90,0x42,0x32,0x00,0x90,0x38,0x32,0x60,0x80,0x42,0x00,0x00,0x90,0x44,0x32,0x60,0x80,0x38,0x00,0x00,0x80,0x44,0x00,0x00,0x90,0x47,0x32,0x00,0x90,0x3b,0x32,0x81,0x40,0x80,0x3b,0x00,0x00,0x80,0x47,0x00,0x00,0x90,0x40,0x32,0x00,0x90,0x42,0x32,0x60,0x80,0x42,0x00,0x00,0x90,0x44,0x32,0x60,0x80,0x40,0x00,0x00,0x80,0x44,0x00,0x00,0x90,0x33,0x32,0x00,0x90,0x47,0x32,0x60,0x80,0x47,0x00,0x00,0x90,0x47,0x32,0x60,0x80,0x33,0x00,0x00,0x80,0x47,0x00,0x00,0x90,0x49,0x32,0x00,0x90,0x36,0x32,0x60,0x80,0x49,0x00,0x00,0x90,0x4b,0x32,0x60,0x80,0x36,0x00,0x00,0x80,0x4b,0x00,0x00,0x90,0x47,0x32,0x00,0x90,0x3b,0x32,0x60,0x80,0x47,0x00,0x00,0x90,0x42,0x32,0x60,0x80,0x3b,0x00,0x00,0x80,0x42,0x00,0x00,0x90,0x44,0x32,0x00,0x90,0x3f,0x32,0x60,0x80,0x44,0x00,0x00,0x90,0x42,0x32,0x60,0x80,0x3f,0x00,0x00,0x80,0x42,0x00,0x00,0x90,0x31,0x32,0x00,0x90,0x47,0x32,0x81,0x40,0x80,0x47,0x00,0x00,0x80,0x31,0x00,0x00,0x90,0x47,0x32,0x00,0x90,0x34,0x32,0x60,0x80,0x47,0x00,0x00,0x90,0x46,0x32,0x60,0x80,0x46,0x00,0x00,0x80,0x34,0x00,0x00,0x90,0x47,0x32,0x00,0x90,0x38,0x32,0x60,0x80,0x47,0x00,0x00,0x90,0x42,0x32,0x60,0x80,0x38,0x00,0x00,0x80,0x42,0x00,0x00,0x90,0x44,0x32,0x00,0x90,0x3b,0x32,0x60,0x80,0x44,0x00,0x00,0x90,0x47,0x32,0x60,0x80,0x3b,0x00,0x00,0x80,0x47,0x00,0x00,0x90,0x2f,0x32,0x00,0x90,0x4c,0x32,0x60,0x80,0x4c,0x00,0x00,0x90,0x4b,0x32,0x60,0x80,0x2f,0x00,0x00,0x80,0x4b,0x00,0x00,0x90,0x33,0x32,0x00,0x90,0x4c,0x32,0x60,0x80,0x4c,0x00,0x00,0x90,0x4e,0x32,0x60,0x80,0x33,0x00,0x00,0x80,0x4e,0x00,0x00,0x90,0x47,0x32,0x00,0x90,0x36,0x32,0x81,0x40,0x80,0x36,0x00,0x00,0x80,0x47,0x00,0x00,0x90,0x46,0x32,0x00,0x90,0x3b,0x32,0x81,0x40,0x80,0x3b,0x00,0x00,0x80,0x46,0x00,0x00,0x90,0x47,0x32,0x00,0x90,0x34,0x32,0x81,0x40,0x80,0x34,0x00,0x00,0x80,0x47,0x00,0x00,0x90,0x42,0x32,0x00,0x90,0x38,0x32,0x60,0x80,0x42,0x00,0x00,0x90,0x44,0x32,0x60,0x80,0x38,0x00,0x00,0x80,0x44,0x00,0x00,0x90,0x3b,0x32,0x00,0x90,0x47,0x32,0x81,0x40,0x80,0x3b,0x00,0x00,0x80,0x47,0x00,0x00,0x90,0x42,0x32,0x00,0x90,0x40,0x32,0x60,0x80,0x42,0x00,0x00,0x90,0x44,0x32,0x60,0x80,0x40,0x00,0x00,0x80,0x44,0x00,0x00,0x90,0x47,0x32,0x00,0x90,0x33,0x32,0x60,0x80,0x47,0x00,0x00,0x90,0x49,0x32,0x60,0x80,0x33,0x00,0x00,0x80,0x49,0x00,0x00,0x90,0x36,0x32,0x00,0x90,0x4b,0x32,0x60,0x80,0x4b,0x00,0x00,0x90,0x47,0x32,0x60,0x80,0x36,0x00,0x00,0x80,0x47,0x00,0x00,0x90,0x4c,0x32,0x00,0x90,0x3b,0x32,0x60,0x80,0x4c,0x00,0x00,0x90,0x4b,0x32,0x60,0x80,0x3b,0x00,0x00,0x80,0x4b,0x00,0x00,0x90,0x4c,0x32,0x00,0x90,0x3f,0x32,0x60,0x80,0x4c,0x00,0x00,0x90,0x4e,0x32,0x60,0x80,0x3f,0x00,0x00,0x80,0x4e,0x00,0x00,0x90,0x31,0x32,0x00,0x90,0x47,0x32,0x81,0x40,0x80,0x47,0x00,0x00,0x80,0x31,0x00,0x00,0x90,0x47,0x32,0x00,0x90,0x34,0x32,0x81,0x40,0x80,0x34,0x00,0x00,0x80,0x47,0x00,0x00,0x90,0x38,0x32,0x00,0x90,0x42,0x32,0x60,0x80,0x42,0x00,0x00,0x90,0x44,0x32,0x60,0x80,0x44,0x00,0x00,0x80,0x38,0x00,0x00,0x90,0x47,0x32,0x00,0x90,0x3b,0x32,0x60,0x80,0x47,0x00,0x00,0x90,0x42,0x32,0x60,0x80,0x3b,0x00,0x00,0x80,0x42,0x00,0x00,0x90,0x2f,0x32,0x00,0x90,0x4c,0x32,0x60,0x80,0x4c,0x00,0x00,0x90,0x4b,0x32,0x60,0x80,0x4b,0x00,0x00,0x80,0x2f,0x00,0x00,0x90,0x49,0x32,0x00,0x90,0x33,0x32,0x60,0x80,0x49,0x00,0x00,0x90,0x47,0x32,0x00,0x90,0x4a,0x32,0x60,0x80,0x33,0x00,0x00,0x80,0x4a,0x00,0x00,0x80,0x47,0x00,0x00,0x90,0x36,0x32,0x00,0x90,0x42,0x32,0x60,0x80,0x42,0x00,0x00,0x90,0x3f,0x32,0x60,0x80,0x36,0x00,0x00,0x80,0x3f,0x00,0x00,0x90,0x3b,0x32,0x00,0x90,0x40,0x32,0x60,0x80,0x40,0x00,0x00,0x90,0x42,0x32,0x60,0x80,0x3b,0x00,0x00,0x80,0x42,0x00,0x00,0x90,0x47,0x32,0x00,0x90,0x34,0x32,0x81,0x40,0x80,0x34,0x00,0x00,0x80,0x47,0x00,0x00,0x90,0x38,0x32,0x00,0x90,0x42,0x32,0x60,0x80,0x42,0x00,0x00,0x90,0x44,0x32,0x60,0x80,0x44,0x00,0x00,0x80,0x38,0x00,0x00,0x90,0x47,0x32,0x00,0x90,0x3b,0x32,0x81,0x40,0x80,0x3b,0x00,0x00,0x80,0x47,0x00,0x00,0x90,0x40,0x32,0x00,0x90,0x42,0x32,0x60,0x80,0x42,0x00,0x00,0x90,0x44,0x32,0x60,0x80,0x40,0x00,0x00,0x80,0x44,0x00,0x00,0x90,0x47,0x32,0x00,0x90,0x33,0x32,0x60,0x80,0x47,0x00,0x00,0x90,0x47,0x32,0x60,0x80,0x33,0x00,0x00,0x80,0x47,0x00,0x00,0x90,0x49,0x32,0x00,0x90,0x36,0x32,0x60,0x80,0x49,0x00,0x00,0x90,0x4b,0x32,0x60,0x80,0x36,0x00,0x00,0x80,0x4b,0x00,0x00,0x90,0x3b,0x32,0x00,0x90,0x47,0x32,0x60,0x80,0x47,0x00,0x00,0x90,0x42,0x32,0x60,0x80,0x3b,0x00,0x00,0x80,0x42,0x00,0x00,0x90,0x44,0x32,0x00,0x90,0x3f,0x32,0x60,0x80,0x44,0x00,0x00,0x90,0x42,0x32,0x60,0x80,0x3f,0x00,0x00,0x80,0x42,0x00,0x00,0x90,0x31,0x32,0x00,0x90,0x47,0x32,0x81,0x40,0x80,0x31,0x00,0x00,0x80,0x47,0x00,0x00,0x90,0x34,0x32,0x00,0x90,0x47,0x32,0x60,0x80,0x47,0x00,0x00,0x90,0x46,0x32,0x60,0x80,0x46,0x00,0x00,0x80,0x34,0x00,0x00,0x90,0x47,0x32,0x00,0x90,0x38,0x32,0x60,0x80,0x47,0x00,0x00,0x90,0x42,0x32,0x60,0x80,0x38,0x00,0x00,0x80,0x42,0x00,0x00,0x90,0x3b,0x32,0x00,0x90,0x44,0x32,0x60,0x80,0x44,0x00,0x00,0x90,0x47,0x32,0x60,0x80,0x3b,0x00,0x00,0x80,0x47,0x00,0x00,0x90,0x4c,0x32,0x00,0x90,0x2f,0x32,0x60,0x80,0x4c,0x00,0x00,0x90,0x4b,0x32,0x60,0x80,0x2f,0x00,0x00,0x80,0x4b,0x00,0x00,0x90,0x33,0x32,0x00,0x90,0x4c,0x32,0x60,0x80,0x4c,0x00,0x00,0x90,0x4e,0x32,0x60,0x80,0x33,0x00,0x00,0x80,0x4e,0x00,0x00,0x90,0x47,0x32,0x00,0x90,0x36,0x32,0x81,0x40,0x80,0x36,0x00,0x00,0x80,0x47,0x00,0x00,0x90,0x3b,0x32,0x00,0x90,0x49,0x32,0x81,0x40,0x80,0x49,0x00,0x00,0x80,0x3b,0x00,0x00,0x90,0x4b,0x32,0x00,0x90,0x3b,0x32,0x60,0x80,0x4b,0x00,0x00,0x90,0x4c,0x32,0x60,0x80,0x4c,0x00,0x00,0x90,0x4e,0x32,0x60,0x80,0x3b,0x00,0x60,0x80,0x4e,0x00,0x00,0x90,0x53,0x32,0x00,0x90,0x3b,0x32,0x81,0x40,0x80,0x53,0x00,0x00,0x90,0x4b,0x32,0x60,0x80,0x4b,0x00,0x00,0x80,0x3b,0x00,0x00,0x90,0x4c,0x32,0x60,0x80,0x4c,0x00,0x00,0x90,0x4e,0x32,0x00,0x90,0x3b,0x32,0x60,0x80,0x4e,0x00,0x00,0x90,0x53,0x32,0x60,0x80,0x53,0x00,0x00,0x90,0x55,0x32,0x60,0x80,0x55,0x00,0x00,0x80,0x3b,0x00,0x00,0x90,0x57,0x32,0x60,0x80,0x57,0x00,0x00,0x90,0x55,0x32,0x00,0x90,0x3b,0x32,0x60,0x80,0x55,0x00,0x00,0x90,0x5a,0x32,0x00,0x90,0x52,0x32,0x60,0x80,0x5a,0x00,0x00,0x80,0x52,0x00,0x00,0x90,0x53,0x32,0x60,0x80,0x3b,0x00,0x60,0x80,0x53,0x00,0x00,0x90,0x4e,0x32,0x00,0x90,0x3b,0x32,0x81,0x40,0x80,0x4e,0x00,0x00,0x90,0x4b,0x32,0x60,0x80,0x3b,0x00,0x00,0x80,0x4b,0x00,0x00,0x90,0x4c,0x32,0x60,0x80,0x4c,0x00,0x00,0x90,0x4e,0x32,0x00,0x90,0x3b,0x32,0x81,0x40,0x80,0x4e,0x00,0x00,0x90,0x53,0x32,0x60,0x80,0x3b,0x00,0x60,0x80,0x53,0x00,0x00,0x90,0x3b,0x32,0x00,0x90,0x55,0x32,0x60,0x80,0x55,0x00,0x00,0x90,0x52,0x32,0x60,0x80,0x52,0x00,0x00,0x90,0x53,0x32,0x60,0x80,0x3b,0x00,0x00,0x80,0x53,0x00,0x00,0x90,0x55,0x32,0x60,0x80,0x55,0x00,0x00,0x90,0x58,0x32,0x00,0x90,0x3b,0x32,0x60,0x80,0x58,0x00,0x00,0x90,0x57,0x32,0x60,0x80,0x57,0x00,0x00,0x90,0x58,0x32,0x60,0x80,0x3b,0x00,0x00,0x80,0x58,0x00,0x00,0x90,0x55,0x32,0x60,0x80,0x55,0x00,0x00,0x90,0x4e,0x32,0x00,0x90,0x28,0x32,0x81,0x40,0x80,0x4e,0x00,0x00,0x80,0x28,0x00,0x00,0x90,0x50,0x32,0x00,0x90,0x34,0x32,0x81,0x40,0x80,0x34,0x00,0x00,0x80,0x50,0x00,0x00,0x90,0x4b,0x32,0x00,0x90,0x2a,0x32,0x60,0x80,0x4b,0x00,0x00,0x90,0x4b,0x32,0x60,0x80,0x2a,0x00,0x00,0x80,0x4b,0x00,0x00,0x90,0x36,0x32,0x60,0x90,0x47,0x32,0x60,0x80,0x36,0x00,0x00,0x80,0x47,0x00,0x00,0x90,0x27,0x32,0x00,0x90,0x4a,0x32,0x60,0x80,0x4a,0x00,0x00,0x90,0x49,0x32,0x60,0x80,0x27,0x00,0x00,0x80,0x49,0x00,0x00,0x90,0x47,0x32,0x00,0x90,0x33,0x32,0x60,0x80,0x47,0x00,0x60,0x80,0x33,0x00,0x00,0x90,0x47,0x32,0x00,0x90,0x2c,0x32,0x81,0x40,0x80,0x47,0x00,0x00,0x80,0x2c,0x00,0x00,0x90,0x38,0x32,0x00,0x90,0x49,0x32,0x81,0x40,0x80,0x49,0x00,0x00,0x80,0x38,0x00,0x00,0x90,0x4a,0x32,0x00,0x90,0x25,0x32,0x81,0x40,0x80,0x4a,0x00,0x00,0x80,0x25,0x00,0x00,0x90,0x31,0x32,0x00,0x90,0x4a,0x32,0x60,0x80,0x4a,0x00,0x00,0x90,0x49,0x32,0x60,0x80,0x31,0x00,0x00,0x80,0x49,0x00,0x00,0x90,0x47,0x32,0x00,0x90,0x2a,0x32,0x60,0x80,0x47,0x00,0x00,0x90,0x49,0x32,0x60,0x80,0x2a,0x00,0x00,0x80,0x49,0x00,0x00,0x90,0x36,0x32,0x00,0x90,0x4b,0x32,0x60,0x80,0x4b,0x00,0x00,0x90,0x4e,0x32,0x60,0x80,0x36,0x00,0x00,0x80,0x4e,0x00,0x00,0x90,0x23,0x32,0x00,0x90,0x50,0x32,0x60,0x80,0x50,0x00,0x00,0x90,0x4b,0x32,0x60,0x80,0x23,0x00,0x00,0x80,0x4b,0x00,0x00,0x90,0x4e,0x32,0x00,0x90,0x2f,0x32,0x60,0x80,0x4e,0x00,0x00,0x90,0x49,0x32,0x60,0x80,0x2f,0x00,0x00,0x80,0x49,0x00,0x00,0x90,0x23,0x32,0x00,0x90,0x4b,0x32,0x60,0x80,0x4b,0x00,0x00,0x90,0x47,0x32,0x60,0x80,0x23,0x00,0x00,0x80,0x47,0x00,0x00,0x90,0x2f,0x32,0x00,0x90,0x49,0x32,0x60,0x80,0x49,0x00,0x00,0x90,0x47,0x32,0x60,0x80,0x2f,0x00,0x00,0x80,0x47,0x00,0x00,0x90,0x4b,0x32,0x00,0x90,0x28,0x32,0x81,0x40,0x80,0x4b,0x00,0x00,0x80,0x28,0x00,0x00,0x90,0x34,0x32,0x00,0x90,0x4e,0x32,0x81,0x40,0x80,0x4e,0x00,0x00,0x80,0x34,0x00,0x00,0x90,0x50,0x32,0x00,0x90,0x2a,0x32,0x60,0x80,0x50,0x00,0x00,0x90,0x4b,0x32,0x60,0x80,0x4b,0x00,0x00,0x80,0x2a,0x00,0x00,0x90,0x36,0x32,0x00,0x90,0x4e,0x32,0x60,0x80,0x4e,0x00,0x00,0x90,0x49,0x32,0x60,0x80,0x36,0x00,0x00,0x80,0x49,0x00,0x00,0x90,0x4b,0x32,0x00,0x90,0x27,0x32,0x60,0x80,0x4b,0x00,0x00,0x90,0x47,0x32,0x60,0x80,0x27,0x00,0x00,0x80,0x47,0x00,0x00,0x90,0x4a,0x32,0x00,0x90,0x33,0x32,0x60,0x80,0x4a,0x00,0x00,0x90,0x4b,0x32,0x60,0x80,0x33,0x00,0x00,0x80,0x4b,0x00,0x00,0x90,0x2c,0x32,0x00,0x90,0x4a,0x32,0x60,0x80,0x4a,0x00,0x00,0x90,0x49,0x32,0x60,0x80,0x2c,0x00,0x00,0x80,0x49,0x00,0x00,0x90,0x47,0x32,0x00,0x90,0x38,0x32,0x60,0x80,0x47,0x00,0x00,0x90,0x49,0x32,0x60,0x80,0x38,0x00,0x00,0x80,0x49,0x00,0x00,0x90,0x25,0x32,0x00,0x90,0x4a,0x32,0x81,0x40,0x80,0x4a,0x00,0x00,0x80,0x25,0x00,0x00,0x90,0x31,0x32,0x00,0x90,0x47,0x32,0x60,0x80,0x47,0x00,0x00,0x90,0x49,0x32,0x60,0x80,0x31,0x00,0x00,0x80,0x49,0x00,0x00,0x90,0x4b,0x32,0x00,0x90,0x2a,0x32,0x60,0x80,0x4b,0x00,0x00,0x90,0x4e,0x32,0x60,0x80,0x4e,0x00,0x00,0x80,0x2a,0x00,0x00,0x90,0x36,0x32,0x00,0x90,0x49,0x32,0x60,0x80,0x49,0x00,0x00,0x90,0x4b,0x32,0x60,0x80,0x36,0x00,0x00,0x80,0x4b,0x00,0x00,0x90,0x23,0x32,0x00,0x90,0x49,0x32,0x60,0x80,0x49,0x00,0x00,0x90,0x47,0x32,0x60,0x80,0x23,0x00,0x00,0x80,0x47,0x00,0x00,0x90,0x49,0x32,0x00,0x90,0x2f,0x32,0x81,0x40,0x80,0x2f,0x00,0x00,0x80,0x49,0x00,0x00,0x90,0x47,0x32,0x00,0x90,0x23,0x32,0x81,0x40,0x80,0x23,0x00,0x00,0x80,0x47,0x00,0x00,0x90,0x2f,0x32,0x00,0x90,0x49,0x32,0x81,0x40,0x80,0x49,0x00,0x00,0x80,0x2f,0x00,0x00,0x90,0x4e,0x32,0x00,0x90,0x28,0x32,0x81,0x40,0x80,0x28,0x00,0x00,0x80,0x4e,0x00,0x00,0x90,0x50,0x32,0x00,0x90,0x34,0x32,0x81,0x40,0x80,0x34,0x00,0x00,0x80,0x50,0x00,0x00,0x90,0x2a,0x32,0x00,0x90,0x4b,0x32,0x60,0x80,0x4b,0x00,0x00,0x90,0x4b,0x32,0x60,0x80,0x4b,0x00,0x00,0x80,0x2a,0x00,0x00,0x90,0x36,0x32,0x60,0x90,0x47,0x32,0x60,0x80,0x36,0x00,0x00,0x80,0x47,0x00,0x00,0x90,0x27,0x32,0x00,0x90,0x4a,0x32,0x60,0x80,0x4a,0x00,0x00,0x90,0x49,0x32,0x60,0x80,0x27,0x00,0x00,0x80,0x49,0x00,0x00,0x90,0x33,0x32,0x00,0x90,0x47,0x32,0x60,0x80,0x47,0x00,0x60,0x80,0x33,0x00,0x00,0x90,0x2c,0x32,0x00,0x90,0x47,0x32,0x81,0x40,0x80,0x47,0x00,0x00,0x80,0x2c,0x00,0x00,0x90,0x49,0x32,0x00,0x90,0x38,0x32,0x81,0x40,0x80,0x49,0x00,0x00,0x80,0x38,0x00,0x00,0x90,0x25,0x32,0x00,0x90,0x4a,0x32,0x81,0x40,0x80,0x4a,0x00,0x00,0x80,0x25,0x00,0x00,0x90,0x31,0x32,0x00,0x90,0x4a,0x32,0x60,0x80,0x4a,0x00,0x00,0x90,0x49,0x32,0x60,0x80,0x49,0x00,0x00,0x80,0x31,0x00,0x00,0x90,0x47,0x32,0x00,0x90,0x2a,0x32,0x60,0x80,0x47,0x00,0x00,0x90,0x49,0x32,0x60,0x80,0x2a,0x00,0x00,0x80,0x49,0x00,0x00,0x90,0x36,0x32,0x00,0x90,0x4b,0x32,0x60,0x80,0x4b,0x00,0x00,0x90,0x4e,0x32,0x60,0x80,0x4e,0x00,0x00,0x80,0x36,0x00,0x00,0x90,0x23,0x32,0x00,0x90,0x50,0x32,0x60,0x80,0x50,0x00,0x00,0x90,0x4b,0x32,0x60,0x80,0x23,0x00,0x00,0x80,0x4b,0x00,0x00,0x90,0x4e,0x32,0x00,0x90,0x2f,0x32,0x60,0x80,0x4e,0x00,0x00,0x90,0x49,0x32,0x60,0x80,0x2f,0x00,0x00,0x80,0x49,0x00,0x00,0x90,0x23,0x32,0x00,0x90,0x4b,0x32,0x60,0x80,0x4b,0x00,0x00,0x90,0x47,0x32,0x60,0x80,0x23,0x00,0x00,0x80,0x47,0x00,0x00,0x90,0x2f,0x32,0x00,0x90,0x49,0x32,0x60,0x80,0x49,0x00,0x00,0x90,0x47,0x32,0x60,0x80,0x2f,0x00,0x00,0x80,0x47,0x00,0x00,0x90,0x28,0x32,0x00,0x90,0x4b,0x32,0x81,0x40,0x80,0x4b,0x00,0x00,0x80,0x28,0x00,0x00,0x90,0x34,0x32,0x00,0x90,0x4e,0x32,0x81,0x40,0x80,0x4e,0x00,0x00,0x80,0x34,0x00,0x00,0x90,0x50,0x32,0x00,0x90,0x2a,0x32,0x60,0x80,0x50,0x00,0x00,0x90,0x4b,0x32,0x60,0x80,0x4b,0x00,0x00,0x80,0x2a,0x00,0x00,0x90,0x36,0x32,0x00,0x90,0x4e,0x32,0x60,0x80,0x4e,0x00,0x00,0x90,0x49,0x32,0x60,0x80,0x36,0x00,0x00,0x80,0x49,0x00,0x00,0x90,0x27,0x32,0x00,0x90,0x4b,0x32,0x60,0x80,0x4b,0x00,0x00,0x90,0x47,0x32,0x60,0x80,0x47,0x00,0x00,0x80,0x27,0x00,0x00,0x90,0x33,0x32,0x00,0x90,0x4a,0x32,0x60,0x80,0x4a,0x00,0x00,0x90,0x4b,0x32,0x60,0x80,0x33,0x00,0x00,0x80,0x4b,0x00,0x00,0x90,0x4a,0x32,0x00,0x90,0x2c,0x32,0x60,0x80,0x4a,0x00,0x00,0x90,0x49,0x32,0x60,0x80,0x2c,0x00,0x00,0x80,0x49,0x00,0x00,0x90,0x47,0x32,0x00,0x90,0x38,0x32,0x60,0x80,0x47,0x00,0x00,0x90,0x49,0x32,0x60,0x80,0x38,0x00,0x00,0x80,0x49,0x00,0x00,0x90,0x4a,0x32,0x00,0x90,0x25,0x32,0x81,0x40,0x80,0x25,0x00,0x00,0x80,0x4a,0x00,0x00,0x90,0x47,0x32,0x00,0x90,0x31,0x32,0x60,0x80,0x47,0x00,0x00,0x90,0x49,0x32,0x60,0x80,0x31,0x00,0x00,0x80,0x49,0x00,0x00,0x90,0x2a,0x32,0x00,0x90,0x4b,0x32,0x60,0x80,0x4b,0x00,0x00,0x90,0x4e,0x32,0x60,0x80,0x2a,0x00,0x00,0x80,0x4e,0x00,0x00,0x90,0x49,0x32,0x00,0x90,0x36,0x32,0x60,0x80,0x49,0x00,0x00,0x90,0x4b,0x32,0x60,0x80,0x36,0x00,0x00,0x80,0x4b,0x00,0x00,0x90,0x23,0x32,0x00,0x90,0x49,0x32,0x60,0x80,0x49,0x00,0x00,0x90,0x47,0x32,0x60,0x80,0x23,0x00,0x00,0x80,0x47,0x00,0x00,0x90,0x49,0x32,0x00,0x90,0x2f,0x32,0x81,0x40,0x80,0x2f,0x00,0x00,0x80,0x49,0x00,0x00,0x90,0x23,0x32,0x00,0x90,0x47,0x32,0x81,0x40,0x80,0x47,0x00,0x00,0x80,0x23,0x00,0x00,0x90,0x2f,0x32,0x00,0x90,0x49,0x32,0x81,0x40,0x80,0x2f,0x00,0x00,0x80,0x49,0x00,0x00,0x90,0x34,0x32,0x00,0x90,0x47,0x32,0x81,0x40,0x80,0x47,0x00,0x00,0x80,0x34,0x00,0x00,0x90,0x42,0x32,0x00,0x90,0x38,0x32,0x60,0x80,0x42,0x00,0x00,0x90,0x44,0x32,0x60,0x80,0x44,0x00,0x00,0x80,0x38,0x00,0x00,0x90,0x3b,0x32,0x00,0x90,0x47,0x32,0x81,0x40,0x80,0x47,0x00,0x00,0x80,0x3b,0x00,0x00,0x90,0x40,0x32,0x00,0x90,0x42,0x32,0x60,0x80,0x42,0x00,0x00,0x90,0x44,0x32,0x60,0x80,0x40,0x00,0x00,0x80,0x44,0x00,0x00,0x90,0x33,0x32,0x00,0x90,0x47,0x32,0x60,0x80,0x47,0x00,0x00,0x90,0x49,0x32,0x60,0x80,0x33,0x00,0x00,0x80,0x49,0x00,0x00,0x90,0x4b,0x32,0x00,0x90,0x36,0x32,0x60,0x80,0x4b,0x00,0x00,0x90,0x47,0x32,0x60,0x80,0x47,0x00,0x00,0x80,0x36,0x00,0x00,0x90,0x3b,0x32,0x00,0x90,0x4c,0x32,0x60,0x80,0x4c,0x00,0x00,0x90,0x4b,0x32,0x60,0x80,0x3b,0x00,0x00,0x80,0x4b,0x00,0x00,0x90,0x3f,0x32,0x00,0x90,0x4c,0x32,0x60,0x80,0x4c,0x00,0x00,0x90,0x4e,0x32,0x60,0x80,0x4e,0x00,0x00,0x80,0x3f,0x00,0x00,0x90,0x31,0x32,0x00,0x90,0x47,0x32,0x81,0x40,0x80,0x47,0x00,0x00,0x80,0x31,0x00,0x00,0x90,0x47,0x32,0x00,0x90,0x34,0x32,0x81,0x40,0x80,0x34,0x00,0x00,0x80,0x47,0x00,0x00,0x90,0x38,0x32,0x00,0x90,0x42,0x32,0x60,0x80,0x42,0x00,0x00,0x90,0x44,0x32,0x60,0x80,0x38,0x00,0x00,0x80,0x44,0x00,0x00,0x90,0x3b,0x32,0x00,0x90,0x47,0x32,0x60,0x80,0x47,0x00,0x00,0x90,0x42,0x32,0x60,0x80,0x3b,0x00,0x00,0x80,0x42,0x00,0x00,0x90,0x4c,0x32,0x00,0x90,0x2f,0x32,0x60,0x80,0x4c,0x00,0x00,0x90,0x4b,0x32,0x60,0x80,0x2f,0x00,0x00,0x80,0x4b,0x00,0x00,0x90,0x49,0x32,0x00,0x90,0x33,0x32,0x60,0x80,0x49,0x00,0x00,0x90,0x47,0x32,0x60,0x80,0x33,0x00,0x00,0x80,0x47,0x00,0x00,0x90,0x42,0x32,0x00,0x90,0x36,0x32,0x60,0x80,0x42,0x00,0x00,0x90,0x3f,0x32,0x60,0x80,0x36,0x00,0x00,0x80,0x3f,0x00,0x00,0x90,0x3b,0x32,0x00,0x90,0x40,0x32,0x60,0x80,0x40,0x00,0x00,0x90,0x42,0x32,0x60,0x80,0x3b,0x00,0x00,0x80,0x42,0x00,0x00,0x90,0x34,0x32,0x00,0x90,0x47,0x32,0x81,0x40,0x80,0x34,0x00,0x00,0x80,0x47,0x00,0x00,0x90,0x42,0x32,0x00,0x90,0x38,0x32,0x60,0x80,0x42,0x00,0x00,0x90,0x44,0x32,0x60,0x80,0x38,0x00,0x00,0x80,0x44,0x00,0x00,0x90,0x47,0x32,0x00,0x90,0x3b,0x32,0x81,0x40,0x80,0x3b,0x00,0x00,0x80,0x47,0x00,0x00,0x90,0x40,0x32,0x00,0x90,0x42,0x32,0x60,0x80,0x42,0x00,0x00,0x90,0x44,0x32,0x60,0x80,0x40,0x00,0x00,0x80,0x44,0x00,0x00,0x90,0x33,0x32,0x00,0x90,0x47,0x32,0x60,0x80,0x47,0x00,0x00,0x90,0x47,0x32,0x60,0x80,0x33,0x00,0x00,0x80,0x47,0x00,0x00,0x90,0x49,0x32,0x00,0x90,0x36,0x32,0x60,0x80,0x49,0x00,0x00,0x90,0x4b,0x32,0x60,0x80,0x36,0x00,0x00,0x80,0x4b,0x00,0x00,0x90,0x47,0x32,0x00,0x90,0x3b,0x32,0x60,0x80,0x47,0x00,0x00,0x90,0x42,0x32,0x60,0x80,0x3b,0x00,0x00,0x80,0x42,0x00,0x00,0x90,0x44,0x32,0x00,0x90,0x3f,0x32,0x60,0x80,0x44,0x00,0x00,0x90,0x42,0x32,0x60,0x80,0x3f,0x00,0x00,0x80,0x42,0x00,0x00,0x90,0x31,0x32,0x00,0x90,0x47,0x32,0x81,0x40,0x80,0x47,0x00,0x00,0x80,0x31,0x00,0x00,0x90,0x47,0x32,0x00,0x90,0x34,0x32,0x60,0x80,0x47,0x00,0x00,0x90,0x46,0x32,0x60,0x80,0x46,0x00,0x00,0x80,0x34,0x00,0x00,0x90,0x47,0x32,0x00,0x90,0x38,0x32,0x60,0x80,0x47,0x00,0x00,0x90,0x42,0x32,0x60,0x80,0x38,0x00,0x00,0x80,0x42,0x00,0x00,0x90,0x44,0x32,0x00,0x90,0x3b,0x32,0x60,0x80,0x44,0x00,0x00,0x90,0x47,0x32,0x60,0x80,0x3b,0x00,0x00,0x80,0x47,0x00,0x00,0x90,0x2f,0x32,0x00,0x90,0x4c,0x32,0x60,0x80,0x4c,0x00,0x00,0x90,0x4b,0x32,0x60,0x80,0x2f,0x00,0x00,0x80,0x4b,0x00,0x00,0x90,0x33,0x32,0x00,0x90,0x4c,0x32,0x60,0x80,0x4c,0x00,0x00,0x90,0x4e,0x32,0x60,0x80,0x33,0x00,0x00,0x80,0x4e,0x00,0x00,0x90,0x47,0x32,0x00,0x90,0x36,0x32,0x81,0x40,0x80,0x36,0x00,0x00,0x80,0x47,0x00,0x00,0x90,0x46,0x32,0x00,0x90,0x3b,0x32,0x81,0x40,0x80,0x3b,0x00,0x00,0x80,0x46,0x00,0x00,0x90,0x47,0x32,0x00,0x90,0x34,0x32,0x81,0x40,0x80,0x34,0x00,0x00,0x80,0x47,0x00,0x00,0x90,0x42,0x32,0x00,0x90,0x38,0x32,0x60,0x80,0x42,0x00,0x00,0x90,0x44,0x32,0x60,0x80,0x38,0x00,0x00,0x80,0x44,0x00,0x00,0x90,0x3b,0x32,0x00,0x90,0x47,0x32,0x81,0x40,0x80,0x3b,0x00,0x00,0x80,0x47,0x00,0x00,0x90,0x42,0x32,0x00,0x90,0x40,0x32,0x60,0x80,0x42,0x00,0x00,0x90,0x44,0x32,0x60,0x80,0x40,0x00,0x00,0x80,0x44,0x00,0x00,0x90,0x47,0x32,0x00,0x90,0x33,0x32,0x60,0x80,0x47,0x00,0x00,0x90,0x49,0x32,0x60,0x80,0x33,0x00,0x00,0x80,0x49,0x00,0x00,0x90,0x36,0x32,0x00,0x90,0x4b,0x32,0x60,0x80,0x4b,0x00,0x00,0x90,0x47,0x32,0x60,0x80,0x36,0x00,0x00,0x80,0x47,0x00,0x00,0x90,0x4c,0x32,0x00,0x90,0x3b,0x32,0x60,0x80,0x4c,0x00,0x00,0x90,0x4b,0x32,0x60,0x80,0x3b,0x00,0x00,0x80,0x4b,0x00,0x00,0x90,0x4c,0x32,0x00,0x90,0x3f,0x32,0x60,0x80,0x4c,0x00,0x00,0x90,0x4e,0x32,0x60,0x80,0x3f,0x00,0x00,0x80,0x4e,0x00,0x00,0x90,0x31,0x32,0x00,0x90,0x47,0x32,0x81,0x40,0x80,0x47,0x00,0x00,0x80,0x31,0x00,0x00,0x90,0x47,0x32,0x00,0x90,0x34,0x32,0x81,0x40,0x80,0x34,0x00,0x00,0x80,0x47,0x00,0x00,0x90,0x38,0x32,0x00,0x90,0x42,0x32,0x60,0x80,0x42,0x00,0x00,0x90,0x44,0x32,0x60,0x80,0x44,0x00,0x00,0x80,0x38,0x00,0x00,0x90,0x47,0x32,0x00,0x90,0x3b,0x32,0x60,0x80,0x47,0x00,0x00,0x90,0x42,0x32,0x60,0x80,0x3b,0x00,0x00,0x80,0x42,0x00,0x00,0x90,0x2f,0x32,0x00,0x90,0x4c,0x32,0x60,0x80,0x4c,0x00,0x00,0x90,0x4b,0x32,0x60,0x80,0x4b,0x00,0x00,0x80,0x2f,0x00,0x00,0x90,0x49,0x32,0x00,0x90,0x33,0x32,0x60,0x80,0x49,0x00,0x00,0x90,0x47,0x32,0x00,0x90,0x4a,0x32,0x60,0x80,0x33,0x00,0x00,0x80,0x4a,0x00,0x00,0x80,0x47,0x00,0x00,0x90,0x36,0x32,0x00,0x90,0x42,0x32,0x60,0x80,0x42,0x00,0x00,0x90,0x3f,0x32,0x60,0x80,0x36,0x00,0x00,0x80,0x3f,0x00,0x00,0x90,0x3b,0x32,0x00,0x90,0x40,0x32,0x60,0x80,0x40,0x00,0x00,0x90,0x42,0x32,0x60,0x80,0x3b,0x00,0x00,0x80,0x42,0x00,0x00,0x90,0x47,0x32,0x00,0x90,0x34,0x32,0x81,0x40,0x80,0x34,0x00,0x00,0x80,0x47,0x00,0x00,0x90,0x38,0x32,0x00,0x90,0x42,0x32,0x60,0x80,0x42,0x00,0x00,0x90,0x44,0x32,0x60,0x80,0x44,0x00,0x00,0x80,0x38,0x00,0x00,0x90,0x47,0x32,0x00,0x90,0x3b,0x32,0x81,0x40,0x80,0x3b,0x00,0x00,0x80,0x47,0x00,0x00,0x90,0x40,0x32,0x00,0x90,0x42,0x32,0x60,0x80,0x42,0x00,0x00,0x90,0x44,0x32,0x60,0x80,0x40,0x00,0x00,0x80,0x44,0x00,0x00,0x90,0x47,0x32,0x00,0x90,0x33,0x32,0x60,0x80,0x47,0x00,0x00,0x90,0x47,0x32,0x60,0x80,0x33,0x00,0x00,0x80,0x47,0x00,0x00,0x90,0x49,0x32,0x00,0x90,0x36,0x32,0x60,0x80,0x49,0x00,0x00,0x90,0x4b,0x32,0x60,0x80,0x36,0x00,0x00,0x80,0x4b,0x00,0x00,0x90,0x3b,0x32,0x00,0x90,0x47,0x32,0x60,0x80,0x47,0x00,0x00,0x90,0x42,0x32,0x60,0x80,0x3b,0x00,0x00,0x80,0x42,0x00,0x00,0x90,0x44,0x32,0x00,0x90,0x3f,0x32,0x60,0x80,0x44,0x00,0x00,0x90,0x42,0x32,0x60,0x80,0x3f,0x00,0x00,0x80,0x42,0x00,0x00,0x90,0x31,0x32,0x00,0x90,0x47,0x32,0x81,0x40,0x80,0x31,0x00,0x00,0x80,0x47,0x00,0x00,0x90,0x34,0x32,0x00,0x90,0x47,0x32,0x60,0x80,0x47,0x00,0x00,0x90,0x46,0x32,0x60,0x80,0x46,0x00,0x00,0x80,0x34,0x00,0x00,0x90,0x47,0x32,0x00,0x90,0x38,0x32,0x60,0x80,0x47,0x00,0x00,0x90,0x42,0x32,0x60,0x80,0x38,0x00,0x00,0x80,0x42,0x00,0x00,0x90,0x3b,0x32,0x00,0x90,0x44,0x32,0x60,0x80,0x44,0x00,0x00,0x90,0x47,0x32,0x60,0x80,0x3b,0x00,0x00,0x80,0x47,0x00,0x00,0x90,0x4c,0x32,0x00,0x90,0x2f,0x32,0x60,0x80,0x4c,0x00,0x00,0x90,0x4b,0x32,0x60,0x80,0x2f,0x00,0x00,0x80,0x4b,0x00,0x00,0x90,0x33,0x32,0x00,0x90,0x4c,0x32,0x60,0x80,0x4c,0x00,0x00,0x90,0x4e,0x32,0x60,0x80,0x33,0x00,0x00,0x80,0x4e,0x00,0x00,0x90,0x47,0x32,0x00,0x90,0x36,0x32,0x81,0x40,0x80,0x36,0x00,0x00,0x80,0x47,0x00,0x00,0x90,0x3b,0x32,0x00,0x90,0x49,0x32,0x81,0x40,0x80,0x49,0x00,0x00,0x80,0x3b,0x00,0x00,0x90,0x4b,0x32,0x00,0x90,0x3b,0x32,0x60,0x80,0x4b,0x00,0x00,0x90,0x4c,0x32,0x60,0x80,0x4c,0x00,0x00,0x90,0x4e,0x32,0x60,0x80,0x3b,0x00,0x60,0x80,0x4e,0x00,0x00,0x90,0x53,0x32,0x00,0x90,0x3b,0x32,0x81,0x40,0x80,0x53,0x00,0x00,0x90,0x4b,0x32,0x60,0x80,0x4b,0x00,0x00,0x80,0x3b,0x00,0x00,0x90,0x4c,0x32,0x60,0x80,0x4c,0x00,0x00,0x90,0x4e,0x32,0x00,0x90,0x3b,0x32,0x60,0x80,0x4e,0x00,0x00,0x90,0x53,0x32,0x60,0x80,0x53,0x00,0x00,0x90,0x55,0x32,0x60,0x80,0x55,0x00,0x00,0x80,0x3b,0x00,0x00,0x90,0x57,0x32,0x60,0x80,0x57,0x00,0x00,0x90,0x55,0x32,0x00,0x90,0x3b,0x32,0x60,0x80,0x55,0x00,0x00,0x90,0x5a,0x32,0x00,0x90,0x52,0x32,0x60,0x80,0x5a,0x00,0x00,0x80,0x52,0x00,0x00,0x90,0x53,0x32,0x60,0x80,0x3b,0x00,0x60,0x80,0x53,0x00,0x00,0x90,0x4e,0x32,0x00,0x90,0x3b,0x32,0x81,0x40,0x80,0x4e,0x00,0x00,0x90,0x4b,0x32,0x60,0x80,0x3b,0x00,0x00,0x80,0x4b,0x00,0x00,0x90,0x4c,0x32,0x60,0x80,0x4c,0x00,0x00,0x90,0x4e,0x32,0x00,0x90,0x3b,0x32,0x81,0x40,0x80,0x4e,0x00,0x00,0x90,0x53,0x32,0x60,0x80,0x3b,0x00,0x60,0x80,0x53,0x00,0x00,0x90,0x3b,0x32,0x00,0x90,0x55,0x32,0x60,0x80,0x55,0x00,0x00,0x90,0x52,0x32,0x60,0x80,0x52,0x00,0x00,0x90,0x53,0x32,0x60,0x80,0x3b,0x00,0x00,0x80,0x53,0x00,0x00,0x90,0x55,0x32,0x60,0x80,0x55,0x00,0x00,0x90,0x58,0x32,0x00,0x90,0x3b,0x32,0x60,0x80,0x58,0x00,0x00,0x90,0x57,0x32,0x60,0x80,0x57,0x00,0x00,0x90,0x58,0x32,0x60,0x80,0x3b,0x00,0x00,0x80,0x58,0x00,0x00,0x90,0x55,0x32,0x60,0x80,0x55,0x00,0x00,0x90,0x4e,0x32,0x00,0x90,0x28,0x32,0x81,0x40,0x80,0x4e,0x00,0x00,0x80,0x28,0x00,0x00,0x90,0x50,0x32,0x00,0x90,0x34,0x32,0x81,0x40,0x80,0x34,0x00,0x00,0x80,0x50,0x00,0x00,0x90,0x4b,0x32,0x00,0x90,0x2a,0x32,0x60,0x80,0x4b,0x00,0x00,0x90,0x4b,0x32,0x60,0x80,0x2a,0x00,0x00,0x80,0x4b,0x00,0x00,0x90,0x36,0x32,0x60,0x90,0x47,0x32,0x60,0x80,0x36,0x00,0x00,0x80,0x47,0x00,0x00,0x90,0x27,0x32,0x00,0x90,0x4a,0x32,0x60,0x80,0x4a,0x00,0x00,0x90,0x49,0x32,0x60,0x80,0x27,0x00,0x00,0x80,0x49,0x00,0x00,0x90,0x47,0x32,0x00,0x90,0x33,0x32,0x60,0x80,0x47,0x00,0x60,0x80,0x33,0x00,0x00,0x90,0x47,0x32,0x00,0x90,0x2c,0x32,0x81,0x40,0x80,0x47,0x00,0x00,0x80,0x2c,0x00,0x00,0x90,0x38,0x32,0x00,0x90,0x49,0x32,0x81,0x40,0x80,0x49,0x00,0x00,0x80,0x38,0x00,0x00,0x90,0x4a,0x32,0x00,0x90,0x25,0x32,0x81,0x40,0x80,0x4a,0x00,0x00,0x80,0x25,0x00,0x00,0x90,0x31,0x32,0x00,0x90,0x4a,0x32,0x60,0x80,0x4a,0x00,0x00,0x90,0x49,0x32,0x60,0x80,0x31,0x00,0x00,0x80,0x49,0x00,0x00,0x90,0x47,0x32,0x00,0x90,0x2a,0x32,0x60,0x80,0x47,0x00,0x00,0x90,0x49,0x32,0x60,0x80,0x2a,0x00,0x00,0x80,0x49,0x00,0x00,0x90,0x36,0x32,0x00,0x90,0x4b,0x32,0x60,0x80,0x4b,0x00,0x00,0x90,0x4e,0x32,0x60,0x80,0x36,0x00,0x00,0x80,0x4e,0x00,0x00,0x90,0x23,0x32,0x00,0x90,0x50,0x32,0x60,0x80,0x50,0x00,0x00,0x90,0x4b,0x32,0x60,0x80,0x23,0x00,0x00,0x80,0x4b,0x00,0x00,0x90,0x4e,0x32,0x00,0x90,0x2f,0x32,0x60,0x80,0x4e,0x00,0x00,0x90,0x49,0x32,0x60,0x80,0x2f,0x00,0x00,0x80,0x49,0x00,0x00,0x90,0x23,0x32,0x00,0x90,0x4b,0x32,0x60,0x80,0x4b,0x00,0x00,0x90,0x47,0x32,0x60,0x80,0x23,0x00,0x00,0x80,0x47,0x00,0x00,0x90,0x2f,0x32,0x00,0x90,0x49,0x32,0x60,0x80,0x49,0x00,0x00,0x90,0x47,0x32,0x60,0x80,0x2f,0x00,0x00,0x80,0x47,0x00,0x00,0x90,0x4b,0x32,0x00,0x90,0x28,0x32,0x81,0x40,0x80,0x4b,0x00,0x00,0x80,0x28,0x00,0x00,0x90,0x34,0x32,0x00,0x90,0x4e,0x32,0x81,0x40,0x80,0x4e,0x00,0x00,0x80,0x34,0x00,0x00,0x90,0x50,0x32,0x00,0x90,0x2a,0x32,0x60,0x80,0x50,0x00,0x00,0x90,0x4b,0x32,0x60,0x80,0x4b,0x00,0x00,0x80,0x2a,0x00,0x00,0x90,0x36,0x32,0x00,0x90,0x4e,0x32,0x60,0x80,0x4e,0x00,0x00,0x90,0x49,0x32,0x60,0x80,0x36,0x00,0x00,0x80,0x49,0x00,0x00,0x90,0x4b,0x32,0x00,0x90,0x27,0x32,0x60,0x80,0x4b,0x00,0x00,0x90,0x47,0x32,0x60,0x80,0x27,0x00,0x00,0x80,0x47,0x00,0x00,0x90,0x4a,0x32,0x00,0x90,0x33,0x32,0x60,0x80,0x4a,0x00,0x00,0x90,0x4b,0x32,0x60,0x80,0x33,0x00,0x00,0x80,0x4b,0x00,0x00,0x90,0x2c,0x32,0x00,0x90,0x4a,0x32,0x60,0x80,0x4a,0x00,0x00,0x90,0x49,0x32,0x60,0x80,0x2c,0x00,0x00,0x80,0x49,0x00,0x00,0x90,0x47,0x32,0x00,0x90,0x38,0x32,0x60,0x80,0x47,0x00,0x00,0x90,0x49,0x32,0x60,0x80,0x38,0x00,0x00,0x80,0x49,0x00,0x00,0x90,0x25,0x32,0x00,0x90,0x4a,0x32,0x81,0x40,0x80,0x4a,0x00,0x00,0x80,0x25,0x00,0x00,0x90,0x31,0x32,0x00,0x90,0x47,0x32,0x60,0x80,0x47,0x00,0x00,0x90,0x49,0x32,0x60,0x80,0x31,0x00,0x00,0x80,0x49,0x00,0x00,0x90,0x4b,0x32,0x00,0x90,0x2a,0x32,0x60,0x80,0x4b,0x00,0x00,0x90,0x4e,0x32,0x60,0x80,0x4e,0x00,0x00,0x80,0x2a,0x00,0x00,0x90,0x36,0x32,0x00,0x90,0x49,0x32,0x60,0x80,0x49,0x00,0x00,0x90,0x4b,0x32,0x60,0x80,0x36,0x00,0x00,0x80,0x4b,0x00,0x00,0x90,0x23,0x32,0x00,0x90,0x49,0x32,0x60,0x80,0x49,0x00,0x00,0x90,0x47,0x32,0x60,0x80,0x23,0x00,0x00,0x80,0x47,0x00,0x00,0x90,0x49,0x32,0x00,0x90,0x2f,0x32,0x81,0x40,0x80,0x2f,0x00,0x00,0x80,0x49,0x00,0x00,0x90,0x47,0x32,0x00,0x90,0x23,0x32,0x81,0x40,0x80,0x23,0x00,0x00,0x80,0x47,0x00,0x00,0x90,0x2f,0x32,0x00,0x90,0x49,0x32,0x81,0x40,0x80,0x49,0x00,0x00,0x80,0x2f,0x00,0x00,0x90,0x4e,0x32,0x00,0x90,0x28,0x32,0x81,0x40,0x80,0x28,0x00,0x00,0x80,0x4e,0x00,0x00,0x90,0x50,0x32,0x00,0x90,0x34,0x32,0x81,0x40,0x80,0x34,0x00,0x00,0x80,0x50,0x00,0x00,0x90,0x2a,0x32,0x00,0x90,0x4b,0x32,0x60,0x80,0x4b,0x00,0x00,0x90,0x4b,0x32,0x60,0x80,0x4b,0x00,0x00,0x80,0x2a,0x00,0x00,0x90,0x36,0x32,0x60,0x90,0x47,0x32,0x60,0x80,0x36,0x00,0x00,0x80,0x47,0x00,0x00,0x90,0x27,0x32,0x00,0x90,0x4a,0x32,0x60,0x80,0x4a,0x00,0x00,0x90,0x49,0x32,0x60,0x80,0x27,0x00,0x00,0x80,0x49,0x00,0x00,0x90,0x33,0x32,0x00,0x90,0x47,0x32,0x60,0x80,0x47,0x00,0x60,0x80,0x33,0x00,0x00,0x90,0x2c,0x32,0x00,0x90,0x47,0x32,0x81,0x40,0x80,0x47,0x00,0x00,0x80,0x2c,0x00,0x00,0x90,0x49,0x32,0x00,0x90,0x38,0x32,0x81,0x40,0x80,0x49,0x00,0x00,0x80,0x38,0x00,0x00,0x90,0x25,0x32,0x00,0x90,0x4a,0x32,0x81,0x40,0x80,0x4a,0x00,0x00,0x80,0x25,0x00,0x00,0x90,0x31,0x32,0x00,0x90,0x4a,0x32,0x60,0x80,0x4a,0x00,0x00,0x90,0x49,0x32,0x60,0x80,0x49,0x00,0x00,0x80,0x31,0x00,0x00,0x90,0x47,0x32,0x00,0x90,0x2a,0x32,0x60,0x80,0x47,0x00,0x00,0x90,0x49,0x32,0x60,0x80,0x2a,0x00,0x00,0x80,0x49,0x00,0x00,0x90,0x36,0x32,0x00,0x90,0x4b,0x32,0x60,0x80,0x4b,0x00,0x00,0x90,0x4e,0x32,0x60,0x80,0x4e,0x00,0x00,0x80,0x36,0x00,0x00,0x90,0x23,0x32,0x00,0x90,0x50,0x32,0x60,0x80,0x50,0x00,0x00,0x90,0x4b,0x32,0x60,0x80,0x23,0x00,0x00,0x80,0x4b,0x00,0x00,0x90,0x4e,0x32,0x00,0x90,0x2f,0x32,0x60,0x80,0x4e,0x00,0x00,0x90,0x49,0x32,0x60,0x80,0x2f,0x00,0x00,0x80,0x49,0x00,0x00,0x90,0x23,0x32,0x00,0x90,0x4b,0x32,0x60,0x80,0x4b,0x00,0x00,0x90,0x47,0x32,0x60,0x80,0x23,0x00,0x00,0x80,0x47,0x00,0x00,0x90,0x2f,0x32,0x00,0x90,0x49,0x32,0x60,0x80,0x49,0x00,0x00,0x90,0x47,0x32,0x60,0x80,0x2f,0x00,0x00,0x80,0x47,0x00,0x00,0x90,0x28,0x32,0x00,0x90,0x4b,0x32,0x81,0x40,0x80,0x4b,0x00,0x00,0x80,0x28,0x00,0x00,0x90,0x34,0x32,0x00,0x90,0x4e,0x32,0x81,0x40,0x80,0x4e,0x00,0x00,0x80,0x34,0x00,0x00,0x90,0x50,0x32,0x00,0x90,0x2a,0x32,0x60,0x80,0x50,0x00,0x00,0x90,0x4b,0x32,0x60,0x80,0x4b,0x00,0x00,0x80,0x2a,0x00,0x00,0x90,0x36,0x32,0x00,0x90,0x4e,0x32,0x60,0x80,0x4e,0x00,0x00,0x90,0x49,0x32,0x60,0x80,0x36,0x00,0x00,0x80,0x49,0x00,0x00,0x90,0x27,0x32,0x00,0x90,0x4b,0x32,0x60,0x80,0x4b,0x00,0x00,0x90,0x47,0x32,0x60,0x80,0x47,0x00,0x00,0x80,0x27,0x00,0x00,0x90,0x33,0x32,0x00,0x90,0x4a,0x32,0x60,0x80,0x4a,0x00,0x00,0x90,0x4b,0x32,0x60,0x80,0x33,0x00,0x00,0x80,0x4b,0x00,0x00,0x90,0x4a,0x32,0x00,0x90,0x2c,0x32,0x60,0x80,0x4a,0x00,0x00,0x90,0x49,0x32,0x60,0x80,0x2c,0x00,0x00,0x80,0x49,0x00,0x00,0x90,0x47,0x32,0x00,0x90,0x38,0x32,0x60,0x80,0x47,0x00,0x00,0x90,0x49,0x32,0x60,0x80,0x38,0x00,0x00,0x80,0x49,0x00,0x00,0x90,0x4a,0x32,0x00,0x90,0x25,0x32,0x81,0x40,0x80,0x25,0x00,0x00,0x80,0x4a,0x00,0x00,0x90,0x47,0x32,0x00,0x90,0x31,0x32,0x60,0x80,0x47,0x00,0x00,0x90,0x49,0x32,0x60,0x80,0x31,0x00,0x00,0x80,0x49,0x00,0x00,0x90,0x2a,0x32,0x00,0x90,0x4b,0x32,0x60,0x80,0x4b,0x00,0x00,0x90,0x4e,0x32,0x60,0x80,0x2a,0x00,0x00,0x80,0x4e,0x00,0x00,0x90,0x49,0x32,0x00,0x90,0x36,0x32,0x60,0x80,0x49,0x00,0x00,0x90,0x4b,0x32,0x60,0x80,0x36,0x00,0x00,0x80,0x4b,0x00,0x00,0x90,0x23,0x32,0x00,0x90,0x49,0x32,0x60,0x80,0x49,0x00,0x00,0x90,0x47,0x32,0x60,0x80,0x23,0x00,0x00,0x80,0x47,0x00,0x00,0x90,0x49,0x32,0x00,0x90,0x2f,0x32,0x81,0x40,0x80,0x2f,0x00,0x00,0x80,0x49,0x00,0x00,0x90,0x23,0x32,0x00,0x90,0x47,0x32,0x81,0x40,0x80,0x47,0x00,0x00,0x80,0x23,0x00,0x00,0x90,0x2f,0x32,0x00,0x90,0x49,0x32,0x81,0x40,0x80,0x2f,0x00,0x00,0x80,0x49,0x00,0x00,0x90,0x34,0x32,0x00,0x90,0x47,0x32,0x81,0x40,0x80,0x47,0x00,0x00,0x80,0x34,0x00,0x00,0x90,0x42,0x32,0x00,0x90,0x38,0x32,0x60,0x80,0x42,0x00,0x00,0x90,0x44,0x32,0x60,0x80,0x44,0x00,0x00,0x80,0x38,0x00,0x00,0x90,0x3b,0x32,0x00,0x90,0x47,0x32,0x81,0x40,0x80,0x47,0x00,0x00,0x80,0x3b,0x00,0x00,0x90,0x40,0x32,0x00,0x90,0x42,0x32,0x60,0x80,0x42,0x00,0x00,0x90,0x44,0x32,0x60,0x80,0x40,0x00,0x00,0x80,0x44,0x00,0x00,0x90,0x33,0x32,0x00,0x90,0x47,0x32,0x60,0x80,0x47,0x00,0x00,0x90,0x49,0x32,0x60,0x80,0x33,0x00,0x00,0x80,0x49,0x00,0x00,0x90,0x4b,0x32,0x00,0x90,0x36,0x32,0x60,0x80,0x4b,0x00,0x00,0x90,0x47,0x32,0x60,0x80,0x47,0x00,0x00,0x80,0x36,0x00,0x00,0x90,0x3b,0x32,0x00,0x90,0x4c,0x32,0x60,0x80,0x4c,0x00,0x00,0x90,0x4b,0x32,0x60,0x80,0x3b,0x00,0x00,0x80,0x4b,0x00,0x00,0x90,0x3f,0x32,0x00,0x90,0x4c,0x32,0x60,0x80,0x4c,0x00,0x00,0x90,0x4e,0x32,0x60,0x80,0x4e,0x00,0x00,0x80,0x3f,0x00,0x00,0x90,0x31,0x32,0x00,0x90,0x47,0x32,0x81,0x40,0x80,0x47,0x00,0x00,0x80,0x31,0x00,0x00,0x90,0x47,0x32,0x00,0x90,0x34,0x32,0x81,0x40,0x80,0x34,0x00,0x00,0x80,0x47,0x00,0x00,0x90,0x38,0x32,0x00,0x90,0x42,0x32,0x60,0x80,0x42,0x00,0x00,0x90,0x44,0x32,0x60,0x80,0x38,0x00,0x00,0x80,0x44,0x00,0x00,0x90,0x3b,0x32,0x00,0x90,0x47,0x32,0x60,0x80,0x47,0x00,0x00,0x90,0x42,0x32,0x60,0x80,0x3b,0x00,0x00,0x80,0x42,0x00,0x00,0x90,0x4c,0x32,0x00,0x90,0x2f,0x32,0x60,0x80,0x4c,0x00,0x00,0x90,0x4b,0x32,0x60,0x80,0x2f,0x00,0x00,0x80,0x4b,0x00,0x00,0x90,0x49,0x32,0x00,0x90,0x33,0x32,0x60,0x80,0x49,0x00,0x00,0x90,0x47,0x32,0x60,0x80,0x33,0x00,0x00,0x80,0x47,0x00,0x00,0x90,0x42,0x32,0x00,0x90,0x36,0x32,0x60,0x80,0x42,0x00,0x00,0x90,0x3f,0x32,0x60,0x80,0x36,0x00,0x00,0x80,0x3f,0x00,0x00,0x90,0x3b,0x32,0x00,0x90,0x40,0x32,0x60,0x80,0x40,0x00,0x00,0x90,0x42,0x32,0x60,0x80,0x3b,0x00,0x00,0x80,0x42,0x00,0x00,0x90,0x34,0x32,0x00,0x90,0x47,0x32,0x81,0x40,0x80,0x34,0x00,0x00,0x80,0x47,0x00,0x00,0x90,0x42,0x32,0x00,0x90,0x38,0x32,0x60,0x80,0x42,0x00,0x00,0x90,0x44,0x32,0x60,0x80,0x38,0x00,0x00,0x80,0x44,0x00,0x00,0x90,0x47,0x32,0x00,0x90,0x3b,0x32,0x81,0x40,0x80,0x3b,0x00,0x00,0x80,0x47,0x00,0x00,0x90,0x40,0x32,0x00,0x90,0x42,0x32,0x60,0x80,0x42,0x00,0x00,0x90,0x44,0x32,0x60,0x80,0x40,0x00,0x00,0x80,0x44,0x00,0x00,0x90,0x33,0x32,0x00,0x90,0x47,0x32,0x60,0x80,0x47,0x00,0x00,0x90,0x47,0x32,0x60,0x80,0x33,0x00,0x00,0x80,0x47,0x00,0x00,0x90,0x49,0x32,0x00,0x90,0x36,0x32,0x60,0x80,0x49,0x00,0x00,0x90,0x4b,0x32,0x60,0x80,0x36,0x00,0x00,0x80,0x4b,0x00,0x00,0x90,0x47,0x32,0x00,0x90,0x3b,0x32,0x60,0x80,0x47,0x00,0x00,0x90,0x42,0x32,0x60,0x80,0x3b,0x00,0x00,0x80,0x42,0x00,0x00,0x90,0x44,0x32,0x00,0x90,0x3f,0x32,0x60,0x80,0x44,0x00,0x00,0x90,0x42,0x32,0x60,0x80,0x3f,0x00,0x00,0x80,0x42,0x00,0x00,0x90,0x31,0x32,0x00,0x90,0x47,0x32,0x81,0x40,0x80,0x47,0x00,0x00,0x80,0x31,0x00,0x00,0x90,0x47,0x32,0x00,0x90,0x34,0x32,0x60,0x80,0x47,0x00,0x00,0x90,0x46,0x32,0x60,0x80,0x46,0x00,0x00,0x80,0x34,0x00,0x00,0x90,0x47,0x32,0x00,0x90,0x38,0x32,0x60,0x80,0x47,0x00,0x00,0x90,0x42,0x32,0x60,0x80,0x38,0x00,0x00,0x80,0x42,0x00,0x00,0x90,0x44,0x32,0x00,0x90,0x3b,0x32,0x60,0x80,0x44,0x00,0x00,0x90,0x47,0x32,0x60,0x80,0x3b,0x00,0x00,0x80,0x47,0x00,0x00,0x90,0x2f,0x32,0x00,0x90,0x4c,0x32,0x60,0x80,0x4c,0x00,0x00,0x90,0x4b,0x32,0x60,0x80,0x2f,0x00,0x00,0x80,0x4b,0x00,0x00,0x90,0x33,0x32,0x00,0x90,0x4c,0x32,0x60,0x80,0x4c,0x00,0x00,0x90,0x4e,0x32,0x60,0x80,0x33,0x00,0x00,0x80,0x4e,0x00,0x00,0x90,0x47,0x32,0x00,0x90,0x36,0x32,0x81,0x40,0x80,0x36,0x00,0x00,0x80,0x47,0x00,0x00,0x90,0x46,0x32,0x00,0x90,0x3b,0x32,0x81,0x40,0x80,0x3b,0x00,0x00,0x80,0x46,0x00,0x00,0x90,0x47,0x32,0x00,0x90,0x34,0x32,0x81,0x40,0x80,0x34,0x00,0x00,0x80,0x47,0x00,0x00,0x90,0x42,0x32,0x00,0x90,0x38,0x32,0x60,0x80,0x42,0x00,0x00,0x90,0x44,0x32,0x60,0x80,0x38,0x00,0x00,0x80,0x44,0x00,0x00,0x90,0x3b,0x32,0x00,0x90,0x47,0x32,0x81,0x40,0x80,0x3b,0x00,0x00,0x80,0x47,0x00,0x00,0x90,0x42,0x32,0x00,0x90,0x40,0x32,0x60,0x80,0x42,0x00,0x00,0x90,0x44,0x32,0x60,0x80,0x40,0x00,0x00,0x80,0x44,0x00,0x00,0x90,0x47,0x32,0x00,0x90,0x33,0x32,0x60,0x80,0x47,0x00,0x00,0x90,0x49,0x32,0x60,0x80,0x33,0x00,0x00,0x80,0x49,0x00,0x00,0x90,0x36,0x32,0x00,0x90,0x4b,0x32,0x60,0x80,0x4b,0x00,0x00,0x90,0x47,0x32,0x60,0x80,0x36,0x00,0x00,0x80,0x47,0x00,0x00,0x90,0x4c,0x32,0x00,0x90,0x3b,0x32,0x60,0x80,0x4c,0x00,0x00,0x90,0x4b,0x32,0x60,0x80,0x3b,0x00,0x00,0x80,0x4b,0x00,0x00,0x90,0x4c,0x32,0x00,0x90,0x3f,0x32,0x60,0x80,0x4c,0x00,0x00,0x90,0x4e,0x32,0x60,0x80,0x3f,0x00,0x00,0x80,0x4e,0x00,0x00,0x90,0x31,0x32,0x00,0x90,0x47,0x32,0x81,0x40,0x80,0x47,0x00,0x00,0x80,0x31,0x00,0x00,0x90,0x47,0x32,0x00,0x90,0x34,0x32,0x81,0x40,0x80,0x34,0x00,0x00,0x80,0x47,0x00,0x00,0x90,0x38,0x32,0x00,0x90,0x42,0x32,0x60,0x80,0x42,0x00,0x00,0x90,0x44,0x32,0x60,0x80,0x44,0x00,0x00,0x80,0x38,0x00,0x00,0x90,0x47,0x32,0x00,0x90,0x3b,0x32,0x60,0x80,0x47,0x00,0x00,0x90,0x42,0x32,0x60,0x80,0x3b,0x00,0x00,0x80,0x42,0x00,0x00,0x90,0x2f,0x32,0x00,0x90,0x4c,0x32,0x60,0x80,0x4c,0x00,0x00,0x90,0x4b,0x32,0x60,0x80,0x4b,0x00,0x00,0x80,0x2f,0x00,0x00,0x90,0x49,0x32,0x00,0x90,0x33,0x32,0x60,0x80,0x49,0x00,0x00,0x90,0x47,0x32,0x00,0x90,0x4a,0x32,0x60,0x80,0x33,0x00,0x00,0x80,0x4a,0x00,0x00,0x80,0x47,0x00,0x00,0x90,0x36,0x32,0x00,0x90,0x42,0x32,0x60,0x80,0x42,0x00,0x00,0x90,0x3f,0x32,0x60,0x80,0x36,0x00,0x00,0x80,0x3f,0x00,0x00,0x90,0x3b,0x32,0x00,0x90,0x40,0x32,0x60,0x80,0x40,0x00,0x00,0x90,0x42,0x32,0x60,0x80,0x3b,0x00,0x00,0x80,0x42,0x00,0x00,0x90,0x47,0x32,0x00,0x90,0x34,0x32,0x81,0x40,0x80,0x34,0x00,0x00,0x80,0x47,0x00,0x00,0x90,0x38,0x32,0x00,0x90,0x42,0x32,0x60,0x80,0x42,0x00,0x00,0x90,0x44,0x32,0x60,0x80,0x44,0x00,0x00,0x80,0x38,0x00,0x00,0x90,0x47,0x32,0x00,0x90,0x3b,0x32,0x81,0x40,0x80,0x3b,0x00,0x00,0x80,0x47,0x00,0x00,0x90,0x40,0x32,0x00,0x90,0x42,0x32,0x60,0x80,0x42,0x00,0x00,0x90,0x44,0x32,0x60,0x80,0x40,0x00,0x00,0x80,0x44,0x00,0x00,0x90,0x47,0x32,0x00,0x90,0x33,0x32,0x60,0x80,0x47,0x00,0x00,0x90,0x47,0x32,0x60,0x80,0x33,0x00,0x00,0x80,0x47,0x00,0x00,0x90,0x49,0x32,0x00,0x90,0x36,0x32,0x60,0x80,0x49,0x00,0x00,0x90,0x4b,0x32,0x60,0x80,0x36,0x00,0x00,0x80,0x4b,0x00,0x00,0x90,0x3b,0x32,0x00,0x90,0x47,0x32,0x60,0x80,0x47,0x00,0x00,0x90,0x42,0x32,0x60,0x80,0x3b,0x00,0x00,0x80,0x42,0x00,0x00,0x90,0x44,0x32,0x00,0x90,0x3f,0x32,0x60,0x80,0x44,0x00,0x00,0x90,0x42,0x32,0x60,0x80,0x3f,0x00,0x00,0x80,0x42,0x00,0x00,0x90,0x31,0x32,0x00,0x90,0x47,0x32,0x81,0x40,0x80,0x31,0x00,0x00,0x80,0x47,0x00,0x00,0x90,0x34,0x32,0x00,0x90,0x47,0x32,0x60,0x80,0x47,0x00,0x00,0x90,0x46,0x32,0x60,0x80,0x46,0x00,0x00,0x80,0x34,0x00,0x00,0x90,0x47,0x32,0x00,0x90,0x38,0x32,0x60,0x80,0x47,0x00,0x00,0x90,0x42,0x32,0x60,0x80,0x38,0x00,0x00,0x80,0x42,0x00,0x00,0x90,0x3b,0x32,0x00,0x90,0x44,0x32,0x60,0x80,0x44,0x00,0x00,0x90,0x47,0x32,0x60,0x80,0x3b,0x00,0x00,0x80,0x47,0x00,0x00,0x90,0x4c,0x32,0x00,0x90,0x2f,0x32,0x60,0x80,0x4c,0x00,0x00,0x90,0x4b,0x32,0x60,0x80,0x2f,0x00,0x00,0x80,0x4b,0x00,0x00,0x90,0x33,0x32,0x00,0x90,0x4c,0x32,0x60,0x80,0x4c,0x00,0x00,0x90,0x4e,0x32,0x60,0x80,0x33,0x00,0x00,0x80,0x4e,0x00,0x00,0x90,0x47,0x32,0x00,0x90,0x36,0x32,0x81,0x40,0x80,0x36,0x00,0x00,0x80,0x47,0x00,0x00,0x90,0x3b,0x32,0x00,0x90,0x49,0x32,0x81,0x40,0x80,0x49,0x00,0x00,0x80,0x3b,0x00,0x00,0xff,0x2f,0x00,0x4d,0x54,0x72,0x6b,0x00,0x00,0x00,0x36,0x00,0xff,0x03,0x08,0x44,0x72,0x75,0x6d,0x20,0x4b,0x69,0x74,0x00,0xc9,0x00,0xbd,0x40,0x99,0x3a,0x32,0x00,0x99,0x3a,0x32,0x60,0x89,0x3a,0x00,0x00,0x89,0x3a,0x00,0x81,0xef,0x00,0x99,0x3a,0x32,0x00,0x99,0x3a,0x32,0x60,0x89,0x3a,0x00,0x00,0x89,0x3a,0x00,0x00,0xff,0x2f,0x00,

};
